<?xml version="1.0" encoding="UTF-8" standalone="yes"?><svg xmlns="http://www.w3.org/2000/svg" xmlns:xlink="http://www.w3.org/1999/xlink" width="297.000mm" height="210.000mm" viewBox="0.000000 0.000000 297.000000 210.000000" stroke-linejoin="round" stroke-linecap="round" fill="none" fill-rule="evenodd"><desc>Composer Export</desc><script type="text/ecmascript"><![CDATA[
if(typeof(top) != "undefined")
{
	top.ShowPaper = ShowPaper;
}
function ShowHotSpot(evt,hotspotid)
{
	var svgDocument = evt.target.ownerDocument;
	var strId = "hotspot."+hotspotid;
	var hotspot = svgDocument.getElementById(strId);
	if(hotspot)
		hotspot.setAttribute("opacity",".5");
}
function HideHotSpot(evt,hotspotid)
{
	var svgDocument = evt.target.ownerDocument;
	var strId = "hotspot."+hotspotid;
	var hotspot = svgDocument.getElementById(strId);
	if(hotspot)
		hotspot.setAttribute("opacity","0");

	var toolTip = svgDocument.getElementById('ToolTip');
	if(toolTip)
		toolTip.setAttribute("visibility","hidden");
}
function ShowToolTip(evt,hotspotid,strTooltip)
{
	if(strTooltip=="")
	return;

	// change text
	var svgDocument = evt.target.ownerDocument;
	var tiptext = svgDocument.getElementById('ToolTipText');
	if( !tiptext )
	return;
	tiptext.firstChild.nodeValue = " " + strTooltip + "  " ;

	// show tooltip before, else some refresh issue

	var toolTip = svgDocument.getElementById('ToolTip');
	if(!toolTip)
	return;

	toolTip.setAttribute("visibility","visible");
	toolTip.setAttribute("opacity",".95");

	// move tooltip
	// get viewbox

	var root = svgDocument.documentElement;
	var vbox = (root.getAttribute("viewBox")).split(' ');
	var x0 = parseFloat(vbox[0]);
	var y0 = parseFloat(vbox[1]);
	var vboxW = parseFloat(vbox[2]);
	var vboxH = parseFloat(vbox[3]);

	// get default width of svg

	var strW = root.getAttribute("width");
	var svgW = parseFloat(strW);
	if(strW.indexOf('mm') != -1)
	svgW *= 3.779;

	var strH = root.getAttribute("height");
	var svgH = parseFloat(strH);
	if(strH.indexOf('mm') != -1)
	svgH *= 3.779;  	// 96 dpi  -> 96/25.4 = 3.779

	// update the viewbox / width / height if svg is embedded in html with zoom fit all
	var realx0 = x0;
	var realy0 = y0;
	var realvboxW = vboxW;
	var realvboxH = vboxH;
	var realsvgW = svgW;
	var realsvgH = svgH;

	if ((typeof(top) == "undefined") || (typeof(top.svgctl1) != "undefined")) // embedded in html
	{
		// get window size in pxl

		svgW = window.innerWidth;
		svgH = window.innerHeight;

		// calculate real viewbox

		realsvgW = svgW;
		realsvgH = svgH;
		if((svgW / svgH) > (vboxW / vboxH))
		{
			realvboxW = (vboxH * svgW) / svgH;
			realvboxH = vboxH;
			realx0 = x0 - (realvboxW - vboxW)/2 ;
		}
		else
		{
			realvboxH = (vboxW * svgH) / svgW;
			realvboxW = vboxW;
			realy0 = y0 - (realvboxH - vboxH)/2 ;
		}
	}

	// get user zoom/pan

	var newScale = root.currentScale;
	var translation = root.currentTranslate;

	// transform pxl to user unit

	var xPos = (((evt.clientX+10- translation.x)/newScale) * realvboxW)/realsvgW  + realx0 ;
	var yPos = (((evt.clientY+5- translation.y)/newScale) * realvboxH)/ realsvgH  + realy0 ;
	var scaleForWidth = ( (1 / newScale) * realvboxH) / realsvgH;

	// move tooltip

	toolTip.setAttribute("transform", "translate(" + xPos + "," + yPos + ")" );

	// resize tooltip

	var fontsize = 12;
	tiptext.setAttribute("font-size",fontsize*scaleForWidth);
	tiptext.setAttribute("y", fontsize*scaleForWidth);
	var tipBG = svgDocument.getElementById('ToolTipBG');
	var outline = tiptext.getBBox();
	if(tipBG)
	{
		tipBG.setAttribute("stroke-width", 1*scaleForWidth);
		tipBG.setAttribute("width", Number(outline.width) );
		tipBG.setAttribute("height", Number(outline.height) + fontsize*.5*scaleForWidth );
	}
	var ToolTipShadow = svgDocument.getElementById('ToolTipShadow');
	if(ToolTipShadow)
	{
		ToolTipShadow.setAttribute("width", Number(outline.width) );
		ToolTipShadow.setAttribute("height", Number(outline.height) + fontsize*.5*scaleForWidth );
		ToolTipShadow.setAttribute("x", 3*scaleForWidth);
		ToolTipShadow.setAttribute("y", 3*scaleForWidth);
	}
}
function ShowPaper()
{
  var svgDocument = getDocument();
  var paper = svgDocument.getElementById("paperID");
  if(paper)
  {
    paper.setAttribute("transform","scale(1)");
    paper.setAttribute("opacity","1");
    paper.setAttribute("visibility","visible");
  }
  var svg = svgDocument.getRootElement();
  if(svg)
  {
    svg.setAttribute("width","307.000mm");
    svg.setAttribute("height","220.000mm");
    svg.setAttribute("viewBox","-5.000000 -5.000000 307.000000 220.000000");
  }
}
]]></script><defs/><g><path style="fill:#ffffff" d="M297.00,210.08L0.07,210.08L0.07,0.07L297.00,0.07z"/><path style="fill:#fffe02" d="M124.64,111.07L124.43,113.49L124.64,75.54L125.67,73.82L127.65,72.79L137.19,72.71L137.23,74.15L128.33,74.23L127.33,74.47L126.42,75.07L125.64,76.30L125.18,113.76L124.75,113.69L124.93,110.80z"/><path style="fill:#01ff02" d="M103.42,71.37L100.76,71.47L103.41,71.63L103.37,72.82L100.45,72.84L100.86,72.46L93.75,72.46L92.51,73.22L91.75,74.46L91.37,112.00L90.92,111.94L91.11,109.05L90.87,109.09L90.67,111.92L90.51,111.90L90.83,73.54L91.74,72.20L93.01,71.22L93.50,70.96L103.40,70.96z"/><path style="fill:#e5e5e5" d="M170.34,40.60L170.79,40.91L170.26,127.92L167.74,131.20L167.91,77.23L168.15,40.14L168.98,40.16z"/><path style="fill:#e5e5e5" d="M161.71,61.51L162.12,60.93L162.80,60.86L162.24,61.29L162.06,63.08L161.73,62.98z"/><path style="fill:#fff2e8" d="M166.76,36.14L166.77,37.01L166.52,37.26L164.83,37.51L163.48,37.17L163.27,36.82L163.29,36.10L163.89,35.64L166.25,35.64z"/><path style="fill:#fff2e8" d="M233.39,50.41L233.39,51.52L232.96,51.67L230.59,51.70L229.89,51.35L229.93,50.39L230.76,49.92L232.62,49.92z"/><path style="fill:#fff2e8" d="M164.96,61.47L165.51,63.04L164.90,63.96L163.21,63.98L162.06,63.08L162.24,61.29L162.80,60.86L163.58,60.80L164.24,60.95z"/><path style="fill:#fff2e8" d="M184.11,66.87L185.63,68.13L185.44,68.44L186.02,69.47L186.42,71.40L185.93,72.46L184.31,73.38L182.25,72.99L180.78,71.96L179.99,70.48L179.79,69.39L179.77,68.62L180.08,68.06L180.91,67.44L181.42,66.95L182.75,66.70z"/><path style="fill:#fff2e8" d="M184.53,99.52L185.39,100.46L185.53,101.27L186.04,102.02L186.16,103.95L184.86,105.27L182.50,105.30L181.03,104.51L180.00,103.29L179.75,102.55L179.68,100.54L179.83,100.37L180.28,100.14L180.34,99.68L181.67,99.01L183.36,98.94z"/><path style="fill:#fff2e8" d="M164.60,105.72L164.74,106.29L165.03,106.46L165.22,107.02L164.99,107.88L164.42,108.31L162.96,108.31L161.75,107.22L161.99,105.63L162.29,105.19L163.58,105.14z"/><path style="fill:#e5d9d0" d="M164.98,36.49L164.65,36.49L164.65,36.15L164.98,36.15z"/><path style="fill:#e5d9d0" d="M231.61,51.02L231.28,51.02L231.28,50.68L231.61,50.68z"/><path style="fill:#e5d9d0" d="M163.22,62.54L163.14,62.23L163.72,62.16z"/><path style="fill:#e5d9d0" d="M186.54,69.45L186.42,71.40L186.02,69.47L185.44,68.44L185.63,68.13L185.80,68.20z"/><path style="fill:#e5d9d0" d="M183.76,70.57L184.55,70.22L184.53,71.57L183.91,72.23L183.43,72.24L183.78,71.81z"/><path style="fill:#e5d9d0" d="M181.83,71.09L181.67,71.02L181.67,70.49L181.85,70.43z"/><path style="fill:#e5d9d0" d="M168.82,83.14L169.25,82.30L169.57,82.22L169.48,83.83L169.34,83.94L169.26,82.99z"/><path style="fill:#e5d9d0" d="M169.00,84.11L169.34,83.94L169.01,84.85L168.38,85.18L168.46,83.55L168.82,83.14z"/><path style="fill:#e5d9d0" d="M186.03,101.03L186.53,102.79L186.16,103.95L186.04,102.02L185.53,101.27L185.39,100.46z"/><path style="fill:#e5d9d0" d="M181.86,103.65L181.50,103.55L181.41,102.80L181.58,102.74z"/><path style="fill:#e5d9d0" d="M184.18,104.07L183.69,104.14L183.75,102.60L184.28,102.02z"/><path style="fill:#01e502" d="M103.41,71.63L100.76,71.47L103.42,71.37z"/><path style="fill:#01e502" d="M100.45,72.84L94.51,72.97L93.76,73.22L93.11,73.82L92.58,74.79L92.34,111.89L92.17,111.92L92.09,109.02L91.95,111.96L91.76,112.11L91.37,112.00L91.75,74.46L92.51,73.22L93.75,72.46L100.86,72.46z"/><path style="fill:#01e502" d="M90.92,111.94L90.67,111.92L90.87,109.09L91.11,109.05z"/><path style="fill:#e5e401" d="M137.23,74.41L134.07,74.48L137.23,74.65L137.20,74.81L127.82,74.97L127.07,75.47L126.64,76.04L126.41,85.83L126.19,111.97L125.89,111.30L125.77,113.72L125.58,113.86L125.18,113.76L125.64,76.30L126.42,75.07L127.33,74.47L128.33,74.23L137.23,74.15z"/><path style="fill:#e5e401" d="M124.75,113.69L124.43,113.49L124.64,111.07L124.93,110.80z"/><path style="fill:#fffe02" d="M137.23,74.65L134.07,74.48L137.23,74.41z"/><path style="fill:#fffe02" d="M126.19,111.97L126.16,113.65L125.77,113.72L125.89,111.30z"/><path style="fill:#01ff02" d="M92.17,111.92L91.95,111.96L92.09,109.02z"/><path style="fill:#e2e9ed" d="M239.64,49.66L239.76,49.82L239.67,49.98L235.62,55.28L235.29,64.96L235.00,149.05L234.85,149.23L227.08,147.64L226.35,147.12L226.35,137.68L226.58,127.14L229.36,123.41L229.38,121.99L229.62,119.16L230.52,118.28L233.86,118.92L234.13,76.71L233.85,76.24L232.62,75.72L227.84,74.75L226.85,74.23L226.65,68.37L226.83,54.50L228.50,52.15L229.35,52.18L233.19,53.04L235.52,53.44L237.53,50.85L237.86,50.77L238.29,49.72z"/><path style="fill:#e2e9ed" d="M162.77,80.45L162.77,80.89L162.42,83.80L161.71,84.28L161.49,86.84L160.55,86.98L160.37,86.84L160.46,84.56L160.89,83.75L161.22,83.57L161.46,80.80L161.88,80.20L162.50,80.19z"/><path style="fill:#e2e9ed" d="M161.38,87.89L161.30,87.24L161.99,86.84L162.18,86.22L162.46,86.21L162.62,88.19L162.25,88.30L162.07,88.24z"/><path style="fill:#c0c0c0" d="M172.26,40.92L170.79,40.91L170.34,40.60z"/><path style="fill:#cdd1d5" d="M231.34,57.29L231.80,56.89L232.12,56.93L232.15,57.52L231.76,57.97L231.35,57.96z"/><path style="fill:#cdd1d5" d="M232.48,60.40L232.27,61.21L232.51,62.85L231.11,64.79L229.36,66.82L229.26,59.94L230.86,59.95z"/><path style="fill:#cdd1d5" d="M232.19,69.61L231.57,70.58L231.29,70.58L231.35,69.53L232.13,69.46z"/><path style="fill:#cdd1d5" d="M229.09,70.99L229.37,71.71L229.87,72.20L229.11,73.29L228.63,72.97L228.10,71.48L228.10,63.54L228.33,56.76L228.87,56.18z"/><path style="fill:#cdd1d5" d="M162.42,83.80L162.77,80.89L162.62,88.19L162.46,86.21L162.18,86.22L161.99,86.84L161.30,87.24L160.55,86.98L161.49,86.84L161.71,84.28z"/><path style="fill:#cdd1d5" d="M231.69,130.22L231.12,131.21L231.04,130.05L231.61,130.07z"/><path style="fill:#cdd1d5" d="M231.94,133.31L231.99,135.79L231.86,136.18L229.26,139.62L228.78,139.71L228.84,132.91L230.11,132.84z"/><path style="fill:#cdd1d5" d="M230.83,142.68L231.63,142.60L231.66,142.92L231.26,143.38L230.85,143.38z"/><path style="fill:#cdd1d5" d="M228.59,143.87L229.35,145.09L228.76,146.13L228.37,146.13L227.84,145.13L227.83,129.90L228.53,129.07L228.63,129.09z"/><path style="fill:#cdd1d5" d="M239.37,142.69L239.13,143.70L235.00,149.05L235.29,64.96L235.62,55.28L239.67,49.98L239.76,49.82L239.90,49.92z"/><path style="fill:#0000ff" d="M183.05,70.97L183.03,71.56L182.28,71.48L181.83,71.09L181.85,70.43L182.53,70.44z"/><path style="fill:#0000ff" d="M182.82,103.02L182.79,103.62L181.86,103.65L181.58,102.74L182.55,102.75z"/><path style="fill:#e5e5e5" d="M162.88,36.15L163.29,36.10L163.27,36.82L162.96,36.65z"/><path style="fill:#e5e5e5" d="M229.51,50.63L229.93,50.39L229.89,51.35z"/><path style="fill:#e5e5e5" d="M233.19,53.04L235.53,52.43L237.27,50.14L237.53,50.85L235.52,53.44z"/><path style="fill:#e5e5e5" d="M163.58,60.80L162.80,60.86L163.46,60.68z"/><path style="fill:#e5e5e5" d="M162.07,88.24L161.76,88.60L161.44,88.29L161.38,87.89z"/><path style="fill:#e5e5e5" d="M163.58,105.14L162.29,105.19L162.40,105.04z"/><path style="fill:#e5e5e5" d="M165.01,106.02L165.03,106.46L164.74,106.29L164.60,105.72z"/><path style="fill:#e5e5e5" d="M161.99,105.63L161.75,107.22L161.40,107.14L161.46,105.85L161.87,105.26L162.29,105.19z"/><path style="fill:#e87008" d="M226.65,68.37L226.85,74.23L227.84,74.75L232.62,75.72L233.85,76.24L234.13,76.71L233.86,118.92L230.52,118.28L229.62,119.16L229.38,121.99L194.02,114.32L191.56,113.27L189.04,111.53L186.77,109.05L185.27,106.55L184.86,105.27L186.16,103.95L186.53,102.79L186.03,101.03L185.39,100.46L184.53,99.52L183.36,98.94L184.28,98.87L184.54,73.71L184.31,73.38L185.93,72.46L186.42,71.40L186.54,69.45L185.80,68.20L185.63,68.13L184.11,66.87L185.19,66.71L186.43,64.94L187.70,63.46L189.70,62.21L191.19,61.70L192.71,61.45L194.54,61.45z"/><path style="fill:#e87008" d="M184.11,66.87L182.75,66.70L181.42,66.95L180.91,67.44L180.08,68.06L181.00,66.78L181.67,66.45L183.02,66.47z"/><path style="fill:#e87008" d="M183.36,98.94L181.67,99.01L180.34,99.68L180.66,99.00L181.17,98.76L183.24,98.79z"/><path style="fill:#e87008" d="M180.28,100.14L179.83,100.37L180.16,99.76L180.34,99.68z"/><path style="fill:#fff2e8" d="M169.34,83.94L169.00,84.11L168.82,83.14L169.26,82.99z"/><path style="fill:#ffffff" d="M234.38,60.69L234.36,63.31L233.60,63.23L232.51,62.85L232.27,61.21L232.48,60.40z"/><path style="fill:#ffffff" d="M170.26,82.51L170.01,84.34L168.89,86.26L168.50,86.28L168.38,85.18L169.01,84.85L169.34,83.94L169.48,83.83L169.57,82.22z"/><path style="fill:#ffffff" d="M233.65,133.56L233.90,133.81L233.87,136.19L232.85,136.11L231.99,135.79L231.94,133.31z"/><g id="Actor_7.0"><g style="stroke:#000000;stroke-width:0.176"><path d="M166.88,36.37L166.70,36.68L166.35,36.94L165.85,37.12L165.26,37.21L164.65,37.19L164.63,37.18L164.09,37.07L163.63,36.85L163.32,36.57L163.20,36.26"/><path d="M165.59,36.01L164.95,35.88L164.42,36.10L164.51,36.46L165.15,36.59L165.69,36.37L165.59,36.01L165.59,36.41"/><path d="M164.95,35.88L164.95,36.48L165.26,36.55"/><path d="M165.26,36.55L165.08,36.53L165.07,36.58"/><path d="M165.08,36.53L164.89,36.54"/><path d="M164.95,36.48L164.84,36.53"/></g><g style="stroke:#000000;stroke-width:0.529"><path d="M166.57,37.01L166.70,36.91L166.88,36.61L166.88,36.37L166.86,36.05L166.65,35.75L166.26,35.50L165.74,35.33L165.14,35.26L164.54,35.29L163.99,35.43L163.56,35.65L163.28,35.94L163.20,36.26L163.20,36.49L163.32,36.81L163.49,36.96"/></g></g><g id="Actor_7.1"><g style="stroke:#000000;stroke-width:0.176"><path d="M233.51,50.76L233.33,51.06L232.97,51.32L232.47,51.50L231.89,51.59L231.28,51.57L230.71,51.45L230.26,51.24L230.25,51.24L229.95,50.96L229.83,50.64"/><path d="M232.21,50.40L232.31,50.76L231.77,50.98L231.14,50.84L231.04,50.48L231.58,50.26L232.21,50.40L232.21,50.80"/><path d="M231.58,50.26L231.57,50.86L231.46,50.91"/><path d="M231.51,50.92L231.70,50.91L231.88,50.93"/><path d="M231.88,50.93L231.57,50.86"/><path d="M231.70,50.96L231.70,50.91"/></g><g style="stroke:#000000;stroke-width:0.529"><path d="M233.19,51.39L233.33,51.30L233.51,50.99L233.51,50.76L233.49,50.43L233.27,50.13L232.88,49.88L232.36,49.72L231.77,49.64L231.16,49.68L230.62,49.81L230.18,50.04L229.91,50.32L229.83,50.64L229.83,50.88L229.95,51.19L230.11,51.35"/></g></g><g id="Actor_7.2"><g style="stroke:#000000;stroke-width:0.176"><path d="M161.86,105.59L162.21,105.26L162.68,105.08L163.23,105.07L163.79,105.23L164.31,105.55L164.72,105.99L164.99,106.50L165.08,107.03L164.99,107.52L164.72,107.92"/><path d="M162.82,106.84L163.37,107.24L163.92,107.07L163.92,106.49L163.37,106.08L162.82,106.26L162.82,106.84L163.08,106.49L163.08,106.17"/><path d="M163.37,107.24L163.63,106.90L163.92,106.81"/><path d="M163.08,106.17L163.08,106.20L163.09,106.28L163.15,106.45L163.26,106.61L163.36,106.69L163.63,106.90"/><path d="M163.08,106.49L163.36,106.69L163.41,106.73L163.59,106.81L163.77,106.83L163.91,106.81"/><path d="M163.41,106.73L163.67,106.30"/><path d="M163.15,106.45L163.58,106.24"/><path d="M163.46,104.97L163.89,105.10L164.09,105.22"/><path d="M165.05,106.28L164.83,105.85L164.41,105.42"/><path d="M165.15,106.67L165.17,106.80"/><path d="M165.14,107.13L165.11,107.30"/></g><g style="stroke:#000000;stroke-width:0.529"><path d="M164.82,107.78L164.72,107.92L164.30,108.18L163.79,108.28L163.22,108.20L162.68,107.96L162.20,107.57L161.86,107.09L161.67,106.56L161.68,106.04L161.86,105.59L161.96,105.46"/><path d="M163.46,104.97L163.33,104.93L162.78,104.94L162.31,105.13L161.96,105.46"/><path d="M165.09,107.39L164.87,107.71"/><path d="M165.19,106.90L165.14,107.13"/><path d="M165.15,106.67L165.09,106.37"/></g></g><g id="Actor_11.0"><g style="stroke:#000000;stroke-width:0.176"><path d="M160.55,130.71L160.55,129.70L159.50,128.40"/><path d="M160.55,129.70L226.22,143.88"/></g><g style="stroke:#000000;stroke-width:0.529"><path d="M226.21,144.89L160.55,130.71L159.49,129.40L159.50,128.40"/><path d="M226.24,139.84L170.24,127.75"/></g></g><g id="Actor_9.0"><g style="stroke:#000000;stroke-width:0.176"><path d="M180.12,99.97L180.78,99.44L181.62,99.16L182.43,99.15L182.58,99.15L183.56,99.42L184.48,99.93L185.26,100.65L185.82,101.50L186.12,102.42L186.14,103.33L185.86,104.13"/></g><g style="stroke:#000000;stroke-width:0.529"><path d="M180.16,103.39L179.73,102.49L179.57,101.57L179.70,100.70L180.12,99.97L180.43,99.57L181.09,99.04L181.93,98.76L182.89,98.75L183.87,99.01L184.79,99.52L185.57,100.24L186.13,101.10L186.43,102.02L186.44,102.92L186.17,103.73L185.86,104.13L185.31,104.77L184.55,105.18L183.64,105.32L182.66,105.20L182.43,105.10L181.70,104.80L180.84,104.18L180.16,103.39"/></g></g><g id="Actor_3.0"><g style="stroke:#000000;stroke-width:0.176"><path d="M179.95,99.70L180.53,99.29L180.87,99.21"/><path d="M180.13,67.51L180.72,67.10L181.08,67.01"/><path d="M182.40,98.75L182.62,98.47"/><path d="M183.50,98.66L183.34,98.87"/><path d="M182.81,66.28L182.60,66.55"/><path d="M184.03,99.10L184.23,98.79L184.27,98.60"/><path d="M184.43,67.02L184.68,66.68"/><path d="M185.25,66.51L185.11,66.78L184.89,67.09L184.73,67.20"/><path d="M185.78,65.49L186.70,64.37L187.82,63.44L189.13,62.72L190.59,62.23L192.17,61.98L193.82,61.97L195.52,62.22L226.65,68.94"/><path d="M195.52,62.22L196.05,61.52"/></g><g style="stroke:#000000;stroke-width:0.529"><path d="M184.36,73.06L184.38,73.10L184.44,73.49L184.30,98.43L184.27,98.60L183.91,98.69L183.50,98.66L182.62,98.47L181.80,98.41L181.06,98.60L180.48,99.01L179.95,99.70L179.57,100.29L179.44,101.01L179.56,101.78L179.63,101.92"/><path d="M226.66,68.13L196.05,61.52L194.35,61.28L192.70,61.28L191.12,61.53L189.66,62.02L188.35,62.74L187.23,63.68L186.31,64.80L185.79,65.49L185.25,66.51L185.09,66.61L184.68,66.68L182.81,66.28L181.99,66.22L181.25,66.41L180.66,66.81L180.13,67.51L179.76,68.10L179.62,68.82L179.75,69.59L179.82,69.73"/><path d="M184.72,105.09L184.88,105.41L185.54,106.99L186.44,108.50L187.55,109.91L188.85,111.20L190.30,112.32L191.87,113.25L193.52,113.96L195.22,114.45L229.32,121.81"/></g></g><g id="Actor_6.0"><g style="stroke:#000000;stroke-width:0.176"><path d="M181.70,104.32L181.27,104.03"/><path d="M180.94,103.64L180.75,103.19L180.70,102.97L180.70,102.74L180.82,102.34L181.08,102.02L181.45,101.83L181.91,101.78L182.39,101.88L182.85,102.11L183.23,102.46L183.50,102.88L183.62,103.34L183.58,103.77L183.39,104.13L183.07,104.39L182.65,104.52L182.17,104.49L181.94,104.41"/><path d="M181.29,103.04L181.31,102.78L181.42,102.56L181.62,102.40L181.87,102.33L182.15,102.34L182.44,102.45L182.70,102.62L182.89,102.86L183.01,103.13L183.04,103.40L182.97,103.64L182.81,103.83L182.59,103.95L182.31,103.98L182.02,103.92L181.75,103.78L181.52,103.57L181.36,103.31L181.29,103.04"/><path d="M182.65,100.64L182.19,101.24L181.74,101.53L181.47,101.68L181.25,101.78L181.06,101.84L180.88,101.87L180.74,101.87"/><path d="M182.02,104.44L182.03,104.44"/><path d="M182.85,102.95L182.91,103.07L182.93,103.30L182.87,103.50L182.74,103.65L182.56,103.75L182.33,103.78L182.09,103.73L181.86,103.61L181.68,103.44L181.54,103.23L181.48,103.00L181.50,102.79L181.59,102.61L181.75,102.48L181.96,102.42L182.16,102.43"/><path d="M182.19,101.24L182.50,101.65L182.70,101.83L182.93,101.99L183.21,102.12L183.50,102.21L183.81,102.26L183.75,102.72L183.73,103.01L183.74,103.28L183.78,103.52L183.85,103.70L183.97,103.92"/><path d="M183.81,102.26L184.26,101.66"/></g><g style="stroke:#000000;stroke-width:0.529"><path d="M180.94,103.64L181.27,104.03L181.48,104.18L181.70,104.32L181.94,104.41L182.02,104.44L182.17,104.49L182.32,104.52L182.52,104.55L182.78,104.53L182.96,104.48L183.17,104.40L183.42,104.26L183.68,104.11L183.97,103.92L184.43,103.32L184.43,102.81L184.40,102.42L184.35,102.06L184.26,101.66L183.87,101.33L183.51,101.08L183.13,100.86L182.65,100.64L182.30,100.76L181.98,100.88L181.63,101.05L181.20,101.27L180.74,101.87L180.73,101.95L180.69,102.29L180.67,102.64L180.68,102.89L180.71,103.12L180.79,103.34L180.94,103.64"/><path d="M182.85,102.95L182.81,102.85L182.65,102.66L182.43,102.51L182.20,102.43L182.16,102.43"/></g></g><g id="Actor_7.3"><g style="stroke:#000000;stroke-width:0.176"><path d="M164.98,63.65L165.25,63.26L165.34,62.77L165.25,62.24L164.98,61.72L164.57,61.29L164.05,60.97L163.49,60.80L162.94,60.81L162.47,61.00L162.12,61.33"/><path d="M164.17,62.54L163.89,62.63L163.62,62.98L163.07,62.57L163.34,62.23L163.34,61.91"/><path d="M163.07,62.57L163.08,61.99L163.63,61.82L164.18,62.23L164.17,62.54L164.17,62.81L163.62,62.98"/><path d="M163.34,62.23L163.61,62.43L163.67,62.47L163.84,62.54L164.02,62.57L164.16,62.55"/><path d="M163.89,62.63L163.61,62.43L163.52,62.34L163.40,62.19L163.35,62.02L163.34,61.93L163.34,61.91"/><path d="M163.84,61.97L163.40,62.19"/><path d="M163.67,62.47L163.92,62.04"/><path d="M164.32,60.94L164.15,60.83L163.72,60.71"/><path d="M165.30,62.01L165.08,61.59L164.67,61.15"/></g><g style="stroke:#000000;stroke-width:0.529"><path d="M165.30,62.01L165.35,62.10L165.44,62.63L165.35,63.12L165.08,63.52L164.98,63.65L164.56,63.91L164.04,64.01L163.48,63.93L162.93,63.69L162.46,63.31L162.11,62.83L161.93,62.30L161.93,61.78L162.12,61.33L162.22,61.20L162.57,60.86L163.04,60.68L163.59,60.67L163.72,60.71"/></g></g><g id="Actor_5.0"><g style="stroke:#000000;stroke-width:0.176"><path d="M160.37,86.67L161.47,86.91L161.46,86.88L161.45,86.85L161.44,86.80L160.34,86.56"/><path d="M160.54,86.83L161.64,87.07L161.47,86.91"/><path d="M160.35,84.72L161.45,84.95L161.46,84.90L161.47,84.84L161.48,84.78L160.38,84.54"/><path d="M162.76,80.46L162.62,80.65L162.56,80.74L162.51,80.86L162.47,81.00L162.45,81.15L162.44,81.28L162.43,83.29L162.42,83.36L162.41,83.43L162.39,83.50L162.36,83.57L162.34,83.61L161.24,83.37"/><path d="M160.61,83.79L161.71,84.03L161.92,83.76L161.95,83.73L161.97,83.73L161.98,83.73L162.00,83.76L162.04,83.87L162.12,83.89L162.10,83.91L162.08,83.92L162.06,83.91L162.05,83.89L162.04,83.87"/><path d="M160.55,83.93L161.65,84.17L161.67,84.11L161.69,84.07L161.71,84.03"/><path d="M160.82,83.52L161.92,83.76"/><path d="M161.97,83.73L161.11,83.54"/><path d="M162.41,85.91L162.28,85.88L162.32,85.82L162.35,85.80L162.38,85.79L162.40,85.81L162.41,85.85L162.41,85.91L162.40,87.92L162.41,88.03L162.43,88.11L162.47,88.15"/><path d="M162.40,87.92L161.30,87.68"/><path d="M161.44,86.80L161.45,84.95"/><path d="M161.64,87.07L161.65,87.08L161.30,87.00"/><path d="M161.65,87.08L161.67,87.07L161.70,87.05L161.90,86.77L161.93,86.74L161.95,86.69L161.97,86.63L161.98,86.57L162.03,86.31L162.05,86.25L162.07,86.19L162.09,86.14L162.11,86.10L162.28,85.88"/><path d="M161.48,84.78L161.65,84.17"/><path d="M162.34,83.61L162.12,83.89"/><path d="M161.33,83.06L162.43,83.29"/><path d="M162.44,81.28L161.34,81.04"/><path d="M161.52,80.41L162.62,80.65"/></g><g style="stroke:#000000;stroke-width:0.529"><path d="M161.84,79.99L161.52,80.41L161.46,80.50L161.41,80.62L161.37,80.76L161.35,80.91L161.34,81.04L161.33,83.06L161.32,83.12L161.31,83.20L161.29,83.27L161.26,83.33L161.24,83.37L161.11,83.54L160.87,83.49L160.85,83.50L160.82,83.52L160.61,83.79L160.59,83.83L160.57,83.88L160.55,83.93L160.38,84.54L160.37,84.60L160.36,84.66L160.35,84.72L160.34,86.56L160.35,86.61L160.36,86.65L160.37,86.67L160.54,86.83L160.55,86.84L161.30,87.00"/><path d="M162.78,87.82L162.57,88.09L162.52,88.14L162.47,88.15L161.37,87.91L161.33,87.88L161.31,87.80L161.30,87.68L161.30,87.00"/></g></g><g id="Actor_11.1"><g style="stroke:#000000;stroke-width:0.176"><path d="M160.03,36.01L161.09,37.31L161.08,38.32"/><path d="M161.09,37.31L232.99,52.84L235.46,52.29L237.40,49.74"/><path d="M163.99,37.17L163.89,37.15L163.34,36.89L162.97,36.56L162.82,36.18L162.92,35.79L163.25,35.45L163.77,35.18L164.43,35.01L165.16,34.97L165.88,35.06L166.51,35.26L166.97,35.56L167.23,35.92L167.26,36.31L167.04,36.68L166.61,36.99L166.10,37.18"/><path d="M232.73,51.56L233.24,51.38L233.67,51.07L233.88,50.70L233.86,50.31L233.60,49.94L233.13,49.64L232.50,49.44L231.79,49.36L231.06,49.40L230.40,49.56L229.87,49.83L229.55,50.18L229.45,50.56L229.59,50.94L229.96,51.28L230.52,51.53L230.61,51.55"/><path d="M235.46,52.29L235.45,53.30"/></g><g style="stroke:#000000;stroke-width:0.529"><path d="M227.88,52.74L161.08,38.32L160.03,37.01L160.03,36.01L161.97,33.46L237.40,49.74L237.39,50.75L235.45,53.30L235.29,53.33"/><path d="M166.10,37.18L166.01,37.21L165.31,37.32L164.57,37.29L163.99,37.17"/><path d="M232.72,51.56L232.64,51.60L231.93,51.70L231.20,51.68L230.61,51.55"/></g></g><g id="Actor_9.1"><g style="stroke:#000000;stroke-width:0.176"><path d="M185.96,72.08L186.29,71.31L186.34,70.42L186.09,69.49L185.58,68.62L184.84,67.87L183.94,67.31L182.97,66.99L182.00,66.95L181.12,67.17L180.42,67.66"/></g><g style="stroke:#000000;stroke-width:0.529"><path d="M179.85,70.00L179.86,70.11L180.24,71.02L180.88,71.84L181.70,72.50L182.65,72.95L183.63,73.13L184.57,73.04L185.36,72.68L185.96,72.08L186.26,71.68L186.60,70.90L186.65,70.01L186.40,69.09L185.89,68.21L185.15,67.46L184.25,66.90L183.27,66.59L182.31,66.54L181.82,66.67L181.43,66.77L180.73,67.25L180.42,67.66L179.95,68.35L179.76,69.19L179.85,70.00"/></g></g><g id="Actor_10.0"><g style="stroke:#000000;stroke-width:0.176"><path d="M160.03,37.01L161.08,38.32L160.82,83.52"/><path d="M160.80,86.89L160.55,129.70"/><path d="M161.29,105.96L161.29,106.59L161.50,107.22L161.92,107.80L162.49,108.27L163.15,108.56L163.83,108.66L164.45,108.54L164.95,108.23L165.28,107.75L165.40,107.16L165.31,106.67L165.29,106.52L164.97,105.91L164.47,105.38L163.85,104.99L163.17,104.79L162.51,104.80L161.94,105.02L161.52,105.42L161.29,105.96"/><path d="M161.08,38.32L168.12,39.84L167.59,131.22"/><path d="M161.46,87.93L161.45,88.08L161.49,88.27L161.58,88.46L161.72,88.63L161.91,88.75L162.11,88.82L162.32,88.84L162.50,88.79L162.65,88.69L162.74,88.54L162.77,88.36L162.82,80.72L162.79,80.52L162.70,80.34L162.55,80.17L162.37,80.05L162.16,79.97L161.96,79.96L161.77,80.00L161.63,80.11L161.53,80.25L161.50,80.44L161.84,79.99"/><path d="M162.11,88.82L162.78,87.95"/><path d="M161.45,88.08L161.55,87.95"/><path d="M162.03,63.33L162.18,63.54L162.75,64.00L163.40,64.30L164.08,64.39L164.71,64.28L165.21,63.96L165.54,63.49L165.65,62.90L165.55,62.26L165.22,61.64L164.73,61.11L164.10,60.73L163.43,60.53L162.77,60.54L162.19,60.76L161.77,61.16L161.55,61.70L161.54,62.32L161.76,62.96L162.03,63.33"/><path d="M168.90,85.87L169.43,85.18L169.67,84.78L169.88,84.26L170.05,83.66L170.16,83.03L170.20,82.45L170.17,81.96L170.06,81.62L169.90,81.46L169.69,81.49L169.45,81.72L168.93,82.41L168.69,82.80L168.47,83.34L168.31,83.93L168.20,84.56L168.16,85.14L168.19,85.62L168.30,85.97L168.46,86.13L168.67,86.10L168.90,85.87L168.22,85.72"/><path d="M169.43,85.18L168.17,84.90"/></g><g style="stroke:#000000;stroke-width:0.529"><path d="M160.03,37.01L159.50,128.40L160.55,129.70L167.59,131.22L170.24,127.75L170.74,40.67"/></g></g><g id="Actor_2.0"><g style="stroke:#000000;stroke-width:0.176"><path d="M161.97,33.46L237.97,49.87L237.97,50.34"/><path d="M237.97,49.87L238.41,49.29"/></g><g style="stroke:#000000;stroke-width:0.529"><path d="M161.97,33.46L162.41,32.88L238.41,49.29L238.41,49.76"/></g></g><g id="Actor_8.0"><g style="stroke:#000000;stroke-width:0.176"><path d="M168.78,84.78L168.63,84.76L168.52,84.58L168.46,84.27L168.46,84.07L168.47,83.86L168.53,83.39L168.63,82.94"/><path d="M168.23,84.39L168.28,84.70L168.40,84.90"/><path d="M169.00,84.07L169.27,83.35L169.28,82.64L169.01,82.64L168.74,83.35L168.73,84.06L169.00,84.07L168.73,84.01"/><path d="M169.27,83.35L168.78,83.25"/><path d="M169.44,82.02L169.31,81.91L169.30,81.92"/></g><g style="stroke:#000000;stroke-width:0.529"><path d="M169.35,81.86L169.44,82.02L169.52,82.27L169.55,82.63L169.52,83.08L169.43,83.55L169.30,84.00L169.13,84.38L168.95,84.65L168.78,84.78L168.57,84.93L168.40,84.90L168.18,84.85"/></g></g><g id="Actor_4.0"><g style="stroke:#000000;stroke-width:0.529"><path d="M169.94,40.23L170.49,40.58L171.29,40.84L172.20,40.95L173.05,40.90"/></g></g><g id="Actor_12.0"><g style="stroke:#000000;stroke-width:0.176"><path d="M181.66,102.55L181.60,102.74L181.62,102.96L181.72,103.18L181.87,103.37L181.99,103.46L181.99,103.46"/><path d="M182.93,103.27L182.84,103.43L182.70,103.54L182.50,103.59L182.29,103.58L182.08,103.50L181.89,103.37L181.74,103.19L181.65,102.99L181.64,102.79L181.69,102.60L181.81,102.46L181.82,102.46"/><path d="M181.66,102.55L181.63,102.63L181.60,102.74L181.61,102.86L181.62,102.96"/></g></g><g id="Actor_12.1"><g style="stroke:#000000;stroke-width:0.176"><path d="M182.00,70.27L181.88,70.41L181.82,70.59L181.84,70.80L181.93,71.00L182.07,71.17L182.26,71.31L182.48,71.39L182.69,71.40L182.88,71.35L183.03,71.24L183.11,71.08"/><path d="M182.18,71.27L182.06,71.18L181.90,70.99L181.81,70.77L181.79,70.55L181.85,70.36"/><path d="M181.85,70.36L181.82,70.44L181.79,70.55L181.80,70.67L181.81,70.77"/></g></g><g id="Actor_6.1"><g style="stroke:#000000;stroke-width:0.176"><path d="M181.97,72.18L181.53,71.90L181.18,71.52"/><path d="M182.45,72.32L182.92,72.31L183.33,72.16L183.63,71.88L183.79,71.50L183.79,71.06L183.64,70.61L183.35,70.20L183.16,70.02L182.95,69.87L182.49,69.65L182.01,69.58L181.56,69.66L181.20,69.88L180.97,70.22L180.89,70.64L180.96,71.09L181.09,71.34"/><path d="M180.89,70.94L180.96,71.09"/><path d="M184.02,71.92L183.94,71.68L183.93,71.46L183.94,71.23L183.98,70.97L184.05,70.65L184.14,70.32L184.08,70.31L183.78,70.21L183.48,70.07L183.25,69.91L183.05,69.71L182.85,69.44L182.66,69.10L182.36,69.25L182.05,69.38L181.80,69.47L181.57,69.52L181.34,69.53L181.16,69.51L181.07,69.49"/><path d="M183.04,70.76L183.08,70.84L183.12,71.06L183.08,71.27L182.96,71.44L182.78,71.55L182.56,71.58L182.32,71.55L182.09,71.45L181.89,71.28L181.75,71.08L181.67,70.85L181.68,70.63L181.76,70.45L181.91,70.31L182.11,70.23L182.34,70.23L182.35,70.23"/><path d="M182.43,71.77L182.27,71.74L181.99,71.62L181.75,71.42L181.57,71.17L181.48,70.90L181.48,70.63L181.58,70.41L181.76,70.24L182.00,70.15L182.29,70.14L182.57,70.23L182.84,70.39L183.05,70.62L183.18,70.88L183.23,71.15L183.18,71.40L183.04,71.61L182.82,71.74L182.56,71.79L182.43,71.77"/><path d="M182.66,69.10L183.12,68.51"/><path d="M184.14,70.32L184.59,69.72"/></g><g style="stroke:#000000;stroke-width:0.529"><path d="M181.31,71.67L181.18,71.52L181.09,71.34L180.95,71.09L180.89,70.94L180.86,70.77L180.86,70.55L180.88,70.31L180.93,70.04L181.07,69.49L181.52,68.89L182.00,68.73L182.37,68.62L182.73,68.55L183.12,68.51L183.55,68.77L183.91,69.04L184.24,69.34L184.59,69.72L184.61,70.10L184.59,70.45L184.55,70.83L184.48,71.32L184.02,71.92L183.50,72.16L183.24,72.26L183.00,72.32L182.77,72.35L182.59,72.34L182.45,72.32L181.97,72.18L181.78,72.06L181.53,71.90L181.31,71.67"/><path d="M183.04,70.76L182.97,70.62L182.80,70.44L182.58,70.30L182.35,70.23"/></g></g><g id="Actor_1.0"><g style="stroke:#000000;stroke-width:0.176"><path d="M232.92,128.03L233.81,126.86L233.80,127.41L233.76,127.65L233.63,127.85L233.44,127.99L233.19,128.05L232.92,128.03L227.20,126.79L226.93,126.77L226.68,126.83L226.49,126.97"/><path d="M229.03,51.98L227.62,53.84L227.35,53.82L227.11,53.88L226.91,54.02"/><path d="M227.62,130.57L228.46,129.46L228.39,142.74L228.51,143.58L228.88,144.42L229.48,145.18L230.24,145.79L231.11,146.21L232.01,146.41L232.89,146.36L233.65,146.08L233.80,145.96L233.79,146.02L233.41,146.69L232.81,147.19L232.04,147.48L231.17,147.52L230.26,147.33L229.39,146.90L228.63,146.29L228.04,145.53L227.67,144.70L227.54,143.85L227.62,130.57L227.75,129.78L228.13,129.10L228.73,128.60L229.50,128.32L230.37,128.27L231.28,128.47L232.15,128.89L232.91,129.50L233.50,130.26L233.87,131.10L234.00,131.95L233.99,133.55"/><path d="M228.39,142.74L227.54,143.85"/><path d="M227.20,126.79L230.20,122.85L233.83,123.64L233.81,126.86"/><path d="M228.03,71.36L227.97,70.89L228.81,69.78L228.94,70.63L229.31,71.47L229.90,72.22L230.66,72.84L231.53,73.26L232.44,73.46L233.31,73.41L234.08,73.13L234.22,73.01L234.21,73.07L233.83,73.74L233.23,74.24L232.46,74.52L231.59,74.57L230.68,74.37L229.81,73.95L229.05,73.34L228.46,72.58L228.09,71.74L228.03,71.36"/><path d="M227.97,70.89L228.04,57.62L228.18,56.82L228.56,56.15L229.01,55.77L228.89,56.50L228.81,69.78"/><path d="M227.62,53.84L235.32,55.50L234.78,149.10"/><path d="M228.66,133.17L228.71,132.93L228.83,132.73L229.03,132.59L229.12,132.57L228.66,133.17L228.63,139.12L231.84,134.90"/><path d="M228.63,139.12L228.67,139.38L228.79,139.63L228.99,139.85L229.23,140.02L229.50,140.12L233.68,141.02L233.95,141.04L233.92,145.23L233.80,145.96"/><path d="M229.12,132.57L229.28,132.53L229.55,132.55L231.85,133.05"/><path d="M228.46,129.46L228.59,128.72"/><path d="M229.54,59.62L229.09,60.21L229.05,66.17L232.26,61.95"/><path d="M229.05,66.17L229.09,66.43L229.22,66.68L229.41,66.90L229.66,67.06L229.93,67.16L234.11,68.06L234.37,68.08L234.35,72.27L234.22,73.01"/><path d="M229.09,60.21L229.13,59.97L229.26,59.78L229.45,59.64L229.70,59.58L229.97,59.60L232.27,60.09"/><path d="M228.04,57.62L228.89,56.50"/><path d="M234.41,60.59L234.42,58.99L234.30,58.14L233.93,57.31L233.33,56.55L232.57,55.94L231.70,55.51L230.79,55.32L229.92,55.36L229.16,55.65L229.01,55.77"/><path d="M229.50,140.12L232.71,135.90"/><path d="M230.20,122.85L229.92,122.83L229.68,122.89L229.48,123.03L229.31,123.25"/><path d="M233.85,118.80L233.85,119.61L230.22,118.83L229.95,118.81L229.70,118.87L229.51,119.01"/><path d="M230.22,118.83L230.75,118.13"/><path d="M233.14,62.94L229.93,67.16"/><path d="M229.19,52.02L235.63,53.41L237.64,50.77"/><path d="M231.22,143.68L230.98,143.49L230.80,143.24L230.71,142.97L230.71,142.70L230.81,142.47L230.99,142.30L231.23,142.21L231.47,142.21L231.51,142.31L231.69,142.56L231.93,142.76L232.21,142.88L232.40,142.91L232.41,142.94L232.46,143.21L232.41,143.46L232.27,143.67L232.06,143.80L231.79,143.85L231.50,143.81L231.22,143.68"/><path d="M231.17,131.11L231.29,131.21L231.57,131.33L231.86,131.37L232.13,131.33L232.34,131.19L232.48,130.99L232.53,130.74L232.49,130.47L232.47,130.43L232.28,130.41L232.00,130.28L231.76,130.08L231.58,129.84L231.54,129.73L231.30,129.73L231.06,129.83L230.88,130.00L230.78,130.23L230.78,130.49L230.88,130.76L231.05,131.01L231.17,131.11"/><path d="M231.13,70.00L231.23,70.28L231.40,70.53L231.65,70.73L231.93,70.85L232.21,70.89L232.48,70.84L232.70,70.71L232.83,70.51L232.88,70.26L232.84,69.99L232.70,69.72L232.49,69.50L232.22,69.33L231.94,69.25L231.65,69.25L231.41,69.35L231.23,69.52L231.14,69.75L231.13,70.00"/><path d="M231.30,57.81L231.48,58.06L231.72,58.25L232.00,58.38L232.29,58.42L232.55,58.37L232.77,58.24L232.91,58.03L232.96,57.78L232.91,57.51L232.89,57.48L232.77,57.25L232.56,57.02L232.30,56.86L232.01,56.78L231.73,56.78L231.48,56.87L231.30,57.04L231.21,57.27L231.21,57.54L231.30,57.81"/><path d="M232.40,142.91L232.28,142.68L232.06,142.45L231.80,142.29L231.51,142.20L231.47,142.21"/><path d="M232.47,130.43L232.35,130.20L232.14,129.98L231.87,129.81L231.58,129.73L231.54,129.73"/><path d="M232.82,69.95L232.63,69.93L232.35,69.80L232.11,69.60L231.93,69.36L231.90,69.25"/><path d="M232.89,57.48L232.70,57.45L232.42,57.33L232.18,57.13L232.00,56.88L231.97,56.78"/><path d="M233.95,141.04L233.95,140.67L233.68,141.02"/><path d="M233.95,140.67L233.97,136.17"/><path d="M233.83,123.64L233.85,119.61"/><path d="M234.11,68.06L234.37,67.72L234.37,68.08"/><path d="M234.37,67.72L234.40,63.22"/><path d="M235.32,55.50L239.82,49.59"/><path d="M235.41,53.36L237.39,50.75"/></g><g style="stroke:#000000;stroke-width:0.529"><path d="M229.19,52.02L229.03,51.98L228.76,51.97L228.52,52.03L228.32,52.16L226.91,54.02L226.78,54.21L226.74,54.45L226.63,73.49L226.67,73.74L226.79,73.99L226.99,74.22L227.23,74.38L227.50,74.48L233.22,75.72L233.50,75.81L233.74,75.98L233.93,76.20L234.06,76.45L234.10,76.71L233.85,118.80L230.75,118.13L230.48,118.11L230.23,118.17L230.03,118.31L229.51,119.01L229.38,119.20L229.33,119.44L229.31,123.25L226.49,126.97L226.36,127.17L226.32,127.41L226.20,146.44L226.25,146.70L226.37,146.95L226.56,147.17L226.81,147.34L227.08,147.44L234.78,149.10L239.27,143.19L239.82,49.59L238.72,49.35L237.64,50.77L237.39,50.75"/><path d="M233.97,136.17L233.99,133.55L233.73,133.45L231.85,133.05L231.84,134.90L231.88,135.16L232.00,135.41L232.20,135.63L232.44,135.80L232.71,135.90L233.97,136.17"/><path d="M234.40,63.22L234.41,60.59L234.15,60.50L232.27,60.09L232.26,61.95L232.30,62.21L232.43,62.46L232.62,62.68L232.86,62.85L233.14,62.94L234.40,63.22"/></g></g><g id="Actor_.0"><g style="stroke:#000000;stroke-width:0.176"><path d="M91.15,111.68L91.16,109.95L91.05,109.93L90.93,109.93L90.82,109.94L90.72,109.97L90.64,110.01L90.64,111.73"/><path d="M90.48,111.31L90.49,109.00L90.50,108.25L90.50,108.25"/><path d="M90.49,111.68L90.49,111.11L90.49,111.32"/><path d="M90.64,110.01L90.66,109.70L90.70,109.37L90.77,109.11L90.86,108.84L90.98,108.58L91.06,108.89L91.10,109.08L91.13,109.35L91.15,109.65L91.16,109.95L91.25,109.98L91.30,110.01L91.29,109.85L91.25,109.53L91.19,109.21L91.10,108.89L90.98,108.58"/><path d="M90.49,111.11L90.50,110.00L90.49,111.11"/><path d="M90.49,109.60L90.50,109.60"/><path d="M90.50,109.90L90.50,108.89L90.50,110.00"/><path d="M90.50,108.25L90.50,108.89L90.63,74.94L90.65,74.53L90.72,74.13L90.84,73.73L91.00,73.35L91.21,72.99L91.45,72.65L91.73,72.33L92.05,72.04L92.40,71.78L92.77,71.56L93.17,71.38L93.59,71.23L94.02,71.12L94.46,71.06L94.91,71.04L94.89,70.59"/><path d="M90.61,74.49L90.63,74.94L91.58,75.16L91.60,74.82L91.67,74.49L91.77,74.16L91.91,73.84L92.10,73.55L92.31,73.27L92.56,73.02L92.84,72.79L93.14,72.59L93.47,72.43L93.81,72.30L94.17,72.20L94.54,72.15L94.91,72.13L94.91,71.04L103.41,71.02L103.43,71.19L103.44,71.21"/><path d="M91.59,111.74L91.60,110.16L91.60,110.00L91.64,109.98L91.73,109.95L91.74,109.64L91.76,109.35L91.80,109.07L91.84,108.89L91.93,108.58L92.04,108.83L92.13,109.11L92.20,109.40L92.24,109.70L92.25,110.01L92.24,111.73"/><path d="M92.52,74.93L91.58,75.16L91.44,111.90"/><path d="M91.72,111.68L91.73,109.95L91.84,109.93L91.96,109.93L92.07,109.94L92.17,109.97L92.25,110.01"/><path d="M91.30,111.75L91.30,110.16L91.30,110.01"/><path d="M91.60,110.00L91.61,109.85L91.65,109.53L91.72,109.21L91.81,108.89L91.93,108.58"/><path d="M103.44,71.94L103.43,71.95L103.42,72.11L94.91,72.13L94.90,72.77"/><path d="M101.54,72.66L101.19,72.65L100.85,72.62L100.52,72.58L100.19,72.52L99.87,72.44L100.19,72.36L100.52,72.29L100.86,72.25L101.19,72.22L101.54,72.21L101.54,72.66L103.42,72.66L103.41,72.75L103.43,72.61"/><path d="M99.92,71.57L99.88,71.57L100.19,71.71L100.52,71.81L100.86,71.89L101.20,71.93L101.54,71.95L101.54,71.61L100.85,71.60L99.92,71.57"/><path d="M99.88,71.57L100.19,71.44L100.52,71.33L100.86,71.25L101.20,71.21L101.54,71.19L101.54,71.61L103.44,71.61"/><path d="M100.11,70.76L99.87,70.80L100.19,70.86L100.52,70.90L100.85,70.93L101.20,70.95L101.53,70.96L101.53,70.65L101.19,70.65L100.85,70.67L100.51,70.70L100.11,70.76"/><path d="M101.54,72.21L103.43,72.21L103.42,72.11"/><path d="M101.54,71.19L103.43,71.19"/><path d="M103.43,71.95L101.54,71.95L101.57,71.95"/><path d="M101.53,70.96L103.42,70.95L103.41,71.02"/><path d="M101.53,70.65L103.41,70.64"/><path d="M103.42,72.66L103.43,72.59"/><path d="M103.43,72.21L103.43,72.19"/><path d="M103.43,70.98L103.43,70.96"/></g><g style="stroke:#000000;stroke-width:0.529"><path d="M90.48,111.11L90.48,111.31L90.49,111.32L90.49,111.68L90.64,111.73L90.78,111.68L90.90,111.66L91.03,111.66L91.15,111.68L91.25,111.72L91.30,111.75L91.30,111.88L91.44,111.90L91.59,111.88L91.59,111.74L91.62,111.71L91.72,111.68L91.84,111.66L91.97,111.66L92.09,111.68L92.24,111.73L92.39,111.68L92.52,74.93L92.54,74.65L92.61,74.37L92.71,74.11L92.84,73.85L93.02,73.62L93.22,73.40L93.44,73.23L93.71,73.06L93.99,72.93L94.29,72.84L94.59,72.79L94.90,72.77L103.41,72.75L103.43,72.59L103.43,72.18L103.44,72.15L103.44,71.94L103.44,71.11L103.44,71.02L103.43,70.98L103.43,70.72L103.40,70.58L94.89,70.59L94.45,70.61L94.01,70.68L93.58,70.78L93.16,70.93L92.76,71.11L92.38,71.34L92.04,71.59L91.72,71.88L91.44,72.20L91.19,72.54L90.99,72.91L90.83,73.29L90.71,73.68L90.64,74.08L90.61,74.49L90.48,111.11"/></g></g><g id="Actor_.1"><g style="stroke:#000000;stroke-width:0.176"><path d="M124.34,113.20L124.34,112.22L124.34,113.57"/><path d="M124.49,113.62L124.49,111.90L124.51,111.59L124.55,111.29L124.62,111.00L124.71,110.72L124.83,110.47L124.89,110.70L124.94,110.96L124.98,111.24L125.00,111.53L125.01,111.84L124.90,111.82L124.78,111.82L124.66,111.83L124.57,111.86L124.49,111.90"/><path d="M124.33,113.20L124.34,110.89L124.35,110.13L124.35,110.14"/><path d="M124.34,112.22L124.35,111.11L124.34,112.22"/><path d="M124.33,111.48L124.34,111.48"/><path d="M124.35,110.13L124.35,111.11L124.48,76.83L124.50,76.42L124.57,76.02L124.69,75.62L124.85,75.24L125.05,74.88L125.30,74.53L125.58,74.22L125.90,73.93L126.25,73.67L126.62,73.45L127.02,73.26L127.44,73.12L127.87,73.01L128.31,72.95L128.76,72.92L137.26,72.91L137.27,73.08L137.29,73.09"/><path d="M128.74,72.48L128.76,72.92L128.76,74.01L128.39,74.03L128.02,74.09L127.66,74.19L127.32,74.32L126.99,74.48L126.69,74.68L126.41,74.90L126.16,75.16L125.94,75.44L125.76,75.73L125.62,76.05L125.52,76.37L125.45,76.71L125.43,77.05L124.48,76.83L124.46,76.38"/><path d="M125.00,113.57L125.01,111.84L125.10,111.87L125.15,111.90L125.14,111.74L125.10,111.42L125.04,111.10L124.94,110.78L124.83,110.47"/><path d="M125.29,113.79L125.43,77.05L126.37,76.82"/><path d="M125.57,113.57L125.58,111.84L125.49,111.87L125.45,111.89L125.46,111.74L125.50,111.42L125.57,111.10L125.66,110.78L125.78,110.46L125.70,110.75L125.65,110.96L125.61,111.24L125.59,111.53L125.58,111.84L125.69,111.82L125.81,111.82L125.92,111.83L126.02,111.86L126.10,111.89L126.08,111.59L126.05,111.29L125.98,111.00L125.89,110.72L125.78,110.46"/><path d="M125.15,113.63L125.15,112.05L125.15,111.90"/><path d="M125.45,111.89L125.44,112.05L125.44,113.63"/><path d="M126.09,113.61L126.10,111.89"/><path d="M128.75,74.66L128.76,74.01L137.26,74.00L137.28,73.84L137.29,73.83"/><path d="M135.39,74.55L135.39,74.10L135.04,74.11L134.71,74.14L134.37,74.18L134.04,74.25L133.72,74.33L134.04,74.41L134.36,74.47L134.70,74.51L135.04,74.54L135.39,74.55L137.27,74.54L137.25,74.64L137.28,74.49"/><path d="M134.37,73.70L134.04,73.60L133.73,73.46L134.37,73.48L135.39,73.50L135.39,73.84L135.05,73.82L134.71,73.78L134.37,73.70"/><path d="M133.73,73.46L134.04,73.33L134.37,73.22L134.71,73.14L135.05,73.10L135.39,73.08L135.39,73.50L137.28,73.49"/><path d="M134.60,72.57L134.36,72.59L134.03,72.64L133.72,72.69L134.04,72.75L134.36,72.79L134.70,72.82L135.04,72.84L135.38,72.84L135.38,72.53L135.04,72.54L134.60,72.57"/><path d="M135.39,74.10L137.28,74.10L137.26,74.00"/><path d="M137.28,73.84L135.39,73.84L135.41,73.84"/><path d="M135.38,72.53L137.26,72.53"/><path d="M135.38,72.84L137.27,72.84L137.26,72.91"/><path d="M135.39,73.08L137.27,73.08"/><path d="M137.27,74.54L137.28,74.48"/><path d="M137.28,74.07L137.28,74.10"/><path d="M137.28,72.87L137.27,72.85"/></g><g style="stroke:#000000;stroke-width:0.529"><path d="M124.34,113.57L124.34,113.20L124.33,113.20L124.33,113.12L124.46,76.38L124.49,75.97L124.56,75.57L124.68,75.17L124.84,74.79L125.04,74.43L125.29,74.09L125.57,73.77L125.88,73.48L126.23,73.22L126.61,73.00L127.01,72.82L127.42,72.67L127.86,72.56L128.30,72.50L128.74,72.48L137.25,72.46L137.28,72.60L137.28,72.87L137.28,72.91L137.29,73.09L137.29,73.94L137.29,74.04L137.28,74.07L137.28,74.48L137.25,74.64L128.75,74.66L128.44,74.67L128.14,74.73L127.84,74.82L127.56,74.95L127.30,75.10L127.07,75.29L126.87,75.50L126.69,75.74L126.55,75.99L126.45,76.26L126.39,76.54L126.37,76.82L126.23,113.57L126.09,113.61L125.94,113.57L125.82,113.55L125.69,113.55L125.57,113.57L125.47,113.60L125.44,113.63L125.44,113.77L125.29,113.79L125.15,113.77L125.15,113.63L125.10,113.60L125.00,113.57L124.88,113.55L124.75,113.55L124.63,113.57L124.49,113.62L124.34,113.57"/></g></g><g/><g><g/><g><path style="fill:#ffffff" d="M8.55,11.82L125.53,11.82L125.53,25.92L8.55,25.92z"/><text xml:space="preserve" fill="#000000" stroke-width="0" x="10.31" y="21.52" font-size="8.14" opacity="1.00" font-family="Roboto Medium">0571_ZyloDent Printer door_V2</text></g></g><g><g/><g><path style="stroke:#000000;stroke-width:0.125;fill:#ffffff" d="M85.57,116.04L100.17,116.04L100.17,127.33L85.57,127.33z"/><text xml:space="preserve" fill="#000000" stroke-width="0" x="86.98" y="123.80" font-size="6.84" opacity="1.00" font-family="MS Shell Dlg">T04</text></g></g><g><g/><g><path style="stroke:#000000;stroke-width:0.125;fill:#ffffff" d="M114.97,116.04L129.57,116.04L129.57,127.33L114.97,127.33z"/><text xml:space="preserve" fill="#000000" stroke-width="0" x="116.38" y="123.80" font-size="6.84" opacity="1.00" font-family="MS Shell Dlg">T05</text></g></g><g><g/><g><image x="127.431488" y="11.095715" height="15.000001" width="15.000001" xlink:href="0_files/bc36f8496b7b266b_image_0.jpg"/></g></g><g/><g id="paperID" visibility="hidden" opacity="0.00" transform="scale(0.000100)"><path style="stroke:#000000;stroke-width:0.500;fill:#e6e6e6;fill-rule:evenodd" d="M-2000.00,-2000.00L2297.00,-2000.00L2297.00,2210.00L-2000.00,2210.00zM0.00,0.00L297.00,0.00L297.00,210.00L0.00,210.00z"/><path style="fill:#000000;fill-opacity:0.118" d="M3.00,210.00L297.00,210.00L297.00,3.00L300.00,3.00L300.00,213.00L3.00,213.00z"/></g><g><g><path style="stroke:#000000;stroke-width:0.353;fill:#f0f0ff" d="M37.25,153.91L146.00,153.91L146.00,159.41L37.25,159.41z"/><text xml:space="preserve" fill="#000000" stroke-width="0" x="39.36" y="158.14" font-size="3.75" opacity="1.00" font-family="Roboto Medium" font-weight="bold">Description</text><text xml:space="preserve" fill="#000000" stroke-width="0" x="120.91" y="158.14" font-size="3.75" opacity="1.00" font-family="Roboto Medium" font-weight="bold">BOM ID</text><text xml:space="preserve" fill="#000000" stroke-width="0" x="138.13" y="158.14" font-size="3.69" opacity="1.00" font-family="Roboto Medium" font-weight="bold">Qty</text><path style="stroke:#000000;stroke-width:0.353" d="M118.80,153.91L118.80,159.41"/><path style="stroke:#000000;stroke-width:0.353" d="M136.01,153.91L136.01,159.41"/></g><g id="Line1"><path style="stroke:#000000;stroke-width:0.353;fill:#ffffff" d="M37.25,159.41L146.00,159.41L146.00,164.91L37.25,164.91z"/><text xml:space="preserve" fill="#000000" stroke-width="0" x="39.36" y="163.64" font-size="3.91" opacity="1.00" font-family="Roboto Medium">0038_Door internal-hinges</text><text xml:space="preserve" fill="#000000" stroke-width="0" x="120.91" y="163.64" font-size="3.34" opacity="1.00" font-family="Roboto Medium">1</text><text xml:space="preserve" fill="#000000" stroke-width="0" x="138.13" y="163.64" font-size="3.34" opacity="1.00" font-family="Roboto Medium">1</text><path style="stroke:#000000;stroke-width:0.353" d="M118.80,159.41L118.80,164.91"/><path style="stroke:#000000;stroke-width:0.353" d="M136.01,159.41L136.01,164.91"/></g><g id="Line2"><path style="stroke:#000000;stroke-width:0.353;fill:#f0f0ff" d="M37.25,164.91L146.00,164.91L146.00,170.41L37.25,170.41z"/><text xml:space="preserve" fill="#000000" stroke-width="0" x="39.36" y="169.14" font-size="3.89" opacity="1.00" font-family="Roboto Medium">0078_Door front</text><text xml:space="preserve" fill="#000000" stroke-width="0" x="120.91" y="169.14" font-size="3.64" opacity="1.00" font-family="Roboto Medium">2</text><text xml:space="preserve" fill="#000000" stroke-width="0" x="138.13" y="169.14" font-size="3.34" opacity="1.00" font-family="Roboto Medium">1</text><path style="stroke:#000000;stroke-width:0.353" d="M118.80,164.91L118.80,170.41"/><path style="stroke:#000000;stroke-width:0.353" d="M136.01,164.91L136.01,170.41"/></g><g id="Line3"><path style="stroke:#000000;stroke-width:0.353;fill:#ffffff" d="M37.25,170.41L146.00,170.41L146.00,175.92L37.25,175.92z"/><text xml:space="preserve" fill="#000000" stroke-width="0" x="39.36" y="174.65" font-size="3.89" opacity="1.00" font-family="Roboto Medium">0109_printer door window</text><text xml:space="preserve" fill="#000000" stroke-width="0" x="120.91" y="174.65" font-size="3.65" opacity="1.00" font-family="Roboto Medium">3</text><text xml:space="preserve" fill="#000000" stroke-width="0" x="138.13" y="174.65" font-size="3.34" opacity="1.00" font-family="Roboto Medium">1</text><path style="stroke:#000000;stroke-width:0.353" d="M118.80,170.41L118.80,175.92"/><path style="stroke:#000000;stroke-width:0.353" d="M136.01,170.41L136.01,175.92"/></g><g id="Line4"><path style="stroke:#000000;stroke-width:0.353;fill:#f0f0ff" d="M37.25,175.92L146.00,175.92L146.00,181.42L37.25,181.42z"/><text xml:space="preserve" fill="#000000" stroke-width="0" x="39.36" y="180.15" font-size="3.90" opacity="1.00" font-family="Roboto Medium">0121_Neodynium magnet D12 T3</text><text xml:space="preserve" fill="#000000" stroke-width="0" x="120.91" y="180.15" font-size="3.73" opacity="1.00" font-family="Roboto Medium">4</text><text xml:space="preserve" fill="#000000" stroke-width="0" x="138.13" y="180.15" font-size="3.34" opacity="1.00" font-family="Roboto Medium">1</text><path style="stroke:#000000;stroke-width:0.353" d="M118.80,175.92L118.80,181.42"/><path style="stroke:#000000;stroke-width:0.353" d="M136.01,175.92L136.01,181.42"/></g><g id="Line5"><path style="stroke:#000000;stroke-width:0.353;fill:#ffffff" d="M37.25,181.42L146.00,181.42L146.00,186.92L37.25,186.92z"/><text xml:space="preserve" fill="#000000" stroke-width="0" x="39.36" y="185.65" font-size="3.89" opacity="1.00" font-family="Roboto Medium">0202_Door latch head</text><text xml:space="preserve" fill="#000000" stroke-width="0" x="120.91" y="185.65" font-size="3.48" opacity="1.00" font-family="Roboto Medium">5</text><text xml:space="preserve" fill="#000000" stroke-width="0" x="138.13" y="185.65" font-size="3.34" opacity="1.00" font-family="Roboto Medium">1</text><path style="stroke:#000000;stroke-width:0.353" d="M118.80,181.42L118.80,186.92"/><path style="stroke:#000000;stroke-width:0.353" d="M136.01,181.42L136.01,186.92"/></g><g id="Line6"><path style="stroke:#000000;stroke-width:0.353;fill:#f0f0ff" d="M37.25,186.92L146.00,186.92L146.00,192.42L37.25,192.42z"/><text xml:space="preserve" fill="#000000" stroke-width="0" x="39.36" y="191.15" font-size="3.90" opacity="1.00" font-family="Roboto Medium">0244_M4 Torque prevailing nut</text><text xml:space="preserve" fill="#000000" stroke-width="0" x="120.91" y="191.15" font-size="3.52" opacity="1.00" font-family="Roboto Medium">6</text><text xml:space="preserve" fill="#000000" stroke-width="0" x="138.13" y="191.15" font-size="3.64" opacity="1.00" font-family="Roboto Medium">2</text><path style="stroke:#000000;stroke-width:0.353" d="M118.80,186.92L118.80,192.42"/><path style="stroke:#000000;stroke-width:0.353" d="M136.01,186.92L136.01,192.42"/></g><g id="Line7"><path style="stroke:#000000;stroke-width:0.353;fill:#ffffff" d="M37.25,192.42L146.00,192.42L146.00,197.93L37.25,197.93z"/><text xml:space="preserve" fill="#000000" stroke-width="0" x="39.36" y="196.66" font-size="3.89" opacity="1.00" font-family="Roboto Medium">0250_M4X8 socket countersunk head screw</text><text xml:space="preserve" fill="#000000" stroke-width="0" x="120.91" y="196.66" font-size="3.68" opacity="1.00" font-family="Roboto Medium">7</text><text xml:space="preserve" fill="#000000" stroke-width="0" x="138.13" y="196.66" font-size="3.52" opacity="1.00" font-family="Roboto Medium">6</text><path style="stroke:#000000;stroke-width:0.353" d="M118.80,192.42L118.80,197.93"/><path style="stroke:#000000;stroke-width:0.353" d="M136.01,192.42L136.01,197.93"/></g><g><path style="stroke:#000000;stroke-width:0.353;fill:#f0f0ff" d="M151.00,153.91L259.76,153.91L259.76,159.41L151.00,159.41z"/><text xml:space="preserve" fill="#000000" stroke-width="0" x="153.12" y="158.14" font-size="3.75" opacity="1.00" font-family="Roboto Medium" font-weight="bold">Description</text><text xml:space="preserve" fill="#000000" stroke-width="0" x="234.67" y="158.14" font-size="3.75" opacity="1.00" font-family="Roboto Medium" font-weight="bold">BOM ID</text><text xml:space="preserve" fill="#000000" stroke-width="0" x="251.88" y="158.14" font-size="3.69" opacity="1.00" font-family="Roboto Medium" font-weight="bold">Qty</text><path style="stroke:#000000;stroke-width:0.353" d="M232.55,153.91L232.55,159.41"/><path style="stroke:#000000;stroke-width:0.353" d="M249.77,153.91L249.77,159.41"/></g><g id="Line8"><path style="stroke:#000000;stroke-width:0.353;fill:#ffffff" d="M151.00,159.41L259.76,159.41L259.76,164.91L151.00,164.91z"/><text xml:space="preserve" fill="#000000" stroke-width="0" x="153.12" y="163.64" font-size="3.89" opacity="1.00" font-family="Roboto Medium">0253_M4X10 socket head cap screw</text><text xml:space="preserve" fill="#000000" stroke-width="0" x="234.67" y="163.64" font-size="3.56" opacity="1.00" font-family="Roboto Medium">8</text><text xml:space="preserve" fill="#000000" stroke-width="0" x="251.88" y="163.64" font-size="3.34" opacity="1.00" font-family="Roboto Medium">1</text><path style="stroke:#000000;stroke-width:0.353" d="M232.55,159.41L232.55,164.91"/><path style="stroke:#000000;stroke-width:0.353" d="M249.77,159.41L249.77,164.91"/></g><g id="Line9"><path style="stroke:#000000;stroke-width:0.353;fill:#f0f0ff" d="M151.00,164.91L259.76,164.91L259.76,170.41L151.00,170.41z"/><text xml:space="preserve" fill="#000000" stroke-width="0" x="153.12" y="169.14" font-size="3.90" opacity="1.00" font-family="Roboto Medium">0367_M4 nylon washer</text><text xml:space="preserve" fill="#000000" stroke-width="0" x="234.67" y="169.14" font-size="3.60" opacity="1.00" font-family="Roboto Medium">9</text><text xml:space="preserve" fill="#000000" stroke-width="0" x="251.88" y="169.14" font-size="3.64" opacity="1.00" font-family="Roboto Medium">2</text><path style="stroke:#000000;stroke-width:0.353" d="M232.55,164.91L232.55,170.41"/><path style="stroke:#000000;stroke-width:0.353" d="M249.77,164.91L249.77,170.41"/></g><g id="Line10"><path style="stroke:#000000;stroke-width:0.353;fill:#ffffff" d="M151.00,170.41L259.76,170.41L259.76,175.92L151.00,175.92z"/><text xml:space="preserve" fill="#000000" stroke-width="0" x="153.12" y="174.65" font-size="3.90" opacity="1.00" font-family="Roboto Medium">0578_Door internal catcher_V2</text><text xml:space="preserve" fill="#000000" stroke-width="0" x="234.67" y="174.65" font-size="3.63" opacity="1.00" font-family="Roboto Medium">10</text><text xml:space="preserve" fill="#000000" stroke-width="0" x="251.88" y="174.65" font-size="3.34" opacity="1.00" font-family="Roboto Medium">1</text><path style="stroke:#000000;stroke-width:0.353" d="M232.55,170.41L232.55,175.92"/><path style="stroke:#000000;stroke-width:0.353" d="M249.77,170.41L249.77,175.92"/></g><g id="Line11"><path style="stroke:#000000;stroke-width:0.353;fill:#f0f0ff" d="M151.00,175.92L259.76,175.92L259.76,181.42L151.00,181.42z"/><text xml:space="preserve" fill="#000000" stroke-width="0" x="153.12" y="180.15" font-size="3.88" opacity="1.00" font-family="Roboto Medium">0579_Door edge_V2</text><text xml:space="preserve" fill="#000000" stroke-width="0" x="234.67" y="180.15" font-size="3.63" opacity="1.00" font-family="Roboto Medium">11</text><text xml:space="preserve" fill="#000000" stroke-width="0" x="251.88" y="180.15" font-size="3.64" opacity="1.00" font-family="Roboto Medium">2</text><path style="stroke:#000000;stroke-width:0.353" d="M232.55,175.92L232.55,181.42"/><path style="stroke:#000000;stroke-width:0.353" d="M249.77,175.92L249.77,181.42"/></g><g id="Line12"><path style="stroke:#000000;stroke-width:0.353;fill:#ffffff" d="M151.00,181.42L259.76,181.42L259.76,186.92L151.00,186.92z"/><text xml:space="preserve" fill="#000000" stroke-width="0" x="153.12" y="185.65" font-size="3.88" opacity="1.00" font-family="Roboto Medium">Self clinch</text><text xml:space="preserve" fill="#000000" stroke-width="0" x="234.67" y="185.65" font-size="3.63" opacity="1.00" font-family="Roboto Medium">12</text><text xml:space="preserve" fill="#000000" stroke-width="0" x="251.88" y="185.65" font-size="3.56" opacity="1.00" font-family="Roboto Medium">8</text><path style="stroke:#000000;stroke-width:0.353" d="M232.55,181.42L232.55,186.92"/><path style="stroke:#000000;stroke-width:0.353" d="M249.77,181.42L249.77,186.92"/></g></g><g id="hotspot.0" ident="" onmouseover="ShowHotSpot(evt,&apos;0&apos;)" onmouseout="HideHotSpot(evt,&apos;0&apos;)" onmousemove="ShowToolTip(evt,&apos;0&apos;,&quot;Copy 2 of Copy 1 of Copy 1 of  6&quot;)" opacity="0"><a xlink:href="1.svg"><path style="fill:#00ff00;fill-rule:evenodd" d="M142.48,25.94L127.65,25.94L127.65,11.12L142.48,11.12z"/></a></g><g id="hotspot.1" ident="" onmouseover="ShowHotSpot(evt,&apos;1&apos;)" onmouseout="HideHotSpot(evt,&apos;1&apos;)" onmousemove="ShowToolTip(evt,&apos;1&apos;,&quot;0038_Door internal-hinges&quot;)" opacity="0"><path style="fill:#00ff00;fill-rule:evenodd" d="M37.25,159.41L37.25,164.91L146.00,164.91L146.00,159.41zM239.81,49.56L239.21,143.04L234.95,148.68L233.54,148.59L227.02,147.20L226.48,146.89L226.45,126.89L229.32,122.96L229.60,118.72L230.07,118.06L233.83,118.44L234.12,76.45L233.56,75.60L227.29,74.23L226.73,73.67L226.75,59.02L227.06,53.66L228.37,51.87L229.59,51.86L235.50,53.09L237.53,50.56L238.56,49.32L239.51,49.27zM234.40,60.34L234.39,63.01L232.70,62.61L232.41,62.33L232.32,60.04zM233.82,133.33L233.86,135.95L232.41,135.58L232.13,135.30L232.03,133.02L232.98,133.03z"/></g><g id="hotspot.2" ident="" onmouseover="ShowHotSpot(evt,&apos;2&apos;)" onmouseout="HideHotSpot(evt,&apos;2&apos;)" onmousemove="ShowToolTip(evt,&apos;2&apos;,&quot;0578_Door internal catcher_V2&quot;)" opacity="0"><path style="fill:#00ff00;fill-rule:evenodd" d="M151.00,170.41L151.00,175.92L259.76,175.92L259.76,170.41zM160.85,38.00L169.91,39.97L170.74,40.55L170.20,127.49L167.83,130.78L166.50,130.78L160.49,129.44L159.73,128.51L159.72,97.77L160.00,49.12L160.30,37.11zM165.40,62.03L165.29,63.18L164.16,63.77L162.84,63.44L161.95,62.33L161.95,61.56L162.72,60.61L164.26,60.61zM162.85,80.41L162.83,86.46L162.54,87.90L161.67,87.82L160.85,86.65L160.48,86.45L160.58,83.64L161.13,83.34L161.39,80.50L161.88,79.81L162.26,79.82zM169.35,83.64L168.93,84.41L168.40,84.51L168.48,83.05L169.23,81.80L169.35,81.83zM164.54,105.30L165.11,106.16L165.12,107.12L164.47,107.89L162.84,107.85L161.95,107.05L161.99,105.13L162.74,104.72L163.39,104.72z"/></g><g id="hotspot.3" ident="" onmouseover="ShowHotSpot(evt,&apos;3&apos;)" onmouseout="HideHotSpot(evt,&apos;3&apos;)" onmousemove="ShowToolTip(evt,&apos;3&apos;,&quot;0579_Door edge_V2&quot;)" opacity="0"><path style="fill:#00ff00;fill-rule:evenodd" d="M151.00,175.92L151.00,181.42L259.76,181.42L259.76,175.92zM237.21,49.60L237.24,50.84L235.50,53.09L229.59,51.86L228.37,51.86L228.05,52.43L227.33,52.45L160.85,38.00L160.30,37.13L160.27,35.52L161.87,33.45L163.11,33.48zM225.94,139.51L226.23,139.79L226.20,144.46L224.77,144.35L160.57,130.49L159.73,129.64L159.73,128.48L160.49,129.44L166.50,130.78L167.83,130.78L170.11,127.66L171.02,127.66zM166.82,35.72L166.79,36.67L166.45,36.91L163.64,36.91L163.30,36.67L163.40,35.55L164.14,35.16L165.96,35.16zM233.25,49.89L233.58,50.83L232.90,51.31L230.40,51.33L230.06,51.10L230.06,49.88L230.60,49.57L232.72,49.57z"/></g><g id="hotspot.4" ident="" onmouseover="ShowHotSpot(evt,&apos;4&apos;)" onmouseout="HideHotSpot(evt,&apos;4&apos;)" onmousemove="ShowToolTip(evt,&apos;4&apos;,&quot;Self clinch&quot;)" opacity="0"><path style="fill:#00ff00;fill-rule:evenodd" d="M151.00,181.42L151.00,186.92L259.76,186.92L259.76,181.42zM182.98,70.52L182.92,71.20L182.05,71.11L181.96,70.23L182.64,70.18zM182.96,102.76L182.83,103.35L182.08,103.35L181.76,103.04L181.76,102.29L182.08,102.19z"/></g><g id="hotspot.5" ident="" onmouseover="ShowHotSpot(evt,&apos;5&apos;)" onmouseout="HideHotSpot(evt,&apos;5&apos;)" onmousemove="ShowToolTip(evt,&apos;5&apos;,&quot;0078_Door front&quot;)" opacity="0"><path style="fill:#00ff00;fill-rule:evenodd" d="M37.25,164.91L37.25,170.41L146.00,170.41L146.00,164.91zM238.38,49.03L238.39,49.68L237.51,50.57L237.21,49.61L198.47,41.11L162.13,33.25L162.12,32.94L163.68,32.91zM173.86,40.83L226.19,52.14L227.62,52.65L226.93,53.83L226.47,67.82L195.36,61.20L191.87,61.19L190.74,61.48L188.57,62.41L186.75,63.99L185.18,66.37L183.76,66.28L182.33,65.99L181.12,66.28L179.78,67.77L179.80,69.41L180.39,71.07L182.05,72.52L184.34,73.06L184.34,98.35L181.69,98.23L180.38,98.92L179.49,100.60L179.78,102.51L180.67,103.88L181.53,104.44L183.20,105.06L184.62,104.99L186.58,108.44L188.88,110.95L190.82,112.40L193.65,113.82L228.76,121.42L229.30,121.73L229.32,122.96L226.45,126.89L226.23,139.62L171.01,127.69L170.38,127.47L170.66,47.05L171.02,40.53zM234.40,60.34L234.39,63.01L232.70,62.61L232.41,62.33L232.32,60.04zM233.82,133.33L233.86,135.95L232.41,135.58L232.13,135.30L232.03,133.02L232.98,133.03z"/></g><g id="hotspot.6" ident="" onmouseover="ShowHotSpot(evt,&apos;6&apos;)" onmouseout="HideHotSpot(evt,&apos;6&apos;)" onmousemove="ShowToolTip(evt,&apos;6&apos;,&quot;0109_printer door window&quot;)" opacity="0"><path style="fill:#00ff00;fill-rule:evenodd" d="M37.25,170.41L37.25,175.92L146.00,175.92L146.00,170.41zM226.47,67.99L226.73,73.67L227.29,74.23L233.56,75.60L234.12,76.45L233.83,118.44L230.07,118.06L229.60,118.72L229.30,121.56L193.65,113.82L190.82,112.40L188.88,110.95L186.58,108.44L184.80,105.00L186.32,103.16L186.32,101.34L185.21,99.63L183.08,98.52L184.34,98.35L184.61,72.88L186.20,71.64L186.60,70.62L186.60,69.38L185.49,67.67L183.86,66.46L185.18,66.38L186.75,63.99L188.57,62.41L190.74,61.48L191.87,61.19L195.36,61.20zM183.86,66.46L181.39,66.55L179.88,67.86L180.23,67.09L181.12,66.28L182.33,65.99zM179.80,69.23L179.72,67.98L179.88,67.86zM181.12,98.81L180.07,99.77L180.08,99.22L180.84,98.53L181.69,98.23L182.64,98.23z"/></g><g id="hotspot.7" ident="" onmouseover="ShowHotSpot(evt,&apos;7&apos;)" onmouseout="HideHotSpot(evt,&apos;7&apos;)" onmousemove="ShowToolTip(evt,&apos;7&apos;,&quot;0121_Neodynium magnet D12 T3&quot;)" opacity="0"><path style="fill:#00ff00;fill-rule:evenodd" d="M37.25,175.92L37.25,181.42L146.00,181.42L146.00,175.92zM171.24,40.62L171.11,40.45L172.47,40.54z"/></g><g id="hotspot.8" ident="" onmouseover="ShowHotSpot(evt,&apos;8&apos;)" onmouseout="HideHotSpot(evt,&apos;8&apos;)" onmousemove="ShowToolTip(evt,&apos;8&apos;,&quot;0202_Door latch head&quot;)" opacity="0"><path style="fill:#00ff00;fill-rule:evenodd" d="M37.25,181.42L37.25,186.92L146.00,186.92L146.00,181.42zM162.85,80.41L162.83,86.46L162.54,87.90L161.67,87.82L160.85,86.65L160.48,86.45L160.58,83.64L161.13,83.34L161.39,80.50L161.88,79.81L162.26,79.82z"/></g><g id="hotspot.9" ident="" onmouseover="ShowHotSpot(evt,&apos;9&apos;)" onmouseout="HideHotSpot(evt,&apos;9&apos;)" onmousemove="ShowToolTip(evt,&apos;9&apos;,&quot;0244_M4 Torque prevailing nut&quot;)" opacity="0"><path style="fill:#00ff00;fill-rule:evenodd" d="M37.25,186.92L37.25,192.42L146.00,192.42L146.00,186.92zM184.65,69.68L184.33,71.19L183.70,71.97L181.79,71.93L180.89,70.81L181.11,69.09L181.96,68.54L183.50,68.53zM184.34,101.62L184.27,103.37L183.12,104.20L181.76,104.21L180.91,103.36L180.90,101.42L182.26,100.48L182.91,100.48zM182.98,70.52L182.92,71.20L182.05,71.11L181.96,70.23L182.64,70.18zM182.96,102.76L182.83,103.35L182.08,103.35L181.76,103.04L181.76,102.29L182.08,102.19z"/></g><g id="hotspot.10" ident="" onmouseover="ShowHotSpot(evt,&apos;10&apos;)" onmouseout="HideHotSpot(evt,&apos;10&apos;)" onmousemove="ShowToolTip(evt,&apos;10&apos;,&quot;0250_M4X8 socket countersunk head screw&quot;)" opacity="0"><path style="fill:#00ff00;fill-rule:evenodd" d="M37.25,192.42L37.25,197.93L146.00,197.93L146.00,192.42zM166.82,35.72L166.79,36.67L166.45,36.91L163.64,36.91L163.30,36.67L163.40,35.55L164.14,35.16L165.96,35.16zM233.25,49.89L233.58,50.83L232.90,51.31L230.40,51.33L230.06,51.10L230.06,49.88L230.60,49.57L232.72,49.57zM165.40,62.03L165.29,63.18L164.16,63.77L162.84,63.44L161.95,62.33L161.95,61.56L162.72,60.61L164.26,60.61zM164.54,105.30L165.11,106.16L165.12,107.12L164.47,107.89L162.84,107.85L161.95,107.05L161.99,105.13L162.74,104.72L163.39,104.72z"/></g><g id="hotspot.11" ident="" onmouseover="ShowHotSpot(evt,&apos;11&apos;)" onmouseout="HideHotSpot(evt,&apos;11&apos;)" onmousemove="ShowToolTip(evt,&apos;11&apos;,&quot;0253_M4X10 socket head cap screw&quot;)" opacity="0"><path style="fill:#00ff00;fill-rule:evenodd" d="M151.00,159.41L151.00,164.91L259.76,164.91L259.76,159.41zM169.35,83.64L168.93,84.41L168.40,84.51L168.48,83.05L169.23,81.80L169.35,81.83z"/></g><g id="hotspot.12" ident="" onmouseover="ShowHotSpot(evt,&apos;12&apos;)" onmouseout="HideHotSpot(evt,&apos;12&apos;)" onmousemove="ShowToolTip(evt,&apos;12&apos;,&quot;0367_M4 nylon washer&quot;)" opacity="0"><path style="fill:#00ff00;fill-rule:evenodd" d="M151.00,164.91L151.00,170.41L259.76,170.41L259.76,164.91zM185.49,67.67L186.60,69.38L186.60,70.62L186.31,71.47L184.82,72.81L182.90,72.81L181.52,72.20L180.06,70.55L180.09,67.80L181.39,66.55L183.78,66.55zM185.21,99.63L186.32,101.34L186.32,103.16L185.22,104.60L183.94,105.06L183.21,105.06L181.52,104.45L181.30,104.10L181.77,104.19L183.12,104.20L184.27,103.37L184.34,101.62L182.91,100.48L182.26,100.48L180.90,101.42L180.92,103.35L181.30,104.10L180.65,103.90L179.78,102.51L179.78,100.30L181.12,98.81L181.98,98.52L182.91,98.52zM184.65,69.68L184.33,71.19L183.70,71.97L181.79,71.93L180.89,70.81L181.11,69.09L181.96,68.54L183.50,68.53zM184.34,101.62L184.27,103.37L183.12,104.20L181.77,104.19L181.30,104.10L180.92,103.35L180.90,101.42L182.26,100.48L182.91,100.48z"/></g><g id="ToolTip" visibility="hidden" opacity="0" transform="translate(0,0)"><rect id="ToolTipShadow" opacity="0.20" fill="black" stroke="none" x="0" y="0" width="30" height="8"/><rect id="ToolTipBG" fill="#ffffe1" stroke="black" x="0" y="0" width="30" height="8"/><text xml:space="preserve" id="ToolTipText" fill="black" x="0" y="0" width="30" height="8">tooltip</text></g></g></svg>