<?xml version="1.0" encoding="UTF-8" standalone="yes"?><svg xmlns="http://www.w3.org/2000/svg" xmlns:xlink="http://www.w3.org/1999/xlink" width="398.000mm" height="188.000mm" viewBox="0.000000 0.000000 398.000000 188.000000" stroke-linejoin="round" stroke-linecap="round" fill="none" fill-rule="evenodd"><desc>Composer Export</desc><script type="text/ecmascript"><![CDATA[
if(typeof(top) != "undefined")
{
	top.ShowPaper = ShowPaper;
}
function ShowHotSpot(evt,hotspotid)
{
	var svgDocument = evt.target.ownerDocument;
	var strId = "hotspot."+hotspotid;
	var hotspot = svgDocument.getElementById(strId);
	if(hotspot)
		hotspot.setAttribute("opacity",".5");
}
function HideHotSpot(evt,hotspotid)
{
	var svgDocument = evt.target.ownerDocument;
	var strId = "hotspot."+hotspotid;
	var hotspot = svgDocument.getElementById(strId);
	if(hotspot)
		hotspot.setAttribute("opacity","0");

	var toolTip = svgDocument.getElementById('ToolTip');
	if(toolTip)
		toolTip.setAttribute("visibility","hidden");
}
function ShowToolTip(evt,hotspotid,strTooltip)
{
	if(strTooltip=="")
	return;

	// change text
	var svgDocument = evt.target.ownerDocument;
	var tiptext = svgDocument.getElementById('ToolTipText');
	if( !tiptext )
	return;
	tiptext.firstChild.nodeValue = " " + strTooltip + "  " ;

	// show tooltip before, else some refresh issue

	var toolTip = svgDocument.getElementById('ToolTip');
	if(!toolTip)
	return;

	toolTip.setAttribute("visibility","visible");
	toolTip.setAttribute("opacity",".95");

	// move tooltip
	// get viewbox

	var root = svgDocument.documentElement;
	var vbox = (root.getAttribute("viewBox")).split(' ');
	var x0 = parseFloat(vbox[0]);
	var y0 = parseFloat(vbox[1]);
	var vboxW = parseFloat(vbox[2]);
	var vboxH = parseFloat(vbox[3]);

	// get default width of svg

	var strW = root.getAttribute("width");
	var svgW = parseFloat(strW);
	if(strW.indexOf('mm') != -1)
	svgW *= 3.779;

	var strH = root.getAttribute("height");
	var svgH = parseFloat(strH);
	if(strH.indexOf('mm') != -1)
	svgH *= 3.779;  	// 96 dpi  -> 96/25.4 = 3.779

	// update the viewbox / width / height if svg is embedded in html with zoom fit all
	var realx0 = x0;
	var realy0 = y0;
	var realvboxW = vboxW;
	var realvboxH = vboxH;
	var realsvgW = svgW;
	var realsvgH = svgH;

	if ((typeof(top) == "undefined") || (typeof(top.svgctl1) != "undefined")) // embedded in html
	{
		// get window size in pxl

		svgW = window.innerWidth;
		svgH = window.innerHeight;

		// calculate real viewbox

		realsvgW = svgW;
		realsvgH = svgH;
		if((svgW / svgH) > (vboxW / vboxH))
		{
			realvboxW = (vboxH * svgW) / svgH;
			realvboxH = vboxH;
			realx0 = x0 - (realvboxW - vboxW)/2 ;
		}
		else
		{
			realvboxH = (vboxW * svgH) / svgW;
			realvboxW = vboxW;
			realy0 = y0 - (realvboxH - vboxH)/2 ;
		}
	}

	// get user zoom/pan

	var newScale = root.currentScale;
	var translation = root.currentTranslate;

	// transform pxl to user unit

	var xPos = (((evt.clientX+10- translation.x)/newScale) * realvboxW)/realsvgW  + realx0 ;
	var yPos = (((evt.clientY+5- translation.y)/newScale) * realvboxH)/ realsvgH  + realy0 ;
	var scaleForWidth = ( (1 / newScale) * realvboxH) / realsvgH;

	// move tooltip

	toolTip.setAttribute("transform", "translate(" + xPos + "," + yPos + ")" );

	// resize tooltip

	var fontsize = 12;
	tiptext.setAttribute("font-size",fontsize*scaleForWidth);
	tiptext.setAttribute("y", fontsize*scaleForWidth);
	var tipBG = svgDocument.getElementById('ToolTipBG');
	var outline = tiptext.getBBox();
	if(tipBG)
	{
		tipBG.setAttribute("stroke-width", 1*scaleForWidth);
		tipBG.setAttribute("width", Number(outline.width) );
		tipBG.setAttribute("height", Number(outline.height) + fontsize*.5*scaleForWidth );
	}
	var ToolTipShadow = svgDocument.getElementById('ToolTipShadow');
	if(ToolTipShadow)
	{
		ToolTipShadow.setAttribute("width", Number(outline.width) );
		ToolTipShadow.setAttribute("height", Number(outline.height) + fontsize*.5*scaleForWidth );
		ToolTipShadow.setAttribute("x", 3*scaleForWidth);
		ToolTipShadow.setAttribute("y", 3*scaleForWidth);
	}
}
function ShowPaper()
{
  var svgDocument = getDocument();
  var paper = svgDocument.getElementById("paperID");
  if(paper)
  {
    paper.setAttribute("transform","scale(1)");
    paper.setAttribute("opacity","1");
    paper.setAttribute("visibility","visible");
  }
  var svg = svgDocument.getRootElement();
  if(svg)
  {
    svg.setAttribute("width","408.000mm");
    svg.setAttribute("height","198.000mm");
    svg.setAttribute("viewBox","-5.000000 -5.000000 408.000000 198.000000");
  }
}
]]></script><defs/><g><path style="fill:#ffffff" d="M397.74,187.89L0.08,187.89L0.08,0.08L397.74,0.08z"/><path style="fill:#4c4c4c" d="M248.30,94.76L246.49,96.17L246.49,120.92L247.01,120.81L251.28,117.01L253.66,114.60L283.45,121.89L283.41,121.99L280.23,124.92L277.46,127.41L276.75,128.92L275.37,130.30L275.09,139.99L274.76,140.21L272.86,140.18L227.47,129.10L226.47,129.05L226.06,128.56L225.79,127.73L225.79,116.99L226.08,116.05L225.80,115.56L225.60,89.22z"/><path style="fill:#444444" d="M249.79,95.23L248.79,99.01L248.23,102.89L248.23,108.06L248.39,109.07L249.05,111.67L250.18,113.31L251.82,114.17L253.04,114.27L253.66,114.60L251.28,117.01L247.01,120.81L246.49,120.92L246.49,96.17L248.30,94.76z"/><path style="fill:#c0c0c0" d="M252.24,95.83L251.19,100.31L250.72,104.83L250.82,109.56L248.39,109.07L248.23,108.06L248.23,102.89L248.79,99.01L249.79,95.23z"/><path style="fill:#2d2d2d" d="M296.76,106.65L296.96,107.21L298.48,109.06L298.36,109.21L297.42,114.15L297.57,121.02L251.07,109.72L250.82,109.56L250.72,104.83L251.19,100.31L252.24,95.83L252.93,95.87z"/><path style="fill:#4c4c4c" d="M317.72,111.66L319.20,111.62L319.20,138.64L317.71,138.52L298.80,133.90L298.67,125.67L298.66,124.30L298.65,121.27L298.63,109.17L298.48,109.06L296.96,107.21L296.76,106.65z"/><path style="fill:#acacac" d="M250.82,109.56L251.07,109.72L251.26,111.13L252.11,113.05L253.04,114.27L251.82,114.17L250.18,113.31L249.05,111.67L248.39,109.07z"/><path style="fill:#444444" d="M334.44,76.90L333.14,77.06L332.10,79.07L332.02,81.58L340.42,83.54L340.68,81.28L341.83,79.06L341.97,78.88L342.66,78.96L342.95,79.24L342.92,82.13L342.10,84.08L341.45,84.56L339.66,84.24L339.41,84.21L337.64,83.69L337.39,92.94L337.12,93.50L336.44,93.95L336.40,94.38L336.57,124.23L335.32,125.48L331.73,128.80L321.77,137.94L320.69,138.53L319.20,138.64L319.20,111.62L320.23,110.96L320.37,110.47L320.78,109.83L320.92,89.99L322.15,89.60L324.55,87.57L325.18,84.61L326.05,82.98L326.76,82.29L327.69,82.32L328.00,82.86L326.46,83.12L325.46,84.88L325.20,86.28L325.19,87.58L333.77,89.63L334.04,87.37L335.19,85.04L334.93,84.80L329.23,83.49L329.23,83.19L331.31,81.32L332.11,77.97L333.01,76.49z"/><path style="fill:#282828" d="M297.57,121.02L297.77,122.20L298.66,124.30L298.67,125.67L292.59,124.11L283.45,121.89L253.66,114.60L253.04,114.27L252.11,113.05L251.26,111.13L251.07,109.72z"/><path style="fill:#4c4c4c" d="M336.90,77.48L340.78,78.43L341.97,78.88L341.83,79.06L340.68,81.28L340.42,83.54L332.02,81.58L332.10,79.07L333.14,77.06L334.44,76.90z"/><path style="fill:#404040" d="M279.40,47.32L279.27,47.51L277.18,49.41L277.19,49.74L278.04,49.65L278.86,48.79L280.24,48.85L280.50,48.44L288.01,41.62L288.84,41.34L291.97,41.34L300.00,43.28L304.72,44.64L305.15,45.13L305.00,45.87L304.04,46.86L296.39,53.91L296.36,54.36L296.78,54.48L298.25,54.35L300.28,52.47L300.82,52.41L338.60,61.76L335.72,64.42L335.72,65.27L338.11,63.18L338.78,63.16L339.07,63.46L339.22,66.65L339.60,66.75L348.73,69.03L350.44,69.81L350.72,70.59L350.39,71.04L344.19,76.76L341.71,77.62L341.61,78.27L340.78,78.43L336.90,77.48L334.44,76.90L333.01,76.49L326.96,74.94L326.86,74.28L324.83,74.56L323.69,75.36L321.04,78.25L320.48,79.91L320.37,110.47L320.23,110.96L319.20,111.62L317.72,111.66L296.76,106.65L252.93,95.87L252.24,95.83L249.79,95.23L248.30,94.76L225.60,89.22L223.89,88.39L223.02,87.04L222.80,63.41L222.80,62.58L222.82,57.57L223.30,54.70L224.33,53.24L226.41,51.43L226.69,51.11L226.66,50.78L225.54,50.20L213.06,47.17L211.97,46.60L211.94,44.72L217.80,39.24L219.35,38.29L221.37,38.02L234.11,41.07L237.09,41.08L238.58,40.36L241.02,38.08L241.85,38.01z"/><path style="fill:#393939" d="M264.74,61.68L262.26,64.04L261.88,65.28L261.49,65.81L261.51,64.67L262.65,62.77L264.46,61.25z"/><path style="fill:#393939" d="M261.78,78.18L262.50,80.03L262.01,80.22L261.51,79.28L261.44,72.89L261.59,72.87z"/><path style="fill:#393939" d="M326.96,74.94L325.10,75.39L324.08,76.03L321.61,78.27L321.03,79.34L320.91,85.83L320.91,87.75L320.90,89.41L320.92,89.99L320.78,109.83L320.37,110.47L320.48,79.91L321.04,78.25L323.69,75.36L324.83,74.56L326.86,74.28z"/><path style="fill:#fff2e8" d="M230.83,83.38L231.23,84.14L230.40,85.06L229.32,86.46L228.05,86.44L227.31,86.13L226.89,85.65L226.62,84.82L226.62,83.49L227.38,82.59L227.92,82.30L229.43,82.30z"/><path style="fill:#fff2e8" d="M252.70,88.37L253.39,89.42L253.23,89.88L251.55,91.81L249.99,91.96L249.05,90.91L248.68,89.52L249.35,88.23L249.79,87.84L251.85,87.84z"/><path style="fill:#fff2e8" d="M292.53,97.82L293.79,99.13L293.65,99.86L293.25,100.29L292.16,101.69L290.14,101.64L289.47,100.60L289.49,98.47L290.77,97.52L291.70,97.53z"/><path style="fill:#fff2e8" d="M315.53,103.88L316.23,104.90L314.03,107.24L313.04,107.21L312.30,106.90L311.90,106.66L311.62,105.86L311.64,104.00L312.63,103.06L314.42,103.06z"/><path style="fill:#acacac" d="M321.62,88.79L320.90,89.41L320.91,87.75L321.65,87.20z"/><path style="fill:#acacac" d="M298.65,121.27L298.66,124.30L297.77,122.20L297.57,121.02z"/><path style="fill:#e5d9d0" d="M231.64,85.09L231.11,86.60L229.87,87.33L229.13,87.33L227.47,86.45L227.31,86.13L228.05,86.44L229.32,86.46L230.40,85.06L231.23,84.14z"/><path style="fill:#e5d9d0" d="M227.76,85.49L227.73,84.60L228.56,84.49z"/><path style="fill:#e5d9d0" d="M253.79,90.36L253.50,91.82L252.59,92.58L250.71,92.58L249.99,91.96L251.55,91.81L253.23,89.88L253.39,89.42z"/><path style="fill:#e5d9d0" d="M249.91,91.03L249.79,90.05L250.72,90.04z"/><path style="fill:#e5d9d0" d="M294.21,99.73L294.20,101.25L293.92,101.79L293.01,102.54L291.41,102.54L290.31,101.95L290.14,101.64L292.16,101.69L293.25,100.29L293.65,99.86L293.79,99.13z"/><path style="fill:#e5d9d0" d="M290.33,101.00L290.22,100.04L291.14,99.73z"/><path style="fill:#e5d9d0" d="M312.69,105.92L312.62,105.30L313.58,105.28z"/><path style="fill:#e5d9d0" d="M313.04,107.21L314.03,107.24L316.23,104.90L316.27,106.98L315.44,107.81L313.27,107.81L312.30,106.90z"/><path style="fill:#c0c0c0" d="M321.63,86.45L321.65,87.20L320.91,87.75L320.91,85.83z"/><path style="fill:#c0c0c0" d="M297.42,114.15L298.36,109.21L298.48,109.06L298.63,109.17L298.65,121.27L297.57,121.02z"/><path style="fill:#444444" d="M222.80,62.58L222.80,63.41L219.70,62.68L219.15,62.38L219.03,61.74z"/><path style="fill:#444444" d="M269.04,70.40L269.31,70.81L268.37,71.26L266.78,71.25L265.65,70.98L265.54,70.59L267.47,69.98z"/><path style="fill:#444444" d="M269.82,74.85L272.12,75.24L274.27,74.94L274.86,74.48L274.82,77.15L274.54,77.98L273.75,78.92L273.41,79.07L269.40,82.69L264.55,81.51L262.50,80.03L261.78,78.18L261.59,72.87z"/><path style="fill:#444444" d="M292.59,124.11L292.53,125.88L292.15,126.87L287.99,130.74L277.61,140.29L276.12,141.30L274.25,141.29L227.73,129.95L226.63,129.37L226.47,129.05L227.47,129.10L272.86,140.18L274.76,140.21L275.09,139.99L275.37,130.30L276.75,128.92L277.46,127.41L280.23,124.92L283.41,121.99L283.45,121.89z"/><path style="fill:#4c4c4c" d="M222.82,57.57L222.80,62.58L219.03,61.74L219.16,59.70L219.63,58.23L220.44,57.09L221.37,57.12z"/><path style="fill:#4c4c4c" d="M265.49,61.99L264.59,63.05L261.88,65.28L262.26,64.04L264.74,61.68z"/><path style="fill:#4c4c4c" d="M333.01,76.49L332.11,77.97L331.31,81.32L329.23,83.19L329.23,83.49L334.93,84.80L335.19,85.04L334.04,87.37L333.77,89.63L325.19,87.58L325.20,86.28L325.46,84.88L326.46,83.12L328.00,82.86L327.69,82.32L326.76,82.29L326.05,82.98L325.18,84.61L324.55,87.57L322.15,89.60L320.92,89.99L320.90,89.41L321.62,88.79L321.65,87.20L321.63,86.45L320.91,85.83L321.03,79.34L321.61,78.27L324.08,76.03L325.10,75.39L326.96,74.94z"/><path style="fill:#4c4c4c" d="M273.44,77.07L273.45,77.68L273.04,78.74L272.51,78.84L272.59,76.84L272.89,76.76z"/><path style="fill:#4c4c4c" d="M336.01,93.50L335.69,94.05L335.08,94.07L335.13,92.61L335.37,92.26L335.98,92.25z"/><path style="fill:#4c4c4c" d="M324.76,102.98L324.26,104.49L323.73,104.59L323.80,102.87L324.66,102.79z"/><path style="fill:#404040" d="M339.41,84.21L339.17,93.28L338.39,94.21L336.40,94.38L336.44,93.95L337.12,93.50L337.39,92.94L337.64,83.69z"/><path style="fill:#393939" d="M220.38,42.55L218.42,43.25L218.19,42.73L218.79,42.16L220.27,41.89z"/><path style="fill:#393939" d="M295.13,45.05L293.81,45.19L293.12,45.68L292.95,45.57L293.08,44.76L293.53,44.37L295.03,44.39z"/><path style="fill:#393939" d="M280.38,47.68L280.50,48.44L280.24,48.85L278.86,48.79L278.04,49.65L277.19,49.74L277.18,49.41L279.27,47.51L279.40,47.32L280.10,47.40z"/><path style="fill:#393939" d="M296.39,53.91L304.04,46.86L305.00,45.87L305.15,45.13L305.19,46.35L303.76,47.96L296.78,54.48L296.36,54.36z"/><path style="fill:#393939" d="M339.61,62.37L339.60,66.75L339.22,66.65L339.07,63.46L338.78,63.16L338.11,63.18L335.72,65.27L335.72,64.42L338.60,61.76L339.05,61.81z"/><path style="fill:#393939" d="M267.47,69.98L265.54,70.59L265.57,69.86L267.33,69.29z"/><path style="fill:#393939" d="M342.19,72.46L340.87,72.60L340.18,73.09L340.01,72.35L340.87,71.79L342.10,71.80z"/><path style="fill:#393939" d="M283.70,66.34L274.86,74.48L274.27,74.94L272.12,75.24L272.22,74.57L274.70,73.71L277.88,70.80L281.34,67.62L283.70,65.72z"/><path style="fill:#393939" d="M350.69,71.63L344.60,77.17L343.11,78.17L341.61,78.27L341.71,77.62L344.19,76.76L350.39,71.04L350.72,70.59z"/><path style="fill:#393939" d="M339.61,92.96L339.17,93.28L339.41,84.21L339.66,84.24z"/><path style="fill:#ffffff" d="M221.98,42.99L222.25,43.41L221.31,43.85L219.43,43.85L218.60,43.56L218.42,43.25L220.38,42.55z"/><path style="fill:#ffffff" d="M296.72,45.53L296.70,45.83L296.06,46.07L293.61,46.08L293.12,45.68L293.81,45.19L295.13,45.05L296.15,45.20z"/><path style="fill:#ffffff" d="M343.81,72.90L343.76,73.25L343.42,73.49L340.67,73.49L340.18,73.09L340.87,72.60L342.19,72.46L343.51,72.60z"/><path style="fill:#ffffff" d="M281.74,80.93L281.75,84.08L281.35,84.52L280.26,85.11L277.02,84.54L269.40,82.69L273.41,79.07L273.75,78.92z"/><g id="Actor_2.0"><g style="stroke:#000000;stroke-width:0.176"><path d="M312.55,105.46L312.55,106.40L313.41,107.10L314.28,106.82L314.27,105.83L313.41,105.13L312.55,105.41L312.55,105.46"/><path d="M312.55,106.40L313.01,105.97L313.01,105.48L313.03,105.62L313.12,105.91L313.29,106.18L313.45,106.33L313.01,105.97"/><path d="M312.18,103.49L312.70,103.20L313.31,103.08L313.98,103.16L314.64,103.41L315.26,103.82L315.78,104.37L316.16,105.01L316.39,105.69L316.44,106.20L316.43,106.36L316.30,106.98L315.99,107.49L315.54,107.87"/><path d="M313.41,107.10L313.88,106.68L314.28,106.55"/><path d="M313.88,106.68L313.45,106.33L313.53,106.39L313.81,106.53L314.09,106.57L314.28,106.54"/><path d="M313.06,105.24L313.03,105.34L313.01,105.48L313.01,105.26"/><path d="M313.93,105.55L313.12,105.91"/><path d="M314.20,105.77L314.28,106.15"/><path d="M316.49,105.28L316.48,105.22L316.09,104.42L315.49,103.73L314.75,103.22L314.51,103.14"/></g><g style="stroke:#000000;stroke-width:0.529"><path d="M316.49,105.28L316.61,106.04L316.48,106.80L316.09,107.41L315.54,107.87L314.96,108.07L314.32,108.09L313.65,107.93L313.00,107.59L312.91,107.53L312.41,107.11L312.02,106.60L311.97,106.51L311.66,105.85L311.53,105.16L311.57,104.51L311.79,103.94L312.18,103.49L312.48,103.24L313.16,102.96L313.94,102.96L314.51,103.14"/></g></g><g id="Actor_2.1"><g style="stroke:#000000;stroke-width:0.176"><path d="M227.65,85.67L227.65,84.68L228.52,84.40L229.38,85.11L229.38,86.09L228.52,86.38L227.65,85.67L228.12,85.25L228.12,84.53"/><path d="M228.52,86.38L228.98,85.95L229.38,85.82"/><path d="M228.12,85.25L228.98,85.95"/><path d="M229.03,84.82L228.22,85.19L228.40,85.45L228.55,85.60L228.64,85.66L228.91,85.80L229.19,85.85L229.38,85.82"/><path d="M228.17,84.52L228.13,84.62L228.12,84.75L228.13,84.90L228.22,85.19"/><path d="M227.28,82.77L227.80,82.47L228.42,82.36L229.08,82.43L229.74,82.68L230.36,83.10L230.88,83.64L231.27,84.28L231.49,84.96L231.54,85.47L231.54,85.64L231.40,86.25L231.10,86.77L230.64,87.14"/><path d="M229.30,85.04L229.38,85.42"/><path d="M231.59,84.55L231.58,84.49L231.19,83.69L230.60,83.00L229.85,82.50L229.62,82.42"/></g><g style="stroke:#000000;stroke-width:0.529"><path d="M231.59,84.55L231.71,85.31L231.58,86.07L231.20,86.69L230.64,87.14L230.07,87.35L229.42,87.37L228.75,87.20L228.11,86.87L228.01,86.80L227.52,86.39L227.12,85.87L227.08,85.79L226.77,85.12L226.63,84.44L226.67,83.79L226.90,83.21L227.28,82.77L227.59,82.51L228.26,82.24L229.05,82.23L229.62,82.42"/></g></g><g id="Actor_2.2"><g style="stroke:#000000;stroke-width:0.176"><path d="M290.37,100.88L290.37,100.98L291.23,101.69L292.09,101.40L292.09,100.42L291.23,99.71L290.36,99.99L290.37,100.88"/><path d="M290.37,100.98L290.83,100.56L290.83,99.84"/><path d="M291.23,101.69L291.69,101.26L292.09,101.13"/><path d="M290.88,99.83L290.84,99.92L290.83,100.06L290.84,100.21L290.93,100.50L291.11,100.76L291.26,100.91L290.83,100.56"/><path d="M290.93,100.50L291.74,100.13"/><path d="M290.00,98.08L290.51,97.78L291.13,97.67L291.79,97.74L292.46,97.99L293.07,98.41L293.59,98.95L293.98,99.59L294.20,100.27L294.26,100.78L294.25,100.95L294.12,101.56L293.81,102.08L293.35,102.45"/><path d="M292.09,101.13L291.91,101.16L291.62,101.11L291.35,100.97L291.26,100.91L291.69,101.26"/><path d="M292.01,100.35L292.09,100.73"/><path d="M292.33,97.73L292.57,97.81L293.31,98.31L293.90,99.00L294.29,99.80L294.30,99.86"/></g><g style="stroke:#000000;stroke-width:0.529"><path d="M292.33,97.73L291.76,97.54L290.97,97.55L290.30,97.82L290.00,98.08L289.61,98.52L289.39,99.10L289.34,99.75L289.48,100.43L289.79,101.10L289.83,101.18L290.23,101.70L290.72,102.11L290.82,102.18L291.46,102.51L292.13,102.68L292.78,102.66L293.35,102.45L293.91,102.00L294.29,101.38L294.43,100.62L294.30,99.86"/></g></g><g id="Actor_2.3"><g style="stroke:#000000;stroke-width:0.176"><path d="M250.70,91.79L251.56,91.51L251.56,90.52L250.70,89.82L249.84,90.10L249.84,91.09L250.70,91.79L251.17,91.37L251.56,91.24"/><path d="M249.84,91.09L250.30,90.66L250.30,90.17L250.31,90.31L250.41,90.60L250.58,90.87L250.74,91.02L250.30,90.66"/><path d="M249.47,88.18L249.99,87.89L250.60,87.77L251.26,87.85L251.93,88.10L252.54,88.51L253.06,89.06L253.45,89.70L253.68,90.38L253.73,90.89L253.72,91.05L253.59,91.67L253.28,92.18L252.82,92.56"/><path d="M251.17,91.37L250.74,91.02L250.82,91.08L251.10,91.22L251.38,91.26L251.56,91.23"/><path d="M251.21,90.24L250.41,90.60"/><path d="M251.49,90.46L251.56,90.84"/><path d="M250.35,89.93L250.31,90.03L250.30,90.17L250.30,89.95"/><path d="M253.77,89.97L253.76,89.91L253.38,89.11L252.78,88.42L252.04,87.91L251.80,87.83"/></g><g style="stroke:#000000;stroke-width:0.529"><path d="M253.77,89.97L253.90,90.73L253.77,91.49L253.38,92.10L252.82,92.56L252.25,92.76L251.61,92.78L250.94,92.62L250.29,92.28L250.20,92.22L249.70,91.80L249.31,91.29L249.26,91.20L248.95,90.54L248.81,89.85L248.86,89.20L249.08,88.63L249.47,88.18L249.77,87.93L250.45,87.65L251.23,87.65L251.80,87.83"/></g></g><g id="Actor_0.0"><g style="stroke:#000000;stroke-width:0.176"><path d="M226.91,50.99L227.05,50.79L227.06,50.36L226.78,49.94L226.25,49.59L225.52,49.34L213.43,46.39L212.70,46.13L212.16,45.78L211.89,45.37"/><path d="M222.46,43.35L222.65,43.07L222.64,42.73L222.39,42.41L221.94,42.15L221.33,41.97L220.63,41.89L219.91,41.92L219.26,42.07L218.74,42.30L218.41,42.61L218.30,42.94L218.43,43.28L218.52,43.36"/><path d="M283.87,66.34L274.93,74.54L274.39,74.89L273.64,75.14L272.77,75.27L271.86,75.27L271.00,75.13L261.76,72.88L258.91,72.18L258.18,71.93L257.65,71.58L257.37,71.16L257.37,70.31L257.64,70.72L258.17,71.07L258.91,71.33L269.91,74.01L270.99,74.28L271.86,74.41L272.77,74.41L273.64,74.28L274.38,74.03L274.93,73.68L283.86,65.49L285.59,65.91L284.85,66.59L283.87,66.34L283.86,65.49"/><path d="M257.37,70.31L257.37,69.88L257.66,69.47L261.35,66.09L261.37,65.84L261.56,64.95L261.85,64.11L262.23,63.41L262.64,62.90L264.87,60.85L264.88,61.71L262.64,63.76L262.37,64.09L262.12,64.57L261.92,65.12L261.80,65.67L261.35,66.09"/><path d="M261.31,72.77L261.32,77.83L261.49,78.92L261.98,80.00L262.75,80.94L263.71,81.66L264.78,82.09L278.59,85.46L279.66,85.56L280.62,85.31L281.38,84.73L281.46,84.60"/><path d="M261.77,76.07L261.76,72.88"/><path d="M261.80,65.67L266.60,61.27L264.87,60.85"/><path d="M264.88,61.71L265.86,61.95"/><path d="M265.45,70.37L265.55,70.03L265.88,69.72L266.40,69.49L267.06,69.35L267.77,69.31L268.48,69.39L269.09,69.57L269.54,69.83L269.78,70.15L269.80,70.49L269.61,70.77L269.54,70.69L269.09,70.42L268.48,70.24L267.78,70.17L267.06,70.20L266.41,70.34L265.89,70.58L265.67,70.78L265.58,70.70L265.45,70.37"/><path d="M265.67,70.78L265.93,71.00L266.47,71.22L267.14,71.35L267.86,71.38L268.55,71.28L269.10,71.11"/><path d="M269.61,70.77L269.47,70.88"/><path d="M277.84,49.83L279.34,48.46L279.61,48.29L279.86,48.30L280.06,48.50L280.18,48.83L278.82,50.07L277.10,49.65L279.33,47.60L279.75,47.35L280.12,47.37"/><path d="M280.18,48.83L280.63,48.42"/><path d="M282.04,81.02L282.02,71.75L282.08,70.90L282.27,70.01L282.57,69.17L282.94,68.46L283.36,67.96L284.85,66.59"/><path d="M293.09,45.65L293.00,45.57L292.87,45.24L292.97,44.90L293.31,44.60L293.83,44.36L294.48,44.22L295.20,44.18L295.90,44.26L296.51,44.44L296.96,44.70L297.21,45.02L297.22,45.36L297.03,45.65"/><path d="M305.32,45.25L305.32,45.68L305.03,46.09L296.09,54.29L296.83,54.47"/><path d="M350.80,70.19L350.80,70.62L350.51,71.03L349.20,72.23L344.25,76.77L343.71,77.12L342.97,77.37L342.10,77.50L341.19,77.50L340.32,77.36L328.23,74.41L327.37,74.28L326.46,74.28L325.59,74.41L324.85,74.66L324.30,75.01L321.77,77.34L321.35,77.84L320.98,78.55L320.68,79.39L320.50,80.28L320.43,81.13L320.48,109.81L320.35,110.57L319.99,111.20"/><path d="M339.83,78.10L328.24,75.27L327.37,75.14L326.46,75.13L325.59,75.27L324.85,75.52L324.31,75.87L321.77,78.19L321.49,78.53L321.24,79.00L321.05,79.56L320.92,80.15L320.88,80.72L320.89,90.51"/><path d="M339.81,66.87L337.17,66.22L336.44,65.97L335.91,65.62L335.64,65.21L335.64,64.77L335.93,64.36L338.46,62.04L338.88,61.78L339.25,61.81"/><path d="M339.36,66.76L339.36,63.79L339.32,63.30L339.19,62.94L338.99,62.74L338.74,62.72L338.46,62.89L335.93,65.22L335.78,65.43"/><path d="M338.91,93.85L339.28,93.22L339.41,92.46L339.39,84.12"/><path d="M339.38,77.99L339.38,78.15"/><path d="M340.24,73.07L340.14,72.99L340.01,72.66L340.12,72.32L340.45,72.02L340.97,71.78L341.62,71.64L342.34,71.60L343.04,71.68L343.65,71.86L344.10,72.12L344.35,72.45L344.36,72.79L344.17,73.07"/></g><g style="stroke:#000000;stroke-width:0.529"><path d="M339.83,78.10L340.32,78.22L341.19,78.36L342.10,78.36L342.97,78.23L343.71,77.97L344.25,77.62L350.51,71.89L350.80,71.48L350.80,71.05L350.80,70.19L350.52,69.78L349.99,69.43L349.26,69.17L339.81,66.87L339.81,63.38L339.74,62.64L339.55,62.10L339.25,61.81L300.84,52.43L300.47,52.41L300.05,52.66L297.82,54.71L296.83,54.47L305.03,46.95L305.32,46.54L305.32,45.25L305.05,44.84L304.51,44.49L303.78,44.23L291.69,41.28L290.83,41.15L289.92,41.15L289.05,41.28L288.31,41.53L287.76,41.88L280.63,48.42L280.61,48.21L280.42,47.67L280.13,47.38L241.71,37.99L241.34,37.97L240.92,38.22L238.38,40.55L237.84,40.90L237.10,41.15L236.23,41.28L235.32,41.28L234.45,41.15L222.37,38.20L221.50,38.06L220.59,38.06L219.72,38.19L218.98,38.44L218.44,38.79L212.18,44.53L211.89,44.94L211.89,46.22L212.17,46.64L212.70,46.99L213.43,47.24L225.52,50.19L226.25,50.45L226.78,50.80L226.91,50.99L226.76,51.20L224.23,53.52L223.81,54.03L223.44,54.74L223.14,55.58L222.95,56.47L222.89,57.32L222.94,86.00L223.06,86.82L223.43,87.63L224.01,88.33L224.73,88.87L225.53,89.20L317.89,111.74L318.70,111.81L319.41,111.62L319.99,111.20L320.43,110.79L320.80,110.16L320.92,109.40L320.89,90.51"/><path d="M219.59,42.85L219.26,42.92L218.74,43.16L218.52,43.36L218.79,43.58L219.33,43.80L219.99,43.93L220.71,43.95L221.41,43.86L222.00,43.67L222.43,43.40L222.46,43.35L222.39,43.27L221.94,43.00L221.33,42.82L220.63,42.75L219.91,42.78L219.59,42.85"/><path d="M282.04,81.02L282.04,82.88L281.87,83.90L281.46,84.60L281.06,84.90L280.10,85.15L279.04,85.05L265.23,81.68L264.16,81.25L263.20,80.53L262.43,79.59L261.94,78.51L261.77,77.42L261.77,76.07"/><path d="M269.47,70.88L269.10,71.11"/><path d="M282.04,81.02L273.59,78.96"/><path d="M293.89,46.09L293.35,45.87L293.09,45.65L293.31,45.45L293.83,45.22L294.48,45.07L295.20,45.04L295.90,45.11L296.51,45.29L296.96,45.56L297.03,45.65L297.00,45.69L296.57,45.96L295.97,46.16L295.28,46.25L294.56,46.23L293.89,46.09"/><path d="M339.84,84.23L339.85,92.05L339.73,92.81L339.36,93.44L338.91,93.85L338.34,94.28L337.62,94.47L336.82,94.40L336.60,94.34"/><path d="M339.83,78.10L339.83,78.26"/><path d="M341.04,73.52L340.50,73.29L340.24,73.07L340.45,72.87L340.97,72.64L341.63,72.49L342.34,72.46L343.04,72.53L343.65,72.72L344.11,72.98L344.17,73.07L344.14,73.11L343.71,73.38L343.12,73.58L342.42,73.67L341.70,73.65L341.04,73.52"/></g></g><g id="Actor_.0"><g style="stroke:#000000;stroke-width:0.176"><path d="M322.71,106.73L322.13,107.12L321.35,107.43L320.92,107.53"/><path d="M320.89,90.15L321.33,90.06L322.10,89.74L322.68,89.35L324.82,87.39L324.89,86.39L325.09,85.33L325.41,84.32L325.83,83.42L326.31,82.72L326.80,82.26L327.28,82.10L323.38,81.13L327.83,77.05L327.85,77.13L328.01,77.71L328.25,78.33L328.55,78.96L328.92,79.59L329.33,80.22L329.79,80.83L327.93,82.53"/><path d="M320.88,83.14L321.13,83.19L321.14,83.28L321.31,83.86L321.54,84.47L321.85,85.10L322.21,85.74L322.63,86.36L323.09,86.97L322.89,87.16L321.89,86.91L321.89,88.38L321.83,88.79L321.49,89.18L320.91,89.49L320.89,89.49"/><path d="M320.89,85.82L321.16,85.92L321.65,86.26L321.89,86.66L321.83,87.08L321.49,87.46L320.91,87.78L320.89,87.78"/><path d="M322.89,87.16L321.16,85.02L320.88,84.72"/><path d="M321.13,83.19L320.88,83.42"/><path d="M320.89,80.52L323.38,81.13"/><path d="M323.09,86.97L324.82,87.39"/><path d="M321.89,86.91L321.89,86.66"/><path d="M324.05,104.78L324.24,104.63L324.43,104.37L324.59,104.02L324.70,103.63L324.77,103.22L324.77,102.86L324.70,102.57L324.59,102.39L324.42,102.33L324.24,102.41L324.05,102.62L323.87,102.93L323.73,103.30L323.64,103.71L323.61,104.10L323.64,104.43L323.74,104.67L323.88,104.79L324.05,104.78"/><path d="M327.83,77.05L324.03,76.12"/><path d="M326.06,88.65L334.66,90.75L334.29,90.63L334.01,90.21L333.87,89.54L333.85,89.13L333.87,88.69L334.01,87.76L334.28,86.85L334.65,86.05L334.97,85.59L335.08,85.45L335.52,85.11L335.92,85.08L327.29,82.97L326.88,83.00L326.44,83.34L326.02,83.94L325.65,84.74L325.38,85.65L325.24,86.59L325.22,87.02L325.24,87.43L325.38,88.10L325.65,88.52L326.06,88.65"/><path d="M328.19,83.19L328.02,82.65L327.70,82.23L327.28,82.10"/><path d="M329.14,83.43L331.52,81.25L331.59,80.24L331.79,79.19L332.12,78.18L332.53,77.28L333.01,76.57L333.13,76.47"/><path d="M329.79,80.83L331.52,81.25"/><path d="M337.59,83.68L332.73,82.50L332.36,82.37L332.09,81.95L331.94,81.29L331.92,80.88L331.94,80.44L332.08,79.51L332.09,79.48L332.35,78.59L332.72,77.79L333.15,77.19L333.59,76.86L333.99,76.83L334.90,77.05L334.84,76.88"/><path d="M335.48,94.25L335.36,94.26L335.22,94.14L335.13,93.90L335.10,93.57L335.13,93.18L335.22,92.78L335.36,92.40L335.54,92.09L335.69,91.92L335.73,91.89L335.91,91.81L336.07,91.86L336.19,92.04L336.25,92.33L336.25,92.70L336.19,93.10L336.07,93.50L335.91,93.84L335.73,94.10L335.54,94.25L335.48,94.25"/><path d="M335.92,85.08L336.25,85.36L336.46,85.91L336.53,86.67L336.46,87.57L336.25,88.51L335.93,89.38L335.52,90.09L335.08,90.56L334.66,90.75"/><path d="M334.90,77.05L337.58,77.70"/><path d="M335.98,77.16L335.85,77.28"/><path d="M341.36,84.60L340.99,84.48L340.72,84.07L340.57,83.39L340.55,82.99L340.57,82.55L340.71,81.62L340.98,80.70L341.35,79.90L341.78,79.30L342.22,78.97L342.63,78.94"/></g><g style="stroke:#000000;stroke-width:0.529"><path d="M320.92,107.86L321.41,107.67L321.85,107.37L322.71,106.73L337.17,93.48L337.51,93.02L337.60,92.54L337.59,83.68"/><path d="M337.58,77.70L342.63,78.94L342.95,79.21L343.16,79.76L343.24,80.53L343.17,81.43L342.96,82.37L342.89,82.54L342.63,83.24L342.23,83.95L341.79,84.42L341.36,84.60L337.59,83.68"/><path d="M337.58,77.55L337.58,77.70"/></g></g><g id="Actor_.1"><g style="stroke:#000000;stroke-width:0.176"><path d="M292.68,124.12L253.88,114.65L246.98,120.98L246.89,121.04L246.76,121.08L246.62,121.10L246.32,121.08L227.33,116.44L226.60,116.19L226.37,116.04"/><path d="M246.42,96.37L246.58,96.42L246.72,96.44L246.85,96.42L246.94,96.37L248.90,94.90"/><path d="M253.88,114.65L251.43,114.05L250.56,113.58L249.80,112.76L249.16,111.62L248.68,110.19L248.34,108.49L248.17,106.57L248.15,105.55L248.17,104.48L248.33,102.25L248.66,99.95L249.14,97.63L249.77,95.33L249.84,95.13"/><path d="M254.02,114.68L253.13,114.19L252.39,113.39L251.75,112.26L251.26,110.82L250.93,109.13L250.76,107.21L250.76,105.11L250.92,102.88L251.25,100.58L251.73,98.26L252.36,95.97L252.43,95.76"/><path d="M298.81,109.16L298.72,109.15L298.68,109.12L296.59,106.54"/><path d="M298.53,108.94L298.34,109.64L297.86,111.96L297.53,114.26L297.37,116.49L297.37,118.59L297.54,120.51L297.88,122.20L298.37,123.64L298.70,124.24L298.71,125.59"/><path d="M298.70,124.24L298.68,109.12"/><path d="M321.35,107.69L321.14,107.78"/><path d="M321.55,107.56L321.85,107.37"/><path d="M336.65,123.88L336.64,123.87"/></g><g style="stroke:#000000;stroke-width:0.529"><path d="M292.68,124.12L292.68,125.36L292.61,125.93L292.52,126.23L292.31,126.75L291.79,127.42L277.33,140.67L276.69,141.14L276.40,141.27L275.82,141.44L275.55,141.48L275.27,141.49L274.99,141.47L274.72,141.42L228.11,130.04L227.52,129.86L227.24,129.72L226.61,129.24L226.12,128.56L225.90,128.03L225.77,127.16L225.76,117.75L225.83,117.18L225.92,116.88L226.13,116.36L226.37,116.04L226.06,115.84L225.79,115.42L225.75,89.25"/><path d="M292.68,124.12L298.71,125.59L298.72,133.76L298.76,133.83L298.85,133.89L298.98,133.93L317.97,138.57L318.83,138.70L319.74,138.71L320.61,138.57L321.36,138.32L321.90,137.97L336.36,124.72L336.64,124.31L336.60,93.99"/></g></g><g id="Actor_.2"><g style="stroke:#000000;stroke-width:0.176"><path d="M262.19,64.42L265.10,61.76"/><path d="M272.92,78.88L272.74,78.96L272.58,78.91L272.46,78.73L272.40,78.44L272.39,78.26L272.39,78.07L272.46,77.67L272.57,77.28L272.73,76.92L272.92,76.66L273.11,76.52L273.28,76.51L273.43,76.63L273.52,76.86L273.55,77.20L273.52,77.59L273.43,77.99L273.29,78.37L273.11,78.68L272.92,78.88"/></g><g style="stroke:#000000;stroke-width:0.529"><path d="M222.89,57.49L221.12,57.05L220.71,57.08L220.27,57.42L219.84,58.02L219.47,58.82L219.20,59.73L219.06,60.67L219.04,61.10L219.06,61.51L219.21,62.18L219.48,62.60L219.85,62.72L222.90,63.47"/><path d="M274.88,74.56L274.89,77.23L274.80,77.71L274.46,78.17L269.49,82.72"/></g></g><g/><g><g/><g><path style="fill:#ffffff" d="M197.14,162.22L197.14,177.43L225.64,177.43L225.64,162.22z"/><path style="stroke:#000000;stroke-width:0.089;fill:#fac242" d="M211.36,169.83L211.23,171.14L210.85,172.41L210.22,173.57L209.38,174.59L208.36,175.43L207.20,176.06L205.93,176.44L204.62,176.57L203.30,176.44L202.04,176.06L200.87,175.43L199.85,174.59L199.01,173.57L198.39,172.41L198.00,171.14L197.87,169.83L198.00,168.51L198.39,167.25L199.01,166.08L199.85,165.06L200.87,164.22L202.04,163.60L203.30,163.21L204.62,163.08L205.93,163.21L207.20,163.60L208.36,164.22L209.38,165.06L210.22,166.08L210.85,167.25L211.23,168.51z"/><path style="fill:#ffffff" d="M208.50,169.10L203.38,166.15L203.38,166.15L203.27,166.10L203.16,166.07L203.05,166.05L202.94,166.05L202.83,166.06L202.73,166.09L202.63,166.13L202.53,166.18L202.45,166.25L202.37,166.33L202.30,166.41L202.25,166.51L202.21,166.62L202.18,166.73L202.18,166.85L202.18,172.76L202.18,172.76L202.18,172.88L202.21,172.99L202.25,173.10L202.30,173.20L202.37,173.28L202.45,173.36L202.53,173.43L202.63,173.48L202.73,173.52L202.83,173.55L202.94,173.57L203.05,173.56L203.16,173.55L203.27,173.51L203.38,173.46L208.50,170.50L208.50,170.50L208.60,170.43L208.69,170.35L208.76,170.26L208.82,170.17L208.86,170.07L208.89,169.96L208.90,169.85L208.90,169.74L208.89,169.64L208.86,169.53L208.82,169.43L208.76,169.34L208.69,169.25L208.60,169.17L208.50,169.10z"/><path style="fill:#fac242" d="M207.12,169.81L203.46,167.69L203.46,171.93L207.12,169.81z"/><path style="fill:#000000;fill-rule:evenodd" d="M214.96,169.13L214.96,169.13L215.00,169.13L215.04,169.13L215.07,169.14L215.10,169.14L215.13,169.15L215.16,169.15L215.19,169.16L215.21,169.17L215.24,169.18L215.26,169.20L215.28,169.21L215.30,169.22L215.32,169.24L215.34,169.26L215.35,169.28L215.35,169.28L215.37,169.30L215.37,169.33L215.38,169.35L215.38,169.37L215.38,169.39L215.38,169.41L215.38,169.42L215.37,169.44L215.36,169.45L215.34,169.46L215.33,169.47L215.31,169.48L215.29,169.48L215.26,169.49L215.23,169.49L215.18,169.49L215.18,169.49L215.11,169.48L215.04,169.47L214.97,169.47L214.89,169.46L214.80,169.46L214.71,169.45L214.61,169.45L214.51,169.46L214.40,169.46L214.28,169.47L214.17,169.48L214.04,169.49L213.91,169.50L213.78,169.51L213.64,169.53L213.64,169.53L213.66,169.54L213.67,169.56L213.69,169.57L213.70,169.58L213.72,169.59L213.73,169.60L213.74,169.62L213.75,169.63L213.76,169.64L213.77,169.65L213.78,169.66L213.79,169.67L213.79,169.67L213.80,169.68L213.80,169.69L213.80,169.69L213.80,169.69L213.80,169.69L213.80,169.70L213.80,169.70L213.80,169.70L213.80,169.71L213.80,169.71L213.80,169.72L213.80,169.72L213.79,169.73L213.79,169.74L213.79,169.74L213.79,169.75L213.79,169.75L213.79,169.76L213.79,169.76L213.78,169.79L213.77,169.82L213.76,169.85L213.76,169.88L213.75,169.92L213.74,169.96L213.74,170.00L213.74,170.04L213.73,170.09L213.73,170.14L213.73,170.19L213.73,170.24L213.73,170.30L213.73,170.36L213.73,170.42L213.73,170.42L213.79,170.42L213.84,170.43L213.89,170.43L213.95,170.44L214.00,170.45L214.05,170.46L214.11,170.47L214.16,170.48L214.21,170.49L214.27,170.51L214.32,170.52L214.37,170.53L214.43,170.55L214.48,170.56L214.54,170.58L214.54,170.58L214.56,170.59L214.59,170.61L214.61,170.62L214.63,170.64L214.65,170.66L214.67,170.67L214.68,170.69L214.70,170.71L214.71,170.73L214.72,170.76L214.73,170.78L214.74,170.80L214.75,170.82L214.76,170.85L214.76,170.87L214.76,170.87L214.76,170.89L214.76,170.92L214.76,170.93L214.75,170.95L214.75,170.97L214.74,170.98L214.73,170.99L214.72,171.00L214.70,171.01L214.69,171.01L214.67,171.02L214.65,171.02L214.63,171.02L214.61,171.02L214.59,171.02L214.59,171.02L214.58,171.02L214.58,171.02L214.57,171.01L214.56,171.01L214.55,171.00L214.54,170.99L214.52,170.99L214.51,170.98L214.49,170.96L214.47,170.95L214.45,170.94L214.43,170.92L214.41,170.91L214.39,170.89L214.36,170.87L214.36,170.87L214.30,170.83L214.25,170.80L214.19,170.77L214.14,170.74L214.09,170.71L214.05,170.68L214.00,170.65L213.96,170.63L213.92,170.60L213.88,170.58L213.84,170.56L213.81,170.54L213.78,170.53L213.75,170.51L213.72,170.50L213.72,170.50L213.73,170.79L213.74,171.05L213.74,171.30L213.74,171.52L213.74,171.73L213.74,171.91L213.74,172.07L213.73,172.21L213.72,172.32L213.71,172.42L213.70,172.50L213.68,172.55L213.66,172.58L213.64,172.60L213.61,172.59L213.61,172.59L213.58,172.57L213.56,172.55L213.54,172.53L213.51,172.51L213.49,172.49L213.48,172.47L213.46,172.44L213.44,172.41L213.43,172.38L213.41,172.35L213.40,172.32L213.39,172.29L213.38,172.26L213.38,172.22L213.37,172.19L213.37,172.19L213.37,172.18L213.37,172.18L213.37,172.18L213.37,172.18L213.37,172.18L213.37,172.17L213.37,172.17L213.37,172.17L213.37,172.16L213.37,172.16L213.37,172.16L213.38,172.15L213.38,172.15L213.38,172.15L213.38,172.14L213.38,172.14L213.40,172.11L213.42,172.06L213.43,172.00L213.45,171.93L213.46,171.86L213.47,171.77L213.48,171.68L213.49,171.58L213.49,171.47L213.50,171.35L213.50,171.22L213.51,171.08L213.51,170.93L213.51,170.77L213.50,170.60L213.50,170.43L213.50,170.43L213.50,170.35L213.50,170.27L213.50,170.19L213.50,170.12L213.49,170.05L213.49,169.98L213.48,169.92L213.47,169.86L213.46,169.81L213.45,169.76L213.44,169.71L213.43,169.67L213.42,169.63L213.41,169.59L213.40,169.56L213.40,169.56L213.31,169.57L213.23,169.58L213.15,169.59L213.07,169.60L212.99,169.61L212.92,169.63L212.85,169.64L212.78,169.65L212.71,169.66L212.65,169.67L212.58,169.69L212.52,169.70L212.46,169.71L212.41,169.72L212.35,169.73L212.35,169.73L212.33,169.74L212.32,169.74L212.31,169.75L212.29,169.75L212.28,169.75L212.27,169.76L212.26,169.76L212.24,169.76L212.23,169.77L212.23,169.77L212.22,169.77L212.21,169.77L212.20,169.77L212.20,169.77L212.19,169.77L212.19,169.77L212.13,169.76L212.08,169.75L212.04,169.74L211.99,169.72L211.96,169.71L211.92,169.70L211.90,169.68L211.87,169.67L211.86,169.65L211.84,169.64L211.83,169.62L211.83,169.61L211.83,169.59L211.83,169.57L211.84,169.56L211.84,169.56L212.08,169.53L212.30,169.51L212.52,169.49L212.74,169.46L212.94,169.44L213.14,169.41L213.34,169.39L213.52,169.36L213.70,169.34L213.87,169.31L214.03,169.29L214.18,169.26L214.33,169.24L214.47,169.21L214.60,169.18L214.60,169.18L214.64,169.17L214.67,169.17L214.70,169.16L214.73,169.16L214.76,169.15L214.79,169.15L214.81,169.14L214.84,169.14L214.86,169.14L214.88,169.13L214.90,169.13L214.92,169.13L214.94,169.13L214.95,169.13L214.96,169.13zM212.73,167.25L212.86,167.25L213.09,167.60L213.30,167.25L213.41,167.25L213.15,167.69L213.45,168.18L213.32,168.18L213.09,167.79L212.85,168.18L212.74,168.18L212.74,168.14L213.02,167.69L212.74,167.25zM213.66,166.85L213.66,167.01L213.54,167.01L213.54,166.85L213.66,166.85zM213.56,167.25L213.66,167.25L213.66,168.18L213.56,168.18L213.56,167.25zM214.39,168.18L214.39,168.07L214.39,168.07L214.37,168.09L214.36,168.10L214.35,168.11L214.33,168.13L214.31,168.14L214.30,168.15L214.28,168.16L214.26,168.16L214.24,168.17L214.23,168.18L214.21,168.18L214.19,168.19L214.17,168.19L214.15,168.19L214.13,168.19L214.13,168.19L214.10,168.19L214.06,168.18L214.03,168.17L214.00,168.15L213.98,168.13L213.95,168.11L213.93,168.08L213.91,168.05L213.89,168.01L213.88,167.97L213.87,167.92L213.86,167.87L213.85,167.82L213.84,167.76L213.84,167.69L213.84,167.69L213.84,167.63L213.84,167.58L213.85,167.53L213.86,167.48L213.87,167.44L213.89,167.40L213.91,167.36L213.93,167.33L213.95,167.30L213.97,167.27L214.00,167.25L214.03,167.24L214.06,167.22L214.10,167.22L214.13,167.21L214.13,167.21L214.15,167.21L214.18,167.21L214.19,167.22L214.21,167.22L214.23,167.23L214.25,167.24L214.27,167.25L214.28,167.26L214.30,167.27L214.32,167.28L214.33,167.29L214.35,167.31L214.36,167.32L214.37,167.34L214.39,167.36L214.39,167.21L214.50,167.21L214.50,168.16L214.39,168.16zM214.39,167.69L214.39,167.69L214.39,167.65L214.38,167.60L214.38,167.57L214.37,167.53L214.36,167.50L214.35,167.47L214.34,167.44L214.32,167.42L214.30,167.40L214.28,167.38L214.26,167.37L214.23,167.36L214.21,167.35L214.18,167.35L214.15,167.35L214.15,167.35L214.12,167.35L214.09,167.35L214.06,167.36L214.04,167.37L214.02,167.39L214.00,167.40L213.99,167.42L213.97,167.45L213.96,167.47L213.95,167.50L213.94,167.54L213.94,167.57L213.94,167.61L213.93,167.65L213.93,167.69L213.93,167.69L213.93,167.74L213.94,167.78L213.94,167.82L213.95,167.86L213.95,167.90L213.96,167.93L213.97,167.96L213.99,167.99L214.00,168.01L214.02,168.03L214.04,168.05L214.05,168.06L214.07,168.07L214.10,168.08L214.12,168.08L214.12,168.08L214.15,168.08L214.18,168.08L214.21,168.07L214.23,168.05L214.26,168.04L214.28,168.02L214.30,167.99L214.32,167.97L214.33,167.94L214.34,167.90L214.36,167.87L214.36,167.83L214.37,167.79L214.37,167.74L214.37,167.69zM213.96,166.88L214.09,166.88L214.23,167.16L214.15,167.16L213.96,166.88z"/><path style="fill:#000000;fill-rule:evenodd" d="M219.43,170.46L219.43,170.46L219.49,170.47L219.54,170.49L219.60,170.50L219.64,170.52L219.69,170.54L219.73,170.57L219.76,170.59L219.80,170.62L219.82,170.64L219.85,170.67L219.87,170.70L219.89,170.73L219.90,170.76L219.91,170.80L219.91,170.83L219.91,170.83L219.90,170.84L219.89,170.85L219.88,170.85L219.86,170.86L219.84,170.86L219.82,170.86L219.80,170.86L219.77,170.86L219.74,170.86L219.71,170.86L219.68,170.86L219.64,170.86L219.60,170.85L219.56,170.85L219.52,170.84L219.52,170.84L219.43,170.84L219.35,170.84L219.26,170.83L219.17,170.83L219.08,170.83L218.99,170.83L218.90,170.83L218.81,170.83L218.73,170.83L218.64,170.84L218.55,170.84L218.46,170.84L218.37,170.85L218.28,170.85L218.20,170.86L218.20,170.86L218.11,170.87L218.02,170.87L217.93,170.88L217.85,170.89L217.76,170.90L217.67,170.92L217.58,170.93L217.49,170.94L217.40,170.95L217.31,170.97L217.21,170.98L217.12,171.00L217.03,171.02L216.94,171.04L216.84,171.06L216.84,171.06L216.81,171.06L216.77,171.07L216.74,171.07L216.71,171.08L216.68,171.08L216.66,171.08L216.63,171.09L216.61,171.09L216.59,171.09L216.58,171.09L216.56,171.10L216.55,171.10L216.54,171.10L216.54,171.10L216.53,171.10L216.53,171.10L216.51,171.10L216.49,171.10L216.47,171.09L216.45,171.09L216.43,171.08L216.41,171.07L216.39,171.06L216.36,171.05L216.34,171.04L216.31,171.02L216.29,171.01L216.26,170.99L216.24,170.97L216.21,170.96L216.18,170.94L216.18,170.94L216.17,170.92L216.15,170.90L216.14,170.89L216.13,170.87L216.12,170.86L216.12,170.85L216.11,170.83L216.11,170.82L216.11,170.82L216.12,170.81L216.12,170.80L216.13,170.80L216.14,170.79L216.16,170.79L216.17,170.79L216.17,170.79L216.32,170.79L216.47,170.79L216.63,170.78L216.80,170.77L216.97,170.76L217.15,170.75L217.34,170.73L217.54,170.72L217.74,170.70L217.95,170.67L218.17,170.65L218.39,170.62L218.62,170.58L218.86,170.55L219.11,170.51L219.11,170.51L219.14,170.50L219.18,170.49L219.21,170.49L219.24,170.48L219.27,170.48L219.29,170.47L219.32,170.47L219.34,170.47L219.36,170.46L219.37,170.46L219.38,170.46L219.40,170.46L219.40,170.46L219.41,170.46L219.42,170.46zM217.48,167.25L217.62,167.25L217.86,167.98L218.10,167.25L218.21,167.25L217.79,168.51L217.69,168.51L217.79,168.16L217.48,167.27zM218.58,167.04L218.20,167.04L218.20,166.92L218.58,166.92L218.58,167.04zM218.46,168.16L218.34,168.16L218.34,167.24L218.46,167.24L218.46,168.16z"/><path style="fill:#000000;fill-rule:evenodd" d="M222.34,168.86L222.34,168.86L222.38,168.88L222.42,168.90L222.45,168.92L222.49,168.94L222.52,168.96L222.54,168.98L222.57,168.99L222.59,169.01L222.60,169.02L222.62,169.04L222.63,169.05L222.63,169.07L222.64,169.08L222.64,169.09L222.63,169.10L222.63,169.10L222.63,169.10L222.63,169.10L222.63,169.10L222.63,169.11L222.63,169.11L222.63,169.11L222.63,169.12L222.63,169.12L222.63,169.12L222.63,169.13L222.63,169.13L222.63,169.13L222.62,169.14L222.62,169.14L222.62,169.14L222.62,169.14L222.60,169.16L222.59,169.18L222.58,169.20L222.56,169.21L222.55,169.23L222.54,169.24L222.53,169.26L222.52,169.27L222.52,169.28L222.51,169.29L222.51,169.31L222.50,169.32L222.50,169.33L222.50,169.33L222.50,169.34L222.50,169.34L222.59,169.47L222.69,169.60L222.80,169.71L222.90,169.83L223.02,169.94L223.13,170.04L223.25,170.14L223.37,170.23L223.50,170.32L223.63,170.40L223.76,170.48L223.89,170.55L224.03,170.62L224.18,170.68L224.32,170.74L224.32,170.74L224.35,170.75L224.38,170.76L224.40,170.77L224.43,170.78L224.45,170.78L224.47,170.79L224.48,170.80L224.50,170.80L224.51,170.81L224.53,170.82L224.54,170.82L224.55,170.83L224.55,170.83L224.56,170.84L224.56,170.84L224.56,170.84L224.56,170.85L224.56,170.85L224.56,170.86L224.55,170.86L224.55,170.87L224.54,170.87L224.53,170.87L224.52,170.88L224.51,170.88L224.49,170.88L224.48,170.89L224.46,170.89L224.44,170.89L224.41,170.90L224.39,170.90L224.39,170.90L224.30,170.91L224.22,170.91L224.14,170.92L224.07,170.92L224.00,170.92L223.93,170.92L223.87,170.92L223.82,170.92L223.76,170.91L223.71,170.91L223.67,170.90L223.63,170.89L223.59,170.88L223.56,170.87L223.53,170.86L223.53,170.86L223.51,170.85L223.48,170.82L223.45,170.79L223.40,170.74L223.35,170.69L223.29,170.62L223.23,170.54L223.15,170.45L223.07,170.34L222.98,170.22L222.88,170.10L222.77,169.96L222.66,169.80L222.53,169.64L222.40,169.46L222.40,169.46L222.32,169.63L222.23,169.79L222.15,169.94L222.06,170.09L221.96,170.23L221.87,170.36L221.77,170.49L221.67,170.61L221.57,170.72L221.47,170.83L221.37,170.93L221.26,171.02L221.15,171.11L221.04,171.19L220.93,171.26L220.93,171.26L220.90,171.28L220.88,171.29L220.85,171.31L220.83,171.32L220.81,171.34L220.79,171.35L220.77,171.36L220.75,171.36L220.74,171.37L220.72,171.37L220.71,171.37L220.70,171.38L220.69,171.37L220.68,171.37L220.68,171.37L220.68,171.37L220.68,171.36L220.68,171.35L220.68,171.34L220.68,171.33L220.69,171.32L220.70,171.31L220.71,171.29L220.72,171.28L220.73,171.26L220.74,171.25L220.76,171.23L220.77,171.21L220.79,171.19L220.81,171.17L220.84,171.15L220.84,171.15L221.00,171.00L221.15,170.85L221.29,170.70L221.42,170.55L221.54,170.40L221.65,170.25L221.75,170.10L221.84,169.96L221.92,169.81L221.99,169.66L222.05,169.51L222.10,169.36L222.14,169.22L222.17,169.07L222.19,168.93L222.19,168.93L222.19,168.92L222.18,168.91L222.18,168.90L222.18,168.90L222.18,168.89L222.18,168.88L222.18,168.87L222.18,168.87L222.18,168.86L222.18,168.86L222.19,168.85L222.19,168.84L222.19,168.84L222.20,168.84L222.20,168.83L222.20,168.83L222.21,168.83L222.22,168.83L222.22,168.83L222.23,168.83L222.24,168.83L222.24,168.83L222.25,168.84L222.26,168.84L222.27,168.84L222.28,168.84L222.29,168.84L222.30,168.84L222.31,168.84L222.32,168.84L222.34,168.85zM222.10,167.21L222.10,167.21L222.11,167.21L222.12,167.21L222.13,167.22L222.14,167.22L222.16,167.23L222.17,167.24L222.19,167.25L222.20,167.26L222.22,167.27L222.24,167.28L222.25,167.29L222.27,167.31L222.29,167.32L222.31,167.34L222.32,167.36L222.32,167.25L222.44,167.25L222.44,167.25L222.44,167.26L222.44,167.27L222.44,167.28L222.44,167.29L222.44,167.30L222.44,167.31L222.44,167.32L222.44,167.33L222.44,167.35L222.44,167.36L222.43,167.38L222.43,167.39L222.43,167.41L222.43,167.43L222.43,167.45L222.43,168.06L222.43,168.06L222.43,168.10L222.43,168.14L222.43,168.18L222.42,168.22L222.42,168.25L222.41,168.29L222.40,168.32L222.39,168.34L222.38,168.37L222.37,168.39L222.35,168.42L222.33,168.44L222.31,168.45L222.29,168.47L222.27,168.49L222.27,168.49L222.26,168.49L222.25,168.50L222.24,168.50L222.24,168.50L222.23,168.51L222.22,168.51L222.20,168.51L222.19,168.52L222.18,168.52L222.17,168.52L222.16,168.52L222.14,168.52L222.13,168.52L222.11,168.53L222.10,168.53L222.10,168.53L222.06,168.52L222.02,168.52L221.99,168.52L221.96,168.51L221.93,168.50L221.91,168.49L221.88,168.47L221.86,168.46L221.85,168.44L221.83,168.42L221.82,168.40L221.81,168.37L221.81,168.34L221.80,168.32L221.80,168.28L221.91,168.28L221.91,168.28L221.91,168.30L221.91,168.31L221.92,168.33L221.93,168.34L221.93,168.35L221.95,168.36L221.96,168.37L221.97,168.38L221.99,168.39L222.01,168.39L222.03,168.40L222.05,168.40L222.07,168.40L222.10,168.40L222.12,168.40L222.12,168.40L222.15,168.40L222.17,168.40L222.20,168.39L222.22,168.39L222.24,168.38L222.25,168.36L222.27,168.35L222.28,168.33L222.30,168.32L222.31,168.30L222.32,168.27L222.32,168.25L222.33,168.23L222.33,168.20L222.34,168.18L222.34,168.06L222.34,168.06L222.33,168.07L222.31,168.09L222.30,168.10L222.29,168.11L222.28,168.12L222.26,168.13L222.25,168.14L222.23,168.15L222.22,168.16L222.20,168.16L222.18,168.17L222.16,168.17L222.15,168.17L222.13,168.18L222.11,168.18L222.11,168.18L222.07,168.17L222.03,168.17L221.99,168.16L221.96,168.14L221.93,168.12L221.90,168.10L221.88,168.07L221.86,168.04L221.84,168.01L221.82,167.97L221.81,167.93L221.79,167.88L221.79,167.83L221.78,167.78L221.77,167.72L221.77,167.72L221.78,167.66L221.78,167.61L221.79,167.55L221.80,167.51L221.81,167.46L221.83,167.42L221.85,167.39L221.87,167.35L221.90,167.33L221.93,167.30L221.96,167.28L221.99,167.26L222.03,167.25L222.07,167.24L222.11,167.24zM222.32,167.69L222.32,167.69L222.32,167.65L222.32,167.61L222.31,167.57L222.31,167.54L222.30,167.51L222.29,167.48L222.27,167.45L222.26,167.43L222.24,167.41L222.22,167.39L222.20,167.38L222.18,167.37L222.15,167.36L222.12,167.35L222.10,167.35L222.10,167.35L222.07,167.35L222.05,167.35L222.02,167.36L222.00,167.37L221.98,167.39L221.96,167.41L221.95,167.43L221.93,167.45L221.92,167.48L221.90,167.51L221.89,167.54L221.88,167.58L221.88,167.61L221.87,167.65L221.87,167.69L221.87,167.69L221.87,167.74L221.87,167.78L221.88,167.82L221.89,167.85L221.89,167.89L221.91,167.92L221.92,167.94L221.94,167.97L221.95,167.99L221.97,168.00L221.99,168.02L222.02,168.03L222.04,168.04L222.07,168.04L222.10,168.04L222.10,168.04L222.12,168.04L222.15,168.04L222.17,168.03L222.19,168.02L222.21,168.00L222.23,167.99L222.25,167.97L222.26,167.94L222.28,167.92L222.29,167.89L222.30,167.85L222.31,167.82L222.32,167.78L222.32,167.74L222.32,167.69zM222.36,170.25L222.38,170.25L222.38,170.25L222.42,170.28L222.46,170.30L222.49,170.32L222.52,170.33L222.55,170.35L222.57,170.37L222.59,170.39L222.61,170.40L222.62,170.42L222.63,170.43L222.63,170.45L222.64,170.46L222.63,170.47L222.63,170.49L222.62,170.50L222.62,170.50L222.61,170.51L222.60,170.54L222.59,170.59L222.58,170.65L222.57,170.72L222.57,170.81L222.56,170.91L222.56,171.02L222.56,171.15L222.56,171.29L222.57,171.44L222.58,171.61L222.58,171.79L222.59,171.99L222.61,172.20L222.61,172.29L222.61,172.29L222.61,172.34L222.61,172.39L222.61,172.44L222.60,172.48L222.60,172.53L222.60,172.56L222.60,172.60L222.60,172.63L222.59,172.66L222.59,172.69L222.58,172.71L222.57,172.74L222.56,172.76L222.55,172.77L222.54,172.79L222.54,172.79L222.53,172.79L222.51,172.80L222.50,172.80L222.48,172.79L222.47,172.79L222.45,172.78L222.44,172.77L222.42,172.75L222.40,172.73L222.39,172.71L222.37,172.68L222.35,172.65L222.33,172.62L222.32,172.59L222.30,172.55L222.30,172.55L222.30,172.54L222.30,172.53L222.30,172.53L222.30,172.52L222.30,172.51L222.30,172.49L222.30,172.48L222.30,172.47L222.30,172.45L222.30,172.43L222.30,172.41L222.30,172.39L222.31,172.37L222.31,172.35L222.31,172.32L222.31,172.32L222.32,172.25L222.33,172.19L222.33,172.12L222.34,172.06L222.35,172.00L222.35,171.94L222.36,171.87L222.36,171.82L222.36,171.76L222.37,171.70L222.37,171.64L222.37,171.59L222.37,171.53L222.37,171.48L222.36,171.42L222.36,171.42L222.36,171.32L222.36,171.22L222.36,171.13L222.36,171.04L222.35,170.96L222.35,170.88L222.34,170.81L222.33,170.74L222.32,170.68L222.31,170.63L222.30,170.57L222.29,170.53L222.28,170.48L222.27,170.45L222.26,170.42L222.26,170.42L222.25,170.41L222.24,170.39L222.24,170.39L222.23,170.38L222.23,170.37L222.23,170.36L222.22,170.35L222.22,170.34L222.22,170.33L222.22,170.33L222.22,170.32L222.22,170.31L222.22,170.31L222.22,170.30L222.22,170.29L222.22,170.29L222.22,170.29L222.22,170.29L222.22,170.28L222.23,170.28L222.23,170.28L222.24,170.27L222.25,170.27L222.26,170.27L222.27,170.27L222.28,170.27L222.29,170.27L222.31,170.28L222.32,170.28L222.34,170.28L222.35,170.28zM223.26,167.75L222.69,167.75L222.69,167.75L222.69,167.79L222.69,167.83L222.70,167.86L222.71,167.90L222.72,167.93L222.73,167.95L222.74,167.98L222.76,168.00L222.78,168.02L222.80,168.04L222.83,168.05L222.85,168.06L222.88,168.07L222.91,168.08L222.94,168.08L222.94,168.08L222.96,168.08L222.98,168.08L222.99,168.07L223.01,168.06L223.03,168.05L223.04,168.04L223.05,168.03L223.07,168.01L223.08,167.99L223.09,167.97L223.10,167.95L223.11,167.93L223.12,167.91L223.12,167.88L223.13,167.86L223.25,167.86L223.25,167.86L223.24,167.90L223.23,167.94L223.22,167.98L223.20,168.01L223.18,168.04L223.16,168.07L223.14,168.10L223.12,168.12L223.09,168.14L223.07,168.15L223.04,168.17L223.01,168.18L222.97,168.18L222.94,168.19L222.90,168.19L222.90,168.19L222.86,168.19L222.82,168.18L222.78,168.17L222.75,168.15L222.72,168.13L222.69,168.11L222.67,168.08L222.65,168.05L222.63,168.01L222.61,167.97L222.60,167.93L222.58,167.88L222.58,167.82L222.57,167.77L222.57,167.71L222.57,167.71L222.57,167.65L222.57,167.59L222.58,167.53L222.59,167.48L222.61,167.44L222.63,167.40L222.65,167.36L222.67,167.33L222.70,167.30L222.73,167.27L222.76,167.25L222.80,167.24L222.83,167.23L222.87,167.22L222.91,167.21L222.91,167.21L222.96,167.21L222.99,167.22L223.03,167.23L223.07,167.25L223.10,167.27L223.12,167.30L223.15,167.33L223.17,167.36L223.19,167.40L223.21,167.45L223.22,167.50L223.24,167.55L223.24,167.61L223.25,167.68L223.25,167.75zM222.93,167.35L222.93,167.35L222.90,167.35L222.88,167.35L222.85,167.36L222.83,167.37L222.81,167.38L222.79,167.39L222.77,167.41L222.76,167.43L222.74,167.45L222.73,167.47L222.72,167.50L222.71,167.53L222.70,167.56L222.69,167.59L222.69,167.63L223.16,167.63L223.16,167.63L223.15,167.59L223.15,167.56L223.15,167.53L223.14,167.50L223.13,167.47L223.12,167.45L223.10,167.43L223.09,167.41L223.07,167.39L223.05,167.38L223.03,167.37L223.01,167.36L222.98,167.35L222.96,167.35L222.93,167.35zM222.74,166.89L222.87,166.89L223.01,167.17L222.93,167.17L222.74,166.89z"/></g></g><g><g/><g><path style="stroke:#000000;stroke-width:0.125;stroke-opacity:0.25;fill:#ffffff" d="M15.00,7.00L125.97,7.00L125.97,22.80L15.00,22.80z"/><text xml:space="preserve" fill="#000000" stroke-width="0" x="16.98" y="17.86" font-size="9.10" opacity="1.00" font-family="Roboto" font-weight="bold">0359_ZyloDent air module</text></g></g><g><g/><g><path style="fill:#ffffff" d="M372.96,10.05L389.37,10.05L389.37,27.62L372.96,27.62z"/><path style="fill:#ffffff" d="M373.37,10.49L373.37,27.15L388.96,27.15L388.96,10.49z"/><path style="fill:#000000" d="M379.56,27.15L379.56,27.15L379.50,27.15L379.42,27.15L379.33,27.15L379.21,27.15L379.08,27.15L378.94,27.15L378.79,27.15L378.63,27.15L378.47,27.15L378.30,27.15L378.14,27.15L377.98,27.15L377.83,27.15L377.69,27.15L377.56,27.15L377.56,27.15L377.44,27.15L377.32,27.15L377.20,27.15L377.09,27.15L376.99,27.15L376.89,27.15L376.79,27.15L376.70,27.15L376.61,27.15L376.52,27.15L376.44,27.15L376.37,27.15L376.29,27.15L376.22,27.15L376.16,27.15L376.16,27.15L376.10,27.15L376.03,27.15L375.97,27.15L375.90,27.15L375.83,27.15L375.76,27.15L375.69,27.15L375.62,27.15L375.55,27.15L375.48,27.15L375.41,27.15L375.34,27.15L375.27,27.15L375.20,27.15L375.13,27.15L375.13,27.15L375.06,27.15L374.99,27.15L374.92,27.15L374.84,27.15L374.77,27.15L374.69,27.15L374.62,27.15L374.54,27.15L374.46,27.15L374.38,27.15L374.30,27.15L374.22,27.15L374.14,27.15L374.06,27.15L373.97,27.15L373.97,27.15L373.97,27.05L373.97,26.95L373.97,26.85L373.97,26.75L373.97,26.64L373.97,26.53L373.97,26.42L373.97,26.31L373.97,26.20L373.97,26.08L373.97,25.96L373.97,25.84L373.97,25.72L373.97,25.59L373.97,25.46L373.97,25.46L373.97,25.33L373.97,25.21L373.97,25.09L373.97,24.98L373.97,24.87L373.97,24.76L373.97,24.66L373.97,24.56L373.97,24.47L373.97,24.38L373.97,24.29L373.97,24.21L373.97,24.14L373.97,24.06L373.97,23.99L373.97,23.99L373.97,23.86L373.97,23.72L373.97,23.59L373.97,23.46L373.97,23.33L373.97,23.21L373.97,23.08L373.97,22.97L373.97,22.85L373.97,22.73L373.97,22.62L373.97,22.51L373.97,22.41L373.97,22.30L373.97,22.20L373.97,22.20L373.97,22.10L373.97,22.01L373.97,21.92L373.97,21.83L373.97,21.75L373.97,21.68L373.97,21.61L373.97,21.54L373.97,21.48L373.97,21.42L373.97,21.37L373.97,21.32L373.97,21.27L373.97,21.24L373.97,21.20L376.32,21.20L376.32,21.20L376.32,21.27L376.32,21.33L376.32,21.40L376.32,21.47L376.32,21.53L376.32,21.60L376.32,21.67L376.32,21.74L376.32,21.81L376.32,21.88L376.32,21.95L376.32,22.03L376.32,22.10L376.32,22.17L376.32,22.24L376.32,22.24L376.32,22.32L376.32,22.39L376.32,22.47L376.32,22.55L376.32,22.63L376.32,22.71L376.32,22.79L376.32,22.87L376.32,22.96L376.32,23.04L376.32,23.13L376.32,23.22L376.32,23.31L376.32,23.40L376.32,23.49L376.32,23.49L376.32,23.58L376.32,23.67L376.32,23.74L376.32,23.81L376.32,23.87L376.32,23.94L376.32,23.99L376.32,24.05L376.32,24.10L376.32,24.16L376.32,24.21L376.32,24.27L376.32,24.33L376.32,24.39L376.32,24.46L376.32,24.46L376.32,24.53L376.32,24.58L376.32,24.62L376.32,24.65L376.32,24.67L376.32,24.69L376.32,24.70L376.32,24.71L376.32,24.71L376.32,24.72L376.32,24.72L376.32,24.73L376.32,24.74L376.32,24.75L376.32,24.77L379.56,24.77L379.56,27.18z"/><path style="fill:#000000" d="M379.67,20.77L379.67,20.77L379.57,20.77L379.47,20.77L379.37,20.77L379.27,20.77L379.16,20.77L379.06,20.77L378.95,20.77L378.83,20.77L378.72,20.77L378.61,20.77L378.49,20.77L378.37,20.77L378.25,20.77L378.12,20.77L378.00,20.77L378.00,20.77L377.87,20.77L377.75,20.77L377.63,20.77L377.51,20.77L377.40,20.77L377.28,20.77L377.17,20.77L377.06,20.77L376.96,20.77L376.86,20.77L376.76,20.77L376.66,20.77L376.56,20.77L376.47,20.77L376.38,20.77L376.38,20.77L376.30,20.77L376.21,20.77L376.14,20.77L376.06,20.77L375.99,20.77L375.93,20.77L375.86,20.77L375.80,20.77L375.73,20.77L375.67,20.77L375.61,20.77L375.55,20.77L375.48,20.77L375.42,20.77L375.35,20.77L375.35,20.77L375.28,20.78L375.21,20.78L375.13,20.78L375.04,20.78L374.95,20.79L374.85,20.80L374.75,20.80L374.65,20.81L374.55,20.81L374.44,20.82L374.34,20.82L374.24,20.83L374.14,20.83L374.05,20.83L373.96,20.83L373.96,18.94L373.96,18.94L374.07,18.82L374.16,18.72L374.25,18.63L374.32,18.55L374.39,18.48L374.45,18.41L374.51,18.35L374.57,18.29L374.62,18.24L374.67,18.18L374.72,18.12L374.77,18.06L374.83,18.00L374.89,17.93L374.96,17.85L374.96,17.85L375.03,17.77L375.10,17.69L375.17,17.61L375.24,17.53L375.31,17.45L375.38,17.37L375.44,17.30L375.51,17.22L375.57,17.15L375.64,17.08L375.70,17.00L375.76,16.93L375.82,16.87L375.88,16.80L375.94,16.73L375.94,16.70L375.94,16.70L375.91,16.70L375.88,16.70L375.84,16.70L375.81,16.70L375.78,16.70L375.74,16.70L375.71,16.70L375.68,16.70L375.64,16.70L375.61,16.70L375.57,16.70L375.54,16.70L375.50,16.70L375.46,16.70L375.43,16.70L375.43,16.70L375.39,16.70L375.35,16.70L375.32,16.70L375.28,16.70L375.25,16.70L375.21,16.70L375.18,16.70L375.15,16.70L375.11,16.70L375.08,16.70L375.05,16.70L375.02,16.70L375.00,16.70L374.97,16.70L374.94,16.70L374.94,16.70L374.91,16.70L374.88,16.70L374.85,16.70L374.82,16.70L374.78,16.70L374.74,16.70L374.70,16.70L374.66,16.70L374.62,16.70L374.58,16.70L374.54,16.70L374.49,16.70L374.45,16.70L374.41,16.70L374.37,16.70L374.37,16.70L374.33,16.70L374.29,16.70L374.25,16.70L374.21,16.70L374.17,16.70L374.13,16.70L374.09,16.70L374.05,16.70L374.01,16.70L373.97,16.70L373.93,16.70L373.90,16.70L373.86,16.70L373.82,16.70L373.78,16.70L373.78,14.65L378.76,14.65L379.56,16.10L379.56,16.10L379.52,16.14L379.48,16.19L379.43,16.23L379.39,16.28L379.34,16.33L379.30,16.39L379.25,16.44L379.20,16.50L379.14,16.55L379.09,16.62L379.03,16.68L378.98,16.74L378.92,16.81L378.85,16.88L378.79,16.95L378.79,16.95L378.72,17.03L378.65,17.11L378.57,17.20L378.49,17.30L378.39,17.40L378.30,17.50L378.19,17.62L378.09,17.73L377.97,17.86L377.85,17.99L377.72,18.13L377.59,18.27L377.45,18.43L377.31,18.58L377.16,18.75L377.16,18.78L377.16,18.78L377.19,18.78L377.23,18.78L377.26,18.78L377.29,18.78L377.33,18.78L377.36,18.78L377.40,18.78L377.43,18.78L377.47,18.78L377.50,18.78L377.54,18.78L377.58,18.78L377.61,18.78L377.65,18.78L377.69,18.78L377.69,18.78L377.73,18.78L377.77,18.78L377.81,18.78L377.84,18.78L377.88,18.78L377.92,18.78L377.95,18.78L377.99,18.78L378.02,18.78L378.05,18.78L378.08,18.78L378.11,18.78L378.14,18.78L378.17,18.78L378.20,18.78L378.20,18.78L378.24,18.78L378.29,18.78L378.33,18.78L378.37,18.78L378.42,18.78L378.47,18.78L378.51,18.78L378.56,18.78L378.61,18.78L378.66,18.78L378.71,18.78L378.76,18.78L378.81,18.78L378.87,18.78L378.92,18.78L378.92,18.78L378.98,18.78L379.03,18.78L379.08,18.78L379.13,18.78L379.18,18.78L379.23,18.78L379.28,18.78L379.33,18.78L379.38,18.78L379.43,18.78L379.48,18.78L379.53,18.78L379.58,18.78L379.63,18.78L379.67,18.78L379.67,20.77z"/><path style="fill:#000000" d="M386.33,14.63L386.33,14.63L386.30,14.69L386.26,14.76L386.22,14.84L386.17,14.94L386.12,15.05L386.06,15.17L386.00,15.30L385.93,15.43L385.86,15.58L385.78,15.73L385.70,15.88L385.61,16.04L385.53,16.19L385.44,16.35L385.34,16.51L385.34,16.51L385.25,16.67L385.16,16.82L385.07,16.97L384.98,17.12L384.89,17.26L384.81,17.40L384.73,17.54L384.64,17.68L384.56,17.81L384.49,17.94L384.41,18.07L384.34,18.19L384.26,18.31L384.19,18.43L384.12,18.54L384.12,18.54L384.12,18.63L384.12,18.71L384.12,18.80L384.12,18.88L384.12,18.96L384.12,19.04L384.12,19.12L384.12,19.19L384.12,19.26L384.12,19.34L384.12,19.40L384.12,19.47L384.12,19.54L384.12,19.60L384.12,19.66L384.12,19.66L384.12,19.72L384.12,19.78L384.12,19.84L384.12,19.90L384.12,19.97L384.12,20.03L384.12,20.10L384.12,20.16L384.12,20.23L384.12,20.30L384.12,20.37L384.12,20.44L384.12,20.51L384.12,20.58L384.12,20.66L381.52,20.66L381.52,20.66L381.52,20.60L381.52,20.54L381.52,20.48L381.52,20.42L381.52,20.37L381.52,20.31L381.52,20.25L381.52,20.19L381.52,20.14L381.52,20.08L381.52,20.02L381.52,19.96L381.52,19.91L381.52,19.85L381.52,19.79L381.52,19.79L381.52,19.73L381.52,19.67L381.52,19.60L381.52,19.53L381.52,19.46L381.52,19.39L381.52,19.31L381.52,19.23L381.52,19.14L381.52,19.06L381.52,18.97L381.52,18.87L381.52,18.78L381.52,18.67L381.52,18.57L381.52,18.57L381.46,18.46L381.39,18.34L381.32,18.22L381.25,18.11L381.18,17.98L381.11,17.86L381.03,17.73L380.96,17.60L380.88,17.47L380.80,17.34L380.72,17.20L380.64,17.06L380.55,16.92L380.47,16.78L380.38,16.63L380.38,16.63L380.29,16.48L380.20,16.33L380.11,16.18L380.03,16.02L379.94,15.87L379.86,15.72L379.78,15.57L379.70,15.42L379.63,15.28L379.56,15.15L379.49,15.03L379.43,14.91L379.37,14.81L379.32,14.71L379.28,14.63L382.20,14.63L382.20,14.63L382.24,14.71L382.28,14.80L382.32,14.90L382.37,15.01L382.42,15.12L382.47,15.24L382.52,15.37L382.58,15.49L382.63,15.61L382.68,15.72L382.73,15.83L382.77,15.94L382.82,16.03L382.86,16.11L382.89,16.18L382.89,16.18L382.89,16.18L382.94,16.08L382.99,15.97L383.04,15.85L383.10,15.73L383.15,15.61L383.21,15.48L383.26,15.36L383.31,15.24L383.36,15.12L383.41,15.01L383.45,14.91L383.49,14.82L383.52,14.74L383.55,14.68L383.57,14.63L386.31,14.63z"/><path style="fill:#000000;fill-rule:evenodd" d="M385.77,24.05L385.77,24.05L385.77,24.14L385.77,24.23L385.76,24.32L385.75,24.41L385.75,24.50L385.74,24.58L385.72,24.67L385.71,24.75L385.69,24.84L385.67,24.92L385.65,25.00L385.63,25.08L385.61,25.16L385.58,25.24L385.55,25.31L385.55,25.31L385.52,25.39L385.49,25.47L385.45,25.55L385.42,25.62L385.38,25.70L385.34,25.77L385.29,25.84L385.25,25.91L385.20,25.98L385.15,26.05L385.10,26.12L385.04,26.18L384.98,26.25L384.92,26.31L384.86,26.37L384.86,26.37L384.81,26.42L384.76,26.47L384.71,26.52L384.65,26.56L384.60,26.60L384.54,26.64L384.49,26.68L384.43,26.72L384.37,26.76L384.31,26.79L384.25,26.82L384.18,26.85L384.12,26.88L384.05,26.91L383.98,26.93L383.98,26.93L383.91,26.96L383.84,26.98L383.77,27.00L383.70,27.02L383.63,27.04L383.56,27.06L383.49,27.07L383.41,27.08L383.34,27.09L383.26,27.10L383.19,27.11L383.11,27.12L383.03,27.12L382.95,27.12L382.88,27.12L382.88,27.12L382.80,27.12L382.72,27.12L382.64,27.12L382.57,27.11L382.49,27.10L382.42,27.09L382.35,27.08L382.27,27.07L382.20,27.06L382.13,27.04L382.06,27.02L381.99,27.00L381.92,26.98L381.86,26.96L381.79,26.93L381.79,26.93L381.72,26.91L381.66,26.88L381.59,26.85L381.53,26.82L381.46,26.79L381.40,26.76L381.34,26.72L381.28,26.68L381.22,26.64L381.17,26.60L381.11,26.56L381.05,26.52L381.00,26.47L380.95,26.42L380.89,26.37L380.89,26.37L380.83,26.31L380.78,26.25L380.72,26.19L380.67,26.13L380.62,26.06L380.57,25.99L380.52,25.92L380.48,25.85L380.43,25.78L380.39,25.71L380.35,25.64L380.31,25.56L380.28,25.49L380.25,25.41L380.22,25.33L380.22,25.33L380.19,25.25L380.16,25.17L380.13,25.09L380.11,25.01L380.08,24.92L380.06,24.84L380.05,24.75L380.03,24.67L380.02,24.58L380.01,24.49L380.00,24.40L379.99,24.31L379.99,24.22L379.98,24.13L379.98,24.04L379.98,24.04L379.98,23.94L379.99,23.85L379.99,23.76L380.00,23.68L380.01,23.59L380.02,23.50L380.03,23.42L380.04,23.34L380.06,23.26L380.07,23.18L380.09,23.10L380.11,23.03L380.14,22.95L380.16,22.88L380.19,22.80L380.19,22.80L380.21,22.73L380.24,22.66L380.28,22.59L380.31,22.51L380.34,22.44L380.38,22.38L380.42,22.31L380.46,22.24L380.50,22.17L380.55,22.11L380.60,22.04L380.65,21.98L380.70,21.91L380.75,21.85L380.80,21.79L380.80,21.79L380.85,21.73L380.91,21.68L380.96,21.63L381.02,21.58L381.07,21.53L381.13,21.49L381.19,21.45L381.25,21.40L381.31,21.37L381.37,21.33L381.44,21.29L381.50,21.26L381.57,21.23L381.63,21.20L381.70,21.17L381.70,21.17L381.77,21.14L381.84,21.12L381.91,21.09L381.98,21.07L382.05,21.05L382.13,21.04L382.20,21.02L382.28,21.01L382.36,21.00L382.44,20.99L382.52,20.98L382.60,20.97L382.68,20.97L382.76,20.97L382.85,20.97L382.85,20.97L382.93,20.97L383.01,20.97L383.09,20.97L383.17,20.98L383.25,20.99L383.32,20.99L383.40,21.01L383.47,21.02L383.54,21.03L383.61,21.05L383.68,21.07L383.75,21.09L383.82,21.11L383.89,21.13L383.96,21.16L383.96,21.16L384.03,21.18L384.10,21.21L384.16,21.24L384.23,21.28L384.29,21.31L384.35,21.35L384.42,21.38L384.48,21.42L384.54,21.46L384.60,21.51L384.65,21.55L384.71,21.60L384.77,21.65L384.82,21.70L384.87,21.76L384.87,21.76L384.93,21.82L384.99,21.88L385.04,21.94L385.09,22.01L385.14,22.07L385.19,22.14L385.24,22.21L385.28,22.27L385.32,22.35L385.36,22.42L385.40,22.49L385.43,22.56L385.46,22.64L385.49,22.71L385.52,22.79L385.52,22.79L385.55,22.86L385.57,22.94L385.60,23.02L385.62,23.10L385.64,23.18L385.66,23.27L385.67,23.35L385.69,23.43L385.70,23.52L385.71,23.60L385.71,23.69L385.72,23.77L385.72,23.86L385.73,23.95L385.73,24.04zM383.70,24.07L383.70,24.07L383.70,24.03L383.70,23.99L383.70,23.96L383.69,23.92L383.69,23.89L383.69,23.85L383.68,23.81L383.68,23.77L383.67,23.74L383.66,23.70L383.66,23.66L383.65,23.62L383.64,23.58L383.63,23.55L383.63,23.51L383.63,23.51L383.62,23.47L383.61,23.43L383.59,23.40L383.58,23.36L383.57,23.33L383.55,23.30L383.54,23.27L383.52,23.24L383.50,23.21L383.48,23.18L383.46,23.15L383.44,23.13L383.42,23.10L383.40,23.08L383.38,23.05L383.38,23.05L383.36,23.04L383.35,23.03L383.34,23.02L383.33,23.01L383.31,23.00L383.30,22.99L383.29,22.98L383.27,22.97L383.26,22.96L383.24,22.95L383.23,22.94L383.21,22.93L383.20,22.92L383.18,22.91L383.17,22.91L383.17,22.91L383.15,22.90L383.13,22.89L383.12,22.88L383.10,22.88L383.08,22.87L383.06,22.87L383.04,22.86L383.03,22.86L383.01,22.85L382.99,22.85L382.97,22.85L382.95,22.85L382.93,22.85L382.91,22.85L382.89,22.85L382.89,22.85L382.87,22.85L382.85,22.85L382.83,22.85L382.81,22.85L382.79,22.85L382.77,22.85L382.76,22.86L382.74,22.86L382.72,22.87L382.70,22.87L382.69,22.88L382.67,22.88L382.66,22.89L382.64,22.90L382.63,22.91L382.63,22.91L382.61,22.91L382.60,22.92L382.58,22.93L382.56,22.94L382.55,22.95L382.53,22.97L382.52,22.98L382.50,22.99L382.48,23.00L382.47,23.02L382.45,23.03L382.44,23.05L382.42,23.06L382.41,23.08L382.39,23.10L382.39,23.10L382.37,23.12L382.35,23.14L382.33,23.17L382.32,23.19L382.30,23.22L382.28,23.25L382.27,23.27L382.25,23.30L382.24,23.33L382.22,23.36L382.21,23.39L382.20,23.42L382.19,23.45L382.18,23.49L382.17,23.52L382.17,23.52L382.16,23.56L382.15,23.59L382.15,23.63L382.14,23.66L382.13,23.70L382.13,23.73L382.12,23.77L382.11,23.80L382.11,23.84L382.11,23.87L382.10,23.91L382.10,23.95L382.10,23.98L382.10,24.02L382.10,24.05L382.10,24.05L382.10,24.09L382.10,24.12L382.10,24.16L382.10,24.19L382.11,24.23L382.11,24.27L382.11,24.30L382.12,24.34L382.13,24.38L382.13,24.41L382.14,24.45L382.15,24.49L382.15,24.52L382.16,24.56L382.17,24.59L382.17,24.59L382.18,24.63L382.19,24.66L382.20,24.70L382.21,24.73L382.23,24.76L382.24,24.79L382.26,24.82L382.27,24.85L382.29,24.88L382.31,24.91L382.33,24.94L382.35,24.96L382.37,24.99L382.39,25.01L382.41,25.04L382.41,25.04L382.42,25.05L382.43,25.06L382.44,25.08L382.46,25.09L382.47,25.10L382.48,25.12L382.50,25.13L382.51,25.14L382.53,25.15L382.54,25.16L382.56,25.17L382.58,25.18L382.59,25.18L382.61,25.19L382.63,25.20L382.63,25.20L382.64,25.20L382.66,25.21L382.68,25.21L382.70,25.22L382.71,25.23L382.73,25.23L382.75,25.24L382.77,25.24L382.79,25.24L382.81,25.25L382.83,25.25L382.85,25.25L382.86,25.25L382.88,25.26L382.91,25.26L382.91,25.26L382.93,25.26L382.95,25.26L382.96,25.25L382.98,25.25L383.00,25.25L383.02,25.25L383.03,25.25L383.05,25.24L383.07,25.24L383.08,25.23L383.10,25.23L383.12,25.22L383.14,25.21L383.15,25.21L383.17,25.20L383.17,25.20L383.19,25.19L383.20,25.18L383.22,25.17L383.24,25.16L383.25,25.15L383.27,25.14L383.28,25.13L383.30,25.12L383.31,25.11L383.33,25.10L383.34,25.09L383.35,25.08L383.37,25.06L383.38,25.05L383.39,25.04L383.39,25.04L383.41,25.01L383.43,24.99L383.45,24.96L383.47,24.94L383.48,24.91L383.50,24.88L383.52,24.85L383.53,24.82L383.55,24.79L383.56,24.76L383.57,24.73L383.59,24.70L383.60,24.66L383.61,24.63L383.63,24.59L383.63,24.59L383.63,24.56L383.64,24.52L383.65,24.48L383.66,24.45L383.66,24.41L383.67,24.38L383.68,24.34L383.68,24.31L383.69,24.27L383.69,24.24L383.69,24.20L383.70,24.17L383.70,24.14L383.70,24.10L383.70,24.07z"/><path style="fill:#663aa0" d="M386.43,12.60L386.43,12.60L386.43,12.62L386.43,12.63L386.43,12.65L386.43,12.66L386.42,12.67L386.42,12.69L386.41,12.70L386.41,12.71L386.40,12.72L386.40,12.74L386.39,12.75L386.38,12.76L386.38,12.77L386.37,12.78L386.36,12.80L386.36,12.80L386.35,12.81L386.34,12.82L386.33,12.83L386.32,12.84L386.31,12.85L386.29,12.86L386.28,12.87L386.27,12.88L386.25,12.89L386.24,12.90L386.23,12.91L386.21,12.92L386.20,12.93L386.18,12.93L386.17,12.94L386.17,12.94L386.16,12.95L386.14,12.95L386.13,12.96L386.12,12.96L386.10,12.97L386.09,12.97L386.08,12.98L386.06,12.98L386.05,12.98L386.03,12.99L386.02,12.99L386.01,12.99L385.99,13.00L385.98,13.00L385.96,13.00L385.96,13.00L385.95,13.00L385.93,13.01L385.91,13.01L385.90,13.01L385.88,13.01L385.86,13.01L385.84,13.01L385.82,13.01L385.80,13.02L385.78,13.02L385.76,13.02L385.74,13.02L385.72,13.02L385.70,13.02L385.68,13.02L385.68,13.02L385.66,13.02L385.65,13.02L385.64,13.02L385.63,13.02L385.62,13.02L385.62,13.02L385.61,13.02L385.61,13.02L385.61,13.02L385.61,13.02L385.61,13.02L385.60,13.02L385.60,13.02L385.60,13.02L385.59,13.02L385.59,13.02L385.59,13.02L385.58,13.02L385.58,13.02L385.57,13.02L385.57,13.02L385.57,13.02L385.56,13.02L385.56,13.02L385.55,13.02L385.55,13.02L385.55,13.02L385.54,13.02L385.54,13.02L385.54,13.02L385.54,13.02L385.49,12.78L385.49,12.78L385.49,12.78L385.49,12.78L385.50,12.78L385.50,12.78L385.50,12.78L385.51,12.78L385.51,12.78L385.52,12.78L385.53,12.78L385.53,12.78L385.54,12.78L385.55,12.78L385.55,12.78L385.56,12.78L385.56,12.78L385.56,12.78L385.57,12.78L385.58,12.78L385.58,12.78L385.59,12.78L385.60,12.78L385.61,12.78L385.61,12.78L385.62,12.78L385.63,12.78L385.63,12.78L385.64,12.78L385.65,12.78L385.66,12.78L385.66,12.78L385.67,12.78L385.67,12.78L385.68,12.78L385.69,12.78L385.70,12.78L385.71,12.78L385.72,12.78L385.73,12.78L385.74,12.78L385.75,12.78L385.76,12.78L385.77,12.78L385.78,12.78L385.80,12.78L385.81,12.78L385.82,12.78L385.83,12.78L385.83,12.78L385.84,12.78L385.85,12.78L385.86,12.78L385.87,12.78L385.88,12.78L385.89,12.78L385.90,12.77L385.91,12.77L385.92,12.77L385.93,12.77L385.94,12.76L385.95,12.76L385.96,12.76L385.97,12.75L385.98,12.75L385.98,12.75L385.98,12.75L385.99,12.75L386.00,12.75L386.01,12.75L386.02,12.74L386.02,12.74L386.03,12.74L386.04,12.73L386.04,12.73L386.05,12.72L386.06,12.72L386.06,12.71L386.07,12.70L386.07,12.70L386.08,12.69L386.08,12.69L386.08,12.69L386.09,12.68L386.10,12.68L386.10,12.67L386.10,12.66L386.11,12.66L386.11,12.65L386.11,12.64L386.12,12.64L386.12,12.63L386.12,12.62L386.12,12.62L386.12,12.61L386.12,12.60L386.12,12.59L386.12,12.59L386.12,12.58L386.12,12.57L386.12,12.57L386.12,12.56L386.12,12.55L386.12,12.55L386.12,12.54L386.12,12.54L386.11,12.53L386.11,12.53L386.11,12.52L386.10,12.52L386.09,12.51L386.09,12.51L386.08,12.50L386.08,12.50L386.07,12.50L386.06,12.49L386.06,12.49L386.05,12.48L386.04,12.48L386.04,12.47L386.03,12.47L386.02,12.47L386.02,12.47L386.01,12.46L386.01,12.46L386.00,12.46L385.99,12.46L385.98,12.46L385.98,12.46L385.98,12.46L385.97,12.46L385.97,12.46L385.96,12.46L385.96,12.46L385.95,12.46L385.95,12.46L385.94,12.46L385.94,12.46L385.93,12.46L385.92,12.46L385.92,12.46L385.91,12.46L385.90,12.46L385.90,12.46L385.89,12.46L385.89,12.46L385.88,12.46L385.87,12.46L385.86,12.46L385.86,12.46L385.85,12.46L385.85,12.46L385.84,12.46L385.83,12.46L385.83,12.46L385.82,12.46L385.82,12.46L385.81,12.46L385.80,12.46L385.79,12.46L385.79,12.46L385.79,12.46L385.78,12.46L385.77,12.46L385.77,12.46L385.76,12.46L385.76,12.46L385.75,12.46L385.75,12.46L385.75,12.46L385.75,12.46L385.75,12.46L385.74,12.46L385.74,12.46L385.74,12.46L385.73,12.46L385.73,12.46L385.73,12.46L385.72,12.46L385.72,12.46L385.71,12.46L385.71,12.46L385.70,12.46L385.70,12.46L385.70,12.46L385.70,12.46L385.69,12.46L385.69,12.46L385.69,12.46L385.68,12.46L385.68,12.46L385.67,12.46L385.67,12.46L385.64,12.27L385.64,12.27L385.66,12.27L385.68,12.27L385.71,12.26L385.73,12.26L385.75,12.26L385.77,12.25L385.79,12.25L385.80,12.25L385.82,12.24L385.84,12.24L385.86,12.23L385.87,12.23L385.89,12.22L385.90,12.21L385.92,12.21L385.92,12.21L385.93,12.20L385.95,12.20L385.96,12.19L385.97,12.18L385.98,12.17L385.99,12.17L386.00,12.16L386.01,12.15L386.01,12.14L386.02,12.13L386.03,12.12L386.03,12.11L386.03,12.10L386.03,12.09L386.04,12.08L386.04,12.08L386.04,12.06L386.04,12.06L386.03,12.05L386.03,12.04L386.03,12.03L386.03,12.03L386.03,12.02L386.03,12.02L386.03,12.01L386.03,12.01L386.02,12.01L386.02,12.00L386.02,12.00L386.01,11.99L386.01,11.99L386.01,11.99L386.00,11.98L385.99,11.98L385.99,11.97L385.98,11.97L385.98,11.96L385.97,11.96L385.97,11.96L385.96,11.95L385.96,11.95L385.95,11.95L385.95,11.95L385.94,11.95L385.93,11.94L385.93,11.94L385.92,11.94L385.92,11.94L385.91,11.94L385.91,11.94L385.90,11.94L385.89,11.94L385.89,11.94L385.88,11.94L385.87,11.94L385.87,11.94L385.86,11.93L385.85,11.93L385.85,11.93L385.84,11.93L385.83,11.93L385.82,11.93L385.81,11.93L385.81,11.93L385.81,11.93L385.80,11.93L385.79,11.93L385.78,11.93L385.77,11.93L385.77,11.93L385.76,11.93L385.75,11.93L385.74,11.93L385.74,11.93L385.73,11.93L385.72,11.93L385.71,11.93L385.71,11.93L385.70,11.93L385.70,11.93L385.69,11.93L385.68,11.93L385.68,11.93L385.67,11.93L385.67,11.93L385.66,11.93L385.66,11.93L385.65,11.93L385.65,11.93L385.65,11.93L385.64,11.93L385.64,11.93L385.63,11.93L385.63,11.93L385.62,11.93L385.62,11.93L385.62,11.93L385.61,11.93L385.61,11.93L385.60,11.93L385.60,11.93L385.59,11.93L385.59,11.93L385.59,11.93L385.58,11.93L385.58,11.93L385.58,11.93L385.57,11.93L385.57,11.93L385.57,11.93L385.56,11.93L385.61,11.69L385.71,11.69L385.71,11.69L385.73,11.69L385.74,11.69L385.76,11.69L385.77,11.69L385.79,11.69L385.80,11.69L385.81,11.69L385.83,11.69L385.84,11.69L385.86,11.69L385.87,11.69L385.89,11.69L385.90,11.69L385.92,11.69L385.93,11.69L385.93,11.69L385.95,11.69L385.96,11.70L385.97,11.70L385.99,11.70L386.00,11.70L386.01,11.71L386.03,11.71L386.04,11.71L386.05,11.72L386.06,11.72L386.08,11.72L386.09,11.73L386.10,11.73L386.11,11.73L386.12,11.74L386.12,11.74L386.14,11.74L386.15,11.75L386.16,11.76L386.18,11.76L386.19,11.77L386.20,11.78L386.21,11.78L386.22,11.79L386.23,11.80L386.24,11.81L386.25,11.81L386.26,11.82L386.27,11.83L386.28,11.84L386.28,11.86L386.28,11.86L386.29,11.87L386.30,11.88L386.31,11.89L386.31,11.90L386.32,11.91L386.32,11.92L386.33,11.93L386.33,11.94L386.34,11.96L386.34,11.97L386.34,11.98L386.34,11.99L386.34,12.00L386.34,12.02L386.34,12.03L386.34,12.03L386.34,12.05L386.34,12.06L386.34,12.07L386.34,12.08L386.34,12.10L386.34,12.11L386.33,12.12L386.33,12.13L386.32,12.14L386.32,12.15L386.31,12.16L386.31,12.17L386.30,12.18L386.29,12.18L386.28,12.19L386.28,12.19L386.28,12.20L386.27,12.21L386.26,12.22L386.25,12.23L386.24,12.24L386.23,12.24L386.22,12.25L386.21,12.26L386.21,12.27L386.20,12.27L386.19,12.28L386.18,12.28L386.17,12.29L386.16,12.29L386.15,12.30L386.15,12.30L386.15,12.30L386.17,12.30L386.18,12.31L386.20,12.31L386.21,12.32L386.22,12.33L386.23,12.33L386.25,12.34L386.26,12.35L386.27,12.35L386.28,12.36L386.30,12.37L386.31,12.37L386.32,12.38L386.33,12.39L386.34,12.40L386.34,12.40L386.35,12.41L386.36,12.42L386.37,12.43L386.38,12.44L386.39,12.45L386.39,12.46L386.40,12.48L386.40,12.49L386.41,12.50L386.41,12.52L386.41,12.53L386.42,12.55L386.42,12.56L386.42,12.58L386.42,12.59z"/><path style="fill:#663aa0;fill-rule:evenodd" d="M387.77,12.37L387.77,12.37L387.77,12.39L387.77,12.42L387.77,12.44L387.76,12.46L387.76,12.48L387.75,12.50L387.75,12.52L387.74,12.55L387.74,12.57L387.73,12.59L387.72,12.60L387.71,12.62L387.70,12.64L387.69,12.66L387.68,12.68L387.68,12.68L387.67,12.70L387.66,12.71L387.64,12.73L387.63,12.75L387.62,12.76L387.60,12.78L387.59,12.79L387.57,12.81L387.56,12.82L387.54,12.84L387.53,12.85L387.51,12.86L387.49,12.87L387.48,12.89L387.46,12.90L387.46,12.90L387.45,12.91L387.43,12.92L387.41,12.93L387.40,12.93L387.38,12.94L387.36,12.95L387.34,12.96L387.32,12.96L387.31,12.97L387.29,12.98L387.27,12.98L387.25,12.99L387.23,12.99L387.21,13.00L387.20,13.00L387.20,13.00L387.18,13.01L387.15,13.01L387.13,13.02L387.11,13.02L387.09,13.03L387.07,13.03L387.04,13.03L387.02,13.04L386.99,13.04L386.97,13.04L386.95,13.04L386.92,13.04L386.90,13.04L386.87,13.05L386.84,13.05L386.84,13.05L386.82,13.05L386.80,13.05L386.78,13.05L386.76,13.05L386.75,13.05L386.73,13.05L386.72,13.05L386.71,13.05L386.70,13.05L386.69,13.05L386.68,13.05L386.67,13.05L386.66,13.05L386.65,13.05L386.64,13.05L386.64,13.05L386.62,13.05L386.61,13.05L386.60,13.05L386.58,13.05L386.57,13.05L386.56,13.05L386.55,13.05L386.55,13.05L386.54,13.05L386.53,13.05L386.52,13.05L386.52,13.05L386.51,13.05L386.51,13.05L386.51,13.05L386.51,13.05L386.51,13.04L386.51,13.04L386.51,13.04L386.51,13.03L386.51,13.02L386.51,13.01L386.51,13.00L386.51,12.98L386.51,12.97L386.51,12.95L386.51,12.93L386.51,12.90L386.51,12.88L386.51,12.85L386.51,12.83L386.51,12.83L386.51,12.80L386.51,12.77L386.51,12.74L386.51,12.71L386.51,12.68L386.51,12.65L386.51,12.62L386.51,12.59L386.51,12.56L386.51,12.53L386.51,12.49L386.51,12.46L386.51,12.42L386.51,12.39L386.51,12.36L386.51,12.36L386.51,12.32L386.51,12.29L386.51,12.27L386.51,12.25L386.51,12.23L386.51,12.21L386.51,12.20L386.51,12.18L386.51,12.17L386.51,12.15L386.51,12.14L386.51,12.13L386.51,12.11L386.51,12.10L386.51,12.08L386.51,12.08L386.51,12.06L386.51,12.03L386.51,12.01L386.51,11.99L386.51,11.96L386.51,11.94L386.51,11.91L386.51,11.89L386.51,11.86L386.51,11.84L386.51,11.81L386.51,11.78L386.51,11.75L386.51,11.72L386.51,11.69L386.51,11.69L386.51,11.69L386.51,11.69L386.51,11.69L386.52,11.69L386.52,11.69L386.53,11.69L386.54,11.69L386.55,11.69L386.56,11.69L386.57,11.69L386.58,11.69L386.60,11.69L386.61,11.69L386.62,11.69L386.64,11.69L386.64,11.69L386.65,11.69L386.67,11.69L386.68,11.69L386.69,11.69L386.71,11.69L386.72,11.69L386.73,11.69L386.74,11.69L386.75,11.69L386.76,11.69L386.77,11.69L386.78,11.69L386.79,11.69L386.79,11.69L386.80,11.69L386.80,11.69L386.83,11.69L386.86,11.69L386.89,11.69L386.91,11.69L386.94,11.70L386.97,11.70L386.99,11.70L387.02,11.70L387.04,11.70L387.07,11.71L387.09,11.71L387.12,11.72L387.14,11.72L387.16,11.73L387.18,11.74L387.18,11.74L387.20,11.75L387.22,11.75L387.24,11.76L387.26,11.77L387.28,11.78L387.30,11.78L387.32,11.79L387.34,11.79L387.36,11.80L387.38,11.81L387.40,11.82L387.42,11.83L387.44,11.83L387.46,11.84L387.48,11.86L387.48,11.86L387.50,11.87L387.51,11.88L387.53,11.89L387.55,11.91L387.57,11.92L387.58,11.93L387.60,11.95L387.61,11.96L387.63,11.98L387.64,11.99L387.65,12.01L387.67,12.02L387.68,12.04L387.69,12.06L387.70,12.08L387.70,12.08L387.70,12.09L387.71,12.11L387.72,12.13L387.73,12.15L387.73,12.17L387.74,12.19L387.75,12.21L387.75,12.23L387.76,12.25L387.76,12.27L387.76,12.29L387.77,12.32L387.77,12.34L387.77,12.36L387.77,12.38zM387.43,12.37L387.43,12.37L387.43,12.36L387.43,12.34L387.43,12.33L387.43,12.31L387.43,12.30L387.42,12.29L387.42,12.28L387.42,12.26L387.42,12.25L387.41,12.24L387.41,12.23L387.40,12.21L387.40,12.20L387.39,12.19L387.39,12.18L387.39,12.18L387.38,12.17L387.37,12.16L387.37,12.15L387.36,12.13L387.35,12.12L387.34,12.11L387.34,12.10L387.33,12.10L387.32,12.09L387.31,12.08L387.30,12.07L387.29,12.06L387.28,12.05L387.27,12.04L387.25,12.03L387.25,12.03L387.24,12.03L387.23,12.02L387.22,12.01L387.21,12.01L387.20,12.00L387.18,12.00L387.17,11.99L387.16,11.99L387.15,11.98L387.13,11.98L387.12,11.97L387.11,11.97L387.09,11.97L387.08,11.96L387.06,11.96L387.06,11.96L387.05,11.96L387.03,11.95L387.02,11.95L387.01,11.95L386.99,11.95L386.98,11.95L386.97,11.95L386.96,11.95L386.94,11.94L386.93,11.94L386.92,11.94L386.91,11.94L386.90,11.94L386.88,11.94L386.87,11.94L386.84,11.94L386.84,11.94L386.84,11.96L386.84,11.97L386.84,11.99L386.84,12.00L386.84,12.01L386.84,12.03L386.84,12.04L386.84,12.05L386.84,12.06L386.84,12.08L386.84,12.09L386.84,12.10L386.84,12.11L386.84,12.12L386.84,12.13L386.84,12.46L386.84,12.46L386.84,12.47L386.84,12.49L386.84,12.51L386.84,12.53L386.84,12.55L386.84,12.57L386.84,12.59L386.84,12.61L386.84,12.63L386.84,12.66L386.84,12.68L386.84,12.70L386.84,12.73L386.84,12.76L386.84,12.78L386.87,12.78L386.87,12.78L386.88,12.78L386.90,12.78L386.91,12.78L386.92,12.78L386.93,12.78L386.94,12.78L386.96,12.78L386.97,12.78L386.98,12.77L386.99,12.77L387.01,12.77L387.02,12.77L387.03,12.76L387.05,12.76L387.06,12.75L387.06,12.75L387.08,12.75L387.09,12.75L387.10,12.74L387.12,12.74L387.13,12.74L387.14,12.73L387.15,12.73L387.16,12.73L387.17,12.72L387.18,12.72L387.19,12.71L387.20,12.71L387.21,12.70L387.22,12.70L387.23,12.69L387.23,12.69L387.24,12.68L387.25,12.68L387.27,12.67L387.28,12.66L387.29,12.65L387.30,12.64L387.31,12.63L387.32,12.62L387.33,12.61L387.34,12.60L387.35,12.59L387.35,12.58L387.36,12.57L387.37,12.56L387.37,12.55L387.37,12.55L387.38,12.53L387.38,12.52L387.39,12.51L387.39,12.50L387.40,12.49L387.40,12.47L387.40,12.46L387.41,12.45L387.41,12.44L387.41,12.42L387.41,12.41L387.41,12.40L387.42,12.38L387.42,12.37L387.42,12.36z"/><path style="fill:#663aa0;fill-rule:evenodd" d="M387.80,14.27L385.46,14.27L385.46,14.27L385.38,14.26L385.31,14.25L385.23,14.23L385.17,14.20L385.10,14.17L385.04,14.13L384.98,14.08L384.93,14.03L384.88,13.97L384.84,13.91L384.81,13.84L384.78,13.77L384.76,13.70L384.75,13.62L384.74,13.55L384.74,11.21L384.74,11.21L384.75,11.13L384.76,11.05L384.78,10.98L384.81,10.91L384.84,10.85L384.88,10.78L384.93,10.73L384.98,10.67L385.04,10.63L385.10,10.59L385.17,10.55L385.23,10.53L385.31,10.51L385.38,10.49L385.46,10.49L387.80,10.49L387.80,10.49L387.88,10.49L387.95,10.51L388.03,10.53L388.10,10.55L388.16,10.59L388.22,10.63L388.28,10.67L388.33,10.73L388.38,10.78L388.42,10.85L388.45,10.91L388.48,10.98L388.50,11.05L388.51,11.13L388.52,11.21L388.52,13.55L388.52,13.55L388.51,13.62L388.50,13.70L388.48,13.77L388.45,13.84L388.42,13.91L388.38,13.97L388.33,14.03L388.28,14.08L388.22,14.13L388.16,14.17L388.10,14.20L388.03,14.23L387.95,14.25L387.88,14.26L387.80,14.27zM385.46,10.83L385.46,10.83L385.42,10.83L385.38,10.84L385.34,10.85L385.31,10.86L385.27,10.88L385.24,10.90L385.21,10.93L385.18,10.96L385.16,10.99L385.13,11.02L385.11,11.05L385.10,11.09L385.09,11.13L385.08,11.17L385.08,11.21L385.08,13.55L385.08,13.55L385.08,13.59L385.09,13.63L385.10,13.66L385.11,13.70L385.13,13.74L385.16,13.77L385.18,13.80L385.21,13.83L385.24,13.85L385.27,13.87L385.31,13.89L385.34,13.91L385.38,13.92L385.42,13.93L385.46,13.93L387.80,13.93L387.80,13.93L387.84,13.93L387.88,13.92L387.92,13.91L387.95,13.89L387.99,13.87L388.02,13.85L388.05,13.83L388.08,13.80L388.11,13.77L388.13,13.74L388.15,13.70L388.16,13.66L388.17,13.63L388.18,13.59L388.18,13.55L388.18,11.21L388.18,11.21L388.18,11.17L388.17,11.13L388.16,11.09L388.15,11.05L388.13,11.02L388.11,10.99L388.08,10.96L388.05,10.93L388.02,10.90L387.99,10.88L387.95,10.86L387.92,10.85L387.88,10.84L387.84,10.83L387.80,10.83L385.46,10.83z"/></g></g><g/><g id="paperID" visibility="hidden" opacity="0.00" transform="scale(0.000100)"><path style="stroke:#000000;stroke-width:0.500;fill:#e6e6e6;fill-rule:evenodd" d="M-2000.00,-2000.00L2398.00,-2000.00L2398.00,2188.00L-2000.00,2188.00zM0.00,0.00L398.00,0.00L398.00,188.00L0.00,188.00z"/><path style="fill:#000000;fill-opacity:0.118" d="M3.00,188.00L398.00,188.00L398.00,3.00L401.00,3.00L401.00,191.00L3.00,191.00z"/></g><g><g><path style="stroke:#000000;stroke-width:0.353;fill:#f0f0ff" d="M12.11,66.18L186.38,66.18L186.38,75.35L12.11,75.35z"/><text xml:space="preserve" fill="#000000" stroke-width="0" x="15.64" y="73.23" font-size="6.59" opacity="1.00" font-family="MS Shell Dlg" font-weight="bold">Description</text><text xml:space="preserve" fill="#000000" stroke-width="0" x="172.39" y="73.23" font-size="6.54" opacity="1.00" font-family="MS Shell Dlg" font-weight="bold">Qty</text><path style="stroke:#000000;stroke-width:0.353" d="M168.86,66.18L168.86,75.35"/></g><g id="Line0"><path style="stroke:#000000;stroke-width:0.353;fill:#ffffff" d="M12.11,75.35L186.38,75.35L186.38,84.52L12.11,84.52z"/><text xml:space="preserve" fill="#000000" stroke-width="0" x="15.64" y="82.40" font-size="6.90" opacity="1.00" font-family="MS Shell Dlg">0167_diaphragm pump holder</text><text xml:space="preserve" fill="#000000" stroke-width="0" x="172.39" y="82.40" font-size="5.55" opacity="1.00" font-family="MS Shell Dlg">1</text><path style="stroke:#000000;stroke-width:0.353" d="M168.86,75.35L168.86,84.52"/></g><g id="Line2"><path style="stroke:#000000;stroke-width:0.353;fill:#f0f0ff" d="M12.11,84.52L186.38,84.52L186.38,93.69L12.11,93.69z"/><text xml:space="preserve" fill="#000000" stroke-width="0" x="15.64" y="91.57" font-size="6.91" opacity="1.00" font-family="MS Shell Dlg">0234_M3X5 socket Button head cap screw Black</text><text xml:space="preserve" fill="#000000" stroke-width="0" x="172.39" y="91.57" font-size="6.41" opacity="1.00" font-family="MS Shell Dlg">8</text><path style="stroke:#000000;stroke-width:0.353" d="M168.86,84.52L168.86,93.69"/></g><g id="Line3"><path style="stroke:#000000;stroke-width:0.353;fill:#ffffff" d="M12.11,93.69L186.38,93.69L186.38,102.86L12.11,102.86z"/><text xml:space="preserve" fill="#000000" stroke-width="0" x="15.64" y="100.74" font-size="6.89" opacity="1.00" font-family="MS Shell Dlg">0363_Air module Assembly Kit</text><text xml:space="preserve" fill="#000000" stroke-width="0" x="172.39" y="100.74" font-size="5.55" opacity="1.00" font-family="MS Shell Dlg">1</text><path style="stroke:#000000;stroke-width:0.353" d="M168.86,93.69L168.86,102.86"/></g></g><g id="hotspot.0" ident="" onmouseover="ShowHotSpot(evt,&apos;0&apos;)" onmouseout="HideHotSpot(evt,&apos;0&apos;)" onmousemove="ShowToolTip(evt,&apos;0&apos;,&quot;Next Buttons&quot;)" opacity="0"><a xlink:href="0359_1.svg"><path style="fill:#00ff00;fill-rule:evenodd" d="M208.20,163.95L210.29,166.06L211.33,168.86L211.33,170.73L210.53,173.07L208.58,175.32L205.99,176.59L203.28,176.58L201.18,175.87L198.76,173.74L198.02,172.38L197.56,169.22L198.76,165.85L201.17,163.71L203.88,162.90L205.03,162.90zM208.54,169.23L208.54,170.36L203.17,173.45L202.24,173.45L202.24,166.14L202.93,166.02zM217.92,167.42L218.32,167.48L218.39,167.89L217.99,167.82zM206.50,169.55L206.50,170.04L203.64,171.81L203.64,167.78zM222.55,169.58L222.11,169.68L222.17,168.86z"/></a></g><g id="hotspot.1" ident="" onmouseover="ShowHotSpot(evt,&apos;1&apos;)" onmouseout="HideHotSpot(evt,&apos;1&apos;)" onmousemove="ShowToolTip(evt,&apos;1&apos;,&quot;0167_diaphragm pump holder&quot;)" opacity="0"><path style="fill:#00ff00;fill-rule:evenodd" d="M12.11,75.35L12.11,84.52L186.38,84.52L186.38,75.35zM279.98,47.35L280.68,48.22L288.22,41.40L292.21,41.43L303.77,44.22L305.19,45.26L305.19,46.46L296.97,54.38L298.03,54.38L299.88,52.72L301.66,52.63L333.16,60.35L339.47,62.09L339.71,66.75L340.13,67.03L349.98,69.44L350.71,70.12L350.70,71.31L350.34,72.02L344.24,77.47L342.88,78.21L340.17,78.19L338.05,77.86L334.57,76.79L328.62,75.39L324.74,75.48L321.64,78.32L320.90,79.68L320.48,110.42L319.43,111.47L316.70,111.46L224.97,89.07L223.25,87.63L222.88,86.25L222.88,56.24L223.48,54.39L226.73,50.88L225.35,50.17L212.72,47.05L212.04,46.68L212.04,44.34L214.69,42.10L217.29,39.79L219.26,38.26L222.54,38.28L234.08,41.09L237.15,41.10L239.03,39.82L241.09,38.00zM339.48,84.14L339.49,93.03L337.99,94.32L336.53,94.41L336.65,93.74L337.40,93.03L337.61,83.76zM222.18,43.19L221.91,43.65L219.75,43.92L218.65,43.50L218.58,43.18L219.24,42.81L221.15,42.83zM296.80,45.58L296.36,46.01L293.55,46.01L293.11,45.58L293.42,45.26L296.48,45.26zM265.27,62.21L262.10,65.38L262.07,64.28L262.68,63.48L264.97,61.72zM269.14,70.52L269.15,70.90L268.69,71.23L266.25,71.23L265.79,70.90L265.80,70.52L267.68,70.12zM344.02,72.94L343.97,73.26L340.48,73.28L340.48,72.71L342.98,72.58zM270.49,75.05L273.92,75.05L274.74,74.69L274.73,77.63L273.50,78.88L281.71,80.99L281.73,83.93L280.93,84.88L278.19,84.85L264.19,81.36L262.48,79.91L261.74,77.85L261.64,72.91zM231.31,84.13L231.32,86.38L230.13,87.34L229.19,87.33L227.11,86.22L226.72,85.57L226.75,83.21L227.65,82.37L229.56,82.38zM252.62,88.37L253.73,90.08L253.61,91.52L252.56,92.57L250.52,92.57L249.52,91.82L248.77,90.45L248.76,89.14L249.72,87.99L250.44,87.60L251.25,87.60zM293.31,98.44L294.29,100.74L293.50,102.35L290.82,102.34L289.39,100.62L289.42,98.62L290.32,97.77L292.23,97.78zM314.97,103.39L316.39,105.13L316.28,106.93L315.23,107.97L313.54,107.97L311.83,106.53L311.32,104.79L312.48,103.12L314.28,103.03z"/></g><g id="hotspot.2" ident="" onmouseover="ShowHotSpot(evt,&apos;2&apos;)" onmouseout="HideHotSpot(evt,&apos;2&apos;)" onmousemove="ShowToolTip(evt,&apos;2&apos;,&quot;0234_M3X5 socket Button head cap screw Black&quot;)" opacity="0"><path style="fill:#00ff00;fill-rule:evenodd" d="M12.11,84.52L12.11,93.69L186.38,93.69L186.38,84.52zM231.31,84.13L231.32,86.38L230.13,87.34L229.19,87.33L227.11,86.22L226.72,85.57L226.75,83.21L227.65,82.37L229.56,82.38zM252.62,88.37L253.73,90.08L253.61,91.52L252.56,92.57L250.52,92.57L249.52,91.82L248.77,90.45L248.76,89.14L249.72,87.99L250.44,87.60L251.25,87.60zM293.31,98.44L294.29,100.74L293.50,102.35L290.82,102.34L289.39,100.62L289.42,98.62L290.32,97.77L292.23,97.78zM314.97,103.39L316.39,105.13L316.28,106.93L315.23,107.97L313.54,107.97L311.83,106.53L311.32,104.79L312.48,103.12L314.28,103.03z"/></g><g id="hotspot.3" ident="" onmouseover="ShowHotSpot(evt,&apos;3&apos;)" onmouseout="HideHotSpot(evt,&apos;3&apos;)" onmousemove="ShowToolTip(evt,&apos;3&apos;,&quot;0363_Air module Assembly Kit&quot;)" opacity="0"><path style="fill:#00ff00;fill-rule:evenodd" d="M12.11,93.69L12.11,102.86L186.38,102.86L186.38,93.69z"/></g><g id="ToolTip" visibility="hidden" opacity="0" transform="translate(0,0)"><rect id="ToolTipShadow" opacity="0.20" fill="black" stroke="none" x="0" y="0" width="30" height="8"/><rect id="ToolTipBG" fill="#ffffe1" stroke="black" x="0" y="0" width="30" height="8"/><text xml:space="preserve" id="ToolTipText" fill="black" x="0" y="0" width="30" height="8">tooltip</text></g></g></svg>