<?xml version="1.0" encoding="UTF-8" standalone="yes"?><svg xmlns="http://www.w3.org/2000/svg" xmlns:xlink="http://www.w3.org/1999/xlink" width="398.000mm" height="188.000mm" viewBox="0.000000 0.000000 398.000000 188.000000" stroke-linejoin="round" stroke-linecap="round" fill="none" fill-rule="evenodd"><desc>Composer Export</desc><script type="text/ecmascript"><![CDATA[
if(typeof(top) != "undefined")
{
	top.ShowPaper = ShowPaper;
}
function ShowHotSpot(evt,hotspotid)
{
	var svgDocument = evt.target.ownerDocument;
	var strId = "hotspot."+hotspotid;
	var hotspot = svgDocument.getElementById(strId);
	if(hotspot)
		hotspot.setAttribute("opacity",".5");
}
function HideHotSpot(evt,hotspotid)
{
	var svgDocument = evt.target.ownerDocument;
	var strId = "hotspot."+hotspotid;
	var hotspot = svgDocument.getElementById(strId);
	if(hotspot)
		hotspot.setAttribute("opacity","0");

	var toolTip = svgDocument.getElementById('ToolTip');
	if(toolTip)
		toolTip.setAttribute("visibility","hidden");
}
function ShowToolTip(evt,hotspotid,strTooltip)
{
	if(strTooltip=="")
	return;

	// change text
	var svgDocument = evt.target.ownerDocument;
	var tiptext = svgDocument.getElementById('ToolTipText');
	if( !tiptext )
	return;
	tiptext.firstChild.nodeValue = " " + strTooltip + "  " ;

	// show tooltip before, else some refresh issue

	var toolTip = svgDocument.getElementById('ToolTip');
	if(!toolTip)
	return;

	toolTip.setAttribute("visibility","visible");
	toolTip.setAttribute("opacity",".95");

	// move tooltip
	// get viewbox

	var root = svgDocument.documentElement;
	var vbox = (root.getAttribute("viewBox")).split(' ');
	var x0 = parseFloat(vbox[0]);
	var y0 = parseFloat(vbox[1]);
	var vboxW = parseFloat(vbox[2]);
	var vboxH = parseFloat(vbox[3]);

	// get default width of svg

	var strW = root.getAttribute("width");
	var svgW = parseFloat(strW);
	if(strW.indexOf('mm') != -1)
	svgW *= 3.779;

	var strH = root.getAttribute("height");
	var svgH = parseFloat(strH);
	if(strH.indexOf('mm') != -1)
	svgH *= 3.779;  	// 96 dpi  -> 96/25.4 = 3.779

	// update the viewbox / width / height if svg is embedded in html with zoom fit all
	var realx0 = x0;
	var realy0 = y0;
	var realvboxW = vboxW;
	var realvboxH = vboxH;
	var realsvgW = svgW;
	var realsvgH = svgH;

	if ((typeof(top) == "undefined") || (typeof(top.svgctl1) != "undefined")) // embedded in html
	{
		// get window size in pxl

		svgW = window.innerWidth;
		svgH = window.innerHeight;

		// calculate real viewbox

		realsvgW = svgW;
		realsvgH = svgH;
		if((svgW / svgH) > (vboxW / vboxH))
		{
			realvboxW = (vboxH * svgW) / svgH;
			realvboxH = vboxH;
			realx0 = x0 - (realvboxW - vboxW)/2 ;
		}
		else
		{
			realvboxH = (vboxW * svgH) / svgW;
			realvboxW = vboxW;
			realy0 = y0 - (realvboxH - vboxH)/2 ;
		}
	}

	// get user zoom/pan

	var newScale = root.currentScale;
	var translation = root.currentTranslate;

	// transform pxl to user unit

	var xPos = (((evt.clientX+10- translation.x)/newScale) * realvboxW)/realsvgW  + realx0 ;
	var yPos = (((evt.clientY+5- translation.y)/newScale) * realvboxH)/ realsvgH  + realy0 ;
	var scaleForWidth = ( (1 / newScale) * realvboxH) / realsvgH;

	// move tooltip

	toolTip.setAttribute("transform", "translate(" + xPos + "," + yPos + ")" );

	// resize tooltip

	var fontsize = 12;
	tiptext.setAttribute("font-size",fontsize*scaleForWidth);
	tiptext.setAttribute("y", fontsize*scaleForWidth);
	var tipBG = svgDocument.getElementById('ToolTipBG');
	var outline = tiptext.getBBox();
	if(tipBG)
	{
		tipBG.setAttribute("stroke-width", 1*scaleForWidth);
		tipBG.setAttribute("width", Number(outline.width) );
		tipBG.setAttribute("height", Number(outline.height) + fontsize*.5*scaleForWidth );
	}
	var ToolTipShadow = svgDocument.getElementById('ToolTipShadow');
	if(ToolTipShadow)
	{
		ToolTipShadow.setAttribute("width", Number(outline.width) );
		ToolTipShadow.setAttribute("height", Number(outline.height) + fontsize*.5*scaleForWidth );
		ToolTipShadow.setAttribute("x", 3*scaleForWidth);
		ToolTipShadow.setAttribute("y", 3*scaleForWidth);
	}
}
function ShowPaper()
{
  var svgDocument = getDocument();
  var paper = svgDocument.getElementById("paperID");
  if(paper)
  {
    paper.setAttribute("transform","scale(1)");
    paper.setAttribute("opacity","1");
    paper.setAttribute("visibility","visible");
  }
  var svg = svgDocument.getRootElement();
  if(svg)
  {
    svg.setAttribute("width","408.000mm");
    svg.setAttribute("height","198.000mm");
    svg.setAttribute("viewBox","-5.000000 -5.000000 408.000000 198.000000");
  }
}
]]></script><defs/><g><path style="fill:#ffffff" d="M398.10,187.96L0.08,187.96L0.08,0.08L398.10,0.08z"/><path style="fill:#e2e9ed" d="M302.84,54.47L305.62,56.67L346.17,77.69L348.15,78.98L347.77,79.04L257.99,132.62L257.55,133.38L243.49,126.26L215.01,111.38L212.55,109.42L210.32,106.68L208.10,102.27L207.55,100.06L206.34,87.05L296.39,33.19L297.04,33.21L297.18,33.39L296.29,34.16L295.66,34.50L295.26,34.59L294.91,35.01L294.28,35.33L293.88,35.41L293.53,35.85L293.27,35.96L212.17,84.32L211.18,85.03L210.62,85.30L210.22,85.40L209.86,85.82L209.23,86.14L208.84,86.21L208.47,86.69L207.85,86.95L207.27,87.15L207.28,90.67L207.83,96.74L208.37,101.18L208.93,102.82L209.51,104.02L210.42,103.51L213.10,107.49L215.59,109.70L254.78,130.15L255.98,130.58L256.63,130.42L256.80,130.12L257.43,129.80L258.12,129.44L258.20,129.29L258.68,129.11L258.71,128.78L254.23,126.28L218.63,107.75L216.69,106.10L214.73,103.65L213.68,101.63L295.80,52.46L296.01,52.52L296.18,53.11L297.57,55.33L299.81,57.78L301.71,59.19L341.28,79.71L342.20,79.32L342.40,78.97L343.73,78.35L343.80,78.18L344.00,77.71L303.67,56.68L302.01,55.30L299.78,52.29L299.00,50.79L299.42,50.33L299.87,50.18z"/><path style="fill:#cdd1d5" d="M208.22,87.25L208.32,90.18L208.48,90.30L208.60,93.22L208.76,93.33L208.87,96.25L209.03,96.37L209.15,99.01L209.31,99.13L209.58,100.52L209.80,101.35L210.12,102.24L210.41,103.00L210.42,103.51L209.51,104.02L208.93,102.82L208.37,101.18L207.83,96.74L207.28,90.67L207.27,87.15L207.85,86.95z"/><path style="fill:#404040" d="M208.22,87.25L207.85,86.95L208.47,86.69z"/><path style="fill:#393939" d="M208.22,87.25L208.47,86.69L209.14,86.51L209.23,86.14L209.86,85.82L210.52,85.70L210.62,85.30L211.18,85.03L212.25,96.74L212.52,98.41L213.50,101.60L211.30,103.09L210.59,103.13L210.41,103.00L210.29,102.28L210.12,102.24L209.80,101.35L209.75,100.63L209.58,100.52L209.47,99.25L209.31,99.13L209.19,96.49L209.03,96.37L208.91,93.45L208.76,93.33L208.64,90.41L208.48,90.30L208.36,87.37z"/><path style="fill:#cdd1d5" d="M293.57,36.44L293.64,39.37L293.80,39.49L293.92,42.41L294.08,42.52L294.20,45.44L294.36,45.56L294.58,48.03L294.68,48.34L294.85,49.42L294.95,49.73L295.19,50.53L295.40,51.36L295.80,52.46L213.68,101.63L213.50,101.60L212.52,98.41L212.25,96.74L211.18,85.03L212.17,84.32L293.27,35.96z"/><path style="fill:#ffffff" d="M281.91,48.58L281.11,49.68L280.91,49.61L281.01,48.50L281.49,48.09L281.84,48.10z"/><path style="fill:#ffffff" d="M224.45,82.85L223.91,83.91L223.47,83.88L223.58,82.74L224.18,82.35z"/><path style="fill:#ffffff" d="M321.60,83.76L322.51,84.56L322.69,85.43L323.35,85.59L323.37,86.73L322.06,87.07L320.15,88.20L318.47,88.44L318.30,89.20L316.33,88.75L314.98,87.62L314.98,85.51L316.63,84.12L318.19,83.48L320.78,83.48z"/><path style="fill:#ffffff" d="M275.57,112.73L275.76,113.58L276.36,114.01L276.37,114.35L276.28,114.46L275.40,114.97L273.46,116.34L271.52,116.62L271.41,117.30L269.40,116.91L268.03,116.07L267.63,114.14L268.88,112.59L270.97,111.64L273.84,111.64z"/><path style="fill:#ff0000" d="M319.67,84.58L319.75,85.05L319.39,85.20L318.92,85.82L318.57,85.71L318.19,84.82L319.15,84.31z"/><path style="fill:#ff0000" d="M272.57,112.70L272.48,113.12L271.64,113.81L271.23,113.68L271.25,112.76L272.18,112.43z"/><path style="fill:#e50000" d="M319.60,85.72L318.92,85.82L319.39,85.20L319.75,85.05z"/><path style="fill:#e50000" d="M272.73,113.66L272.38,113.92L271.64,113.81L272.48,113.12L272.57,112.70L272.73,112.77z"/><path style="fill:#e2e9ed" d="M281.76,49.55L281.11,49.68L281.91,48.58z"/><path style="fill:#e2e9ed" d="M224.45,83.61L223.91,83.91L224.45,82.85z"/><path style="fill:#404040" d="M295.56,34.89L294.91,35.01L295.26,34.59L295.66,34.50z"/><path style="fill:#404040" d="M294.18,35.71L293.53,35.85L293.88,35.41L294.28,35.33z"/><path style="fill:#404040" d="M293.80,39.49L293.64,39.37L293.57,36.44L293.71,36.53z"/><path style="fill:#404040" d="M294.08,42.52L293.92,42.41L293.80,39.49L293.96,39.60z"/><path style="fill:#404040" d="M294.36,45.56L294.20,45.44L294.08,42.52L294.24,42.64z"/><path style="fill:#404040" d="M294.58,48.03L294.36,45.56L294.52,45.68z"/><path style="fill:#404040" d="M294.85,49.42L294.68,48.34L294.82,48.43z"/><path style="fill:#404040" d="M295.19,50.53L294.95,49.73L295.09,49.81z"/><path style="fill:#404040" d="M299.78,52.29L302.01,55.30L303.67,56.68L344.00,77.71L343.80,78.18L343.12,78.30L342.40,78.97L341.72,79.12L341.28,79.71L301.71,59.19L299.81,57.78L297.57,55.33L296.18,53.11L296.01,52.52L298.78,50.74L299.00,50.79z"/><path style="fill:#404040" d="M295.40,51.36L295.19,50.53L295.36,50.65z"/><path style="fill:#404040" d="M210.52,85.70L209.86,85.82L210.22,85.40L210.62,85.30z"/><path style="fill:#404040" d="M209.14,86.51L208.47,86.69L208.84,86.21L209.23,86.14z"/><path style="fill:#404040" d="M208.48,90.30L208.32,90.18L208.22,87.25L208.36,87.37z"/><path style="fill:#404040" d="M208.76,93.33L208.60,93.22L208.48,90.30L208.64,90.41z"/><path style="fill:#404040" d="M209.03,96.37L208.87,96.25L208.76,93.33L208.91,93.45z"/><path style="fill:#404040" d="M209.31,99.13L209.15,99.01L209.03,96.37L209.19,96.49z"/><path style="fill:#404040" d="M209.58,100.52L209.31,99.13L209.47,99.25z"/><path style="fill:#404040" d="M209.80,101.35L209.58,100.52L209.75,100.63z"/><path style="fill:#404040" d="M214.73,103.65L216.69,106.10L218.63,107.75L254.23,126.28L258.71,128.78L258.68,129.11L258.20,129.29L257.69,129.29L257.43,129.80L256.80,130.12L256.33,130.12L255.98,130.58L254.78,130.15L215.59,109.70L213.10,107.49L210.42,103.51L210.41,103.00L210.59,103.13L211.30,103.09L213.50,101.60L213.68,101.63z"/><path style="fill:#404040" d="M210.41,103.00L210.12,102.24L210.29,102.28z"/><path style="fill:#393939" d="M293.27,35.96L293.53,35.85L294.18,35.71L294.28,35.33L294.91,35.01L295.56,34.89L295.66,34.50L296.29,34.16L296.45,34.31L297.58,45.93L297.84,47.60L298.78,50.74L296.01,52.52L295.80,52.46L295.40,51.36L295.36,50.65L295.19,50.53L295.09,49.81L294.95,49.73L294.85,49.42L294.82,48.43L294.68,48.34L294.58,48.03L294.52,45.68L294.36,45.56L294.24,42.64L294.08,42.52L293.96,39.60L293.80,39.49L293.71,36.53L293.57,36.44z"/><path style="fill:#393939" d="M343.73,78.35L342.40,78.97L343.12,78.30L343.80,78.18z"/><path style="fill:#393939" d="M342.20,79.32L341.28,79.71L341.72,79.12L342.40,78.97z"/><path style="fill:#393939" d="M258.12,129.44L257.43,129.80L257.69,129.29L258.20,129.29z"/><path style="fill:#393939" d="M256.63,130.42L255.98,130.58L256.33,130.12L256.80,130.12z"/><path style="fill:#e5e5e5" d="M323.03,84.80L323.35,85.59L322.69,85.43L322.51,84.56z"/><path style="fill:#e5e5e5" d="M323.65,85.90L323.37,86.73L323.35,85.59z"/><path style="fill:#e5e5e5" d="M323.00,87.73L320.97,89.02L318.49,89.39L318.30,89.20L318.47,88.44L320.15,88.20L322.06,87.07L323.37,86.73z"/><path style="fill:#e5e5e5" d="M276.35,113.29L276.36,114.01L275.76,113.58L275.57,112.73z"/><path style="fill:#e5e5e5" d="M276.41,114.59L275.80,115.92L273.75,117.19L271.41,117.30L271.52,116.62L273.46,116.34L275.40,114.97L276.28,114.46L276.37,114.35z"/><path style="fill:#cdd1d5" d="M296.29,34.16L297.18,33.39L297.33,33.51L298.67,46.22L298.95,47.32L299.87,50.18L299.42,50.33L299.00,50.79L298.78,50.74L297.84,47.60L297.58,45.93L296.45,34.31z"/><path style="fill:#cdd1d5" d="M348.13,79.70L258.00,133.51L257.55,133.38L257.99,132.62L347.77,79.04L348.15,78.98z"/><g id="Actor_.0"><g style="stroke:#000000;stroke-width:0.176"><path d="M344.04,77.73L341.17,79.44L301.90,59.08L301.03,58.57L300.16,57.92L299.31,57.16L298.49,56.30L297.72,55.35L297.01,54.33L296.37,53.25L295.81,52.14L295.34,51.01L294.98,49.88L294.72,48.78L294.57,47.71L293.51,35.96L296.38,34.25"/><path d="M293.51,35.96L293.23,35.82"/><path d="M299.49,57.65L299.47,57.64"/><path d="M301.87,59.38L301.93,59.41"/><path d="M341.17,79.44L341.20,79.77"/></g><g style="stroke:#000000;stroke-width:0.529"><path d="M294.29,47.58L293.23,35.82L296.10,34.11L296.38,34.25L297.44,46.00L297.59,47.06L297.85,48.17L298.21,49.30L298.68,50.43L299.24,51.54L299.88,52.62L300.59,53.64L301.36,54.59L302.18,55.45L303.03,56.21L303.90,56.85L304.77,57.37L344.04,77.73L344.07,78.06L341.20,79.77L301.93,59.41"/><path d="M295.53,52.05L295.69,52.39"/><path d="M294.91,50.44L294.98,50.66"/><path d="M294.58,49.26L294.50,48.89"/><path d="M297.27,55.10L297.46,55.36"/><path d="M296.28,53.52L296.44,53.81"/><path d="M298.48,56.62L298.23,56.33"/><path d="M299.65,57.79L299.49,57.65"/><path d="M300.85,58.75L300.57,58.54"/></g></g><g id="Actor_2.0"><g style="stroke:#000000;stroke-width:0.176"><path d="M323.38,85.54L323.31,86.21L322.93,86.86L322.83,86.97L322.42,87.01L322.00,87.09L321.55,87.23L321.10,87.44L320.64,87.73L320.20,88.07L319.88,88.35L319.07,88.45L317.89,88.44L316.86,88.27L316.45,87.79L316.09,87.44L315.76,87.18L315.45,86.99L315.10,86.84L314.78,86.76L314.72,86.76L314.65,86.19"/><path d="M316.66,83.96L316.00,84.40L315.56,84.92L315.38,85.46L315.46,86.00L315.80,86.49L316.06,86.70L316.37,86.89L316.68,87.01L317.13,87.18L318.03,87.33L319.00,87.34L319.97,87.20L320.86,86.92L321.60,86.53L322.16,86.04L322.47,85.51L322.53,84.96L322.31,84.45L321.85,84.00L321.18,83.64"/><path d="M314.64,86.15L314.64,86.15"/><path d="M316.21,88.71L316.53,88.84L316.92,88.93L317.38,89.03L318.53,89.13L319.73,89.04L319.94,89.01L320.35,88.98L320.77,88.89L321.21,88.75L321.66,88.54L322.12,88.26"/><path d="M319.31,89.30L318.87,89.33"/><path d="M321.43,88.72L321.43,88.72"/></g><g style="stroke:#000000;stroke-width:0.529"><path d="M314.64,86.15L314.65,86.19L314.71,87.14L314.78,87.42L315.22,87.92L315.55,88.24L315.88,88.51L316.21,88.71L316.91,89.04L317.75,89.26L318.69,89.34L318.87,89.33"/><path d="M316.66,83.96L315.97,84.43L315.52,84.77L315.20,85.05L314.87,85.48L314.64,86.15"/><path d="M319.31,89.30L319.67,89.27L320.60,89.06L321.43,88.72L322.12,88.26L322.57,87.92L322.89,87.63L323.22,87.20L323.45,86.53L323.44,86.50L323.38,85.54L323.31,85.26L322.87,84.77L322.54,84.44L322.21,84.18L321.88,83.98L321.18,83.64L320.34,83.42L319.40,83.34L318.42,83.41L317.49,83.62L316.66,83.96"/><path d="M319.31,89.30L318.92,89.33L318.87,89.33"/></g></g><g id="Actor_9.0"><g style="stroke:#000000;stroke-width:0.176"><path d="M255.91,130.71L255.88,130.38L216.60,110.02L215.73,109.50L214.87,108.86L214.02,108.10L213.20,107.24L212.43,106.29L211.72,105.27L211.08,104.19L210.52,103.08L210.05,101.95L209.68,100.82L209.42,99.72L209.27,98.65L208.22,86.90L211.09,85.19"/><path d="M208.22,86.90L207.94,86.76"/><path d="M255.88,130.38L258.75,128.66"/></g><g style="stroke:#000000;stroke-width:0.529"><path d="M216.57,110.31L255.91,130.71L258.78,128.99L258.75,128.66L219.48,108.30L218.61,107.79L217.74,107.15L216.89,106.39L216.07,105.53L215.30,104.58L214.59,103.55L213.95,102.48L213.39,101.36L212.92,100.23L212.56,99.11L212.30,98.00L212.15,96.93L211.09,85.19L210.81,85.05L207.94,86.76L209.00,98.52"/><path d="M210.24,102.99L210.40,103.32"/><path d="M209.62,101.38L209.69,101.60"/><path d="M209.21,99.83L209.29,100.20"/><path d="M211.98,106.04L212.17,106.29"/><path d="M210.99,104.46L211.15,104.75"/><path d="M212.89,107.21L213.19,107.56"/><path d="M214.39,108.76L214.20,108.59"/><path d="M215.26,109.47L215.56,109.69"/></g></g><g id="Actor_2.1"><g style="stroke:#000000;stroke-width:0.176"><path d="M276.30,113.94L276.10,114.61L276.03,114.72L275.67,114.79L275.30,114.90L274.91,115.08L274.52,115.32L274.12,115.64L273.73,116.02L273.46,116.32L272.68,116.49L271.48,116.59L270.41,116.52L269.91,116.08L269.48,115.77L269.09,115.55L268.70,115.39L268.29,115.28L267.89,115.24L267.82,115.24L267.57,114.66"/><path d="M275.02,116.39L274.63,116.63L274.24,116.81L273.88,116.92L273.52,116.99L273.32,117.04L272.14,117.22L270.95,117.23L270.47,117.18L269.98,117.13L269.60,117.04L269.20,116.87"/><path d="M274.39,111.90L274.99,112.30L275.34,112.78L275.45,113.31L275.28,113.86L274.86,114.38L274.22,114.83L273.41,115.18L272.48,115.40L271.50,115.48L270.56,115.41L269.71,115.20L269.34,115.04L269.01,114.86L268.54,114.41L268.30,113.90L268.33,113.35L268.63,112.82L269.16,112.33"/><path d="M272.19,117.44L272.37,117.41"/></g><g style="stroke:#000000;stroke-width:0.529"><path d="M272.19,117.44L272.17,117.44L271.20,117.45L270.29,117.31L269.52,117.03L269.20,116.87L268.80,116.64L268.40,116.35L267.88,115.90L267.73,115.64L267.61,114.99L267.57,114.66L267.61,113.99L267.82,113.54L268.10,113.23L268.48,112.86L268.89,112.54L269.16,112.33L269.90,111.93L270.78,111.64L271.74,111.48L272.56,111.48L272.71,111.48L273.62,111.62L274.39,111.90L274.71,112.06L275.11,112.29L275.51,112.57L276.03,113.02L276.18,113.29L276.30,113.94L276.34,114.27L276.30,114.94L276.09,115.39L275.81,115.69L275.43,116.07L275.02,116.39L274.75,116.60L274.01,117.00L273.13,117.29L272.37,117.41"/><path d="M272.19,117.44L272.21,117.44L272.37,117.41"/></g></g><g id="Actor_0.0"><g style="stroke:#000000;stroke-width:0.176"><path d="M257.67,133.61L257.59,132.78L215.56,110.99L214.35,110.25L213.16,109.27L212.01,108.10L210.96,106.76L210.02,105.30L209.22,103.76L208.59,102.19L208.16,100.64L207.92,99.15L206.87,87.40L206.18,87.04"/><path d="M206.87,87.40L297.31,33.39"/><path d="M223.39,83.90L223.59,84.00L223.79,83.98L224.00,83.88L224.20,83.69L224.37,83.45L224.48,83.18L224.53,82.91L224.51,82.66L224.42,82.47L224.27,82.36L224.20,82.35"/><path d="M223.67,83.83L223.80,83.77L224.00,83.59L224.16,83.35L224.28,83.07L224.32,82.80L224.30,82.59"/><path d="M257.59,132.78L348.04,78.76"/><path d="M272.66,113.38L272.61,112.84L272.59,112.99L272.49,113.13L272.32,113.25L272.09,113.34L271.83,113.38L271.57,113.38L271.34,113.32L271.16,113.23L271.05,113.10L271.02,112.96L271.07,113.49"/><path d="M271.27,112.66L271.08,112.81L271.02,112.96"/><path d="M271.22,112.68L271.33,112.60L271.21,112.71L271.17,112.83L271.19,112.94L271.28,113.04L271.42,113.12L271.61,113.16L271.82,113.17L272.03,113.13L272.21,113.06L272.35,112.96L272.43,112.85L272.44,112.73L272.39,112.62L272.27,112.53L272.54,112.71L272.61,112.84"/><path d="M271.33,112.60L271.49,112.52L271.69,112.47L271.90,112.45L272.10,112.47L272.27,112.53"/><path d="M280.82,49.61L281.01,49.70L281.22,49.69L281.43,49.58L281.63,49.40L281.80,49.16L281.91,48.89L281.96,48.61L281.94,48.37L281.83,48.17L281.70,48.06L281.61,48.05"/><path d="M281.73,48.29L281.75,48.51L281.70,48.78L281.59,49.05L281.42,49.29L281.22,49.47L281.10,49.54"/><path d="M319.75,85.25L319.70,84.72L319.68,84.87L319.58,85.01L319.41,85.13L319.18,85.22L318.92,85.26L318.66,85.25L318.43,85.20L318.25,85.11L318.14,84.98L318.11,84.84L318.16,85.37"/><path d="M318.36,84.53L318.17,84.69L318.11,84.84"/><path d="M318.31,84.56L318.42,84.48L318.30,84.59L318.26,84.70L318.28,84.82L318.37,84.92L318.51,85.00L318.70,85.04L318.91,85.04L319.12,85.01L319.30,84.94L319.44,84.84L319.52,84.73L319.53,84.61L319.48,84.50L319.36,84.41L319.63,84.58L319.70,84.72"/><path d="M318.42,84.48L318.58,84.40L318.78,84.34L318.99,84.33L319.19,84.35L319.36,84.41"/></g><g style="stroke:#000000;stroke-width:0.529"><path d="M207.52,100.52L207.23,98.79L206.18,87.04L296.62,33.03L297.31,33.39L298.37,45.13L298.60,46.62L299.04,48.18L299.67,49.75L300.46,51.28L301.40,52.74L302.46,54.08L303.60,55.25L304.80,56.23L306.01,56.97L348.04,78.76L348.11,79.59L257.67,133.61L215.63,111.82L214.31,111.00L212.99,109.93L211.73,108.64L210.57,107.17L209.53,105.56L208.66,103.87L207.97,102.14L207.52,100.52"/><path d="M223.33,83.01L223.47,82.75L223.66,82.54L223.82,82.42L224.08,82.33L224.21,82.37L224.30,82.56L224.26,82.84L224.06,83.32L223.76,83.75L223.58,83.88L223.39,83.89L223.29,83.77L223.24,83.55L223.25,83.29L223.33,83.01"/><path d="M281.09,48.24L280.90,48.46L280.76,48.72L280.68,48.99L280.66,49.26L280.72,49.48L280.81,49.60L281.01,49.58L281.19,49.45L281.49,49.02L281.69,48.54L281.73,48.26L281.61,48.05L281.51,48.03L281.30,48.10L281.09,48.24"/></g></g><g/><g><g/><g><path style="fill:#ffffff" d="M197.14,162.22L197.14,177.43L225.64,177.43L225.64,162.22z"/><path style="stroke:#000000;stroke-width:0.089;fill:#fac242" d="M211.36,169.83L211.23,171.14L210.85,172.41L210.22,173.57L209.38,174.59L208.36,175.43L207.20,176.06L205.93,176.44L204.62,176.57L203.30,176.44L202.04,176.06L200.87,175.43L199.85,174.59L199.01,173.57L198.39,172.41L198.00,171.14L197.87,169.83L198.00,168.51L198.39,167.25L199.01,166.08L199.85,165.06L200.87,164.22L202.04,163.60L203.30,163.21L204.62,163.08L205.93,163.21L207.20,163.60L208.36,164.22L209.38,165.06L210.22,166.08L210.85,167.25L211.23,168.51z"/><path style="fill:#ffffff" d="M208.50,169.10L203.38,166.15L203.38,166.15L203.27,166.10L203.16,166.07L203.05,166.05L202.94,166.05L202.83,166.06L202.73,166.09L202.63,166.13L202.53,166.18L202.45,166.25L202.37,166.33L202.30,166.41L202.25,166.51L202.21,166.62L202.18,166.73L202.18,166.85L202.18,172.76L202.18,172.76L202.18,172.88L202.21,172.99L202.25,173.10L202.30,173.20L202.37,173.28L202.45,173.36L202.53,173.43L202.63,173.48L202.73,173.52L202.83,173.55L202.94,173.57L203.05,173.56L203.16,173.55L203.27,173.51L203.38,173.46L208.50,170.50L208.50,170.50L208.60,170.43L208.69,170.35L208.76,170.26L208.82,170.17L208.86,170.07L208.89,169.96L208.90,169.85L208.90,169.74L208.89,169.64L208.86,169.53L208.82,169.43L208.76,169.34L208.69,169.25L208.60,169.17L208.50,169.10z"/><path style="fill:#fac242" d="M207.12,169.81L203.46,167.69L203.46,171.93L207.12,169.81z"/><path style="fill:#000000;fill-rule:evenodd" d="M214.96,169.13L214.96,169.13L215.00,169.13L215.04,169.13L215.07,169.13L215.10,169.14L215.13,169.15L215.16,169.15L215.19,169.16L215.21,169.17L215.24,169.18L215.26,169.20L215.28,169.21L215.30,169.22L215.32,169.24L215.34,169.26L215.35,169.28L215.35,169.28L215.37,169.30L215.37,169.33L215.38,169.35L215.38,169.37L215.38,169.39L215.38,169.41L215.38,169.42L215.37,169.44L215.36,169.45L215.34,169.46L215.33,169.47L215.31,169.48L215.29,169.48L215.26,169.49L215.23,169.49L215.18,169.49L215.18,169.49L215.11,169.48L215.04,169.47L214.97,169.47L214.89,169.46L214.80,169.46L214.71,169.45L214.61,169.45L214.51,169.46L214.40,169.46L214.28,169.47L214.17,169.47L214.04,169.49L213.91,169.50L213.78,169.51L213.64,169.53L213.64,169.53L213.66,169.54L213.67,169.56L213.69,169.57L213.70,169.58L213.72,169.59L213.73,169.60L213.74,169.62L213.75,169.63L213.76,169.64L213.77,169.65L213.78,169.66L213.79,169.67L213.79,169.67L213.80,169.68L213.80,169.69L213.80,169.69L213.80,169.69L213.80,169.69L213.80,169.70L213.80,169.70L213.80,169.70L213.80,169.71L213.80,169.71L213.80,169.72L213.80,169.72L213.79,169.73L213.79,169.74L213.79,169.74L213.79,169.75L213.79,169.75L213.79,169.76L213.79,169.76L213.78,169.79L213.77,169.82L213.76,169.85L213.76,169.88L213.75,169.92L213.74,169.96L213.74,170.00L213.74,170.04L213.73,170.09L213.73,170.14L213.73,170.19L213.73,170.24L213.73,170.30L213.73,170.36L213.73,170.42L213.73,170.42L213.79,170.42L213.84,170.43L213.89,170.43L213.95,170.44L214.00,170.45L214.05,170.46L214.11,170.47L214.16,170.48L214.21,170.49L214.27,170.50L214.32,170.52L214.37,170.53L214.43,170.55L214.48,170.56L214.54,170.58L214.54,170.58L214.56,170.59L214.59,170.61L214.61,170.62L214.63,170.64L214.65,170.66L214.67,170.67L214.68,170.69L214.70,170.71L214.71,170.73L214.72,170.76L214.73,170.78L214.74,170.80L214.75,170.82L214.76,170.85L214.76,170.87L214.76,170.87L214.76,170.89L214.76,170.92L214.76,170.93L214.75,170.95L214.75,170.97L214.74,170.98L214.73,170.99L214.72,171.00L214.70,171.01L214.69,171.01L214.67,171.02L214.65,171.02L214.63,171.02L214.61,171.02L214.59,171.02L214.59,171.02L214.58,171.02L214.58,171.02L214.57,171.01L214.56,171.01L214.55,171.00L214.54,170.99L214.52,170.99L214.51,170.98L214.49,170.96L214.47,170.95L214.45,170.94L214.43,170.92L214.41,170.91L214.39,170.89L214.36,170.87L214.36,170.87L214.30,170.83L214.25,170.80L214.19,170.77L214.14,170.74L214.09,170.71L214.05,170.68L214.00,170.65L213.96,170.63L213.92,170.60L213.88,170.58L213.84,170.56L213.81,170.54L213.78,170.53L213.75,170.51L213.72,170.50L213.72,170.50L213.73,170.79L213.74,171.05L213.74,171.30L213.74,171.52L213.74,171.73L213.74,171.91L213.74,172.07L213.73,172.21L213.72,172.32L213.71,172.42L213.70,172.50L213.68,172.55L213.66,172.58L213.64,172.60L213.61,172.59L213.61,172.59L213.58,172.57L213.56,172.55L213.54,172.53L213.52,172.51L213.49,172.49L213.48,172.46L213.46,172.44L213.44,172.41L213.43,172.38L213.41,172.35L213.40,172.32L213.39,172.29L213.38,172.26L213.38,172.22L213.37,172.19L213.37,172.19L213.37,172.18L213.37,172.18L213.37,172.18L213.37,172.18L213.37,172.18L213.37,172.17L213.37,172.17L213.37,172.17L213.37,172.16L213.37,172.16L213.37,172.16L213.38,172.15L213.38,172.15L213.38,172.15L213.38,172.14L213.38,172.14L213.40,172.11L213.42,172.06L213.43,172.00L213.45,171.93L213.46,171.86L213.47,171.77L213.48,171.68L213.49,171.58L213.49,171.47L213.50,171.35L213.50,171.22L213.51,171.08L213.51,170.93L213.51,170.77L213.50,170.60L213.50,170.43L213.50,170.43L213.50,170.35L213.50,170.27L213.50,170.19L213.50,170.12L213.49,170.05L213.49,169.98L213.48,169.92L213.47,169.86L213.46,169.81L213.45,169.76L213.44,169.71L213.43,169.67L213.42,169.63L213.41,169.59L213.40,169.56L213.40,169.56L213.31,169.57L213.23,169.58L213.15,169.59L213.07,169.60L212.99,169.61L212.92,169.63L212.85,169.64L212.78,169.65L212.71,169.66L212.65,169.67L212.58,169.69L212.52,169.70L212.46,169.71L212.41,169.72L212.35,169.73L212.35,169.73L212.33,169.74L212.32,169.74L212.31,169.75L212.29,169.75L212.28,169.75L212.27,169.76L212.26,169.76L212.24,169.76L212.23,169.77L212.23,169.77L212.22,169.77L212.21,169.77L212.20,169.77L212.20,169.77L212.19,169.77L212.19,169.77L212.13,169.76L212.08,169.75L212.04,169.74L211.99,169.72L211.96,169.71L211.92,169.70L211.90,169.68L211.87,169.67L211.86,169.65L211.84,169.64L211.83,169.62L211.83,169.61L211.83,169.59L211.83,169.57L211.84,169.56L211.84,169.56L212.08,169.53L212.30,169.51L212.52,169.49L212.74,169.46L212.94,169.44L213.14,169.41L213.34,169.39L213.52,169.36L213.70,169.34L213.87,169.31L214.03,169.29L214.18,169.26L214.33,169.24L214.47,169.21L214.60,169.18L214.60,169.18L214.64,169.17L214.67,169.17L214.70,169.16L214.73,169.16L214.76,169.15L214.79,169.15L214.81,169.14L214.84,169.14L214.86,169.14L214.88,169.13L214.90,169.13L214.92,169.13L214.94,169.13L214.95,169.13L214.96,169.13zM212.73,167.25L212.86,167.25L213.09,167.60L213.30,167.25L213.41,167.25L213.16,167.69L213.45,168.18L213.32,168.18L213.09,167.79L212.85,168.18L212.74,168.18L212.74,168.14L213.02,167.69L212.74,167.25zM213.66,166.85L213.66,167.01L213.54,167.01L213.54,166.85L213.66,166.85zM213.56,167.25L213.66,167.25L213.66,168.18L213.56,168.18L213.56,167.25zM214.39,168.18L214.39,168.07L214.39,168.07L214.37,168.09L214.36,168.10L214.35,168.11L214.33,168.13L214.31,168.14L214.30,168.15L214.28,168.16L214.26,168.16L214.24,168.17L214.23,168.18L214.21,168.18L214.19,168.19L214.17,168.19L214.15,168.19L214.13,168.19L214.13,168.19L214.10,168.19L214.06,168.18L214.03,168.17L214.00,168.15L213.98,168.13L213.95,168.11L213.93,168.08L213.91,168.05L213.89,168.01L213.88,167.97L213.87,167.92L213.86,167.87L213.85,167.82L213.84,167.76L213.84,167.69L213.84,167.69L213.84,167.63L213.84,167.58L213.85,167.53L213.86,167.48L213.87,167.44L213.89,167.40L213.91,167.36L213.93,167.33L213.95,167.30L213.97,167.27L214.00,167.25L214.03,167.24L214.06,167.22L214.10,167.22L214.13,167.21L214.13,167.21L214.15,167.21L214.18,167.21L214.19,167.22L214.21,167.22L214.23,167.23L214.25,167.24L214.27,167.25L214.28,167.26L214.30,167.27L214.32,167.28L214.33,167.29L214.35,167.31L214.36,167.32L214.37,167.34L214.39,167.36L214.39,167.21L214.50,167.21L214.50,168.16L214.39,168.16zM214.39,167.69L214.39,167.69L214.39,167.65L214.38,167.60L214.38,167.57L214.37,167.53L214.36,167.50L214.35,167.47L214.34,167.44L214.32,167.42L214.30,167.40L214.28,167.38L214.26,167.37L214.23,167.36L214.21,167.35L214.18,167.35L214.15,167.35L214.15,167.35L214.12,167.35L214.09,167.35L214.06,167.36L214.04,167.37L214.02,167.39L214.00,167.40L213.99,167.42L213.97,167.45L213.96,167.47L213.95,167.50L213.95,167.54L213.94,167.57L213.94,167.61L213.93,167.65L213.93,167.69L213.93,167.69L213.93,167.74L213.94,167.78L213.94,167.82L213.95,167.86L213.95,167.90L213.96,167.93L213.97,167.96L213.99,167.99L214.00,168.01L214.02,168.03L214.04,168.05L214.05,168.06L214.07,168.07L214.10,168.08L214.12,168.08L214.12,168.08L214.15,168.08L214.18,168.08L214.21,168.07L214.23,168.05L214.26,168.04L214.28,168.02L214.30,167.99L214.32,167.97L214.33,167.94L214.34,167.90L214.36,167.87L214.36,167.83L214.37,167.79L214.37,167.74L214.37,167.69zM213.96,166.88L214.09,166.88L214.23,167.16L214.15,167.16L213.96,166.88z"/><path style="fill:#000000;fill-rule:evenodd" d="M219.43,170.46L219.43,170.46L219.49,170.47L219.54,170.49L219.60,170.50L219.64,170.52L219.69,170.54L219.73,170.57L219.76,170.59L219.80,170.62L219.82,170.64L219.85,170.67L219.87,170.70L219.89,170.73L219.90,170.76L219.91,170.80L219.91,170.83L219.91,170.83L219.90,170.84L219.89,170.85L219.88,170.85L219.86,170.85L219.84,170.86L219.82,170.86L219.80,170.86L219.77,170.86L219.74,170.86L219.71,170.86L219.68,170.86L219.64,170.86L219.60,170.85L219.56,170.85L219.52,170.84L219.52,170.84L219.43,170.84L219.35,170.84L219.26,170.83L219.17,170.83L219.08,170.83L218.99,170.83L218.90,170.83L218.81,170.83L218.73,170.83L218.64,170.84L218.55,170.84L218.46,170.84L218.37,170.85L218.28,170.85L218.20,170.86L218.20,170.86L218.11,170.87L218.02,170.87L217.93,170.88L217.85,170.89L217.76,170.90L217.67,170.92L217.58,170.93L217.49,170.94L217.40,170.95L217.31,170.97L217.21,170.98L217.12,171.00L217.03,171.02L216.94,171.04L216.84,171.06L216.84,171.06L216.81,171.06L216.77,171.07L216.74,171.07L216.71,171.08L216.68,171.08L216.66,171.08L216.63,171.09L216.61,171.09L216.59,171.09L216.58,171.09L216.56,171.10L216.55,171.10L216.54,171.10L216.54,171.10L216.53,171.10L216.53,171.10L216.51,171.10L216.49,171.10L216.47,171.09L216.45,171.09L216.43,171.08L216.41,171.07L216.39,171.06L216.36,171.05L216.34,171.04L216.31,171.02L216.29,171.01L216.26,170.99L216.24,170.97L216.21,170.96L216.18,170.94L216.18,170.94L216.17,170.92L216.15,170.90L216.14,170.89L216.13,170.87L216.12,170.86L216.12,170.85L216.11,170.83L216.11,170.82L216.11,170.82L216.12,170.81L216.12,170.80L216.13,170.80L216.14,170.79L216.16,170.79L216.17,170.79L216.17,170.79L216.32,170.79L216.47,170.79L216.63,170.78L216.80,170.77L216.97,170.76L217.15,170.75L217.34,170.73L217.54,170.72L217.74,170.70L217.95,170.67L218.17,170.65L218.39,170.62L218.62,170.58L218.86,170.55L219.11,170.51L219.11,170.51L219.14,170.50L219.18,170.49L219.21,170.49L219.24,170.48L219.27,170.48L219.29,170.47L219.32,170.47L219.34,170.47L219.36,170.46L219.37,170.46L219.38,170.46L219.40,170.46L219.41,170.46L219.41,170.46L219.42,170.46zM217.48,167.25L217.62,167.25L217.86,167.98L218.10,167.25L218.21,167.25L217.79,168.51L217.69,168.51L217.79,168.16L217.48,167.27zM218.58,167.04L218.20,167.04L218.20,166.92L218.58,166.92L218.58,167.04zM218.46,168.16L218.34,168.16L218.34,167.24L218.46,167.24L218.46,168.16z"/><path style="fill:#000000;fill-rule:evenodd" d="M222.34,168.86L222.34,168.86L222.38,168.88L222.42,168.90L222.45,168.92L222.49,168.94L222.52,168.96L222.54,168.98L222.57,168.99L222.59,169.01L222.60,169.02L222.62,169.04L222.63,169.05L222.63,169.07L222.64,169.08L222.64,169.09L222.63,169.10L222.63,169.10L222.63,169.10L222.63,169.10L222.63,169.10L222.63,169.11L222.63,169.11L222.63,169.11L222.63,169.12L222.63,169.12L222.63,169.12L222.63,169.13L222.63,169.13L222.63,169.13L222.62,169.14L222.62,169.14L222.62,169.14L222.62,169.14L222.60,169.16L222.59,169.18L222.58,169.20L222.56,169.21L222.55,169.23L222.54,169.24L222.53,169.26L222.52,169.27L222.52,169.28L222.51,169.29L222.51,169.31L222.50,169.32L222.50,169.33L222.50,169.33L222.50,169.34L222.50,169.34L222.59,169.47L222.69,169.60L222.80,169.71L222.90,169.83L223.02,169.94L223.13,170.04L223.25,170.14L223.37,170.23L223.50,170.32L223.63,170.40L223.76,170.48L223.89,170.55L224.03,170.62L224.18,170.68L224.32,170.74L224.32,170.74L224.35,170.75L224.38,170.76L224.40,170.77L224.43,170.77L224.45,170.78L224.47,170.79L224.48,170.80L224.50,170.80L224.51,170.81L224.53,170.82L224.54,170.82L224.55,170.83L224.55,170.83L224.56,170.84L224.56,170.84L224.56,170.84L224.56,170.85L224.56,170.85L224.56,170.86L224.55,170.86L224.55,170.87L224.54,170.87L224.53,170.87L224.52,170.88L224.51,170.88L224.49,170.88L224.48,170.89L224.46,170.89L224.44,170.89L224.41,170.90L224.39,170.90L224.39,170.90L224.30,170.91L224.22,170.91L224.14,170.92L224.07,170.92L224.00,170.92L223.93,170.92L223.87,170.92L223.82,170.92L223.76,170.91L223.71,170.91L223.67,170.90L223.63,170.89L223.59,170.88L223.56,170.87L223.53,170.86L223.53,170.86L223.51,170.85L223.48,170.82L223.45,170.79L223.40,170.74L223.35,170.69L223.29,170.62L223.23,170.54L223.15,170.44L223.07,170.34L222.98,170.22L222.88,170.10L222.77,169.96L222.66,169.80L222.53,169.64L222.40,169.46L222.40,169.46L222.32,169.63L222.23,169.79L222.15,169.94L222.06,170.09L221.96,170.23L221.87,170.36L221.77,170.49L221.67,170.61L221.57,170.72L221.47,170.83L221.37,170.93L221.26,171.02L221.15,171.11L221.04,171.19L220.93,171.26L220.93,171.26L220.90,171.28L220.88,171.29L220.85,171.31L220.83,171.32L220.81,171.34L220.79,171.35L220.77,171.36L220.75,171.36L220.74,171.37L220.72,171.37L220.71,171.37L220.70,171.38L220.69,171.37L220.68,171.37L220.68,171.37L220.68,171.37L220.68,171.36L220.68,171.35L220.68,171.34L220.68,171.33L220.69,171.32L220.70,171.31L220.71,171.29L220.72,171.28L220.73,171.26L220.74,171.25L220.76,171.23L220.77,171.21L220.79,171.19L220.81,171.17L220.84,171.15L220.84,171.15L221.00,171.00L221.15,170.85L221.29,170.70L221.42,170.55L221.54,170.40L221.65,170.25L221.75,170.10L221.84,169.96L221.92,169.81L221.99,169.66L222.05,169.51L222.10,169.36L222.14,169.22L222.17,169.07L222.19,168.93L222.19,168.93L222.19,168.92L222.18,168.91L222.18,168.90L222.18,168.90L222.18,168.89L222.18,168.88L222.18,168.87L222.18,168.87L222.18,168.86L222.18,168.86L222.19,168.85L222.19,168.84L222.19,168.84L222.20,168.84L222.20,168.83L222.20,168.83L222.21,168.83L222.22,168.83L222.22,168.83L222.23,168.83L222.24,168.83L222.24,168.83L222.25,168.84L222.26,168.84L222.27,168.84L222.28,168.84L222.29,168.84L222.30,168.84L222.31,168.84L222.32,168.84L222.34,168.85zM222.10,167.21L222.10,167.21L222.11,167.21L222.12,167.21L222.13,167.22L222.14,167.22L222.16,167.23L222.17,167.24L222.19,167.25L222.20,167.26L222.22,167.27L222.24,167.28L222.25,167.29L222.27,167.31L222.29,167.32L222.31,167.34L222.32,167.36L222.32,167.25L222.44,167.25L222.44,167.25L222.44,167.26L222.44,167.27L222.44,167.28L222.44,167.29L222.44,167.30L222.44,167.31L222.44,167.32L222.44,167.33L222.44,167.35L222.44,167.36L222.43,167.38L222.43,167.39L222.43,167.41L222.43,167.43L222.43,167.45L222.43,168.06L222.43,168.06L222.43,168.10L222.43,168.14L222.43,168.18L222.42,168.22L222.42,168.25L222.41,168.29L222.40,168.32L222.39,168.34L222.38,168.37L222.37,168.39L222.35,168.42L222.33,168.44L222.31,168.45L222.29,168.47L222.27,168.49L222.27,168.49L222.26,168.49L222.25,168.50L222.24,168.50L222.24,168.50L222.23,168.51L222.22,168.51L222.20,168.51L222.19,168.52L222.18,168.52L222.17,168.52L222.16,168.52L222.14,168.52L222.13,168.52L222.11,168.53L222.10,168.53L222.10,168.53L222.06,168.52L222.02,168.52L221.99,168.52L221.96,168.51L221.93,168.50L221.91,168.49L221.88,168.47L221.86,168.46L221.85,168.44L221.83,168.42L221.82,168.40L221.81,168.37L221.81,168.34L221.80,168.32L221.80,168.28L221.91,168.28L221.91,168.28L221.91,168.30L221.91,168.31L221.92,168.33L221.93,168.34L221.93,168.35L221.95,168.36L221.96,168.37L221.97,168.38L221.99,168.39L222.01,168.39L222.03,168.40L222.05,168.40L222.07,168.40L222.10,168.40L222.12,168.40L222.12,168.40L222.15,168.40L222.17,168.40L222.20,168.39L222.22,168.39L222.24,168.38L222.25,168.36L222.27,168.35L222.28,168.33L222.30,168.31L222.31,168.30L222.32,168.27L222.32,168.25L222.33,168.23L222.33,168.20L222.34,168.18L222.34,168.06L222.34,168.06L222.33,168.07L222.31,168.09L222.30,168.10L222.29,168.11L222.28,168.12L222.26,168.13L222.25,168.14L222.23,168.15L222.22,168.16L222.20,168.16L222.18,168.17L222.16,168.17L222.15,168.17L222.13,168.18L222.11,168.18L222.11,168.18L222.07,168.17L222.03,168.17L221.99,168.16L221.96,168.14L221.93,168.12L221.90,168.10L221.88,168.07L221.86,168.04L221.84,168.01L221.82,167.97L221.81,167.93L221.79,167.88L221.79,167.83L221.78,167.78L221.77,167.72L221.77,167.72L221.78,167.66L221.78,167.61L221.79,167.55L221.80,167.51L221.81,167.46L221.83,167.42L221.85,167.39L221.87,167.35L221.90,167.33L221.93,167.30L221.96,167.28L221.99,167.26L222.03,167.25L222.07,167.24L222.11,167.24zM222.32,167.69L222.32,167.69L222.32,167.65L222.32,167.61L222.31,167.57L222.31,167.54L222.30,167.51L222.29,167.48L222.27,167.45L222.26,167.43L222.24,167.41L222.22,167.39L222.20,167.38L222.18,167.37L222.15,167.36L222.13,167.35L222.10,167.35L222.10,167.35L222.07,167.35L222.05,167.35L222.02,167.36L222.00,167.37L221.98,167.39L221.96,167.41L221.95,167.43L221.93,167.45L221.92,167.48L221.90,167.51L221.89,167.54L221.88,167.58L221.88,167.61L221.87,167.65L221.87,167.69L221.87,167.69L221.87,167.74L221.87,167.78L221.88,167.82L221.89,167.85L221.89,167.89L221.91,167.92L221.92,167.94L221.94,167.97L221.95,167.99L221.97,168.00L221.99,168.02L222.02,168.03L222.04,168.04L222.07,168.04L222.10,168.04L222.10,168.04L222.12,168.04L222.15,168.04L222.17,168.03L222.19,168.02L222.21,168.00L222.23,167.99L222.25,167.97L222.26,167.94L222.28,167.92L222.29,167.89L222.30,167.85L222.31,167.82L222.32,167.78L222.32,167.74L222.32,167.69zM222.36,170.25L222.38,170.25L222.38,170.25L222.42,170.28L222.46,170.30L222.49,170.32L222.52,170.33L222.55,170.35L222.57,170.37L222.59,170.39L222.61,170.40L222.62,170.42L222.63,170.43L222.63,170.45L222.64,170.46L222.63,170.47L222.63,170.48L222.62,170.50L222.62,170.50L222.61,170.51L222.60,170.54L222.59,170.59L222.58,170.65L222.57,170.72L222.57,170.81L222.56,170.91L222.56,171.02L222.56,171.15L222.56,171.29L222.57,171.44L222.58,171.61L222.58,171.79L222.59,171.99L222.61,172.20L222.61,172.29L222.61,172.29L222.61,172.34L222.61,172.39L222.61,172.44L222.60,172.48L222.60,172.53L222.60,172.56L222.60,172.60L222.60,172.63L222.59,172.66L222.59,172.69L222.58,172.71L222.57,172.74L222.56,172.76L222.55,172.77L222.54,172.79L222.54,172.79L222.53,172.79L222.51,172.80L222.50,172.80L222.48,172.79L222.47,172.79L222.45,172.78L222.44,172.77L222.42,172.75L222.40,172.73L222.39,172.71L222.37,172.68L222.35,172.65L222.33,172.62L222.32,172.59L222.30,172.55L222.30,172.55L222.30,172.54L222.30,172.53L222.30,172.53L222.30,172.52L222.30,172.51L222.30,172.49L222.30,172.48L222.30,172.47L222.30,172.45L222.30,172.43L222.30,172.41L222.30,172.39L222.31,172.37L222.31,172.35L222.31,172.32L222.31,172.32L222.32,172.25L222.33,172.19L222.33,172.12L222.34,172.06L222.35,172.00L222.35,171.94L222.36,171.87L222.36,171.82L222.36,171.76L222.37,171.70L222.37,171.64L222.37,171.59L222.37,171.53L222.37,171.47L222.36,171.42L222.36,171.42L222.36,171.32L222.36,171.22L222.36,171.13L222.36,171.04L222.35,170.96L222.35,170.88L222.34,170.81L222.33,170.74L222.32,170.68L222.31,170.63L222.30,170.57L222.29,170.53L222.28,170.48L222.27,170.45L222.26,170.42L222.26,170.42L222.25,170.41L222.24,170.39L222.24,170.38L222.23,170.38L222.23,170.37L222.23,170.36L222.22,170.35L222.22,170.34L222.22,170.33L222.22,170.33L222.22,170.32L222.22,170.31L222.22,170.31L222.22,170.30L222.22,170.29L222.22,170.29L222.22,170.29L222.22,170.29L222.22,170.28L222.23,170.28L222.23,170.28L222.24,170.27L222.25,170.27L222.26,170.27L222.27,170.27L222.28,170.27L222.29,170.27L222.31,170.28L222.32,170.28L222.34,170.28L222.35,170.28zM223.26,167.75L222.69,167.75L222.69,167.75L222.69,167.79L222.69,167.83L222.70,167.86L222.71,167.90L222.72,167.93L222.73,167.95L222.74,167.98L222.76,168.00L222.78,168.02L222.80,168.04L222.83,168.05L222.85,168.06L222.88,168.07L222.91,168.08L222.94,168.08L222.94,168.08L222.96,168.08L222.98,168.08L222.99,168.07L223.01,168.06L223.03,168.05L223.04,168.04L223.05,168.03L223.07,168.01L223.08,167.99L223.09,167.97L223.10,167.95L223.11,167.93L223.12,167.91L223.12,167.88L223.13,167.86L223.25,167.86L223.25,167.86L223.24,167.90L223.23,167.94L223.22,167.98L223.20,168.01L223.18,168.04L223.16,168.07L223.14,168.10L223.12,168.12L223.09,168.14L223.07,168.15L223.04,168.17L223.01,168.18L222.97,168.18L222.94,168.19L222.90,168.19L222.90,168.19L222.86,168.19L222.82,168.18L222.78,168.17L222.75,168.15L222.72,168.13L222.69,168.11L222.67,168.08L222.65,168.05L222.63,168.01L222.61,167.97L222.60,167.92L222.59,167.88L222.58,167.82L222.57,167.77L222.57,167.71L222.57,167.71L222.57,167.65L222.57,167.59L222.58,167.53L222.59,167.48L222.61,167.44L222.63,167.40L222.65,167.36L222.67,167.33L222.70,167.30L222.73,167.27L222.76,167.25L222.80,167.24L222.83,167.22L222.87,167.22L222.91,167.21L222.91,167.21L222.96,167.21L222.99,167.22L223.03,167.23L223.07,167.25L223.10,167.27L223.12,167.30L223.15,167.33L223.17,167.36L223.19,167.40L223.21,167.45L223.22,167.50L223.24,167.55L223.24,167.61L223.25,167.68L223.25,167.75zM222.93,167.35L222.93,167.35L222.90,167.35L222.88,167.35L222.85,167.36L222.83,167.37L222.81,167.38L222.79,167.39L222.77,167.41L222.76,167.43L222.74,167.45L222.73,167.47L222.72,167.50L222.71,167.53L222.70,167.56L222.69,167.59L222.69,167.63L223.16,167.63L223.16,167.63L223.15,167.59L223.15,167.56L223.15,167.53L223.14,167.50L223.13,167.47L223.12,167.45L223.10,167.43L223.09,167.41L223.07,167.39L223.05,167.38L223.03,167.37L223.01,167.36L222.98,167.35L222.96,167.35L222.93,167.35zM222.74,166.89L222.87,166.89L223.01,167.17L222.93,167.17L222.74,166.89z"/></g></g><g><g/><g><path style="stroke:#bc6b00;stroke-width:0.097;fill:#fac242" d="M387.63,168.50L387.49,169.89L387.08,171.23L386.42,172.46L385.54,173.54L384.46,174.42L383.23,175.08L381.89,175.49L380.50,175.63L379.11,175.49L377.77,175.08L376.54,174.42L375.46,173.54L374.58,172.46L373.92,171.23L373.51,169.89L373.38,168.50L373.51,167.11L373.92,165.77L374.58,164.54L375.46,163.46L376.54,162.58L377.77,161.92L379.11,161.51L380.50,161.38L381.89,161.51L383.23,161.92L384.46,162.58L385.54,163.46L386.42,164.54L387.08,165.77L387.49,167.11z"/><path style="fill:#ffffff" d="M385.00,166.99L385.00,166.99L384.99,166.97L384.98,166.95L384.96,166.93L384.95,166.91L384.93,166.88L384.92,166.86L384.90,166.84L384.89,166.82L384.87,166.80L384.85,166.78L384.83,166.76L384.81,166.74L384.80,166.72L384.78,166.70L384.75,166.68L381.34,163.66L381.34,163.66L381.24,163.58L381.14,163.51L381.02,163.45L380.90,163.41L380.78,163.37L380.66,163.35L380.53,163.34L380.40,163.34L380.28,163.35L380.15,163.37L380.03,163.41L379.91,163.45L379.80,163.51L379.69,163.58L379.59,163.66L376.18,166.68L376.18,166.68L376.14,166.73L376.09,166.78L376.05,166.82L376.01,166.87L375.98,166.92L375.95,166.97L375.92,167.03L375.90,167.08L375.88,167.14L375.86,167.19L375.84,167.25L375.83,167.30L375.83,167.36L375.82,167.42L375.82,167.47L375.82,167.47L375.82,167.49L375.82,167.50L375.82,167.51L375.82,167.52L375.81,167.53L375.81,167.54L375.81,167.55L375.81,167.56L375.81,167.57L375.81,167.59L375.81,167.60L375.81,167.61L375.81,167.62L375.81,167.63L375.81,167.64L375.81,172.34L375.81,172.34L375.82,172.49L375.84,172.63L375.88,172.76L375.94,172.89L376.01,173.01L376.10,173.13L376.19,173.23L376.30,173.33L376.42,173.41L376.55,173.49L376.69,173.55L376.83,173.60L376.98,173.64L377.14,173.66L377.30,173.67L379.12,173.67L379.12,170.35L379.12,170.35L379.13,170.29L379.14,170.23L379.15,170.17L379.18,170.12L379.21,170.06L379.25,170.01L379.29,169.97L379.34,169.93L379.39,169.89L379.44,169.86L379.50,169.83L379.57,169.81L379.63,169.79L379.70,169.78L379.77,169.78L381.23,169.78L381.23,169.78L381.30,169.78L381.37,169.79L381.44,169.81L381.50,169.83L381.56,169.86L381.62,169.89L381.67,169.93L381.71,169.97L381.76,170.01L381.79,170.06L381.82,170.12L381.85,170.17L381.87,170.23L381.88,170.29L381.88,170.35L381.88,173.67L383.70,173.67L383.70,173.67L383.86,173.66L384.02,173.64L384.17,173.60L384.32,173.55L384.45,173.49L384.58,173.41L384.70,173.33L384.81,173.23L384.91,173.12L384.99,173.01L385.06,172.89L385.12,172.76L385.16,172.62L385.19,172.49L385.20,172.34L385.20,167.64L385.20,167.64L385.19,167.60L385.19,167.55L385.19,167.50L385.18,167.46L385.17,167.41L385.16,167.37L385.15,167.32L385.14,167.28L385.12,167.24L385.11,167.20L385.09,167.15L385.07,167.11L385.05,167.07L385.03,167.03L385.00,167.00z"/></g></g><g><g/><g><path style="stroke:#000000;stroke-width:0.125;stroke-opacity:0.25;fill:#ffffff" d="M23.81,10.00L113.67,10.00L113.67,19.03L23.81,19.03z"/><text xml:space="preserve" fill="#000000" stroke-width="0" x="24.93" y="16.21" font-size="5.20" opacity="1.00" font-family="Roboto" font-weight="bold">0576_ZyloDent Bottom side cover_V2</text></g></g><g><g/><g><path style="fill:#ffffff" d="M372.96,10.05L389.37,10.05L389.37,27.62L372.96,27.62z"/><path style="fill:#ffffff" d="M373.37,10.49L373.37,27.15L388.96,27.15L388.96,10.49z"/><path style="fill:#000000" d="M379.56,27.15L379.56,27.15L379.50,27.15L379.42,27.15L379.33,27.15L379.21,27.15L379.08,27.15L378.94,27.15L378.79,27.15L378.63,27.15L378.47,27.15L378.30,27.15L378.14,27.15L377.98,27.15L377.83,27.15L377.69,27.15L377.56,27.15L377.56,27.15L377.44,27.15L377.32,27.15L377.20,27.15L377.09,27.15L376.99,27.15L376.89,27.15L376.79,27.15L376.70,27.15L376.61,27.15L376.52,27.15L376.44,27.15L376.37,27.15L376.29,27.15L376.22,27.15L376.16,27.15L376.16,27.15L376.10,27.15L376.03,27.15L375.97,27.15L375.90,27.15L375.83,27.15L375.76,27.15L375.69,27.15L375.62,27.15L375.55,27.15L375.48,27.15L375.41,27.15L375.34,27.15L375.27,27.15L375.20,27.15L375.13,27.15L375.13,27.15L375.06,27.15L374.99,27.15L374.92,27.15L374.84,27.15L374.77,27.15L374.69,27.15L374.62,27.15L374.54,27.15L374.46,27.15L374.38,27.15L374.30,27.15L374.22,27.15L374.14,27.15L374.06,27.15L373.97,27.15L373.97,27.15L373.97,27.05L373.97,26.95L373.97,26.85L373.97,26.75L373.97,26.64L373.97,26.53L373.97,26.42L373.97,26.31L373.97,26.20L373.97,26.08L373.97,25.96L373.97,25.84L373.97,25.72L373.97,25.59L373.97,25.46L373.97,25.46L373.97,25.33L373.97,25.21L373.97,25.09L373.97,24.98L373.97,24.87L373.97,24.76L373.97,24.66L373.97,24.56L373.97,24.47L373.97,24.38L373.97,24.29L373.97,24.21L373.97,24.14L373.97,24.06L373.97,23.99L373.97,23.99L373.97,23.86L373.97,23.72L373.97,23.59L373.97,23.46L373.97,23.33L373.97,23.21L373.97,23.08L373.97,22.97L373.97,22.85L373.97,22.73L373.97,22.62L373.97,22.51L373.97,22.41L373.97,22.30L373.97,22.20L373.97,22.20L373.97,22.10L373.97,22.01L373.97,21.92L373.97,21.83L373.97,21.75L373.97,21.68L373.97,21.61L373.97,21.54L373.97,21.48L373.97,21.42L373.97,21.37L373.97,21.32L373.97,21.27L373.97,21.24L373.97,21.20L376.32,21.20L376.32,21.20L376.32,21.27L376.32,21.33L376.32,21.40L376.32,21.47L376.32,21.53L376.32,21.60L376.32,21.67L376.32,21.74L376.32,21.81L376.32,21.88L376.32,21.95L376.32,22.03L376.32,22.10L376.32,22.17L376.32,22.24L376.32,22.24L376.32,22.32L376.32,22.39L376.32,22.47L376.32,22.55L376.32,22.63L376.32,22.71L376.32,22.79L376.32,22.87L376.32,22.96L376.32,23.04L376.32,23.13L376.32,23.22L376.32,23.31L376.32,23.40L376.32,23.49L376.32,23.49L376.32,23.58L376.32,23.67L376.32,23.74L376.32,23.81L376.32,23.87L376.32,23.94L376.32,23.99L376.32,24.05L376.32,24.10L376.32,24.16L376.32,24.21L376.32,24.27L376.32,24.33L376.32,24.39L376.32,24.46L376.32,24.46L376.32,24.53L376.32,24.58L376.32,24.62L376.32,24.65L376.32,24.67L376.32,24.69L376.32,24.70L376.32,24.71L376.32,24.71L376.32,24.72L376.32,24.72L376.32,24.73L376.32,24.74L376.32,24.75L376.32,24.77L379.56,24.77L379.56,27.18z"/><path style="fill:#000000" d="M379.67,20.77L379.67,20.77L379.57,20.77L379.47,20.77L379.37,20.77L379.27,20.77L379.16,20.77L379.06,20.77L378.95,20.77L378.83,20.77L378.72,20.77L378.60,20.77L378.49,20.77L378.37,20.77L378.25,20.77L378.12,20.77L378.00,20.77L378.00,20.77L377.87,20.77L377.75,20.77L377.63,20.77L377.51,20.77L377.40,20.77L377.28,20.77L377.17,20.77L377.06,20.77L376.96,20.77L376.86,20.77L376.76,20.77L376.66,20.77L376.56,20.77L376.47,20.77L376.38,20.77L376.38,20.77L376.30,20.77L376.21,20.77L376.14,20.77L376.06,20.77L375.99,20.77L375.93,20.77L375.86,20.77L375.80,20.77L375.73,20.77L375.67,20.77L375.61,20.77L375.55,20.77L375.48,20.77L375.42,20.77L375.35,20.77L375.35,20.77L375.28,20.78L375.21,20.78L375.13,20.78L375.04,20.78L374.95,20.79L374.85,20.80L374.75,20.80L374.65,20.81L374.55,20.81L374.44,20.82L374.34,20.82L374.24,20.83L374.14,20.83L374.05,20.83L373.96,20.83L373.96,18.94L373.96,18.94L374.07,18.82L374.16,18.72L374.25,18.63L374.32,18.55L374.39,18.48L374.45,18.41L374.51,18.35L374.57,18.29L374.62,18.24L374.67,18.18L374.72,18.12L374.77,18.06L374.83,18.00L374.89,17.93L374.96,17.85L374.96,17.85L375.03,17.77L375.10,17.69L375.17,17.61L375.24,17.53L375.31,17.45L375.38,17.37L375.44,17.30L375.51,17.22L375.57,17.15L375.64,17.08L375.70,17.00L375.76,16.93L375.82,16.87L375.88,16.80L375.94,16.73L375.94,16.70L375.94,16.70L375.91,16.70L375.88,16.70L375.84,16.70L375.81,16.70L375.78,16.70L375.74,16.70L375.71,16.70L375.68,16.70L375.64,16.70L375.61,16.70L375.57,16.70L375.54,16.70L375.50,16.70L375.46,16.70L375.43,16.70L375.43,16.70L375.39,16.70L375.35,16.70L375.32,16.70L375.28,16.70L375.25,16.70L375.21,16.70L375.18,16.70L375.15,16.70L375.11,16.70L375.08,16.70L375.05,16.70L375.02,16.70L375.00,16.70L374.97,16.70L374.94,16.70L374.94,16.70L374.91,16.70L374.88,16.70L374.85,16.70L374.82,16.70L374.78,16.70L374.74,16.70L374.70,16.70L374.66,16.70L374.62,16.70L374.58,16.70L374.54,16.70L374.49,16.70L374.45,16.70L374.41,16.70L374.37,16.70L374.37,16.70L374.33,16.70L374.29,16.70L374.25,16.70L374.21,16.70L374.17,16.70L374.13,16.70L374.09,16.70L374.05,16.70L374.01,16.70L373.97,16.70L373.93,16.70L373.90,16.70L373.86,16.70L373.82,16.70L373.78,16.70L373.78,14.65L378.76,14.65L379.56,16.10L379.56,16.10L379.52,16.14L379.48,16.19L379.43,16.23L379.39,16.28L379.34,16.33L379.30,16.39L379.25,16.44L379.20,16.50L379.14,16.55L379.09,16.62L379.03,16.68L378.98,16.74L378.92,16.81L378.85,16.88L378.79,16.95L378.79,16.95L378.72,17.03L378.65,17.11L378.57,17.20L378.49,17.30L378.39,17.40L378.30,17.50L378.19,17.62L378.09,17.73L377.97,17.86L377.85,17.99L377.72,18.13L377.59,18.27L377.45,18.43L377.31,18.58L377.16,18.75L377.16,18.78L377.16,18.78L377.19,18.78L377.23,18.78L377.26,18.78L377.29,18.78L377.33,18.78L377.36,18.78L377.40,18.78L377.43,18.78L377.47,18.78L377.50,18.78L377.54,18.78L377.58,18.78L377.61,18.78L377.65,18.78L377.69,18.78L377.69,18.78L377.73,18.78L377.77,18.78L377.81,18.78L377.84,18.78L377.88,18.78L377.92,18.78L377.95,18.78L377.99,18.78L378.02,18.78L378.05,18.78L378.08,18.78L378.11,18.78L378.14,18.78L378.17,18.78L378.20,18.78L378.20,18.78L378.24,18.78L378.29,18.78L378.33,18.78L378.37,18.78L378.42,18.78L378.47,18.78L378.51,18.78L378.56,18.78L378.61,18.78L378.66,18.78L378.71,18.78L378.76,18.78L378.81,18.78L378.87,18.78L378.92,18.78L378.92,18.78L378.98,18.78L379.03,18.78L379.08,18.78L379.13,18.78L379.18,18.78L379.23,18.78L379.28,18.78L379.33,18.78L379.38,18.78L379.43,18.78L379.48,18.78L379.53,18.78L379.58,18.78L379.63,18.78L379.67,18.78L379.67,20.77z"/><path style="fill:#000000" d="M386.33,14.63L386.33,14.63L386.30,14.69L386.26,14.76L386.22,14.84L386.17,14.94L386.12,15.05L386.06,15.17L386.00,15.30L385.93,15.43L385.86,15.58L385.78,15.73L385.70,15.88L385.61,16.04L385.53,16.19L385.44,16.35L385.34,16.51L385.34,16.51L385.25,16.67L385.16,16.82L385.07,16.97L384.98,17.12L384.89,17.26L384.81,17.40L384.73,17.54L384.64,17.68L384.56,17.81L384.49,17.94L384.41,18.07L384.34,18.19L384.26,18.31L384.19,18.43L384.12,18.54L384.12,18.54L384.12,18.63L384.12,18.71L384.12,18.80L384.12,18.88L384.12,18.96L384.12,19.04L384.12,19.12L384.12,19.19L384.12,19.26L384.12,19.34L384.12,19.40L384.12,19.47L384.12,19.54L384.12,19.60L384.12,19.66L384.12,19.66L384.12,19.72L384.12,19.78L384.12,19.84L384.12,19.90L384.12,19.97L384.12,20.03L384.12,20.10L384.12,20.16L384.12,20.23L384.12,20.30L384.12,20.37L384.12,20.44L384.12,20.51L384.12,20.58L384.12,20.66L381.52,20.66L381.52,20.66L381.52,20.60L381.52,20.54L381.52,20.48L381.52,20.42L381.52,20.37L381.52,20.31L381.52,20.25L381.52,20.19L381.52,20.14L381.52,20.08L381.52,20.02L381.52,19.96L381.52,19.91L381.52,19.85L381.52,19.79L381.52,19.79L381.52,19.73L381.52,19.67L381.52,19.60L381.52,19.53L381.52,19.46L381.52,19.39L381.52,19.31L381.52,19.23L381.52,19.14L381.52,19.06L381.52,18.97L381.52,18.87L381.52,18.78L381.52,18.67L381.52,18.57L381.52,18.57L381.46,18.46L381.39,18.34L381.32,18.22L381.25,18.11L381.18,17.98L381.11,17.86L381.03,17.73L380.96,17.60L380.88,17.47L380.80,17.34L380.72,17.20L380.64,17.06L380.55,16.92L380.47,16.78L380.38,16.63L380.38,16.63L380.29,16.48L380.20,16.33L380.11,16.18L380.03,16.02L379.94,15.87L379.86,15.72L379.78,15.57L379.70,15.42L379.63,15.28L379.56,15.15L379.49,15.03L379.43,14.91L379.37,14.81L379.32,14.71L379.28,14.63L382.20,14.63L382.20,14.63L382.24,14.71L382.28,14.80L382.32,14.90L382.37,15.01L382.42,15.12L382.47,15.24L382.52,15.37L382.58,15.49L382.63,15.61L382.68,15.72L382.73,15.83L382.77,15.94L382.82,16.03L382.86,16.11L382.89,16.18L382.89,16.18L382.89,16.18L382.94,16.08L382.99,15.97L383.04,15.85L383.10,15.73L383.15,15.61L383.21,15.48L383.26,15.36L383.31,15.24L383.36,15.12L383.41,15.01L383.45,14.91L383.49,14.82L383.52,14.74L383.55,14.68L383.57,14.63L386.31,14.63z"/><path style="fill:#000000;fill-rule:evenodd" d="M385.77,24.05L385.77,24.05L385.77,24.14L385.77,24.23L385.76,24.32L385.75,24.41L385.75,24.50L385.74,24.58L385.72,24.67L385.71,24.75L385.69,24.84L385.67,24.92L385.65,25.00L385.63,25.08L385.61,25.16L385.58,25.24L385.55,25.31L385.55,25.31L385.52,25.39L385.49,25.47L385.45,25.55L385.42,25.62L385.38,25.70L385.34,25.77L385.29,25.84L385.25,25.91L385.20,25.98L385.15,26.05L385.10,26.12L385.04,26.18L384.98,26.25L384.92,26.31L384.86,26.37L384.86,26.37L384.81,26.42L384.76,26.47L384.71,26.52L384.65,26.56L384.60,26.60L384.54,26.64L384.49,26.68L384.43,26.72L384.37,26.76L384.31,26.79L384.25,26.82L384.18,26.85L384.12,26.88L384.05,26.91L383.98,26.93L383.98,26.93L383.91,26.96L383.84,26.98L383.77,27.00L383.70,27.02L383.63,27.04L383.56,27.06L383.49,27.07L383.41,27.08L383.34,27.09L383.26,27.10L383.19,27.11L383.11,27.12L383.03,27.12L382.95,27.12L382.88,27.12L382.88,27.12L382.80,27.12L382.72,27.12L382.64,27.12L382.57,27.11L382.49,27.10L382.42,27.09L382.35,27.08L382.27,27.07L382.20,27.06L382.13,27.04L382.06,27.02L381.99,27.00L381.92,26.98L381.86,26.96L381.79,26.93L381.79,26.93L381.72,26.91L381.66,26.88L381.59,26.85L381.53,26.82L381.46,26.79L381.40,26.76L381.34,26.72L381.28,26.68L381.22,26.64L381.17,26.60L381.11,26.56L381.05,26.52L381.00,26.47L380.95,26.42L380.89,26.37L380.89,26.37L380.83,26.31L380.78,26.25L380.72,26.19L380.67,26.13L380.62,26.06L380.57,25.99L380.52,25.92L380.48,25.85L380.43,25.78L380.39,25.71L380.35,25.64L380.31,25.56L380.28,25.49L380.25,25.41L380.22,25.33L380.22,25.33L380.19,25.25L380.16,25.17L380.13,25.09L380.11,25.01L380.08,24.92L380.06,24.84L380.05,24.75L380.03,24.67L380.02,24.58L380.01,24.49L380.00,24.40L379.99,24.31L379.99,24.22L379.98,24.13L379.98,24.04L379.98,24.04L379.98,23.94L379.99,23.85L379.99,23.76L380.00,23.68L380.01,23.59L380.02,23.50L380.03,23.42L380.04,23.34L380.06,23.26L380.07,23.18L380.09,23.10L380.11,23.03L380.14,22.95L380.16,22.88L380.19,22.80L380.19,22.80L380.21,22.73L380.24,22.66L380.28,22.59L380.31,22.51L380.34,22.44L380.38,22.38L380.42,22.31L380.46,22.24L380.50,22.17L380.55,22.11L380.60,22.04L380.65,21.98L380.70,21.91L380.75,21.85L380.80,21.79L380.80,21.79L380.85,21.73L380.91,21.68L380.96,21.63L381.02,21.58L381.07,21.53L381.13,21.49L381.19,21.45L381.25,21.40L381.31,21.37L381.37,21.33L381.44,21.29L381.50,21.26L381.57,21.23L381.63,21.20L381.70,21.17L381.70,21.17L381.77,21.14L381.84,21.12L381.91,21.09L381.98,21.07L382.05,21.05L382.13,21.04L382.20,21.02L382.28,21.01L382.36,21.00L382.44,20.99L382.52,20.98L382.60,20.97L382.68,20.97L382.76,20.97L382.85,20.97L382.85,20.97L382.93,20.97L383.01,20.97L383.09,20.97L383.17,20.98L383.25,20.99L383.32,20.99L383.40,21.01L383.47,21.02L383.54,21.03L383.61,21.05L383.68,21.07L383.75,21.09L383.82,21.11L383.89,21.13L383.96,21.16L383.96,21.16L384.03,21.18L384.10,21.21L384.16,21.24L384.23,21.28L384.29,21.31L384.35,21.35L384.42,21.38L384.48,21.42L384.54,21.46L384.60,21.51L384.65,21.55L384.71,21.60L384.77,21.65L384.82,21.70L384.87,21.76L384.87,21.76L384.93,21.82L384.99,21.88L385.04,21.94L385.09,22.01L385.14,22.07L385.19,22.14L385.24,22.21L385.28,22.27L385.32,22.35L385.36,22.42L385.40,22.49L385.43,22.56L385.46,22.64L385.49,22.71L385.52,22.79L385.52,22.79L385.55,22.86L385.57,22.94L385.60,23.02L385.62,23.10L385.64,23.18L385.66,23.27L385.67,23.35L385.69,23.43L385.70,23.52L385.71,23.60L385.71,23.69L385.72,23.77L385.72,23.86L385.73,23.95L385.73,24.04zM383.70,24.07L383.70,24.07L383.70,24.03L383.70,23.99L383.70,23.96L383.69,23.92L383.69,23.89L383.69,23.85L383.68,23.81L383.68,23.77L383.67,23.74L383.66,23.70L383.66,23.66L383.65,23.62L383.64,23.58L383.63,23.55L383.63,23.51L383.63,23.51L383.62,23.47L383.61,23.43L383.59,23.40L383.58,23.36L383.57,23.33L383.55,23.30L383.54,23.27L383.52,23.24L383.50,23.21L383.48,23.18L383.46,23.15L383.44,23.13L383.42,23.10L383.40,23.08L383.38,23.05L383.38,23.05L383.36,23.04L383.35,23.03L383.34,23.02L383.33,23.01L383.31,23.00L383.30,22.99L383.29,22.98L383.27,22.97L383.26,22.96L383.24,22.95L383.23,22.94L383.21,22.93L383.20,22.92L383.18,22.91L383.17,22.91L383.17,22.91L383.15,22.90L383.13,22.89L383.12,22.88L383.10,22.88L383.08,22.87L383.06,22.87L383.04,22.86L383.03,22.86L383.01,22.85L382.99,22.85L382.97,22.85L382.95,22.85L382.93,22.85L382.91,22.85L382.89,22.85L382.89,22.85L382.87,22.85L382.85,22.85L382.83,22.85L382.81,22.85L382.79,22.85L382.77,22.85L382.76,22.86L382.74,22.86L382.72,22.87L382.70,22.87L382.69,22.88L382.67,22.88L382.66,22.89L382.64,22.90L382.63,22.91L382.63,22.91L382.61,22.91L382.60,22.92L382.58,22.93L382.56,22.94L382.55,22.95L382.53,22.97L382.52,22.98L382.50,22.99L382.48,23.00L382.47,23.02L382.45,23.03L382.44,23.05L382.42,23.06L382.41,23.08L382.39,23.10L382.39,23.10L382.37,23.12L382.35,23.14L382.33,23.17L382.32,23.19L382.30,23.22L382.28,23.25L382.27,23.27L382.25,23.30L382.24,23.33L382.22,23.36L382.21,23.39L382.20,23.42L382.19,23.45L382.18,23.49L382.17,23.52L382.17,23.52L382.16,23.56L382.15,23.59L382.15,23.63L382.14,23.66L382.13,23.70L382.13,23.73L382.12,23.77L382.11,23.80L382.11,23.84L382.11,23.87L382.10,23.91L382.10,23.95L382.10,23.98L382.10,24.02L382.10,24.05L382.10,24.05L382.10,24.09L382.10,24.12L382.10,24.16L382.10,24.19L382.11,24.23L382.11,24.27L382.11,24.30L382.12,24.34L382.13,24.38L382.13,24.41L382.14,24.45L382.15,24.49L382.15,24.52L382.16,24.56L382.17,24.59L382.17,24.59L382.18,24.63L382.19,24.66L382.20,24.70L382.21,24.73L382.23,24.76L382.24,24.79L382.26,24.82L382.27,24.85L382.29,24.88L382.31,24.91L382.33,24.94L382.35,24.96L382.37,24.99L382.39,25.01L382.41,25.04L382.41,25.04L382.42,25.05L382.43,25.06L382.44,25.08L382.46,25.09L382.47,25.10L382.48,25.12L382.50,25.13L382.51,25.14L382.53,25.15L382.54,25.16L382.56,25.17L382.58,25.18L382.59,25.18L382.61,25.19L382.63,25.20L382.63,25.20L382.64,25.20L382.66,25.21L382.68,25.21L382.70,25.22L382.71,25.23L382.73,25.23L382.75,25.24L382.77,25.24L382.79,25.24L382.81,25.25L382.83,25.25L382.85,25.25L382.86,25.25L382.88,25.26L382.91,25.26L382.91,25.26L382.93,25.26L382.95,25.26L382.96,25.25L382.98,25.25L383.00,25.25L383.02,25.25L383.03,25.25L383.05,25.24L383.07,25.24L383.08,25.23L383.10,25.23L383.12,25.22L383.14,25.21L383.15,25.21L383.17,25.20L383.17,25.20L383.19,25.19L383.20,25.18L383.22,25.17L383.24,25.16L383.25,25.15L383.27,25.14L383.28,25.13L383.30,25.12L383.31,25.11L383.33,25.10L383.34,25.09L383.35,25.08L383.37,25.06L383.38,25.05L383.39,25.04L383.39,25.04L383.41,25.01L383.43,24.99L383.45,24.96L383.47,24.94L383.48,24.91L383.50,24.88L383.52,24.85L383.53,24.82L383.55,24.79L383.56,24.76L383.57,24.73L383.59,24.70L383.60,24.66L383.61,24.63L383.63,24.59L383.63,24.59L383.63,24.56L383.64,24.52L383.65,24.48L383.66,24.45L383.66,24.41L383.67,24.38L383.68,24.34L383.68,24.31L383.69,24.27L383.69,24.24L383.69,24.20L383.70,24.17L383.70,24.14L383.70,24.10L383.70,24.07z"/><path style="fill:#663aa0" d="M386.43,12.60L386.43,12.60L386.43,12.62L386.43,12.63L386.43,12.65L386.43,12.66L386.42,12.67L386.42,12.69L386.41,12.70L386.41,12.71L386.40,12.72L386.40,12.74L386.39,12.75L386.38,12.76L386.38,12.77L386.37,12.78L386.36,12.80L386.36,12.80L386.35,12.81L386.34,12.82L386.33,12.83L386.32,12.84L386.31,12.85L386.29,12.86L386.28,12.87L386.27,12.88L386.25,12.89L386.24,12.90L386.23,12.91L386.21,12.92L386.20,12.93L386.18,12.93L386.17,12.94L386.17,12.94L386.16,12.95L386.14,12.95L386.13,12.96L386.12,12.96L386.10,12.97L386.09,12.97L386.08,12.98L386.06,12.98L386.05,12.98L386.03,12.99L386.02,12.99L386.01,12.99L385.99,13.00L385.98,13.00L385.96,13.00L385.96,13.00L385.95,13.00L385.93,13.01L385.91,13.01L385.90,13.01L385.88,13.01L385.86,13.01L385.84,13.01L385.82,13.01L385.80,13.02L385.78,13.02L385.76,13.02L385.74,13.02L385.72,13.02L385.70,13.02L385.68,13.02L385.68,13.02L385.66,13.02L385.65,13.02L385.64,13.02L385.63,13.02L385.62,13.02L385.62,13.02L385.61,13.02L385.61,13.02L385.61,13.02L385.61,13.02L385.61,13.02L385.60,13.02L385.60,13.02L385.60,13.02L385.59,13.02L385.59,13.02L385.59,13.02L385.58,13.02L385.58,13.02L385.57,13.02L385.57,13.02L385.57,13.02L385.56,13.02L385.56,13.02L385.55,13.02L385.55,13.02L385.55,13.02L385.54,13.02L385.54,13.02L385.54,13.02L385.54,13.02L385.49,12.78L385.49,12.78L385.49,12.78L385.49,12.78L385.50,12.78L385.50,12.78L385.50,12.78L385.51,12.78L385.51,12.78L385.52,12.78L385.53,12.78L385.53,12.78L385.54,12.78L385.55,12.78L385.55,12.78L385.56,12.78L385.56,12.78L385.56,12.78L385.57,12.78L385.58,12.78L385.58,12.78L385.59,12.78L385.60,12.78L385.61,12.78L385.61,12.78L385.62,12.78L385.63,12.78L385.63,12.78L385.64,12.78L385.65,12.78L385.66,12.78L385.66,12.78L385.67,12.78L385.67,12.78L385.68,12.78L385.69,12.78L385.70,12.78L385.71,12.78L385.72,12.78L385.73,12.78L385.74,12.78L385.75,12.78L385.76,12.78L385.77,12.78L385.78,12.78L385.80,12.78L385.81,12.78L385.82,12.78L385.83,12.78L385.83,12.78L385.84,12.78L385.85,12.78L385.86,12.78L385.87,12.78L385.88,12.78L385.89,12.78L385.90,12.77L385.91,12.77L385.92,12.77L385.93,12.77L385.94,12.76L385.95,12.76L385.96,12.76L385.97,12.75L385.98,12.75L385.98,12.75L385.98,12.75L385.99,12.75L386.00,12.75L386.01,12.75L386.02,12.74L386.02,12.74L386.03,12.74L386.04,12.73L386.04,12.73L386.05,12.72L386.06,12.72L386.06,12.71L386.07,12.70L386.07,12.70L386.08,12.69L386.08,12.69L386.08,12.69L386.09,12.68L386.10,12.68L386.10,12.67L386.10,12.66L386.11,12.66L386.11,12.65L386.11,12.64L386.12,12.64L386.12,12.63L386.12,12.62L386.12,12.62L386.12,12.61L386.12,12.60L386.12,12.59L386.12,12.59L386.12,12.58L386.12,12.57L386.12,12.57L386.12,12.56L386.12,12.55L386.12,12.55L386.12,12.54L386.12,12.54L386.11,12.53L386.11,12.53L386.11,12.52L386.10,12.52L386.09,12.51L386.09,12.51L386.08,12.50L386.08,12.50L386.07,12.50L386.06,12.49L386.06,12.49L386.05,12.48L386.04,12.48L386.04,12.47L386.03,12.47L386.02,12.47L386.02,12.47L386.01,12.46L386.01,12.46L386.00,12.46L385.99,12.46L385.98,12.46L385.98,12.46L385.98,12.46L385.97,12.46L385.97,12.46L385.96,12.46L385.96,12.46L385.95,12.46L385.95,12.46L385.94,12.46L385.94,12.46L385.93,12.46L385.92,12.46L385.92,12.46L385.91,12.46L385.90,12.46L385.90,12.46L385.89,12.46L385.89,12.46L385.88,12.46L385.87,12.46L385.86,12.46L385.86,12.46L385.85,12.46L385.85,12.46L385.84,12.46L385.83,12.46L385.83,12.46L385.82,12.46L385.82,12.46L385.81,12.46L385.80,12.46L385.79,12.46L385.79,12.46L385.79,12.46L385.78,12.46L385.77,12.46L385.77,12.46L385.76,12.46L385.76,12.46L385.75,12.46L385.75,12.46L385.75,12.46L385.75,12.46L385.75,12.46L385.74,12.46L385.74,12.46L385.74,12.46L385.73,12.46L385.73,12.46L385.73,12.46L385.72,12.46L385.72,12.46L385.71,12.46L385.71,12.46L385.70,12.46L385.70,12.46L385.70,12.46L385.70,12.46L385.69,12.46L385.69,12.46L385.69,12.46L385.68,12.46L385.68,12.46L385.67,12.46L385.67,12.46L385.64,12.27L385.64,12.27L385.66,12.27L385.68,12.27L385.71,12.26L385.73,12.26L385.75,12.26L385.77,12.25L385.79,12.25L385.80,12.25L385.82,12.24L385.84,12.24L385.86,12.23L385.87,12.23L385.89,12.22L385.90,12.21L385.92,12.21L385.92,12.21L385.93,12.20L385.95,12.20L385.96,12.19L385.97,12.18L385.98,12.17L385.99,12.17L386.00,12.16L386.01,12.15L386.01,12.14L386.02,12.13L386.03,12.12L386.03,12.11L386.03,12.10L386.03,12.09L386.04,12.08L386.04,12.08L386.04,12.06L386.04,12.06L386.03,12.05L386.03,12.04L386.03,12.03L386.03,12.03L386.03,12.02L386.03,12.02L386.03,12.01L386.03,12.01L386.02,12.01L386.02,12.00L386.02,12.00L386.01,11.99L386.01,11.99L386.01,11.99L386.00,11.98L385.99,11.98L385.99,11.97L385.98,11.97L385.98,11.96L385.97,11.96L385.97,11.96L385.96,11.95L385.96,11.95L385.95,11.95L385.95,11.95L385.94,11.95L385.93,11.94L385.93,11.94L385.92,11.94L385.92,11.94L385.91,11.94L385.91,11.94L385.90,11.94L385.89,11.94L385.89,11.94L385.88,11.94L385.87,11.94L385.87,11.94L385.86,11.93L385.85,11.93L385.85,11.93L385.84,11.93L385.83,11.93L385.82,11.93L385.81,11.93L385.81,11.93L385.81,11.93L385.80,11.93L385.79,11.93L385.78,11.93L385.77,11.93L385.77,11.93L385.76,11.93L385.75,11.93L385.74,11.93L385.74,11.93L385.73,11.93L385.72,11.93L385.71,11.93L385.71,11.93L385.70,11.93L385.70,11.93L385.69,11.93L385.68,11.93L385.68,11.93L385.67,11.93L385.67,11.93L385.66,11.93L385.66,11.93L385.65,11.93L385.65,11.93L385.65,11.93L385.64,11.93L385.64,11.93L385.63,11.93L385.63,11.93L385.62,11.93L385.62,11.93L385.62,11.93L385.61,11.93L385.61,11.93L385.60,11.93L385.60,11.93L385.59,11.93L385.59,11.93L385.59,11.93L385.58,11.93L385.58,11.93L385.58,11.93L385.57,11.93L385.57,11.93L385.57,11.93L385.56,11.93L385.61,11.69L385.71,11.69L385.71,11.69L385.73,11.69L385.74,11.69L385.76,11.69L385.77,11.69L385.79,11.69L385.80,11.69L385.81,11.69L385.83,11.69L385.84,11.69L385.86,11.69L385.87,11.69L385.89,11.69L385.90,11.69L385.92,11.69L385.93,11.69L385.93,11.69L385.95,11.69L385.96,11.70L385.97,11.70L385.99,11.70L386.00,11.70L386.01,11.71L386.03,11.71L386.04,11.71L386.05,11.72L386.06,11.72L386.08,11.72L386.09,11.73L386.10,11.73L386.11,11.73L386.12,11.74L386.12,11.74L386.14,11.74L386.15,11.75L386.16,11.76L386.18,11.76L386.19,11.77L386.20,11.78L386.21,11.78L386.22,11.79L386.23,11.80L386.24,11.81L386.25,11.81L386.26,11.82L386.27,11.83L386.28,11.84L386.28,11.86L386.28,11.86L386.29,11.87L386.30,11.88L386.31,11.89L386.31,11.90L386.32,11.91L386.32,11.92L386.33,11.93L386.33,11.94L386.34,11.96L386.34,11.97L386.34,11.98L386.34,11.99L386.34,12.00L386.34,12.02L386.34,12.03L386.34,12.03L386.34,12.05L386.34,12.06L386.34,12.07L386.34,12.08L386.34,12.10L386.34,12.11L386.33,12.12L386.33,12.13L386.32,12.14L386.32,12.15L386.31,12.16L386.31,12.17L386.30,12.18L386.29,12.18L386.28,12.19L386.28,12.19L386.28,12.20L386.27,12.21L386.26,12.22L386.25,12.23L386.24,12.24L386.23,12.24L386.22,12.25L386.21,12.26L386.21,12.27L386.20,12.27L386.19,12.28L386.18,12.28L386.17,12.29L386.16,12.29L386.15,12.30L386.15,12.30L386.15,12.30L386.17,12.30L386.18,12.31L386.20,12.31L386.21,12.32L386.22,12.33L386.23,12.33L386.25,12.34L386.26,12.35L386.27,12.35L386.28,12.36L386.30,12.37L386.31,12.37L386.32,12.38L386.33,12.39L386.34,12.40L386.34,12.40L386.35,12.41L386.36,12.42L386.37,12.43L386.38,12.44L386.39,12.45L386.39,12.46L386.40,12.48L386.40,12.49L386.41,12.50L386.41,12.52L386.41,12.53L386.42,12.55L386.42,12.56L386.42,12.58L386.42,12.59z"/><path style="fill:#663aa0;fill-rule:evenodd" d="M387.77,12.37L387.77,12.37L387.77,12.39L387.77,12.42L387.77,12.44L387.76,12.46L387.76,12.48L387.75,12.50L387.75,12.52L387.74,12.55L387.74,12.57L387.73,12.59L387.72,12.60L387.71,12.62L387.70,12.64L387.69,12.66L387.68,12.68L387.68,12.68L387.67,12.70L387.66,12.71L387.64,12.73L387.63,12.75L387.62,12.76L387.60,12.78L387.59,12.79L387.57,12.81L387.56,12.82L387.54,12.84L387.53,12.85L387.51,12.86L387.49,12.87L387.48,12.89L387.46,12.90L387.46,12.90L387.45,12.91L387.43,12.92L387.41,12.93L387.40,12.93L387.38,12.94L387.36,12.95L387.34,12.96L387.32,12.96L387.31,12.97L387.29,12.98L387.27,12.98L387.25,12.99L387.23,12.99L387.21,13.00L387.20,13.00L387.20,13.00L387.18,13.01L387.15,13.01L387.13,13.02L387.11,13.02L387.09,13.03L387.07,13.03L387.04,13.03L387.02,13.04L386.99,13.04L386.97,13.04L386.95,13.04L386.92,13.04L386.90,13.04L386.87,13.05L386.84,13.05L386.84,13.05L386.82,13.05L386.80,13.05L386.78,13.05L386.76,13.05L386.75,13.05L386.73,13.05L386.72,13.05L386.71,13.05L386.70,13.05L386.69,13.05L386.68,13.05L386.67,13.05L386.66,13.05L386.65,13.05L386.64,13.05L386.64,13.05L386.62,13.05L386.61,13.05L386.60,13.05L386.59,13.05L386.57,13.05L386.56,13.05L386.55,13.05L386.55,13.05L386.54,13.05L386.53,13.05L386.52,13.05L386.52,13.05L386.51,13.05L386.51,13.05L386.51,13.05L386.51,13.05L386.51,13.04L386.51,13.04L386.51,13.04L386.51,13.03L386.51,13.02L386.51,13.01L386.51,13.00L386.51,12.98L386.51,12.97L386.51,12.95L386.51,12.93L386.51,12.90L386.51,12.88L386.51,12.85L386.51,12.83L386.51,12.83L386.51,12.80L386.51,12.77L386.51,12.74L386.51,12.71L386.51,12.68L386.51,12.65L386.51,12.62L386.51,12.59L386.51,12.56L386.51,12.53L386.51,12.49L386.51,12.46L386.51,12.42L386.51,12.39L386.51,12.36L386.51,12.36L386.51,12.32L386.51,12.29L386.51,12.27L386.51,12.25L386.51,12.23L386.51,12.21L386.51,12.20L386.51,12.18L386.51,12.17L386.51,12.15L386.51,12.14L386.51,12.13L386.51,12.11L386.51,12.10L386.51,12.08L386.51,12.08L386.51,12.06L386.51,12.03L386.51,12.01L386.51,11.99L386.51,11.96L386.51,11.94L386.51,11.91L386.51,11.89L386.51,11.86L386.51,11.84L386.51,11.81L386.51,11.78L386.51,11.75L386.51,11.72L386.51,11.69L386.51,11.69L386.51,11.69L386.51,11.69L386.51,11.69L386.52,11.69L386.52,11.69L386.53,11.69L386.54,11.69L386.55,11.69L386.56,11.69L386.57,11.69L386.58,11.69L386.60,11.69L386.61,11.69L386.62,11.69L386.64,11.69L386.64,11.69L386.65,11.69L386.67,11.69L386.68,11.69L386.69,11.69L386.71,11.69L386.72,11.69L386.73,11.69L386.74,11.69L386.75,11.69L386.76,11.69L386.77,11.69L386.78,11.69L386.79,11.69L386.79,11.69L386.80,11.69L386.80,11.69L386.83,11.69L386.86,11.69L386.89,11.69L386.91,11.69L386.94,11.70L386.97,11.70L386.99,11.70L387.02,11.70L387.04,11.70L387.07,11.71L387.09,11.71L387.12,11.72L387.14,11.72L387.16,11.73L387.18,11.74L387.18,11.74L387.20,11.75L387.22,11.75L387.24,11.76L387.26,11.77L387.28,11.78L387.30,11.78L387.32,11.79L387.34,11.79L387.36,11.80L387.38,11.81L387.40,11.82L387.42,11.83L387.44,11.83L387.46,11.84L387.48,11.86L387.48,11.86L387.50,11.87L387.51,11.88L387.53,11.89L387.55,11.91L387.57,11.92L387.58,11.93L387.60,11.95L387.61,11.96L387.63,11.98L387.64,11.99L387.65,12.01L387.67,12.02L387.68,12.04L387.69,12.06L387.70,12.08L387.70,12.08L387.70,12.09L387.71,12.11L387.72,12.13L387.73,12.15L387.73,12.17L387.74,12.19L387.75,12.21L387.75,12.23L387.76,12.25L387.76,12.27L387.76,12.29L387.77,12.32L387.77,12.34L387.77,12.36L387.77,12.38zM387.43,12.37L387.43,12.37L387.43,12.36L387.43,12.34L387.43,12.33L387.43,12.31L387.43,12.30L387.42,12.29L387.42,12.28L387.42,12.26L387.42,12.25L387.41,12.24L387.41,12.23L387.40,12.21L387.40,12.20L387.39,12.19L387.39,12.18L387.39,12.18L387.38,12.17L387.37,12.16L387.37,12.15L387.36,12.13L387.35,12.12L387.34,12.11L387.34,12.10L387.33,12.10L387.32,12.09L387.31,12.08L387.30,12.07L387.29,12.06L387.28,12.05L387.27,12.04L387.25,12.03L387.25,12.03L387.24,12.03L387.23,12.02L387.22,12.01L387.21,12.01L387.20,12.00L387.18,12.00L387.17,11.99L387.16,11.99L387.15,11.98L387.13,11.98L387.12,11.97L387.11,11.97L387.09,11.97L387.08,11.96L387.06,11.96L387.06,11.96L387.05,11.96L387.03,11.95L387.02,11.95L387.01,11.95L386.99,11.95L386.98,11.95L386.97,11.95L386.96,11.95L386.94,11.94L386.93,11.94L386.92,11.94L386.91,11.94L386.90,11.94L386.88,11.94L386.87,11.94L386.84,11.94L386.84,11.94L386.84,11.96L386.84,11.97L386.84,11.99L386.84,12.00L386.84,12.01L386.84,12.03L386.84,12.04L386.84,12.05L386.84,12.06L386.84,12.08L386.84,12.09L386.84,12.10L386.84,12.11L386.84,12.12L386.84,12.13L386.84,12.46L386.84,12.46L386.84,12.47L386.84,12.49L386.84,12.51L386.84,12.53L386.84,12.55L386.84,12.57L386.84,12.59L386.84,12.61L386.84,12.63L386.84,12.66L386.84,12.68L386.84,12.70L386.84,12.73L386.84,12.76L386.84,12.78L386.87,12.78L386.87,12.78L386.88,12.78L386.90,12.78L386.91,12.78L386.92,12.78L386.93,12.78L386.94,12.78L386.96,12.78L386.97,12.78L386.98,12.77L386.99,12.77L387.01,12.77L387.02,12.77L387.03,12.76L387.05,12.76L387.06,12.75L387.06,12.75L387.08,12.75L387.09,12.75L387.10,12.74L387.12,12.74L387.13,12.74L387.14,12.73L387.15,12.73L387.16,12.73L387.17,12.72L387.18,12.72L387.19,12.71L387.20,12.71L387.21,12.70L387.22,12.70L387.23,12.69L387.23,12.69L387.24,12.68L387.25,12.68L387.27,12.67L387.28,12.66L387.29,12.65L387.30,12.64L387.31,12.63L387.32,12.62L387.33,12.61L387.34,12.60L387.35,12.59L387.35,12.58L387.36,12.57L387.37,12.56L387.37,12.55L387.37,12.55L387.38,12.53L387.38,12.52L387.39,12.51L387.39,12.50L387.40,12.49L387.40,12.47L387.40,12.46L387.41,12.45L387.41,12.44L387.41,12.42L387.41,12.41L387.41,12.40L387.42,12.38L387.42,12.37L387.42,12.36z"/><path style="fill:#663aa0;fill-rule:evenodd" d="M387.80,14.27L385.46,14.27L385.46,14.27L385.38,14.26L385.31,14.25L385.23,14.23L385.17,14.20L385.10,14.17L385.04,14.13L384.98,14.08L384.93,14.03L384.88,13.97L384.84,13.91L384.81,13.84L384.78,13.77L384.76,13.70L384.75,13.62L384.74,13.55L384.74,11.21L384.74,11.21L384.75,11.13L384.76,11.05L384.78,10.98L384.81,10.91L384.84,10.85L384.88,10.78L384.93,10.73L384.98,10.67L385.04,10.63L385.10,10.59L385.17,10.55L385.23,10.53L385.31,10.51L385.38,10.49L385.46,10.49L387.80,10.49L387.80,10.49L387.88,10.49L387.95,10.51L388.03,10.53L388.10,10.55L388.16,10.59L388.22,10.63L388.28,10.67L388.33,10.73L388.38,10.78L388.42,10.85L388.45,10.91L388.48,10.98L388.50,11.05L388.51,11.13L388.52,11.21L388.52,13.55L388.52,13.55L388.51,13.62L388.50,13.70L388.48,13.77L388.45,13.84L388.42,13.91L388.38,13.97L388.33,14.03L388.28,14.08L388.22,14.13L388.16,14.17L388.10,14.20L388.03,14.23L387.95,14.25L387.88,14.26L387.80,14.27zM385.46,10.83L385.46,10.83L385.42,10.83L385.38,10.84L385.34,10.85L385.31,10.86L385.27,10.88L385.24,10.90L385.21,10.93L385.18,10.96L385.16,10.99L385.13,11.02L385.11,11.05L385.10,11.09L385.09,11.13L385.08,11.17L385.08,11.21L385.08,13.55L385.08,13.55L385.08,13.59L385.09,13.63L385.10,13.66L385.11,13.70L385.13,13.74L385.16,13.77L385.18,13.80L385.21,13.83L385.24,13.85L385.27,13.87L385.31,13.89L385.34,13.91L385.38,13.92L385.42,13.93L385.46,13.93L387.80,13.93L387.80,13.93L387.84,13.93L387.88,13.92L387.92,13.91L387.95,13.89L387.99,13.87L388.02,13.85L388.05,13.83L388.08,13.80L388.11,13.77L388.13,13.74L388.15,13.70L388.16,13.66L388.17,13.63L388.18,13.59L388.18,13.55L388.18,11.21L388.18,11.21L388.18,11.17L388.17,11.13L388.16,11.09L388.15,11.05L388.13,11.02L388.11,10.99L388.08,10.96L388.05,10.93L388.02,10.90L387.99,10.88L387.95,10.86L387.92,10.85L387.88,10.84L387.84,10.83L387.80,10.83L385.46,10.83z"/></g></g><g/><g id="paperID" visibility="hidden" opacity="0.00" transform="scale(0.000100)"><path style="stroke:#000000;stroke-width:0.500;fill:#e6e6e6;fill-rule:evenodd" d="M-2000.00,-2000.00L2398.00,-2000.00L2398.00,2188.00L-2000.00,2188.00zM0.00,0.00L398.00,0.00L398.00,188.00L0.00,188.00z"/><path style="fill:#000000;fill-opacity:0.118" d="M3.00,188.00L398.00,188.00L398.00,3.00L401.00,3.00L401.00,191.00L3.00,191.00z"/></g><g><g><path style="stroke:#000000;stroke-width:0.353;fill:#f0f0ff" d="M11.82,55.49L186.66,55.49L186.66,66.95L11.82,66.95z"/><text xml:space="preserve" fill="#000000" stroke-width="0" x="16.23" y="64.31" font-size="8.24" opacity="1.00" font-family="MS Shell Dlg" font-weight="bold">Description</text><text xml:space="preserve" fill="#000000" stroke-width="0" x="169.17" y="64.31" font-size="8.18" opacity="1.00" font-family="MS Shell Dlg" font-weight="bold">Qty</text><path style="stroke:#000000;stroke-width:0.353" d="M164.76,55.49L164.76,66.95"/></g><g id="Line0"><path style="stroke:#000000;stroke-width:0.353;fill:#ffffff" d="M11.82,66.95L186.66,66.95L186.66,78.42L11.82,78.42z"/><text xml:space="preserve" fill="#000000" stroke-width="0" x="16.23" y="75.77" font-size="8.62" opacity="1.00" font-family="MS Shell Dlg">0068_Bottom side cover</text><text xml:space="preserve" fill="#000000" stroke-width="0" x="169.17" y="75.77" font-size="6.93" opacity="1.00" font-family="MS Shell Dlg">1</text><path style="stroke:#000000;stroke-width:0.353" d="M164.76,66.95L164.76,78.42"/></g><g id="Line8"><path style="stroke:#000000;stroke-width:0.353;fill:#f0f0ff" d="M11.82,78.42L186.66,78.42L186.66,89.88L11.82,89.88z"/><text xml:space="preserve" fill="#000000" stroke-width="0" x="16.23" y="87.23" font-size="8.63" opacity="1.00" font-family="MS Shell Dlg">0320_bottom side cover Assembly Kit</text><text xml:space="preserve" fill="#000000" stroke-width="0" x="169.17" y="87.23" font-size="6.93" opacity="1.00" font-family="MS Shell Dlg">1</text><path style="stroke:#000000;stroke-width:0.353" d="M164.76,78.42L164.76,89.88"/></g><g id="Line9"><path style="stroke:#000000;stroke-width:0.353;fill:#ffffff" d="M11.82,89.88L186.66,89.88L186.66,101.34L11.82,101.34z"/><text xml:space="preserve" fill="#000000" stroke-width="0" x="16.23" y="98.70" font-size="8.63" opacity="1.00" font-family="MS Shell Dlg">0351_Sponge tape 3mm Black</text><text xml:space="preserve" fill="#000000" stroke-width="0" x="169.17" y="98.70" font-size="6.93" opacity="1.00" font-family="MS Shell Dlg">1</text><path style="stroke:#000000;stroke-width:0.353" d="M164.76,89.88L164.76,101.34"/></g><g id="Line2"><path style="stroke:#000000;stroke-width:0.353;fill:#f0f0ff" d="M11.82,101.34L186.66,101.34L186.66,112.80L11.82,112.80z"/><text xml:space="preserve" fill="#000000" stroke-width="0" x="16.23" y="110.16" font-size="8.62" opacity="1.00" font-family="MS Shell Dlg">0546_Fender keyhole_V2</text><text xml:space="preserve" fill="#000000" stroke-width="0" x="169.17" y="110.16" font-size="8.18" opacity="1.00" font-family="MS Shell Dlg">2</text><path style="stroke:#000000;stroke-width:0.353" d="M164.76,101.34L164.76,112.80"/></g></g><g id="hotspot.0" ident="" onmouseover="ShowHotSpot(evt,&apos;0&apos;)" onmouseout="HideHotSpot(evt,&apos;0&apos;)" onmousemove="ShowToolTip(evt,&apos;0&apos;,&quot;Next Buttons&quot;)" opacity="0"><a xlink:href="0576_1.svg"><path style="fill:#00ff00;fill-rule:evenodd" d="M207.34,163.45L209.08,164.49L210.51,166.19L211.52,168.30L211.52,171.21L210.71,173.18L208.77,175.41L206.66,176.42L204.24,176.67L202.46,176.32L200.07,174.89L198.69,173.14L197.95,170.76L197.95,168.76L198.65,166.68L200.38,164.59L202.02,163.45L203.05,163.09L206.31,163.09zM208.78,169.32L208.74,170.50L204.08,173.15L202.46,173.19L202.47,166.31L203.52,166.19zM214.67,167.23L214.68,168.07L214.25,167.66L214.30,166.87zM223.36,168.08L223.01,168.01L222.95,166.91zM207.02,169.85L204.91,171.20L203.76,171.58L203.87,167.93zM213.48,169.35L215.36,169.45L213.55,169.69zM222.74,169.20L222.30,169.85L222.30,169.10L222.68,169.01zM224.38,170.76L223.56,170.82L223.66,170.38z"/></a></g><g id="hotspot.1" ident="" onmouseover="ShowHotSpot(evt,&apos;1&apos;)" onmouseout="HideHotSpot(evt,&apos;1&apos;)" onmousemove="ShowToolTip(evt,&apos;1&apos;,&quot;Home Button&quot;)" opacity="0"><a xlink:href="0576_0.svg"><path style="fill:#00ff00;fill-rule:evenodd" d="M384.58,162.40L386.35,164.10L387.71,166.91L387.71,170.17L386.66,172.60L384.11,174.92L382.03,175.62L378.99,175.63L376.61,174.54L374.52,172.45L373.78,171.11L373.33,167.98L374.03,165.53L375.91,162.89L377.84,161.70L379.25,161.36L382.14,161.35zM382.48,164.49L385.29,167.24L385.29,172.62L384.49,173.56L382.01,173.65L381.81,170.03L379.34,170.14L379.03,173.65L376.90,173.55L376.23,173.17L376.24,166.69L379.92,163.41L381.11,163.41z"/></a></g><g id="hotspot.2" ident="" onmouseover="ShowHotSpot(evt,&apos;2&apos;)" onmouseout="HideHotSpot(evt,&apos;2&apos;)" onmousemove="ShowToolTip(evt,&apos;2&apos;,&quot;0068_Bottom side cover&quot;)" opacity="0"><path style="fill:#00ff00;fill-rule:evenodd" d="M11.82,66.95L11.82,78.42L186.66,78.42L186.66,66.95zM297.38,33.42L298.73,46.35L299.42,48.78L301.17,52.25L303.29,54.64L305.73,56.72L348.10,78.68L347.98,79.69L258.32,133.24L257.03,133.24L214.32,110.94L212.57,109.56L209.77,105.77L208.02,101.96L207.34,98.11L206.65,90.47L206.65,86.76L296.54,33.09L297.03,33.07zM321.67,83.86L323.43,85.23L323.43,87.13L322.41,88.19L320.54,89.10L317.14,89.10L315.08,87.68L315.08,85.37L317.04,83.87L318.08,83.51L320.99,83.50zM275.86,112.65L276.53,114.56L275.15,116.34L273.28,117.25L270.22,117.25L268.17,116.17L267.78,115.15L267.77,113.85L268.74,112.71L270.82,111.66L274.08,111.65zM319.60,85.73L318.42,85.73L318.42,84.55L319.60,84.55zM271.25,112.83L272.70,112.71L272.58,113.77L271.26,113.76zM297.69,46.68L298.02,48.44L300.47,53.29L303.28,56.38L343.94,77.64L343.98,78.07L342.09,79.38L340.42,79.37L300.50,58.47L297.34,55.03L295.24,51.22L294.56,48.43L293.37,35.88L296.33,34.19zM281.75,48.86L281.01,49.61L281.01,48.53L281.75,48.09zM224.47,82.65L223.98,83.68L223.56,83.66L223.68,82.55L224.38,82.45zM212.55,98.47L213.59,101.60L216.05,105.39L218.85,107.80L258.80,128.74L258.81,129.12L256.58,130.48L255.65,130.47L215.36,109.55L212.20,106.12L210.46,103.33L209.42,100.21L208.38,89.77L208.28,86.66L210.73,85.19L211.16,85.22z"/></g><g id="hotspot.3" ident="" onmouseover="ShowHotSpot(evt,&apos;3&apos;)" onmouseout="HideHotSpot(evt,&apos;3&apos;)" onmousemove="ShowToolTip(evt,&apos;3&apos;,&quot;0546_Fender keyhole_V2&quot;)" opacity="0"><path style="fill:#00ff00;fill-rule:evenodd" d="M11.82,101.34L11.82,112.80L186.66,112.80L186.66,101.34zM321.67,83.86L323.43,85.23L323.43,87.13L322.41,88.19L320.54,89.10L317.14,89.10L315.08,87.68L315.08,85.37L317.04,83.87L318.08,83.51L320.99,83.50zM275.86,112.65L276.53,114.56L275.15,116.34L273.28,117.25L270.22,117.25L268.17,116.17L267.78,115.15L267.77,113.85L268.74,112.71L270.82,111.66L274.08,111.65zM319.60,85.73L318.42,85.73L318.42,84.55L319.60,84.55zM271.25,112.83L272.70,112.71L272.58,113.77L271.26,113.76z"/></g><g id="hotspot.4" ident="" onmouseover="ShowHotSpot(evt,&apos;4&apos;)" onmouseout="HideHotSpot(evt,&apos;4&apos;)" onmousemove="ShowToolTip(evt,&apos;4&apos;,&quot;0320_bottom side cover Assembly Kit&quot;)" opacity="0"><path style="fill:#00ff00;fill-rule:evenodd" d="M11.82,78.42L11.82,89.88L186.66,89.88L186.66,78.42z"/></g><g id="hotspot.5" ident="" onmouseover="ShowHotSpot(evt,&apos;5&apos;)" onmouseout="HideHotSpot(evt,&apos;5&apos;)" onmousemove="ShowToolTip(evt,&apos;5&apos;,&quot;0351_Sponge tape 3mm Black&quot;)" opacity="0"><path style="fill:#00ff00;fill-rule:evenodd" d="M11.82,89.88L11.82,101.34L186.66,101.34L186.66,89.88zM212.55,98.47L213.59,101.60L216.05,105.39L218.85,107.80L258.80,128.74L258.81,129.12L256.58,130.48L255.65,130.47L215.36,109.55L212.20,106.12L210.46,103.33L209.42,100.21L208.38,89.77L208.28,86.66L210.73,85.19L211.16,85.22z"/></g><g id="ToolTip" visibility="hidden" opacity="0" transform="translate(0,0)"><rect id="ToolTipShadow" opacity="0.20" fill="black" stroke="none" x="0" y="0" width="30" height="8"/><rect id="ToolTipBG" fill="#ffffe1" stroke="black" x="0" y="0" width="30" height="8"/><text xml:space="preserve" id="ToolTipText" fill="black" x="0" y="0" width="30" height="8">tooltip</text></g></g></svg>