<?xml version="1.0" encoding="UTF-8" standalone="yes"?><svg xmlns="http://www.w3.org/2000/svg" xmlns:xlink="http://www.w3.org/1999/xlink" width="297.000mm" height="210.000mm" viewBox="0.000000 0.000000 297.000000 210.000000" stroke-linejoin="round" stroke-linecap="round" fill="none" fill-rule="evenodd"><desc>Composer Export</desc><script type="text/ecmascript"><![CDATA[
if(typeof(top) != "undefined")
{
	top.ShowPaper = ShowPaper;
}
function ShowHotSpot(evt,hotspotid)
{
	var svgDocument = evt.target.ownerDocument;
	var strId = "hotspot."+hotspotid;
	var hotspot = svgDocument.getElementById(strId);
	if(hotspot)
		hotspot.setAttribute("opacity",".5");
}
function HideHotSpot(evt,hotspotid)
{
	var svgDocument = evt.target.ownerDocument;
	var strId = "hotspot."+hotspotid;
	var hotspot = svgDocument.getElementById(strId);
	if(hotspot)
		hotspot.setAttribute("opacity","0");

	var toolTip = svgDocument.getElementById('ToolTip');
	if(toolTip)
		toolTip.setAttribute("visibility","hidden");
}
function ShowToolTip(evt,hotspotid,strTooltip)
{
	if(strTooltip=="")
	return;

	// change text
	var svgDocument = evt.target.ownerDocument;
	var tiptext = svgDocument.getElementById('ToolTipText');
	if( !tiptext )
	return;
	tiptext.firstChild.nodeValue = " " + strTooltip + "  " ;

	// show tooltip before, else some refresh issue

	var toolTip = svgDocument.getElementById('ToolTip');
	if(!toolTip)
	return;

	toolTip.setAttribute("visibility","visible");
	toolTip.setAttribute("opacity",".95");

	// move tooltip
	// get viewbox

	var root = svgDocument.documentElement;
	var vbox = (root.getAttribute("viewBox")).split(' ');
	var x0 = parseFloat(vbox[0]);
	var y0 = parseFloat(vbox[1]);
	var vboxW = parseFloat(vbox[2]);
	var vboxH = parseFloat(vbox[3]);

	// get default width of svg

	var strW = root.getAttribute("width");
	var svgW = parseFloat(strW);
	if(strW.indexOf('mm') != -1)
	svgW *= 3.779;

	var strH = root.getAttribute("height");
	var svgH = parseFloat(strH);
	if(strH.indexOf('mm') != -1)
	svgH *= 3.779;  	// 96 dpi  -> 96/25.4 = 3.779

	// update the viewbox / width / height if svg is embedded in html with zoom fit all
	var realx0 = x0;
	var realy0 = y0;
	var realvboxW = vboxW;
	var realvboxH = vboxH;
	var realsvgW = svgW;
	var realsvgH = svgH;

	if ((typeof(top) == "undefined") || (typeof(top.svgctl1) != "undefined")) // embedded in html
	{
		// get window size in pxl

		svgW = window.innerWidth;
		svgH = window.innerHeight;

		// calculate real viewbox

		realsvgW = svgW;
		realsvgH = svgH;
		if((svgW / svgH) > (vboxW / vboxH))
		{
			realvboxW = (vboxH * svgW) / svgH;
			realvboxH = vboxH;
			realx0 = x0 - (realvboxW - vboxW)/2 ;
		}
		else
		{
			realvboxH = (vboxW * svgH) / svgW;
			realvboxW = vboxW;
			realy0 = y0 - (realvboxH - vboxH)/2 ;
		}
	}

	// get user zoom/pan

	var newScale = root.currentScale;
	var translation = root.currentTranslate;

	// transform pxl to user unit

	var xPos = (((evt.clientX+10- translation.x)/newScale) * realvboxW)/realsvgW  + realx0 ;
	var yPos = (((evt.clientY+5- translation.y)/newScale) * realvboxH)/ realsvgH  + realy0 ;
	var scaleForWidth = ( (1 / newScale) * realvboxH) / realsvgH;

	// move tooltip

	toolTip.setAttribute("transform", "translate(" + xPos + "," + yPos + ")" );

	// resize tooltip

	var fontsize = 12;
	tiptext.setAttribute("font-size",fontsize*scaleForWidth);
	tiptext.setAttribute("y", fontsize*scaleForWidth);
	var tipBG = svgDocument.getElementById('ToolTipBG');
	var outline = tiptext.getBBox();
	if(tipBG)
	{
		tipBG.setAttribute("stroke-width", 1*scaleForWidth);
		tipBG.setAttribute("width", Number(outline.width) );
		tipBG.setAttribute("height", Number(outline.height) + fontsize*.5*scaleForWidth );
	}
	var ToolTipShadow = svgDocument.getElementById('ToolTipShadow');
	if(ToolTipShadow)
	{
		ToolTipShadow.setAttribute("width", Number(outline.width) );
		ToolTipShadow.setAttribute("height", Number(outline.height) + fontsize*.5*scaleForWidth );
		ToolTipShadow.setAttribute("x", 3*scaleForWidth);
		ToolTipShadow.setAttribute("y", 3*scaleForWidth);
	}
}
function ShowPaper()
{
  var svgDocument = getDocument();
  var paper = svgDocument.getElementById("paperID");
  if(paper)
  {
    paper.setAttribute("transform","scale(1)");
    paper.setAttribute("opacity","1");
    paper.setAttribute("visibility","visible");
  }
  var svg = svgDocument.getRootElement();
  if(svg)
  {
    svg.setAttribute("width","307.000mm");
    svg.setAttribute("height","220.000mm");
    svg.setAttribute("viewBox","-5.000000 -5.000000 307.000000 220.000000");
  }
}
]]></script><defs/><g><path style="fill:#ffffff" d="M297.00,210.08L0.07,210.08L0.07,0.07L297.00,0.07z"/><path style="fill:#e5e5e5" d="M205.59,42.39L205.31,113.38L204.99,138.11L199.54,139.44L199.55,115.14L199.94,39.41L200.05,39.39z"/><path style="fill:#e5d9d0" d="M204.33,87.75L204.33,88.33L204.06,88.85L203.20,89.75L202.32,89.77L201.88,89.61L201.43,89.23L201.79,89.10L202.21,87.49L202.96,86.99L203.91,86.89z"/><path style="fill:#e5e5e5" d="M198.11,36.29L197.94,35.92L198.30,35.80z"/><path style="fill:#0000ff" d="M244.93,60.41L245.39,61.45L245.40,63.30L245.04,63.97L244.40,63.97L244.20,63.65L245.16,63.07L245.13,61.93L241.77,62.68L240.97,64.35L240.37,64.22L239.86,63.22L239.88,61.79L241.56,61.21L243.37,60.77L243.69,59.89L244.17,59.84z"/><path style="fill:#0000ff" d="M214.09,73.47L214.56,75.22L214.06,76.33L213.34,76.23L212.86,75.73L211.75,75.99L210.32,75.98L210.06,75.72L210.03,74.78L210.25,74.48L212.56,73.71L212.68,73.18L213.32,72.94z"/><path style="fill:#0000ff" d="M244.92,74.19L245.38,75.48L245.40,77.07L244.89,77.79L244.16,77.39L245.17,76.85L245.13,75.70L241.29,76.48L241.23,77.88L241.04,78.02L240.39,78.00L239.86,77.25L239.86,75.30L243.30,74.48L243.79,73.68L244.39,73.70z"/><path style="fill:#0000ff" d="M214.10,109.02L214.32,111.28L214.04,111.57L213.10,111.54L212.83,111.28L211.66,111.27L211.32,111.03L211.28,110.51L210.81,110.62L210.74,111.11L211.17,111.44L210.07,111.29L209.74,110.52L210.23,109.78L212.25,109.30L212.79,108.30L213.07,108.07z"/><path style="fill:#0000ff" d="M244.63,140.62L244.87,141.08L244.99,142.25L244.64,142.08L241.04,142.85L240.78,144.30L240.60,144.45L239.89,144.37L239.35,143.12L239.35,142.18L239.78,141.59L242.87,140.93L243.40,140.09z"/><path style="fill:#0000ff" d="M244.65,154.36L244.87,155.40L245.15,155.87L245.15,156.98L244.79,157.65L244.06,157.65L243.45,157.52L244.67,157.00L244.64,155.87L243.81,155.88L240.81,156.61L240.86,156.87L240.72,158.03L240.11,158.18L239.37,157.15L239.34,155.68L239.55,155.39L242.58,154.66L243.54,153.85L243.89,153.86z"/><path style="fill:#cdd1d5" d="M195.37,86.42L195.71,86.57L196.04,86.34L196.59,83.39L196.53,91.62L195.97,91.63L195.85,91.26L196.01,91.12L196.04,88.96L195.65,88.95L195.19,89.50L194.26,89.53L193.88,89.22L194.29,86.59L194.94,86.15L195.33,86.21z"/><path style="fill:#ffffff" d="M200.84,88.92L200.46,88.82L200.56,88.16z"/><path style="fill:#fff2e8" d="M201.85,35.90L201.82,36.48L200.97,36.66L199.03,36.67L198.11,36.29L198.30,35.80L198.95,35.38L201.06,35.39z"/><path style="fill:#fff2e8" d="M197.59,61.92L198.20,63.35L198.20,64.64L197.96,65.23L197.02,65.24L196.28,64.22L196.16,62.10L197.12,61.55z"/><path style="fill:#fff2e8" d="M202.54,88.10L203.24,87.71L203.56,87.74L203.58,88.60L203.21,89.02L202.82,89.02L202.55,88.75z"/><path style="fill:#fff2e8" d="M200.56,88.16L201.18,87.22L202.22,86.75L203.80,86.76L203.91,86.89L202.96,86.99L202.21,87.49L201.79,89.10L201.43,89.23L200.84,88.92z"/><path style="fill:#fff2e8" d="M197.34,110.51L197.95,111.95L197.94,113.47L197.71,113.83L196.81,113.80L196.31,113.29L196.03,112.57L195.91,110.70L196.87,110.14z"/><path style="fill:#e5d9d0" d="M197.35,63.19L197.30,63.55L196.70,63.55L196.77,63.02L197.08,62.93z"/><path style="fill:#e5d9d0" d="M198.20,64.64L198.20,63.35L198.29,63.45z"/><path style="fill:#e5d9d0" d="M197.09,111.78L197.04,112.16L196.72,112.14L196.68,111.55z"/><path style="fill:#e5d9d0" d="M197.94,113.47L197.95,111.95L198.04,112.04z"/><path style="fill:#0000e5" d="M240.94,62.45L240.89,62.80L240.28,62.80L240.28,62.19L240.63,62.14z"/><path style="fill:#0000e5" d="M245.16,63.07L244.20,63.65L240.97,64.35L241.77,62.68L245.13,61.93z"/><path style="fill:#0000e5" d="M212.07,75.56L211.20,75.47L212.03,74.95L212.31,74.94z"/><path style="fill:#0000e5" d="M240.93,76.25L240.89,76.58L240.31,76.58L240.04,75.92L240.38,75.72z"/><path style="fill:#0000e5" d="M245.17,76.85L244.16,77.39L241.23,77.88L241.29,76.48L245.13,75.70z"/><path style="fill:#0000e5" d="M213.23,110.24L213.48,109.99L213.84,110.03L213.86,110.66L213.61,110.91z"/><path style="fill:#0000e5" d="M211.32,111.03L211.66,111.27L211.17,111.44L210.74,111.11L210.81,110.62L211.28,110.51z"/><path style="fill:#0000e5" d="M244.99,142.25L244.62,143.43L243.68,143.72L240.78,144.30L241.04,142.85L244.64,142.08z"/><path style="fill:#0000e5" d="M239.82,142.31L240.38,142.35L240.39,142.96L240.07,142.97z"/><path style="fill:#0000e5" d="M240.25,156.02L240.30,156.66L239.81,156.73L239.53,156.08L239.77,155.84z"/><path style="fill:#0000e5" d="M240.81,156.61L243.81,155.88L244.64,155.87L244.67,157.00L243.45,157.52L240.72,158.03L240.86,156.87z"/><path style="fill:#e5e5e5" d="M238.64,57.95L238.12,57.95L238.03,57.42L238.34,57.42z"/><path style="fill:#e5e5e5" d="M245.57,59.47L244.17,59.84L243.69,59.89L241.55,60.30L241.62,59.26L245.64,58.43z"/><path style="fill:#e5e5e5" d="M197.12,61.55L196.16,62.10L196.27,61.52z"/><path style="fill:#e5e5e5" d="M196.40,82.85L195.84,83.07L195.97,82.73z"/><path style="fill:#e5e5e5" d="M246.82,85.26L246.06,85.35L246.06,58.45L246.92,58.21z"/><path style="fill:#e5e5e5" d="M196.87,110.14L195.91,110.70L196.02,110.11z"/><path style="fill:#e5e5e5" d="M218.71,72.44L218.07,74.04L217.83,76.06L217.85,114.12L217.52,114.35L217.01,114.39L216.81,113.82L216.83,78.57L217.07,74.29L218.10,72.32L219.04,71.69L219.33,71.69z"/><path style="fill:#e5e5e5" d="M240.63,158.89L240.58,159.13L238.59,159.13L238.54,158.89L239.02,158.62L240.15,158.62z"/><path style="fill:#e5e5e5" d="M246.39,160.99L245.55,160.99L245.81,134.10L246.67,133.85z"/><path style="fill:#e5e5e5" d="M245.14,160.71L241.05,161.75L241.05,160.64L244.31,159.89L245.14,159.88z"/><path style="fill:#0000ff" d="M243.68,143.72L244.62,143.43L244.99,142.25L245.15,143.46L244.88,143.95L243.85,143.84z"/><path style="fill:#e2e9ed" d="M196.59,83.39L196.04,86.34L195.71,86.57L195.37,86.42L195.33,86.21L195.56,85.84L195.84,83.07L196.40,82.85z"/><path style="fill:#e2e9ed" d="M193.52,86.56L193.94,85.97L194.94,86.15L194.29,86.59L193.88,89.22L193.53,89.02z"/><path style="fill:#e2e9ed" d="M196.01,91.12L195.85,91.26L195.65,88.95L196.04,88.96z"/><path style="fill:#ffffff" d="M204.82,87.49L204.82,88.60L204.07,89.85L202.23,90.51L201.04,90.50L200.73,90.00L201.88,89.61L202.32,89.77L203.20,89.75L204.06,88.85L204.33,88.33L204.33,87.75L203.91,86.89L204.32,86.99z"/><g id="Actor_7.0"><g style="stroke:#000000;stroke-width:0.176"><path d="M201.88,35.84L201.74,36.05L201.41,36.23L200.98,36.35L200.94,36.37L200.36,36.44L199.76,36.44L199.18,36.37L198.69,36.23L198.35,36.05L198.20,35.84"/><path d="M199.73,36.00L200.42,35.99L200.72,35.77L200.33,35.56L199.65,35.58L199.35,35.80L199.73,36.00"/><path d="M199.65,35.58L199.65,35.96"/><path d="M200.33,35.99L200.33,35.56"/></g><g style="stroke:#000000;stroke-width:0.529"><path d="M201.74,36.30L201.88,36.09L201.88,35.84L201.82,35.62L201.57,35.42L201.15,35.26L200.61,35.15L200.01,35.12L199.41,35.15L198.88,35.26L198.47,35.42L198.24,35.62L198.20,35.84L198.20,36.09L198.33,36.28"/></g></g><g id="Actor_7.1"><g style="stroke:#000000;stroke-width:0.176"><path d="M196.87,111.35L196.50,111.44L196.50,112.08L197.09,111.94L197.09,111.68"/><path d="M196.50,112.08L196.83,112.57L197.16,112.43L197.16,111.79L196.83,111.30L196.50,111.44"/><path d="M197.39,113.68L197.64,113.43L197.80,113.01L197.86,112.48L197.81,111.89L197.65,111.31L197.40,110.79L197.09,110.40L196.75,110.17L196.42,110.13"/><path d="M197.09,111.94L197.16,112.05"/><path d="M197.09,111.69L197.09,111.71L197.13,111.90L197.16,111.99"/><path d="M197.13,111.90L197.16,111.89"/><path d="M197.55,110.63L197.32,110.34"/></g><g style="stroke:#000000;stroke-width:0.529"><path d="M197.40,110.42L197.32,110.34L196.98,110.12L196.65,110.08L196.42,110.13L196.14,110.29L195.93,110.63L195.81,111.11L195.81,111.67L195.92,112.27L196.13,112.83L196.41,113.29L196.74,113.61L197.08,113.74L197.39,113.68L197.62,113.62L197.87,113.37L198.03,112.98"/></g></g><g id="Actor_11.0"><g style="stroke:#000000;stroke-width:0.176"><path d="M194.97,136.98L238.21,160.28L238.20,161.39"/><path d="M238.21,160.28L240.83,160.48L240.83,161.58"/><path d="M240.09,159.06L240.36,158.99L240.54,158.88L240.63,158.76L240.59,158.63L240.45,158.52L240.21,158.42L239.89,158.36L239.55,158.34L239.20,158.36L238.90,158.42L238.66,158.52L238.53,158.63L238.51,158.76L238.53,158.66L238.66,158.54L238.90,158.45L239.20,158.39L239.55,158.37L239.89,158.39L240.21,158.45L240.45,158.54L240.59,158.65L240.62,158.76"/><path d="M239.05,159.06L238.79,158.99L238.68,158.94L238.59,158.88L238.51,158.76"/><path d="M240.83,160.48L245.15,159.45"/></g><g style="stroke:#000000;stroke-width:0.529"><path d="M195.10,136.73L194.97,136.98L194.96,138.08L238.20,161.39L240.83,161.58L245.15,160.56L245.15,159.45L241.77,157.63"/><path d="M239.19,156.24L205.09,137.86"/><path d="M239.40,159.11L239.75,159.11L240.09,159.06L239.53,159.03L239.05,159.06L239.40,159.11"/></g></g><g id="Actor_7.2"><g style="stroke:#000000;stroke-width:0.176"><path d="M196.61,61.55L196.94,61.59L197.28,61.82L197.59,62.21L197.84,62.73L198.00,63.32L198.05,63.91L197.99,64.44L197.85,64.79L197.83,64.85L197.58,65.10"/><path d="M197.35,63.85L197.35,63.21L197.02,62.72L196.69,62.86L196.69,63.50L197.02,63.99L197.35,63.85"/><path d="M196.69,62.86L197.06,62.77"/><path d="M196.69,63.50L197.28,63.36L197.28,63.10"/><path d="M197.28,63.36L197.35,63.47"/><path d="M197.28,63.11L197.28,63.13L197.32,63.32L197.35,63.41"/><path d="M197.32,63.32L197.35,63.31"/><path d="M197.51,61.76L197.82,62.16L198.07,62.68L198.23,63.26L198.28,63.85L198.22,64.38"/></g><g style="stroke:#000000;stroke-width:0.529"><path d="M198.31,64.16L198.22,64.38L198.06,64.79L197.81,65.04L197.58,65.10L197.27,65.16L196.93,65.03L196.60,64.71L196.32,64.25L196.11,63.69L196.00,63.09L196.00,62.53L196.12,62.05L196.33,61.71L196.61,61.55L196.84,61.50L197.17,61.54L197.51,61.76L197.80,62.03"/></g></g><g id="Actor_5.0"><g style="stroke:#000000;stroke-width:0.176"><path d="M193.36,88.58L194.03,88.93L194.04,86.91L194.04,86.85L194.06,86.79L194.09,86.74L193.43,86.38"/><path d="M194.03,88.93L194.03,88.99L194.05,89.04L194.08,89.08L193.42,88.72"/><path d="M194.50,89.44L194.46,89.41L193.79,89.05"/><path d="M194.08,89.08L194.46,89.41"/><path d="M194.04,86.91L193.37,86.55"/><path d="M194.09,86.74L194.47,86.23L194.51,86.18L194.56,86.15L194.61,86.13L195.07,86.02L195.12,86.01L195.17,86.02L195.21,86.05L195.24,86.09L195.36,86.28L195.39,86.32L195.43,86.35L195.47,86.36L195.52,86.35L196.00,86.24L196.06,86.21L196.12,86.17L196.16,86.11L196.19,86.04L196.20,85.97L195.54,85.62"/><path d="M194.47,86.23L193.81,85.87"/><path d="M193.95,85.77L194.61,86.13"/><path d="M195.07,86.02L194.41,85.66"/><path d="M195.34,86.25L195.52,86.35"/><path d="M195.17,86.02L195.04,85.95"/><path d="M195.34,85.88L196.00,86.24"/><path d="M195.51,90.70L196.17,91.05L196.19,91.18L196.24,91.29L196.33,91.37"/><path d="M196.17,91.05L196.18,88.84L196.17,88.78L196.15,88.72L196.10,88.68L196.05,88.67L195.99,88.67L195.90,88.69L196.18,88.84"/><path d="M195.52,88.78L195.90,88.69"/><path d="M196.20,85.97L196.21,83.76L196.23,83.62L196.29,83.49L196.37,83.37L196.48,83.28L196.57,83.24"/><path d="M196.21,83.76L195.55,83.41"/><path d="M195.94,82.87L196.57,83.21"/></g><g style="stroke:#000000;stroke-width:0.529"><path d="M195.52,88.78L195.51,88.78L195.46,88.80L195.41,88.84L195.37,88.88L195.34,88.93L195.23,89.18L195.20,89.23L195.15,89.28L195.11,89.31L195.06,89.33L194.59,89.44L194.54,89.45L194.50,89.44L193.83,89.08L193.79,89.05L193.42,88.72L193.39,88.68L193.37,88.63L193.36,88.58L193.37,86.55L193.38,86.49L193.40,86.44L193.43,86.38L193.81,85.87L193.85,85.82L193.90,85.79L193.95,85.77L194.41,85.66L194.46,85.66L194.51,85.67L195.04,85.95"/><path d="M196.43,82.75L195.94,82.87L195.82,82.92L195.71,83.01L195.62,83.13L195.57,83.27L195.55,83.41L195.54,85.62L195.53,85.69L195.50,85.75L195.45,85.81L195.40,85.86L195.34,85.88L195.04,85.95"/><path d="M196.53,91.40L196.44,91.41L196.33,91.37L195.67,91.01L195.58,90.94L195.53,90.83L195.51,90.70L195.52,88.78"/></g></g><g id="Actor_11.1"><g style="stroke:#000000;stroke-width:0.176"><path d="M241.36,60.23L241.37,59.13L238.74,58.93L195.50,35.63"/><path d="M200.54,36.56L201.12,36.49L201.69,36.32L202.09,36.10L202.26,35.85L202.18,35.58L201.88,35.34L201.38,35.15L200.73,35.02L200.00,34.98L199.28,35.02L198.64,35.15L198.15,35.34L197.87,35.59L197.82,35.85L198.01,36.10L198.42,36.33L199.00,36.49L199.53,36.55"/><path d="M238.74,60.04L238.74,58.93"/><path d="M238.18,56.97L237.93,57.18L237.88,57.44L238.07,57.70L238.48,57.92L239.07,58.08L239.52,58.14L239.73,58.10L240.08,58.08L240.42,58.10L240.68,58.14L241.19,58.08L241.76,57.92L242.15,57.70L242.32,57.44L242.25,57.18L241.94,56.94L241.44,56.74L240.79,56.62L240.07,56.58L239.35,56.62L238.71,56.75L238.22,56.94L238.18,56.97"/><path d="M239.52,58.14L239.59,58.15"/><path d="M240.61,58.15L240.68,58.14"/><path d="M241.37,59.13L245.69,58.10"/></g><g style="stroke:#000000;stroke-width:0.529"><path d="M195.74,36.86L238.74,60.04L241.36,60.23L245.68,59.21L245.69,58.10L200.33,33.65L196.01,34.68L195.50,35.63L195.50,36.73L195.74,36.86"/><path d="M200.54,36.56L200.43,36.57L199.70,36.57L199.53,36.55"/><path d="M240.06,58.10L239.73,58.12L239.59,58.15L239.76,58.17L240.50,58.17L240.61,58.15L240.42,58.12L240.06,58.10"/></g></g><g id="Actor_10.0"><g style="stroke:#000000;stroke-width:0.176"><path d="M195.90,112.82L195.97,113.01L196.31,113.57L196.71,113.95L197.12,114.11L197.49,114.04L197.80,113.74L198.00,113.24L198.07,112.61L198.00,111.90L197.81,111.19L197.51,110.56L197.14,110.09L196.73,109.81L196.33,109.76L195.99,109.95L195.74,110.36L195.60,110.93L195.60,111.62L195.72,112.33L195.90,112.82"/><path d="M195.74,91.05L195.74,91.30L195.76,91.52L195.81,91.73L195.90,91.93L196.01,92.08L196.13,92.18L196.43,92.11"/><path d="M196.13,92.18L196.25,92.21L196.37,92.18L196.45,92.08L196.51,91.93L196.53,91.73L196.58,83.34L196.56,83.12L196.50,82.91L196.42,82.71L196.31,82.56L196.18,82.46L196.06,82.43L195.95,82.46L195.86,82.56L195.80,82.71L195.78,82.95"/><path d="M195.74,91.30L196.06,91.23"/><path d="M195.78,82.91L196.43,82.75"/><path d="M196.46,64.79L196.23,64.41L195.98,63.74L195.85,63.02L195.86,62.34L195.99,61.76L196.25,61.36L196.59,61.17L196.99,61.21L197.40,61.49L197.77,61.97L198.07,62.59L198.26,63.30L198.32,64.01L198.25,64.65L198.06,65.14L197.75,65.44L197.38,65.52L196.97,65.35L196.57,64.97L196.46,64.79"/><path d="M199.33,139.23L199.86,39.09"/><path d="M200.95,90.28L200.58,89.94L200.35,89.47L200.27,88.91L200.35,88.30L200.59,87.71L200.98,87.20L201.44,86.82L201.96,86.60L203.14,86.32L203.67,86.29L204.13,86.45L204.50,86.78L204.74,87.25L204.82,87.82L204.74,88.43L204.49,89.01L204.12,89.52L203.64,89.91L203.12,90.12L201.94,90.40L201.42,90.43L200.95,90.28"/><path d="M200.46,89.70L200.62,89.69L201.84,89.39"/><path d="M200.62,89.69L201.94,90.40"/><path d="M200.80,88.68L200.63,88.72L200.32,88.55"/><path d="M200.63,88.72L200.37,88.73L200.29,88.71"/><path d="M201.80,89.41L203.12,90.12"/><path d="M203.30,86.31L203.39,86.48"/></g><g style="stroke:#000000;stroke-width:0.529"><path d="M205.09,137.86L199.33,139.23L195.10,136.95L195.35,88.91"/><path d="M195.63,36.80L195.37,85.87"/></g></g><g id="Actor_2.0"><g style="stroke:#000000;stroke-width:0.176"><path d="M200.33,33.57L246.03,58.21L245.89,85.29"/><path d="M212.29,109.04L212.40,108.54L212.60,108.23L212.87,108.08L213.19,108.11L213.51,108.33L213.80,108.71L214.04,109.20L214.19,109.75L214.24,110.31L214.18,110.81L214.02,111.21L213.79,111.44L213.49,111.50L213.17,111.37L212.86,111.07L212.73,110.86"/><path d="M212.48,73.70L212.59,73.20L212.79,72.88L213.06,72.73L213.37,72.77L213.69,72.99L213.99,73.36L214.22,73.85L214.37,74.41L214.42,74.97L214.37,75.47L214.21,75.86L213.97,76.10L213.68,76.16L213.35,76.03L213.04,75.73L212.92,75.52"/><path d="M221.48,120.10L220.50,120.33L219.72,119.79L218.98,119.01L218.30,118.03L217.70,116.88L217.21,115.61L216.85,114.27L216.63,112.90L216.56,111.57L216.75,76.23L216.83,74.97L217.07,73.85L217.32,73.22L217.44,72.90L217.94,72.17L218.54,71.67L219.24,71.42L219.53,71.43"/><path d="M216.56,111.57L217.55,111.33"/><path d="M216.75,76.23L217.73,75.99"/><path d="M220.50,120.33L245.64,133.88L245.49,160.96"/><path d="M243.66,157.18L243.82,157.33L244.16,157.47L244.49,157.41L244.74,157.15L244.91,156.73L244.97,156.19L244.92,155.58L244.76,154.98L244.50,154.45L244.18,154.04L243.84,153.81L243.50,153.77L243.20,153.93L242.99,154.27L242.97,154.34"/><path d="M243.74,143.49L243.89,143.64L244.24,143.78L244.56,143.71L244.82,143.46L244.98,143.03L245.04,142.49L244.99,141.89L244.83,141.29L244.57,140.75L244.26,140.35L243.91,140.11L243.57,140.07L243.28,140.24L243.06,140.58L243.05,140.64"/><path d="M244.09,77.09L244.24,77.24L244.59,77.38L244.91,77.31L245.17,77.06L245.34,76.64L245.40,76.09L245.34,75.49L245.18,74.89L244.92,74.36L244.61,73.95L244.26,73.71L243.92,73.67L243.63,73.84L243.41,74.18L243.40,74.24"/><path d="M243.47,60.55L243.48,60.48L243.70,60.14L243.99,59.98L244.33,60.02L244.68,60.25L245.00,60.66L245.25,61.19L245.41,61.79L245.47,62.40L245.41,62.94L245.24,63.36L244.98,63.62L244.66,63.68L244.31,63.54L244.16,63.39"/><path d="M245.64,133.88L246.62,133.65"/><path d="M246.03,58.21L247.02,57.97"/></g><g style="stroke:#000000;stroke-width:0.529"><path d="M200.33,33.65L200.33,33.57L201.32,33.34L247.02,57.97L246.87,85.05L245.89,85.29L220.76,71.74L219.98,71.45L219.53,71.43L218.92,71.93L218.42,72.67L218.05,73.62L217.82,74.74L217.73,75.99L217.55,111.33L217.62,112.67L217.84,114.03L218.20,115.38L218.68,116.65L219.28,117.79L219.96,118.78L220.71,119.56L221.48,120.10L246.62,133.65L246.47,160.73L245.49,160.96L244.86,160.62"/></g></g><g id="Actor_2.1"><g style="stroke:#000000;stroke-width:0.176"><path d="M239.60,76.02L239.65,75.63L239.76,75.31L239.94,75.11L240.17,75.04L240.42,75.11L240.67,75.31L240.83,75.53L240.89,75.62L241.07,76.02L241.18,76.45L241.22,76.89L241.17,77.29L241.06,77.60L240.88,77.80L240.65,77.87L240.40,77.80L240.15,77.60L239.93,77.29L239.75,76.90L239.64,76.46L239.60,76.02L239.60,76.02L239.60,76.01"/><path d="M239.98,76.74L240.10,77.00L240.15,77.07L240.24,77.21L240.41,77.34L240.57,77.38L240.72,77.34L240.84,77.21L240.90,77.03L240.81,77.14L240.69,77.17L240.56,77.14L240.42,77.03L240.30,76.86L240.21,76.65L240.15,76.42L240.13,76.19L239.88,76.17L239.91,76.46L239.98,76.74"/><path d="M239.88,76.17L239.91,75.91L239.98,75.71L240.10,75.57L240.25,75.53L240.42,75.57L240.58,75.70L240.60,75.73L240.56,75.70L240.43,75.67L240.31,75.71L240.21,75.81L240.15,75.98L240.13,76.19L240.78,76.03"/><path d="M241.22,76.89L241.23,76.90L241.24,76.90L241.26,76.89L241.22,77.30L241.10,77.62L240.92,77.82L240.69,77.90"/><path d="M244.46,76.11L244.43,75.68L244.32,75.25L244.14,74.86L243.92,74.55L243.67,74.35L243.60,74.33L243.85,74.53L244.08,74.85L244.26,75.25L244.37,75.70L244.41,76.12L244.46,76.11L244.42,76.50L244.31,76.81L244.13,77.01L244.12,77.01L244.25,76.87L244.37,76.55L244.41,76.14L241.26,76.89L241.22,76.45L241.11,76.00L240.93,75.60L240.70,75.28L240.44,75.07L240.19,75.00"/><path d="M240.60,75.73L240.73,75.91L240.84,76.17L240.92,76.45L240.94,76.74L240.91,77.00L240.90,77.03"/><path d="M243.23,74.28L243.34,74.25L243.59,74.32L243.60,74.33"/><path d="M244.63,76.07L244.57,76.09L244.53,75.66L244.42,75.21L244.24,74.81L244.01,74.49L243.76,74.29L243.84,74.31L244.08,74.51L244.30,74.82L244.48,75.21L244.59,75.64L244.63,76.07L244.59,76.46L244.47,76.77L244.29,76.97L244.28,76.97L244.23,77.04L244.00,77.11L243.91,77.13L244.15,77.06L244.33,76.85L244.37,76.74L244.45,76.53L244.49,76.13L244.45,75.68L244.34,75.23L244.16,74.83L243.93,74.51L243.67,74.31L243.42,74.24L243.35,74.26"/><path d="M243.91,77.13L243.90,77.12L244.06,77.07L244.12,77.01"/><path d="M244.07,77.09L244.08,77.09L244.59,76.97L244.82,76.90L245.00,76.69L245.12,76.37L245.16,75.97L244.65,76.09L244.62,75.64L244.50,75.19L244.32,74.79L244.09,74.47L243.84,74.27L243.58,74.20L244.09,74.08L244.34,74.15L244.60,74.35L244.83,74.67L245.01,75.07L245.12,75.52L245.16,75.97"/><path d="M244.08,77.09L244.31,77.02L244.49,76.81L244.61,76.49L244.65,76.09"/><path d="M243.90,77.12L243.87,77.14"/><path d="M244.41,76.14L244.41,76.12"/><path d="M244.49,76.13L244.57,76.11L244.57,76.09"/><path d="M244.28,76.97L244.41,76.83L244.53,76.51L244.57,76.11"/><path d="M243.58,74.20L243.51,74.22L243.76,74.29L243.76,74.29"/><path d="M243.42,74.24L243.50,74.22L243.51,74.22"/><path d="M243.74,73.44L243.98,73.39L244.72,73.79L244.95,74.09L245.16,74.46L245.53,75.73L245.55,76.18L245.52,76.59L245.15,77.46L244.94,77.60"/></g><g style="stroke:#000000;stroke-width:0.529"><path d="M243.87,77.14L243.83,77.15L240.69,77.90L240.68,77.90L240.41,77.82L240.16,77.62L239.93,77.30L239.75,76.90L239.64,76.46L239.60,76.01L239.64,75.61L239.76,75.29L239.95,75.08L239.96,75.08L240.19,75.00L243.23,74.28"/><path d="M243.74,73.44L243.53,73.58L243.23,74.28"/><path d="M244.94,77.60L244.70,77.65L243.96,77.25L243.87,77.14"/></g></g><g id="Actor_8.0"><g style="stroke:#000000;stroke-width:0.176"><path d="M200.60,87.71L200.60,87.93"/><path d="M201.97,89.46L201.69,89.12L201.55,88.68L201.53,88.43L201.55,88.17L201.70,87.65L201.98,87.18L202.36,86.81L202.80,86.59L203.25,86.52L203.66,86.63"/><path d="M201.94,89.06L201.81,88.67L201.79,88.45L201.81,88.22L201.94,87.76L202.19,87.35L202.42,87.13L202.53,87.02L202.92,86.82L203.32,86.76L203.68,86.85L203.98,87.09L204.16,87.44L204.23,87.87L204.16,88.33L203.97,88.77L203.67,89.14L203.30,89.41L202.90,89.55L202.51,89.53L202.18,89.36L201.94,89.06"/><path d="M202.40,88.69L203.01,88.94L203.21,88.76L203.61,88.40L203.62,87.62L203.01,87.37L202.41,87.91L202.40,88.69"/><path d="M203.01,88.94L202.48,88.65L203.08,88.12L203.61,88.40"/><path d="M202.41,88.56L202.43,88.56L202.63,88.49L202.78,88.39L202.81,88.36L202.95,88.17L203.05,87.96L203.08,87.73L203.09,87.40"/><path d="M202.48,88.65L202.41,88.62"/><path d="M203.08,88.12L203.08,87.73L203.05,87.52L202.99,87.40"/><path d="M203.05,87.96L202.51,87.82"/><path d="M202.76,87.60L203.05,87.52"/></g><g style="stroke:#000000;stroke-width:0.529"><path d="M200.60,87.93L200.59,88.16L200.74,88.61L201.01,88.95L201.97,89.46L202.34,89.65L202.78,89.67L203.23,89.52L203.65,89.21L203.98,88.79L204.20,88.29L204.28,87.77L204.21,87.29L203.99,86.89L203.66,86.63L203.11,86.33"/><path d="M200.52,87.89L200.60,87.93"/></g></g><g id="Actor_2.2"><g style="stroke:#000000;stroke-width:0.176"><path d="M240.06,63.67L240.00,63.59L239.83,63.20L239.71,62.76L239.68,62.33L239.72,61.93L239.83,61.62L240.01,61.42L240.24,61.35L240.49,61.42L240.52,61.44L240.74,61.62L240.96,61.93L241.14,62.32L241.25,62.76L241.29,63.20L241.25,63.59L241.13,63.90L240.95,64.10L240.73,64.17L240.48,64.11L240.23,63.91L240.06,63.67"/><path d="M239.95,62.48L239.98,62.76L240.05,63.05L240.17,63.31L240.31,63.51L240.48,63.64L240.64,63.69L240.79,63.64L240.91,63.51L240.97,63.34L240.88,63.44L240.76,63.48L240.63,63.44L240.50,63.34L240.38,63.17L240.28,62.96L240.22,62.73L240.20,62.49L239.95,62.48L239.98,62.22L240.06,62.01L240.18,61.88L240.32,61.83L240.49,61.88L240.65,62.01L240.67,62.04L240.64,62.01L240.50,61.97L240.38,62.01L240.29,62.12L240.22,62.28L240.20,62.49L240.85,62.34"/><path d="M239.67,62.32L239.67,62.32L239.68,62.33"/><path d="M240.76,64.20L240.99,64.13L241.17,63.92L241.29,63.60L241.33,63.20L241.31,63.20L241.30,63.20L241.29,63.20"/><path d="M240.67,62.04L240.80,62.21L240.91,62.47L240.99,62.76L241.01,63.05L240.98,63.31L240.97,63.34"/><path d="M240.26,61.31L240.52,61.38L240.77,61.58L241.00,61.90L241.18,62.31L241.30,62.75L241.33,63.20L244.48,62.45L244.44,62.00L244.33,61.56L244.15,61.15L243.92,60.83L243.67,60.64L243.75,60.66L243.99,60.85L244.21,61.16L244.39,61.55L244.50,61.98L244.54,62.42L244.48,62.43"/><path d="M243.30,60.59L243.41,60.56L243.66,60.63L243.67,60.64"/><path d="M244.73,62.39L244.69,61.94L244.57,61.50L244.39,61.09L244.16,60.78L243.91,60.57L243.65,60.50L244.16,60.38L244.42,60.45L244.67,60.65L244.90,60.97L245.08,61.38L245.20,61.82L245.23,62.27L244.73,62.39L244.68,62.79L244.57,63.12L244.38,63.32L244.15,63.39L244.14,63.39L244.30,63.34L244.35,63.28L244.37,63.28L244.54,63.08L244.66,62.77L244.70,62.38L244.64,62.39L244.61,61.96L244.49,61.52L244.31,61.11L244.08,60.80L243.84,60.60L243.91,60.62L244.16,60.81L244.38,61.12L244.55,61.51L244.66,61.94L244.70,62.38"/><path d="M243.84,60.60L243.83,60.59L243.57,60.52L243.49,60.54L243.75,60.61L244.00,60.81L244.23,61.13L244.41,61.54L244.52,61.97L244.53,61.98L244.56,62.43L244.52,62.83L244.40,63.15L244.22,63.36L243.99,63.43L243.98,63.43L244.14,63.38L244.19,63.32L244.20,63.31L244.38,63.12L244.49,62.81L244.54,62.42"/><path d="M244.35,63.28L244.48,63.13L244.60,62.81L244.65,62.41L244.56,62.43"/><path d="M244.48,62.45L244.44,62.85L244.32,63.17L244.19,63.32"/><path d="M244.14,63.39L244.07,63.41L243.99,63.43"/><path d="M245.23,62.27L245.19,62.67L245.07,62.99L244.89,63.20L244.66,63.27L244.15,63.39"/><path d="M243.98,63.43L243.94,63.44"/><path d="M243.49,60.54L243.42,60.56"/><path d="M243.65,60.50L243.58,60.52"/><path d="M243.81,59.74L244.05,59.70L244.79,60.10L245.03,60.40L245.23,60.77L245.60,62.04L245.62,62.48L245.59,62.90L245.22,63.77L245.01,63.91"/><path d="M244.64,62.39L244.65,62.41"/></g><g style="stroke:#000000;stroke-width:0.529"><path d="M243.94,63.44L243.91,63.45L240.76,64.20L240.75,64.20L240.49,64.13L240.23,63.92L240.00,63.60L239.82,63.21L239.71,62.76L239.67,62.32L239.71,61.92L239.83,61.59L240.02,61.38L240.03,61.38L240.26,61.31L243.30,60.59"/><path d="M243.30,60.59L243.60,59.89L243.81,59.74"/><path d="M245.01,63.91L244.77,63.96L244.03,63.56L243.94,63.44"/></g></g><g id="Actor_2.3"><g style="stroke:#000000;stroke-width:0.176"><path d="M209.80,109.96L209.78,109.99"/><path d="M209.82,109.92L209.81,109.93"/><path d="M209.75,110.07L209.83,109.93L209.93,109.85L210.05,109.84L210.12,109.87L210.18,109.91L210.31,110.05L210.41,110.24L210.48,110.46L210.51,110.69L210.50,110.90L210.45,111.07L210.36,111.19L210.24,111.23L210.11,111.20L209.98,111.09"/><path d="M209.81,109.93L209.84,109.87L209.86,109.85L209.96,109.76L209.98,109.75L210.11,109.74L210.12,109.74L210.13,109.74L210.27,109.81L210.30,109.83L210.43,109.96L210.46,109.99L210.57,110.18L210.59,110.22L210.67,110.44L210.68,110.50L210.71,110.73L210.70,110.66L210.71,110.67L210.70,110.64L210.68,110.50"/><path d="M210.95,110.42L211.00,110.71L210.99,110.98L210.96,111.05L211.01,110.97L211.05,110.77L211.04,110.54L210.98,110.28L210.87,110.03L210.74,109.85L210.60,109.74L210.71,109.86L210.85,110.12L210.95,110.42L210.97,110.55L210.97,110.55"/><path d="M210.46,109.48L210.66,109.53L210.86,109.69L211.02,109.92L211.15,110.23L211.23,110.55L211.24,110.84L211.18,111.09L211.08,111.25L210.93,111.31"/><path d="M210.20,109.55L210.40,109.61L210.60,109.77L210.76,110.01L210.89,110.32L210.96,110.64L210.96,110.93L210.90,111.17L210.79,111.32L210.66,111.37"/><path d="M210.14,109.75L210.15,109.74L210.31,109.79L210.47,109.92L210.61,110.12L210.71,110.36L210.77,110.62L210.78,110.86L210.73,111.05L210.66,111.16L210.65,111.20L210.63,111.24L210.54,111.33"/><path d="M210.66,111.16L210.70,111.03L210.71,110.99L210.72,110.78L210.71,110.73"/><path d="M210.70,110.64L210.70,110.66"/><path d="M210.96,111.05L210.92,111.20L210.85,111.28"/><path d="M210.28,109.55L210.34,109.56L210.54,109.67L210.60,109.74"/><path d="M210.66,110.42L210.64,110.38L210.60,110.27"/><path d="M211.12,111.21L211.17,111.17L211.25,110.97L211.29,110.90L211.33,110.69L211.31,110.45L211.25,110.19L211.14,109.95L211.00,109.77L210.91,109.70L210.89,109.68L210.71,109.53L210.56,109.49L210.72,109.42L210.92,109.46L211.12,109.61L211.29,109.84L211.42,110.13L211.50,110.46L211.51,110.75L211.46,111.00L211.36,111.18L211.22,111.24"/><path d="M210.97,110.56L210.97,110.55L210.98,110.59"/><path d="M210.93,110.36L210.91,110.29L210.87,110.17"/><path d="M211.25,110.97L211.27,110.76L211.25,110.48L211.17,110.17L211.05,109.90L210.91,109.70"/><path d="M210.10,109.58L210.20,109.55"/><path d="M210.86,109.42L210.89,109.43L211.08,109.53L211.16,109.62L211.26,109.69L211.40,109.87L211.52,110.11L211.59,110.37L211.60,110.61L211.57,110.82L211.52,110.92L211.51,110.98L211.41,111.15L211.41,111.15"/><path d="M210.29,109.54L210.40,109.51"/><path d="M210.92,109.38L210.83,109.42"/><path d="M210.98,109.35L211.18,109.39L211.38,109.53L211.55,109.75L211.69,110.04L211.77,110.36L211.79,110.66L211.75,110.92L211.65,111.10L211.51,111.17"/><path d="M210.65,109.45L210.65,109.45L210.66,109.44"/><path d="M210.86,109.42L210.83,109.42"/><path d="M212.12,111.03L212.12,111.03"/><path d="M211.50,109.23L211.70,109.24L211.90,109.37L212.07,109.58L212.22,109.86L212.31,110.18L212.34,110.49L212.31,110.75L212.21,110.95L212.08,111.04"/><path d="M211.75,111.10L211.68,111.09L211.68,111.09L211.72,111.02L211.73,111.03"/><path d="M211.80,111.11L211.93,111.02L212.03,110.84L212.06,110.57L212.04,110.27L211.95,109.95L211.81,109.66L211.64,109.45L211.44,109.31L211.24,109.29"/><path d="M211.81,110.40L211.79,110.30L211.76,110.18L211.81,110.40L211.82,110.68L211.79,110.86L211.85,110.74L211.82,110.74"/><path d="M211.79,110.86L211.78,110.92L211.72,111.02"/><path d="M211.11,109.36L211.24,109.39L211.42,109.53L211.45,109.56L211.52,109.61L211.67,109.79L211.78,110.02L211.86,110.28L211.88,110.52L211.85,110.74L211.94,110.79"/><path d="M212.02,110.96L212.01,110.95L212.06,110.81L212.06,110.80L212.13,110.65L212.15,110.44L212.13,110.19L212.09,110.20"/><path d="M212.01,110.95L212.00,110.96L211.94,111.02"/><path d="M212.06,110.80L212.08,110.76L212.10,110.50L212.06,110.21L211.98,109.91L211.83,109.64L211.72,109.49L211.79,109.54L211.93,109.71L211.90,109.71"/><path d="M211.52,110.92L211.55,110.73L211.53,110.46L211.47,110.16L211.40,109.98L211.25,109.72L211.16,109.62"/><path d="M211.08,111.25L211.10,111.24"/><path d="M212.22,110.19L212.13,110.19L212.05,109.93L211.93,109.71L212.00,109.64"/><path d="M211.72,109.49L211.67,109.44L211.63,109.41L211.66,109.34"/><path d="M212.37,110.58L212.41,110.57L212.34,110.74L212.34,110.74L212.37,110.51L212.36,110.23L212.29,109.95L212.16,109.65L212.01,109.44L212.05,109.46L212.19,109.62L212.16,109.63"/><path d="M211.45,109.56L211.58,109.74L211.72,110.02L211.75,110.11L211.76,110.18"/><path d="M211.79,110.29L211.79,110.30L211.79,110.30"/><path d="M212.58,110.90L212.66,110.90L212.78,110.79L212.87,110.58L212.89,110.31L212.85,110.00L212.75,109.68L212.60,109.41L212.42,109.21L212.21,109.10L212.03,109.11"/><path d="M212.37,110.97L212.50,110.87L212.59,110.67L212.61,110.40L212.58,110.09L212.48,109.77L212.34,109.49L212.16,109.29L211.96,109.17L211.76,109.17"/><path d="M211.70,109.24L211.73,109.25L211.67,109.23"/><path d="M211.39,109.30L211.39,109.30L211.47,109.25"/><path d="M211.39,109.30L211.49,109.31L211.63,109.41"/><path d="M212.01,109.44L212.00,109.43L211.82,109.28L211.73,109.25"/><path d="M211.94,109.16L212.05,109.19L212.15,109.26L212.18,109.20"/><path d="M212.89,110.84L212.79,110.84L212.85,110.84L212.89,110.84L212.85,110.84L212.94,110.83L213.07,110.71L213.14,110.50L213.16,110.22L213.12,109.91L213.01,109.59L212.86,109.33L212.68,109.13L212.47,109.03L212.30,109.04L212.41,109.02L212.45,109.02L212.64,109.08L212.68,109.11L212.70,109.06"/><path d="M213.19,111.59L213.25,111.45L213.28,111.57"/><path d="M212.96,111.41L213.04,111.30L213.06,111.38"/><path d="M212.85,111.13L212.84,111.09L212.75,111.15"/><path d="M213.16,110.68L213.12,110.65L213.15,110.59L213.16,110.53L213.19,110.51L213.24,110.33L213.21,110.34"/><path d="M212.87,110.75L212.84,110.72L212.87,110.68L212.92,110.44L212.91,110.16L212.91,110.13L212.84,109.83L212.72,109.54L212.71,109.53L212.55,109.30L212.55,109.30L212.57,109.31L212.72,109.46L212.85,109.68L212.94,109.94L212.98,110.19L212.96,110.41L212.90,110.58L212.89,110.60"/><path d="M212.59,110.82L212.56,110.80L212.62,110.67L212.62,110.66L212.62,110.66L212.69,110.49L212.65,110.50"/><path d="M212.56,110.80L212.54,110.85L212.49,110.90"/><path d="M212.62,110.66L212.65,110.40L212.62,110.12L212.62,110.11L212.53,109.81L212.40,109.53L212.27,109.36L212.31,109.38L212.46,109.54L212.42,109.55"/><path d="M212.30,110.89L212.28,110.87L212.33,110.77L212.34,110.74"/><path d="M212.28,110.87L212.25,110.94L212.22,110.96"/><path d="M212.50,110.62L212.41,110.57L212.43,110.35L212.40,110.11L212.36,110.12"/><path d="M212.84,110.72L212.77,110.84L212.66,110.90"/><path d="M212.94,110.83L213.03,110.79L213.06,110.76L213.12,110.65"/><path d="M212.65,108.96L212.75,108.95L212.99,108.90L212.81,108.93L213.01,108.87L213.17,108.87L213.35,108.96L213.51,109.14L213.65,109.40L213.74,109.69L213.79,110.00L213.77,110.28L213.70,110.51L213.58,110.66L213.42,110.71L213.23,110.76L213.07,110.78L213.05,110.77"/><path d="M213.23,110.76L213.35,110.63L213.42,110.41L213.44,110.13L213.39,109.82L213.28,109.50L213.12,109.24L212.94,109.06L212.73,108.96L212.55,108.99L212.57,108.98L212.57,108.98"/><path d="M212.89,110.84L212.92,110.83"/><path d="M212.79,110.84L212.77,110.83"/><path d="M213.13,109.84L213.18,110.04L213.14,109.87L213.13,109.84L213.11,109.75L212.98,109.46L212.82,109.23L212.83,109.23L212.99,109.38L213.11,109.59L213.21,109.85L213.25,110.10L213.24,110.33L213.33,110.37"/><path d="M212.90,110.09L212.87,109.95L212.86,109.90"/><path d="M212.27,109.56L212.19,109.62L212.32,109.85L212.40,110.11L212.49,110.10"/><path d="M213.30,109.83L213.21,109.85L213.17,109.86"/><path d="M212.93,110.42L212.96,110.41L213.05,110.45"/><path d="M212.79,109.39L212.72,109.46L212.69,109.47"/><path d="M212.63,110.03L212.67,110.02L212.70,110.27L212.69,110.49L212.78,110.54"/><path d="M212.76,110.01L212.67,110.02L212.58,109.76L212.46,109.54L212.53,109.48"/><path d="M212.33,110.13L212.34,110.16L212.33,110.12L212.31,110.03"/><path d="M212.36,110.23L212.34,110.15"/><path d="M212.58,109.97L212.62,110.11"/><path d="M212.60,110.04L212.60,110.03"/><path d="M213.18,110.04L213.18,110.05L213.20,110.34L213.16,110.53"/><path d="M212.65,108.96L212.57,108.98"/><path d="M212.20,109.10L212.20,109.10"/><path d="M212.20,109.09L212.24,109.08"/><path d="M212.37,108.40L212.40,108.49L212.28,108.42"/><path d="M212.15,109.26L212.24,109.32L212.27,109.36"/><path d="M212.95,109.39L212.99,109.38L213.05,109.31"/><path d="M212.44,109.13L212.42,109.19L212.55,109.30"/><path d="M212.21,109.10L212.24,109.10L212.37,109.15L212.42,109.19"/><path d="M212.68,109.11L212.82,109.23"/><path d="M212.24,109.10L212.20,109.09"/><path d="M212.55,108.99L212.49,109.03"/><path d="M212.79,108.94L212.81,108.93"/><path d="M212.30,109.04L212.29,109.05L212.26,109.07"/><path d="M212.29,108.72L212.31,108.76L212.19,108.74"/><path d="M212.22,109.10L212.24,109.08"/><path d="M212.67,107.96L212.68,108.12L212.57,107.98"/><path d="M213.75,111.69L213.85,111.65L213.84,111.45L213.95,111.59L214.03,111.51L213.99,111.30L214.11,111.40L214.17,111.29L214.12,111.08L214.24,111.15L214.28,111.00L214.20,110.81L214.32,110.83L214.34,110.66L214.25,110.49L214.36,110.47L214.36,110.29L214.25,110.15L214.35,110.08L214.32,109.89L214.21,109.78L214.29,109.68L214.24,109.48L214.12,109.42L214.19,109.28L214.12,109.09L214.00,109.07L214.04,108.90L213.96,108.73L213.85,108.75L213.86,108.56L213.77,108.42L213.67,108.48L213.66,108.28L213.55,108.16L213.47,108.27L213.44,108.06L213.33,107.98L213.27,108.12L213.21,107.92L213.10,107.88L213.06,108.05L212.98,107.85L212.87,107.85L212.86,108.05L212.76,107.88"/><path d="M212.50,108.15L212.52,108.27L212.41,108.17"/><path d="M213.64,111.72L213.65,111.52L213.75,111.69"/><path d="M213.42,111.69L213.46,111.52L213.52,111.67"/></g><g style="stroke:#000000;stroke-width:0.529"><path d="M212.20,109.09L212.17,109.08L212.03,109.11L211.94,109.16L211.86,109.15L211.76,109.17L211.67,109.23L211.62,109.21L211.50,109.23L211.47,109.25L211.45,109.25L211.39,109.30L211.29,109.28L211.24,109.29L211.11,109.36L211.04,109.34L210.98,109.35L210.92,109.38L210.88,109.40L210.83,109.42L210.72,109.42L210.71,109.42L210.66,109.44L210.56,109.49L210.52,109.47L210.46,109.48L210.40,109.51L210.35,109.52L210.29,109.54L210.28,109.55L210.20,109.55L210.20,109.55L210.16,109.55L210.10,109.58L210.03,109.60L209.89,109.76L209.82,109.92L209.81,109.93L209.78,109.99L209.75,110.07L209.72,110.26L209.73,110.49L209.78,110.72L209.87,110.92L209.98,111.09L210.20,111.29L210.23,111.31L210.36,111.37L210.39,111.38L210.51,111.35L210.54,111.34L210.54,111.33L210.65,111.37L210.66,111.37L210.75,111.35L210.78,111.34L210.80,111.33L210.85,111.28"/><path d="M211.12,111.21L211.06,111.28L210.93,111.31L210.85,111.28"/><path d="M211.41,111.15L211.51,111.17L211.56,111.16L211.68,111.09"/><path d="M211.12,111.21L211.22,111.24L211.29,111.23L211.41,111.15"/><path d="M211.68,111.09L211.80,111.11L211.89,111.08L211.94,111.02"/><path d="M212.22,110.96L212.12,111.03L212.08,111.04L211.94,111.02"/><path d="M212.49,110.90L212.50,110.90L212.58,110.90L212.64,110.90L212.66,110.90L212.66,110.90"/><path d="M212.49,110.90L212.42,110.96L212.37,110.97L212.22,110.96"/><path d="M213.19,111.59L213.08,111.51L213.06,111.38"/><path d="M212.96,111.41L212.86,111.29L212.85,111.13"/><path d="M212.66,110.90L212.65,111.01L212.75,111.15"/><path d="M212.26,109.07L212.24,109.08"/><path d="M212.28,108.42L212.23,108.57L212.29,108.72"/><path d="M212.41,108.17L212.34,108.28L212.37,108.40"/><path d="M212.19,108.74L212.17,108.91L212.26,109.07"/><path d="M212.57,107.98L212.49,108.06L212.50,108.15"/><path d="M212.76,107.88L212.67,107.92L212.67,107.96"/><path d="M213.64,111.72L213.54,111.72L213.52,111.67"/><path d="M213.75,111.69L213.75,111.69"/><path d="M213.42,111.69L213.31,111.65L213.28,111.57"/></g></g><g id="Actor_2.4"><g style="stroke:#000000;stroke-width:0.176"><path d="M210.39,74.21L210.59,74.26L210.79,74.43L210.95,74.67L211.08,74.97L211.14,75.29L211.15,75.58L211.09,75.83L210.98,75.98L210.84,76.03"/><path d="M210.73,75.99L210.81,75.89L210.83,75.86L210.85,75.81L210.92,75.71L210.96,75.51L210.96,75.28L210.90,75.02L210.79,74.78L210.66,74.58L210.50,74.45L210.33,74.40L210.33,74.40L210.46,74.46L210.49,74.48L210.62,74.62L210.64,74.65L210.68,74.72L210.75,74.84L210.77,74.88L210.85,75.10L210.87,75.16L210.90,75.39L210.90,75.44L210.89,75.65L210.89,75.69L210.85,75.81"/><path d="M210.90,75.39L210.89,75.32L210.89,75.33L210.89,75.30L210.87,75.16"/><path d="M210.17,75.75L210.30,75.85L210.43,75.89L210.54,75.84L210.63,75.73L210.69,75.56L210.70,75.35L210.67,75.12L210.60,74.90L210.49,74.71L210.37,74.57L210.31,74.53L210.24,74.50L210.12,74.51L210.01,74.58L209.94,74.73"/><path d="M210.84,75.08L210.83,75.04L210.79,74.93"/><path d="M210.89,75.30L210.89,75.32"/><path d="M209.98,74.62L209.97,74.65"/><path d="M210.00,74.59L210.00,74.58"/><path d="M210.58,74.16L210.48,74.20"/><path d="M210.65,74.14L210.85,74.19L211.05,74.35L211.21,74.58L211.34,74.88L211.41,75.20L211.42,75.50L211.37,75.74L211.26,75.91L211.29,75.89"/><path d="M211.09,74.36L211.23,74.55L211.36,74.83L211.44,75.13L211.46,75.42L211.44,75.62L211.48,75.55L211.51,75.35L211.50,75.11L211.44,74.85L211.32,74.61L211.18,74.42L211.09,74.36L211.08,74.34L210.89,74.19L210.74,74.14L210.91,74.08L211.11,74.12L211.31,74.27L211.47,74.49L211.61,74.79L211.69,75.11L211.70,75.41L211.65,75.66L211.55,75.83L211.41,75.90"/><path d="M211.11,74.04L211.02,74.08"/><path d="M211.04,75.94L211.10,75.86L211.15,75.71L211.20,75.63L211.24,75.43L211.23,75.19L211.17,74.94L211.06,74.69L210.92,74.50L210.79,74.40L210.89,74.51L211.04,74.77L211.12,75.02L211.10,74.95L211.06,74.84"/><path d="M210.33,74.40L210.32,74.40L210.30,74.40L210.17,74.41L210.15,74.42L210.04,74.51L210.03,74.53L210.00,74.59"/><path d="M210.79,74.40L210.72,74.33L210.53,74.21L210.47,74.21"/><path d="M210.38,74.21L210.29,74.24"/><path d="M210.84,74.10L210.84,74.10"/><path d="M211.35,74.28L211.44,74.38L211.58,74.64L211.65,74.82L211.72,75.11L211.73,75.39L211.70,75.58L211.76,75.47L211.79,75.26L211.77,75.02L211.70,74.76L211.59,74.53L211.45,74.35L211.35,74.28L211.27,74.19L211.08,74.08L211.02,74.08"/><path d="M211.26,75.91L211.12,75.96"/><path d="M211.15,75.71L211.17,75.64L211.18,75.37L211.14,75.08L211.16,75.21"/><path d="M212.00,75.06L211.95,74.84L211.98,74.95L212.00,75.06L212.01,75.34L211.98,75.52L212.04,75.39L212.00,75.40"/><path d="M211.17,74.01L211.37,74.04L211.57,74.19L211.74,74.41L211.87,74.70L211.96,75.02L211.98,75.32L211.93,75.58L211.83,75.76L211.69,75.83"/><path d="M211.98,75.76L212.12,75.68L212.21,75.50L212.25,75.23L212.23,74.93L212.14,74.61L212.00,74.32L211.83,74.11L211.63,73.97L211.43,73.95"/><path d="M211.92,75.69L211.91,75.68L211.87,75.74L211.87,75.75L211.94,75.76"/><path d="M211.95,74.84L211.93,74.77L211.90,74.68L211.77,74.40L211.64,74.22L211.71,74.27L211.85,74.45L211.97,74.68L212.04,74.94L212.07,75.18L212.04,75.39L212.13,75.44"/><path d="M211.44,75.62L211.36,75.82L211.31,75.87"/><path d="M211.16,75.21L211.17,75.27"/><path d="M211.12,75.02L211.14,75.08"/><path d="M211.59,75.81L211.60,75.81L211.69,75.63L211.70,75.58"/><path d="M211.97,74.94L211.98,74.95L211.98,74.96"/><path d="M211.91,75.68L211.97,75.58L211.98,75.52"/><path d="M212.13,75.68L212.19,75.62L212.20,75.61L212.20,75.62"/><path d="M211.66,73.90L211.57,73.95L211.57,73.95"/><path d="M212.27,75.70L212.40,75.60L212.49,75.41L212.53,75.14L212.50,74.84L212.40,74.52L212.26,74.24L212.09,74.03L211.88,73.90L211.69,73.89"/><path d="M211.88,73.90L211.91,73.90L211.86,73.88"/><path d="M212.56,75.63L212.69,75.53L212.77,75.33L212.80,75.05L212.77,74.75L212.67,74.43L212.52,74.15L212.34,73.95L212.14,73.83L211.95,73.82"/><path d="M212.08,74.37L212.12,74.36L211.97,74.19L211.90,74.15L212.02,74.30L212.16,74.57L212.25,74.87L212.29,75.15L212.26,75.42L212.25,75.46L212.32,75.31L212.34,75.10L212.31,74.85L212.28,74.86"/><path d="M211.90,74.15L211.86,74.09L211.82,74.07L211.84,74.00"/><path d="M212.41,74.85L212.31,74.85L212.24,74.59L212.12,74.36L212.19,74.30"/><path d="M211.82,74.07L211.67,73.97L211.57,73.95"/><path d="M211.64,74.22L211.61,74.19L211.43,74.05L211.30,74.02"/><path d="M211.91,73.90L212.01,73.93L212.19,74.09L212.19,74.09L212.23,74.12L212.38,74.28L212.35,74.29"/><path d="M212.37,73.86L212.34,73.92L212.24,73.85L212.13,73.82"/><path d="M213.24,76.04L213.23,75.96L213.15,76.06"/><path d="M212.53,74.84L212.54,74.89L212.53,74.84L212.53,74.84"/><path d="M212.31,75.69L212.31,75.69"/><path d="M212.21,73.76L212.40,73.76L212.60,73.87L212.78,74.07L212.93,74.34L213.04,74.66L213.08,74.97L213.05,75.24L212.97,75.45L212.84,75.56L212.77,75.56"/><path d="M213.36,74.51L213.40,74.51L213.30,74.25L213.17,74.04L213.02,73.89L213.01,73.88L212.82,73.73L212.64,73.67L212.60,73.67L212.48,73.70L212.66,73.69L212.86,73.79L213.05,73.98L213.20,74.25L213.31,74.57L213.35,74.88L213.33,75.16L213.25,75.37L213.13,75.49L213.04,75.49L213.08,75.50L213.04,75.49L212.97,75.50L213.08,75.50"/><path d="M212.93,75.81L213.03,75.74L213.03,75.79"/><path d="M212.61,74.21L212.65,74.20L212.77,74.42L212.86,74.68L212.89,74.93L212.87,75.15L212.81,75.32L212.81,75.32L212.81,75.32L212.75,75.45L212.78,75.48"/><path d="M212.96,75.20L212.87,75.15L212.84,75.16"/><path d="M212.81,75.32L212.84,75.06L212.81,74.78L212.81,74.77L212.72,74.47L212.58,74.18L212.46,74.02L212.50,74.04L212.65,74.20L212.72,74.13"/><path d="M212.54,74.89L212.56,75.17L212.53,75.40L212.53,75.39L212.60,75.23L212.56,75.24"/><path d="M212.68,75.28L212.60,75.23L212.62,75.01L212.59,74.77L212.55,74.77"/><path d="M213.07,75.26L213.09,75.24L213.15,75.07L213.16,74.84L213.13,74.59L213.04,74.34L212.91,74.12L212.76,73.96L212.74,73.95L212.74,73.96L212.90,74.19L212.90,74.20L213.03,74.48L213.10,74.79L213.10,74.82L213.11,75.10L213.06,75.34L213.03,75.38L213.06,75.41"/><path d="M213.12,75.08L213.15,75.07L213.24,75.11"/><path d="M213.03,75.38L212.96,75.50L212.85,75.56"/><path d="M212.75,75.45L212.73,75.51L212.68,75.55"/><path d="M212.49,75.55L212.47,75.53L212.52,75.43L212.53,75.40"/><path d="M212.47,75.53L212.43,75.60L212.41,75.62"/><path d="M212.20,75.61L212.25,75.46"/><path d="M212.53,74.84L212.49,74.69L212.52,74.78L212.53,74.84"/><path d="M213.13,75.49L213.21,75.45L213.25,75.42L213.31,75.30L213.35,75.34"/><path d="M212.76,73.64L212.74,73.64L212.92,73.62L213.12,73.71L213.31,73.90L213.46,74.16L213.57,74.48L213.62,74.79L213.61,75.07L213.54,75.29L213.41,75.42L213.26,75.43L213.24,75.42"/><path d="M213.08,75.50L213.10,75.49"/><path d="M212.96,75.49L212.97,75.50"/><path d="M212.49,74.69L212.47,74.60L212.34,74.31L212.19,74.09"/><path d="M212.39,73.75L212.42,73.74"/><path d="M212.95,74.67L212.86,74.68L212.82,74.69"/><path d="M212.46,74.02L212.43,73.98L212.34,73.92"/><path d="M213.24,73.97L213.17,74.04L213.14,74.05"/><path d="M213.01,73.88L213.17,74.11L213.30,74.41L213.37,74.71L213.38,75.00L213.35,75.19L213.37,75.17L213.43,74.99L213.40,74.99"/><path d="M212.74,73.95L212.61,73.84L212.63,73.79"/><path d="M212.98,74.05L212.91,74.12L212.87,74.13"/><path d="M212.61,73.84L212.56,73.80L212.42,73.76L212.40,73.76"/><path d="M212.45,74.22L212.38,74.28L212.50,74.51L212.59,74.77L212.68,74.76"/><path d="M212.52,74.81L212.52,74.79"/><path d="M213.04,74.56L213.06,74.61L213.09,74.74"/><path d="M212.77,74.63L212.81,74.77"/><path d="M212.39,73.76L212.39,73.76"/><path d="M212.42,73.76L212.42,73.76L212.39,73.75"/><path d="M212.87,73.77L212.89,73.72"/><path d="M212.41,73.75L212.43,73.74"/><path d="M212.79,74.70L212.79,74.69"/><path d="M213.41,75.42L213.61,75.37L213.77,75.31L213.88,75.16L213.96,74.94L213.97,74.65L213.93,74.35L213.84,74.05L213.70,73.80L213.54,73.62L213.36,73.52L213.20,73.53L213.00,73.58L213.18,73.55L212.94,73.61L212.83,73.61"/><path d="M212.83,73.61L212.76,73.64"/><path d="M212.48,73.70L212.47,73.70L212.45,73.72"/><path d="M212.38,73.40L212.50,73.42L212.48,73.37"/><path d="M212.86,72.62L212.87,72.78L212.76,72.64"/><path d="M212.95,72.53L213.05,72.70L213.06,72.51L213.17,72.51L213.25,72.70L213.28,72.53L213.39,72.57L213.45,72.78L213.51,72.64L213.62,72.72L213.66,72.93L213.74,72.82L213.85,72.93L213.86,73.14L213.96,73.08L214.05,73.22L214.04,73.41L214.15,73.39L214.23,73.56L214.19,73.73L214.31,73.75L214.37,73.93L214.31,74.08L214.43,74.14L214.48,74.33L214.39,74.44L214.51,74.54L214.53,74.74L214.44,74.80L214.55,74.94L214.54,75.13L214.43,75.15L214.53,75.32L214.51,75.49L214.39,75.47L214.47,75.66L214.42,75.80L214.30,75.74L214.36,75.95L214.30,76.06L214.18,75.95L214.21,76.17L214.13,76.24L214.02,76.10L214.03,76.31L213.94,76.35"/><path d="M213.00,73.58L212.98,73.60"/><path d="M212.59,72.83L212.71,72.93L212.69,72.80"/><path d="M212.74,73.64L212.68,73.69"/><path d="M212.47,73.08L212.59,73.15L212.56,73.06"/><path d="M213.83,76.37L213.84,76.18L213.94,76.35"/><path d="M213.60,76.35L213.64,76.18L213.70,76.33"/><path d="M213.47,76.22L213.44,76.11L213.37,76.25"/><path d="M213.31,75.30L213.34,75.25L213.35,75.19"/><path d="M213.48,74.49L213.40,74.51L213.44,74.76L213.43,74.99L213.52,75.03"/><path d="M213.37,74.70L213.33,74.52L213.32,74.49"/></g><g style="stroke:#000000;stroke-width:0.529"><path d="M212.39,73.75L212.36,73.74L212.21,73.76L212.13,73.82L212.05,73.81L211.95,73.82L211.86,73.88L211.81,73.87L211.69,73.89L211.66,73.90L211.64,73.91L211.57,73.95L211.48,73.94L211.43,73.95L211.30,74.02L211.23,74.00L211.17,74.01L211.11,74.04L211.07,74.06L211.02,74.08L210.91,74.08L210.89,74.08L210.84,74.10L210.74,74.14L210.71,74.13L210.65,74.14L210.58,74.16L210.54,74.17L210.48,74.20L210.47,74.21L210.39,74.21L210.38,74.21L210.35,74.21L210.29,74.24L210.22,74.26L210.07,74.41L210.00,74.58L210.00,74.59L209.97,74.65L209.94,74.73L209.91,74.92L209.92,75.15L209.97,75.37L210.06,75.58L210.17,75.75L210.38,75.95L210.42,75.97L210.55,76.03L210.58,76.03L210.70,76.01L210.72,75.99L210.73,75.99L210.83,76.03L210.84,76.03L210.94,76.00L210.96,76.00L210.99,75.99L211.04,75.94"/><path d="M211.31,75.87L211.24,75.93L211.12,75.96L211.04,75.94"/><path d="M211.87,75.75L211.98,75.76L212.08,75.73L212.13,75.68"/><path d="M211.31,75.87L211.41,75.90L211.47,75.88L211.59,75.81"/><path d="M211.87,75.75L211.74,75.82L211.69,75.83L211.59,75.81"/><path d="M212.13,75.68L212.27,75.70L212.31,75.69L212.41,75.62"/><path d="M213.15,76.06L213.04,75.95L213.03,75.79"/><path d="M213.37,76.25L213.26,76.17L213.24,76.04"/><path d="M212.68,75.55L212.61,75.61L212.56,75.63L212.41,75.62"/><path d="M212.85,75.56L212.84,75.56L212.83,75.56L212.77,75.56L212.68,75.56L212.68,75.55"/><path d="M212.93,75.81L212.84,75.67L212.85,75.56"/><path d="M212.43,73.74L212.45,73.72"/><path d="M212.47,73.08L212.42,73.23L212.48,73.37"/><path d="M212.59,72.83L212.53,72.94L212.56,73.06"/><path d="M212.76,72.64L212.67,72.72L212.69,72.80"/><path d="M212.45,73.72L212.36,73.56L212.38,73.40"/><path d="M212.86,72.62L212.85,72.57L212.95,72.53"/><path d="M213.94,76.35L213.94,76.35"/><path d="M213.83,76.37L213.72,76.37L213.70,76.33"/><path d="M213.60,76.35L213.49,76.31L213.47,76.22"/></g></g><g id="Actor_2.5"><g style="stroke:#000000;stroke-width:0.176"><path d="M239.25,142.41L239.25,142.42L239.25,142.42L239.29,142.86L239.40,143.30L239.58,143.69L239.80,144.00L240.05,144.20L240.30,144.27L240.53,144.20L240.71,144.00L240.82,143.68L240.87,143.29L240.87,143.29L240.89,143.30L240.91,143.29L240.87,142.85L240.76,142.40L240.58,142.00L240.35,141.68L240.09,141.47L239.84,141.40"/><path d="M239.86,143.05L239.95,143.26L240.07,143.43L240.20,143.54L240.34,143.57L240.46,143.54L240.55,143.43L240.48,143.61L240.37,143.74L240.22,143.78L240.06,143.74L239.89,143.61L239.74,143.40L239.63,143.14L239.55,142.86L239.53,142.57L239.56,142.31L239.63,142.11L239.75,141.97L239.90,141.93L240.06,141.97L240.23,142.10L240.25,142.13L240.21,142.10L240.08,142.07L239.96,142.11L239.86,142.21L239.80,142.38L239.78,142.59L239.80,142.82L239.86,143.05"/><path d="M239.25,142.42L239.30,142.03L239.41,141.71L239.59,141.51L239.82,141.44L240.07,141.51L240.32,141.71L240.54,142.02L240.72,142.42L240.83,142.85L240.87,143.29"/><path d="M239.53,142.57L239.78,142.59L240.43,142.43"/><path d="M240.33,144.30L240.57,144.22L240.75,144.02L240.87,143.70L240.91,143.29L244.06,142.54L244.06,142.52L244.11,142.51L244.08,142.08L244.02,141.86L243.96,141.65L243.79,141.26L243.57,140.95L243.32,140.75L243.25,140.73L243.50,140.93L243.72,141.25L243.91,141.65L244.02,142.10L244.06,142.52"/><path d="M240.55,143.43L240.56,143.40L240.59,143.14L240.56,142.85L240.49,142.57L240.37,142.31L240.25,142.13"/><path d="M244.14,142.53L244.10,142.93L243.98,143.25L243.79,143.46L243.56,143.53L243.65,143.51L243.88,143.44L243.93,143.37L243.94,143.37L244.12,143.17L244.23,142.86L244.28,142.47L244.22,142.48L244.22,142.51L244.14,142.53L244.10,142.08L244.05,141.86L243.99,141.63L243.81,141.23L243.58,140.91L243.32,140.70L243.07,140.63L243.00,140.66L243.24,140.72L243.25,140.73"/><path d="M243.07,140.63L243.15,140.62L243.16,140.62L243.23,140.60L243.49,140.67L243.74,140.87L243.97,141.19L244.15,141.59L244.27,142.04L244.30,142.49L244.26,142.89L244.14,143.21L243.96,143.42L243.73,143.49L243.72,143.49"/><path d="M243.23,140.60L243.74,140.48L243.99,140.55L244.25,140.75L244.48,141.07L244.66,141.47L244.76,141.86L244.77,141.92L244.81,142.37L244.30,142.49"/><path d="M244.58,144.00L244.79,143.86L245.17,142.99L245.20,142.58L245.18,142.13L244.81,140.86L244.60,140.49L244.52,140.39L244.37,140.19L243.63,139.79L243.39,139.84"/><path d="M244.28,142.47L244.24,142.04L244.13,141.61L243.95,141.22L243.73,140.91L243.49,140.71L243.41,140.69L243.40,140.69L243.16,140.62"/><path d="M243.00,140.66L242.99,140.65L242.88,140.68"/><path d="M244.06,142.54L244.02,142.95L243.90,143.27L243.77,143.41L243.78,143.41L243.96,143.21L244.07,142.90L244.11,142.51"/><path d="M243.56,143.53L243.55,143.52L243.71,143.47L243.77,143.41"/><path d="M244.81,142.37L244.77,142.77L244.65,143.09L244.47,143.30L244.23,143.37L243.73,143.49"/><path d="M244.22,142.51L244.18,142.91L244.06,143.23L243.93,143.37"/><path d="M243.52,143.54L243.55,143.52"/><path d="M244.22,142.48L244.18,142.06L244.07,141.61L243.89,141.21L243.66,140.89L243.41,140.69"/></g><g style="stroke:#000000;stroke-width:0.529"><path d="M243.52,143.54L243.48,143.55L240.33,144.30L240.33,144.30L240.06,144.22L239.81,144.02L239.58,143.70L239.40,143.30L239.29,142.86L239.25,142.41L239.29,142.01L239.41,141.69L239.60,141.48L239.61,141.47L239.84,141.40L242.88,140.68"/><path d="M242.88,140.68L243.18,139.98L243.39,139.84"/><path d="M244.58,144.00L244.35,144.05L243.61,143.65L243.52,143.54"/></g></g><g id="Actor_2.6"><g style="stroke:#000000;stroke-width:0.176"><path d="M239.18,156.12L239.22,156.55L239.33,156.99L239.51,157.38L239.73,157.70L239.98,157.90L240.23,157.97L240.45,157.90L240.63,157.69L240.75,157.38L240.79,156.99L240.77,156.67L240.76,156.55L240.64,156.11L240.47,155.72L240.24,155.41L239.99,155.21L239.74,155.14L239.52,155.21L239.34,155.41L239.22,155.72L239.18,156.12L239.18,156.11L239.18,156.11"/><path d="M239.48,156.55L239.56,156.84L239.67,157.10L239.82,157.30L239.98,157.43L240.15,157.48L240.29,157.43L240.41,157.30L240.49,157.10L240.52,156.84L240.49,156.55L240.42,156.26L240.30,156.00L240.15,155.80L239.99,155.67L239.83,155.62L239.68,155.67L239.56,155.80L239.49,156.01L239.46,156.27L239.48,156.55"/><path d="M240.48,157.13L240.38,157.23L240.26,157.27L240.13,157.23L240.00,157.13L239.88,156.96L239.79,156.75L239.73,156.52L239.71,156.28L240.36,156.13"/><path d="M239.46,156.27L239.71,156.28L239.73,156.07L239.79,155.91L239.89,155.80L240.01,155.76L240.14,155.80L240.18,155.83"/><path d="M240.79,156.99L240.81,156.99L240.82,156.99L240.84,156.99L240.80,156.54L240.69,156.10L240.50,155.69L240.28,155.37L240.06,155.20L240.02,155.17L239.77,155.10"/><path d="M243.49,157.22L243.57,157.20L243.80,157.13L243.86,157.07L243.87,157.07L244.05,156.87L244.16,156.56L244.20,156.17L244.15,156.18L244.15,156.20L244.07,156.22L244.03,156.62L243.91,156.94L243.72,157.15L243.49,157.22L243.48,157.22L243.64,157.17L243.70,157.11L243.71,157.10L243.88,156.91L244.00,156.60L244.04,156.21L243.98,156.22L243.99,156.24L240.84,156.99L240.80,157.39L240.68,157.71L240.49,157.92L240.26,157.99"/><path d="M244.23,156.18L244.19,155.73L244.08,155.29L243.90,154.89L243.67,154.57L243.41,154.36L243.16,154.29L243.67,154.17L243.92,154.24L244.18,154.45L244.40,154.76L244.52,155.03L244.59,155.17L244.70,155.61L244.74,156.06L244.23,156.18L244.19,156.59L244.07,156.91L243.89,157.11L243.65,157.18L243.64,157.18"/><path d="M244.04,156.21L244.00,155.77L243.89,155.34L243.72,154.95L243.50,154.64L243.25,154.45L243.18,154.43L243.17,154.42L242.92,154.35L243.00,154.33L243.25,154.40L243.51,154.60L243.73,154.92L243.91,155.33L244.03,155.77L244.07,156.22"/><path d="M242.92,154.35L242.91,154.35L242.80,154.38"/><path d="M243.18,154.43L243.42,154.62L243.65,154.94L243.83,155.35L243.95,155.79L243.98,156.22"/><path d="M244.15,156.18L244.11,155.75L244.00,155.31L243.82,154.90L243.59,154.59L243.33,154.38L243.09,154.31L243.16,154.29"/><path d="M243.34,154.39L243.41,154.41L243.66,154.60L243.88,154.91L244.06,155.30L244.17,155.73L244.20,156.17"/><path d="M243.09,154.31L243.08,154.31L243.00,154.33"/><path d="M243.32,153.53L243.55,153.49L244.29,153.89L244.53,154.19L244.74,154.56L245.10,155.83L245.13,156.27L245.10,156.69L244.72,157.56L244.51,157.70"/><path d="M244.74,156.06L244.70,156.46L244.58,156.78L244.39,156.99L244.16,157.06L243.65,157.18"/><path d="M243.99,156.24L243.94,156.64L243.82,156.96L243.70,157.11"/><path d="M243.86,157.07L243.99,156.93L244.11,156.60L244.15,156.20"/><path d="M243.48,157.22L243.44,157.23"/></g><g style="stroke:#000000;stroke-width:0.529"><path d="M242.80,154.38L239.77,155.10L239.54,155.17L239.53,155.17L239.34,155.39L239.22,155.71L239.18,156.11L239.21,156.55L239.33,157.00L239.51,157.39L239.73,157.71L239.99,157.92L240.25,157.99L240.26,157.99L243.41,157.24L243.44,157.23"/><path d="M242.80,154.38L243.11,153.68L243.32,153.53"/><path d="M243.44,157.23L243.53,157.35L244.27,157.75L244.51,157.70"/></g></g><g/><g><g/><g><path style="fill:#ffffff" d="M31.40,15.34L80.47,15.34L80.47,26.63L31.40,26.63z"/><text xml:space="preserve" fill="#000000" stroke-width="0" x="32.81" y="23.10" font-size="6.88" opacity="1.00" font-family="MS Shell Dlg">0010-ASM-001</text></g></g><g><g/><g><path style="fill:#ffffff" d="M6.53,180.00L136.05,180.00L136.05,199.05L6.53,199.05z"/><text xml:space="preserve" fill="#000000" stroke-width="0" x="7.59" y="185.82" font-size="5.18" opacity="1.00" font-family="MS Shell Dlg">a) Insert Door latch head in the slot so that the head will</text><text xml:space="preserve" fill="#000000" stroke-width="0" x="7.59" y="191.11" font-size="5.17" opacity="1.00" font-family="MS Shell Dlg">protrude from the Door internal catcher.</text><text xml:space="preserve" fill="#000000" stroke-width="0" x="7.59" y="196.40" font-size="5.17" opacity="1.00" font-family="MS Shell Dlg">b) Tighten the head to the catcher</text></g></g><g><g/><g><path style="fill:#ffffff" d="M168.00,180.00L286.84,180.00L286.84,193.76L168.00,193.76z"/><text xml:space="preserve" fill="#000000" stroke-width="0" x="169.06" y="185.82" font-size="5.18" opacity="1.00" font-family="MS Shell Dlg">a)   </text><text xml:space="preserve" fill="#000000" stroke-width="0" x="169.06" y="191.11" font-size="5.16" opacity="1.00" font-family="MS Shell Dlg">b) </text></g></g><g><g/><g><image x="82.357201" y="12.409999" height="15.000001" width="15.000001" xlink:href="16_files/a565beb91934c822_image_0.jpg"/></g></g><g><g/><g><image x="14.945761" y="13.167144" height="15.000001" width="15.000001" xlink:href="16_files/a565beb91934c822_image_1.jpg"/></g></g><g id="paperID" visibility="hidden" opacity="0.00" transform="scale(0.000100)"><path style="stroke:#000000;stroke-width:0.500;fill:#e6e6e6;fill-rule:evenodd" d="M-2000.00,-2000.00L2297.00,-2000.00L2297.00,2210.00L-2000.00,2210.00zM0.00,0.00L297.00,0.00L297.00,210.00L0.00,210.00z"/><path style="fill:#000000;fill-opacity:0.118" d="M3.00,210.00L297.00,210.00L297.00,3.00L300.00,3.00L300.00,213.00L3.00,213.00z"/></g><g id="hotspot.0" ident="" onmouseover="ShowHotSpot(evt,&apos;0&apos;)" onmouseout="HideHotSpot(evt,&apos;0&apos;)" onmousemove="ShowToolTip(evt,&apos;0&apos;,&quot;Copy 1 of Copy 1 of  6&quot;)" opacity="0"><a xlink:href="17.svg"><path style="fill:#00ff00;fill-rule:evenodd" d="M97.22,27.07L82.40,27.07L82.40,12.25L97.22,12.25z"/></a></g><g id="hotspot.1" ident="" onmouseover="ShowHotSpot(evt,&apos;1&apos;)" onmouseout="HideHotSpot(evt,&apos;1&apos;)" onmousemove="ShowToolTip(evt,&apos;1&apos;,&quot;Copy 1 of Copy 1 of Copy 1 of  6&quot;)" opacity="0"><a xlink:href="15.svg"><path style="fill:#00ff00;fill-rule:evenodd" d="M29.90,27.92L15.08,27.92L15.08,13.10L29.90,13.10z"/></a></g><g id="hotspot.2" ident="" onmouseover="ShowHotSpot(evt,&apos;2&apos;)" onmouseout="HideHotSpot(evt,&apos;2&apos;)" onmousemove="ShowToolTip(evt,&apos;2&apos;,&quot;0578_Door internal catcher_V2&quot;)" opacity="0"><path style="fill:#00ff00;fill-rule:evenodd" d="M205.54,41.96L205.26,114.46L204.97,137.65L200.65,138.70L198.74,138.71L195.27,136.81L195.36,96.36L195.55,90.86L196.49,91.01L196.49,82.66L195.63,82.79L195.64,42.90L195.83,36.84L196.19,36.81zM197.68,61.70L198.19,62.88L198.21,64.42L197.53,64.91L197.08,64.88L196.19,63.76L196.19,61.55L197.35,61.45zM204.15,86.91L204.14,88.17L203.47,89.19L201.85,89.21L200.70,88.37L200.73,87.32L202.04,86.35L203.58,86.35zM197.32,110.13L197.92,111.24L197.83,113.25L196.49,113.23L195.91,111.84L195.89,110.47L196.64,109.84z"/></g><g id="hotspot.3" ident="" onmouseover="ShowHotSpot(evt,&apos;3&apos;)" onmouseout="HideHotSpot(evt,&apos;3&apos;)" onmousemove="ShowToolTip(evt,&apos;3&apos;,&quot;0579_Door edge_V2&quot;)" opacity="0"><path style="fill:#00ff00;fill-rule:evenodd" d="M242.32,56.10L245.74,58.06L245.72,59.02L242.22,59.78L238.62,59.79L195.64,36.58L195.62,35.24L196.47,34.39L200.45,33.44zM198.74,138.71L200.65,138.70L204.32,137.85L205.55,137.83L238.97,155.90L239.78,157.65L242.04,157.63L245.18,159.32L245.14,160.27L241.09,161.35L237.80,161.03L194.99,137.94L195.08,136.69zM201.62,35.14L201.92,35.44L201.80,36.02L200.65,36.31L199.31,36.31L198.36,36.10L198.45,35.25L200.15,34.88z"/></g><g id="hotspot.4" ident="" onmouseover="ShowHotSpot(evt,&apos;4&apos;)" onmouseout="HideHotSpot(evt,&apos;4&apos;)" onmousemove="ShowToolTip(evt,&apos;4&apos;,&quot;0078_Door front&quot;)" opacity="0"><path style="fill:#00ff00;fill-rule:evenodd" d="M246.87,57.77L246.84,84.76L246.49,85.01L245.71,84.98L220.25,71.36L219.12,71.47L217.97,73.71L217.70,89.85L217.70,112.96L217.97,114.39L219.40,117.77L220.84,119.44L240.62,130.21L246.59,133.57L246.55,153.49L246.29,160.58L245.03,160.49L245.18,159.32L242.04,157.63L239.78,157.65L238.97,155.90L205.18,137.65L205.54,60.72L205.73,42.22L206.09,42.19L238.62,59.79L242.22,59.78L245.72,59.02L245.74,58.06L242.32,56.10L200.98,33.77L200.62,33.43L200.88,33.16L201.30,33.15z"/></g><g id="hotspot.5" ident="" onmouseover="ShowHotSpot(evt,&apos;5&apos;)" onmouseout="HideHotSpot(evt,&apos;5&apos;)" onmousemove="ShowToolTip(evt,&apos;5&apos;,&quot;0202_Door latch head&quot;)" opacity="0"><path style="fill:#00ff00;fill-rule:evenodd" d="M195.35,85.64L195.63,82.76L196.49,82.66L196.49,91.01L195.91,90.95L195.55,90.70L195.40,88.92L193.91,88.95L193.57,88.72L193.66,85.89L194.13,85.48z"/></g><g id="hotspot.6" ident="" onmouseover="ShowHotSpot(evt,&apos;6&apos;)" onmouseout="HideHotSpot(evt,&apos;6&apos;)" onmousemove="ShowToolTip(evt,&apos;6&apos;,&quot;0250_M4X8 socket countersunk head screw&quot;)" opacity="0"><path style="fill:#00ff00;fill-rule:evenodd" d="M201.62,35.14L201.92,35.44L201.80,36.02L200.65,36.31L199.31,36.31L198.36,36.10L198.45,35.25L200.15,34.88zM197.68,61.70L198.19,62.88L198.21,64.42L197.53,64.91L197.08,64.88L196.19,63.76L196.19,61.55L197.35,61.45zM197.32,110.13L197.92,111.24L197.83,113.25L196.49,113.23L195.91,111.84L195.89,110.47L196.64,109.84z"/></g><g id="hotspot.7" ident="" onmouseover="ShowHotSpot(evt,&apos;7&apos;)" onmouseout="HideHotSpot(evt,&apos;7&apos;)" onmousemove="ShowToolTip(evt,&apos;7&apos;,&quot;0253_M4X10 socket head cap screw&quot;)" opacity="0"><path style="fill:#00ff00;fill-rule:evenodd" d="M204.15,86.91L204.14,88.17L203.47,89.19L201.85,89.21L200.70,88.37L200.73,87.32L202.04,86.35L203.58,86.35z"/></g><g id="ToolTip" visibility="hidden" opacity="0" transform="translate(0,0)"><rect id="ToolTipShadow" opacity="0.20" fill="black" stroke="none" x="0" y="0" width="30" height="8"/><rect id="ToolTipBG" fill="#ffffe1" stroke="black" x="0" y="0" width="30" height="8"/><text xml:space="preserve" id="ToolTipText" fill="black" x="0" y="0" width="30" height="8">tooltip</text></g></g></svg>