<?xml version="1.0" encoding="UTF-8" standalone="yes"?><svg xmlns="http://www.w3.org/2000/svg" xmlns:xlink="http://www.w3.org/1999/xlink" width="297.000mm" height="210.000mm" viewBox="0.000000 0.000000 297.000000 210.000000" stroke-linejoin="round" stroke-linecap="round" fill="none" fill-rule="evenodd"><desc>Composer Export</desc><script type="text/ecmascript"><![CDATA[
if(typeof(top) != "undefined")
{
	top.ShowPaper = ShowPaper;
}
function ShowHotSpot(evt,hotspotid)
{
	var svgDocument = evt.target.ownerDocument;
	var strId = "hotspot."+hotspotid;
	var hotspot = svgDocument.getElementById(strId);
	if(hotspot)
		hotspot.setAttribute("opacity",".5");
}
function HideHotSpot(evt,hotspotid)
{
	var svgDocument = evt.target.ownerDocument;
	var strId = "hotspot."+hotspotid;
	var hotspot = svgDocument.getElementById(strId);
	if(hotspot)
		hotspot.setAttribute("opacity","0");

	var toolTip = svgDocument.getElementById('ToolTip');
	if(toolTip)
		toolTip.setAttribute("visibility","hidden");
}
function ShowToolTip(evt,hotspotid,strTooltip)
{
	if(strTooltip=="")
	return;

	// change text
	var svgDocument = evt.target.ownerDocument;
	var tiptext = svgDocument.getElementById('ToolTipText');
	if( !tiptext )
	return;
	tiptext.firstChild.nodeValue = " " + strTooltip + "  " ;

	// show tooltip before, else some refresh issue

	var toolTip = svgDocument.getElementById('ToolTip');
	if(!toolTip)
	return;

	toolTip.setAttribute("visibility","visible");
	toolTip.setAttribute("opacity",".95");

	// move tooltip
	// get viewbox

	var root = svgDocument.documentElement;
	var vbox = (root.getAttribute("viewBox")).split(' ');
	var x0 = parseFloat(vbox[0]);
	var y0 = parseFloat(vbox[1]);
	var vboxW = parseFloat(vbox[2]);
	var vboxH = parseFloat(vbox[3]);

	// get default width of svg

	var strW = root.getAttribute("width");
	var svgW = parseFloat(strW);
	if(strW.indexOf('mm') != -1)
	svgW *= 3.779;

	var strH = root.getAttribute("height");
	var svgH = parseFloat(strH);
	if(strH.indexOf('mm') != -1)
	svgH *= 3.779;  	// 96 dpi  -> 96/25.4 = 3.779

	// update the viewbox / width / height if svg is embedded in html with zoom fit all
	var realx0 = x0;
	var realy0 = y0;
	var realvboxW = vboxW;
	var realvboxH = vboxH;
	var realsvgW = svgW;
	var realsvgH = svgH;

	if ((typeof(top) == "undefined") || (typeof(top.svgctl1) != "undefined")) // embedded in html
	{
		// get window size in pxl

		svgW = window.innerWidth;
		svgH = window.innerHeight;

		// calculate real viewbox

		realsvgW = svgW;
		realsvgH = svgH;
		if((svgW / svgH) > (vboxW / vboxH))
		{
			realvboxW = (vboxH * svgW) / svgH;
			realvboxH = vboxH;
			realx0 = x0 - (realvboxW - vboxW)/2 ;
		}
		else
		{
			realvboxH = (vboxW * svgH) / svgW;
			realvboxW = vboxW;
			realy0 = y0 - (realvboxH - vboxH)/2 ;
		}
	}

	// get user zoom/pan

	var newScale = root.currentScale;
	var translation = root.currentTranslate;

	// transform pxl to user unit

	var xPos = (((evt.clientX+10- translation.x)/newScale) * realvboxW)/realsvgW  + realx0 ;
	var yPos = (((evt.clientY+5- translation.y)/newScale) * realvboxH)/ realsvgH  + realy0 ;
	var scaleForWidth = ( (1 / newScale) * realvboxH) / realsvgH;

	// move tooltip

	toolTip.setAttribute("transform", "translate(" + xPos + "," + yPos + ")" );

	// resize tooltip

	var fontsize = 12;
	tiptext.setAttribute("font-size",fontsize*scaleForWidth);
	tiptext.setAttribute("y", fontsize*scaleForWidth);
	var tipBG = svgDocument.getElementById('ToolTipBG');
	var outline = tiptext.getBBox();
	if(tipBG)
	{
		tipBG.setAttribute("stroke-width", 1*scaleForWidth);
		tipBG.setAttribute("width", Number(outline.width) );
		tipBG.setAttribute("height", Number(outline.height) + fontsize*.5*scaleForWidth );
	}
	var ToolTipShadow = svgDocument.getElementById('ToolTipShadow');
	if(ToolTipShadow)
	{
		ToolTipShadow.setAttribute("width", Number(outline.width) );
		ToolTipShadow.setAttribute("height", Number(outline.height) + fontsize*.5*scaleForWidth );
		ToolTipShadow.setAttribute("x", 3*scaleForWidth);
		ToolTipShadow.setAttribute("y", 3*scaleForWidth);
	}
}
function ShowPaper()
{
  var svgDocument = getDocument();
  var paper = svgDocument.getElementById("paperID");
  if(paper)
  {
    paper.setAttribute("transform","scale(1)");
    paper.setAttribute("opacity","1");
    paper.setAttribute("visibility","visible");
  }
  var svg = svgDocument.getRootElement();
  if(svg)
  {
    svg.setAttribute("width","307.000mm");
    svg.setAttribute("height","220.000mm");
    svg.setAttribute("viewBox","-5.000000 -5.000000 307.000000 220.000000");
  }
}
]]></script><defs/><g><path style="fill:#ffffff" d="M297.00,210.08L0.07,210.08L0.07,0.07L297.00,0.07z"/><path style="fill:#e5e5e5" d="M250.39,11.36L250.42,12.47L246.97,14.10L245.56,13.83L244.41,15.29L244.05,15.34L203.48,33.15L203.30,35.98L202.80,128.16L197.80,130.44L197.79,86.33L198.04,39.49L198.30,31.23L243.54,11.34L246.64,11.19L246.82,10.33L247.38,10.33z"/><path style="fill:#fff2e8" d="M199.79,81.57L200.07,82.75L199.84,83.43L199.06,82.98L198.46,81.71L198.73,81.27L199.90,80.97z"/><path style="fill:#e5d9d0" d="M201.40,80.94L201.82,81.73L201.83,83.35L201.14,83.88L199.84,83.43L200.07,82.75L199.79,81.57L199.90,80.97L200.78,80.72z"/><path style="fill:#e5e5e5" d="M251.40,86.50L251.40,102.11L251.06,113.30L197.92,136.49L197.92,134.75L198.84,134.18L198.61,133.53L198.12,133.33L197.28,133.08L195.42,133.32L195.17,133.78L195.28,134.35L195.79,134.50L195.82,136.02L193.27,135.11L192.50,134.62L192.44,133.85L243.55,111.54L245.89,111.39L246.06,110.53L247.21,110.67L248.46,111.19L249.90,111.80L250.08,112.93L250.37,112.93L250.56,86.23L250.88,86.20z"/><path style="fill:#01ff02" d="M197.04,136.20L197.16,133.97L197.79,133.82L197.92,134.75L197.92,136.49L197.81,137.01L197.82,142.29L198.45,144.03L197.81,145.45L197.37,145.84L196.79,145.12L196.28,144.12L196.03,143.12L195.82,136.02L195.79,134.50L195.98,134.10L196.89,133.83z"/><path style="fill:#cdd1d5" d="M193.06,80.66L193.23,81.11L193.78,81.10L193.90,78.72L194.09,78.62L194.07,87.19L193.31,86.94L193.78,86.56L193.81,83.75L193.08,84.15L192.79,83.96L192.28,84.08L191.61,83.97L192.07,83.59L191.80,80.64L191.96,80.47L192.80,80.48z"/><path style="fill:#fff2e8" d="M195.78,56.71L196.06,57.36L195.41,59.60L194.97,59.99L194.04,59.96L193.79,59.70L193.80,57.54L194.45,56.67L195.06,56.45z"/><path style="fill:#fff2e8" d="M200.62,82.15L200.94,82.23L201.33,82.00L201.23,82.76L200.78,82.80L200.46,82.55L200.53,82.02z"/><path style="fill:#fff2e8" d="M195.83,105.01L195.83,105.94L195.69,106.97L195.55,107.40L194.95,108.03L193.79,108.04L193.54,107.79L193.52,105.85L194.44,104.77L195.57,104.76z"/><path style="fill:#fff2e8" d="M198.12,133.33L195.17,133.78L195.42,133.32L197.28,133.08z"/><path style="fill:#e5d9d0" d="M194.75,58.81L194.48,58.82L194.55,57.74L195.04,57.68z"/><path style="fill:#e5d9d0" d="M196.05,58.79L195.41,59.60L196.06,57.36z"/><path style="fill:#e5d9d0" d="M194.83,106.37L194.50,106.90L194.21,106.89L194.26,106.07L194.58,105.77z"/><path style="fill:#e5d9d0" d="M198.61,133.53L198.84,134.18L197.92,134.75L197.79,133.82L197.16,133.97L196.89,133.83L195.98,134.10L195.79,134.50L195.28,134.35L195.17,133.78L198.12,133.33z"/><path style="fill:#e5e5e5" d="M251.68,11.57L251.65,38.24L221.59,51.51L219.60,53.28L218.34,55.52L217.58,57.77L217.33,67.54L217.07,95.88L216.60,95.79L216.31,95.28L216.58,58.03L217.25,55.44L218.85,52.78L220.58,51.26L250.65,37.99L251.07,11.33L251.40,11.29z"/><path style="fill:#e5e5e5" d="M194.09,78.62L193.90,78.72L193.34,78.81L193.46,78.22L194.04,78.19z"/><path style="fill:#e5e5e5" d="M194.07,87.19L194.04,87.34L193.18,87.35L193.13,86.94L193.31,86.94z"/><path style="fill:#01e502" d="M197.16,133.97L197.04,136.20L196.89,133.83z"/><path style="fill:#01e502" d="M198.62,144.27L199.29,144.87L225.83,156.90L226.14,157.38L225.83,158.37L225.28,158.67L224.60,158.67L198.32,146.84L197.55,146.36L197.37,145.84L197.81,145.45L198.45,144.03z"/><path style="fill:#0000ff" d="M246.97,14.10L248.14,14.63L249.04,14.59L249.33,14.32L249.62,14.35L250.15,15.10L249.99,16.79L249.91,15.82L246.63,14.59L246.04,16.10L245.21,16.61L244.61,16.14L244.41,15.29L245.56,13.83z"/><path style="fill:#0000ff" d="M249.31,17.63L249.99,16.79L249.89,17.70L249.07,18.13L247.86,18.12L247.96,17.71z"/><path style="fill:#0000ff" d="M248.14,28.17L248.82,28.16L249.43,27.88L250.16,28.88L250.16,30.49L249.90,30.98L249.09,31.70L248.65,31.92L248.16,31.96L247.87,31.68L247.72,31.11L249.31,31.15L249.92,29.96L249.91,29.41L247.13,28.36L246.57,28.38L245.90,29.73L245.23,30.25L244.64,29.90L244.63,28.46L245.37,27.43L245.88,27.37z"/><path style="fill:#0000ff" d="M210.81,59.71L212.21,59.94L212.48,59.69L213.32,59.70L213.85,61.03L212.99,62.70L211.48,62.78L211.27,62.17L211.32,61.91L209.31,60.95L209.28,60.01L209.98,59.42z"/><path style="fill:#0000ff" d="M247.37,93.78L249.41,93.72L249.67,93.98L249.91,95.53L249.32,97.28L247.64,97.54L247.48,96.97L248.81,97.03L249.41,96.12L249.41,95.02L249.14,95.31L248.65,94.75L246.06,94.00L245.83,95.04L244.95,95.99L244.37,95.77L244.39,93.85L245.05,93.24L245.89,93.25z"/><path style="fill:#0000ff" d="M213.35,94.74L213.58,95.78L213.33,96.86L212.25,98.07L211.76,98.11L211.05,96.79L209.24,96.10L209.24,94.77L209.73,94.48L211.05,94.78L212.22,94.75L212.49,94.49L213.09,94.47z"/><path style="fill:#0000ff" d="M247.13,107.30L248.32,107.56L248.91,107.30L249.62,107.56L249.87,108.27L249.92,109.39L249.54,109.72L249.42,108.76L246.36,107.50L246.07,107.53L245.55,109.04L244.71,109.54L244.10,109.07L244.12,107.86L244.78,106.76L245.90,106.78z"/><path style="fill:#0000ff" d="M249.01,110.54L248.46,111.19L247.21,110.67L247.25,110.50z"/><path style="fill:#e2e9ed" d="M193.78,81.10L193.23,81.11L193.06,80.66L193.34,78.81L193.90,78.72z"/><path style="fill:#e2e9ed" d="M192.07,83.59L191.61,83.97L191.27,83.75L191.28,80.80L191.80,80.64z"/><path style="fill:#e2e9ed" d="M193.78,86.56L193.31,86.94L193.13,86.94L193.08,84.15L193.81,83.75z"/><path style="fill:#0000e5" d="M249.91,15.82L249.99,16.79L249.31,17.63L247.96,17.71L245.21,16.61L246.04,16.10L246.63,14.59z"/><path style="fill:#0000e5" d="M245.88,15.73L245.31,15.72L245.40,14.66L245.88,14.58z"/><path style="fill:#0000e5" d="M249.91,29.41L249.92,29.96L249.31,31.15L247.72,31.11L245.23,30.25L245.90,29.73L246.57,28.38L247.13,28.36z"/><path style="fill:#0000e5" d="M245.81,29.16L245.05,29.23L245.29,28.36L245.56,28.08L245.88,28.11z"/><path style="fill:#0000e5" d="M213.16,61.09L212.85,61.83L212.64,61.39L213.11,60.96z"/><path style="fill:#0000e5" d="M248.65,94.75L249.14,95.31L249.41,95.02L249.41,96.12L248.81,97.03L247.48,96.97L244.95,95.99L245.83,95.04L246.06,94.00z"/><path style="fill:#0000e5" d="M244.95,94.98L244.75,94.26L245.04,93.96L245.65,94.00L245.67,94.60L245.40,95.08z"/><path style="fill:#0000e5" d="M212.85,96.61L212.47,97.04L211.98,97.11L212.06,96.63L212.55,96.32L212.83,95.76z"/><path style="fill:#0000e5" d="M249.42,108.76L249.54,109.72L249.01,110.54L247.25,110.50L244.71,109.54L245.55,109.04L246.07,107.53L246.36,107.50z"/><path style="fill:#0000e5" d="M244.89,107.59L245.38,107.51L245.38,108.65L244.89,108.57z"/><path style="fill:#ffffff" d="M245.70,12.86L245.66,13.18L243.85,13.10L243.80,12.86L244.28,12.60L245.42,12.58z"/><path style="fill:#ffffff" d="M201.40,80.94L202.05,80.98L202.54,82.60L201.98,83.75L201.14,83.88L201.83,83.35L201.82,81.73z"/><path style="fill:#ffffff" d="M245.94,113.01L246.19,113.65L245.32,114.07L243.79,114.07L243.81,112.52L245.15,112.54z"/><g id="Actor_7.0"><g style="stroke:#000000;stroke-width:0.176"><path d="M195.16,104.46L195.46,104.71L195.65,105.12L195.71,105.64L195.64,106.23L195.45,106.80L195.16,107.31L194.79,107.70L194.39,107.92L194.00,107.96"/><path d="M194.10,106.67L194.49,106.81L194.88,106.33L194.88,105.69L194.50,105.55L194.10,106.04L194.10,106.67L194.50,106.80"/><path d="M194.64,106.63L194.64,106.22L194.10,106.04"/><path d="M194.64,106.22L194.84,105.98L194.77,106.08L194.69,106.26L194.64,106.45L194.64,106.54L194.64,106.62"/><path d="M194.99,107.77L195.36,107.39L195.66,106.88L195.85,106.30L195.92,105.72L195.85,105.19"/><path d="M195.32,107.46L195.34,107.44"/><path d="M194.88,105.95L194.87,105.93L194.88,105.93"/><path d="M194.87,105.93L194.84,105.98L194.88,105.92"/><path d="M195.93,105.67L195.93,105.71"/></g><g style="stroke:#000000;stroke-width:0.529"><path d="M195.32,107.46L194.99,107.77L194.60,108.00L194.21,108.03L194.00,107.96L193.67,107.80L193.42,107.47L193.29,106.99L193.29,106.43L193.43,105.84L193.67,105.29L194.01,104.84L194.40,104.53L194.80,104.40L195.16,104.46L195.37,104.53L195.66,104.78L195.85,105.19L195.93,105.67"/><path d="M195.33,107.47L195.32,107.46"/><path d="M195.94,105.68L195.93,105.67"/></g></g><g id="Actor_11.0"><g style="stroke:#000000;stroke-width:0.176"><path d="M192.35,133.65L243.34,111.38L243.35,110.29"/><path d="M195.86,134.50L195.30,134.34L194.88,134.11L194.69,133.83L194.73,133.55L195.00,133.29L195.49,133.08L196.14,132.94"/><path d="M197.65,132.95L198.22,133.06L198.73,133.27L199.04,133.53L199.12,133.81L198.96,134.08L198.58,134.32L198.01,134.50L197.93,134.51"/><path d="M244.94,112.33L244.68,112.41L244.35,112.45L244.00,112.45L243.67,112.41L243.39,112.33L243.36,112.31L242.73,112.45L242.25,112.66L241.97,112.92L241.93,113.20L242.13,113.47L242.55,113.71L243.14,113.88L243.84,113.97L244.57,113.96L245.26,113.87L245.82,113.69L246.21,113.45L246.37,113.18L246.29,112.90L245.98,112.64L245.47,112.43L244.90,112.32"/><path d="M243.36,112.31L243.39,112.31"/><path d="M243.34,111.38L246.02,111.33L246.02,110.23"/><path d="M246.02,111.33L249.94,112.67"/></g><g style="stroke:#000000;stroke-width:0.529"><path d="M195.85,135.82L192.53,134.69L192.35,133.65L192.36,132.56L243.35,110.29L246.02,110.23L249.95,111.58L249.94,112.67L197.93,135.39"/><path d="M197.65,132.95L197.57,132.93L196.84,132.89L196.14,132.94"/><path d="M243.61,112.29L243.39,112.31L243.67,112.39L244.00,112.43L244.35,112.43L244.68,112.38L244.90,112.32L244.82,112.30L244.09,112.26L243.61,112.29"/></g></g><g id="Actor_7.1"><g style="stroke:#000000;stroke-width:0.176"><path d="M195.06,133.97L195.09,133.73L195.31,133.52L195.71,133.34L196.23,133.22L196.83,133.18L197.43,133.21L197.98,133.32L198.41,133.49L198.67,133.70L198.75,133.93"/><path d="M198.67,133.44L198.41,133.23L197.98,133.06L197.44,132.96L196.83,132.92L196.24,132.97L195.71,133.09L195.32,133.26"/><path d="M196.46,133.74L196.46,133.74"/><path d="M196.56,133.69L196.44,133.74"/><path d="M197.13,133.68L197.13,133.69"/><path d="M197.00,133.67L197.29,133.69"/></g><g style="stroke:#000000;stroke-width:0.529"><path d="M195.55,133.06L195.32,133.26L195.09,133.48L195.07,133.71L195.06,133.97L195.24,134.19L195.59,134.39L195.86,134.46"/><path d="M198.24,133.07L198.67,133.44L198.75,133.68L198.75,133.93L198.62,134.16L198.30,134.36L197.93,134.48"/></g></g><g id="Actor_7.2"><g style="stroke:#000000;stroke-width:0.176"><path d="M195.36,56.34L195.65,56.59L195.84,57.00L195.91,57.52L195.84,58.11L195.65,58.68L195.53,58.89L195.35,59.19L194.98,59.58L194.58,59.80L194.20,59.84"/><path d="M194.30,57.92L194.69,57.43L195.08,57.57L195.08,58.20L194.69,58.69L194.30,58.55L194.30,57.92L194.84,58.10L194.83,58.51"/><path d="M194.30,58.55L194.69,58.68"/><path d="M195.69,59.19L195.66,59.21L195.71,59.16"/><path d="M195.66,59.21L195.52,59.34"/><path d="M196.05,57.07L196.11,57.59L196.05,58.18L195.85,58.75L195.78,58.89L195.56,59.26L195.19,59.65"/><path d="M194.84,58.10L195.03,57.86L194.96,57.96L194.88,58.13L194.84,58.32L194.84,58.41L194.84,58.50"/><path d="M195.08,57.82L195.07,57.81L195.08,57.80"/><path d="M195.07,57.81L195.03,57.86L195.08,57.80"/><path d="M196.17,57.82L196.16,57.80L196.17,57.81"/><path d="M196.16,57.80L196.15,57.74L196.17,57.78"/><path d="M196.15,57.74L196.12,57.55"/></g><g style="stroke:#000000;stroke-width:0.529"><path d="M195.52,59.34L195.19,59.65L194.79,59.87L194.40,59.91L194.20,59.84L193.86,59.68L193.62,59.34L193.49,58.87L193.49,58.31L193.62,57.72L193.87,57.17L194.21,56.71L194.60,56.41L194.99,56.28L195.36,56.34L195.57,56.41L195.86,56.66L196.05,57.07L196.12,57.55"/><path d="M195.52,59.34L195.59,59.36"/><path d="M196.20,57.58L196.12,57.55"/></g></g><g id="Actor_5.0"><g style="stroke:#000000;stroke-width:0.176"><path d="M191.10,80.86L191.88,80.52L191.85,80.55L191.83,80.60L191.82,80.66L191.81,82.66L191.03,83.00"/><path d="M191.08,83.17L191.86,82.83L192.20,83.37L192.24,83.42L192.28,83.45L192.33,83.48L192.75,83.62L192.80,83.63L192.84,83.62L192.88,83.60L192.90,83.56L193.01,83.38L193.04,83.34L193.07,83.32L193.12,83.32L193.16,83.32L193.60,83.47L193.65,83.50L193.70,83.55L193.74,83.61L193.77,83.68L193.77,83.75L193.76,85.94L193.78,86.08L193.83,86.22L193.91,86.34L194.01,86.44L194.12,86.50L193.34,86.84"/><path d="M191.82,80.66L191.04,81.00"/><path d="M192.33,83.48L191.55,83.82"/><path d="M192.20,83.37L191.42,83.71"/><path d="M191.97,83.96L192.75,83.62"/><path d="M191.86,82.83L191.84,82.78L191.82,82.72L191.81,82.66"/><path d="M192.26,80.20L192.22,80.22L191.88,80.52"/><path d="M191.44,80.56L192.22,80.22"/><path d="M192.98,86.28L193.76,85.94"/><path d="M193.00,83.39L193.16,83.32"/><path d="M192.82,83.81L193.60,83.47"/><path d="M193.77,83.75L192.99,84.09"/><path d="M192.84,83.62L192.58,83.73"/><path d="M193.51,81.03L193.61,81.07L193.66,81.07L193.71,81.06L193.75,81.03L193.78,80.97L193.79,80.91L193.51,81.03L193.18,80.92L193.13,80.90L193.09,80.86L193.05,80.81L193.02,80.76L193.01,80.73"/><path d="M193.95,78.42L193.87,78.49L193.82,78.59L193.80,78.72L193.02,79.06"/><path d="M194.12,86.50L194.13,86.50"/><path d="M193.79,80.91L193.80,78.72"/></g><g style="stroke:#000000;stroke-width:0.529"><path d="M194.01,87.07L193.34,86.84L193.23,86.78L193.13,86.68L193.05,86.56L193.00,86.42L192.98,86.28L192.99,84.09L192.98,84.02L192.96,83.95L192.92,83.89L192.87,83.84L192.82,83.81L192.58,83.73L192.06,83.96L192.02,83.97L191.97,83.96L191.55,83.82L191.50,83.79L191.46,83.76L191.42,83.71L191.08,83.17L191.06,83.12L191.04,83.06L191.03,83.00L191.04,81.00L191.05,80.94L191.07,80.90L191.10,80.86L191.44,80.56L191.48,80.54L192.26,80.20L192.30,80.19L192.35,80.20L192.77,80.34L192.81,80.36L192.86,80.40L192.89,80.45L192.92,80.50L193.01,80.73"/><path d="M194.17,78.41L194.16,78.41L194.05,78.39L193.95,78.42L193.17,78.76L193.09,78.83L193.04,78.93L193.02,79.06L193.01,80.73"/></g></g><g id="Actor_11.1"><g style="stroke:#000000;stroke-width:0.176"><path d="M192.89,33.33L243.88,11.07L243.88,9.97"/><path d="M245.41,12.51L245.56,12.57L245.71,12.69L245.75,12.83L245.67,12.96L245.49,13.07L245.21,13.16L244.89,13.20L244.53,13.21L244.20,13.16L243.92,13.08L243.72,12.97L243.62,12.84L243.63,12.82L243.72,12.95L243.92,13.06L244.20,13.14L244.53,13.18L244.89,13.18L245.21,13.14L245.49,13.05L245.67,12.94L245.74,12.81"/><path d="M243.94,12.50L243.77,12.58L243.64,12.70L243.63,12.82"/><path d="M243.88,11.07L246.55,11.01L250.48,12.35"/><path d="M246.55,11.01L246.56,9.92"/></g><g style="stroke:#000000;stroke-width:0.529"><path d="M246.79,13.96L250.48,12.35L250.48,11.26L246.56,9.92L243.88,9.97L192.89,32.24L192.89,33.33L193.01,34.01"/><path d="M203.23,32.98L244.53,14.95"/><path d="M244.66,12.39L244.31,12.41L244.01,12.48L243.94,12.50L244.38,12.56L245.11,12.55L245.41,12.51L245.32,12.47L245.00,12.41L244.66,12.39"/></g></g><g id="Actor_10.0"><g style="stroke:#000000;stroke-width:0.176"><path d="M193.23,107.78L193.49,108.13L193.89,108.32L194.36,108.28L194.84,108.02L195.28,107.55L195.64,106.94L195.87,106.24L195.95,105.54L195.88,104.91L195.65,104.41L195.30,104.11L194.86,104.03L194.38,104.18L193.91,104.56L193.50,105.10L193.20,105.77L193.04,106.47L193.04,107.15L193.19,107.72L193.23,107.78"/><path d="M193.19,86.74L193.19,87.01L193.21,87.20L193.28,87.35L193.38,87.45L193.51,87.49L193.65,87.46L193.80,87.36L193.93,87.21L194.03,87.02L194.10,86.81L194.13,86.60L194.17,78.29L194.15,78.10L194.08,77.94L193.98,77.84L193.85,77.81L193.71,77.84L193.56,77.93L193.43,78.08L193.33,78.27L193.26,78.48L193.23,78.73"/><path d="M193.19,87.01L193.90,87.25"/><path d="M193.24,78.70L193.28,78.71"/><path d="M193.55,59.76L193.45,59.62L193.30,59.05L193.30,58.37L193.46,57.66L193.76,57.00L194.17,56.45L194.63,56.08L195.12,55.93L195.56,56.01L195.91,56.31L196.14,56.81L196.21,57.44L196.15,57.95L196.13,58.14L195.90,58.84L195.54,59.45L195.09,59.91L194.61,60.18L194.15,60.22L193.74,60.02L193.55,59.76"/><path d="M194.09,77.97L193.71,77.84"/><path d="M195.30,107.48L195.33,107.47"/><path d="M195.59,59.37L195.56,59.38L195.46,59.39"/><path d="M195.94,105.67L195.92,105.64"/><path d="M196.11,57.48L196.18,57.53L196.20,57.57"/><path d="M197.47,130.33L198.00,31.19"/><path d="M198.50,81.32L198.38,81.28L198.42,81.58L198.63,82.18L198.97,82.71L199.40,83.13L199.87,83.38L200.94,83.74L201.41,83.82L201.84,83.69L202.18,83.39L202.40,82.95L202.48,82.39L202.41,81.78L202.19,81.18L201.86,80.65L201.43,80.24L200.96,79.99L199.89,79.62L199.41,79.55L198.98,79.67L198.64,79.97L198.52,80.22L199.89,79.62"/><path d="M198.38,81.28L198.34,80.97L198.42,80.42L198.46,80.35L199.40,80.67L199.49,80.71"/><path d="M198.52,80.22L198.46,80.35"/><path d="M199.40,80.67L200.96,79.99"/></g><g style="stroke:#000000;stroke-width:0.529"><path d="M192.74,83.79L192.48,132.51"/><path d="M193.01,33.37L192.76,80.34"/></g></g><g id="Actor_2.0"><g style="stroke:#000000;stroke-width:0.176"><path d="M250.49,85.91L250.35,112.71L197.92,135.60"/><path d="M211.16,96.61L211.16,96.80L211.28,97.25L211.51,97.57L211.83,97.72L212.20,97.69L212.58,97.48L212.93,97.12L213.21,96.63L213.39,96.09L213.46,95.53L213.40,95.04L213.22,94.65L212.94,94.41L212.59,94.35L212.22,94.47L211.85,94.76L211.77,94.86"/><path d="M211.96,59.88L212.03,59.78L212.40,59.49L212.78,59.36L213.13,59.43L213.41,59.66L213.58,60.05L213.64,60.55L213.58,61.10L213.40,61.65L213.11,62.13L212.76,62.50L212.39,62.71L212.02,62.74L211.70,62.59L211.47,62.27L211.35,61.82L211.35,61.63"/><path d="M217.10,94.64L216.20,94.33L216.29,95.58L216.55,96.69L216.97,97.63L217.55,98.37L218.25,98.88L219.07,99.13"/><path d="M216.20,94.33L216.39,59.35L217.28,59.66"/><path d="M216.39,59.35L216.49,58.03L216.77,56.67L217.20,55.36L217.79,54.12L218.50,52.99L219.31,52.03L220.19,51.27L221.11,50.75L222.00,51.05"/><path d="M221.11,50.75L250.75,37.80L250.89,11.00"/><path d="M247.86,110.86L247.63,110.75L247.38,110.41L247.34,110.26"/><path d="M248.29,107.48L248.39,107.40L248.80,107.27L249.17,107.34L249.47,107.59L249.67,108.01L249.73,108.55L249.66,109.15L249.46,109.74L249.16,110.26L248.78,110.66L248.37,110.89L248.01,110.91"/><path d="M248.36,93.93L248.46,93.84L248.87,93.71L249.25,93.78L249.55,94.04L249.74,94.46L249.80,95.00L249.73,95.59L249.53,96.19L249.23,96.71L248.85,97.10L248.44,97.33L248.06,97.36L247.70,97.20L247.45,96.85L247.41,96.70"/><path d="M247.76,30.98L247.80,31.13L248.06,31.47L248.40,31.64L248.79,31.61L249.20,31.38L249.58,30.98L249.89,30.46L250.08,29.87L250.15,29.27L250.09,28.73L249.90,28.31L249.60,28.06L249.22,27.99L248.81,28.12L248.71,28.20"/><path d="M248.78,14.65L248.89,14.56L249.29,14.43L249.67,14.50L249.97,14.76L250.16,15.18L250.23,15.72L250.16,16.31L249.96,16.91L249.65,17.43L249.28,17.82L248.87,18.05L248.47,18.08L248.13,17.92L247.88,17.57L247.84,17.42"/><path d="M250.35,112.71L251.24,113.02"/><path d="M250.75,37.80L251.64,38.11"/></g><g style="stroke:#000000;stroke-width:0.529"><path d="M250.38,11.22L250.89,11.00L251.78,11.30L251.64,38.11L222.00,51.05L221.08,51.58L220.20,52.34L219.39,53.30L218.68,54.42L218.09,55.67L217.65,56.99L217.38,58.34L217.28,59.66L217.10,94.64L217.18,95.88L217.44,97.00L217.86,97.94L218.44,98.68L219.07,99.13L219.94,99.12L220.85,98.85L250.49,85.91L251.38,86.21L251.24,113.02L197.92,136.30"/></g></g><g id="Actor_2.1"><g style="stroke:#000000;stroke-width:0.176"><path d="M244.38,29.02L244.38,29.02L244.39,29.01L244.44,28.58L244.57,28.15L244.79,27.76L245.05,27.46L245.35,27.27L245.64,27.20L245.90,27.28L246.11,27.48L246.24,27.79L246.29,28.18L246.30,28.18L246.32,28.18L246.34,28.18L246.29,27.78L246.29,27.78L246.15,27.46L245.94,27.25"/><path d="M244.72,28.91L244.71,28.87L244.97,28.86L244.99,29.07L245.06,29.24L245.17,29.35L245.31,29.39L245.47,29.35L245.59,29.27L245.53,29.35L245.33,29.47L245.14,29.51L244.97,29.47L244.83,29.33L244.74,29.13L244.72,28.91"/><path d="M244.39,29.01L244.43,29.40L244.57,29.72L244.77,29.92L245.04,29.99L245.33,29.93L245.63,29.74L245.89,29.43L246.10,29.04L246.24,28.61L246.29,28.18"/><path d="M244.71,28.87L244.75,28.59L244.84,28.30L244.98,28.05L245.15,27.85L245.34,27.72L245.54,27.68L245.71,27.73L245.85,27.86L245.93,28.07L245.95,28.20L245.89,28.05L245.77,27.94L245.63,27.90L245.48,27.93L245.32,28.04L245.18,28.20L245.07,28.41L244.99,28.63L244.97,28.86L245.72,29.12"/><path d="M249.19,29.18L249.15,29.60L249.01,30.04L248.79,30.44L248.52,30.75L248.23,30.94L248.29,30.93L248.58,30.73L248.84,30.43L249.05,30.05L249.19,29.63L249.24,29.20L249.19,29.18L249.20,29.16L246.34,28.18L246.29,28.62L246.15,29.06L245.93,29.46L245.66,29.77L245.36,29.97L245.06,30.03L244.79,29.96"/><path d="M245.59,29.27L245.70,29.14L245.84,28.89L245.93,28.61L245.96,28.33L245.95,28.20"/><path d="M247.90,31.01L247.72,30.96L247.79,30.99L248.06,31.06L248.36,31.00L248.37,30.99L248.44,30.98L248.73,30.79L248.99,30.48L249.20,30.10L249.34,29.68L249.39,29.25L249.34,28.86L249.21,28.55L249.17,28.52L249.16,28.49L248.95,28.28L248.87,28.26L249.09,28.47L249.22,28.78L249.27,29.18L249.22,29.63L249.08,30.07L248.86,30.46L248.59,30.77L248.29,30.97L247.99,31.04L247.90,31.01"/><path d="M247.72,30.96L247.71,30.95L247.92,31.01L248.22,30.95L248.23,30.94"/><path d="M247.53,30.89L247.65,30.94L247.71,30.95"/><path d="M247.86,31.01L247.87,31.01L248.33,31.17L248.60,31.24L248.90,31.18L249.20,30.98L249.47,30.67L249.69,30.27L249.83,29.84L249.88,29.39L249.42,29.24L249.37,28.84L249.24,28.52L249.02,28.31L249.48,28.47L249.70,28.67L249.83,28.99L249.88,29.39"/><path d="M247.87,31.01L248.14,31.09L248.44,31.02L248.74,30.82L249.01,30.51L249.23,30.12L249.37,29.68L249.42,29.24"/><path d="M249.63,27.77L249.88,27.91L250.31,28.78L250.34,29.19L250.30,29.63L249.86,30.88L249.61,31.24L249.33,31.54L248.46,31.92L248.18,31.87"/><path d="M248.37,30.99L248.67,30.80L248.94,30.49L249.15,30.09L249.29,29.65L249.34,29.23L249.39,29.25"/><path d="M249.20,29.16L249.15,28.76L249.03,28.47L249.06,28.50L249.19,28.81L249.24,29.20"/><path d="M249.03,28.47L249.01,28.44L248.80,28.23L248.46,28.12"/><path d="M248.87,28.26L248.81,28.24"/><path d="M248.96,28.29L249.02,28.31"/><path d="M249.27,29.18L249.34,29.21L249.34,29.23"/><path d="M249.34,29.21L249.30,28.81L249.17,28.52"/></g><g style="stroke:#000000;stroke-width:0.529"><path d="M248.46,28.12L245.94,27.25L245.67,27.18L245.66,27.18L245.36,27.24L245.06,27.44L244.78,27.75L244.57,28.15L244.43,28.58L244.38,29.02L244.43,29.42L244.43,29.42L244.56,29.74L244.57,29.75L244.78,29.95L244.79,29.96L247.53,30.89"/><path d="M248.18,31.87L247.94,31.72L247.53,30.89"/><path d="M248.46,28.12L248.48,28.10L249.35,27.72L249.63,27.77"/></g></g><g id="Actor_8.0"><g style="stroke:#000000;stroke-width:0.176"><path d="M201.85,81.85L201.91,82.31L201.85,82.73L201.67,83.06L201.40,83.27L201.07,83.33L200.70,83.25L200.35,83.02L200.05,82.67L199.83,82.24L199.71,81.78L199.70,81.55L199.71,81.33L199.83,80.95L200.06,80.67L200.37,80.53L200.72,80.55L201.08,80.71L201.41,81.00"/><path d="M200.18,80.41L199.84,80.57L199.58,80.88L199.45,81.31L199.43,81.56L199.45,81.81L199.58,82.34L199.83,82.82L200.17,83.21L200.57,83.47L200.98,83.57L201.35,83.50"/><path d="M200.26,81.39L200.81,81.15L200.26,81.35L200.25,82.13L200.80,82.70L201.35,82.50L201.35,81.73L200.73,82.00L200.73,82.63"/><path d="M200.26,81.50L200.46,81.71L200.48,81.74L200.61,81.94L200.70,82.16L200.73,82.39L200.70,82.60"/><path d="M200.70,82.16L200.35,82.23"/><path d="M200.73,82.00L200.46,81.71L200.32,81.60L200.26,81.57"/><path d="M201.35,81.73L200.81,81.15"/></g><g style="stroke:#000000;stroke-width:0.529"><path d="M198.41,81.53L198.46,81.37L198.72,81.06L199.06,80.90L200.18,80.41L200.58,80.42L200.99,80.60L201.37,80.93L201.41,81.00L201.68,81.39L201.85,81.85L201.86,81.89L201.93,82.41L201.86,82.88L201.66,83.26L201.35,83.50L200.85,83.72"/></g></g><g id="Actor_2.2"><g style="stroke:#000000;stroke-width:0.176"><path d="M244.64,16.16L244.51,15.85L244.46,15.46L244.51,15.02L244.65,14.59L244.72,14.46L244.86,14.21L245.12,13.90L245.42,13.71L245.71,13.65L245.98,13.72L246.18,13.92L246.32,14.24L246.36,14.63L246.31,15.06L246.18,15.49L245.96,15.88L245.70,16.18L245.40,16.37L245.11,16.44L244.85,16.36L244.64,16.16"/><path d="M244.45,15.46L244.46,15.46L244.46,15.46"/><path d="M244.86,16.40L245.13,16.48L245.43,16.41L245.73,16.21L246.00,15.90L246.22,15.51L246.36,15.07L246.41,14.63L246.39,14.62L246.37,14.62L246.36,14.63"/><path d="M245.79,15.56L245.04,15.31L245.06,15.52L245.14,15.68L245.25,15.79L245.39,15.83L245.54,15.80L245.66,15.72L245.60,15.79L245.41,15.92L245.21,15.96L245.04,15.91L244.90,15.78L244.82,15.57L244.79,15.31L244.82,15.03L244.91,14.75L245.05,14.49L245.22,14.29L245.42,14.17L245.61,14.13L245.78,14.17L245.92,14.31L246.01,14.51L246.02,14.64L245.96,14.49L245.85,14.38L245.71,14.35L245.55,14.38L245.39,14.48L245.25,14.64L245.14,14.85L245.07,15.08L245.04,15.31L244.79,15.31"/><path d="M245.66,15.72L245.77,15.59L245.91,15.34L246.00,15.05L246.04,14.77L246.02,14.64"/><path d="M247.60,17.34L247.72,17.38L247.99,17.45L248.29,17.39L248.30,17.38L248.36,17.37L248.65,17.18L248.92,16.88L249.13,16.50L249.26,16.07L249.31,15.64L249.27,15.26L249.13,14.95L249.10,14.91L249.22,15.20L249.27,15.60L246.41,14.63L246.36,14.23L246.23,13.91L246.01,13.70"/><path d="M247.94,17.46L247.93,17.45L248.14,17.51L248.44,17.44L248.45,17.43L248.51,17.42L248.80,17.23L249.06,16.93L249.27,16.55L249.41,16.12L249.46,15.69L249.41,15.31L249.28,15.00L249.25,14.96L249.23,14.93L249.03,14.73L249.10,14.75L249.31,14.96L249.44,15.28L249.49,15.68L249.44,16.12L249.30,16.56L249.08,16.96L248.81,17.27L248.61,17.40L248.51,17.47L248.21,17.53L247.94,17.46L248.40,17.61L248.67,17.69L248.97,17.62L249.27,17.43L249.54,17.11L249.76,16.72L249.90,16.28L249.95,15.84L249.49,15.68"/><path d="M247.93,17.45L247.87,17.43L247.79,17.40L248.06,17.48L248.36,17.42L248.66,17.22L248.94,16.91L249.15,16.51L249.29,16.07L249.34,15.63L249.30,15.23L249.16,14.91L248.95,14.70L249.02,14.73L249.03,14.73"/><path d="M247.79,17.40L247.79,17.40"/><path d="M248.25,18.31L248.53,18.36L249.41,17.98L249.69,17.69L249.93,17.33L250.38,16.08L250.41,15.64L250.38,15.23L249.95,14.36L249.70,14.21"/><path d="M248.30,17.38L248.59,17.19L248.86,16.88L249.08,16.49L249.22,16.05L249.26,15.63L249.31,15.64"/><path d="M248.45,17.43L248.74,17.24L249.01,16.93L249.23,16.54L249.37,16.10L249.41,15.68L249.46,15.69"/><path d="M249.10,14.75L249.56,14.91L249.77,15.12L249.91,15.44L249.95,15.84"/><path d="M249.10,14.91L249.09,14.88L248.88,14.68L248.95,14.70"/><path d="M248.88,14.68L248.87,14.68L248.53,14.56"/><path d="M249.34,15.63L249.42,15.65L249.37,15.25L249.25,14.96"/><path d="M249.41,15.68L249.42,15.65"/><path d="M249.27,15.60L249.26,15.63"/></g><g style="stroke:#000000;stroke-width:0.529"><path d="M248.53,14.56L246.01,13.70L245.74,13.62L245.74,13.62L245.43,13.69L245.13,13.89L244.86,14.20L244.64,14.59L244.50,15.03L244.45,15.46L244.50,15.86L244.50,15.87L244.63,16.18L244.64,16.19L244.85,16.40L244.86,16.40L247.60,17.34"/><path d="M248.25,18.31L248.01,18.17L247.60,17.34"/><path d="M248.53,14.56L248.55,14.54L249.43,14.16L249.70,14.21"/></g></g><g id="Actor_2.3"><g style="stroke:#000000;stroke-width:0.176"><path d="M209.06,95.73L209.06,95.73"/><path d="M209.09,95.67L209.18,95.77L209.15,95.75L209.07,95.65L209.09,95.67"/><path d="M209.18,95.77L209.26,95.81L209.15,95.78L209.07,95.69L209.06,95.68L209.01,95.52"/><path d="M208.99,95.42L209.05,95.59L209.12,95.66L209.16,95.71L209.29,95.75L209.44,95.72L209.60,95.62L209.73,95.45L209.84,95.25L209.90,95.03L209.91,94.80L209.88,94.61L209.79,94.47L209.67,94.39L209.53,94.38L209.45,94.41L209.37,94.45L209.23,94.58"/><path d="M209.00,95.48L209.07,95.65"/><path d="M209.02,95.60L209.02,95.60"/><path d="M210.36,96.36L210.19,96.31"/><path d="M210.41,94.40L210.60,94.47L210.76,94.65L210.85,94.91L210.86,95.21L210.80,95.53L210.67,95.84L210.50,96.07L210.30,96.22L210.10,96.27L209.94,96.22"/><path d="M209.67,96.12L209.82,96.18"/><path d="M209.84,96.19L210.04,96.15L210.24,96.00L210.41,95.77L210.54,95.47L210.61,95.15L210.60,94.85L210.52,94.58L210.37,94.40L210.18,94.32"/><path d="M209.66,96.10L209.74,96.10L209.94,96.00L210.03,95.91L210.12,95.83L210.26,95.65L210.36,95.41L210.41,95.14L210.41,94.90L210.38,94.83L210.34,94.61L210.23,94.40L210.13,94.32L210.28,94.52L210.35,94.79L210.35,95.09L210.28,95.41L210.15,95.71L209.97,95.93L209.77,96.07L209.57,96.10L209.44,96.04"/><path d="M209.74,95.84L209.87,95.70L209.90,95.65L210.01,95.44L210.04,95.39L210.10,95.15L210.11,95.10L210.12,94.87L210.12,94.82L210.08,94.62L210.07,94.58L210.05,94.56L210.09,94.61L210.16,94.83L210.16,95.08L210.11,95.34L210.00,95.58L209.86,95.76L209.74,95.84L209.73,95.86L209.70,95.89L209.54,95.98L209.50,95.99L209.39,96.00"/><path d="M210.38,94.83L210.39,94.88L210.37,95.18L210.29,95.49L210.15,95.76L210.12,95.81L210.03,95.91"/><path d="M210.30,95.97L210.38,95.88L210.52,95.63L210.61,95.33L210.64,95.08L210.63,94.90L210.65,94.96L210.66,95.21L210.62,95.47L210.52,95.72L210.38,95.91L210.30,95.97L210.26,96.02L210.06,96.16L209.91,96.19"/><path d="M209.69,96.13L209.70,96.13"/><path d="M210.56,96.05L210.57,96.04L210.72,95.81L210.84,95.52L210.89,95.21L210.88,94.99L210.90,95.03L210.92,95.27L210.87,95.53L210.78,95.78L210.65,95.98L210.56,96.05L210.48,96.13L210.28,96.26L210.16,96.27"/><path d="M209.27,94.54L209.27,94.54"/><path d="M210.05,94.56L209.97,94.43L209.95,94.41L209.82,94.32L209.80,94.31L209.64,94.31L209.61,94.31L209.59,94.32"/><path d="M210.20,94.33L210.21,94.33"/><path d="M209.87,94.24L209.86,94.24L209.86,94.24"/><path d="M210.13,94.32L209.99,94.26"/><path d="M209.94,94.24L209.79,94.25"/><path d="M211.55,94.78L211.71,94.92L211.83,95.16L211.86,95.45L211.82,95.77L211.72,96.09L211.56,96.34L211.37,96.53L211.16,96.61L211.19,96.61L211.17,96.61L211.24,96.68L211.30,96.69L211.41,96.71L211.43,96.71L211.48,96.75L211.47,96.74L211.44,96.72"/><path d="M211.24,96.68L211.43,96.70L211.63,96.60L211.82,96.41L211.98,96.15L212.08,95.83L212.11,95.51L212.07,95.23L211.95,94.99L211.78,94.86L211.90,94.92L211.90,94.93L212.01,94.94L212.19,95.07L212.31,95.29L212.36,95.57L212.34,95.89L212.24,96.21L212.09,96.48L211.90,96.67L211.69,96.78L211.51,96.77L211.63,96.80L211.82,96.76L211.91,96.69L211.93,96.76"/><path d="M211.39,97.66L211.42,97.52L211.28,97.62"/><path d="M211.04,97.05L211.18,97.04L211.15,97.09"/><path d="M211.00,96.70L211.13,96.72L211.12,96.74"/><path d="M211.14,97.37L211.28,97.31L211.25,97.40"/><path d="M210.70,96.45L210.86,96.38L210.87,96.43"/><path d="M211.16,96.61L210.98,96.59"/><path d="M210.72,96.49L210.90,96.53L211.10,96.45L211.30,96.28L211.46,96.03L211.57,95.71L211.61,95.39L211.58,95.10L211.48,94.86L211.31,94.70"/><path d="M210.63,96.44L210.46,96.40"/><path d="M210.63,96.44L210.84,96.38L211.03,96.21L211.20,95.96L211.31,95.65L211.36,95.33L211.34,95.04L211.24,94.79L211.08,94.63L210.99,94.60"/><path d="M210.64,94.49L210.84,94.55L211.00,94.72L211.09,94.97L211.11,95.27L211.06,95.59L210.93,95.90L210.77,96.14L210.57,96.30L210.37,96.36"/><path d="M211.40,96.18L211.43,96.19L211.28,96.34L211.26,96.35L211.15,96.45L211.13,96.47L211.14,96.51"/><path d="M211.13,96.47L211.10,96.48L210.93,96.54"/><path d="M211.49,95.13L211.39,95.16L211.42,95.40L211.38,95.66L211.30,95.92L211.17,96.12L211.14,96.11L211.14,96.12L211.01,96.27L211.01,96.27L211.17,96.12L211.23,96.20"/><path d="M211.01,96.27L210.96,96.32L210.89,96.38L210.86,96.38"/><path d="M210.61,96.34L210.60,96.31L210.44,96.37L210.42,96.37"/><path d="M210.60,96.31L210.63,96.29L210.91,96.05L211.04,95.85L211.13,95.60L211.10,95.59"/><path d="M210.97,96.13L210.91,96.05L210.88,96.04L210.97,95.90L211.08,95.61L211.14,95.31L211.13,95.07L211.14,95.10L211.17,95.34L211.13,95.60L211.22,95.63"/><path d="M210.75,96.19L210.82,96.13L210.88,96.04"/><path d="M211.38,95.16L211.37,95.13L211.39,95.16L211.38,95.16L211.39,95.27L211.36,95.57L211.27,95.87L211.14,96.11"/><path d="M211.61,95.72L211.64,95.73L211.67,95.47L211.63,95.23L211.63,95.23L211.64,95.44L211.59,95.76L211.48,96.04L211.33,96.28L211.26,96.35"/><path d="M210.27,96.34L210.27,96.34"/><path d="M211.19,96.61L211.24,96.61L211.39,96.54L211.40,96.60"/><path d="M210.70,96.45L210.67,96.45"/><path d="M211.00,96.60L211.06,96.62L211.17,96.61"/><path d="M210.68,94.50L210.68,94.50"/><path d="M210.62,94.49L210.72,94.56L210.80,94.69L210.88,94.93L210.88,94.99"/><path d="M210.63,94.90L210.62,94.80L210.53,94.56L210.39,94.40"/><path d="M211.13,95.07L211.13,95.02L211.06,94.78L211.02,94.72L210.88,94.57"/><path d="M211.37,95.13L211.36,95.00L211.25,94.78L211.13,94.66L211.27,94.69"/><path d="M211.13,94.66L211.13,94.66"/><path d="M212.90,94.16L213.02,94.20L213.00,94.41L213.13,94.27L213.23,94.35L213.18,94.56L213.32,94.45L213.40,94.57L213.32,94.77L213.47,94.71L213.52,94.85L213.42,95.04L213.56,95.02L213.59,95.19L213.47,95.36L213.60,95.38L213.60,95.56L213.47,95.70L213.58,95.77L213.56,95.96L213.42,96.06L213.51,96.17L213.46,96.36L213.32,96.42L213.39,96.56L213.31,96.74L213.17,96.76L213.21,96.93L213.12,97.09L212.99,97.07L213.00,97.26L212.89,97.40L212.77,97.33L212.76,97.54L212.63,97.65L212.54,97.54L212.49,97.75L212.36,97.83L212.29,97.69L212.22,97.89L212.09,97.93L212.05,97.76L211.95,97.94L211.83,97.94L211.82,97.75L211.70,97.92"/><path d="M211.59,97.85L211.60,97.67L211.47,97.81"/><path d="M211.77,96.86L211.96,96.86L212.17,96.75L212.35,96.55L212.50,96.27L212.59,95.95L212.59,95.89L212.61,95.64L212.56,95.36L212.43,95.14L212.25,95.02L212.60,95.14L212.76,95.25L212.88,95.44L212.92,95.69L212.91,95.99L212.82,96.29L212.68,96.56L212.50,96.78L212.30,96.91L212.10,96.95L211.77,96.86L211.67,96.79"/><path d="M211.67,96.68L211.65,96.61L211.78,96.50L211.80,96.49L211.95,96.33L212.07,96.12L212.15,95.86L212.11,95.84"/><path d="M212.28,96.48L212.21,96.41L212.06,96.57L212.03,96.59L212.02,96.61L211.91,96.69"/><path d="M211.43,96.71L211.60,96.65L211.65,96.61"/><path d="M211.51,96.77L211.48,96.75"/><path d="M211.73,95.75L211.64,95.73L211.55,95.98L211.43,96.19L211.49,96.27"/><path d="M212.03,96.59L212.18,96.39L212.21,96.41L212.33,96.18L212.40,95.92L212.37,95.91"/><path d="M212.49,95.93L212.40,95.92L212.41,95.67L212.38,95.50L212.39,95.72L212.33,96.04L212.22,96.33L212.18,96.39"/><path d="M211.78,96.50L211.80,96.49L211.95,96.27L212.07,95.99L212.14,95.67L212.13,95.43L212.16,95.60L212.15,95.86L212.24,95.87"/><path d="M211.92,96.32L211.95,96.33L212.02,96.41"/><path d="M211.76,96.34L211.69,96.26L211.66,96.25"/><path d="M211.39,96.54L211.43,96.52L211.51,96.43L211.54,96.42L211.69,96.26L211.81,96.05L211.89,95.79L211.86,95.78"/><path d="M211.99,95.81L211.89,95.79L211.91,95.53L211.88,95.30L211.87,95.30L211.87,95.29L211.88,95.30L211.97,95.26"/><path d="M211.87,95.30L211.89,95.48L211.85,95.79L211.76,96.08L211.61,96.33L211.51,96.43"/><path d="M211.99,94.94L211.96,94.93L211.90,94.92"/><path d="M212.01,94.94L212.15,95.01L212.29,95.18L212.38,95.43L212.38,95.50"/><path d="M211.78,94.86L211.64,94.84L211.77,94.96L211.86,95.20L211.87,95.21L211.87,95.29"/><path d="M211.64,94.84L211.61,94.81"/><path d="M211.49,94.77L211.40,94.75L211.40,94.75L211.40,94.75"/><path d="M211.72,94.68L211.83,94.74L211.83,94.72"/><path d="M211.63,95.23L211.63,95.22L211.63,95.23L211.73,95.20"/><path d="M211.63,95.22L211.62,95.16L211.55,94.93L211.40,94.75"/><path d="M211.90,94.93L212.05,95.11L212.13,95.36L212.13,95.39L212.13,95.43"/><path d="M212.38,95.43L212.46,95.40"/><path d="M212.15,95.01L212.25,95.02"/><path d="M211.74,94.85L211.72,94.84L211.63,94.83"/><path d="M212.08,94.47L212.07,94.53L211.97,94.43"/><path d="M212.24,94.25L212.31,94.39L212.35,94.29"/><path d="M212.77,94.13L212.79,94.33L212.89,94.18"/><path d="M212.51,94.15L212.56,94.32L212.62,94.19"/></g><g style="stroke:#000000;stroke-width:0.529"><path d="M211.61,94.81L211.61,94.81L211.55,94.78L211.49,94.77L211.42,94.75L211.40,94.75L211.31,94.70L211.27,94.69L211.22,94.67L211.13,94.66L211.09,94.63L210.99,94.60L210.88,94.57L210.87,94.56L210.68,94.50L210.64,94.49L210.62,94.49L210.60,94.47L210.57,94.45L210.55,94.44L210.53,94.44L210.41,94.40L210.39,94.40L210.39,94.40L210.18,94.32L210.13,94.32L210.06,94.27L209.99,94.26L209.94,94.24L209.86,94.24L209.72,94.25L209.59,94.32L209.45,94.38L209.43,94.40L209.42,94.40L209.27,94.54L209.23,94.58L209.11,94.77L209.02,94.99L208.98,95.21L208.99,95.42L209.00,95.47L209.00,95.48L209.00,95.49L209.01,95.52L209.02,95.60L209.06,95.73L209.07,95.76L209.16,95.90L209.18,95.92L209.31,96.00L209.35,96.00L209.39,96.00L209.41,96.02L209.44,96.04L209.56,96.10L209.66,96.10L209.67,96.12L209.70,96.13L209.73,96.15L209.82,96.18L209.84,96.19L209.87,96.20L209.91,96.19L209.93,96.21L210.07,96.27L210.10,96.28L210.16,96.27L210.19,96.31L210.27,96.34"/><path d="M211.15,97.09L211.09,97.22L211.14,97.37"/><path d="M211.04,97.05L211.02,96.89L211.12,96.74"/><path d="M211.00,96.60L211.00,96.70"/><path d="M211.25,97.40L211.21,97.51L211.28,97.62"/><path d="M210.27,96.34L210.36,96.36L210.37,96.36L210.42,96.37L210.46,96.40L210.53,96.43L210.67,96.45L210.72,96.49L210.75,96.51L210.92,96.54L210.93,96.54L210.98,96.59L211.00,96.60"/><path d="M211.59,97.85L211.59,97.88L211.70,97.92"/><path d="M211.47,97.81L211.38,97.73L211.39,97.66"/><path d="M212.08,94.47L212.11,94.33L212.24,94.25"/><path d="M211.72,94.68L211.61,94.81"/><path d="M211.97,94.43L211.85,94.54L211.83,94.72"/><path d="M212.51,94.15L212.38,94.19L212.35,94.29"/><path d="M212.90,94.16L212.89,94.18"/><path d="M212.77,94.13L212.65,94.13L212.62,94.19"/></g></g><g id="Actor_2.4"><g style="stroke:#000000;stroke-width:0.176"><path d="M209.63,61.06L209.76,61.12L209.96,61.09L210.16,60.95L210.33,60.72L210.47,60.43L210.54,60.11L210.54,59.80L210.47,59.53L210.32,59.34L210.18,59.27"/><path d="M210.36,59.34L210.56,59.42L210.71,59.60L210.79,59.86L210.79,60.17L210.73,60.49L210.60,60.79L210.42,61.02L210.22,61.16L210.02,61.20"/><path d="M209.86,61.14L209.88,61.15L209.89,61.15"/><path d="M210.60,59.42L210.79,59.49L210.95,59.67L211.03,59.93L211.05,60.23L210.99,60.55L210.86,60.85L210.69,61.09L210.49,61.24L210.29,61.29L210.13,61.23"/><path d="M209.84,61.12L209.93,61.12L210.13,61.01L210.21,60.92L210.31,60.85L210.45,60.67L210.55,60.42L210.60,60.16L210.59,59.91L210.57,59.84L210.58,59.90L210.56,60.20L210.48,60.51L210.34,60.77L210.31,60.82L210.21,60.92"/><path d="M210.00,61.20L209.88,61.15"/><path d="M210.58,59.42L210.72,59.58L210.81,59.82L210.82,59.92L210.84,59.98L210.85,60.22L210.81,60.49L210.71,60.73L210.57,60.92L210.49,60.99L210.44,61.04L210.25,61.18L210.10,61.21"/><path d="M209.24,60.75L209.24,60.75"/><path d="M209.42,59.60L209.56,59.47L209.64,59.42L209.72,59.40L209.86,59.41L209.98,59.48L210.07,59.63L210.10,59.82L210.09,60.04L210.03,60.27L209.92,60.47L209.78,60.63L209.63,60.74L209.48,60.77L209.34,60.72L209.24,60.61L209.18,60.44"/><path d="M209.27,60.69L209.36,60.79L209.34,60.76L209.25,60.67L209.27,60.69"/><path d="M209.36,60.79L209.45,60.83L209.34,60.80L209.25,60.71L209.24,60.69L209.20,60.54"/><path d="M209.93,60.86L210.06,60.71L210.09,60.67L210.20,60.46L210.22,60.40L210.29,60.17L210.30,60.12L210.31,59.89L210.31,59.84L210.27,59.64L210.25,59.60L210.24,59.58L210.28,59.63L210.35,59.85L210.35,60.09L210.29,60.36L210.19,60.60L210.05,60.78L209.93,60.86L209.92,60.87L209.88,60.90L209.73,61.00L209.68,61.01L209.58,61.02"/><path d="M209.25,60.67L209.19,60.49"/><path d="M209.21,60.62L209.21,60.62"/><path d="M210.05,59.26L210.05,59.26L210.05,59.26"/><path d="M209.46,59.56L209.46,59.56"/><path d="M209.97,59.26L210.13,59.25L210.13,59.25"/><path d="M210.24,59.58L210.16,59.44L210.14,59.42L210.01,59.34L209.98,59.33L209.83,59.32L209.80,59.33L209.78,59.34"/><path d="M211.33,62.39L211.47,62.32L211.43,62.42"/><path d="M210.83,59.50L211.03,59.57L211.19,59.74L211.28,59.99L211.30,60.29L211.24,60.61L211.12,60.92L210.95,61.16L210.76,61.32L210.55,61.38"/><path d="M210.54,61.37L210.38,61.33"/><path d="M211.18,59.62L211.26,59.64L211.42,59.80L211.52,60.05L211.55,60.35L211.50,60.67L211.38,60.98L211.22,61.22L211.02,61.39L210.82,61.46"/><path d="M210.82,61.46L210.64,61.42"/><path d="M210.91,61.51L211.08,61.55L211.29,61.47L211.48,61.29L211.64,61.04L211.76,60.73L211.80,60.41L211.77,60.12L211.66,59.87L211.50,59.72"/><path d="M211.17,61.60L211.35,61.63L211.55,61.54L211.75,61.36L211.90,61.10L212.01,60.79L212.05,60.47L212.01,60.18L211.90,59.94L211.73,59.80"/><path d="M211.19,61.71L211.32,61.74L211.31,61.75"/><path d="M211.06,61.45L211.05,61.40L211.07,61.39L211.15,61.34L211.19,61.29L211.20,61.28L211.35,61.14L211.33,61.13L211.46,60.89L211.55,60.59L211.58,60.28L211.57,60.18L211.58,60.18L211.67,60.15"/><path d="M211.19,61.29L211.32,61.14L211.33,61.13"/><path d="M211.58,61.20L211.62,61.21L211.46,61.36L211.44,61.37L211.33,61.47L211.31,61.48L211.32,61.53"/><path d="M211.31,61.48L211.29,61.50L211.11,61.55"/><path d="M210.80,61.36L210.79,61.32L210.82,61.31L211.09,61.07L211.16,61.15"/><path d="M210.79,61.32L210.62,61.38L210.61,61.38"/><path d="M210.94,61.21L211.00,61.15L211.06,61.06L211.09,61.07L211.22,60.87L211.32,60.62L211.28,60.61"/><path d="M210.75,61.07L210.76,61.05L210.91,60.82L211.03,60.53L211.08,60.23L211.07,60.00L211.08,60.05L211.10,60.29L211.06,60.55L210.96,60.80L210.83,61.00L210.75,61.07L210.67,61.15L210.47,61.27L210.35,61.29"/><path d="M210.86,61.47L210.88,61.47L211.05,61.40"/><path d="M211.19,61.61L211.25,61.63L211.38,61.63L211.35,61.63"/><path d="M211.23,62.07L211.37,62.05L211.34,62.11"/><path d="M211.06,61.06L211.16,60.92L211.27,60.63L211.33,60.32L211.32,60.09L211.33,60.11L211.35,60.35L211.32,60.62L211.41,60.64"/><path d="M211.32,60.09L211.32,60.04L211.24,59.80L211.21,59.74L211.07,59.59"/><path d="M210.82,59.92L210.83,60.10L210.80,60.34L210.71,60.65L210.56,60.90L210.49,60.99"/><path d="M211.07,60.00L211.07,59.95L210.99,59.70L210.91,59.58L210.81,59.51"/><path d="M210.32,59.34L210.41,59.41L210.53,59.63L210.57,59.84"/><path d="M210.39,59.35L210.39,59.35"/><path d="M210.87,59.51L210.87,59.51"/><path d="M211.45,59.71L211.31,59.68L211.31,59.68"/><path d="M211.31,59.68L211.44,59.79L211.54,60.01L211.56,60.15L211.58,60.18L211.60,60.42L211.57,60.68L211.48,60.93L211.35,61.14L211.42,61.22"/><path d="M213.09,59.18L213.20,59.22L213.19,59.42L213.32,59.28L213.41,59.36L213.37,59.57L213.51,59.47L213.58,59.59L213.51,59.79L213.65,59.73L213.71,59.87L213.61,60.06L213.75,60.04L213.77,60.21L213.66,60.37L213.79,60.40L213.79,60.58L213.66,60.72L213.77,60.78L213.74,60.97L213.60,61.08L213.70,61.18L213.64,61.37L213.50,61.43L213.57,61.58L213.50,61.76L213.36,61.78L213.40,61.95L213.30,62.11L213.17,62.09L213.19,62.28L213.07,62.42L212.96,62.35L212.94,62.56L212.82,62.67L212.73,62.56L212.68,62.77L212.55,62.84L212.48,62.70L212.41,62.91L212.28,62.94L212.24,62.77L212.14,62.96L212.02,62.96L212.00,62.77L211.89,62.94"/><path d="M211.78,62.87L211.79,62.69L211.66,62.83"/><path d="M211.47,62.64L211.61,62.54L211.58,62.68"/><path d="M212.65,60.41L212.56,60.45L212.48,60.20L212.33,60.02L212.20,59.96L212.38,60.08L212.50,60.31L212.55,60.59L212.52,60.91L212.43,61.23L212.27,61.50L212.09,61.69L211.88,61.79L211.69,61.79L211.82,61.81L212.00,61.77L212.10,61.71L212.12,61.78"/><path d="M211.83,61.63L211.97,61.52L211.99,61.51L212.14,61.35L212.26,61.13L212.33,60.87L212.35,60.62L212.32,60.44L212.32,60.40L212.31,60.37L212.24,60.12L212.09,59.94L211.97,59.88L212.14,60.01L212.26,60.24L212.30,60.53L212.27,60.85L212.17,61.17L212.01,61.43L211.82,61.62L211.62,61.71L211.43,61.69L211.48,61.70L211.60,61.73L211.79,61.67L211.83,61.63L211.85,61.69"/><path d="M211.43,61.69L211.35,61.63"/><path d="M212.44,60.04L212.61,60.15L212.74,60.37L212.80,60.65L212.78,60.97L212.69,61.29L212.54,61.56L212.35,61.76L212.15,61.88L211.96,61.88L212.28,61.97L212.48,61.93L212.69,61.79L212.87,61.58L213.01,61.31L213.06,61.11L213.09,61.01L213.11,60.71L213.06,60.45L212.95,60.26L212.79,60.16L212.44,60.04L212.34,60.03"/><path d="M212.16,60.28L212.07,60.32L212.10,60.55L212.08,60.81L212.00,61.07L211.88,61.28L211.85,61.27"/><path d="M211.79,60.73L211.83,60.74L211.74,61.00L211.62,61.21L211.68,61.29"/><path d="M212.22,61.60L212.37,61.41L212.40,61.42L212.25,61.59L212.22,61.60L212.20,61.63L212.10,61.71"/><path d="M212.37,61.41L212.41,61.34L212.52,61.06L212.58,60.74L212.57,60.52L212.60,60.68L212.59,60.94L212.52,61.20L212.40,61.42L212.47,61.49"/><path d="M212.11,61.34L212.14,61.35L212.21,61.42"/><path d="M211.94,61.35L211.88,61.28L211.73,61.44L211.70,61.45L211.62,61.53L211.57,61.56L211.59,61.61"/><path d="M211.44,61.37L211.52,61.29L211.67,61.06L211.78,60.77L211.83,60.46L211.82,60.25L211.82,60.25L211.85,60.48L211.83,60.74L211.92,60.77"/><path d="M211.70,61.45L211.80,61.35L211.94,61.10L212.04,60.81L212.08,60.49L212.06,60.32L212.07,60.32L212.06,60.31L212.06,60.32"/><path d="M211.38,61.63L211.43,61.63L211.57,61.56"/><path d="M212.32,60.44L212.32,60.69L212.26,61.01L212.14,61.29L211.98,61.51L211.97,61.52"/><path d="M211.69,61.79L211.63,61.74L211.66,61.76L211.67,61.76"/><path d="M211.61,61.72L211.63,61.74"/><path d="M211.96,61.88L211.86,61.81"/><path d="M211.57,60.18L211.56,60.15"/><path d="M212.30,60.86L212.33,60.87L212.43,60.89"/><path d="M212.05,60.80L212.08,60.81L212.17,60.83"/><path d="M211.92,60.21L211.82,60.25L211.81,60.24L211.82,60.25"/><path d="M211.81,60.24L211.81,60.18L211.73,59.95L211.59,59.77L211.68,59.79"/><path d="M211.97,59.88L211.83,59.86L211.95,59.98L212.05,60.21L212.05,60.22L212.06,60.31"/><path d="M211.58,59.77L211.59,59.77L211.59,59.77"/><path d="M212.09,59.94L212.15,59.94L212.18,59.95L212.09,59.94"/><path d="M211.91,59.69L212.02,59.76L212.02,59.73"/><path d="M212.54,59.30L212.50,59.41L212.43,59.27"/><path d="M212.16,59.45L212.25,59.55L212.27,59.48"/><path d="M211.80,59.83L211.83,59.86"/><path d="M211.82,59.85L211.91,59.86L211.93,59.87"/><path d="M212.20,59.96L212.18,59.95"/><path d="M212.56,60.93L212.59,60.94L212.68,60.95"/><path d="M212.57,60.52L212.56,60.45"/><path d="M212.70,59.17L212.74,59.34L212.81,59.21"/><path d="M212.96,59.15L212.98,59.34L213.08,59.19"/></g><g style="stroke:#000000;stroke-width:0.529"><path d="M210.13,59.25L210.05,59.26L209.91,59.27L209.78,59.34L209.64,59.40L209.61,59.42L209.46,59.56L209.42,59.60L209.29,59.79L209.21,60.00L209.17,60.23L209.18,60.44L209.19,60.48L209.19,60.49L209.19,60.51L209.20,60.54L209.21,60.62L209.24,60.75L209.25,60.78L209.35,60.92L209.37,60.94L209.50,61.01L209.53,61.02L209.58,61.02L209.59,61.04L209.63,61.06L209.75,61.12L209.84,61.12L209.86,61.14L209.89,61.15L209.91,61.17L210.00,61.20L210.02,61.20L210.06,61.22L210.10,61.21L210.12,61.23L210.26,61.29L210.29,61.30L210.35,61.29L210.38,61.33L210.45,61.36L210.54,61.37L210.55,61.38L210.61,61.38L210.64,61.42L210.71,61.45L210.86,61.47L210.91,61.51L210.94,61.52L211.10,61.56L211.11,61.55L211.17,61.60L211.19,61.61"/><path d="M210.25,59.29L210.18,59.27L210.13,59.25"/><path d="M211.33,62.39L211.27,62.24L211.34,62.11"/><path d="M211.23,62.07L211.20,61.91L211.31,61.75"/><path d="M211.19,61.71L211.19,61.61"/><path d="M211.80,59.83L211.79,59.82L211.73,59.80L211.68,59.79L211.61,59.77L211.58,59.77L211.50,59.72L211.45,59.71L211.41,59.69L211.31,59.68L211.28,59.65L211.18,59.62L211.07,59.59L211.06,59.58L210.87,59.51L210.83,59.50L210.81,59.51L210.79,59.49L210.75,59.47L210.74,59.46L210.71,59.45L210.60,59.42L210.58,59.42L210.57,59.42L210.36,59.33L210.32,59.34L210.25,59.29"/><path d="M211.89,62.94L211.78,62.89L211.78,62.87"/><path d="M211.66,62.83L211.57,62.75L211.58,62.68"/><path d="M211.43,62.42L211.40,62.53L211.47,62.64"/><path d="M212.16,59.45L212.04,59.56L212.02,59.73"/><path d="M212.43,59.27L212.30,59.34L212.27,59.48"/><path d="M211.91,59.69L211.80,59.83"/><path d="M212.70,59.17L212.57,59.21L212.54,59.30"/><path d="M212.96,59.15L212.84,59.15L212.81,59.21"/><path d="M213.09,59.18L213.08,59.19"/></g></g><g id="Actor_2.5"><g style="stroke:#000000;stroke-width:0.176"><path d="M244.04,94.74L244.08,95.13L244.21,95.44L244.42,95.64L244.69,95.72L244.98,95.65L245.27,95.46L245.54,95.16L245.75,94.77L245.89,94.34L245.94,93.91L245.89,93.52L245.76,93.20L245.55,93.00L245.29,92.93L244.99,92.99L244.70,93.18L244.43,93.49L244.22,93.87L244.09,94.30L244.04,94.74L244.03,94.74L244.03,94.74"/><path d="M245.94,93.91L245.95,93.90L245.97,93.90L245.98,93.91L245.93,94.35L245.79,94.79L245.58,95.18L245.31,95.49L245.00,95.69L244.70,95.76L244.44,95.68"/><path d="M244.36,94.59L244.62,94.59L244.64,94.80L244.71,94.96L244.82,95.07L244.96,95.11L245.12,95.08L245.24,95.00L245.18,95.07L244.98,95.20L244.79,95.24L244.62,95.19L244.48,95.06L244.39,94.85L244.36,94.59L244.40,94.31L244.49,94.03L244.62,93.77L244.80,93.57L244.99,93.45L245.18,93.41L245.36,93.45L245.50,93.59L245.54,93.69L245.58,93.79L245.61,94.05L245.58,94.33L245.49,94.62L245.35,94.87L245.24,95.00"/><path d="M245.60,93.92L245.53,93.77L245.42,93.66L245.28,93.63L245.13,93.66L244.97,93.76L244.83,93.92L244.72,94.13L244.64,94.36L244.62,94.59L245.36,94.84"/><path d="M245.59,92.98L245.80,93.19L245.94,93.51L245.98,93.91L248.84,94.88L248.80,94.48L248.67,94.19L248.71,94.23L248.84,94.54L248.89,94.92L248.84,95.35L248.70,95.78L248.49,96.16L248.23,96.46L247.94,96.65L247.87,96.66L248.17,96.47L248.44,96.16L248.65,95.77L248.79,95.33L248.84,94.91L248.89,94.92"/><path d="M248.02,96.71L248.09,96.70L248.38,96.51L248.64,96.21L248.85,95.83L248.99,95.40L249.03,94.97L248.99,94.96L248.94,95.38L248.80,95.82L248.59,96.21L248.31,96.52L248.01,96.72L247.71,96.79L247.51,96.73L247.52,96.74L247.79,96.81L248.09,96.75L248.39,96.55L248.66,96.24L248.88,95.84L249.02,95.40L249.07,94.96L249.02,94.56L248.89,94.24L248.67,94.03L249.13,94.19L249.35,94.40L249.48,94.72L249.53,95.12L249.07,94.96"/><path d="M249.03,94.97L248.99,94.59L248.86,94.28L248.82,94.24L248.81,94.21L248.60,94.01L248.52,93.98L248.74,94.19L248.87,94.51L248.92,94.91L248.87,95.35L248.73,95.79L248.51,96.19L248.24,96.50L247.94,96.70L247.64,96.76L247.37,96.68L247.36,96.68L247.56,96.73L247.86,96.67L247.87,96.66"/><path d="M249.53,95.12L249.48,95.56L249.34,96.00L249.12,96.39L248.85,96.71L248.55,96.90L248.25,96.97L247.98,96.89L247.52,96.74"/><path d="M247.83,97.59L248.11,97.64L248.98,97.26L249.26,96.97L249.51,96.61L249.95,95.36L249.99,94.92L249.96,94.51L249.53,93.64L249.28,93.49"/><path d="M247.37,96.68L247.44,96.71L247.51,96.73"/><path d="M247.36,96.68L247.29,96.66L247.17,96.62"/><path d="M248.92,94.91L248.99,94.93L248.99,94.96"/><path d="M248.84,94.88L248.84,94.91"/><path d="M248.82,94.24L248.95,94.53L248.99,94.93"/><path d="M248.11,93.84L248.45,93.96L248.66,94.16L248.67,94.19"/><path d="M248.67,94.03L248.60,94.01"/><path d="M248.52,93.98L248.46,93.96"/></g><g style="stroke:#000000;stroke-width:0.529"><path d="M247.17,96.62L244.44,95.68L244.43,95.68L244.21,95.47L244.21,95.46L244.08,95.15L244.07,95.14L244.03,94.74L244.06,94.44L244.08,94.31L244.22,93.87L244.43,93.48L244.71,93.17L245.00,92.97L245.31,92.90L245.32,92.90L245.59,92.98L248.11,93.84"/><path d="M247.83,97.59L247.58,97.45L247.17,96.62"/><path d="M249.28,93.49L249.00,93.44L248.13,93.82L248.11,93.84"/></g></g><g id="Actor_2.6"><g style="stroke:#000000;stroke-width:0.176"><path d="M244.36,109.24L244.63,109.31L244.93,109.25L245.23,109.05L245.51,108.74L245.72,108.34L245.86,107.90L245.91,107.46L245.89,107.46L245.87,107.46L245.87,107.46L245.82,107.07L245.69,106.76L245.48,106.56L245.22,106.48L244.92,106.55L244.63,106.74L244.36,107.04L244.15,107.43L244.01,107.86L243.96,108.29L243.96,108.30L243.96,108.30"/><path d="M243.96,108.29L244.01,108.68L244.14,109.00L244.35,109.20L244.61,109.27L244.91,109.21L245.20,109.02L245.47,108.71L245.68,108.32L245.82,107.89L245.87,107.46"/><path d="M244.29,108.15L244.32,107.87L244.41,107.58L244.55,107.33L244.73,107.13L244.92,107.00L245.11,106.96L245.29,107.01L245.42,107.14L245.51,107.35L245.52,107.48L245.46,107.33L245.35,107.22L245.21,107.18L245.05,107.21L244.90,107.32L244.76,107.48L244.64,107.69L244.57,107.91L244.54,108.14L244.29,108.15L244.32,108.41L244.41,108.61L244.54,108.75L244.72,108.79L244.91,108.75L245.10,108.63L245.16,108.55L245.05,108.63L244.89,108.67L244.75,108.63L244.64,108.52L244.57,108.35L244.54,108.14L245.29,108.40"/><path d="M245.52,107.48L245.54,107.61L245.51,107.89L245.42,108.17L245.28,108.42L245.16,108.55"/><path d="M245.52,106.53L245.73,106.74L245.87,107.06L245.91,107.46L248.77,108.44L248.73,108.04L248.60,107.75L248.64,107.78L248.77,108.09L248.81,108.48L248.76,108.91L248.63,109.33L248.42,109.71L248.16,110.01L247.87,110.21L247.80,110.22L248.09,110.03L248.36,109.72L248.58,109.32L248.72,108.88L248.77,108.46L248.81,108.48"/><path d="M249.45,108.67L249.41,109.11L249.27,109.56L249.05,109.95L248.78,110.26L248.48,110.46L248.18,110.52L247.91,110.45L247.44,110.29L247.71,110.37L248.01,110.30L248.06,110.28L248.32,110.10L248.59,109.79L248.80,109.40L248.94,108.96L248.99,108.52L248.95,108.12L248.81,107.80L248.60,107.59L249.06,107.75L249.27,107.95L249.41,108.27L249.45,108.67L248.99,108.52"/><path d="M247.10,110.17L247.22,110.22L247.49,110.29L247.79,110.23L247.80,110.22"/><path d="M248.85,108.46L248.92,108.49L248.87,108.09L248.75,107.80L248.79,107.83L248.92,108.14L248.96,108.53L248.91,108.96L248.78,109.38L248.57,109.76L248.31,110.07L248.02,110.26L247.95,110.27L247.94,110.28L247.64,110.34L247.37,110.27L247.30,110.24L247.57,110.32L247.87,110.25L248.17,110.05L248.44,109.74L248.66,109.35L248.80,108.91L248.85,108.46L248.80,108.06L248.66,107.75L248.45,107.54L248.38,107.52L248.59,107.72L248.60,107.75"/><path d="M247.95,110.27L248.24,110.08L248.51,109.77L248.73,109.37L248.87,108.93L248.92,108.51L248.96,108.53"/><path d="M247.29,110.23L247.30,110.24"/><path d="M247.44,110.29L247.44,110.28"/><path d="M248.04,107.40L248.38,107.51L248.38,107.52"/><path d="M249.21,107.05L249.45,107.19L249.88,108.06L249.91,108.47L249.88,108.91L249.44,110.16L249.19,110.52L248.91,110.82L248.39,111.04"/><path d="M248.77,108.44L248.77,108.46"/><path d="M248.92,108.49L248.92,108.51"/><path d="M248.75,107.80L248.74,107.77L248.53,107.57L248.60,107.59"/><path d="M248.45,107.54L248.53,107.56L248.53,107.57"/></g><g style="stroke:#000000;stroke-width:0.529"><path d="M248.04,107.40L245.52,106.53L245.25,106.46L245.24,106.46L244.93,106.52L244.63,106.72L244.36,107.03L244.14,107.43L244.01,107.86L243.96,108.30L244.00,108.70L244.00,108.70L244.14,109.02L244.14,109.03L244.36,109.23L244.36,109.24L247.10,110.17"/><path d="M247.36,110.69L247.10,110.17"/><path d="M248.04,107.40L248.06,107.38L248.93,107.00L249.21,107.05"/></g></g><g id="Actor_.0"><g style="stroke:#000000;stroke-width:0.176"><path d="M195.82,141.62L196.65,141.35L196.66,141.76L196.71,142.19L196.78,142.62L196.88,143.06L197.01,143.48L197.17,143.90L197.35,144.30L197.56,144.69L197.78,145.05L198.03,145.38L198.29,145.69L198.56,145.96L198.84,146.19L199.13,146.39L199.42,146.54L198.60,146.81"/><path d="M197.89,141.90L197.68,141.49L196.65,141.35L196.69,133.50"/><path d="M196.53,133.72L196.52,135.47L196.55,135.46L196.54,135.59L196.51,135.91L196.48,136.09L196.51,135.79L196.52,135.47L196.42,135.50L196.30,135.51L196.18,135.50L196.07,135.48L195.98,135.45L195.99,135.77L196.02,136.07L196.08,136.36L196.16,136.64L196.26,136.90L196.36,136.57L196.45,136.24L196.48,136.09L196.44,136.25"/><path d="M197.19,136.83L197.32,136.56L197.42,136.27L197.50,135.97L197.54,135.66L197.56,135.34L197.50,135.38L197.42,135.42L197.31,135.44L197.19,135.44L197.08,135.43L197.08,135.75L197.09,136.04L197.12,136.33L197.15,136.59L197.19,136.83L197.06,136.52L196.96,136.21L196.89,135.89L196.85,135.57L196.84,135.25L196.85,133.59"/><path d="M195.98,135.45L195.99,133.72"/><path d="M196.55,135.46L196.56,135.27L196.56,133.71"/><path d="M196.84,135.34L196.89,135.38L196.97,135.41L197.08,135.43L197.08,133.68"/><path d="M197.73,133.64L197.68,141.49L197.70,141.84L197.73,142.19L197.80,142.55L197.89,142.91L198.01,143.27L198.15,143.61L198.31,143.94L198.49,144.25L198.69,144.54L198.90,144.80L199.12,145.03L199.36,145.23L199.60,145.40L199.84,145.53L199.43,144.79"/><path d="M197.89,135.72L197.75,135.72L197.77,136.43L197.81,137.11L197.86,136.61L197.89,136.03L197.90,133.98"/><path d="M197.27,136.67L197.29,136.63"/><path d="M197.75,135.72L197.76,133.97"/><path d="M197.56,135.34L197.57,133.61"/><path d="M225.79,158.40L199.42,146.54L199.84,145.53L226.21,157.39"/><path d="M225.28,158.27L224.44,157.89L224.21,157.79L223.95,157.70L223.67,157.62L223.38,157.56L223.07,157.50L223.18,157.62L223.31,157.74L223.35,157.78L223.47,157.86L223.66,157.97L223.87,158.08L223.88,157.97L223.93,157.85L223.99,157.76L224.02,157.73"/><path d="M223.87,158.08L225.10,158.63"/><path d="M225.87,158.25L224.63,157.69L224.56,157.65L224.52,157.57L224.49,157.47L224.50,157.36L224.53,157.25L224.13,157.06L223.70,156.86L223.95,156.82L224.21,156.82L224.45,156.85L224.70,156.91L224.92,156.99L224.84,156.98L224.75,157.00L224.70,157.04L224.66,157.06L224.59,157.14L224.53,157.25L225.77,157.81"/><path d="M224.63,157.69L224.42,157.58L224.21,157.43L224.02,157.27L223.85,157.07L223.70,156.86"/><path d="M223.86,155.98L224.03,156.01L224.22,156.05L224.42,156.12L224.64,156.21L224.57,156.30L224.52,156.41L224.50,156.51L224.21,156.33L223.96,156.16L223.70,155.98L223.86,155.98"/><path d="M224.50,156.51L224.70,156.61L224.92,156.72L225.74,157.09"/><path d="M224.64,156.21L225.88,156.77"/><path d="M224.92,156.99L226.16,157.55"/></g><g style="stroke:#000000;stroke-width:0.529"><path d="M196.53,144.57L196.73,144.96L196.96,145.32L197.20,145.66L197.46,145.96L197.73,146.23L198.01,146.46L198.30,146.66L198.60,146.81L224.97,158.67L225.10,158.63L225.15,158.44L225.22,158.33L225.28,158.27L225.68,158.44L225.79,158.40L225.87,158.25L225.83,158.22L225.77,158.15L225.74,158.05L225.74,157.93L225.77,157.81L225.84,157.69L225.92,157.61L226.02,157.55L226.11,157.54L226.16,157.55L226.21,157.39L226.16,157.28L225.74,157.09L225.74,157.06L225.78,156.94L225.88,156.77L225.80,156.65L199.43,144.79L199.23,144.68L199.03,144.53L198.84,144.36L198.66,144.15L198.49,143.91L198.34,143.66L198.20,143.38L198.09,143.09L198.00,142.79L197.94,142.49L197.90,142.20L197.89,141.90L197.93,134.06L197.90,133.98L197.76,133.97L197.76,133.69L197.73,133.64L197.57,133.61L197.45,133.66L197.34,133.68L197.21,133.69L197.08,133.68L196.97,133.66L196.89,133.62L196.85,133.59L196.85,133.51L196.69,133.50L196.56,133.53L196.56,133.71L196.53,133.72L196.42,133.75L196.29,133.76L196.16,133.75L195.99,133.72L195.86,133.77L195.82,141.62L195.84,142.04L195.88,142.46L195.95,142.90L196.06,143.33L196.19,143.75L196.34,144.17L196.53,144.57"/></g></g><g/><g><g/><g><path style="fill:#ffffff" d="M31.40,15.34L80.47,15.34L80.47,26.63L31.40,26.63z"/><text xml:space="preserve" fill="#000000" stroke-width="0" x="32.81" y="23.10" font-size="6.88" opacity="1.00" font-family="MS Shell Dlg">0010-ASM-001</text></g></g><g><g/><g><path style="fill:#ffffff" d="M6.53,180.00L136.05,180.00L136.05,199.05L6.53,199.05z"/><text xml:space="preserve" fill="#000000" stroke-width="0" x="7.59" y="185.82" font-size="5.18" opacity="1.00" font-family="MS Shell Dlg">a) Insert Door latch head in the slot so that the head will</text><text xml:space="preserve" fill="#000000" stroke-width="0" x="7.59" y="191.11" font-size="5.17" opacity="1.00" font-family="MS Shell Dlg">protrude from the Door internal catcher.</text><text xml:space="preserve" fill="#000000" stroke-width="0" x="7.59" y="196.40" font-size="5.17" opacity="1.00" font-family="MS Shell Dlg">b) Tighten the head to the catcher</text></g></g><g><g/><g><path style="fill:#ffffff" d="M168.00,180.00L286.84,180.00L286.84,193.76L168.00,193.76z"/><text xml:space="preserve" fill="#000000" stroke-width="0" x="169.06" y="185.82" font-size="5.18" opacity="1.00" font-family="MS Shell Dlg">a)   </text><text xml:space="preserve" fill="#000000" stroke-width="0" x="169.06" y="191.11" font-size="5.16" opacity="1.00" font-family="MS Shell Dlg">b) </text></g></g><g><g/><g><image x="82.357201" y="12.409999" height="15.000001" width="15.000001" xlink:href="17_files/a0355442f2126cc8_image_0.jpg"/></g></g><g><g/><g><image x="14.945761" y="13.167144" height="15.000001" width="15.000001" xlink:href="17_files/a0355442f2126cc8_image_1.jpg"/></g></g><g id="paperID" visibility="hidden" opacity="0.00" transform="scale(0.000100)"><path style="stroke:#000000;stroke-width:0.500;fill:#e6e6e6;fill-rule:evenodd" d="M-2000.00,-2000.00L2297.00,-2000.00L2297.00,2210.00L-2000.00,2210.00zM0.00,0.00L297.00,0.00L297.00,210.00L0.00,210.00z"/><path style="fill:#000000;fill-opacity:0.118" d="M3.00,210.00L297.00,210.00L297.00,3.00L300.00,3.00L300.00,213.00L3.00,213.00z"/></g><g id="hotspot.0" ident="" onmouseover="ShowHotSpot(evt,&apos;0&apos;)" onmouseout="HideHotSpot(evt,&apos;0&apos;)" onmousemove="ShowToolTip(evt,&apos;0&apos;,&quot;Copy 1 of Copy 1 of  6&quot;)" opacity="0"><a xlink:href="18.svg"><path style="fill:#00ff00;fill-rule:evenodd" d="M97.22,27.07L82.40,27.07L82.40,12.25L97.22,12.25z"/></a></g><g id="hotspot.1" ident="" onmouseover="ShowHotSpot(evt,&apos;1&apos;)" onmouseout="HideHotSpot(evt,&apos;1&apos;)" onmousemove="ShowToolTip(evt,&apos;1&apos;,&quot;Copy 1 of Copy 1 of Copy 1 of  6&quot;)" opacity="0"><a xlink:href="16.svg"><path style="fill:#00ff00;fill-rule:evenodd" d="M29.90,27.92L15.08,27.92L15.08,13.10L29.90,13.10z"/></a></g><g id="hotspot.2" ident="" onmouseover="ShowHotSpot(evt,&apos;2&apos;)" onmouseout="HideHotSpot(evt,&apos;2&apos;)" onmousemove="ShowToolTip(evt,&apos;2&apos;,&quot;0578_Door internal catcher_V2&quot;)" opacity="0"><path style="fill:#00ff00;fill-rule:evenodd" d="M203.03,32.87L202.99,85.61L202.71,127.75L192.53,132.31L192.81,83.80L193.09,86.36L193.40,86.67L193.94,86.77L193.94,78.42L193.09,78.52L192.81,79.98L193.01,33.19L197.51,31.19L198.76,31.20zM195.69,56.32L196.19,57.49L195.66,59.04L195.00,59.52L193.95,59.50L193.66,59.21L193.64,57.30L194.41,56.38L195.36,56.07zM201.88,81.54L201.88,82.80L201.49,83.26L200.15,83.27L199.05,82.67L198.38,81.24L198.94,80.71L199.79,80.42L201.04,80.41zM195.37,104.45L195.96,105.32L195.64,106.83L194.98,107.57L193.67,107.58L193.35,107.03L193.35,105.97L194.13,104.45L194.83,104.19z"/></g><g id="hotspot.3" ident="" onmouseover="ShowHotSpot(evt,&apos;3&apos;)" onmouseout="HideHotSpot(evt,&apos;3&apos;)" onmousemove="ShowToolTip(evt,&apos;3&apos;,&quot;0579_Door edge_V2&quot;)" opacity="0"><path style="fill:#00ff00;fill-rule:evenodd" d="M250.52,11.13L250.52,12.06L247.03,13.70L245.31,13.65L244.59,14.63L203.47,32.66L202.71,32.66L198.76,31.20L197.51,31.19L193.56,32.94L193.00,33.02L193.00,32.06L243.34,9.99L244.49,9.71L246.56,9.71zM248.81,110.99L249.99,111.51L249.96,112.48L198.19,135.14L198.10,134.18L198.80,133.71L198.80,133.32L197.92,132.74L195.81,132.73L195.26,133.05L195.28,133.95L195.62,134.19L195.64,135.42L192.52,134.46L192.53,132.28L243.35,110.12L246.28,110.12z"/></g><g id="hotspot.4" ident="" onmouseover="ShowHotSpot(evt,&apos;4&apos;)" onmouseout="HideHotSpot(evt,&apos;4&apos;)" onmousemove="ShowToolTip(evt,&apos;4&apos;,&quot;0078_Door front&quot;)" opacity="0"><path style="fill:#00ff00;fill-rule:evenodd" d="M251.65,11.13L251.68,37.84L222.14,50.73L220.44,51.86L219.43,53.11L218.18,55.25L217.42,58.17L217.40,96.57L217.69,97.41L218.84,98.81L220.18,98.83L229.49,94.85L250.14,85.77L250.80,85.76L251.36,86.09L251.12,112.80L198.18,135.97L198.18,135.12L249.96,112.48L249.99,111.51L248.81,110.99L246.28,110.12L243.35,110.12L203.00,127.78L202.99,85.61L203.27,32.71L244.47,14.79L245.31,13.65L247.03,13.70L250.52,12.07L250.70,10.82L251.07,10.79z"/></g><g id="hotspot.5" ident="" onmouseover="ShowHotSpot(evt,&apos;5&apos;)" onmouseout="HideHotSpot(evt,&apos;5&apos;)" onmousemove="ShowToolTip(evt,&apos;5&apos;,&quot;0202_Door latch head&quot;)" opacity="0"><path style="fill:#00ff00;fill-rule:evenodd" d="M191.12,80.52L192.82,79.96L193.08,78.52L193.94,78.42L193.94,86.77L193.40,86.67L193.09,86.36L192.83,83.77L192.59,83.53L191.41,83.54L191.10,82.99z"/></g><g id="hotspot.6" ident="" onmouseover="ShowHotSpot(evt,&apos;6&apos;)" onmouseout="HideHotSpot(evt,&apos;6&apos;)" onmousemove="ShowToolTip(evt,&apos;6&apos;,&quot;0250_M4X8 socket countersunk head screw&quot;)" opacity="0"><path style="fill:#00ff00;fill-rule:evenodd" d="M195.69,56.32L196.19,57.49L195.66,59.04L195.00,59.52L193.95,59.50L193.66,59.21L193.64,57.30L194.41,56.38L195.36,56.07zM195.37,104.45L195.96,105.32L195.64,106.83L194.98,107.57L193.67,107.58L193.35,107.03L193.35,105.97L194.13,104.45L194.83,104.19zM198.80,133.31L198.67,133.90L197.94,133.88L196.80,133.34L195.28,134.01L195.26,133.04L195.81,132.73L197.92,132.74z"/></g><g id="hotspot.7" ident="" onmouseover="ShowHotSpot(evt,&apos;7&apos;)" onmouseout="HideHotSpot(evt,&apos;7&apos;)" onmousemove="ShowToolTip(evt,&apos;7&apos;,&quot;0253_M4X10 socket head cap screw&quot;)" opacity="0"><path style="fill:#00ff00;fill-rule:evenodd" d="M201.88,81.54L201.88,82.80L201.49,83.26L200.15,83.27L199.05,82.67L198.38,81.24L198.94,80.71L199.79,80.42L201.04,80.41z"/></g><g id="ToolTip" visibility="hidden" opacity="0" transform="translate(0,0)"><rect id="ToolTipShadow" opacity="0.20" fill="black" stroke="none" x="0" y="0" width="30" height="8"/><rect id="ToolTipBG" fill="#ffffe1" stroke="black" x="0" y="0" width="30" height="8"/><text xml:space="preserve" id="ToolTipText" fill="black" x="0" y="0" width="30" height="8">tooltip</text></g></g></svg>