<?xml version="1.0" encoding="UTF-8" standalone="yes"?><svg xmlns="http://www.w3.org/2000/svg" xmlns:xlink="http://www.w3.org/1999/xlink" width="297.000mm" height="210.000mm" viewBox="0.000000 0.000000 297.000000 210.000000" stroke-linejoin="round" stroke-linecap="round" fill="none" fill-rule="evenodd"><desc>Composer Export</desc><script type="text/ecmascript"><![CDATA[
if(typeof(top) != "undefined")
{
	top.ShowPaper = ShowPaper;
}
function ShowHotSpot(evt,hotspotid)
{
	var svgDocument = evt.target.ownerDocument;
	var strId = "hotspot."+hotspotid;
	var hotspot = svgDocument.getElementById(strId);
	if(hotspot)
		hotspot.setAttribute("opacity",".5");
}
function HideHotSpot(evt,hotspotid)
{
	var svgDocument = evt.target.ownerDocument;
	var strId = "hotspot."+hotspotid;
	var hotspot = svgDocument.getElementById(strId);
	if(hotspot)
		hotspot.setAttribute("opacity","0");

	var toolTip = svgDocument.getElementById('ToolTip');
	if(toolTip)
		toolTip.setAttribute("visibility","hidden");
}
function ShowToolTip(evt,hotspotid,strTooltip)
{
	if(strTooltip=="")
	return;

	// change text
	var svgDocument = evt.target.ownerDocument;
	var tiptext = svgDocument.getElementById('ToolTipText');
	if( !tiptext )
	return;
	tiptext.firstChild.nodeValue = " " + strTooltip + "  " ;

	// show tooltip before, else some refresh issue

	var toolTip = svgDocument.getElementById('ToolTip');
	if(!toolTip)
	return;

	toolTip.setAttribute("visibility","visible");
	toolTip.setAttribute("opacity",".95");

	// move tooltip
	// get viewbox

	var root = svgDocument.documentElement;
	var vbox = (root.getAttribute("viewBox")).split(' ');
	var x0 = parseFloat(vbox[0]);
	var y0 = parseFloat(vbox[1]);
	var vboxW = parseFloat(vbox[2]);
	var vboxH = parseFloat(vbox[3]);

	// get default width of svg

	var strW = root.getAttribute("width");
	var svgW = parseFloat(strW);
	if(strW.indexOf('mm') != -1)
	svgW *= 3.779;

	var strH = root.getAttribute("height");
	var svgH = parseFloat(strH);
	if(strH.indexOf('mm') != -1)
	svgH *= 3.779;  	// 96 dpi  -> 96/25.4 = 3.779

	// update the viewbox / width / height if svg is embedded in html with zoom fit all
	var realx0 = x0;
	var realy0 = y0;
	var realvboxW = vboxW;
	var realvboxH = vboxH;
	var realsvgW = svgW;
	var realsvgH = svgH;

	if ((typeof(top) == "undefined") || (typeof(top.svgctl1) != "undefined")) // embedded in html
	{
		// get window size in pxl

		svgW = window.innerWidth;
		svgH = window.innerHeight;

		// calculate real viewbox

		realsvgW = svgW;
		realsvgH = svgH;
		if((svgW / svgH) > (vboxW / vboxH))
		{
			realvboxW = (vboxH * svgW) / svgH;
			realvboxH = vboxH;
			realx0 = x0 - (realvboxW - vboxW)/2 ;
		}
		else
		{
			realvboxH = (vboxW * svgH) / svgW;
			realvboxW = vboxW;
			realy0 = y0 - (realvboxH - vboxH)/2 ;
		}
	}

	// get user zoom/pan

	var newScale = root.currentScale;
	var translation = root.currentTranslate;

	// transform pxl to user unit

	var xPos = (((evt.clientX+10- translation.x)/newScale) * realvboxW)/realsvgW  + realx0 ;
	var yPos = (((evt.clientY+5- translation.y)/newScale) * realvboxH)/ realsvgH  + realy0 ;
	var scaleForWidth = ( (1 / newScale) * realvboxH) / realsvgH;

	// move tooltip

	toolTip.setAttribute("transform", "translate(" + xPos + "," + yPos + ")" );

	// resize tooltip

	var fontsize = 12;
	tiptext.setAttribute("font-size",fontsize*scaleForWidth);
	tiptext.setAttribute("y", fontsize*scaleForWidth);
	var tipBG = svgDocument.getElementById('ToolTipBG');
	var outline = tiptext.getBBox();
	if(tipBG)
	{
		tipBG.setAttribute("stroke-width", 1*scaleForWidth);
		tipBG.setAttribute("width", Number(outline.width) );
		tipBG.setAttribute("height", Number(outline.height) + fontsize*.5*scaleForWidth );
	}
	var ToolTipShadow = svgDocument.getElementById('ToolTipShadow');
	if(ToolTipShadow)
	{
		ToolTipShadow.setAttribute("width", Number(outline.width) );
		ToolTipShadow.setAttribute("height", Number(outline.height) + fontsize*.5*scaleForWidth );
		ToolTipShadow.setAttribute("x", 3*scaleForWidth);
		ToolTipShadow.setAttribute("y", 3*scaleForWidth);
	}
}
function ShowPaper()
{
  var svgDocument = getDocument();
  var paper = svgDocument.getElementById("paperID");
  if(paper)
  {
    paper.setAttribute("transform","scale(1)");
    paper.setAttribute("opacity","1");
    paper.setAttribute("visibility","visible");
  }
  var svg = svgDocument.getRootElement();
  if(svg)
  {
    svg.setAttribute("width","307.000mm");
    svg.setAttribute("height","220.000mm");
    svg.setAttribute("viewBox","-5.000000 -5.000000 307.000000 220.000000");
  }
}
]]></script><defs/><g><path style="fill:#ffffff" d="M297.00,210.08L0.07,210.08L0.07,0.07L297.00,0.07z"/><path style="fill:#cdd1d5" d="M195.22,86.33L196.23,86.26L196.48,82.72L196.79,82.65L196.79,89.09L196.56,92.71L196.15,92.47L196.30,89.49L195.45,89.48L195.32,89.67L195.02,90.05L194.03,90.28L193.38,89.73L193.77,86.81L194.20,86.24L194.90,85.97L195.12,86.01z"/><path style="fill:#e2e9ed" d="M196.79,82.65L196.48,82.72L196.23,86.26L195.22,86.33L195.12,86.01L195.28,85.84L195.52,82.56L195.84,82.08L196.57,81.90z"/><path style="fill:#e2e9ed" d="M194.90,85.97L194.20,86.24L193.77,86.81L193.38,89.73L193.03,89.52L193.04,86.08L193.44,85.73L194.56,85.73z"/><path style="fill:#e2e9ed" d="M195.59,92.25L195.32,89.67L195.45,89.48L196.30,89.49L196.15,92.47z"/><path style="fill:#e5d9d0" d="M227.62,99.00L227.61,100.37L227.11,101.37L226.02,102.05L224.84,101.78L223.95,101.25L224.60,101.12L224.83,99.59L225.51,98.77L226.73,98.20L226.90,98.26z"/><path style="fill:#fff2e8" d="M223.61,97.51L225.34,97.50L226.10,97.77L226.73,98.20L225.51,98.77L224.83,99.59L224.60,101.12L223.95,101.25L223.35,100.77L222.86,99.76L220.84,98.52L220.81,97.33L221.50,96.74L222.35,96.75z"/><path style="fill:#fff2e8" d="M226.84,99.52L226.84,100.60L226.38,100.91L225.83,101.08L225.53,100.87L225.53,99.79L226.38,99.27z"/><path style="fill:#ff0000" d="M200.52,24.22L202.08,24.14L202.01,24.62L200.52,24.63z"/><path style="fill:#e5e5e5" d="M198.07,55.66L198.82,57.20L197.96,57.29L197.79,56.45L196.20,55.75L196.40,55.15L196.71,54.91L197.30,54.91z"/><path style="fill:#e5e5e5" d="M196.57,81.90L195.84,82.08L195.97,81.73L196.51,81.72z"/><path style="fill:#e5e5e5" d="M196.15,92.47L196.56,92.71L196.52,92.87L195.78,92.77L195.59,92.25z"/><path style="fill:#e5e5e5" d="M197.83,116.52L198.32,117.57L198.30,118.16L197.73,118.17L197.54,117.31L195.69,116.54L196.27,115.85L197.05,115.78z"/><path style="fill:#e5e5e5" d="M208.06,72.05L207.50,150.89L202.23,152.13L200.22,152.48L200.97,27.14L202.47,26.64L208.06,25.36z"/><path style="fill:#ffffff" d="M206.80,87.26L207.08,87.73L207.07,88.84L206.32,90.34L204.49,91.27L202.05,91.25L201.73,90.75L204.10,89.88L205.25,88.52L205.56,86.48z"/><path style="fill:#ffffff" d="M204.34,87.24L204.33,88.09L204.07,88.60L203.31,89.09L201.46,89.34L201.93,87.96L203.30,86.80L203.58,86.75z"/><g id="Actor_5.0"><g style="stroke:#000000;stroke-width:0.176"><path d="M193.28,85.64L194.11,86.09L193.63,86.73L193.59,86.79L193.57,86.87L193.56,86.94L193.55,89.47L192.72,89.03"/><path d="M194.14,90.10L194.09,90.07L193.62,89.65L192.79,89.21"/><path d="M193.56,86.94L192.73,86.49"/><path d="M192.81,86.28L193.63,86.73"/><path d="M194.09,90.07L193.26,89.62"/><path d="M193.55,89.47L193.56,89.54L193.58,89.60L193.62,89.65"/><path d="M194.11,86.09L194.16,86.03L194.22,85.99L194.28,85.96L194.86,85.83L194.92,85.82L194.98,85.83L195.03,85.87L195.07,85.91L195.21,86.16L195.25,86.20L195.30,86.24L195.36,86.25L195.42,86.24L196.02,86.10L196.10,86.07L196.16,86.01L196.22,85.94L196.25,85.86L196.27,85.77L196.28,83.00L196.31,82.83L196.38,82.66L196.49,82.51L196.62,82.40L196.73,82.35"/><path d="M194.28,85.96L193.45,85.52"/><path d="M194.86,85.83L194.03,85.38"/><path d="M194.98,85.83L194.82,85.74"/><path d="M195.19,86.12L195.42,86.24"/><path d="M195.19,85.66L196.02,86.10"/><path d="M196.25,89.36L195.89,89.17L196.00,89.14L196.08,89.14L196.15,89.16L196.20,89.21L196.24,89.28L196.25,89.36L196.23,92.12L196.26,92.29L196.33,92.43L196.43,92.52"/><path d="M196.23,92.12L195.41,91.68"/><path d="M195.42,89.28L195.89,89.17"/><path d="M196.27,85.77L195.44,85.32"/><path d="M196.28,83.00L195.45,82.56"/><path d="M196.73,82.31L195.95,81.89"/></g><g style="stroke:#000000;stroke-width:0.529"><path d="M194.82,85.74L194.15,85.39L194.10,85.37L194.03,85.38L193.45,85.52L193.39,85.54L193.33,85.58L193.28,85.64L192.81,86.28L192.77,86.35L192.74,86.42L192.73,86.49L192.72,89.03L192.73,89.10L192.75,89.16L192.79,89.21L193.26,89.62L193.31,89.66L194.14,90.10L194.20,90.11L194.26,90.11L194.72,90.00L194.84,89.97L194.90,89.95L194.96,89.91L195.01,89.85L195.05,89.78L195.19,89.47L195.23,89.41L195.29,89.35L195.34,89.31L195.41,89.28L195.42,89.28"/><path d="M196.56,81.74L195.95,81.89L195.80,81.95L195.66,82.06L195.55,82.21L195.48,82.38L195.45,82.56L195.44,85.32L195.43,85.41L195.39,85.49L195.34,85.57L195.27,85.62L195.19,85.66L194.82,85.74"/><path d="M196.69,92.56L196.57,92.57L196.43,92.52L195.61,92.08L195.50,91.98L195.43,91.84L195.41,91.68L195.42,89.28"/></g></g><g id="Actor_10.0"><g style="stroke:#000000;stroke-width:0.176"><path d="M196.23,120.00L196.41,120.29L196.91,120.77L197.42,120.98L197.89,120.89L198.27,120.51L198.52,119.89L198.61,119.09L198.53,118.20L198.29,117.32L197.91,116.54L197.44,115.94L196.93,115.59L196.44,115.54L196.01,115.77L195.69,116.28L195.52,117.00L195.51,117.85L195.67,118.75L195.99,119.60L196.23,120.00"/><path d="M195.69,92.12L195.71,92.71L195.78,92.98L195.89,93.22L196.03,93.41L196.18,93.53L196.34,93.58L196.48,93.53L196.59,93.41L196.66,93.22L196.68,92.97L196.74,82.47L196.72,82.20L196.65,81.93L196.54,81.69L196.40,81.50L196.25,81.37L196.09,81.33L195.96,81.37L195.84,81.50L195.77,81.69L195.75,81.99"/><path d="M196.18,93.53L196.55,93.45"/><path d="M195.69,92.44L196.10,92.34"/><path d="M195.75,81.94L196.56,81.74"/><path d="M196.46,59.04L196.31,58.79L196.00,57.95L195.83,57.05L195.84,56.20L196.01,55.47L196.33,54.97L196.76,54.73L197.26,54.79L197.77,55.14L198.23,55.73L198.61,56.52L198.85,57.40L198.93,58.29L198.84,59.09L198.59,59.71L198.21,60.08L197.74,60.17L197.23,59.97L196.73,59.49L196.46,59.04"/><path d="M200.19,152.40L200.85,26.87L195.56,24.02"/><path d="M197.97,116.67L197.75,116.78L197.60,117.02L197.52,117.37L197.52,117.78L197.59,118.21L197.74,118.61L197.95,118.94L198.19,119.17L198.43,119.27L198.59,119.24"/><path d="M198.91,58.44L198.75,58.47L198.51,58.37L198.27,58.14L198.07,57.81L197.92,57.40L197.84,56.97L197.84,56.56L197.92,56.22L198.07,55.98L198.30,55.86"/><path d="M200.85,26.87L208.22,25.12"/><path d="M200.34,24.35L200.25,24.24L200.28,24.12L200.40,24.02L200.62,23.93L200.90,23.88L201.21,23.86L201.53,23.88L201.82,23.93L202.04,24.02L202.17,24.12L202.20,24.24L202.13,24.35L201.96,24.45L201.70,24.52L201.40,24.56L201.08,24.56L200.77,24.52L200.52,24.45L200.34,24.35"/><path d="M202.22,91.15L201.75,90.74L201.46,90.15L201.36,89.44L201.46,88.68L201.77,87.94L202.24,87.31L202.83,86.83L203.48,86.56L204.96,86.21L205.61,86.17L206.20,86.37L206.66,86.78L206.96,87.37L207.06,88.08L206.95,88.85L206.64,89.57L206.17,90.21L205.58,90.69L204.93,90.96L203.46,91.31L202.80,91.35L202.22,91.15"/><path d="M203.46,91.31L201.80,90.42L201.60,90.43"/><path d="M201.80,90.42L203.28,90.07L204.93,90.96"/><path d="M201.39,89.19L201.49,89.22L201.81,89.20L201.42,88.99"/><path d="M201.81,89.20L203.28,88.85L201.74,88.02"/><path d="M203.28,90.07L203.93,89.80L204.52,89.32L204.99,88.68L205.29,87.95L205.40,87.19L205.30,86.48L205.16,86.19"/><path d="M203.28,88.85L203.60,88.72L203.89,88.49L204.12,88.18L204.27,87.82L204.32,87.45L204.27,87.10L204.13,86.81L203.90,86.61L203.64,86.52"/></g><g style="stroke:#000000;stroke-width:0.529"><path d="M195.23,85.64L195.56,24.02L196.20,22.83L201.60,21.55L208.22,25.12L207.56,150.65L200.19,152.40L194.89,149.55L195.21,89.45"/></g></g><g id="Actor_8.0"><g style="stroke:#000000;stroke-width:0.176"><path d="M224.19,97.62L224.10,97.67L223.62,98.13L223.27,98.72L223.09,99.36L223.08,99.70"/><path d="M225.35,101.64L225.07,101.50L224.76,101.12L224.60,100.63L224.58,100.35L224.60,100.07L224.77,99.49L225.08,98.97L225.50,98.57L225.99,98.31L226.49,98.24L226.95,98.36L227.31,98.65L227.55,99.09L227.63,99.63L227.54,100.20L227.30,100.76L226.93,101.23L226.47,101.56L225.97,101.73L225.48,101.70L225.35,101.64"/><path d="M224.80,101.62L224.45,101.20L224.27,100.64L224.25,100.33L224.28,100.00L224.46,99.36L224.81,98.77L225.29,98.31L225.84,98.02L226.40,97.94L226.92,98.07"/><path d="M226.10,100.97L226.86,100.30L226.86,99.32L226.11,99.01L225.35,99.68L225.35,100.66L226.10,100.97L225.44,100.61L225.35,100.58"/><path d="M225.35,100.49L225.38,100.49L225.62,100.41L225.82,100.28L225.44,100.61"/><path d="M225.79,99.29L226.16,99.19L226.20,99.45L226.19,99.94L225.82,100.28L225.85,100.25L226.03,100.01L226.15,99.74L226.20,99.45L226.20,99.05"/><path d="M226.19,99.94L226.86,100.30"/><path d="M226.15,99.74L225.48,99.56"/><path d="M226.16,99.19L226.08,99.04"/></g><g style="stroke:#000000;stroke-width:0.529"><path d="M224.19,97.62L222.14,96.51L221.85,96.43L221.52,96.48L221.21,96.64L220.94,96.91L220.74,97.24L220.63,97.61L220.63,97.97L220.73,98.29L220.93,98.53L223.08,99.70"/><path d="M223.08,99.70L223.08,100.00L223.26,100.56L223.61,100.98L224.80,101.62L225.27,101.85L225.82,101.88L226.38,101.69L226.90,101.31L227.32,100.78L227.60,100.16L227.69,99.51L227.60,98.90L227.34,98.41L226.92,98.07L225.73,97.43L225.21,97.30L224.65,97.38L224.19,97.62"/></g></g><g/><g><g/><g><path style="fill:#ffffff" d="M31.40,15.34L80.47,15.34L80.47,26.63L31.40,26.63z"/><text xml:space="preserve" fill="#000000" stroke-width="0" x="32.81" y="23.10" font-size="6.88" opacity="1.00" font-family="MS Shell Dlg">0010-ASM-001</text></g></g><g><g/><g><path style="fill:#ffffff" d="M6.53,180.00L136.05,180.00L136.05,199.05L6.53,199.05z"/><text xml:space="preserve" fill="#000000" stroke-width="0" x="7.59" y="185.82" font-size="5.18" opacity="1.00" font-family="MS Shell Dlg">a) Insert Door latch head in the slot so that the head will</text><text xml:space="preserve" fill="#000000" stroke-width="0" x="7.59" y="191.11" font-size="5.17" opacity="1.00" font-family="MS Shell Dlg">protrude from the Door internal catcher.</text><text xml:space="preserve" fill="#000000" stroke-width="0" x="7.59" y="196.40" font-size="5.17" opacity="1.00" font-family="MS Shell Dlg">b) Tighten the head to the catcher</text></g></g><g><g/><g><path style="fill:#ffffff" d="M168.00,180.00L286.84,180.00L286.84,193.76L168.00,193.76z"/><text xml:space="preserve" fill="#000000" stroke-width="0" x="169.06" y="185.82" font-size="5.18" opacity="1.00" font-family="MS Shell Dlg">a) 将门锁头插入槽中，使 头从门内部固定器中伸 出。</text><text xml:space="preserve" fill="#000000" stroke-width="0" x="169.06" y="191.11" font-size="5.16" opacity="1.00" font-family="MS Shell Dlg">b) 将头部拧紧到捕手上</text></g></g><g><g/><g><image x="82.357201" y="12.409999" height="15.000001" width="15.000001" xlink:href="2_files/ab1e592331fff484_image_0.jpg"/></g></g><g><g/><g><image x="14.945761" y="13.167144" height="15.000001" width="15.000001" xlink:href="2_files/ab1e592331fff484_image_1.jpg"/></g></g><g id="paperID" visibility="hidden" opacity="0.00" transform="scale(0.000100)"><path style="stroke:#000000;stroke-width:0.500;fill:#e6e6e6;fill-rule:evenodd" d="M-2000.00,-2000.00L2297.00,-2000.00L2297.00,2210.00L-2000.00,2210.00zM0.00,0.00L297.00,0.00L297.00,210.00L0.00,210.00z"/><path style="fill:#000000;fill-opacity:0.118" d="M3.00,210.00L297.00,210.00L297.00,3.00L300.00,3.00L300.00,213.00L3.00,213.00z"/></g><g id="hotspot.0" ident="" onmouseover="ShowHotSpot(evt,&apos;0&apos;)" onmouseout="HideHotSpot(evt,&apos;0&apos;)" onmousemove="ShowToolTip(evt,&apos;0&apos;,&quot;Copy 1 of Copy 1 of  6&quot;)" opacity="0"><a xlink:href="3.svg"><path style="fill:#00ff00;fill-rule:evenodd" d="M97.22,27.07L82.40,27.07L82.40,12.25L97.22,12.25z"/></a></g><g id="hotspot.1" ident="" onmouseover="ShowHotSpot(evt,&apos;1&apos;)" onmouseout="HideHotSpot(evt,&apos;1&apos;)" onmousemove="ShowToolTip(evt,&apos;1&apos;,&quot;Copy 1 of Copy 1 of Copy 1 of  6&quot;)" opacity="0"><a xlink:href="1.svg"><path style="fill:#00ff00;fill-rule:evenodd" d="M29.90,27.92L15.08,27.92L15.08,13.10L29.90,13.10z"/></a></g><g id="hotspot.2" ident="" onmouseover="ShowHotSpot(evt,&apos;2&apos;)" onmouseout="HideHotSpot(evt,&apos;2&apos;)" onmousemove="ShowToolTip(evt,&apos;2&apos;,&quot;0578_Door internal catcher_V2&quot;)" opacity="0"><path style="fill:#00ff00;fill-rule:evenodd" d="M208.12,24.96L207.52,150.38L200.93,152.01L199.88,152.01L195.08,149.44L195.07,123.23L195.36,89.17L195.55,91.83L195.91,92.08L196.49,92.14L196.79,82.10L196.51,81.58L195.64,81.94L195.36,85.35L195.54,23.84L196.13,22.74L200.36,21.59L202.16,21.58z"/></g><g id="hotspot.3" ident="" onmouseover="ShowHotSpot(evt,&apos;3&apos;)" onmouseout="HideHotSpot(evt,&apos;3&apos;)" onmousemove="ShowToolTip(evt,&apos;3&apos;,&quot;0202_Door latch head&quot;)" opacity="0"><path style="fill:#00ff00;fill-rule:evenodd" d="M196.79,82.10L196.49,92.14L195.91,92.08L195.55,91.83L195.38,89.19L194.72,89.81L193.94,89.80L192.73,89.00L192.79,86.16L193.57,85.20L195.36,85.35L195.64,81.94L196.51,81.58z"/></g><g id="hotspot.4" ident="" onmouseover="ShowHotSpot(evt,&apos;4&apos;)" onmouseout="HideHotSpot(evt,&apos;4&apos;)" onmousemove="ShowToolTip(evt,&apos;4&apos;,&quot;0253_M4X10 socket head cap screw&quot;)" opacity="0"><path style="fill:#00ff00;fill-rule:evenodd" d="M223.63,97.13L225.34,97.09L227.05,97.95L227.62,98.80L227.62,100.05L226.66,101.35L224.76,101.37L223.37,100.50L222.82,99.35L220.82,98.24L220.79,96.89L221.56,96.23L221.95,96.24z"/></g><g id="ToolTip" visibility="hidden" opacity="0" transform="translate(0,0)"><rect id="ToolTipShadow" opacity="0.20" fill="black" stroke="none" x="0" y="0" width="30" height="8"/><rect id="ToolTipBG" fill="#ffffe1" stroke="black" x="0" y="0" width="30" height="8"/><text xml:space="preserve" id="ToolTipText" fill="black" x="0" y="0" width="30" height="8">tooltip</text></g></g></svg>