<?xml version="1.0" encoding="UTF-8" standalone="yes"?><svg xmlns="http://www.w3.org/2000/svg" xmlns:xlink="http://www.w3.org/1999/xlink" width="297.000mm" height="210.000mm" viewBox="0.000000 0.000000 297.000000 210.000000" stroke-linejoin="round" stroke-linecap="round" fill="none" fill-rule="evenodd"><desc>Composer Export</desc><script type="text/ecmascript"><![CDATA[
if(typeof(top) != "undefined")
{
	top.ShowPaper = ShowPaper;
}
function ShowHotSpot(evt,hotspotid)
{
	var svgDocument = evt.target.ownerDocument;
	var strId = "hotspot."+hotspotid;
	var hotspot = svgDocument.getElementById(strId);
	if(hotspot)
		hotspot.setAttribute("opacity",".5");
}
function HideHotSpot(evt,hotspotid)
{
	var svgDocument = evt.target.ownerDocument;
	var strId = "hotspot."+hotspotid;
	var hotspot = svgDocument.getElementById(strId);
	if(hotspot)
		hotspot.setAttribute("opacity","0");

	var toolTip = svgDocument.getElementById('ToolTip');
	if(toolTip)
		toolTip.setAttribute("visibility","hidden");
}
function ShowToolTip(evt,hotspotid,strTooltip)
{
	if(strTooltip=="")
	return;

	// change text
	var svgDocument = evt.target.ownerDocument;
	var tiptext = svgDocument.getElementById('ToolTipText');
	if( !tiptext )
	return;
	tiptext.firstChild.nodeValue = " " + strTooltip + "  " ;

	// show tooltip before, else some refresh issue

	var toolTip = svgDocument.getElementById('ToolTip');
	if(!toolTip)
	return;

	toolTip.setAttribute("visibility","visible");
	toolTip.setAttribute("opacity",".95");

	// move tooltip
	// get viewbox

	var root = svgDocument.documentElement;
	var vbox = (root.getAttribute("viewBox")).split(' ');
	var x0 = parseFloat(vbox[0]);
	var y0 = parseFloat(vbox[1]);
	var vboxW = parseFloat(vbox[2]);
	var vboxH = parseFloat(vbox[3]);

	// get default width of svg

	var strW = root.getAttribute("width");
	var svgW = parseFloat(strW);
	if(strW.indexOf('mm') != -1)
	svgW *= 3.779;

	var strH = root.getAttribute("height");
	var svgH = parseFloat(strH);
	if(strH.indexOf('mm') != -1)
	svgH *= 3.779;  	// 96 dpi  -> 96/25.4 = 3.779

	// update the viewbox / width / height if svg is embedded in html with zoom fit all
	var realx0 = x0;
	var realy0 = y0;
	var realvboxW = vboxW;
	var realvboxH = vboxH;
	var realsvgW = svgW;
	var realsvgH = svgH;

	if ((typeof(top) == "undefined") || (typeof(top.svgctl1) != "undefined")) // embedded in html
	{
		// get window size in pxl

		svgW = window.innerWidth;
		svgH = window.innerHeight;

		// calculate real viewbox

		realsvgW = svgW;
		realsvgH = svgH;
		if((svgW / svgH) > (vboxW / vboxH))
		{
			realvboxW = (vboxH * svgW) / svgH;
			realvboxH = vboxH;
			realx0 = x0 - (realvboxW - vboxW)/2 ;
		}
		else
		{
			realvboxH = (vboxW * svgH) / svgW;
			realvboxW = vboxW;
			realy0 = y0 - (realvboxH - vboxH)/2 ;
		}
	}

	// get user zoom/pan

	var newScale = root.currentScale;
	var translation = root.currentTranslate;

	// transform pxl to user unit

	var xPos = (((evt.clientX+10- translation.x)/newScale) * realvboxW)/realsvgW  + realx0 ;
	var yPos = (((evt.clientY+5- translation.y)/newScale) * realvboxH)/ realsvgH  + realy0 ;
	var scaleForWidth = ( (1 / newScale) * realvboxH) / realsvgH;

	// move tooltip

	toolTip.setAttribute("transform", "translate(" + xPos + "," + yPos + ")" );

	// resize tooltip

	var fontsize = 12;
	tiptext.setAttribute("font-size",fontsize*scaleForWidth);
	tiptext.setAttribute("y", fontsize*scaleForWidth);
	var tipBG = svgDocument.getElementById('ToolTipBG');
	var outline = tiptext.getBBox();
	if(tipBG)
	{
		tipBG.setAttribute("stroke-width", 1*scaleForWidth);
		tipBG.setAttribute("width", Number(outline.width) );
		tipBG.setAttribute("height", Number(outline.height) + fontsize*.5*scaleForWidth );
	}
	var ToolTipShadow = svgDocument.getElementById('ToolTipShadow');
	if(ToolTipShadow)
	{
		ToolTipShadow.setAttribute("width", Number(outline.width) );
		ToolTipShadow.setAttribute("height", Number(outline.height) + fontsize*.5*scaleForWidth );
		ToolTipShadow.setAttribute("x", 3*scaleForWidth);
		ToolTipShadow.setAttribute("y", 3*scaleForWidth);
	}
}
function ShowPaper()
{
  var svgDocument = getDocument();
  var paper = svgDocument.getElementById("paperID");
  if(paper)
  {
    paper.setAttribute("transform","scale(1)");
    paper.setAttribute("opacity","1");
    paper.setAttribute("visibility","visible");
  }
  var svg = svgDocument.getRootElement();
  if(svg)
  {
    svg.setAttribute("width","307.000mm");
    svg.setAttribute("height","220.000mm");
    svg.setAttribute("viewBox","-5.000000 -5.000000 307.000000 220.000000");
  }
}
]]></script><defs/><g><path style="fill:#ffffff" d="M297.00,210.08L0.07,210.08L0.07,0.07L297.00,0.07z"/><path style="fill:#fff2e8" d="M206.37,33.40L206.35,33.71L205.91,33.88L203.79,33.92L203.29,33.63L203.28,33.24L204.22,32.89L205.57,32.89z"/><path style="fill:#fff2e8" d="M203.32,54.91L203.21,56.62L203.06,56.80L202.23,56.78L201.79,55.95L201.65,54.32L202.64,54.04z"/><path style="fill:#fff2e8" d="M203.07,93.75L203.05,95.60L202.74,95.82L202.32,95.77L201.81,95.25L201.54,94.53L201.49,92.99L201.63,92.88L202.39,92.87L202.60,92.99z"/><path style="fill:#0000ff" d="M240.68,52.89L241.13,53.93L241.05,55.72L240.36,55.69L240.19,55.56L240.87,55.27L240.91,54.20L238.05,54.95L237.72,56.09L237.12,55.95L236.87,55.69L236.79,53.94L239.63,53.26L239.71,52.64L239.96,52.52z"/><path style="fill:#0000ff" d="M240.68,63.91L241.13,64.95L241.14,66.31L240.78,66.73L240.11,66.72L239.94,66.59L240.92,66.07L240.88,65.19L238.26,65.70L237.83,65.96L237.67,67.06L237.48,67.18L236.92,66.85L236.61,66.23L236.62,65.04L238.29,64.46L239.37,64.28L239.78,63.67L240.38,63.68z"/><path style="fill:#0000ff" d="M215.37,64.35L215.23,65.14L215.08,65.30L213.92,65.36L213.79,64.95L213.51,64.91L213.56,65.19L213.92,65.36L213.44,65.69L212.81,65.19L212.78,64.55L212.97,64.14L213.61,64.04L214.42,63.80z"/><path style="fill:#0000ff" d="M215.36,92.77L215.34,93.33L215.03,93.55L214.20,93.65L214.31,92.98L214.03,92.98L213.89,93.66L213.16,93.88L212.80,93.77L212.69,92.67L213.70,92.16L214.42,92.13L214.86,92.25z"/><path style="fill:#0000ff" d="M240.36,117.07L240.88,118.02L240.75,118.28L237.54,119.06L237.46,120.20L236.62,120.06L236.35,119.58L236.37,118.14L239.10,117.37L239.53,116.77z"/><path style="fill:#0000ff" d="M240.38,128.33L240.67,129.23L237.55,130.09L237.22,131.24L236.62,131.09L236.35,130.60L236.37,129.17L237.03,128.82L239.11,128.39L239.38,127.83L239.90,127.85z"/><path style="fill:#e5e5e5" d="M209.34,38.63L208.81,115.13L204.48,116.16L204.56,69.80L204.81,36.13z"/><path style="fill:#cdd1d5" d="M201.57,73.87L201.83,73.59L202.08,71.38L202.05,77.84L201.70,77.95L201.54,75.93L201.11,76.14L200.23,76.34L200.09,76.15L200.31,73.81L200.64,73.59L201.09,73.66z"/><path style="fill:#ffffff" d="M205.43,75.67L205.31,75.80L205.32,75.13z"/><path style="fill:#e5d9d0" d="M202.56,55.52L202.22,55.52L202.22,55.19L202.56,55.19z"/><path style="fill:#e5d9d0" d="M208.18,74.41L208.08,75.83L207.23,76.51L206.58,76.52L206.14,76.33L206.09,76.12L206.57,74.57L207.64,74.08z"/><path style="fill:#e5d9d0" d="M202.31,94.35L201.97,94.35L201.97,94.01L202.31,94.01z"/><path style="fill:#fff2e8" d="M205.43,75.67L205.32,75.13L205.82,74.32L206.73,73.97L207.64,74.08L206.57,74.57L206.09,76.12z"/><path style="fill:#fff2e8" d="M207.50,75.74L206.72,75.82L206.80,75.05L207.57,74.97z"/><path style="fill:#0000e5" d="M237.41,54.79L237.00,55.02L237.05,54.43L237.37,54.41z"/><path style="fill:#0000e5" d="M240.87,55.27L240.19,55.56L237.72,56.09L238.05,54.95L240.91,54.20z"/><path style="fill:#0000e5" d="M215.64,64.71L215.60,65.05L215.23,65.14L215.37,64.35z"/><path style="fill:#0000e5" d="M213.51,64.91L213.79,64.95L213.92,65.36L213.56,65.19z"/><path style="fill:#0000e5" d="M237.42,65.45L237.38,65.80L236.86,65.73L236.85,65.27L237.15,65.19z"/><path style="fill:#0000e5" d="M237.83,65.96L238.26,65.70L240.88,65.19L240.92,66.07L239.94,66.59L237.67,67.06z"/><path style="fill:#0000e5" d="M214.20,93.65L213.89,93.66L214.03,92.98L214.31,92.98z"/><path style="fill:#0000e5" d="M213.40,94.02L213.16,93.88L213.89,93.66z"/><path style="fill:#0000e5" d="M237.14,118.78L236.92,119.16L236.57,118.82L236.56,118.52z"/><path style="fill:#0000e5" d="M240.79,118.47L240.73,119.24L239.91,119.73L237.46,120.20L237.54,119.06L240.75,118.28z"/><path style="fill:#0000e5" d="M237.15,129.82L236.60,129.82L236.54,129.55L236.88,129.55z"/><path style="fill:#0000e5" d="M240.69,130.01L239.71,130.69L237.22,131.24L237.55,130.09L240.67,129.23z"/><path style="fill:#0000ff" d="M240.97,118.74L240.73,119.24L240.79,118.47z"/><path style="fill:#0000ff" d="M239.91,119.73L240.73,119.24L240.38,120.15z"/><path style="fill:#0000ff" d="M239.71,130.69L240.69,130.01L240.55,130.86z"/><path style="fill:#e87008" d="M234.39,65.68L236.92,66.85L237.48,67.18L237.62,67.46L240.86,69.23L241.43,70.13L241.41,70.63L240.61,70.80L240.27,114.98L240.10,115.14L239.10,115.07L219.36,104.26L217.60,102.26L216.07,99.03L214.87,95.22L213.58,94.50L213.40,94.02L213.89,93.66L214.20,93.65L215.03,93.55L215.34,93.33L215.36,92.77L214.86,92.25L214.42,92.13L213.82,91.74L213.70,92.16L212.69,92.67L212.81,91.07L213.24,90.50L214.83,90.09L215.08,88.08L215.09,67.45L214.58,66.71L213.58,65.94L213.44,65.69L213.92,65.36L215.08,65.30L215.23,65.14L215.60,65.05L215.64,64.71L215.37,64.35L214.42,63.80L213.77,63.71L213.61,64.04L212.97,64.14L213.07,62.53L214.25,61.94L215.57,62.05L216.08,60.53L216.99,59.19L218.50,58.44L220.85,58.43z"/><path style="fill:#e2e9ed" d="M193.77,62.47L196.64,62.55L188.95,64.46L188.78,78.57L188.38,146.73L184.52,144.61L184.51,126.65L187.71,125.84L188.03,120.40L188.04,82.48L186.27,81.24L184.77,80.49L184.76,62.52L186.95,61.95L187.78,61.93L188.26,62.22L189.45,62.20L192.54,61.68z"/><path style="fill:#e2e9ed" d="M202.08,71.38L201.83,73.59L201.57,73.87L201.09,73.66L201.27,71.26L201.49,70.96L201.82,70.91z"/><path style="fill:#e2e9ed" d="M199.55,73.81L199.97,73.44L200.64,73.59L200.31,73.81L200.09,76.15L199.55,75.73z"/><path style="fill:#e2e9ed" d="M201.11,76.14L201.54,75.93L201.70,77.95L201.57,78.07L201.28,77.79z"/><path style="fill:#d06407" d="M214.42,63.80L213.61,64.04L213.77,63.71z"/><path style="fill:#d06407" d="M240.61,70.80L241.41,70.63L241.50,73.13L241.52,111.97L241.41,113.71L241.06,114.82L240.27,114.98z"/><path style="fill:#d06407" d="M214.42,92.13L213.70,92.16L213.82,91.74z"/><path style="fill:#e5e5e5" d="M241.32,52.19L239.96,52.52L239.71,52.64L238.02,52.76L238.02,52.20L239.55,51.69L241.40,51.43z"/><path style="fill:#e5e5e5" d="M202.64,54.04L201.65,54.32L201.71,53.93z"/><path style="fill:#e5e5e5" d="M242.38,72.80L241.50,73.13L241.41,70.63L241.43,70.13L241.63,68.30L241.80,51.43L242.41,51.19z"/><path style="fill:#e5e5e5" d="M202.39,92.87L201.63,92.88L202.30,92.74z"/><path style="fill:#e5e5e5" d="M237.37,131.84L237.08,132.11L235.85,132.10L235.84,131.67L236.89,131.57z"/><path style="fill:#e5e5e5" d="M241.87,133.42L241.39,133.70L241.41,113.71L241.52,111.97L242.16,111.81z"/><path style="fill:#e5e5e5" d="M240.81,133.35L237.61,134.19L237.54,133.35L240.32,132.57L240.89,132.58z"/><path style="fill:#e50000" d="M190.19,62.44L191.04,62.44L190.99,62.70L190.24,62.70z"/><path style="fill:#cdd1d5" d="M187.00,64.19L187.02,68.30L187.29,68.24L188.28,68.72L188.28,73.81L186.94,74.22L186.71,78.24L185.43,78.33L185.50,64.77L186.18,63.93z"/><path style="fill:#cdd1d5" d="M188.28,66.44L187.96,66.53L188.05,66.21z"/><path style="fill:#cdd1d5" d="M188.28,77.59L187.94,77.59L187.94,76.95L188.28,76.95z"/><path style="fill:#cdd1d5" d="M188.05,133.07L188.03,137.93L187.73,138.13L186.69,138.20L186.70,132.56L187.27,132.56z"/><path style="fill:#cdd1d5" d="M186.47,142.36L185.02,142.63L185.01,129.66L185.44,128.33L186.54,128.32z"/><path style="fill:#cdd1d5" d="M196.54,125.41L196.22,144.87L188.38,146.73L188.78,78.57L188.95,64.46L196.64,62.55L196.80,62.68z"/><path style="fill:#ffffff" d="M207.23,76.51L208.08,75.83L208.18,74.41L208.56,74.46L208.58,75.58L207.97,76.47L207.00,77.00L205.53,76.97L205.53,76.58L206.14,76.33L206.58,76.52z"/><g id="Actor_7.0"><g style="stroke:#000000;stroke-width:0.176"><path d="M206.26,33.26L206.15,33.43L205.89,33.57L205.51,33.68L205.05,33.74L204.56,33.74L204.10,33.68L203.71,33.57L203.44,33.43L203.31,33.26"/><path d="M205.03,33.04L205.33,33.20L205.09,33.38L204.55,33.39L204.24,33.22L204.48,33.05L205.03,33.04L205.02,33.38"/><path d="M204.48,33.05L204.48,33.35"/></g><g style="stroke:#000000;stroke-width:0.529"><path d="M206.15,33.63L206.26,33.46L206.26,33.26L206.21,33.08L206.01,32.92L205.68,32.79L205.25,32.71L204.77,32.68L204.29,32.71L203.86,32.79L203.54,32.92L203.35,33.08L203.31,33.26L203.31,33.46L203.42,33.61"/></g></g><g id="Actor_7.1"><g style="stroke:#000000;stroke-width:0.176"><path d="M201.95,94.31L201.96,93.80L202.22,93.68L202.49,94.08L202.48,94.59L202.22,94.70L201.95,94.31L202.43,94.19L202.43,93.99"/><path d="M202.43,94.19L202.49,94.28"/><path d="M201.96,93.80L202.25,93.73"/><path d="M202.49,94.24L202.46,94.17L202.43,94.01L202.43,93.99"/><path d="M202.67,95.59L202.87,95.39L203.00,95.06L203.05,94.63L203.00,94.16L202.88,93.69L202.68,93.28L202.43,92.96L202.16,92.78L201.89,92.75"/><path d="M202.46,94.17L202.49,94.16"/><path d="M202.61,92.92L202.79,93.15"/></g><g style="stroke:#000000;stroke-width:0.529"><path d="M203.18,95.03L203.05,95.34L202.85,95.55L202.67,95.59L202.42,95.64L202.15,95.53L201.88,95.28L201.66,94.91L201.49,94.46L201.40,93.98L201.41,93.53L201.50,93.15L201.66,92.88L201.89,92.75L202.07,92.71L202.34,92.74L202.61,92.92L202.68,92.98"/></g></g><g id="Actor_11.0"><g style="stroke:#000000;stroke-width:0.176"><path d="M235.35,133.79L235.35,132.91L200.73,114.25"/><path d="M235.35,132.91L237.46,133.07L240.92,132.24"/><path d="M236.03,131.93L235.82,131.87L235.73,131.83L235.66,131.79L235.59,131.69L235.61,131.59L235.72,131.50L235.91,131.42L236.15,131.37L236.43,131.36L236.71,131.37L236.95,131.42L237.15,131.49L237.26,131.59L237.29,131.69L237.23,131.79L237.08,131.87L236.86,131.93"/><path d="M235.59,131.69L235.61,131.61L235.72,131.51L235.91,131.44L236.15,131.39L236.43,131.37L236.71,131.39L236.95,131.44L237.15,131.51L237.26,131.60L237.29,131.69"/><path d="M237.45,133.95L237.46,133.07"/></g><g style="stroke:#000000;stroke-width:0.529"><path d="M200.84,114.05L200.73,114.25L200.72,115.13L235.35,133.79L237.45,133.95L240.91,133.13L240.92,132.24L238.21,130.78"/><path d="M236.14,129.67L208.83,114.95"/><path d="M236.04,131.93L236.31,131.97L236.59,131.97L236.86,131.93L236.41,131.91L236.03,131.93L236.04,131.93"/></g></g><g id="Actor_3.0"><g style="stroke:#000000;stroke-width:0.176"><path d="M214.38,91.89L213.91,91.63L213.76,91.59L213.63,91.63L213.53,91.75L213.46,91.93L213.44,92.18"/><path d="M214.86,90.06L213.91,90.29L213.52,90.18"/><path d="M214.96,93.76L215.10,93.80L215.23,93.76L215.30,93.68L214.96,93.76L214.43,93.47"/><path d="M213.91,90.29L214.34,90.52L214.81,90.40L214.85,90.36L214.94,90.11"/><path d="M214.34,90.52L214.53,90.57L214.71,90.52L214.81,90.40"/><path d="M215.57,64.98L215.55,65.16L215.48,65.34L215.45,65.38L215.11,65.46L214.58,65.17"/><path d="M213.59,63.88L213.61,63.63L213.68,63.45L213.78,63.33L213.91,63.29L214.06,63.33L214.53,63.59"/><path d="M214.97,62.47L215.17,62.42L215.16,62.43L214.97,62.47L214.06,61.99L215.01,61.76"/><path d="M214.06,61.99L213.67,61.88"/><path d="M215.30,93.68L215.33,93.64L215.40,93.46L215.42,93.28"/><path d="M215.11,65.46L215.25,65.50L215.38,65.46L215.45,65.38"/><path d="M215.43,61.99L215.32,62.27L215.17,62.42"/><path d="M218.08,58.39L218.84,58.28L219.64,58.39L220.45,58.73L221.40,58.50"/><path d="M239.61,115.01L239.90,114.92L240.14,114.66L240.29,114.24L240.35,113.73L240.57,71.34L240.52,70.77L240.38,70.20L240.14,69.68L239.85,69.27L239.52,69.01L220.45,58.73"/><path d="M239.52,69.01L240.47,68.78"/><path d="M241.29,113.50L240.35,113.73"/><path d="M240.57,71.34L241.52,71.12"/></g><g style="stroke:#000000;stroke-width:0.529"><path d="M212.84,64.13L212.78,63.42L212.85,62.80L213.03,62.31L213.31,61.99L213.67,61.88L214.61,61.65L215.01,61.76L215.43,61.99L215.76,60.93L216.20,60.00L216.74,59.26L217.37,58.72L218.08,58.39L219.02,58.16L219.78,58.05L220.58,58.17L221.40,58.50L240.47,68.78L240.79,69.04L241.09,69.45L241.32,69.97L241.47,70.55L241.52,71.12L241.29,113.50L241.24,114.02L241.08,114.43L240.85,114.70L240.55,114.79L239.61,115.01L239.28,114.92L220.21,104.65L219.39,104.10L218.60,103.35L217.84,102.43L217.15,101.34L216.52,100.12L215.99,98.80L215.56,97.41L215.25,95.98L215.15,95.60L214.99,95.27L214.79,95.02L213.89,94.53L213.50,94.22L213.15,93.73"/><path d="M213.30,65.43L213.65,65.92L214.04,66.23L214.46,66.46L214.66,66.62L214.84,66.86L214.97,67.18L215.06,67.52L215.09,67.86L214.98,89.80L214.94,90.11L214.86,90.06L214.46,89.96L213.52,90.18L213.16,90.29L212.88,90.61L212.70,91.10L212.63,91.73L212.69,92.43"/><path d="M215.37,93.25L215.42,93.28L215.43,93.23L215.41,92.98L215.34,92.73L215.24,92.50L215.11,92.32L214.96,92.20L214.38,91.89L214.38,91.93"/><path d="M215.52,64.95L215.57,64.98L215.58,64.93L215.55,64.68L215.49,64.43L215.39,64.20L215.26,64.02L215.11,63.90L214.53,63.59L214.53,63.63"/></g></g><g id="Actor_7.2"><g style="stroke:#000000;stroke-width:0.176"><path d="M202.11,54.89L202.37,54.78L202.64,55.18L202.64,55.69L202.37,55.80L202.11,55.40L202.11,54.89L202.40,54.82"/><path d="M202.11,55.40L202.58,55.29L202.58,55.09"/><path d="M202.82,56.69L203.02,56.49L203.15,56.16L203.20,55.73L203.16,55.26L203.04,54.85L203.03,54.79L202.83,54.38L202.58,54.06L202.31,53.88L202.04,53.85"/><path d="M202.76,54.02L203.01,54.33L203.21,54.75L203.34,55.22L203.37,55.56L203.38,55.69L203.33,56.11"/><path d="M202.58,55.29L202.64,55.38"/><path d="M202.64,55.34L202.61,55.26L202.58,55.11L202.58,55.09"/><path d="M202.64,55.26L202.61,55.26"/></g><g style="stroke:#000000;stroke-width:0.529"><path d="M203.40,55.94L203.33,56.11L203.20,56.44L203.00,56.65L202.82,56.69L202.57,56.74L202.30,56.63L202.04,56.38L201.81,56.01L201.64,55.56L201.56,55.08L201.56,54.63L201.65,54.25L201.82,53.98L202.04,53.85L202.23,53.81L202.49,53.83L202.76,54.02L203.00,54.23"/></g></g><g id="Actor_5.0"><g style="stroke:#000000;stroke-width:0.176"><path d="M200.35,76.18L200.32,76.16L200.02,75.89L199.99,75.86L199.98,75.82L199.97,75.78L199.98,74.15L199.99,74.11L200.00,74.06L200.03,74.02L199.50,73.73"/><path d="M199.97,75.78L199.44,75.49"/><path d="M200.02,75.89L199.49,75.60"/><path d="M199.79,75.87L200.32,76.16"/><path d="M200.03,74.02L200.33,73.61L200.36,73.57L200.40,73.54L200.44,73.53L200.81,73.44L200.85,73.44L200.89,73.45L200.79,73.39"/><path d="M199.98,74.15L199.45,73.87"/><path d="M200.44,73.53L199.91,73.24"/><path d="M199.80,73.32L200.33,73.61"/><path d="M201.16,77.19L201.69,77.47L201.71,77.58L201.75,77.66L201.82,77.73"/><path d="M201.17,75.65L201.47,75.58L201.70,75.70L201.69,75.65L201.67,75.61L201.64,75.57L201.59,75.56L201.55,75.56L201.47,75.58"/><path d="M200.81,73.44L200.28,73.15"/><path d="M200.89,73.45L200.92,73.47L200.95,73.50L201.02,73.63L201.17,73.71L201.13,73.71L201.10,73.70L201.06,73.68L201.04,73.65L201.02,73.63"/><path d="M201.17,73.71L201.56,73.62L201.60,73.60L201.65,73.56L201.68,73.51L201.71,73.46L201.71,73.40L201.72,71.63L201.74,71.52L201.78,71.41L201.85,71.32L201.94,71.25L202.01,71.22"/><path d="M201.71,73.40L201.18,73.12"/><path d="M201.56,73.62L201.03,73.33"/><path d="M201.19,71.35L201.72,71.63"/><path d="M201.69,77.47L201.70,75.70"/><path d="M201.51,70.92L202.01,71.19"/></g><g style="stroke:#000000;stroke-width:0.529"><path d="M200.79,73.39L200.36,73.16L200.32,73.15L200.28,73.15L199.91,73.24L199.87,73.26L199.84,73.29L199.80,73.32L199.50,73.73L199.47,73.77L199.46,73.82L199.45,73.87L199.44,75.49L199.45,75.53L199.47,75.57L199.49,75.60L199.79,75.87L199.82,75.89L200.35,76.18L200.39,76.19L200.43,76.18L200.80,76.09L200.84,76.08L200.88,76.05L200.91,76.02L200.94,75.97L201.03,75.77L201.05,75.73L201.09,75.70L201.12,75.67L201.16,75.65L201.17,75.65"/><path d="M201.98,77.75L201.91,77.76L201.82,77.73L201.29,77.44L201.22,77.38L201.18,77.29L201.16,77.19L201.17,75.65"/><path d="M201.90,70.83L201.51,70.92L201.41,70.96L201.32,71.03L201.25,71.13L201.21,71.24L201.19,71.35L201.18,73.12L201.18,73.17L201.15,73.23L201.12,73.28L201.07,73.31L201.03,73.33L200.79,73.39"/></g></g><g id="Actor_11.1"><g style="stroke:#000000;stroke-width:0.176"><path d="M201.16,33.09L235.78,51.75L235.78,52.64"/><path d="M205.19,33.83L205.66,33.78L206.11,33.65L206.43,33.47L206.56,33.26L206.51,33.05L206.26,32.86L205.86,32.71L205.34,32.60L204.76,32.57L204.18,32.61L203.67,32.71L203.28,32.86L203.05,33.06L203.01,33.27L203.16,33.47L203.49,33.65L203.96,33.78L204.38,33.83"/><path d="M235.78,51.75L237.89,51.91L241.35,51.09"/><path d="M237.27,51.13L237.74,51.07L238.20,50.94L238.51,50.76L238.65,50.56L238.59,50.35L238.35,50.15L237.94,50.00L237.42,49.90L236.84,49.86L236.27,49.90L235.75,50.00L235.36,50.15L235.13,50.35L235.09,50.56L235.25,50.76L235.57,50.94L236.04,51.07L236.46,51.12"/><path d="M236.41,51.11L236.58,51.08L236.85,51.06L237.13,51.08L237.33,51.12"/><path d="M237.89,51.91L237.88,52.79"/></g><g style="stroke:#000000;stroke-width:0.529"><path d="M201.15,33.97L235.78,52.64L237.88,52.79L241.34,51.97L241.35,51.09L205.03,31.51L201.57,32.33L201.16,33.09L201.15,33.97"/><path d="M205.19,33.83L205.10,33.85L204.52,33.85L204.38,33.83"/><path d="M236.46,51.12L236.60,51.14L237.19,51.14L237.27,51.13L237.13,51.10L236.85,51.08L236.58,51.10L236.46,51.12"/></g></g><g id="Actor_10.0"><g style="stroke:#000000;stroke-width:0.176"><path d="M201.34,94.52L201.23,93.94L201.23,93.39L201.34,92.93L201.55,92.61L201.82,92.46L202.14,92.49L202.47,92.71L202.77,93.10L203.01,93.60L203.16,94.16L203.21,94.73L203.15,95.24L203.00,95.64L202.75,95.88L202.45,95.94L202.12,95.81L201.81,95.50L201.53,95.05L201.34,94.52"/><path d="M201.35,77.47L201.35,77.67L201.36,77.84L201.41,78.02L201.47,78.17L201.56,78.30L201.66,78.37L201.90,78.32"/><path d="M201.66,78.37L201.76,78.40L201.85,78.37L201.92,78.29L201.97,78.17L201.98,78.01L202.02,71.29L202.00,71.12L201.96,70.95L201.89,70.79L201.80,70.67L201.70,70.59L201.60,70.56L201.51,70.59L201.44,70.67L201.40,70.79L201.38,70.99"/><path d="M201.35,77.67L201.60,77.61"/><path d="M201.38,70.95L201.90,70.83"/><path d="M202.33,56.89L202.01,56.59L201.74,56.14L201.54,55.60L201.44,55.02L201.44,54.48L201.55,54.02L201.75,53.69L202.03,53.54L202.35,53.58L202.67,53.80L202.97,54.18L203.21,54.68L203.37,55.25L203.42,55.82L203.36,56.33L203.20,56.72L202.96,56.96L202.66,57.02L202.33,56.89"/><path d="M204.65,35.86L204.22,116.05"/><path d="M205.79,76.94L205.52,76.85L205.22,76.58L205.03,76.21L204.97,75.75L205.02,75.39L205.04,75.27L205.23,74.80L205.54,74.39L205.91,74.08L206.33,73.91L207.27,73.68L207.70,73.66L208.07,73.79L208.37,74.05L208.56,74.43L208.62,74.88L208.55,75.37L208.36,75.84L208.06,76.25L207.68,76.55L207.26,76.73L206.32,76.95L205.90,76.98L205.79,76.94"/><path d="M204.99,75.59L205.06,75.61L205.26,75.60L205.40,75.57"/><path d="M205.26,75.60L205.01,75.47"/><path d="M205.13,76.39L205.26,76.38L206.23,76.14"/><path d="M205.26,76.38L206.32,76.95"/><path d="M206.20,76.15L207.26,76.73"/><path d="M207.41,73.68L207.47,73.81"/></g><g style="stroke:#000000;stroke-width:0.529"><path d="M208.83,114.95L204.22,116.05L200.83,114.22L201.04,75.76"/><path d="M201.26,34.03L201.05,73.32"/></g></g><g id="Actor_2.0"><g style="stroke:#000000;stroke-width:0.176"><path d="M205.03,31.44L241.62,51.17L241.51,72.85"/><path d="M239.17,128.15L239.18,128.10L239.36,127.82L239.59,127.69L239.86,127.72L240.14,127.91L240.39,128.24L240.60,128.66L240.73,129.14L240.77,129.63L240.72,130.06L240.59,130.40L240.38,130.61L240.12,130.66L239.85,130.54L239.72,130.42"/><path d="M239.23,117.18L239.24,117.13L239.41,116.86L239.65,116.73L239.92,116.76L240.20,116.95L240.45,117.27L240.65,117.70L240.79,118.18L240.83,118.66L240.78,119.10L240.65,119.43L240.44,119.64L240.18,119.69L239.90,119.58L239.78,119.46"/><path d="M239.51,64.01L239.52,63.96L239.69,63.68L239.93,63.56L240.20,63.59L240.48,63.77L240.73,64.10L240.94,64.53L241.07,65.01L241.11,65.49L241.06,65.93L240.93,66.26L240.72,66.47L240.46,66.52L240.19,66.41L240.06,66.29"/><path d="M239.57,53.04L239.58,52.99L239.75,52.72L239.99,52.59L240.26,52.62L240.54,52.81L240.79,53.13L240.99,53.56L241.12,54.04L241.17,54.52L241.12,54.96L240.98,55.30L240.78,55.50L240.52,55.55L240.24,55.44L240.12,55.32"/><path d="M241.19,133.45L241.30,111.77L242.09,111.58"/><path d="M241.62,51.17L242.41,50.98"/></g><g style="stroke:#000000;stroke-width:0.529"><path d="M205.03,31.51L205.03,31.44L205.81,31.26L242.41,50.98L242.29,72.67L241.51,72.85"/><path d="M240.68,133.18L241.19,133.45L241.97,133.27L242.09,111.58L241.30,111.16"/></g></g><g id="Actor_2.1"><g style="stroke:#000000;stroke-width:0.176"><path d="M236.47,65.44L236.50,65.79L236.59,66.13L236.73,66.45L236.89,66.67L236.91,66.70L237.11,66.86L237.31,66.92L237.49,66.86L237.64,66.70L237.73,66.45L237.76,66.13L237.73,65.78L237.64,65.43L237.50,65.12L237.32,64.87L237.12,64.71L236.92,64.65L236.74,64.71L236.60,64.87L236.51,65.12L236.47,65.44L236.47,65.43L236.47,65.43"/><path d="M236.69,65.55L236.72,65.35L236.78,65.18L236.87,65.08L236.99,65.04L237.12,65.08L237.25,65.18L237.27,65.21L237.24,65.18L237.13,65.15L237.04,65.18L236.96,65.27L236.91,65.40L236.89,65.57L236.69,65.55L236.71,65.78L236.77,66.01L236.87,66.22L236.98,66.39L237.11,66.49L237.25,66.53L237.36,66.49L237.46,66.38L237.51,66.24L237.44,66.33L237.34,66.36L237.23,66.33L237.13,66.24L237.03,66.11L236.96,65.94L236.91,65.76L236.89,65.57L237.42,65.45"/><path d="M237.34,66.94L237.52,66.88L237.67,66.71L237.77,66.46L237.80,66.13L237.78,66.13L237.77,66.13L237.76,66.13"/><path d="M240.32,65.53L240.29,65.86L240.19,66.11L240.09,66.23L240.10,66.23L240.24,66.07L240.33,65.82L240.36,65.51L240.32,65.52L240.32,65.53L237.80,66.13L237.77,65.78L237.68,65.42L237.53,65.10L237.35,64.84L237.15,64.68L236.94,64.62"/><path d="M237.51,66.24L237.52,66.22L237.54,66.01L237.52,65.78L237.46,65.55L237.37,65.34L237.27,65.21"/><path d="M239.60,63.99L239.66,63.97L239.86,64.03L240.07,64.19L240.25,64.45L240.27,64.49L240.39,64.77L240.49,65.13L240.52,65.49L240.48,65.81L240.39,66.07L240.24,66.23L240.05,66.29L240.05,66.29L240.17,66.25L240.22,66.20L240.23,66.20L240.37,66.04L240.46,65.79L240.49,65.48L240.45,65.49L240.45,65.50L240.39,65.52L240.35,65.16L240.26,64.80L240.12,64.48L239.93,64.22L239.73,64.06L239.53,64.00L239.59,63.99L239.80,64.04L239.80,64.05L239.86,64.07L240.06,64.22L240.24,64.47L240.38,64.78L240.46,65.13L240.49,65.48"/><path d="M240.39,65.52L240.35,65.84L240.26,66.10L240.11,66.26L239.92,66.32L239.92,66.32L240.04,66.28L240.09,66.23"/><path d="M240.22,66.20L240.32,66.08L240.42,65.83L240.45,65.50"/><path d="M240.05,66.29L240.46,66.19L240.65,66.14L240.79,65.97L240.89,65.71L240.92,65.39L240.52,65.49"/><path d="M239.92,66.32L239.99,66.30L240.05,66.29"/><path d="M239.89,66.33L239.92,66.32"/><path d="M240.32,65.52L240.29,65.18L240.20,64.82L240.05,64.50L239.87,64.24L239.67,64.08L239.73,64.10L239.93,64.26L240.10,64.50L240.24,64.81L240.27,64.91L240.33,65.16L240.36,65.51"/><path d="M239.80,64.05L240.00,64.21L240.18,64.46L240.33,64.79L240.42,65.14L240.45,65.49"/><path d="M239.66,63.97L240.06,63.88L240.27,63.93L240.47,64.10L240.66,64.35L240.80,64.67L240.89,65.03L240.92,65.39"/><path d="M239.37,64.04L239.46,64.02L239.67,64.08L239.67,64.08"/><path d="M239.78,63.37L239.97,63.33L240.57,63.65L240.76,63.89L240.92,64.19L241.21,65.20L241.23,65.56L241.21,65.89L240.91,66.59L240.74,66.70"/><path d="M239.53,64.00L239.47,64.02"/></g><g style="stroke:#000000;stroke-width:0.529"><path d="M239.37,64.04L236.94,64.62L236.76,64.68L236.75,64.68L236.60,64.85L236.50,65.11L236.47,65.43L236.50,65.78L236.59,66.14L236.73,66.46L236.91,66.71L237.12,66.88L237.33,66.94L237.34,66.94L239.86,66.34L239.89,66.33"/><path d="M240.74,66.70L240.55,66.74L239.96,66.42L239.89,66.33"/><path d="M239.37,64.04L239.62,63.48L239.78,63.37"/></g></g><g id="Actor_8.0"><g style="stroke:#000000;stroke-width:0.176"><path d="M205.24,74.97L205.24,74.79"/><path d="M206.90,75.67L206.68,75.58L206.69,74.95L207.17,74.52L207.65,74.72L207.65,75.35L207.17,75.78L206.90,75.67"/><path d="M206.90,76.26L206.77,76.25L206.50,76.12L206.31,75.88L206.21,75.56L206.19,75.38L206.21,75.20L206.31,74.83L206.51,74.50L206.78,74.24L207.09,74.08L207.41,74.03L207.71,74.11L207.94,74.30L208.09,74.58L208.14,74.92L208.09,75.29L207.93,75.64L207.70,75.94L207.40,76.16L207.08,76.26L206.90,76.26"/><path d="M207.69,73.93L207.36,73.84L207.00,73.89L206.65,74.08L206.34,74.37L206.12,74.75L206.00,75.16L205.98,75.37L206.00,75.57L206.11,75.93L206.33,76.19"/><path d="M207.17,75.78L206.74,75.55L206.68,75.53"/><path d="M206.74,75.55L207.23,75.12L207.23,74.55"/><path d="M207.15,74.54L207.20,74.64L207.23,74.81L207.20,74.99L207.12,75.17L207.01,75.32L206.98,75.34L206.86,75.42L206.70,75.47L206.68,75.47"/><path d="M207.20,74.99L206.77,74.88"/><path d="M207.65,75.35L207.23,75.12"/><path d="M206.97,74.71L207.20,74.64"/></g><g style="stroke:#000000;stroke-width:0.529"><path d="M205.24,74.97L205.23,75.16L205.35,75.51L205.57,75.78L206.33,76.19L206.64,76.35L206.99,76.36L207.35,76.24L207.68,76.00L207.95,75.66L208.12,75.26L208.18,74.84L208.13,74.46L207.96,74.14L207.69,73.93L207.25,73.69"/><path d="M205.18,74.94L205.24,74.97"/></g></g><g id="Actor_2.2"><g style="stroke:#000000;stroke-width:0.176"><path d="M236.93,55.68L236.79,55.48L236.65,55.17L236.56,54.82L236.53,54.47L236.56,54.15L236.66,53.90L236.80,53.74L236.98,53.68L237.18,53.74L237.38,53.90L237.56,54.15L237.70,54.46L237.73,54.56L237.79,54.81L237.82,55.16L237.79,55.48L237.69,55.73L237.55,55.89L237.37,55.95L237.17,55.89L236.97,55.73L236.93,55.68"/><path d="M236.53,54.47L236.53,54.47L236.53,54.46"/><path d="M237.47,54.48L236.95,54.60L236.97,54.43L237.02,54.30L237.10,54.22L237.19,54.19L237.30,54.21L237.33,54.24L237.31,54.21L237.18,54.11L237.05,54.07L236.93,54.11L236.84,54.22L236.77,54.38L236.75,54.59L236.95,54.60L236.97,54.79L237.02,54.98L237.09,55.14L237.19,55.28L237.29,55.36L237.40,55.39L237.49,55.36L237.57,55.28L237.52,55.42L237.42,55.52L237.30,55.56L237.17,55.52L237.04,55.42L236.92,55.25L236.83,55.05L236.77,54.82L236.75,54.59"/><path d="M237.40,55.97L237.58,55.91L237.73,55.75L237.82,55.49L237.86,55.17L237.84,55.17L237.83,55.17L237.82,55.16"/><path d="M240.38,54.57L240.34,54.89L240.25,55.15L240.15,55.26L240.15,55.26L240.30,55.10L240.39,54.85L240.42,54.54L240.38,54.55L240.38,54.57L237.86,55.17L237.83,54.81L237.73,54.45L237.59,54.13L237.41,53.87L237.20,53.71L237.00,53.65"/><path d="M237.57,55.28L237.58,55.25L237.60,55.04L237.58,54.81L237.52,54.59L237.43,54.38L237.33,54.24"/><path d="M240.57,54.52L240.54,54.16L240.45,53.80L240.31,53.48L240.12,53.23L239.92,53.06L239.72,53.01L240.12,52.91L240.33,52.97L240.53,53.13L240.71,53.39L240.86,53.71L240.95,54.07L240.98,54.42L240.57,54.52L240.54,54.84L240.44,55.10L240.30,55.27L240.11,55.32L240.10,55.32L240.23,55.28L240.28,55.23L240.28,55.23L240.43,55.07L240.52,54.82L240.55,54.51L240.51,54.52L240.48,54.18L240.39,53.82L240.24,53.50L240.06,53.24L239.86,53.08L239.92,53.10L240.12,53.26L240.29,53.50L240.43,53.82L240.52,54.16L240.55,54.51"/><path d="M240.15,55.26L240.10,55.31L239.97,55.35L239.98,55.35L240.17,55.30L240.31,55.13L240.41,54.87L240.44,54.55L240.51,54.54L240.51,54.52"/><path d="M239.98,55.35L240.05,55.34L240.10,55.32"/><path d="M240.98,54.42L240.95,54.75L240.85,55.00L240.70,55.17L240.52,55.23L240.11,55.32"/><path d="M239.97,55.35L239.94,55.36"/><path d="M239.86,53.08L239.85,53.08L239.65,53.02L239.58,53.04L239.79,53.09L239.99,53.26L240.18,53.51L240.32,53.84L240.39,54.11L240.41,54.19L240.44,54.55"/><path d="M240.42,54.54L240.39,54.19L240.30,53.85L240.16,53.54L239.99,53.29L239.79,53.13L239.73,53.11L239.93,53.27L240.11,53.53L240.26,53.85L240.35,54.21L240.38,54.55"/><path d="M239.72,53.01L239.66,53.02"/><path d="M239.73,53.11L239.72,53.11L239.52,53.05L239.43,53.07"/><path d="M239.84,52.40L240.03,52.36L240.63,52.68L240.81,52.92L240.98,53.22L241.27,54.24L241.29,54.59L241.27,54.92L240.97,55.62L240.80,55.74"/><path d="M239.58,53.04L239.53,53.06"/><path d="M240.51,54.54L240.47,54.86L240.38,55.12L240.28,55.23"/></g><g style="stroke:#000000;stroke-width:0.529"><path d="M239.94,55.36L239.92,55.37L237.40,55.97L237.39,55.97L237.18,55.91L236.97,55.74L236.79,55.49L236.65,55.17L236.56,54.82L236.53,54.46L236.56,54.14L236.66,53.88L236.81,53.71L236.81,53.71L237.00,53.65L239.43,53.07"/><path d="M240.80,55.74L240.61,55.77L240.02,55.45L239.94,55.36"/><path d="M239.43,53.07L239.67,52.51L239.84,52.40"/></g></g><g id="Actor_2.3"><g style="stroke:#000000;stroke-width:0.176"><path d="M213.14,92.23L213.30,92.27L213.45,92.40L213.59,92.58L213.69,92.82L213.75,93.08L213.76,93.31L213.71,93.51L213.63,93.64L213.51,93.69"/><path d="M213.29,93.74L213.40,93.70L213.49,93.58L213.53,93.38L213.53,93.15L213.48,92.90L213.38,92.65L213.25,92.46L213.09,92.33L212.93,92.28"/><path d="M212.75,93.52L212.86,93.60L212.96,93.63L213.05,93.59L213.12,93.50L213.17,93.37L213.18,93.20L213.15,93.01L213.09,92.84L213.01,92.69L212.91,92.57L212.86,92.54L212.81,92.52L212.71,92.52L212.63,92.58L212.57,92.70"/><path d="M213.46,92.78L213.50,92.88L213.51,92.93L213.45,92.74L213.33,92.53L213.25,92.44L213.35,92.52L213.46,92.67L213.55,92.87L213.60,93.07L213.61,93.26L213.58,93.42L213.54,93.48L213.50,93.61L213.45,93.67"/><path d="M213.35,93.49L213.39,93.33L213.38,93.14L213.34,92.94L213.25,92.74L213.14,92.58L213.02,92.48L212.88,92.44L212.88,92.44L212.98,92.49L213.01,92.50L213.11,92.61L213.13,92.64L213.18,92.72L213.22,92.79L213.24,92.82L213.30,93.00L213.31,93.04L213.34,93.23L213.34,93.27L213.33,93.44L213.33,93.47L213.30,93.57L213.35,93.49"/><path d="M213.55,93.09L213.53,92.98L213.56,93.21L213.56,93.43L213.54,93.48"/><path d="M213.20,93.71L213.27,93.63L213.28,93.61L213.30,93.57"/><path d="M213.53,92.98L213.51,92.93"/><path d="M213.25,92.86L213.28,92.95L213.29,92.98"/><path d="M212.60,92.61L212.59,92.64"/><path d="M212.62,92.59L212.62,92.58"/><path d="M213.74,93.64L213.86,93.58L213.94,93.45L213.98,93.24L213.97,93.01L213.90,92.75L213.80,92.51L213.66,92.33L213.50,92.21L213.35,92.18L213.21,92.23"/><path d="M213.57,92.47L213.57,92.46L213.49,92.40L213.61,92.56L213.71,92.78L213.77,93.03L213.79,93.25L213.77,93.42L213.80,93.36L213.83,93.20L213.82,93.01L213.77,92.80L213.68,92.61L213.57,92.47"/><path d="M213.49,92.40L213.48,92.39L213.33,92.27L213.21,92.23"/><path d="M213.31,93.04L213.33,93.16L213.33,93.18L213.33,93.16"/><path d="M213.55,93.08L213.55,93.13"/><path d="M213.34,93.23L213.33,93.17"/><path d="M213.25,92.44L213.20,92.38L213.04,92.29L212.99,92.29"/><path d="M212.62,92.59L212.64,92.54L212.65,92.52L212.74,92.45L212.75,92.45L212.86,92.44L212.87,92.44L212.88,92.44"/><path d="M212.85,92.31L212.92,92.28"/><path d="M213.89,93.57L213.90,93.56L213.97,93.43L213.98,93.38L214.02,93.30L214.05,93.13L214.04,92.94L213.98,92.73L213.89,92.54L213.78,92.40L213.70,92.34L213.63,92.27L213.48,92.18L213.45,92.18"/><path d="M213.00,92.28L213.08,92.25"/><path d="M213.97,93.58L214.08,93.52L214.16,93.38L214.20,93.17L214.18,92.94L214.12,92.68L214.01,92.44L213.87,92.27L213.71,92.15L213.55,92.13"/><path d="M213.51,92.15L213.43,92.18"/><path d="M213.29,92.20L213.29,92.20"/><path d="M213.45,92.18L213.43,92.18"/><path d="M214.47,93.47L214.47,93.47"/><path d="M214.66,93.42L214.77,93.34L214.84,93.18L214.86,92.96L214.83,92.72L214.75,92.46L214.64,92.24L214.49,92.07L214.33,91.98L214.18,91.98"/><path d="M214.43,93.47L214.54,93.40L214.61,93.25L214.64,93.03L214.62,92.79L214.54,92.53L214.43,92.31L214.29,92.14L214.13,92.04L213.97,92.03"/><path d="M214.17,93.52L214.11,93.52"/><path d="M214.20,93.53L214.31,93.46L214.39,93.31L214.42,93.10L214.40,92.86L214.33,92.61L214.22,92.38L214.08,92.20L213.92,92.09L213.76,92.08"/><path d="M214.59,93.34L214.61,93.36"/><path d="M214.38,93.41L214.37,93.40"/><path d="M214.15,93.47L214.15,93.46"/><path d="M213.77,93.42L213.71,93.58L213.67,93.62"/><path d="M213.63,93.64L213.65,93.63"/><path d="M213.70,92.34L213.77,92.42L213.89,92.63L213.94,92.77L214.00,93.01L214.01,93.23L213.98,93.38"/><path d="M214.11,93.52L214.12,93.51L214.19,93.38L214.20,93.33L214.25,93.23L214.22,93.24"/><path d="M214.20,93.33L214.22,93.19L214.22,92.97L214.16,92.73L214.14,92.66L214.03,92.43L213.93,92.30L213.99,92.33L214.10,92.47L214.19,92.66L214.25,92.87L214.27,93.06L214.25,93.23L214.32,93.27"/><path d="M214.44,92.81L214.47,92.80L214.49,92.99L214.47,93.17L214.42,93.29L214.37,93.41L214.32,93.46"/><path d="M214.67,93.11L214.69,93.10L214.64,93.23L214.64,93.23L214.64,93.26L214.57,93.40L214.54,93.41"/><path d="M214.64,92.76L214.65,92.83L214.61,92.67L214.63,92.74L214.64,92.77"/><path d="M214.65,92.83L214.67,93.05L214.64,93.23"/><path d="M214.61,92.67L214.60,92.60L214.49,92.37L214.37,92.19L214.41,92.21L214.52,92.34L214.50,92.35"/><path d="M214.22,92.97L214.20,92.88L214.18,92.79"/><path d="M214.71,92.29L214.73,92.28L214.62,92.15L214.58,92.13L214.69,92.26L214.80,92.49L214.87,92.73L214.83,92.62"/><path d="M214.77,93.14L214.69,93.10L214.71,92.93L214.69,92.73L214.66,92.74"/><path d="M214.58,92.29L214.52,92.34L214.62,92.52L214.69,92.73L214.76,92.72"/><path d="M214.28,92.41L214.31,92.41L214.41,92.59L214.47,92.80L214.54,92.79"/><path d="M214.37,92.36L214.31,92.41L214.20,92.27L214.14,92.24L214.10,92.19L214.07,92.17L214.09,92.11"/><path d="M214.14,92.24L214.24,92.35L214.35,92.57L214.42,92.81L214.45,93.04L214.43,93.25L214.42,93.29"/><path d="M213.93,92.30L213.90,92.27L213.76,92.15L213.66,92.13"/><path d="M214.20,92.87L214.20,92.88L214.20,92.88"/><path d="M214.64,92.77L214.63,92.75L214.63,92.75"/><path d="M214.63,92.74L214.63,92.75"/><path d="M214.45,91.93L214.39,91.93"/><path d="M213.95,92.04L213.88,92.08"/><path d="M214.51,92.00L214.49,92.05L214.56,92.10L214.58,92.13"/><path d="M214.07,92.17L213.96,92.09L213.88,92.08"/><path d="M214.37,92.19L214.37,92.19L214.22,92.06L214.15,92.04L214.13,92.04"/><path d="M214.32,91.97L214.41,91.99L214.49,92.05"/><path d="M214.15,92.04L214.10,92.03"/><path d="M214.83,93.36L214.89,93.36L214.99,93.28L215.06,93.11L215.08,92.89L215.05,92.64L214.97,92.39L214.85,92.17L214.79,92.11"/><path d="M214.76,93.36L214.80,93.33L214.86,93.18L214.86,93.18L214.87,93.17L214.92,93.04L214.89,93.04"/><path d="M215.11,92.98L215.14,92.97L215.09,93.11L215.08,93.13L215.06,93.19L214.99,93.32L214.90,93.36"/><path d="M215.34,92.91L215.36,92.91L215.32,93.05L215.30,93.07L215.33,92.92L215.31,92.69L215.31,92.66"/><path d="M215.31,92.68L215.31,92.66"/><path d="M215.08,92.69L215.09,92.71L215.06,92.60L215.05,92.56L215.08,92.69"/><path d="M215.43,93.23L215.35,93.25L215.42,93.18"/><path d="M215.10,93.31L215.08,93.32L215.05,93.31L215.12,93.31L215.22,93.22L215.28,93.04L215.30,92.82L215.26,92.57L215.25,92.52"/><path d="M214.79,92.22L214.73,92.28L214.83,92.45L214.90,92.66L214.88,92.67"/><path d="M215.37,92.83L215.36,92.91L215.39,92.92"/><path d="M215.30,93.19L215.27,93.16"/><path d="M214.92,92.22L214.95,92.21L215.05,92.39L215.12,92.59L215.15,92.79L215.14,92.97L215.21,93.01"/><path d="M215.07,93.25L215.04,93.22"/><path d="M214.84,93.30L214.82,93.28"/><path d="M214.99,93.07L214.92,93.04L214.93,92.86L214.90,92.66L214.98,92.65"/><path d="M214.86,93.18L214.89,92.97L214.87,92.74L214.87,92.73"/><path d="M215.09,92.71L215.10,92.75L215.10,92.77L215.10,92.99L215.08,93.13"/><path d="M214.85,92.68L214.85,92.67"/><path d="M214.85,92.14L214.94,92.27L215.04,92.50L215.05,92.56"/><path d="M215.12,93.31L215.19,93.28L215.22,93.25L215.29,93.12L215.30,93.07"/><path d="M215.35,93.25L215.23,93.27L215.21,93.26"/><path d="M215.08,93.32L215.00,93.32L215.05,93.31L215.08,93.32"/><path d="M215.00,93.32L214.99,93.31"/><path d="M214.96,92.20L214.95,92.21L214.90,92.17"/></g><g style="stroke:#000000;stroke-width:0.529"><path d="M213.20,93.71L213.20,93.71L213.17,93.73L213.08,93.75L213.06,93.74L212.95,93.70L212.92,93.68L212.75,93.52L212.66,93.38L212.59,93.22L212.55,93.03L212.54,92.86L212.57,92.70L212.59,92.64"/><path d="M213.20,93.71L213.28,93.74L213.29,93.74L213.37,93.72L213.39,93.72L213.41,93.71L213.45,93.67"/><path d="M213.67,93.62L213.61,93.67L213.51,93.69L213.45,93.67"/><path d="M212.99,92.29L212.93,92.28L212.92,92.28L212.90,92.28L212.85,92.31L212.79,92.32L212.67,92.45L212.62,92.58L212.62,92.59L212.59,92.64"/><path d="M213.21,92.23L213.18,92.22L213.14,92.23L213.08,92.25L213.05,92.26L213.00,92.28L212.99,92.29"/><path d="M213.21,92.23L213.29,92.20L213.33,92.18L213.34,92.18L213.35,92.18L213.43,92.18"/><path d="M213.66,92.13L213.60,92.12L213.55,92.13L213.51,92.15L213.47,92.16L213.43,92.18"/><path d="M214.32,93.46L214.43,93.47L214.47,93.47L214.54,93.41"/><path d="M214.32,93.46L214.28,93.51L214.20,93.53L214.11,93.52"/><path d="M214.11,93.52L214.01,93.58L213.97,93.58L213.89,93.57"/><path d="M213.89,93.57L213.80,93.63L213.74,93.64L213.67,93.62"/><path d="M214.76,93.36L214.70,93.41L214.66,93.42L214.54,93.41"/><path d="M214.10,92.03L214.18,91.98L214.25,91.96L214.32,91.97"/><path d="M213.88,92.08L213.80,92.07L213.76,92.08L213.66,92.13"/><path d="M213.88,92.08L213.93,92.05L213.95,92.04L213.97,92.03L214.07,92.01L214.10,92.03"/><path d="M214.32,91.97L214.39,91.93L214.44,91.92"/><path d="M214.90,93.36L214.89,93.36L214.88,93.37L214.83,93.36L214.77,93.37L214.76,93.36"/></g></g><g id="Actor_2.4"><g style="stroke:#000000;stroke-width:0.176"><path d="M213.48,64.90L213.49,64.93L213.49,64.97L213.48,65.14L213.48,65.17L213.44,65.27L213.50,65.19L213.54,65.03L213.53,64.84L213.49,64.63L213.40,64.44L213.29,64.28L213.17,64.18L213.03,64.14L213.03,64.14L213.13,64.19L213.16,64.20L213.26,64.31L213.28,64.34L213.37,64.49L213.39,64.52L213.45,64.70L213.46,64.74L213.48,64.90"/><path d="M213.49,64.93L213.48,64.87L213.48,64.88L213.48,64.85L213.46,64.74"/><path d="M213.44,65.44L213.55,65.40L213.64,65.28L213.68,65.08L213.68,64.85L213.63,64.60L213.53,64.35L213.40,64.16L213.24,64.03L213.08,63.98"/><path d="M212.90,65.22L213.01,65.30L213.11,65.33L213.20,65.29L213.27,65.20L213.32,65.07L213.33,64.90L213.30,64.71L213.24,64.54L213.16,64.38L213.06,64.27L213.01,64.24L212.96,64.22L212.86,64.22L212.78,64.28L212.72,64.40"/><path d="M213.44,65.27L213.43,65.30L213.42,65.33L213.35,65.41"/><path d="M213.40,64.56L213.43,64.65L213.44,64.68"/><path d="M213.48,64.85L213.48,64.86L213.48,64.86L213.48,64.87"/><path d="M212.75,64.31L212.74,64.33L212.74,64.33"/><path d="M212.77,64.29L212.77,64.28"/><path d="M213.23,63.95L213.15,63.98"/><path d="M213.29,63.93L213.45,63.97L213.60,64.09L213.74,64.28L213.84,64.52L213.90,64.78L213.91,65.01L213.86,65.21L213.78,65.34L213.80,65.33"/><path d="M213.36,63.93L213.49,63.88L213.65,63.91L213.81,64.03L213.95,64.21L214.05,64.45L214.12,64.71L214.13,64.94L214.09,65.15L214.01,65.28L213.89,65.34"/><path d="M213.60,65.37L213.65,65.31L213.69,65.18L213.73,65.12L213.76,64.96L213.75,64.77L213.70,64.57L213.61,64.37L213.50,64.22L213.40,64.14L213.48,64.23L213.60,64.44L213.68,64.68L213.70,64.79L213.69,64.78"/><path d="M213.40,64.14L213.35,64.08L213.19,63.99L213.14,63.99"/><path d="M213.03,64.14L213.02,64.14L213.01,64.13L212.90,64.15L212.89,64.15L212.80,64.22L212.79,64.24L212.77,64.29"/><path d="M213.36,63.93L213.48,63.97L213.63,64.08L213.64,64.10L213.71,64.16L213.83,64.30L213.92,64.50L213.97,64.70L213.98,64.90L213.95,65.06L213.92,65.12L213.86,65.28L213.82,65.32"/><path d="M213.07,63.98L213.00,64.00"/><path d="M213.44,63.90L213.44,63.90"/><path d="M213.68,64.68L213.70,64.83L213.70,64.79L213.70,64.79"/><path d="M214.33,64.48L214.37,64.66L214.35,64.58L214.31,64.43L214.29,64.36L214.18,64.13L214.08,63.99L214.14,64.03L214.25,64.17L214.34,64.36L214.40,64.57L214.42,64.76L214.40,64.93L214.35,65.03L214.34,65.08L214.26,65.21L214.26,65.21"/><path d="M214.61,65.17L214.62,65.17"/><path d="M213.66,65.39L213.78,65.34"/><path d="M213.70,63.83L213.86,63.85L214.02,63.96L214.16,64.14L214.27,64.38L214.33,64.63L214.35,64.87L214.31,65.08L214.23,65.22L214.12,65.28"/><path d="M213.91,63.77L214.07,63.79L214.23,63.90L214.37,64.07L214.48,64.30L214.55,64.56L214.57,64.80L214.54,65.01L214.46,65.16L214.35,65.23"/><path d="M214.26,65.21L214.32,65.22"/><path d="M214.12,63.72L214.27,63.74L214.44,63.84L214.58,64.01L214.69,64.23L214.77,64.49L214.79,64.73L214.76,64.95L214.69,65.10L214.58,65.17"/><path d="M214.59,64.50L214.62,64.50L214.69,64.49"/><path d="M214.35,65.03L214.37,64.89L214.37,64.66"/><path d="M214.37,64.94L214.40,64.93L214.47,64.97"/><path d="M214.53,65.11L214.52,65.10"/><path d="M214.52,64.06L214.46,64.11L214.56,64.29L214.62,64.50L214.64,64.69L214.62,64.87L214.57,64.99L214.58,64.95L214.60,64.74L214.57,64.51L214.50,64.27L214.38,64.05L214.29,63.94L214.35,63.97L214.46,64.11L214.43,64.11"/><path d="M214.57,64.99L214.52,65.11L214.47,65.16"/><path d="M214.13,65.08L214.15,64.93L214.14,64.71L214.09,64.47L214.04,64.33L213.92,64.12L213.85,64.04L213.93,64.09L214.04,64.24L214.13,64.43L214.19,64.64L214.20,64.83L214.17,65.00L214.13,65.08L214.12,65.12L214.05,65.26L214.04,65.27"/><path d="M214.30,65.17L214.30,65.16"/><path d="M213.69,65.18L213.70,65.13L213.71,64.91L213.70,64.83"/><path d="M213.92,65.12L213.94,64.95L213.92,64.72L213.86,64.48L213.75,64.26L213.64,64.10"/><path d="M213.66,64.63L213.65,64.58L213.61,64.48"/><path d="M214.35,64.58L214.35,64.58L214.35,64.57"/><path d="M213.66,63.85L213.58,63.88"/><path d="M214.10,63.74L214.03,63.78"/><path d="M214.27,63.74L214.30,63.74L214.37,63.76L214.52,63.89L214.52,63.89L214.56,63.91L214.67,64.04L214.65,64.05"/><path d="M214.81,65.12L214.92,65.04L214.99,64.88L215.01,64.66L214.98,64.42L214.90,64.16L214.79,63.94L214.64,63.77L214.48,63.68L214.33,63.68"/><path d="M214.60,63.63L214.54,63.63"/><path d="M214.73,63.99L214.67,64.04L214.77,64.22L214.84,64.43L214.81,64.44"/><path d="M214.29,63.94L214.25,63.89L214.22,63.87L214.24,63.81"/><path d="M214.66,63.70L214.64,63.75L214.71,63.80L214.73,63.83L214.76,63.85L214.88,63.98L214.86,63.98"/><path d="M214.22,63.87L214.11,63.79L214.03,63.78"/><path d="M213.85,64.04L213.78,63.97L213.63,63.88L213.58,63.88"/><path d="M213.80,63.83L213.91,63.85L214.05,63.96L214.08,63.99"/><path d="M214.52,63.89L214.64,64.07L214.75,64.30L214.80,64.53L214.82,64.75L214.79,64.93L214.79,64.93L214.84,64.80L214.82,64.81"/><path d="M214.47,63.67L214.56,63.69L214.64,63.75"/><path d="M214.30,63.74L214.25,63.72"/><path d="M214.79,64.47L214.78,64.45L214.78,64.44L214.79,64.47"/><path d="M215.25,65.01L215.20,65.01L215.23,65.02L215.25,65.01L215.27,65.01L215.37,64.91L215.43,64.74L215.45,64.52L215.41,64.27L215.40,64.22"/><path d="M215.23,65.02L215.20,65.01L215.15,65.01L215.23,65.02"/><path d="M214.94,63.81L215.00,63.87L215.12,64.09L215.20,64.34L215.23,64.59L215.21,64.81L215.14,64.98L215.04,65.06L214.98,65.06"/><path d="M215.27,65.01L215.34,64.98L215.37,64.95L215.44,64.82L215.45,64.77L215.47,64.75L215.51,64.61L215.48,64.61"/><path d="M215.57,64.88L215.50,64.95L215.58,64.93"/><path d="M214.73,63.83L214.83,63.96L214.95,64.19L215.01,64.43L215.02,64.44L215.04,64.67L215.01,64.87L215.02,64.87L215.07,64.74L215.08,64.56L215.05,64.36L214.98,64.15L214.88,63.98L214.94,63.92"/><path d="M215.14,64.77L215.07,64.74L215.04,64.74"/><path d="M214.79,64.93L214.78,64.96L214.71,65.10L214.69,65.11"/><path d="M214.92,64.84L214.84,64.80L214.86,64.63L214.84,64.43L214.91,64.42"/><path d="M215.44,64.89L215.42,64.86"/><path d="M215.54,64.62L215.51,64.61L215.52,64.53"/><path d="M215.00,63.84L215.09,63.97L215.19,64.20L215.25,64.44L215.25,64.47L215.25,64.69L215.23,64.83L215.24,64.81L215.29,64.67L215.30,64.49L215.27,64.29L215.20,64.09L215.10,63.91L215.05,63.87"/><path d="M215.26,64.68L215.29,64.67L215.36,64.71"/><path d="M215.22,64.95L215.19,64.92"/><path d="M214.99,65.00L214.97,64.98"/><path d="M214.74,65.04L214.76,65.06"/><path d="M214.80,64.53L214.79,64.46"/><path d="M215.45,64.77L215.48,64.61L215.46,64.38L215.46,64.35"/><path d="M214.91,65.06L214.95,65.03L215.01,64.88L215.01,64.87"/><path d="M215.23,64.83L215.21,64.89L215.14,65.01L215.04,65.06"/><path d="M215.50,64.95L215.38,64.97L215.36,64.96"/><path d="M215.15,65.01L215.14,65.01"/><path d="M214.98,64.32L215.01,64.43"/><path d="M215.46,64.37L215.46,64.36"/><path d="M215.13,64.35L215.05,64.36L215.03,64.37"/><path d="M215.11,63.90L215.10,63.91L215.07,63.92"/><path d="M214.76,64.37L214.78,64.44"/><path d="M215.24,64.41L215.21,64.30L215.20,64.26"/><path d="M215.00,64.37L215.00,64.37"/></g><g style="stroke:#000000;stroke-width:0.529"><path d="M213.35,65.41L213.35,65.41L213.32,65.43L213.23,65.44L213.21,65.44L213.10,65.40L213.07,65.37L212.90,65.22L212.81,65.08L212.74,64.92L212.70,64.73L212.69,64.55L212.72,64.40L212.74,64.33"/><path d="M213.60,65.37L213.56,65.41L213.54,65.42L213.52,65.42L213.44,65.44L213.43,65.44L213.35,65.41"/><path d="M213.58,63.88L213.49,63.88L213.49,63.88L213.48,63.88L213.44,63.90L213.36,63.93"/><path d="M213.14,63.99L213.15,63.98L213.20,63.96L213.23,63.95L213.29,63.93L213.33,63.92L213.36,63.93"/><path d="M213.14,63.99L213.08,63.98L213.07,63.98L213.05,63.98L213.00,64.00L212.94,64.02L212.82,64.15L212.77,64.28L212.77,64.29L212.74,64.33"/><path d="M214.26,65.21L214.35,65.23L214.43,65.20L214.47,65.16"/><path d="M214.26,65.21L214.16,65.27L214.12,65.28L214.04,65.27"/><path d="M213.82,65.32L213.89,65.34L213.95,65.33L214.04,65.27"/><path d="M213.82,65.32L213.76,65.36L213.66,65.39L213.60,65.37"/><path d="M214.69,65.11L214.62,65.17L214.58,65.17L214.47,65.16"/><path d="M214.25,63.72L214.33,63.68L214.40,63.66L214.47,63.67"/><path d="M214.03,63.78L213.95,63.77L213.91,63.77L213.80,63.83"/><path d="M214.03,63.78L214.08,63.75L214.10,63.74L214.12,63.72L214.22,63.71L214.25,63.72"/><path d="M213.80,63.83L213.75,63.82L213.70,63.83L213.66,63.85L213.62,63.86L213.58,63.88"/><path d="M214.59,63.62L214.54,63.63L214.47,63.67"/><path d="M214.91,65.06L214.85,65.11L214.81,65.12L214.69,65.11"/><path d="M214.91,65.06L214.92,65.06L214.98,65.06L215.03,65.07L215.04,65.06L215.04,65.06"/></g></g><g id="Actor_2.5"><g style="stroke:#000000;stroke-width:0.176"><path d="M236.19,118.61L236.22,118.96L236.31,119.31L236.45,119.62L236.63,119.87L236.83,120.03L237.03,120.09L237.21,120.03L237.36,119.87L237.45,119.62L237.48,119.30L237.45,118.95L237.36,118.60L237.22,118.29L237.04,118.04L236.84,117.88L236.64,117.82L236.46,117.88L236.32,118.04L236.22,118.29L236.19,118.61L236.19,118.60L236.19,118.60"/><path d="M236.63,118.93L236.68,119.11L236.75,119.28L236.85,119.41L236.95,119.50L237.06,119.53L237.16,119.50L237.23,119.42L237.18,119.55L237.08,119.66L236.96,119.70L236.83,119.66L236.70,119.56L236.58,119.39L236.49,119.18L236.43,118.96L236.41,118.73L236.43,118.52L236.50,118.35L236.59,118.25L236.71,118.21L236.84,118.25L236.97,118.35L236.99,118.38L236.96,118.35L236.85,118.32L236.76,118.35L236.68,118.44L236.63,118.57L236.61,118.74L236.63,118.93"/><path d="M237.48,119.30L237.49,119.31L237.50,119.31L237.52,119.30L237.49,118.95L237.40,118.59L237.25,118.27L237.07,118.01L236.93,117.90L236.86,117.85L236.66,117.79"/><path d="M236.41,118.73L236.61,118.74L237.13,118.62"/><path d="M237.06,120.11L237.24,120.05L237.39,119.88L237.48,119.63L237.52,119.30L240.04,118.70L240.04,118.69L240.08,118.68L240.05,118.33L239.96,117.99L239.82,117.67L239.65,117.43L239.45,117.27L239.39,117.25L239.38,117.25L239.19,117.19L239.25,117.18L239.45,117.23L239.65,117.39L239.84,117.65L239.89,117.78L239.98,117.97L240.07,118.33L240.10,118.69L240.08,118.89L240.07,119.01L239.97,119.27L239.83,119.43L239.64,119.49L239.63,119.49L239.76,119.45L239.81,119.40L239.81,119.40L239.96,119.24L240.05,118.99L240.08,118.68"/><path d="M237.23,119.42L237.24,119.39L237.26,119.18L237.24,118.95L237.18,118.72L237.09,118.52L236.99,118.38"/><path d="M239.09,117.21L239.18,117.19L239.19,117.19"/><path d="M240.24,118.66L240.64,118.56L240.61,118.20L240.52,117.85L240.37,117.52L240.19,117.27L239.99,117.10L239.78,117.05L239.38,117.14L239.58,117.20L239.78,117.36L239.92,117.56L239.97,117.62L240.11,117.94L240.20,118.30L240.24,118.66L240.20,118.98L240.11,119.24L239.96,119.40L239.77,119.46L239.77,119.46L239.89,119.42L239.94,119.37L239.95,119.37L240.09,119.21L240.18,118.96L240.21,118.65L240.18,118.30L240.09,117.95L239.95,117.64L239.78,117.40L239.58,117.24L239.52,117.22L239.72,117.38L239.90,117.64L240.05,117.96L240.14,118.32L240.17,118.66L240.21,118.65"/><path d="M239.77,119.46L240.18,119.36L240.36,119.31L240.51,119.14L240.61,118.89L240.61,118.88L240.64,118.56"/><path d="M239.94,119.37L240.04,119.25L240.14,119.00L240.17,118.67L240.10,118.69"/><path d="M239.81,119.40L239.91,119.28L240.00,119.03L240.04,118.70"/><path d="M239.63,119.49L239.60,119.50"/><path d="M239.64,119.49L239.71,119.48L239.77,119.46"/><path d="M240.17,118.66L240.17,118.67"/><path d="M239.39,117.25L239.59,117.41L239.77,117.67L239.92,117.99L240.01,118.35L240.04,118.69"/><path d="M239.50,116.54L239.69,116.50L240.29,116.82L240.48,117.06L240.64,117.36L240.93,118.37L240.95,118.73L240.93,119.06L240.63,119.76L240.46,119.87"/><path d="M239.52,117.22L239.52,117.22L239.32,117.16L239.38,117.14"/><path d="M239.25,117.18L239.31,117.16L239.32,117.16"/></g><g style="stroke:#000000;stroke-width:0.529"><path d="M239.60,119.50L239.58,119.51L237.06,120.11L237.05,120.11L236.84,120.05L236.63,119.88L236.45,119.63L236.31,119.31L236.22,118.95L236.19,118.60L236.22,118.28L236.32,118.02L236.47,117.85L236.48,117.85L236.66,117.79L239.09,117.21"/><path d="M239.09,117.21L239.33,116.65L239.50,116.54"/><path d="M239.60,119.50L239.68,119.59L240.27,119.91L240.46,119.87"/></g></g><g id="Actor_2.6"><g style="stroke:#000000;stroke-width:0.176"><path d="M236.39,130.00L236.43,130.15L236.53,130.36L236.64,130.52L236.78,130.63L236.91,130.66L237.02,130.63L237.12,130.52L237.17,130.38L237.10,130.46L237.00,130.49L236.89,130.47L236.79,130.38L236.69,130.25L236.62,130.08L236.57,129.89L236.55,129.71L236.36,129.69L236.37,129.92L236.39,130.00"/><path d="M236.13,129.57L236.17,129.26L236.26,129.01L236.40,128.84L236.58,128.79L236.78,128.84L236.98,129.00L237.16,129.25L237.30,129.57L237.39,129.92L237.40,130.02L237.42,130.27L237.39,130.58L237.30,130.84L237.15,131.00L236.97,131.05L236.77,131.00L236.57,130.84L236.39,130.59L236.25,130.27L236.16,129.92L236.13,129.57L236.13,129.57L236.13,129.57"/><path d="M237.42,130.27L237.44,130.27L237.45,130.27L237.46,130.27L237.43,129.91L237.34,129.56L237.19,129.23L237.01,128.98L236.81,128.81L236.60,128.76"/><path d="M236.36,129.69L236.38,129.48L236.44,129.32L236.53,129.21L236.65,129.18L236.78,129.21L236.91,129.32L237.03,129.48L237.12,129.69L237.18,129.92L237.20,130.15L237.18,130.36L237.17,130.38"/><path d="M237.08,129.58L236.55,129.71L236.57,129.54L236.62,129.41L236.70,129.32L236.79,129.29L236.90,129.32L236.93,129.34"/><path d="M237.00,131.07L237.18,131.02L237.33,130.85L237.43,130.59L237.46,130.27L239.98,129.67L239.98,129.65L240.02,129.64L239.99,129.96L239.90,130.20L239.76,130.36L239.75,130.37L239.70,130.42L239.58,130.46L239.58,130.46L239.77,130.40L239.92,130.24L240.01,129.98L240.05,129.66L240.02,129.30L239.92,128.94L239.78,128.62L239.60,128.36L239.39,128.20L239.19,128.14L239.25,128.13L239.46,128.18L239.46,128.19L239.52,128.20L239.72,128.36L239.90,128.61L240.04,128.92L240.13,129.27L240.13,129.37L240.16,129.61L240.12,129.92L240.03,130.17L239.89,130.33L239.88,130.34L239.98,130.22L240.08,129.96L240.11,129.64L240.05,129.66"/><path d="M240.02,129.64L239.99,129.30L239.91,128.95L239.77,128.64L239.59,128.39L239.39,128.23L239.33,128.22L239.33,128.21L239.12,128.16L239.03,128.18"/><path d="M239.13,128.16L239.19,128.14"/><path d="M239.32,128.11L239.73,128.01L239.93,128.07L240.13,128.23L240.32,128.49L240.46,128.81L240.55,129.17L240.58,129.53L240.55,129.85L240.45,130.11L240.31,130.27L240.12,130.33L239.72,130.43L239.90,130.37L240.05,130.20L240.12,130.00L240.14,129.95L240.18,129.62L240.15,129.27L240.05,128.91L239.91,128.59L239.73,128.33L239.52,128.17L239.32,128.11L239.26,128.13"/><path d="M239.88,130.34L239.84,130.38L239.65,130.44L239.58,130.46"/><path d="M239.72,130.43L239.71,130.42"/><path d="M239.75,130.37L239.85,130.25L239.95,129.99L239.98,129.67"/><path d="M239.58,130.46L239.55,130.46"/><path d="M240.18,129.62L240.58,129.53"/><path d="M240.16,129.61L240.11,129.62L240.08,129.28L239.99,128.92L239.84,128.60L239.66,128.35L239.46,128.19"/><path d="M239.98,129.65L239.95,129.31L239.86,128.96L239.71,128.63L239.53,128.38L239.33,128.22"/><path d="M240.11,129.62L240.11,129.64"/><path d="M240.40,130.84L240.57,130.73L240.87,130.03L240.90,129.70L240.88,129.34L240.58,128.32L240.42,128.03L240.23,127.79L239.64,127.47L239.44,127.50"/></g><g style="stroke:#000000;stroke-width:0.529"><path d="M239.03,128.18L236.60,128.76L236.42,128.81L236.41,128.82L236.26,128.99L236.16,129.25L236.13,129.57L236.16,129.92L236.25,130.28L236.39,130.60L236.58,130.85L236.78,131.02L236.99,131.07L237.00,131.07L239.52,130.47L239.55,130.46"/><path d="M239.03,128.18L239.28,127.62L239.44,127.50"/><path d="M240.40,130.84L240.21,130.88L239.62,130.56L239.55,130.46"/></g></g><g id="Actor_1.0"><g style="stroke:#000000;stroke-width:0.176"><path d="M184.59,126.38L184.72,126.41L187.48,127.90L187.61,127.93L187.73,127.90L187.79,127.83L187.48,127.90"/><path d="M184.92,129.76L186.43,129.40L186.49,128.71L186.67,128.16L186.25,127.93L185.83,127.91L185.46,128.11L185.17,128.51L184.98,129.07L184.92,129.76L184.85,141.44L184.91,142.19L185.09,142.95L185.37,143.66L185.74,144.25L186.16,144.69L186.60,144.92L187.02,144.94L187.39,144.75L187.68,144.35L187.86,143.78L187.93,143.09L187.93,142.26L187.86,142.24L187.73,142.11L187.61,141.92L187.53,141.69L187.48,141.44L187.48,141.21L187.53,141.01L187.62,140.88L187.74,140.81L187.87,140.83L187.94,140.87L187.95,138.60L186.91,138.85L187.95,139.41"/><path d="M184.85,141.44L186.36,141.08L186.42,141.83L186.60,142.60L186.88,143.30L187.25,143.89L187.68,144.33"/><path d="M184.72,126.41L187.91,125.65L187.90,127.42L187.88,127.62L187.82,127.79L187.79,127.83"/><path d="M185.46,78.89L185.71,79.52L186.08,80.12L186.50,80.55L186.93,80.78L187.36,80.80L187.73,80.61L188.01,80.21L188.02,80.20L187.59,79.76L187.22,79.16L186.94,78.46L186.76,77.70L186.70,76.94L185.19,77.30L185.25,78.06L185.43,78.82L185.46,78.89"/><path d="M185.19,77.30L185.26,65.63L185.32,64.94L185.51,64.37L185.80,63.97L186.17,63.78L186.59,63.80L187.01,64.03L186.83,64.58L186.76,65.27L186.70,76.94"/><path d="M185.26,65.63L186.76,65.27"/><path d="M187.58,61.68L185.06,62.27L184.93,62.24"/><path d="M185.06,62.27L188.77,64.27L188.33,146.56"/><path d="M186.36,141.08L186.43,129.40"/><path d="M187.95,138.60L187.98,132.76L186.94,132.20L186.81,132.16L186.69,132.20L186.60,132.31L186.54,132.47L186.51,132.68L186.49,137.92L186.51,138.14L186.57,138.37L186.66,138.58L186.78,138.75L186.91,138.85"/><path d="M186.49,137.92L187.96,137.57"/><path d="M186.51,132.68L187.43,132.46"/><path d="M187.98,132.76L187.99,131.42L187.98,131.29L187.92,131.27L187.79,131.14L187.67,130.95L187.59,130.72L187.54,130.48L187.54,130.24L187.59,130.05L187.68,129.91L187.74,129.87L187.47,129.19L187.10,128.60L186.67,128.16"/><path d="M188.32,67.16L188.27,66.53L188.08,65.74L188.01,65.77L187.93,65.91L187.88,66.11L187.88,66.34L187.92,66.58L188.01,66.81L188.13,67.00L188.26,67.13L188.32,67.16L188.33,67.28L188.32,68.62L187.28,68.06L187.15,68.03L187.03,68.06L186.94,68.17L186.88,68.34L186.85,68.54L186.83,73.78L186.85,74.01L186.90,74.24L187.00,74.44L187.12,74.61L187.25,74.71L188.29,75.27"/><path d="M186.83,73.78L188.29,73.43"/><path d="M186.85,68.54L187.77,68.32"/><path d="M187.93,142.26L187.94,140.87"/><path d="M187.98,131.29L187.93,130.66L187.74,129.87"/><path d="M187.91,125.65L187.91,125.58"/><path d="M188.28,76.74L188.21,76.69L188.07,76.67L187.96,76.74L187.87,76.88L187.82,77.07L187.82,77.31L187.87,77.55L187.95,77.78L188.07,77.97L188.20,78.10L188.27,78.13"/><path d="M187.25,74.71L188.29,74.47"/><path d="M187.01,64.03L187.44,64.46L187.81,65.06L188.08,65.74"/><path d="M188.02,80.20L188.20,79.64L188.27,78.96L188.32,68.62"/><path d="M188.77,64.27L196.79,62.36"/><path d="M188.63,62.24L190.75,63.39L194.33,62.54"/><path d="M188.71,62.29L192.29,61.44"/><path d="M189.94,62.36L190.00,62.43L190.11,62.49L190.28,62.54L190.47,62.56L190.68,62.56L190.87,62.54L191.03,62.49L191.14,62.43L191.19,62.36L191.17,62.29L191.09,62.22L190.94,62.16L190.76,62.13L190.56,62.12L190.35,62.13L190.17,62.16L190.03,62.22L189.96,62.29L189.94,62.36"/></g><g style="stroke:#000000;stroke-width:0.529"><path d="M184.65,144.57L184.49,144.45L184.38,144.29L184.28,144.08L184.23,143.85L184.21,143.62L184.29,126.89L184.32,126.68L184.38,126.52L184.47,126.41L184.59,126.38L187.91,125.58L188.14,82.84L188.12,82.61L188.06,82.38L187.97,82.18L187.85,82.01L187.72,81.91L184.96,80.42L184.83,80.32L184.72,80.15L184.62,79.95L184.56,79.72L184.54,79.49L184.63,62.75L184.65,62.55L184.72,62.38L184.81,62.28L187.45,61.64L187.58,61.68L188.63,62.24L192.16,61.40L192.29,61.44L194.33,62.54L196.26,62.08L196.79,62.36L196.35,144.65L188.33,146.56L184.65,144.57"/></g></g><g/><g><g/><g><path style="fill:#ffffff" d="M31.40,15.34L80.47,15.34L80.47,26.63L31.40,26.63z"/><text xml:space="preserve" fill="#000000" stroke-width="0" x="32.81" y="23.10" font-size="6.88" opacity="1.00" font-family="MS Shell Dlg">0010-ASM-001</text></g></g><g><g/><g><path style="fill:#ffffff" d="M6.53,180.00L136.05,180.00L136.05,199.05L6.53,199.05z"/><text xml:space="preserve" fill="#000000" stroke-width="0" x="7.59" y="185.82" font-size="5.18" opacity="1.00" font-family="MS Shell Dlg">a) Insert Door latch head in the slot so that the head will</text><text xml:space="preserve" fill="#000000" stroke-width="0" x="7.59" y="191.11" font-size="5.17" opacity="1.00" font-family="MS Shell Dlg">protrude from the Door internal catcher.</text><text xml:space="preserve" fill="#000000" stroke-width="0" x="7.59" y="196.40" font-size="5.17" opacity="1.00" font-family="MS Shell Dlg">b) Tighten the head to the catcher</text></g></g><g><g/><g><path style="fill:#ffffff" d="M168.00,180.00L286.84,180.00L286.84,193.76L168.00,193.76z"/><text xml:space="preserve" fill="#000000" stroke-width="0" x="169.06" y="185.82" font-size="5.18" opacity="1.00" font-family="MS Shell Dlg">a)   </text><text xml:space="preserve" fill="#000000" stroke-width="0" x="169.06" y="191.11" font-size="5.16" opacity="1.00" font-family="MS Shell Dlg">b) </text></g></g><g><g/><g><image x="82.640053" y="12.127142" height="15.000001" width="15.000001" xlink:href="20_files/824712e742878504_image_0.jpg"/></g></g><g><g/><g><image x="14.945761" y="13.167144" height="15.000001" width="15.000001" xlink:href="20_files/824712e742878504_image_1.jpg"/></g></g><g id="paperID" visibility="hidden" opacity="0.00" transform="scale(0.000100)"><path style="stroke:#000000;stroke-width:0.500;fill:#e6e6e6;fill-rule:evenodd" d="M-2000.00,-2000.00L2297.00,-2000.00L2297.00,2210.00L-2000.00,2210.00zM0.00,0.00L297.00,0.00L297.00,210.00L0.00,210.00z"/><path style="fill:#000000;fill-opacity:0.118" d="M3.00,210.00L297.00,210.00L297.00,3.00L300.00,3.00L300.00,213.00L3.00,213.00z"/></g><g id="hotspot.0" ident="" onmouseover="ShowHotSpot(evt,&apos;0&apos;)" onmouseout="HideHotSpot(evt,&apos;0&apos;)" onmousemove="ShowToolTip(evt,&apos;0&apos;,&quot;Copy 1 of Copy 1 of  6&quot;)" opacity="0"><a xlink:href="21.svg"><path style="fill:#00ff00;fill-rule:evenodd" d="M97.50,26.79L82.68,26.79L82.68,11.96L97.50,11.96z"/></a></g><g id="hotspot.1" ident="" onmouseover="ShowHotSpot(evt,&apos;1&apos;)" onmouseout="HideHotSpot(evt,&apos;1&apos;)" onmousemove="ShowToolTip(evt,&apos;1&apos;,&quot;Copy 1 of Copy 1 of Copy 1 of  6&quot;)" opacity="0"><a xlink:href="19.svg"><path style="fill:#00ff00;fill-rule:evenodd" d="M29.90,27.92L15.08,27.92L15.08,13.10L29.90,13.10z"/></a></g><g id="hotspot.2" ident="" onmouseover="ShowHotSpot(evt,&apos;2&apos;)" onmouseout="HideHotSpot(evt,&apos;2&apos;)" onmousemove="ShowToolTip(evt,&apos;2&apos;,&quot;0038_Door internal-hinges&quot;)" opacity="0"><path style="fill:#00ff00;fill-rule:evenodd" d="M193.68,62.02L196.52,62.00L196.81,62.29L196.49,126.91L196.20,144.44L189.62,146.06L187.71,146.06L184.33,144.07L184.33,128.89L184.52,126.26L187.64,125.42L188.00,116.72L188.02,82.10L186.88,81.27L184.91,80.12L184.59,79.60L184.80,62.04L187.44,61.45L187.99,61.77L189.61,61.76L192.29,61.20z"/></g><g id="hotspot.3" ident="" onmouseover="ShowHotSpot(evt,&apos;3&apos;)" onmouseout="HideHotSpot(evt,&apos;3&apos;)" onmousemove="ShowToolTip(evt,&apos;3&apos;,&quot;0578_Door internal catcher_V2&quot;)" opacity="0"><path style="fill:#00ff00;fill-rule:evenodd" d="M209.25,38.25L208.93,104.28L208.65,114.74L205.45,115.50L203.55,115.51L201.02,114.08L201.01,88.15L201.31,77.33L201.86,77.43L201.86,70.79L201.31,70.89L201.28,34.67L201.59,34.02zM203.29,54.67L203.19,56.40L202.16,56.39L201.84,55.84L201.77,53.82L202.74,53.81zM208.11,74.19L208.11,75.15L207.71,75.90L206.09,75.92L205.55,75.62L205.45,74.20L206.57,73.62L207.53,73.61zM203.01,93.42L203.00,95.25L201.87,95.13L201.56,94.59L201.57,92.66L202.44,92.55z"/></g><g id="hotspot.4" ident="" onmouseover="ShowHotSpot(evt,&apos;4&apos;)" onmouseout="HideHotSpot(evt,&apos;4&apos;)" onmousemove="ShowToolTip(evt,&apos;4&apos;,&quot;0579_Door edge_V2&quot;)" opacity="0"><path style="fill:#00ff00;fill-rule:evenodd" d="M241.19,50.74L241.19,51.66L238.55,52.43L236.07,52.44L229.90,49.28L201.20,33.84L201.28,32.69L201.75,32.04L204.04,31.49L205.27,31.48zM203.55,115.51L205.45,115.50L208.00,114.94L209.23,114.92L235.85,129.32L236.68,130.79L238.65,130.76L240.95,132.19L240.91,132.83L237.99,133.61L236.08,133.61L234.40,133.04L200.92,115.02L201.02,114.06zM206.16,32.89L206.04,33.47L203.53,33.47L203.53,32.72L205.86,32.59z"/></g><g id="hotspot.5" ident="" onmouseover="ShowHotSpot(evt,&apos;5&apos;)" onmouseout="HideHotSpot(evt,&apos;5&apos;)" onmousemove="ShowToolTip(evt,&apos;5&apos;,&quot;0078_Door front&quot;)" opacity="0"><path style="fill:#00ff00;fill-rule:evenodd" d="M242.31,50.73L242.31,72.32L241.76,72.63L241.18,69.40L239.48,67.98L220.83,58.07L218.46,58.08L217.61,58.36L216.45,59.46L215.43,61.58L214.88,61.49L213.35,61.74L212.88,62.39L212.88,63.84L214.63,63.47L215.50,64.02L215.45,64.66L213.63,65.17L213.72,65.70L214.05,65.98L214.90,66.83L214.90,89.83L214.23,89.75L212.89,90.42L212.88,92.13L214.60,91.71L215.46,92.86L213.43,93.54L213.44,93.99L214.86,94.87L216.00,98.54L217.70,101.93L219.71,104.17L239.20,114.68L240.26,114.68L241.13,114.12L241.47,110.94L242.05,111.53L242.03,130.87L241.74,133.17L241.11,133.16L240.92,132.17L238.65,130.76L236.68,130.79L235.85,129.32L208.85,114.74L209.22,50.82L209.50,38.25L229.90,49.28L236.07,52.44L238.55,52.43L241.19,51.66L241.19,50.74L205.22,31.46L205.16,31.19L206.12,31.19z"/></g><g id="hotspot.6" ident="" onmouseover="ShowHotSpot(evt,&apos;6&apos;)" onmouseout="HideHotSpot(evt,&apos;6&apos;)" onmousemove="ShowToolTip(evt,&apos;6&apos;,&quot;0109_printer door window&quot;)" opacity="0"><path style="fill:#00ff00;fill-rule:evenodd" d="M238.35,67.41L240.94,69.07L241.47,70.24L241.46,89.29L241.13,114.12L240.26,114.68L239.20,114.68L219.71,104.17L217.70,101.93L216.00,98.54L214.86,94.87L213.44,93.99L213.43,93.54L215.46,92.86L214.60,91.71L212.88,92.13L212.89,90.42L214.23,89.75L214.90,89.83L214.90,66.83L214.05,65.98L213.72,65.70L213.63,65.17L215.45,64.66L215.50,64.02L214.63,63.47L212.88,63.84L212.88,62.39L213.35,61.74L214.88,61.49L215.43,61.58L216.45,59.46L217.61,58.36L218.46,58.08L220.83,58.07z"/></g><g id="hotspot.7" ident="" onmouseover="ShowHotSpot(evt,&apos;7&apos;)" onmouseout="HideHotSpot(evt,&apos;7&apos;)" onmousemove="ShowToolTip(evt,&apos;7&apos;,&quot;0202_Door latch head&quot;)" opacity="0"><path style="fill:#00ff00;fill-rule:evenodd" d="M201.02,73.19L201.31,70.87L201.86,70.78L201.86,77.44L201.30,77.35L201.01,75.88L200.16,75.94L199.61,75.61L199.56,73.41L199.81,73.05z"/></g><g id="hotspot.8" ident="" onmouseover="ShowHotSpot(evt,&apos;8&apos;)" onmouseout="HideHotSpot(evt,&apos;8&apos;)" onmousemove="ShowToolTip(evt,&apos;8&apos;,&quot;0250_M4X8 socket countersunk head screw&quot;)" opacity="0"><path style="fill:#00ff00;fill-rule:evenodd" d="M206.16,32.89L206.04,33.47L203.53,33.47L203.53,32.72L205.86,32.59zM203.29,54.67L203.19,56.40L202.16,56.39L201.84,55.84L201.77,53.82L202.74,53.81zM203.01,93.42L203.00,95.25L201.87,95.13L201.56,94.59L201.57,92.66L202.44,92.55z"/></g><g id="hotspot.9" ident="" onmouseover="ShowHotSpot(evt,&apos;9&apos;)" onmouseout="HideHotSpot(evt,&apos;9&apos;)" onmousemove="ShowToolTip(evt,&apos;9&apos;,&quot;0253_M4X10 socket head cap screw&quot;)" opacity="0"><path style="fill:#00ff00;fill-rule:evenodd" d="M208.11,74.19L208.11,75.15L207.71,75.90L206.09,75.92L205.55,75.62L205.45,74.20L206.57,73.62L207.53,73.61z"/></g><g id="ToolTip" visibility="hidden" opacity="0" transform="translate(0,0)"><rect id="ToolTipShadow" opacity="0.20" fill="black" stroke="none" x="0" y="0" width="30" height="8"/><rect id="ToolTipBG" fill="#ffffe1" stroke="black" x="0" y="0" width="30" height="8"/><text xml:space="preserve" id="ToolTipText" fill="black" x="0" y="0" width="30" height="8">tooltip</text></g></g></svg>