<?xml version="1.0" encoding="UTF-8" standalone="yes"?><svg xmlns="http://www.w3.org/2000/svg" xmlns:xlink="http://www.w3.org/1999/xlink" width="297.000mm" height="210.000mm" viewBox="0.000000 0.000000 297.000000 210.000000" stroke-linejoin="round" stroke-linecap="round" fill="none" fill-rule="evenodd"><desc>Composer Export</desc><script type="text/ecmascript"><![CDATA[
if(typeof(top) != "undefined")
{
	top.ShowPaper = ShowPaper;
}
function ShowHotSpot(evt,hotspotid)
{
	var svgDocument = evt.target.ownerDocument;
	var strId = "hotspot."+hotspotid;
	var hotspot = svgDocument.getElementById(strId);
	if(hotspot)
		hotspot.setAttribute("opacity",".5");
}
function HideHotSpot(evt,hotspotid)
{
	var svgDocument = evt.target.ownerDocument;
	var strId = "hotspot."+hotspotid;
	var hotspot = svgDocument.getElementById(strId);
	if(hotspot)
		hotspot.setAttribute("opacity","0");

	var toolTip = svgDocument.getElementById('ToolTip');
	if(toolTip)
		toolTip.setAttribute("visibility","hidden");
}
function ShowToolTip(evt,hotspotid,strTooltip)
{
	if(strTooltip=="")
	return;

	// change text
	var svgDocument = evt.target.ownerDocument;
	var tiptext = svgDocument.getElementById('ToolTipText');
	if( !tiptext )
	return;
	tiptext.firstChild.nodeValue = " " + strTooltip + "  " ;

	// show tooltip before, else some refresh issue

	var toolTip = svgDocument.getElementById('ToolTip');
	if(!toolTip)
	return;

	toolTip.setAttribute("visibility","visible");
	toolTip.setAttribute("opacity",".95");

	// move tooltip
	// get viewbox

	var root = svgDocument.documentElement;
	var vbox = (root.getAttribute("viewBox")).split(' ');
	var x0 = parseFloat(vbox[0]);
	var y0 = parseFloat(vbox[1]);
	var vboxW = parseFloat(vbox[2]);
	var vboxH = parseFloat(vbox[3]);

	// get default width of svg

	var strW = root.getAttribute("width");
	var svgW = parseFloat(strW);
	if(strW.indexOf('mm') != -1)
	svgW *= 3.779;

	var strH = root.getAttribute("height");
	var svgH = parseFloat(strH);
	if(strH.indexOf('mm') != -1)
	svgH *= 3.779;  	// 96 dpi  -> 96/25.4 = 3.779

	// update the viewbox / width / height if svg is embedded in html with zoom fit all
	var realx0 = x0;
	var realy0 = y0;
	var realvboxW = vboxW;
	var realvboxH = vboxH;
	var realsvgW = svgW;
	var realsvgH = svgH;

	if ((typeof(top) == "undefined") || (typeof(top.svgctl1) != "undefined")) // embedded in html
	{
		// get window size in pxl

		svgW = window.innerWidth;
		svgH = window.innerHeight;

		// calculate real viewbox

		realsvgW = svgW;
		realsvgH = svgH;
		if((svgW / svgH) > (vboxW / vboxH))
		{
			realvboxW = (vboxH * svgW) / svgH;
			realvboxH = vboxH;
			realx0 = x0 - (realvboxW - vboxW)/2 ;
		}
		else
		{
			realvboxH = (vboxW * svgH) / svgW;
			realvboxW = vboxW;
			realy0 = y0 - (realvboxH - vboxH)/2 ;
		}
	}

	// get user zoom/pan

	var newScale = root.currentScale;
	var translation = root.currentTranslate;

	// transform pxl to user unit

	var xPos = (((evt.clientX+10- translation.x)/newScale) * realvboxW)/realsvgW  + realx0 ;
	var yPos = (((evt.clientY+5- translation.y)/newScale) * realvboxH)/ realsvgH  + realy0 ;
	var scaleForWidth = ( (1 / newScale) * realvboxH) / realsvgH;

	// move tooltip

	toolTip.setAttribute("transform", "translate(" + xPos + "," + yPos + ")" );

	// resize tooltip

	var fontsize = 12;
	tiptext.setAttribute("font-size",fontsize*scaleForWidth);
	tiptext.setAttribute("y", fontsize*scaleForWidth);
	var tipBG = svgDocument.getElementById('ToolTipBG');
	var outline = tiptext.getBBox();
	if(tipBG)
	{
		tipBG.setAttribute("stroke-width", 1*scaleForWidth);
		tipBG.setAttribute("width", Number(outline.width) );
		tipBG.setAttribute("height", Number(outline.height) + fontsize*.5*scaleForWidth );
	}
	var ToolTipShadow = svgDocument.getElementById('ToolTipShadow');
	if(ToolTipShadow)
	{
		ToolTipShadow.setAttribute("width", Number(outline.width) );
		ToolTipShadow.setAttribute("height", Number(outline.height) + fontsize*.5*scaleForWidth );
		ToolTipShadow.setAttribute("x", 3*scaleForWidth);
		ToolTipShadow.setAttribute("y", 3*scaleForWidth);
	}
}
function ShowPaper()
{
  var svgDocument = getDocument();
  var paper = svgDocument.getElementById("paperID");
  if(paper)
  {
    paper.setAttribute("transform","scale(1)");
    paper.setAttribute("opacity","1");
    paper.setAttribute("visibility","visible");
  }
  var svg = svgDocument.getRootElement();
  if(svg)
  {
    svg.setAttribute("width","307.000mm");
    svg.setAttribute("height","220.000mm");
    svg.setAttribute("viewBox","-5.000000 -5.000000 307.000000 220.000000");
  }
}
]]></script><defs/><g><path style="fill:#ffffff" d="M297.00,210.08L0.07,210.08L0.07,0.07L297.00,0.07z"/><path style="fill:#fff2e8" d="M206.37,33.40L206.35,33.71L205.91,33.88L203.79,33.92L203.29,33.63L203.28,33.24L204.22,32.89L205.57,32.89z"/><path style="fill:#fff2e8" d="M203.32,54.91L203.21,56.62L203.06,56.80L202.23,56.78L201.79,55.95L201.65,54.32L202.64,54.04z"/><path style="fill:#fff2e8" d="M203.07,93.75L203.05,95.60L202.74,95.82L202.32,95.77L201.81,95.25L201.54,94.53L201.49,92.99L201.63,92.88L202.39,92.87L202.60,92.99z"/><path style="fill:#e5e5e5" d="M209.34,38.63L208.81,115.13L204.48,116.16L204.56,69.80L204.81,36.13z"/><path style="fill:#cdd1d5" d="M201.57,73.87L201.83,73.59L202.08,71.38L202.05,77.84L201.70,77.95L201.54,75.93L201.11,76.14L200.23,76.34L200.09,76.15L200.31,73.81L200.64,73.59L201.09,73.66z"/><path style="fill:#ffffff" d="M205.43,75.67L205.31,75.80L205.32,75.13z"/><path style="fill:#e5d9d0" d="M202.56,55.52L202.22,55.52L202.22,55.19L202.56,55.19z"/><path style="fill:#e5d9d0" d="M208.18,74.41L208.08,75.83L207.23,76.51L206.58,76.52L206.14,76.33L206.09,76.12L206.57,74.57L207.64,74.08z"/><path style="fill:#e5d9d0" d="M202.31,94.35L201.97,94.35L201.97,94.01L202.31,94.01z"/><path style="fill:#fff2e8" d="M205.43,75.67L205.32,75.13L205.82,74.32L206.73,73.97L207.64,74.08L206.57,74.57L206.09,76.12z"/><path style="fill:#fff2e8" d="M207.50,75.74L206.72,75.82L206.80,75.05L207.57,74.97z"/><path style="fill:#0000ff" d="M215.37,64.36L215.23,65.14L215.08,65.30L213.92,65.36L213.79,64.95L213.51,64.91L213.56,65.19L213.92,65.36L213.44,65.69L212.81,65.19L212.78,64.55L212.97,64.14L214.85,63.93z"/><path style="fill:#0000ff" d="M215.36,92.77L215.34,93.33L215.03,93.55L214.20,93.65L214.31,92.98L214.03,92.98L213.89,93.66L213.16,93.88L212.80,93.77L212.69,92.67L213.74,92.26L214.84,92.25z"/><path style="fill:#e2e9ed" d="M236.87,52.46L237.54,52.46L238.45,52.04L239.36,52.00L239.46,51.85L241.45,51.52L242.41,51.18L242.96,51.54L235.29,53.44L235.12,62.03L234.72,135.71L230.87,133.58L230.59,133.11L230.85,115.63L234.05,114.82L234.14,112.22L234.36,103.61L234.38,71.45L233.37,70.72L231.11,69.47L230.89,63.63L231.10,51.51L233.29,50.93L234.12,50.91z"/><path style="fill:#e2e9ed" d="M202.08,71.38L201.83,73.59L201.57,73.87L201.09,73.66L201.27,71.26L201.49,70.96L201.82,70.91z"/><path style="fill:#e2e9ed" d="M199.55,73.81L199.97,73.44L200.64,73.59L200.31,73.81L200.09,76.15L199.55,75.73z"/><path style="fill:#e2e9ed" d="M201.11,76.14L201.54,75.93L201.70,77.95L201.57,78.07L201.28,77.79z"/><path style="fill:#e5e5e5" d="M241.45,51.52L239.46,51.85L240.55,51.43z"/><path style="fill:#e5e5e5" d="M239.36,52.00L238.45,52.04L239.46,51.85z"/><path style="fill:#e5e5e5" d="M202.64,54.04L201.65,54.32L201.71,53.93z"/><path style="fill:#e5e5e5" d="M202.39,92.87L201.63,92.88L202.30,92.74z"/><path style="fill:#e87008" d="M224.62,60.42L230.89,63.63L231.11,69.47L233.37,70.72L234.38,71.45L234.36,103.61L234.14,112.22L228.88,109.52L219.36,104.26L217.60,102.26L216.07,99.03L214.87,95.22L213.58,94.50L213.40,94.02L213.89,93.66L214.20,93.65L215.03,93.55L215.34,93.33L215.36,92.77L214.84,92.25L213.74,92.26L212.69,92.67L212.81,91.07L213.24,90.50L214.83,90.09L215.08,88.08L215.09,67.45L214.58,66.71L213.58,65.94L213.44,65.69L213.92,65.36L215.08,65.30L215.23,65.14L215.60,65.05L215.64,64.71L215.37,64.36L214.85,63.93L212.97,64.14L213.07,62.53L214.25,61.94L215.57,62.05L216.08,60.53L216.99,59.19L218.50,58.44L220.85,58.43z"/><path style="fill:#0000e5" d="M215.64,64.71L215.60,65.05L215.23,65.14L215.37,64.36z"/><path style="fill:#0000e5" d="M213.51,64.91L213.79,64.95L213.92,65.36L213.56,65.19z"/><path style="fill:#0000e5" d="M214.20,93.65L213.89,93.66L214.03,92.98L214.31,92.98z"/><path style="fill:#0000e5" d="M213.40,94.02L213.16,93.88L213.89,93.66z"/><path style="fill:#cdd1d5" d="M233.34,53.17L233.36,57.27L233.63,57.22L234.63,57.93L234.61,62.78L234.32,62.99L233.10,62.94L233.05,67.22L231.78,67.29L231.58,67.00L231.76,53.67L232.52,52.91z"/><path style="fill:#cdd1d5" d="M234.62,66.57L234.28,66.57L234.28,65.93L234.62,65.93z"/><path style="fill:#cdd1d5" d="M234.39,122.04L234.05,127.09L233.03,127.17L233.04,121.54L233.61,121.54z"/><path style="fill:#cdd1d5" d="M232.62,131.43L231.27,131.43L231.35,118.38L231.78,117.31L232.88,117.31z"/><path style="fill:#cdd1d5" d="M242.88,108.62L242.56,133.85L234.72,135.71L235.12,62.03L235.29,53.44L242.96,51.54L243.14,51.67z"/><path style="fill:#ffffff" d="M207.23,76.51L208.08,75.83L208.18,74.41L208.56,74.46L208.58,75.58L207.97,76.47L207.00,77.00L205.53,76.97L205.53,76.58L206.14,76.33L206.58,76.52z"/><g id="Actor_7.0"><g style="stroke:#000000;stroke-width:0.176"><path d="M206.26,33.26L206.15,33.43L205.89,33.57L205.51,33.68L205.05,33.74L204.56,33.74L204.10,33.68L203.71,33.57L203.44,33.43L203.31,33.26"/><path d="M204.48,33.05L204.24,33.22L204.55,33.39L205.09,33.38L205.33,33.20L205.03,33.04L204.48,33.05L204.48,33.35"/><path d="M205.03,33.04L205.02,33.38"/></g><g style="stroke:#000000;stroke-width:0.529"><path d="M206.15,33.63L206.26,33.46L206.26,33.26L206.21,33.08L206.01,32.92L205.68,32.79L205.25,32.71L204.77,32.68L204.29,32.71L203.86,32.79L203.54,32.92L203.35,33.08L203.31,33.26L203.31,33.46L203.42,33.61"/></g></g><g id="Actor_7.1"><g style="stroke:#000000;stroke-width:0.176"><path d="M201.97,94.33L202.22,94.70L202.48,94.59L202.49,94.08L202.22,93.68L201.96,93.80L201.95,94.31L201.97,94.33"/><path d="M201.95,94.31L202.43,94.19L202.43,93.99"/><path d="M201.96,93.80L202.25,93.73"/><path d="M202.43,94.19L202.49,94.28"/><path d="M202.49,94.24L202.46,94.17L202.43,94.01L202.43,93.99"/><path d="M202.46,94.17L202.49,94.16"/><path d="M201.89,92.75L202.16,92.78L202.43,92.96L202.68,93.28L202.88,93.69L203.00,94.16L203.05,94.63L203.00,95.06L202.87,95.39L202.67,95.59"/><path d="M202.61,92.92L202.79,93.15"/></g><g style="stroke:#000000;stroke-width:0.529"><path d="M202.68,92.98L202.61,92.92L202.34,92.74L202.07,92.71L201.89,92.75L201.66,92.88L201.50,93.15L201.41,93.53L201.40,93.98L201.49,94.46L201.66,94.91L201.88,95.28L202.15,95.53L202.42,95.64L202.67,95.59L202.85,95.55L203.05,95.34L203.18,95.03"/></g></g><g id="Actor_11.0"><g style="stroke:#000000;stroke-width:0.176"><path d="M230.52,130.30L200.73,114.25"/></g><g style="stroke:#000000;stroke-width:0.529"><path d="M230.51,131.19L200.72,115.13L200.73,114.25L200.84,114.05"/><path d="M230.54,126.65L208.83,114.95"/></g></g><g id="Actor_3.0"><g style="stroke:#000000;stroke-width:0.176"><path d="M214.38,91.89L213.91,91.63L213.76,91.59L213.63,91.63L213.53,91.75L213.46,91.93L213.44,92.18"/><path d="M213.52,90.18L213.91,90.29L214.34,90.52L214.81,90.40L214.71,90.52L214.53,90.57L214.34,90.52"/><path d="M214.53,63.59L214.05,63.33L213.91,63.29L213.78,63.33L213.68,63.45L213.61,63.63L213.59,63.88"/><path d="M213.67,61.88L214.06,61.99L215.01,61.76"/><path d="M214.96,93.76L215.10,93.80L215.23,93.76L215.30,93.68L214.96,93.76L214.43,93.47"/><path d="M214.86,90.06L213.91,90.29"/><path d="M214.81,90.40L214.85,90.36L214.94,90.11"/><path d="M215.11,65.46L215.25,65.50L215.38,65.46L215.45,65.38L215.11,65.46L214.58,65.17"/><path d="M214.06,61.99L214.97,62.47L215.17,62.42L215.32,62.27L215.43,61.99"/><path d="M215.42,93.28L215.40,93.46L215.34,93.64L215.30,93.68"/><path d="M215.45,65.38L215.48,65.34L215.55,65.16L215.57,64.98"/><path d="M215.17,62.42L215.16,62.43L214.97,62.47"/><path d="M218.08,58.39L218.84,58.28L219.64,58.39L220.45,58.73L221.40,58.50"/><path d="M220.45,58.73L230.86,64.34"/></g><g style="stroke:#000000;stroke-width:0.529"><path d="M213.15,93.73L213.50,94.22L213.89,94.53L214.79,95.02L214.99,95.27L215.15,95.60L215.25,95.98L215.56,97.41L215.99,98.80L216.52,100.12L217.15,101.34L217.84,102.43L218.60,103.35L219.39,104.10L220.21,104.65L234.22,112.20"/><path d="M213.30,65.43L213.65,65.92L214.04,66.23L214.46,66.46L214.66,66.62L214.84,66.86L214.98,67.18L215.06,67.52L215.09,67.86L214.98,89.80L214.94,90.11L214.86,90.06L214.46,89.96L213.52,90.18L213.16,90.29L212.88,90.61L212.70,91.10L212.63,91.73L212.69,92.43"/><path d="M230.87,63.61L221.40,58.50L220.58,58.17L219.78,58.05L219.02,58.16L218.08,58.39L217.37,58.72L216.74,59.26L216.20,60.00L215.76,60.93L215.43,61.99L215.01,61.76L214.61,61.65L213.67,61.88L213.31,61.99L213.03,62.31L212.85,62.80L212.78,63.42L212.84,64.13"/><path d="M214.38,91.93L214.38,91.89L214.96,92.20L215.11,92.32L215.24,92.50L215.34,92.73L215.41,92.98L215.43,93.23L215.42,93.28L215.37,93.25"/><path d="M214.53,63.63L214.53,63.59L215.11,63.90L215.26,64.02L215.39,64.20L215.49,64.43L215.55,64.68L215.58,64.93L215.57,64.98L215.52,64.95"/></g></g><g id="Actor_7.2"><g style="stroke:#000000;stroke-width:0.176"><path d="M202.11,55.03L202.11,55.40L202.37,55.80L202.64,55.69L202.64,55.18L202.37,54.78L202.11,54.89L202.11,55.03"/><path d="M202.11,55.40L202.58,55.29L202.58,55.09"/><path d="M202.11,54.89L202.40,54.82"/><path d="M202.82,56.69L203.02,56.49L203.15,56.16L203.20,55.73L203.16,55.26L203.03,54.79L202.83,54.38L202.58,54.06L202.31,53.88L202.05,53.85"/><path d="M202.76,54.02L203.01,54.33L203.21,54.75L203.34,55.22L203.38,55.69L203.33,56.11"/><path d="M202.58,55.29L202.64,55.38"/><path d="M202.64,55.34L202.61,55.26L202.58,55.11L202.58,55.09"/><path d="M202.64,55.26L202.61,55.26"/></g><g style="stroke:#000000;stroke-width:0.529"><path d="M203.00,54.23L202.76,54.02L202.49,53.83L202.23,53.81L202.05,53.85L201.82,53.98L201.65,54.25L201.56,54.63L201.56,55.08L201.64,55.56L201.81,56.01L202.04,56.38L202.30,56.63L202.57,56.74L202.82,56.69L203.00,56.65L203.20,56.44L203.33,56.11L203.40,55.94"/></g></g><g id="Actor_5.0"><g style="stroke:#000000;stroke-width:0.176"><path d="M200.35,76.18L200.32,76.16L200.02,75.89L199.99,75.86L199.98,75.82L199.97,75.78L199.44,75.49"/><path d="M199.97,75.78L199.98,74.15L199.99,74.11L200.00,74.06L200.03,74.02L200.33,73.61L200.36,73.57L200.40,73.54L200.44,73.53L199.91,73.24"/><path d="M200.02,75.89L199.49,75.60"/><path d="M199.79,75.87L200.32,76.16"/><path d="M199.98,74.15L199.45,73.87"/><path d="M200.03,74.02L199.50,73.73"/><path d="M199.80,73.32L200.33,73.61"/><path d="M201.16,77.19L201.69,77.47L201.71,77.58L201.75,77.66L201.82,77.73"/><path d="M201.17,75.65L201.47,75.58L201.70,75.70L201.69,75.65L201.67,75.61L201.64,75.57L201.59,75.56L201.55,75.56L201.47,75.58"/><path d="M201.04,73.65L201.03,73.63L201.18,73.71L201.13,73.71L201.10,73.70L201.06,73.68L201.04,73.65"/><path d="M200.44,73.53L200.81,73.44L200.85,73.44L200.89,73.45L200.79,73.39"/><path d="M202.01,71.22L201.94,71.25L201.85,71.32L201.78,71.41L201.74,71.52L201.72,71.63L201.71,73.40L201.71,73.46L201.68,73.51L201.65,73.56L201.60,73.60L201.56,73.62L201.03,73.33"/><path d="M200.89,73.45L200.92,73.47L200.95,73.50L201.03,73.63"/><path d="M201.18,73.71L201.56,73.62"/><path d="M200.28,73.15L200.81,73.44"/><path d="M201.18,73.12L201.71,73.40"/><path d="M201.72,71.63L201.19,71.35"/><path d="M201.69,77.47L201.70,75.70"/><path d="M201.51,70.92L202.01,71.19"/></g><g style="stroke:#000000;stroke-width:0.529"><path d="M200.79,73.39L200.36,73.16L200.32,73.15L200.28,73.15L199.91,73.24L199.87,73.26L199.84,73.29L199.80,73.32L199.50,73.73L199.47,73.77L199.46,73.82L199.45,73.87L199.44,75.49L199.45,75.53L199.47,75.57L199.49,75.60L199.79,75.87L199.82,75.89L200.35,76.18L200.39,76.19L200.43,76.18L200.80,76.09L200.84,76.08L200.88,76.05L200.91,76.02L200.94,75.97L201.03,75.77L201.05,75.73L201.09,75.70L201.12,75.67L201.16,75.65L201.17,75.65"/><path d="M201.98,77.75L201.91,77.76L201.82,77.73L201.29,77.44L201.22,77.38L201.18,77.29L201.16,77.19L201.17,75.65"/><path d="M201.90,70.83L201.51,70.92L201.41,70.96L201.32,71.03L201.26,71.13L201.21,71.24L201.19,71.35L201.18,73.12L201.18,73.17L201.15,73.23L201.12,73.28L201.07,73.31L201.03,73.33L200.79,73.39"/></g></g><g id="Actor_11.1"><g style="stroke:#000000;stroke-width:0.176"><path d="M201.16,33.09L233.70,50.63"/><path d="M205.19,33.83L205.66,33.78L206.11,33.65L206.43,33.47L206.56,33.26L206.51,33.05L206.26,32.86L205.86,32.71L205.34,32.60L204.76,32.57L204.18,32.61L203.67,32.71L203.28,32.86L203.05,33.06L203.01,33.27L203.16,33.47L203.49,33.65L203.96,33.78L204.38,33.83"/><path d="M237.27,51.13L237.74,51.07L238.20,50.94L238.51,50.76L238.65,50.56L238.59,50.35L238.35,50.15L237.94,50.00L237.42,49.90L236.84,49.86L236.27,49.90L235.75,50.00L235.36,50.15L235.13,50.35L235.09,50.56L235.25,50.76L235.57,50.94L236.04,51.07L236.46,51.12"/><path d="M235.92,51.76L237.89,51.91L237.88,52.17"/><path d="M237.89,51.91L241.35,51.09"/></g><g style="stroke:#000000;stroke-width:0.529"><path d="M241.34,51.35L241.35,51.09L205.03,31.51L201.57,32.33L201.16,33.09L201.15,33.97L232.56,50.90"/><path d="M205.19,33.83L205.10,33.85L204.52,33.85L204.38,33.83"/><path d="M236.46,51.12L236.60,51.14L237.19,51.14L237.27,51.13"/></g></g><g id="Actor_10.0"><g style="stroke:#000000;stroke-width:0.176"><path d="M201.30,94.33L201.34,94.51L201.53,95.05L201.81,95.50L202.12,95.81L202.45,95.94L202.75,95.88L203.00,95.64L203.15,95.24L203.21,94.73L203.16,94.16L203.01,93.60L202.77,93.10L202.47,92.71L202.14,92.49L201.82,92.46L201.55,92.61L201.34,92.93L201.23,93.39L201.23,93.94L201.30,94.33"/><path d="M201.90,78.32L201.66,78.37L201.56,78.30L201.48,78.17L201.41,78.02L201.36,77.84L201.35,77.67L201.35,77.47"/><path d="M201.35,77.67L201.61,77.61"/><path d="M201.66,78.37L201.76,78.40L201.85,78.37L201.92,78.29L201.97,78.17L201.98,78.01L202.02,71.29L202.00,71.12L201.96,70.95L201.89,70.79L201.80,70.67L201.70,70.59L201.60,70.56L201.52,70.59L201.44,70.67L201.40,70.79L201.38,70.99"/><path d="M201.38,70.95L201.90,70.83"/><path d="M201.75,56.15L202.01,56.59L202.33,56.89L202.66,57.02L202.96,56.96L203.20,56.72L203.36,56.33L203.42,55.82L203.37,55.25L203.21,54.68L202.97,54.18L202.67,53.80L202.35,53.58L202.03,53.54L201.75,53.69L201.55,54.02L201.44,54.48L201.44,55.03L201.54,55.60L201.75,56.15"/><path d="M204.22,116.05L204.65,35.86"/><path d="M205.52,76.85L205.90,76.98L206.32,76.95L207.00,76.79L207.26,76.73L207.68,76.55L208.06,76.25L208.36,75.84L208.55,75.37L208.62,74.88L208.56,74.43L208.37,74.05L208.07,73.79L207.70,73.66L207.28,73.68L206.33,73.91L205.91,74.08L205.54,74.39L205.23,74.80L205.04,75.27L204.97,75.75L205.04,76.21L205.22,76.58L205.52,76.85"/><path d="M205.13,76.39L205.26,76.38L206.23,76.14"/><path d="M205.26,76.38L206.32,76.95"/><path d="M205.01,75.47L205.26,75.60L205.40,75.57"/><path d="M205.26,75.60L205.06,75.61L204.99,75.59"/><path d="M206.20,76.15L207.26,76.73"/><path d="M207.41,73.68L207.47,73.81"/></g><g style="stroke:#000000;stroke-width:0.529"><path d="M208.83,114.95L204.22,116.05L200.83,114.22L201.04,75.76"/><path d="M201.26,34.03L201.05,73.32"/></g></g><g id="Actor_2.0"><g style="stroke:#000000;stroke-width:0.176"><path d="M205.03,31.44L241.62,51.17L241.62,51.28"/><path d="M241.62,51.17L242.41,50.98"/></g><g style="stroke:#000000;stroke-width:0.529"><path d="M242.41,51.10L242.41,50.98L205.81,31.26L205.03,31.44L205.03,31.51"/></g></g><g id="Actor_8.0"><g style="stroke:#000000;stroke-width:0.176"><path d="M205.24,74.97L205.24,74.79"/><path d="M207.17,75.78L207.65,75.35L207.65,74.72L207.17,74.52L206.69,74.95L206.68,75.58L207.17,75.78L206.74,75.55L207.23,75.12L207.23,74.55"/><path d="M206.74,75.55L206.68,75.53"/><path d="M207.00,76.26L206.77,76.25L206.50,76.12L206.31,75.88L206.21,75.56L206.19,75.38L206.21,75.20L206.31,74.83L206.51,74.50L206.78,74.24L207.09,74.08L207.41,74.03L207.71,74.11L207.94,74.30L208.09,74.58L208.14,74.92L208.09,75.29L207.93,75.64L207.70,75.94L207.40,76.16L207.08,76.26L207.00,76.26"/><path d="M207.69,73.93L207.36,73.84L207.00,73.89L206.65,74.08L206.34,74.37L206.12,74.75L206.00,75.16L205.98,75.37L206.00,75.57L206.11,75.93L206.33,76.19"/><path d="M207.15,74.54L207.20,74.64L207.23,74.81L207.20,74.99L207.12,75.17L207.01,75.32L206.98,75.34L206.86,75.42L206.70,75.47L206.68,75.47"/><path d="M207.20,74.99L206.77,74.88"/><path d="M206.97,74.71L207.20,74.64"/><path d="M207.65,75.35L207.23,75.12"/></g><g style="stroke:#000000;stroke-width:0.529"><path d="M205.24,74.97L205.23,75.16L205.35,75.51L205.57,75.78L206.33,76.19L206.64,76.35L206.99,76.36L207.35,76.24L207.68,76.00L207.95,75.66L208.12,75.26L208.18,74.84L208.13,74.46L207.96,74.14L207.69,73.93L207.25,73.69"/><path d="M205.18,74.94L205.24,74.97"/></g></g><g id="Actor_2.1"><g style="stroke:#000000;stroke-width:0.176"><path d="M212.60,92.61L212.59,92.64"/><path d="M212.62,92.59L212.62,92.58"/><path d="M212.57,92.70L212.63,92.58L212.71,92.52L212.81,92.52L212.86,92.54L212.91,92.57L213.01,92.69L213.09,92.84L213.15,93.01L213.18,93.20L213.17,93.37L213.12,93.50L213.05,93.59L212.96,93.63L212.86,93.60L212.75,93.52"/><path d="M212.62,92.59L212.64,92.54L212.65,92.52L212.74,92.45L212.75,92.45L212.86,92.44L212.87,92.44L212.88,92.44L212.88,92.44L213.02,92.48L213.14,92.58L213.25,92.74L213.34,92.94L213.38,93.14L213.39,93.33L213.35,93.49L213.30,93.57L213.28,93.61L213.27,93.63L213.20,93.71"/><path d="M213.34,93.23L213.34,93.21L213.34,93.23L213.34,93.27L213.33,93.44L213.33,93.47L213.30,93.57"/><path d="M213.74,93.64L213.86,93.58L213.94,93.45L213.98,93.24L213.97,93.01L213.90,92.75L213.80,92.51L213.66,92.33L213.50,92.21L213.35,92.18L213.21,92.23"/><path d="M213.51,93.69L213.63,93.64L213.71,93.51L213.76,93.31L213.75,93.08L213.69,92.82L213.59,92.58L213.45,92.40L213.30,92.27L213.14,92.23"/><path d="M213.29,93.74L213.40,93.70L213.49,93.58L213.53,93.38L213.53,93.15L213.48,92.90L213.38,92.65L213.25,92.46L213.09,92.33L212.93,92.28"/><path d="M213.51,92.93L213.50,92.88L213.45,92.74L213.33,92.53L213.25,92.44L213.35,92.52L213.46,92.67L213.55,92.87L213.60,93.07L213.61,93.26L213.58,93.42L213.54,93.48"/><path d="M213.34,93.21L213.31,93.04L213.33,93.16L213.33,93.18L213.33,93.17L213.34,93.21"/><path d="M213.46,92.78L213.53,92.98L213.56,93.21L213.56,93.43L213.50,93.61L213.45,93.67"/><path d="M213.67,93.62L213.71,93.58L213.77,93.42L213.79,93.25L213.77,93.03L213.71,92.78L213.61,92.56L213.49,92.40L213.57,92.46L213.68,92.61L213.77,92.80L213.82,93.01L213.83,93.20L213.80,93.36L213.77,93.42"/><path d="M213.65,93.63L213.63,93.64"/><path d="M213.45,92.18L213.45,92.18L213.43,92.18"/><path d="M213.55,93.13L213.55,93.09L213.55,93.09"/><path d="M212.99,92.29L213.04,92.29L213.20,92.38L213.25,92.44"/><path d="M213.31,93.04L213.30,93.00L213.25,92.86L213.28,92.95L213.29,92.98"/><path d="M213.97,93.58L214.08,93.52L214.16,93.38L214.20,93.17L214.18,92.94L214.12,92.68L214.01,92.44L213.87,92.27L213.71,92.15L213.55,92.13"/><path d="M213.51,92.15L213.43,92.18"/><path d="M213.00,92.28L213.08,92.25"/><path d="M213.49,92.40L213.48,92.39L213.33,92.27L213.21,92.23"/><path d="M213.25,92.86L213.24,92.82L213.22,92.79L213.13,92.64L213.11,92.61L213.01,92.50L212.99,92.49L212.88,92.44"/><path d="M213.55,93.08L213.55,93.09L213.53,92.98"/><path d="M213.33,93.16L213.33,93.16L213.33,93.16L213.33,93.17"/><path d="M212.85,92.31L212.92,92.28"/><path d="M213.89,93.57L213.90,93.56L213.97,93.43L214.01,93.23L214.00,93.01L213.94,92.77L213.89,92.63L213.77,92.42L213.63,92.27L213.48,92.18L213.45,92.18"/><path d="M213.70,92.34L213.78,92.40L213.89,92.54L213.98,92.73L214.04,92.94L214.05,93.13L214.02,93.30L213.98,93.38"/><path d="M213.66,92.13L213.76,92.15L213.90,92.27L213.93,92.30L213.99,92.33L214.10,92.47L214.19,92.66L214.25,92.87L214.27,93.06L214.25,93.23L214.20,93.33"/><path d="M213.29,92.20L213.29,92.20"/><path d="M214.47,93.47L214.47,93.47"/><path d="M214.83,93.36L214.89,93.36L214.99,93.28L215.06,93.11L215.08,92.89L215.05,92.64L214.97,92.39L214.85,92.17L214.79,92.11"/><path d="M214.66,93.42L214.77,93.34L214.84,93.18L214.86,92.96L214.83,92.72L214.75,92.46L214.64,92.24L214.49,92.07L214.33,91.98L214.18,91.98"/><path d="M214.43,93.47L214.54,93.40L214.61,93.25L214.64,93.03L214.62,92.79L214.54,92.53L214.43,92.31L214.29,92.14L214.13,92.04L213.97,92.03"/><path d="M214.17,93.52L214.11,93.52"/><path d="M214.20,93.53L214.31,93.46L214.39,93.31L214.42,93.10L214.40,92.86L214.33,92.61L214.22,92.38L214.08,92.20L213.92,92.09L213.76,92.08"/><path d="M214.22,93.24L214.25,93.23L214.32,93.27"/><path d="M214.84,93.30L214.82,93.28"/><path d="M214.59,93.34L214.61,93.36"/><path d="M214.67,93.11L214.70,93.10L214.64,93.23L214.64,93.23"/><path d="M214.38,93.41L214.37,93.40"/><path d="M214.42,93.29L214.47,93.17L214.49,92.99L214.47,92.80L214.44,92.81"/><path d="M214.15,93.47L214.15,93.46"/><path d="M214.11,93.52L214.12,93.51L214.19,93.38L214.23,93.19L214.22,92.97L214.18,92.79L214.20,92.88L214.22,92.97"/><path d="M214.28,92.41L214.31,92.41L214.20,92.27L214.14,92.24L214.24,92.35L214.35,92.57L214.42,92.81L214.45,93.04L214.43,93.25L214.37,93.41L214.32,93.46"/><path d="M214.65,92.83L214.64,92.76L214.65,92.83L214.67,93.05L214.64,93.26L214.57,93.40L214.54,93.41"/><path d="M214.76,93.36L214.80,93.33L214.86,93.18L214.89,92.97L214.87,92.74L214.87,92.73L214.80,92.49L214.69,92.26L214.58,92.13L214.62,92.15L214.74,92.28L214.71,92.29"/><path d="M214.63,92.74L214.63,92.75L214.64,92.77L214.61,92.67L214.63,92.74L214.64,92.76"/><path d="M214.77,93.14L214.70,93.10L214.71,92.93L214.69,92.73L214.66,92.74"/><path d="M214.76,92.72L214.69,92.73L214.62,92.52L214.52,92.34L214.50,92.35"/><path d="M214.58,92.29L214.52,92.34L214.41,92.21L214.37,92.19L214.49,92.37L214.60,92.60L214.61,92.67"/><path d="M214.54,92.79L214.47,92.80L214.41,92.59L214.31,92.41L214.37,92.36"/><path d="M214.09,92.11L214.07,92.17L214.10,92.19L214.14,92.24"/><path d="M214.86,93.18L214.87,93.17L214.92,93.04L214.89,93.04"/><path d="M214.88,92.67L214.90,92.66L214.83,92.45L214.74,92.28L214.79,92.22"/><path d="M213.93,92.30L214.03,92.43L214.14,92.66L214.16,92.73L214.18,92.79"/><path d="M213.88,92.08L213.96,92.09L214.07,92.17"/><path d="M214.83,92.62L214.86,92.73"/><path d="M214.85,92.68L214.85,92.67"/><path d="M214.37,92.19L214.37,92.19L214.22,92.06L214.15,92.04L214.13,92.04"/><path d="M214.58,92.13L214.56,92.10L214.41,91.99L214.32,91.97"/><path d="M214.85,92.14L214.94,92.27L215.04,92.50L215.09,92.71L215.06,92.60L215.05,92.56"/><path d="M214.20,92.87L214.20,92.88L214.20,92.88"/><path d="M214.45,91.93L214.39,91.93"/><path d="M213.95,92.04L213.88,92.08"/><path d="M214.51,92.00L214.49,92.05"/><path d="M214.15,92.04L214.10,92.03"/><path d="M215.08,93.32L215.08,93.32L215.05,93.31L215.10,93.31L215.08,93.32"/><path d="M215.42,93.18L215.35,93.25L215.43,93.23"/><path d="M215.10,93.31L215.12,93.31L215.22,93.22L215.28,93.04L215.30,92.82L215.26,92.57L215.25,92.52"/><path d="M215.07,93.25L215.04,93.22"/><path d="M214.90,93.36L214.99,93.32L215.06,93.19L215.10,92.99L215.10,92.77L215.10,92.75L215.09,92.71"/><path d="M215.12,93.31L215.19,93.28L215.22,93.25L215.29,93.12L215.33,92.92L215.31,92.69L215.31,92.66"/><path d="M215.35,93.25L215.23,93.27L215.21,93.26"/><path d="M215.08,93.32L215.05,93.31L215.00,93.32L215.08,93.32"/><path d="M215.00,93.32L214.99,93.31"/><path d="M215.34,92.91L215.36,92.91L215.37,92.83"/><path d="M215.39,92.92L215.36,92.91L215.32,93.05L215.30,93.07"/><path d="M215.30,93.19L215.27,93.16"/><path d="M215.08,93.13L215.09,93.11L215.14,92.97L215.11,92.98"/><path d="M214.92,92.22L214.95,92.21L215.05,92.39L215.12,92.59L215.15,92.79L215.14,92.97L215.21,93.01"/><path d="M214.96,92.20L214.95,92.21L214.90,92.17"/><path d="M214.99,93.07L214.92,93.04L214.93,92.86L214.90,92.66L214.98,92.65"/><path d="M215.31,92.66L215.31,92.68"/></g><g style="stroke:#000000;stroke-width:0.529"><path d="M213.20,93.71L213.20,93.71L213.17,93.73L213.08,93.75L213.06,93.74L212.95,93.70L212.92,93.68L212.75,93.52L212.66,93.38L212.59,93.22L212.55,93.03L212.54,92.86L212.57,92.70L212.59,92.64L212.62,92.59"/><path d="M212.62,92.59L212.62,92.58L212.67,92.45L212.79,92.32L212.85,92.31L212.90,92.28L212.92,92.28L212.93,92.28L212.99,92.29"/><path d="M213.20,93.71L213.28,93.74L213.29,93.74L213.37,93.72L213.39,93.72L213.41,93.71L213.45,93.67"/><path d="M213.67,93.62L213.61,93.67L213.51,93.69L213.45,93.67"/><path d="M213.89,93.57L213.80,93.63L213.74,93.64L213.67,93.62"/><path d="M213.21,92.23L213.29,92.20L213.33,92.18L213.34,92.18L213.35,92.18L213.43,92.18"/><path d="M213.66,92.13L213.60,92.12L213.55,92.13L213.51,92.15L213.47,92.16L213.43,92.18"/><path d="M213.21,92.23L213.18,92.22L213.14,92.23L213.08,92.25L213.05,92.26L213.00,92.28L212.99,92.29"/><path d="M213.66,92.13L213.76,92.08L213.80,92.07L213.88,92.08"/><path d="M214.76,93.36L214.70,93.41L214.66,93.42L214.54,93.41"/><path d="M214.32,93.46L214.43,93.47L214.47,93.47L214.54,93.41"/><path d="M214.11,93.52L214.20,93.53L214.28,93.51L214.32,93.46"/><path d="M214.11,93.52L214.01,93.58L213.97,93.58L213.89,93.57"/><path d="M214.76,93.36L214.77,93.37L214.83,93.36L214.88,93.37L214.89,93.36L214.90,93.36"/><path d="M214.10,92.03L214.18,91.98L214.26,91.96L214.32,91.97"/><path d="M213.88,92.08L213.93,92.05L213.95,92.04L213.97,92.03L214.07,92.01L214.10,92.03"/><path d="M214.32,91.97L214.39,91.93L214.44,91.92"/></g></g><g id="Actor_2.2"><g style="stroke:#000000;stroke-width:0.176"><path d="M213.44,65.44L213.55,65.40L213.64,65.28L213.68,65.08L213.68,64.85L213.63,64.60L213.53,64.35L213.40,64.16L213.24,64.03L213.08,63.98"/><path d="M213.29,63.93L213.45,63.97L213.60,64.09L213.74,64.28L213.84,64.52L213.90,64.78L213.91,65.01L213.86,65.21L213.78,65.34L213.66,65.39"/><path d="M212.72,64.40L212.78,64.28L212.86,64.22L212.96,64.22L213.01,64.24L213.06,64.27L213.16,64.38L213.24,64.54L213.30,64.71L213.33,64.90L213.32,65.07L213.27,65.20L213.20,65.29L213.11,65.33L213.01,65.30L212.90,65.22"/><path d="M213.60,65.37L213.65,65.31L213.70,65.13L213.71,64.91L213.68,64.68L213.60,64.44L213.48,64.23L213.40,64.14L213.50,64.22L213.61,64.37L213.70,64.57L213.75,64.77L213.76,64.96L213.73,65.12L213.69,65.18"/><path d="M213.50,65.19L213.54,65.03L213.53,64.84L213.49,64.63L213.40,64.44L213.29,64.28L213.17,64.18L213.03,64.14L213.03,64.14L213.13,64.19L213.16,64.20L213.26,64.31L213.28,64.34L213.37,64.49L213.39,64.52L213.45,64.70L213.46,64.74L213.49,64.93L213.49,64.97L213.48,65.14L213.48,65.17L213.44,65.27L213.50,65.19"/><path d="M213.44,65.27L213.43,65.30L213.42,65.33L213.35,65.41"/><path d="M213.68,64.68L213.70,64.79L213.69,64.78"/><path d="M213.70,64.83L213.70,64.79L213.70,64.79"/><path d="M212.74,64.33L212.75,64.31"/><path d="M213.46,64.74L213.48,64.85L213.48,64.86L213.48,64.86L213.48,64.88L213.48,64.86"/><path d="M212.77,64.29L212.77,64.28"/><path d="M213.92,65.12L213.95,65.06L213.98,64.90L213.97,64.70L213.92,64.50L213.83,64.30L213.71,64.16L213.64,64.10L213.75,64.26L213.86,64.48L213.92,64.72L213.94,64.95L213.92,65.12L213.86,65.28L213.82,65.32"/><path d="M213.64,64.10L213.63,64.08L213.48,63.97L213.36,63.93"/><path d="M213.48,64.86L213.48,64.85"/><path d="M213.44,64.68L213.43,64.65L213.40,64.56"/><path d="M213.49,64.93L213.48,64.87"/><path d="M213.61,64.48L213.65,64.58L213.66,64.63"/><path d="M213.40,64.14L213.35,64.08L213.19,63.99L213.14,63.99"/><path d="M213.03,64.14L213.02,64.14L213.01,64.13L212.90,64.15L212.89,64.15L212.80,64.22L212.79,64.24L212.77,64.29"/><path d="M213.15,63.98L213.23,63.95"/><path d="M213.89,65.34L214.01,65.28L214.09,65.15L214.13,64.94L214.12,64.71L214.05,64.45L213.95,64.21L213.81,64.03L213.65,63.91L213.49,63.88L213.36,63.93"/><path d="M213.58,63.88L213.66,63.85"/><path d="M213.70,63.83L213.86,63.85L214.02,63.96L214.16,64.14L214.27,64.38L214.33,64.63L214.35,64.87L214.31,65.08L214.23,65.22L214.12,65.28"/><path d="M213.00,64.00L213.07,63.98"/><path d="M213.58,63.88L213.63,63.88L213.78,63.97L213.85,64.04L213.93,64.09L214.04,64.24L214.13,64.43L214.19,64.64L214.20,64.83L214.17,65.00L214.13,65.08"/><path d="M213.44,63.90L213.44,63.90"/><path d="M214.62,65.17L214.61,65.17"/><path d="M213.91,63.77L214.07,63.79L214.23,63.90L214.37,64.07L214.48,64.30L214.55,64.56L214.57,64.80L214.54,65.01L214.46,65.16L214.35,65.23"/><path d="M214.32,65.22L214.26,65.21"/><path d="M214.30,65.17L214.30,65.16"/><path d="M213.80,65.33L213.78,65.34"/><path d="M213.85,64.04L213.92,64.12L214.04,64.33L214.09,64.47L214.14,64.71L214.15,64.93L214.12,65.12L214.05,65.26L214.04,65.27"/><path d="M214.35,65.03L214.40,64.93L214.42,64.76L214.40,64.57L214.34,64.36L214.25,64.17L214.14,64.03L214.08,63.99L214.18,64.13L214.29,64.36L214.31,64.43L214.37,64.66L214.37,64.89L214.34,65.08L214.26,65.21L214.26,65.21"/><path d="M214.58,65.17L214.69,65.10L214.76,64.95L214.79,64.73L214.77,64.49L214.69,64.23L214.58,64.01L214.44,63.84L214.28,63.74L214.12,63.72"/><path d="M214.43,64.11L214.46,64.11L214.35,63.97L214.29,63.94L214.38,64.05L214.50,64.27L214.57,64.51L214.60,64.74L214.58,64.95L214.52,65.11L214.47,65.16"/><path d="M214.65,64.05L214.67,64.04L214.56,63.91L214.52,63.89L214.64,64.07L214.75,64.30L214.80,64.53L214.79,64.46L214.79,64.47L214.78,64.45L214.78,64.44L214.76,64.37"/><path d="M214.80,64.53L214.82,64.75L214.78,64.96L214.71,65.10L214.69,65.11"/><path d="M214.81,65.12L214.92,65.04L214.99,64.88L215.01,64.66L214.98,64.42L214.90,64.16L214.79,63.94L214.64,63.77L214.48,63.68L214.33,63.68"/><path d="M214.79,64.93L214.79,64.93L214.84,64.80L214.82,64.81"/><path d="M214.92,64.84L214.84,64.80L214.86,64.63L214.84,64.43L214.81,64.44"/><path d="M214.91,64.42L214.84,64.43L214.77,64.22L214.67,64.04L214.73,63.99"/><path d="M214.59,64.50L214.62,64.50L214.69,64.49"/><path d="M214.47,64.97L214.40,64.93L214.37,64.94"/><path d="M214.74,65.04L214.76,65.06"/><path d="M214.53,65.11L214.52,65.10"/><path d="M214.52,64.06L214.46,64.11L214.56,64.29L214.62,64.50L214.64,64.69L214.62,64.87L214.57,64.99"/><path d="M214.37,64.66L214.35,64.58L214.33,64.48"/><path d="M214.35,64.57L214.35,64.58L214.35,64.58"/><path d="M214.79,64.46L214.78,64.44"/><path d="M214.78,64.45L214.78,64.45"/><path d="M214.98,64.32L215.01,64.43L214.95,64.19L214.84,63.96L214.73,63.83L214.76,63.85L214.88,63.98L214.86,63.98"/><path d="M214.10,63.74L214.03,63.78"/><path d="M214.60,63.63L214.54,63.63"/><path d="M214.66,63.70L214.64,63.75"/><path d="M214.24,63.81L214.22,63.87L214.25,63.89L214.29,63.94"/><path d="M214.22,63.87L214.11,63.79L214.03,63.78"/><path d="M214.08,63.99L214.05,63.96L213.91,63.85L213.80,63.83"/><path d="M214.28,63.74L214.30,63.74L214.37,63.76L214.52,63.89L214.52,63.89"/><path d="M214.47,63.67L214.56,63.69L214.71,63.80L214.73,63.83"/><path d="M214.24,63.73L214.24,63.73"/><path d="M214.30,63.74L214.25,63.72"/><path d="M215.04,65.06L215.12,65.02L215.14,65.01L215.21,64.89L215.25,64.69L215.25,64.47L215.25,64.45L215.19,64.20L215.09,63.97L215.00,63.84"/><path d="M215.46,64.35L215.46,64.37L215.46,64.36"/><path d="M214.94,63.81L215.00,63.87L215.12,64.09L215.20,64.34L215.23,64.59L215.21,64.81L215.14,64.98L215.04,65.06L214.98,65.06"/><path d="M215.40,64.22L215.41,64.27L215.45,64.52L215.43,64.74L215.37,64.91L215.27,65.01L215.15,65.01L215.23,65.02L215.25,65.01"/><path d="M215.15,65.01L215.14,65.01"/><path d="M215.57,64.88L215.50,64.95L215.38,64.97L215.36,64.96"/><path d="M214.94,63.92L214.88,63.98L214.98,64.15L215.05,64.36L215.08,64.56L215.07,64.74L215.02,64.87L215.01,64.87"/><path d="M215.14,64.77L215.07,64.74L215.04,64.74"/><path d="M215.44,64.89L215.42,64.86"/><path d="M215.45,64.77L215.47,64.75L215.51,64.61L215.48,64.61"/><path d="M215.54,64.62L215.51,64.61L215.52,64.53"/><path d="M215.23,64.83L215.24,64.81L215.29,64.67L215.30,64.49L215.27,64.29L215.20,64.09L215.10,63.91L215.05,63.87"/><path d="M215.26,64.68L215.29,64.67L215.36,64.71"/><path d="M215.22,64.95L215.19,64.92"/><path d="M214.99,65.00L214.97,64.98"/><path d="M215.03,64.37L215.05,64.36L215.13,64.35"/><path d="M214.91,65.06L214.95,65.03L215.01,64.88L215.04,64.67L215.02,64.44L215.01,64.43"/><path d="M215.20,64.26L215.21,64.30L215.24,64.41"/><path d="M215.46,64.37L215.46,64.38L215.48,64.61L215.44,64.82L215.37,64.95L215.34,64.98L215.27,65.01"/><path d="M215.50,64.95L215.58,64.93"/><path d="M215.23,65.02L215.20,65.01L215.23,65.02"/><path d="M215.00,64.37L215.00,64.37"/><path d="M215.07,63.92L215.10,63.91L215.11,63.90"/></g><g style="stroke:#000000;stroke-width:0.529"><path d="M213.35,65.41L213.35,65.41L213.32,65.43L213.23,65.44L213.21,65.44L213.10,65.40L213.07,65.37L212.90,65.22L212.81,65.08L212.74,64.92L212.70,64.73L212.69,64.55L212.72,64.40L212.74,64.33L212.77,64.29"/><path d="M213.60,65.37L213.56,65.41L213.54,65.42L213.52,65.42L213.44,65.44L213.43,65.44L213.35,65.41"/><path d="M213.82,65.32L213.76,65.36L213.66,65.39L213.60,65.37"/><path d="M212.77,64.29L212.77,64.28L212.82,64.15L212.94,64.02L213.00,64.00"/><path d="M213.14,63.99L213.08,63.98L213.07,63.98L213.05,63.98L213.00,64.00"/><path d="M213.80,63.83L213.75,63.82L213.70,63.83L213.66,63.85L213.62,63.86L213.58,63.88"/><path d="M213.36,63.93L213.44,63.90L213.48,63.88L213.49,63.88L213.49,63.88L213.58,63.88"/><path d="M213.14,63.99L213.15,63.98L213.20,63.96L213.23,63.95L213.29,63.93L213.33,63.92L213.36,63.93"/><path d="M214.26,65.21L214.16,65.27L214.12,65.28L214.04,65.27"/><path d="M213.82,65.32L213.89,65.34L213.95,65.33L214.04,65.27"/><path d="M214.26,65.21L214.35,65.23L214.43,65.20L214.47,65.16"/><path d="M214.69,65.11L214.62,65.17L214.58,65.17L214.47,65.16"/><path d="M214.91,65.06L214.85,65.11L214.81,65.12L214.69,65.11"/><path d="M214.25,63.72L214.33,63.68L214.40,63.66L214.47,63.67"/><path d="M214.03,63.78L214.08,63.75L214.10,63.74L214.12,63.72L214.22,63.71L214.25,63.72"/><path d="M213.80,63.83L213.91,63.77L213.95,63.77L214.03,63.78"/><path d="M214.59,63.62L214.54,63.63L214.47,63.67"/><path d="M215.04,65.06L215.04,65.06L215.03,65.07L214.98,65.06L214.92,65.06L214.91,65.06"/></g></g><g id="Actor_1.0"><g style="stroke:#000000;stroke-width:0.176"><path d="M233.73,121.44L232.81,121.66L232.79,126.90L232.80,127.13L232.86,127.36L232.96,127.56L233.07,127.73L233.20,127.83L234.24,128.39L234.24,129.86L234.17,129.81L234.03,129.79L233.92,129.86L233.83,130.00L233.78,130.19L233.78,130.27L233.78,130.43L233.83,130.67L233.91,130.90L234.03,131.09L234.16,131.22L234.23,131.25L234.22,132.07L234.16,132.76L233.97,133.33L233.68,133.73L233.31,133.92L232.89,133.90L232.46,133.67L232.04,133.24L231.67,132.64L231.39,131.94L231.21,131.17L231.15,130.42L231.21,118.74L231.28,118.06L231.47,117.49L231.75,117.09L232.12,116.90L232.55,116.92L232.97,117.14L232.79,117.70L232.72,118.39L231.21,118.74"/><path d="M231.15,130.42L232.66,130.06L232.72,118.39"/><path d="M233.77,116.88L233.91,116.91L234.02,116.88L234.09,116.80L233.77,116.88L231.02,115.39L230.89,115.36"/><path d="M231.02,115.39L234.21,114.63"/><path d="M231.49,66.28L231.55,67.04L231.73,67.80L232.01,68.51L232.38,69.10L232.80,69.53L233.23,69.77L233.65,69.79L234.02,69.59L234.32,69.18L233.89,68.74L233.52,68.15L233.24,67.44L233.22,67.38L233.06,66.68L233.00,65.92L231.49,66.28L231.55,54.61L231.62,53.92L231.80,53.35L232.09,52.95L232.46,52.76L232.89,52.78L233.31,53.01L233.13,53.56L233.06,54.25L233.00,65.92"/><path d="M231.55,54.61L233.06,54.25"/><path d="M243.09,51.35L235.07,53.25L231.36,51.26L233.87,50.66"/><path d="M231.36,51.26L231.23,51.22"/><path d="M232.66,130.06L232.72,130.82L232.88,131.48L232.90,131.58L233.18,132.28L233.55,132.88L233.98,133.32"/><path d="M232.79,126.90L234.25,126.55"/><path d="M232.81,121.66L232.83,121.45L232.90,121.28L232.99,121.18L233.11,121.15L233.24,121.18L234.28,121.74L234.25,127.59L233.20,127.83"/><path d="M232.97,117.14L233.40,117.58L233.77,118.18L234.04,118.86L233.97,118.89L233.89,119.04L233.84,119.23L233.84,119.46L233.88,119.70L233.97,119.93L234.08,120.12L234.22,120.25L234.28,120.28L234.29,120.40L234.28,121.74"/><path d="M234.59,62.41L233.12,62.76L233.14,62.99L233.20,63.22L233.30,63.43L233.41,63.59L233.54,63.70L234.58,64.26"/><path d="M233.54,63.70L234.59,63.45"/><path d="M233.12,62.76L233.15,57.52L233.17,57.32L233.23,57.15L233.33,57.05L233.45,57.01L233.58,57.04L234.62,57.61L234.56,67.94L234.50,68.63L234.32,69.18"/><path d="M233.15,57.52L234.07,57.31"/><path d="M234.62,57.61L234.63,56.26L234.62,56.14L234.56,56.12L234.42,55.99L234.31,55.80L234.22,55.57L234.18,55.32L234.18,55.09L234.23,54.89L234.31,54.75L234.38,54.72L234.11,54.04L233.74,53.45L233.31,53.01"/><path d="M234.63,135.54L235.07,53.25"/><path d="M234.23,131.25L234.24,129.86"/><path d="M234.24,128.39L234.25,127.59"/><path d="M234.28,120.28L234.23,119.64L234.04,118.86"/><path d="M234.09,116.80L234.12,116.77L234.18,116.61L234.20,116.40L234.21,114.57"/><path d="M234.57,67.11L234.50,67.08L234.37,66.95L234.25,66.76L234.16,66.53L234.12,66.26L234.12,66.05L234.17,65.86L234.25,65.72L234.37,65.66L234.51,65.67L234.58,65.72"/><path d="M234.62,56.14L234.57,55.51L234.38,54.72"/><path d="M240.63,51.52L237.05,52.37L234.92,51.22"/><path d="M237.20,51.14L237.06,51.11L236.85,51.10L236.65,51.11L236.55,51.13"/></g><g style="stroke:#000000;stroke-width:0.529"><path d="M234.21,114.57L230.89,115.36L230.77,115.39L230.68,115.50L230.61,115.67L230.59,115.87L230.50,132.61L230.52,132.84L230.58,133.07L230.68,133.27L230.79,133.44L230.92,133.54L234.63,135.54L242.65,133.63L243.09,51.35L242.56,51.06L240.63,51.52"/><path d="M234.92,51.22L233.87,50.66L233.74,50.62L231.11,51.26L231.01,51.36L230.95,51.53L230.93,51.73L230.84,68.47L230.86,68.70L230.92,68.93L231.01,69.13L231.13,69.30L231.26,69.40L234.02,70.89L234.15,70.99L234.27,71.16L234.36,71.37L234.42,71.59L234.44,71.82L234.21,114.57"/></g></g><g/><g><g/><g><path style="fill:#ffffff" d="M31.40,15.34L80.47,15.34L80.47,26.63L31.40,26.63z"/><text xml:space="preserve" fill="#000000" stroke-width="0" x="32.81" y="23.10" font-size="6.88" opacity="1.00" font-family="MS Shell Dlg">0010-ASM-001</text></g></g><g><g/><g><path style="fill:#ffffff" d="M6.53,180.00L136.05,180.00L136.05,199.05L6.53,199.05z"/><text xml:space="preserve" fill="#000000" stroke-width="0" x="7.59" y="185.82" font-size="5.18" opacity="1.00" font-family="MS Shell Dlg">a) Insert Door latch head in the slot so that the head will</text><text xml:space="preserve" fill="#000000" stroke-width="0" x="7.59" y="191.11" font-size="5.17" opacity="1.00" font-family="MS Shell Dlg">protrude from the Door internal catcher.</text><text xml:space="preserve" fill="#000000" stroke-width="0" x="7.59" y="196.40" font-size="5.17" opacity="1.00" font-family="MS Shell Dlg">b) Tighten the head to the catcher</text></g></g><g><g/><g><path style="fill:#ffffff" d="M168.00,180.00L286.84,180.00L286.84,193.76L168.00,193.76z"/><text xml:space="preserve" fill="#000000" stroke-width="0" x="169.06" y="185.82" font-size="5.18" opacity="1.00" font-family="MS Shell Dlg">a) 将门锁头插入槽中，使 头从门内部固定器中伸 出。</text><text xml:space="preserve" fill="#000000" stroke-width="0" x="169.06" y="191.11" font-size="5.16" opacity="1.00" font-family="MS Shell Dlg">b) 将头部拧紧到捕手上</text></g></g><g><g/><g><image x="82.357201" y="12.409999" height="15.000001" width="15.000001" xlink:href="22_files/a0658b9d9e49399e_image_0.jpg"/></g></g><g><g/><g><image x="14.945761" y="13.167144" height="15.000001" width="15.000001" xlink:href="22_files/a0658b9d9e49399e_image_1.jpg"/></g></g><g id="paperID" visibility="hidden" opacity="0.00" transform="scale(0.000100)"><path style="stroke:#000000;stroke-width:0.500;fill:#e6e6e6;fill-rule:evenodd" d="M-2000.00,-2000.00L2297.00,-2000.00L2297.00,2210.00L-2000.00,2210.00zM0.00,0.00L297.00,0.00L297.00,210.00L0.00,210.00z"/><path style="fill:#000000;fill-opacity:0.118" d="M3.00,210.00L297.00,210.00L297.00,3.00L300.00,3.00L300.00,213.00L3.00,213.00z"/></g><g id="hotspot.0" ident="" onmouseover="ShowHotSpot(evt,&apos;0&apos;)" onmouseout="HideHotSpot(evt,&apos;0&apos;)" onmousemove="ShowToolTip(evt,&apos;0&apos;,&quot;Copy 1 of Copy 1 of  6&quot;)" opacity="0"><a xlink:href="23.svg"><path style="fill:#00ff00;fill-rule:evenodd" d="M97.22,27.07L82.40,27.07L82.40,12.25L97.22,12.25z"/></a></g><g id="hotspot.1" ident="" onmouseover="ShowHotSpot(evt,&apos;1&apos;)" onmouseout="HideHotSpot(evt,&apos;1&apos;)" onmousemove="ShowToolTip(evt,&apos;1&apos;,&quot;Copy 1 of Copy 1 of Copy 1 of  6&quot;)" opacity="0"><a xlink:href="21.svg"><path style="fill:#00ff00;fill-rule:evenodd" d="M29.90,27.92L15.08,27.92L15.08,13.10L29.90,13.10z"/></a></g><g id="hotspot.2" ident="" onmouseover="ShowHotSpot(evt,&apos;2&apos;)" onmouseout="HideHotSpot(evt,&apos;2&apos;)" onmousemove="ShowToolTip(evt,&apos;2&apos;,&quot;0038_Door internal-hinges&quot;)" opacity="0"><path style="fill:#00ff00;fill-rule:evenodd" d="M236.35,51.88L238.27,51.87L241.95,51.01L242.88,50.99L242.88,98.90L242.59,133.41L236.01,135.03L234.09,135.03L231.01,133.31L230.72,133.03L230.71,115.30L234.03,114.38L234.41,71.36L233.84,70.51L231.55,69.41L230.97,68.86L230.98,51.09L233.83,50.42z"/></g><g id="hotspot.3" ident="" onmouseover="ShowHotSpot(evt,&apos;3&apos;)" onmouseout="HideHotSpot(evt,&apos;3&apos;)" onmousemove="ShowToolTip(evt,&apos;3&apos;,&quot;0578_Door internal catcher_V2&quot;)" opacity="0"><path style="fill:#00ff00;fill-rule:evenodd" d="M209.25,38.25L208.93,104.28L208.65,114.74L205.45,115.50L203.55,115.51L201.02,114.08L201.01,88.15L201.31,77.33L201.86,77.43L201.86,70.79L201.31,70.89L201.28,34.67L201.59,34.02zM203.29,54.67L203.19,56.40L202.16,56.39L201.84,55.84L201.77,53.82L202.74,53.81zM208.11,74.19L208.11,75.15L207.71,75.90L206.09,75.92L205.55,75.62L205.45,74.20L206.57,73.62L207.53,73.61zM203.01,93.42L203.00,95.25L201.87,95.13L201.56,94.59L201.57,92.66L202.44,92.55z"/></g><g id="hotspot.4" ident="" onmouseover="ShowHotSpot(evt,&apos;4&apos;)" onmouseout="HideHotSpot(evt,&apos;4&apos;)" onmousemove="ShowToolTip(evt,&apos;4&apos;,&quot;0579_Door edge_V2&quot;)" opacity="0"><path style="fill:#00ff00;fill-rule:evenodd" d="M241.22,50.76L241.21,51.07L238.27,51.87L236.35,51.88L233.83,50.42L232.12,50.46L201.20,33.84L201.28,32.69L201.75,32.04L204.04,31.49L205.27,31.48zM203.55,115.51L205.45,115.50L208.00,114.94L209.23,114.92L230.46,126.50L230.46,130.86L200.92,115.02L201.02,114.06zM206.16,32.89L206.04,33.47L203.53,33.47L203.53,32.72L205.86,32.59z"/></g><g id="hotspot.5" ident="" onmouseover="ShowHotSpot(evt,&apos;5&apos;)" onmouseout="HideHotSpot(evt,&apos;5&apos;)" onmousemove="ShowToolTip(evt,&apos;5&apos;,&quot;0078_Door front&quot;)" opacity="0"><path style="fill:#00ff00;fill-rule:evenodd" d="M242.31,50.72L241.97,51.05L241.40,51.10L240.63,50.43L205.22,31.46L205.16,31.19L206.12,31.19zM232.17,50.48L232.17,50.80L230.98,51.09L230.74,63.26L220.83,58.07L218.46,58.08L217.61,58.36L216.45,59.46L215.43,61.58L214.88,61.49L213.35,61.74L212.88,62.39L212.88,63.84L214.63,63.47L215.50,64.02L215.45,64.66L213.63,65.17L213.72,65.70L214.05,65.98L214.90,66.83L214.90,89.83L214.23,89.75L212.89,90.42L212.88,92.13L214.60,91.71L215.46,92.86L213.43,93.54L213.44,93.99L214.86,94.87L216.00,98.54L217.45,101.61L219.42,103.88L230.72,110.12L234.14,112.08L234.03,114.38L230.71,115.30L230.46,126.34L208.85,114.74L209.22,50.82L209.50,38.25z"/></g><g id="hotspot.6" ident="" onmouseover="ShowHotSpot(evt,&apos;6&apos;)" onmouseout="HideHotSpot(evt,&apos;6&apos;)" onmousemove="ShowToolTip(evt,&apos;6&apos;,&quot;0109_printer door window&quot;)" opacity="0"><path style="fill:#00ff00;fill-rule:evenodd" d="M230.74,63.43L230.97,68.86L231.55,69.41L233.84,70.51L234.41,71.36L234.14,111.91L219.71,104.17L217.70,101.93L216.00,98.54L214.86,94.87L213.44,93.99L213.43,93.54L215.46,92.86L214.60,91.71L212.88,92.13L212.89,90.42L214.23,89.75L214.90,89.83L214.90,66.83L214.05,65.98L213.72,65.70L213.63,65.17L215.45,64.66L215.50,64.02L214.63,63.47L212.88,63.84L212.88,62.39L213.35,61.74L214.88,61.49L215.43,61.58L216.45,59.46L217.61,58.36L218.46,58.08L220.83,58.07z"/></g><g id="hotspot.7" ident="" onmouseover="ShowHotSpot(evt,&apos;7&apos;)" onmouseout="HideHotSpot(evt,&apos;7&apos;)" onmousemove="ShowToolTip(evt,&apos;7&apos;,&quot;0202_Door latch head&quot;)" opacity="0"><path style="fill:#00ff00;fill-rule:evenodd" d="M201.02,73.19L201.31,70.87L201.86,70.78L201.86,77.44L201.30,77.35L201.01,75.88L200.16,75.94L199.61,75.61L199.56,73.41L199.81,73.05z"/></g><g id="hotspot.8" ident="" onmouseover="ShowHotSpot(evt,&apos;8&apos;)" onmouseout="HideHotSpot(evt,&apos;8&apos;)" onmousemove="ShowToolTip(evt,&apos;8&apos;,&quot;0250_M4X8 socket countersunk head screw&quot;)" opacity="0"><path style="fill:#00ff00;fill-rule:evenodd" d="M206.16,32.89L206.04,33.47L203.53,33.47L203.53,32.72L205.86,32.59zM203.29,54.67L203.19,56.40L202.16,56.39L201.84,55.84L201.77,53.82L202.74,53.81zM203.01,93.42L203.00,95.25L201.87,95.13L201.56,94.59L201.57,92.66L202.44,92.55z"/></g><g id="hotspot.9" ident="" onmouseover="ShowHotSpot(evt,&apos;9&apos;)" onmouseout="HideHotSpot(evt,&apos;9&apos;)" onmousemove="ShowToolTip(evt,&apos;9&apos;,&quot;0253_M4X10 socket head cap screw&quot;)" opacity="0"><path style="fill:#00ff00;fill-rule:evenodd" d="M208.11,74.19L208.11,75.15L207.71,75.90L206.09,75.92L205.55,75.62L205.45,74.20L206.57,73.62L207.53,73.61z"/></g><g id="ToolTip" visibility="hidden" opacity="0" transform="translate(0,0)"><rect id="ToolTipShadow" opacity="0.20" fill="black" stroke="none" x="0" y="0" width="30" height="8"/><rect id="ToolTipBG" fill="#ffffe1" stroke="black" x="0" y="0" width="30" height="8"/><text xml:space="preserve" id="ToolTipText" fill="black" x="0" y="0" width="30" height="8">tooltip</text></g></g></svg>