<?xml version="1.0" encoding="UTF-8" standalone="yes"?><svg xmlns="http://www.w3.org/2000/svg" xmlns:xlink="http://www.w3.org/1999/xlink" width="297.000mm" height="210.000mm" viewBox="0.000000 0.000000 297.000000 210.000000" stroke-linejoin="round" stroke-linecap="round" fill="none" fill-rule="evenodd"><desc>Composer Export</desc><script type="text/ecmascript"><![CDATA[
if(typeof(top) != "undefined")
{
	top.ShowPaper = ShowPaper;
}
function ShowHotSpot(evt,hotspotid)
{
	var svgDocument = evt.target.ownerDocument;
	var strId = "hotspot."+hotspotid;
	var hotspot = svgDocument.getElementById(strId);
	if(hotspot)
		hotspot.setAttribute("opacity",".5");
}
function HideHotSpot(evt,hotspotid)
{
	var svgDocument = evt.target.ownerDocument;
	var strId = "hotspot."+hotspotid;
	var hotspot = svgDocument.getElementById(strId);
	if(hotspot)
		hotspot.setAttribute("opacity","0");

	var toolTip = svgDocument.getElementById('ToolTip');
	if(toolTip)
		toolTip.setAttribute("visibility","hidden");
}
function ShowToolTip(evt,hotspotid,strTooltip)
{
	if(strTooltip=="")
	return;

	// change text
	var svgDocument = evt.target.ownerDocument;
	var tiptext = svgDocument.getElementById('ToolTipText');
	if( !tiptext )
	return;
	tiptext.firstChild.nodeValue = " " + strTooltip + "  " ;

	// show tooltip before, else some refresh issue

	var toolTip = svgDocument.getElementById('ToolTip');
	if(!toolTip)
	return;

	toolTip.setAttribute("visibility","visible");
	toolTip.setAttribute("opacity",".95");

	// move tooltip
	// get viewbox

	var root = svgDocument.documentElement;
	var vbox = (root.getAttribute("viewBox")).split(' ');
	var x0 = parseFloat(vbox[0]);
	var y0 = parseFloat(vbox[1]);
	var vboxW = parseFloat(vbox[2]);
	var vboxH = parseFloat(vbox[3]);

	// get default width of svg

	var strW = root.getAttribute("width");
	var svgW = parseFloat(strW);
	if(strW.indexOf('mm') != -1)
	svgW *= 3.779;

	var strH = root.getAttribute("height");
	var svgH = parseFloat(strH);
	if(strH.indexOf('mm') != -1)
	svgH *= 3.779;  	// 96 dpi  -> 96/25.4 = 3.779

	// update the viewbox / width / height if svg is embedded in html with zoom fit all
	var realx0 = x0;
	var realy0 = y0;
	var realvboxW = vboxW;
	var realvboxH = vboxH;
	var realsvgW = svgW;
	var realsvgH = svgH;

	if ((typeof(top) == "undefined") || (typeof(top.svgctl1) != "undefined")) // embedded in html
	{
		// get window size in pxl

		svgW = window.innerWidth;
		svgH = window.innerHeight;

		// calculate real viewbox

		realsvgW = svgW;
		realsvgH = svgH;
		if((svgW / svgH) > (vboxW / vboxH))
		{
			realvboxW = (vboxH * svgW) / svgH;
			realvboxH = vboxH;
			realx0 = x0 - (realvboxW - vboxW)/2 ;
		}
		else
		{
			realvboxH = (vboxW * svgH) / svgW;
			realvboxW = vboxW;
			realy0 = y0 - (realvboxH - vboxH)/2 ;
		}
	}

	// get user zoom/pan

	var newScale = root.currentScale;
	var translation = root.currentTranslate;

	// transform pxl to user unit

	var xPos = (((evt.clientX+10- translation.x)/newScale) * realvboxW)/realsvgW  + realx0 ;
	var yPos = (((evt.clientY+5- translation.y)/newScale) * realvboxH)/ realsvgH  + realy0 ;
	var scaleForWidth = ( (1 / newScale) * realvboxH) / realsvgH;

	// move tooltip

	toolTip.setAttribute("transform", "translate(" + xPos + "," + yPos + ")" );

	// resize tooltip

	var fontsize = 12;
	tiptext.setAttribute("font-size",fontsize*scaleForWidth);
	tiptext.setAttribute("y", fontsize*scaleForWidth);
	var tipBG = svgDocument.getElementById('ToolTipBG');
	var outline = tiptext.getBBox();
	if(tipBG)
	{
		tipBG.setAttribute("stroke-width", 1*scaleForWidth);
		tipBG.setAttribute("width", Number(outline.width) );
		tipBG.setAttribute("height", Number(outline.height) + fontsize*.5*scaleForWidth );
	}
	var ToolTipShadow = svgDocument.getElementById('ToolTipShadow');
	if(ToolTipShadow)
	{
		ToolTipShadow.setAttribute("width", Number(outline.width) );
		ToolTipShadow.setAttribute("height", Number(outline.height) + fontsize*.5*scaleForWidth );
		ToolTipShadow.setAttribute("x", 3*scaleForWidth);
		ToolTipShadow.setAttribute("y", 3*scaleForWidth);
	}
}
function ShowPaper()
{
  var svgDocument = getDocument();
  var paper = svgDocument.getElementById("paperID");
  if(paper)
  {
    paper.setAttribute("transform","scale(1)");
    paper.setAttribute("opacity","1");
    paper.setAttribute("visibility","visible");
  }
  var svg = svgDocument.getRootElement();
  if(svg)
  {
    svg.setAttribute("width","307.000mm");
    svg.setAttribute("height","220.000mm");
    svg.setAttribute("viewBox","-5.000000 -5.000000 307.000000 220.000000");
  }
}
]]></script><defs/><g><path style="fill:#ffffff" d="M297.00,210.08L0.07,210.08L0.07,0.07L297.00,0.07z"/><path style="fill:#e5e5e5" d="M173.00,28.89L177.52,33.88L177.51,55.52L177.02,96.12L171.02,100.15L170.42,100.39L170.66,53.44L171.00,26.86z"/><path style="fill:#e5e5e5" d="M223.32,78.06L223.86,77.07L224.15,76.92L224.24,77.14L224.13,77.66L223.83,78.03L223.89,79.64L223.32,79.00z"/><path style="fill:#ffffff" d="M176.78,59.45L176.42,60.45L175.15,61.94L172.67,63.47L171.74,63.46L171.42,62.94L172.15,61.42L172.33,61.34L172.78,61.60L173.00,61.97L173.93,61.97L174.90,61.44L176.02,60.04L175.84,59.03L176.24,58.91z"/><path style="fill:#e5d9d0" d="M172.78,61.60L173.08,60.67L175.15,59.18L175.84,59.03L176.02,60.04L174.90,61.44L173.93,61.97L173.00,61.97z"/><path style="fill:#01ff02" d="M243.91,27.88L244.66,27.89L244.69,28.27L244.36,28.70L244.37,29.48L244.80,28.51L245.14,28.64L245.15,29.48L244.23,31.40L243.89,31.48L243.80,30.92L243.91,30.15L243.82,30.14L228.11,66.30L226.84,69.54L225.88,73.55L224.59,73.28L224.24,77.14L224.15,76.92L224.35,72.31L225.03,69.23L226.85,64.79L242.83,28.17L243.34,27.63L243.62,27.60z"/><path style="fill:#e5e5e5" d="M169.12,18.02L168.47,18.93L168.50,20.56L167.99,20.39L167.97,18.93L168.89,17.86z"/><path style="fill:#0000ff" d="M187.90,58.88L187.55,58.97L187.17,59.44L186.80,59.48L185.79,60.29L185.36,61.06L184.78,60.69L184.50,60.22L184.44,59.21L185.35,58.56L186.80,57.68z"/><path style="fill:#0000ff" d="M187.61,84.87L187.04,85.38L186.42,85.52L185.51,86.58L185.10,87.11L184.28,86.49L184.27,85.33L185.16,84.68L185.80,84.36L186.19,83.96L186.78,83.96z"/><path style="fill:#fff2e8" d="M172.76,18.85L172.76,20.47L172.51,20.97L171.35,21.60L170.06,21.61L169.25,21.37L168.50,20.56L168.47,18.93L169.12,18.02L171.51,17.85z"/><path style="fill:#fff2e8" d="M167.26,40.39L168.27,41.82L168.16,41.92L168.63,43.35L168.51,43.51L167.49,43.41L166.23,41.92L165.49,40.33L165.90,39.63L166.31,39.51z"/><path style="fill:#fff2e8" d="M175.29,60.53L174.66,61.20L173.91,61.29L173.98,60.81L174.93,59.90L175.26,59.94z"/><path style="fill:#fff2e8" d="M172.33,61.34L172.92,60.70L173.08,60.67L172.78,61.60z"/><path style="fill:#fff2e8" d="M166.50,75.71L168.13,78.14L168.29,78.91L168.16,79.52L167.51,79.49L166.75,78.97L165.24,76.41L165.79,75.44z"/><path style="fill:#fff2e8" d="M227.62,77.23L228.34,78.71L228.10,79.57L227.04,80.51L225.68,80.61L224.93,80.46L224.12,79.99L223.89,79.64L223.83,78.03L224.13,77.66L224.59,79.57L225.32,79.50L225.57,79.82L225.81,79.84L226.28,79.24L226.59,79.06L226.92,76.85z"/><path style="fill:#0000e5" d="M188.33,59.19L188.29,59.51L186.86,60.41L185.96,60.99L185.36,61.06L185.79,60.29L186.80,59.48L187.17,59.44L187.55,58.97L187.90,58.88z"/><path style="fill:#0000e5" d="M188.08,85.25L188.04,85.56L186.63,86.48L186.43,86.50L185.94,87.00L185.10,87.11L185.51,86.58L186.42,85.52L187.04,85.38L187.61,84.87z"/><path style="fill:#e5d9d0" d="M170.84,19.27L169.97,19.71L169.97,19.21L170.77,19.13z"/><path style="fill:#e5d9d0" d="M168.77,42.94L168.63,43.35L168.16,41.92L168.27,41.82z"/><path style="fill:#e5d9d0" d="M168.29,78.91L168.13,78.14L168.25,78.23z"/><path style="fill:#01e502" d="M244.80,28.51L244.37,29.48L244.36,28.70L244.69,28.27z"/><path style="fill:#01e502" d="M243.42,28.97L242.96,29.56L243.12,28.67L243.41,28.40z"/><path style="fill:#01e502" d="M242.88,30.24L242.80,29.68L242.96,29.56z"/><path style="fill:#01e502" d="M243.80,30.92L243.89,31.48L244.23,31.40L228.60,67.29L227.09,71.80L226.92,76.85L226.59,79.06L226.28,79.24L225.81,79.84L225.57,79.82L225.32,79.50L224.59,79.57L224.13,77.66L224.24,77.14L224.59,73.28L225.88,73.55L226.84,69.54L228.11,66.30L243.82,30.14L243.91,30.15z"/><path style="fill:#e2e9ed" d="M166.26,55.41L166.27,55.84L166.00,58.04L165.65,58.46L164.74,58.46L163.49,59.79L163.27,61.38L162.73,60.95L162.73,58.53L163.88,57.72L164.50,57.58L165.00,57.04L165.21,54.97L165.50,54.68z"/><path style="fill:#e2e9ed" d="M165.01,60.63L165.76,60.21L165.76,61.66L165.21,61.23z"/><path style="fill:#e2e9ed" d="M221.62,79.71L222.61,80.97L224.94,83.20L225.61,83.99L228.51,83.98L233.17,80.92L233.58,81.09L233.72,80.90L234.72,80.31L235.15,80.25L235.39,80.44L235.91,81.17L224.27,88.76L224.09,95.60L223.42,164.76L223.11,164.67L222.11,163.38L219.36,160.62L218.11,159.12L216.56,157.40L216.58,140.93L222.62,136.95L222.88,131.25L222.86,104.52L220.36,101.76L218.35,99.76L217.06,98.04L217.01,81.75L218.16,80.94L220.86,79.23z"/><path style="fill:#e87008" d="M187.05,54.42L189.30,56.70L189.92,56.70L191.45,55.93L192.28,55.93L195.04,57.20L198.32,59.93L199.57,61.43L206.08,68.19L207.33,69.70L210.09,72.45L211.34,73.96L214.10,76.71L215.35,78.21L218.16,80.94L217.01,81.75L217.06,98.04L218.35,99.76L220.36,101.76L222.86,104.52L222.88,131.25L221.11,129.56L219.86,128.06L217.10,125.31L215.85,123.80L209.34,117.04L208.09,115.53L205.33,112.78L204.08,111.28L197.56,104.52L194.06,100.26L191.78,96.78L189.27,91.76L187.78,87.75L186.63,86.48L188.04,85.56L188.08,85.25L187.61,84.87L186.78,83.96L186.19,83.96L185.80,84.36L185.16,84.68L184.26,83.25L184.01,82.51L184.02,81.07L185.78,79.99L186.53,80.24L187.79,81.33L188.03,75.31L188.04,62.19L186.86,60.41L188.29,59.51L188.33,59.19L187.90,58.88L186.80,57.68L185.35,58.56L184.25,56.46L184.20,54.95L185.94,53.91L186.27,53.91z"/><path style="fill:#cdd1d5" d="M165.65,58.46L166.00,58.04L166.27,55.84L166.23,61.82L165.76,61.66L165.76,60.21L165.01,60.63L164.16,61.48L163.41,61.56L163.27,61.38L163.49,59.79L164.74,58.46z"/><path style="fill:#cdd1d5" d="M220.08,85.26L220.33,95.52L220.88,97.37L219.37,98.40L218.77,98.62L218.07,97.04L218.08,86.33L218.24,84.74L219.35,84.74z"/><path style="fill:#cdd1d5" d="M222.63,88.72L223.35,90.89L220.98,92.51L220.59,92.54L220.51,86.97L220.82,86.95z"/><path style="fill:#cdd1d5" d="M222.86,96.54L222.86,96.83L222.35,97.14L222.35,96.23z"/><path style="fill:#cdd1d5" d="M219.60,144.59L219.82,154.90L220.34,156.70L218.35,157.98L217.57,156.40L217.56,144.43L217.99,143.82L218.59,143.83z"/><path style="fill:#cdd1d5" d="M220.60,146.35L222.13,148.08L222.60,149.12L222.62,150.23L220.84,151.45L220.01,151.73L220.09,146.09z"/><path style="fill:#cdd1d5" d="M222.37,155.84L222.27,156.15L221.74,156.22L221.74,155.62L222.11,155.58z"/><path style="fill:#cdd1d5" d="M235.37,154.71L235.11,157.21L225.13,163.76L223.42,164.76L224.09,95.60L224.27,88.76L235.91,81.17z"/><path style="fill:#d06407" d="M186.29,57.18L186.20,57.46L185.69,57.55L185.78,56.66z"/><path style="fill:#d06407" d="M186.08,83.23L186.03,83.56L185.53,83.86L185.44,82.97L185.78,82.93z"/><path style="fill:#e5e5e5" d="M166.31,39.51L165.90,39.63L165.49,40.33L165.47,39.48z"/><path style="fill:#e5e5e5" d="M165.24,76.41L165.14,75.46L165.79,75.44z"/><path style="fill:#e5e5e5" d="M234.72,80.31L233.72,80.90L233.79,80.52L234.63,80.01z"/><path style="fill:#e5e5e5" d="M228.51,83.23L233.14,80.23L233.17,80.92L228.51,83.98L225.61,83.99L224.94,83.20z"/><g id="Actor_7.0"><g style="stroke:#000000;stroke-width:0.176"><path d="M172.89,19.44L172.77,20.07L172.41,20.63L171.85,21.06L171.16,21.31L170.40,21.37L169.67,21.21L169.03,20.86L168.56,20.36L168.31,19.77L168.30,19.13"/><path d="M171.75,21.28L171.16,21.50L170.40,21.55L169.66,21.40L169.40,21.26"/><path d="M169.74,19.55L170.26,20.11L170.51,20.08L171.11,20.01L171.43,19.35L170.90,18.79L170.05,18.88L169.74,19.55"/><path d="M170.47,20.08L169.93,19.64L170.07,19.48L170.28,19.37L170.47,19.33L170.90,19.28L171.16,19.56L171.26,19.70"/><path d="M169.93,19.64L169.89,19.70L169.89,19.71"/><path d="M169.89,19.70L170.05,19.37L170.47,19.33L170.51,19.32L170.76,19.34L170.98,19.42L171.16,19.56L171.27,19.67"/><path d="M170.05,19.37L170.05,18.88"/><path d="M170.90,19.28L170.90,18.79"/><path d="M170.98,19.42L170.63,20.06"/><path d="M170.78,20.05L171.23,19.77"/></g><g style="stroke:#000000;stroke-width:0.529"><path d="M169.40,21.26L169.03,21.05L168.56,20.55L168.31,19.96L168.30,19.32L168.30,19.13L168.55,18.53L169.01,18.03L169.65,17.68L170.38,17.53L171.14,17.58L171.84,17.83L172.40,18.26L172.76,18.82L172.89,19.44L172.89,19.63L172.77,20.26L172.41,20.82L171.85,21.25L171.75,21.28"/></g></g><g id="Actor_7.1"><g style="stroke:#000000;stroke-width:0.176"><path d="M228.28,78.46L228.16,79.09L227.80,79.64L227.24,80.07L226.55,80.33L225.79,80.38L225.05,80.23L224.42,79.88L223.95,79.38L223.70,78.78L223.69,78.15"/><path d="M226.45,79.03L225.88,79.10"/><path d="M226.74,78.52L226.82,78.36L226.74,78.29"/></g><g style="stroke:#000000;stroke-width:0.529"><path d="M224.17,77.29L223.94,77.55L223.69,78.15L223.69,78.31"/><path d="M228.28,78.62L228.28,78.46L228.15,77.84L227.79,77.28L227.23,76.85L226.76,76.68"/></g></g><g id="Actor_7.2"><g style="stroke:#000000;stroke-width:0.176"><path d="M165.51,75.49L165.80,75.47L166.19,75.65L166.65,76.03L167.12,76.57L167.55,77.19L167.89,77.84L168.11,78.45L168.14,78.61L168.19,78.95L168.11,79.28"/><path d="M166.30,77.19L166.30,76.71L166.76,76.96L167.22,77.68L167.22,78.16L166.76,77.91L166.30,77.19L166.70,76.93"/><path d="M166.76,77.91L167.18,77.63"/></g><g style="stroke:#000000;stroke-width:0.529"><path d="M168.42,78.92L168.38,79.10L168.11,79.28L167.88,79.41L167.53,79.33L167.10,79.05L166.64,78.58L166.18,78.00L165.79,77.35L165.50,76.71L165.35,76.15L165.35,75.73L165.51,75.49L165.78,75.32L166.06,75.29"/></g></g><g id="Actor_11.0"><g style="stroke:#000000;stroke-width:0.176"><path d="M216.32,149.74L164.23,94.33"/></g><g style="stroke:#000000;stroke-width:0.529"><path d="M216.31,150.55L164.22,95.15L164.23,94.33L164.40,93.17"/><path d="M218.12,139.68L177.06,96.00"/></g></g><g id="Actor_3.0"><g style="stroke:#000000;stroke-width:0.176"><path d="M184.25,80.71L184.74,80.80L185.36,81.17L186.04,81.80L186.77,82.57L187.11,82.89L187.41,83.07L187.66,83.11L187.82,83.01L187.87,82.76L187.88,81.85L186.77,82.57"/><path d="M184.49,54.58L184.98,54.66L185.59,55.03L186.27,55.66L187.67,54.75"/><path d="M188.51,85.98L188.61,86.29L188.65,86.56L188.61,86.74L188.49,86.81L188.32,86.79L188.29,86.77L188.09,86.65L187.84,86.42L188.51,85.98L188.33,85.62L188.10,85.28L187.85,84.98L186.02,83.04L185.78,82.81L185.55,82.67L185.38,82.64L185.25,82.72L185.21,82.90L185.25,83.16L185.36,83.48L185.54,83.83L185.75,84.16"/><path d="M186.04,81.80L187.43,80.88"/><path d="M187.56,59.74L188.07,60.28L188.74,59.85L188.56,59.49L188.34,59.15L188.09,58.85L186.26,56.90L186.01,56.67L185.78,56.54L185.61,56.51L185.49,56.58L185.45,56.76L185.48,57.03L185.60,57.35L185.77,57.70L185.99,58.02"/><path d="M186.27,55.66L187.83,57.32L188.17,57.55L188.45,57.61L188.62,57.50L189.19,56.94L189.95,56.67L190.89,56.70L191.98,57.04L193.20,57.67L194.51,58.58L195.89,59.76L197.30,61.16L198.69,60.25"/><path d="M187.84,86.42L187.33,85.88"/><path d="M187.88,81.85L187.89,81.37"/><path d="M188.07,60.28L188.32,60.51L188.55,60.65L188.73,60.68L188.84,60.60L188.89,60.42L188.85,60.16L188.74,59.85"/><path d="M187.83,57.32L189.23,56.41"/><path d="M189.19,56.94L189.63,56.65"/><path d="M216.92,82.03L197.30,61.16"/></g><g style="stroke:#000000;stroke-width:0.529"><path d="M185.11,84.57L184.71,83.97L184.23,83.02L183.93,82.14L183.82,81.42L183.94,80.93L185.65,79.80L186.14,79.89L186.75,80.26L187.43,80.88L187.89,81.37L188.05,62.51L188.00,62.15L187.85,61.71L187.61,61.23L187.30,60.77L186.97,60.36L186.82,60.20"/><path d="M185.34,58.43L184.95,57.83L184.47,56.88L184.16,56.01L184.06,55.29L184.17,54.79L185.88,53.67L186.37,53.75L186.99,54.12L187.67,54.75L189.23,56.41L189.57,56.64L189.63,56.65L190.59,56.02L191.35,55.75L192.29,55.79L193.38,56.13L194.59,56.76L195.90,57.67L197.25,58.82L198.69,60.25L218.05,80.84"/><path d="M222.76,131.05L196.92,103.56L195.51,101.96L194.14,100.21L192.83,98.34L191.63,96.40L190.55,94.43L189.63,92.49L188.89,90.62L188.34,88.87L188.17,88.39L187.90,87.87L187.56,87.38L186.59,86.34"/></g></g><g id="Actor_7.3"><g style="stroke:#000000;stroke-width:0.176"><path d="M165.75,39.61L166.04,39.59L166.43,39.77L166.89,40.15L167.36,40.68L167.79,41.31L168.13,41.96L168.35,42.57L168.43,43.07L168.35,43.40"/><path d="M166.70,41.55L166.54,41.30L166.55,40.83L167.00,41.08L167.29,41.52L167.46,41.80L167.46,42.27L167.00,42.02L166.70,41.55"/><path d="M166.94,41.04L166.54,41.30"/><path d="M166.31,39.41L166.63,39.56"/><path d="M167.00,42.02L167.43,41.75"/><path d="M168.65,42.60L168.70,42.89"/></g><g style="stroke:#000000;stroke-width:0.529"><path d="M166.52,39.47L166.31,39.41L166.02,39.44L165.75,39.61L165.59,39.85L165.59,40.27L165.74,40.83L166.03,41.47L166.42,42.11L166.88,42.70L167.34,43.16L167.78,43.45L168.12,43.53L168.35,43.40L168.62,43.22L168.70,42.89L168.71,42.79"/></g></g><g id="Actor_5.0"><g style="stroke:#000000;stroke-width:0.176"><path d="M163.35,61.33L163.34,61.29L162.42,60.32"/><path d="M162.51,58.66L163.42,59.64L163.38,59.69L163.36,59.75L163.35,59.80L163.34,61.29"/><path d="M162.44,58.82L163.35,59.80"/><path d="M163.42,59.64L163.87,59.03L163.92,58.97L163.97,58.92L164.03,58.88L164.58,58.52L164.64,58.49L164.70,58.46L164.75,58.46L164.78,58.47L164.92,58.54L164.00,57.57"/><path d="M162.96,58.06L163.87,59.03"/><path d="M163.12,57.90L164.03,58.88"/><path d="M164.58,58.52L163.67,57.55"/><path d="M164.78,58.47L163.87,57.50"/><path d="M164.92,58.54L164.95,58.55L165.00,58.55L165.06,58.53L165.12,58.50L164.20,57.52"/><path d="M165.90,59.94L165.83,59.87L165.85,59.87L165.88,59.89L165.90,59.94L165.88,61.57L164.97,60.60"/><path d="M165.83,59.87L165.80,59.87L165.74,59.88L165.66,59.92L165.10,60.29L165.04,60.34L164.98,60.39L164.97,60.41"/><path d="M165.12,58.50L165.68,58.13L165.75,58.07L165.82,58.01L165.87,57.94L165.90,57.87L165.91,57.81L165.00,56.84"/><path d="M165.68,58.13L164.77,57.15"/><path d="M165.91,57.81L165.93,56.18L165.01,55.21"/><path d="M165.48,54.58L166.25,55.39"/><path d="M165.88,61.57L165.90,61.65"/><path d="M165.93,56.18L165.95,56.06L166.02,55.93L166.12,55.79L166.25,55.66L166.33,55.60"/></g><g style="stroke:#000000;stroke-width:0.529"><path d="M164.97,60.41L164.94,60.45L164.90,60.51L164.76,60.76L164.73,60.81L164.68,60.87L164.62,60.92L164.56,60.97L164.01,61.33L163.95,61.36L163.90,61.38L163.85,61.39L163.41,61.36L163.37,61.35L162.43,60.36L162.42,60.32L162.44,58.82L162.45,58.78L162.47,58.72L162.51,58.66L162.96,58.06L163.00,58.00L163.06,57.95L163.12,57.90L163.67,57.55L163.73,57.51L163.78,57.49L163.83,57.49L163.87,57.50L164.00,57.57L164.04,57.58L164.09,57.58L164.14,57.56L164.20,57.52L164.77,57.15L164.84,57.10L164.90,57.03L164.95,56.96L164.99,56.90L165.00,56.84L165.01,55.21L165.04,55.09L165.11,54.96L165.21,54.82L165.34,54.69L165.48,54.58L165.53,54.55"/><path d="M166.34,61.59L166.20,61.67L166.07,61.71L165.97,61.70L165.90,61.65L164.99,60.68L164.97,60.60L164.97,60.41"/></g></g><g id="Actor_11.1"><g style="stroke:#000000;stroke-width:0.176"><path d="M221.10,79.16L164.90,19.39"/><path d="M168.00,20.21L167.84,19.83L167.84,19.07L168.13,18.35L168.69,17.74L169.45,17.32L170.34,17.13L171.25,17.20L172.09,17.50L172.77,18.02L173.21,18.69L173.36,19.44L173.22,20.20L172.79,20.87L172.12,21.39L171.28,21.69L170.37,21.76L169.48,21.57L168.71,21.16L168.14,20.55L168.00,20.21"/><path d="M224.18,76.60L224.08,76.66L223.52,77.26L223.23,77.98L223.23,78.75L223.53,79.47L224.10,80.07L224.87,80.49L225.76,80.67L226.67,80.61L227.51,80.29L228.18,79.78L228.61,79.11L228.75,78.36L228.60,77.60L228.16,76.93L227.48,76.42L226.76,76.15"/><path d="M233.12,79.97L228.00,83.31L224.74,82.98"/><path d="M228.00,83.31L227.99,84.07"/></g><g style="stroke:#000000;stroke-width:0.529"><path d="M220.43,79.28L164.90,20.21L164.90,19.39L165.30,16.62L170.41,13.28L224.49,70.79"/><path d="M226.80,73.25L233.12,79.97L233.11,80.73"/></g></g><g id="Actor_10.0"><g style="stroke:#000000;stroke-width:0.176"><path d="M165.67,77.49L166.05,78.11L166.60,78.82L167.16,79.38L167.68,79.72L168.10,79.83L168.37,79.67L168.47,79.27L168.38,78.67L168.12,77.94L167.70,77.15L167.19,76.40L166.62,75.76L166.07,75.30L165.60,75.07L165.25,75.10L165.06,75.38L165.05,75.89L165.23,76.56L165.58,77.33L165.67,77.49"/><path d="M165.24,60.95L165.26,61.09L165.34,61.31L165.46,61.54L165.61,61.78L165.78,61.98L165.95,62.14L166.11,62.23L166.23,62.25L166.31,62.20L166.33,62.07L166.39,55.87L166.36,55.69L166.29,55.47L166.17,55.23L166.02,55.00L165.85,54.79L165.68,54.64L165.53,54.55L165.29,54.70L165.32,54.58L165.40,54.52L165.53,54.55"/><path d="M165.78,61.98L166.34,61.62"/><path d="M165.29,54.70L165.29,54.73"/><path d="M165.87,41.34L165.55,40.63L165.37,39.95L165.38,39.45L165.57,39.16L165.92,39.14L166.39,39.36L166.94,39.82L167.51,40.46L168.02,41.22L168.44,42.00L168.70,42.74L168.79,43.33L168.69,43.73L168.42,43.89L168.00,43.79L167.48,43.44L166.92,42.88L166.37,42.18L165.87,41.34"/><path d="M170.24,100.46L170.90,26.60"/><path d="M171.46,63.22L171.36,62.85L171.46,62.35L171.75,61.77L172.20,61.17L172.76,60.61L173.37,60.14L174.27,59.55L174.77,59.22L175.39,58.89L175.94,58.72L176.38,58.75L176.67,58.95L176.76,59.32L176.66,59.82L176.37,60.40L175.92,61.00L175.36,61.56L174.75,62.03L173.35,62.94L172.73,63.28L172.18,63.44L171.74,63.42L171.46,63.22"/><path d="M173.35,62.94L171.97,61.48"/><path d="M174.75,62.03L174.33,61.60"/></g><g style="stroke:#000000;stroke-width:0.529"><path d="M177.06,96.00L170.24,100.46L164.39,94.23L164.68,60.86"/><path d="M165.05,20.37L164.72,57.19"/></g></g><g id="Actor_2.0"><g style="stroke:#000000;stroke-width:0.176"><path d="M224.50,70.74L170.42,13.22"/><path d="M226.80,73.19L233.60,80.42L233.59,80.86"/><path d="M233.60,80.42L234.76,79.66"/></g><g style="stroke:#000000;stroke-width:0.529"><path d="M224.92,69.19L171.58,12.46L170.42,13.22L170.41,13.28"/><path d="M234.76,80.10L234.76,79.66L227.08,71.49"/></g></g><g id="Actor_8.0"><g style="stroke:#000000;stroke-width:0.176"><path d="M173.61,61.83L173.32,61.76L173.16,61.54L173.15,61.39L173.17,61.21L173.32,60.79L173.42,60.64L173.62,60.34L174.02,59.90L174.48,59.52L174.95,59.24L175.39,59.09L175.73,59.08L175.96,59.23L176.03,59.51"/><path d="M173.39,60.13L173.35,60.17L173.02,60.68L172.84,61.15L172.81,61.36L172.83,61.53L173.01,61.77"/><path d="M174.58,61.03L175.30,60.27L175.31,59.69L174.59,59.87L173.88,60.63L173.87,61.20L174.58,61.03L174.04,60.45"/><path d="M175.30,60.27L174.86,59.80"/><path d="M175.99,58.92L175.77,58.78"/></g><g style="stroke:#000000;stroke-width:0.529"><path d="M175.84,58.76L175.99,58.92L176.07,59.23L176.03,59.51L175.95,59.89L175.72,60.33L175.37,60.78L174.93,61.20L174.46,61.54L174.00,61.75L173.61,61.83L173.33,61.85L173.01,61.77L172.32,61.05"/></g></g><g id="Actor_2.1"><g style="stroke:#000000;stroke-width:0.176"><path d="M185.76,86.74L185.70,86.49L185.56,86.18L185.36,85.86L185.13,85.56L184.87,85.30L185.02,85.41L184.85,85.27L184.67,85.16L184.87,85.30"/><path d="M185.39,86.69L185.40,86.78L185.36,86.63L185.34,86.58L185.24,86.35L185.21,86.30L185.06,86.05L185.03,86.00L184.85,85.78L184.81,85.73L184.62,85.56L184.76,85.68L184.98,85.92L185.17,86.19L185.31,86.46L185.38,86.69L185.40,86.78L185.41,86.83L185.39,86.70"/><path d="M184.59,85.53L184.54,85.49L184.45,85.44L184.59,85.53L184.62,85.56"/><path d="M184.45,85.44L184.41,85.42L184.38,85.40L184.31,85.39L184.34,85.39L184.38,85.40"/><path d="M184.18,85.39L184.14,85.41L184.18,85.39L184.18,85.39L184.22,85.37L184.18,85.39"/><path d="M184.06,85.62L184.11,85.51L184.15,85.50L184.21,85.48L184.35,85.54L184.52,85.67L184.61,85.76L184.70,85.86L184.87,86.09L185.01,86.34L185.06,86.47L185.11,86.58L185.15,86.79L185.14,86.93L185.06,87.00L184.94,86.99L184.94,86.99"/><path d="M185.41,86.92L185.41,86.87L185.41,86.86L185.47,86.79L185.47,86.63L185.39,86.40L185.25,86.13L185.06,85.87L184.84,85.63L184.62,85.44L184.42,85.34L184.26,85.33L184.22,85.36L184.14,85.41L184.12,85.42L184.10,85.46"/><path d="M184.34,85.39L184.34,85.39L184.34,85.39"/><path d="M184.31,85.39L184.24,85.37L184.22,85.37"/><path d="M184.18,85.39L184.18,85.39"/><path d="M184.68,85.16L184.62,85.12L184.62,85.12L184.73,85.12L184.93,85.22L185.15,85.40L185.37,85.64L185.56,85.90L185.71,86.17L185.79,86.40L185.80,86.57L185.74,86.65L185.71,86.47L185.74,86.65L185.71,86.47L185.71,86.47"/><path d="M184.62,85.12L184.44,85.05"/><path d="M184.11,85.30L184.15,85.14"/><path d="M184.87,84.66L185.06,84.65L185.29,84.76L185.56,84.98L185.83,85.27L186.06,85.60L186.24,85.94L186.35,86.23L186.36,86.44L186.30,86.56"/><path d="M185.96,86.77L186.04,86.67L186.03,86.47L185.93,86.18L185.75,85.84L185.53,85.51L185.26,85.21L184.99,84.98L184.75,84.87L184.56,84.87"/><path d="M185.63,86.99L185.71,86.89L185.71,86.70L185.62,86.41L185.44,86.08L185.22,85.75L184.96,85.44L184.68,85.21L184.44,85.09L184.25,85.08L184.18,85.12"/><path d="M184.73,85.19L184.62,85.12"/><path d="M186.06,86.39L186.03,86.23L185.94,85.99L185.79,85.72L185.60,85.46L185.38,85.22L185.15,85.05L185.11,85.02L185.06,84.98L185.31,85.20L185.56,85.48L185.78,85.79L185.95,86.10L186.06,86.39L186.06,86.44L186.07,86.43L186.13,86.34L186.11,86.18L186.02,85.94L185.87,85.67L185.68,85.40L185.46,85.17L185.24,84.99L185.04,84.91L184.94,84.91L184.83,84.85L184.76,84.84"/><path d="M185.29,87.08L185.29,87.08"/><path d="M185.41,86.83L185.41,86.86"/><path d="M185.74,86.65L185.75,86.71"/><path d="M185.02,85.41L185.07,85.45L185.29,85.69L185.48,85.95L185.62,86.22L185.71,86.46L185.71,86.47"/><path d="M186.39,86.21L186.35,86.00L186.26,85.76L186.10,85.48L185.91,85.22L185.68,84.99L185.46,84.82L185.28,84.70L185.36,84.69L185.54,84.77L185.77,84.94L185.99,85.17L186.18,85.43L186.34,85.70L186.43,85.95L186.45,86.12L186.41,86.22L186.39,86.23L186.39,86.21L186.30,85.94L186.21,85.75L186.01,85.43L185.78,85.13L185.52,84.87L185.26,84.69L185.28,84.70"/><path d="M185.99,84.76L185.77,84.60L185.67,84.53L185.94,84.75L186.19,85.02L186.41,85.33L186.59,85.66L186.63,85.74L186.72,86.01L186.67,85.77L186.57,85.52L186.41,85.25L186.22,84.99L185.99,84.76"/><path d="M186.76,84.99L186.81,84.96L186.61,84.70L186.38,84.48L186.16,84.33L185.98,84.26L185.94,84.29L185.96,84.29L186.23,84.50L186.48,84.77L186.70,85.07L186.90,85.40L187.02,85.69L187.06,85.92"/><path d="M185.97,84.30L186.05,84.35L185.96,84.29"/><path d="M185.67,84.53L185.59,84.49L185.67,84.48L185.85,84.55L186.07,84.71L186.30,84.94L186.49,85.20L186.65,85.47L186.75,85.72L186.78,85.90L186.74,86.00L186.85,86.06"/><path d="M185.06,84.98L184.94,84.91"/><path d="M185.50,84.25L185.68,84.22L185.90,84.31L186.17,84.51L186.44,84.80L186.68,85.12L186.87,85.46L186.99,85.77L187.02,85.99L186.96,86.12"/><path d="M186.63,86.34L186.69,86.22L186.67,86.00L186.56,85.70L186.37,85.36L186.14,85.03L185.87,84.74L185.60,84.53L185.37,84.43L185.19,84.45"/><path d="M185.94,84.29L185.92,84.28L185.98,84.26L185.98,84.13"/><path d="M185.11,85.02L185.18,85.06"/><path d="M185.28,84.70L185.27,84.70"/><path d="M185.26,84.69L185.08,84.63"/><path d="M185.40,84.42L185.45,84.42L185.59,84.49"/><path d="M186.05,84.35L186.08,84.38L186.05,84.35"/><path d="M185.92,84.28L185.75,84.20L185.73,84.20"/><path d="M185.77,84.60L185.77,84.60"/><path d="M185.82,84.04L185.99,84.00L186.21,84.08L186.47,84.28L186.75,84.56L186.99,84.88L187.18,85.22L187.31,85.53L187.35,85.76L187.30,85.90"/><path d="M186.06,86.44L186.07,86.50"/><path d="M186.15,86.55L186.15,86.55"/><path d="M186.11,84.40L186.08,84.38L186.30,84.53L186.53,84.76L186.72,85.02L186.89,85.29L186.99,85.54L187.04,85.82L187.04,85.82"/><path d="M187.04,85.78L187.05,85.84L187.03,85.76L187.04,85.80L187.07,85.78L187.11,85.67L187.07,85.49L187.03,85.51"/><path d="M187.19,85.51L187.07,85.49L186.97,85.24L186.81,84.96L186.90,84.92"/><path d="M186.74,86.00L186.72,86.01L186.72,86.01"/><path d="M187.03,85.76L187.02,85.72"/><path d="M186.40,86.28L186.39,86.23"/><path d="M186.72,86.07L186.72,86.01"/><path d="M187.04,85.80L187.05,85.86"/><path d="M186.60,84.30L186.61,84.30L186.83,84.53L187.04,84.78L187.20,85.05L187.31,85.31L187.36,85.55L187.27,85.29L187.10,84.96L186.88,84.65L186.64,84.36L186.37,84.13L186.46,84.20L186.60,84.30"/><path d="M187.70,85.44L187.69,85.35L187.68,85.30L187.68,85.29L187.56,85.00L187.37,84.67L187.16,84.37L186.90,84.09L186.64,83.88L186.90,84.06L186.91,84.08L187.14,84.29L187.35,84.55L187.52,84.82L187.63,85.08L187.68,85.28L187.71,85.52"/><path d="M186.13,83.84L186.30,83.79L186.51,83.86L186.78,84.04L187.05,84.32L187.30,84.64L187.50,84.98L187.63,85.30L187.67,85.53L187.63,85.68"/><path d="M187.08,84.76L187.12,84.73L187.21,84.68"/><path d="M187.52,85.62L187.40,85.56L187.43,85.45L187.39,85.26L187.28,85.00L187.12,84.73L186.92,84.47L186.69,84.25L186.47,84.10L186.29,84.05L186.29,83.92"/><path d="M186.43,84.38L186.38,84.48L186.34,84.51"/><path d="M186.48,83.62L186.48,83.62"/><path d="M186.55,83.60L186.45,83.64"/><path d="M186.96,84.05L186.97,84.04"/><path d="M186.88,83.95L186.78,83.88L186.61,83.84L186.61,83.71"/><path d="M186.58,83.85L186.57,83.85L186.61,83.84L186.58,83.85L186.64,83.88"/><path d="M186.26,84.07L186.24,84.06L186.29,84.05L186.26,84.07L186.37,84.13"/><path d="M186.39,83.78L186.48,83.80L186.57,83.85"/><path d="M186.24,84.06L186.13,84.00L186.06,83.99"/><path d="M187.97,85.46L187.96,85.46L188.00,85.31L187.96,85.11"/><path d="M187.67,85.05L187.71,85.02L187.76,85.22L187.73,85.35L187.85,85.40"/><path d="M187.40,85.56L187.37,85.59L187.36,85.55"/><path d="M187.37,85.59L187.37,85.65"/><path d="M187.69,85.37L187.73,85.35"/><path d="M187.89,85.48L187.96,85.46"/><path d="M187.64,85.14L187.64,85.11L187.68,85.30"/><path d="M187.67,85.25L187.68,85.29"/><path d="M187.39,84.52L187.41,84.51"/><path d="M187.35,85.28L187.39,85.26L187.51,85.28"/><path d="M187.83,85.04L187.71,85.02L187.60,84.77L187.49,84.59"/><path d="M187.67,85.28L187.67,85.26"/><path d="M188.03,85.19L188.03,85.23"/></g><g style="stroke:#000000;stroke-width:0.529"><path d="M184.94,86.99L184.78,86.90L184.60,86.74L184.42,86.52L184.27,86.27L184.14,86.03L184.07,85.80L184.06,85.62L184.07,85.54L184.10,85.46L184.11,85.30L184.11,85.26L184.15,85.14L184.18,85.12L184.24,85.07L184.41,85.04L184.44,85.05"/><path d="M184.76,84.84L184.76,84.79L184.87,84.66L184.89,84.65L185.06,84.62L185.08,84.63"/><path d="M184.44,85.05L184.44,84.99L184.56,84.87L184.60,84.84L184.64,84.83L184.76,84.84"/><path d="M185.41,86.92L185.40,87.00L185.39,87.02L185.31,87.08L185.29,87.08L184.94,86.99"/><path d="M186.07,86.50L186.08,86.60L186.05,86.71L185.96,86.77L185.81,86.75L185.75,86.71"/><path d="M185.75,86.71L185.76,86.74L185.74,86.90L185.72,86.91L185.63,86.99L185.47,86.96L185.41,86.92"/><path d="M185.40,84.42L185.29,84.41L185.19,84.45L185.08,84.59L185.08,84.63"/><path d="M185.40,84.42L185.41,84.40L185.50,84.25L185.57,84.20L185.73,84.20"/><path d="M186.06,83.99L185.94,83.98L185.82,84.04L185.73,84.20"/><path d="M186.40,86.28L186.41,86.41L186.35,86.52L186.30,86.56L186.15,86.55"/><path d="M186.15,86.55L186.07,86.50"/><path d="M186.72,86.07L186.83,86.13L186.96,86.12L187.03,86.07L187.06,85.92L187.05,85.86"/><path d="M186.72,86.07L186.73,86.21L186.67,86.31L186.63,86.34L186.49,86.34L186.40,86.28"/><path d="M187.37,85.65L187.39,85.76L187.33,85.88L187.30,85.90L187.17,85.92L187.05,85.86"/><path d="M186.06,83.99L186.13,83.84L186.29,83.76L186.39,83.78"/><path d="M186.54,83.59L186.48,83.62L186.45,83.64L186.39,83.78"/><path d="M187.70,85.44L187.84,85.50L187.90,85.48L187.96,85.47L188.03,85.37L188.03,85.23"/><path d="M187.70,85.44L187.71,85.52L187.67,85.66L187.63,85.68L187.51,85.71L187.37,85.65"/><path d="M188.07,85.24L188.03,85.23"/></g></g><g id="Actor_2.2"><g style="stroke:#000000;stroke-width:0.176"><path d="M184.29,59.49L184.34,59.38L184.44,59.35L184.58,59.40L184.75,59.53L184.84,59.62L184.93,59.72L185.11,59.96L185.25,60.21L185.34,60.45L185.39,60.65L185.37,60.80L185.30,60.87L185.17,60.86L185.17,60.86"/><path d="M185.99,60.60L185.93,60.36L185.79,60.05L185.59,59.72L185.36,59.43L185.10,59.16L184.85,58.99L184.67,58.92"/><path d="M184.45,59.24L184.41,59.25L184.41,59.25L184.37,59.27L184.45,59.24L184.47,59.24L184.62,59.27L184.64,59.28L184.82,59.40L184.85,59.42L185.04,59.60L185.08,59.64L185.26,59.87L185.29,59.92L185.45,60.17L185.47,60.21L185.58,60.45L185.60,60.50L185.64,60.70L185.65,60.72L185.70,60.66L185.70,60.50L185.62,60.27L185.48,60.00L185.30,59.74L185.08,59.49L184.85,59.30L184.66,59.21L184.49,59.20L184.45,59.23L184.37,59.27L184.36,59.28L184.34,59.33"/><path d="M184.62,59.27L184.57,59.26L184.55,59.25"/><path d="M184.41,58.99L184.48,58.94L184.68,58.95L184.91,59.08L185.19,59.31L185.45,59.61L185.68,59.94L185.85,60.28L185.94,60.56L185.94,60.76L185.86,60.85"/><path d="M186.19,60.64L186.27,60.53L186.26,60.33L186.16,60.04L185.99,59.70L185.76,59.38L185.49,59.07L185.22,58.85L184.98,58.73L184.79,58.73"/><path d="M184.34,59.16L184.39,59.01"/><path d="M185.97,60.52L185.94,60.34L185.97,60.51L186.03,60.43L186.02,60.27L185.94,60.04L185.79,59.77L185.61,59.50L185.39,59.26L185.16,59.08L184.97,58.99L184.86,58.99L184.96,59.06L184.91,59.02"/><path d="M184.85,59.42L185.00,59.54L185.22,59.79L185.40,60.05L185.54,60.32L185.62,60.55L185.63,60.64L185.62,60.55"/><path d="M184.82,59.40L184.77,59.36L184.68,59.30"/><path d="M184.57,59.26L184.57,59.26L184.58,59.26"/><path d="M184.41,59.25L184.42,59.25"/><path d="M184.86,58.99L184.85,58.99"/><path d="M185.65,60.72L185.65,60.73L185.64,60.78"/><path d="M185.64,60.70L185.62,60.56"/><path d="M185.34,58.88L185.29,58.84L185.55,59.06L185.80,59.34L186.01,59.65L186.18,59.97L186.29,60.26L186.26,60.09L186.17,59.86L186.02,59.58L185.83,59.32L185.61,59.08L185.39,58.91L185.34,58.88L185.41,58.93"/><path d="M185.94,60.34L185.94,60.32L185.86,60.09L185.71,59.82L185.52,59.55L185.30,59.31L185.08,59.13L184.96,59.06"/><path d="M185.99,60.58L185.97,60.51"/><path d="M185.29,58.84L185.17,58.78L185.28,58.77L185.47,58.86L185.69,59.03L185.92,59.27L186.10,59.53L186.26,59.80L186.34,60.04L186.36,60.21L186.31,60.30L186.30,60.31L186.29,60.26"/><path d="M186.63,60.08L186.63,60.09L186.64,60.08L186.69,59.99L186.67,59.81L186.57,59.57L186.42,59.30L186.22,59.04L186.00,58.80L185.78,58.63L185.59,58.56L185.51,58.57L185.50,58.56L185.75,58.74L186.01,58.99L186.24,59.29L186.44,59.62L186.53,59.81L186.63,60.08L186.58,59.86L186.49,59.62L186.33,59.35L186.14,59.09L185.92,58.85L185.70,58.69L185.51,58.56"/><path d="M186.01,58.48L186.17,58.61L186.42,58.89L186.64,59.19L186.83,59.52L186.87,59.61L186.95,59.88L186.91,59.63L186.81,59.39L186.65,59.12L186.45,58.86L186.23,58.63L186.01,58.47L185.91,58.40L186.01,58.48"/><path d="M186.01,58.47L186.00,58.46"/><path d="M185.11,58.53L185.29,58.52L185.52,58.62L185.80,58.84L186.07,59.14L186.30,59.46L186.48,59.80L186.58,60.10L186.60,60.31L186.53,60.42"/><path d="M185.42,58.32L185.60,58.30L185.83,58.40L186.10,58.61L186.37,58.90L186.60,59.22L186.79,59.56L186.90,59.86L186.93,60.08L186.86,60.20"/><path d="M185.10,59.16L185.25,59.27"/><path d="M185.17,58.78L185.06,58.72L184.99,58.71"/><path d="M185.51,58.57L185.51,58.57"/><path d="M185.50,58.56L185.32,58.49"/><path d="M187.20,59.99L187.25,59.86L187.22,59.63L187.10,59.32L186.91,58.98L186.68,58.66L186.40,58.37L186.14,58.17L185.91,58.08L185.73,58.11"/><path d="M187.09,59.93L186.97,59.87L187.01,59.76L186.99,59.58L186.89,59.34L186.73,59.06L186.53,58.80L186.31,58.57L186.09,58.41L185.90,58.34L185.83,58.36L185.91,58.40"/><path d="M185.83,58.36L185.68,58.28L185.64,58.28"/><path d="M185.96,58.06L185.98,58.06L186.16,58.14L186.21,58.13L186.22,58.00"/><path d="M186.97,59.87L186.95,59.88L186.95,59.88"/><path d="M186.30,60.36L186.30,60.31"/><path d="M186.63,60.09L186.63,60.15"/><path d="M186.96,59.94L186.95,59.88"/><path d="M186.21,58.17L186.32,58.24L186.20,58.16L186.46,58.36L186.71,58.63L186.94,58.93L187.13,59.26L187.25,59.55L187.28,59.69L187.28,59.69"/><path d="M187.60,59.42L187.55,59.17L187.43,58.92L187.27,58.65L187.07,58.39L186.84,58.17L186.69,58.07L186.60,58.00L186.87,58.23L187.12,58.51L187.33,58.83L187.50,59.16L187.60,59.42L187.61,59.51"/><path d="M187.26,59.58L187.26,59.59L187.23,59.40L187.12,59.15L186.96,58.88L186.76,58.62L186.53,58.40L186.32,58.24L186.35,58.27"/><path d="M186.05,57.91L186.22,57.87L186.44,57.95L186.71,58.14L186.98,58.42L187.22,58.75L187.42,59.08L187.54,59.40L187.58,59.63L187.53,59.77"/><path d="M187.00,58.86L187.04,58.83L186.84,58.57L186.61,58.34L186.57,58.37"/><path d="M187.27,59.38L187.31,59.35L187.20,59.10L187.04,58.83L187.13,58.79"/><path d="M186.20,58.16L186.18,58.15L186.21,58.13L186.40,58.19L186.61,58.34L186.66,58.24"/><path d="M187.95,59.38L187.91,59.17L187.91,59.16L187.79,58.87L187.61,58.53L187.39,58.24L187.13,57.96L186.87,57.75L187.13,57.93L187.15,57.94L187.38,58.16L187.58,58.41L187.75,58.69L187.86,58.94L187.91,59.14L187.93,59.30"/><path d="M186.71,57.48L186.71,57.49"/><path d="M187.86,59.55L187.91,59.40L187.86,59.16L187.73,58.84L187.53,58.51L187.29,58.19L187.01,57.91L186.75,57.73L186.53,57.66L186.36,57.71"/><path d="M186.68,57.50L186.79,57.46"/><path d="M186.84,57.57L186.84,57.70L186.81,57.72L186.81,57.71L186.84,57.70L187.02,57.75L187.12,57.81"/><path d="M186.81,57.71L186.72,57.67L186.62,57.65"/><path d="M187.31,58.62L187.35,58.59L187.15,58.34L186.92,58.12L186.71,57.97L186.53,57.91L186.48,57.93L186.49,57.94L186.53,57.91L186.53,57.78"/><path d="M186.48,57.93L186.37,57.87L186.29,57.86"/><path d="M186.87,57.75L186.81,57.72"/><path d="M186.60,58.00L186.49,57.94"/><path d="M186.18,58.15L186.16,58.14"/><path d="M187.28,59.69L187.26,59.61L187.28,59.70L187.28,59.69"/><path d="M187.29,59.78L187.27,59.65"/><path d="M187.26,59.62L187.27,59.67L187.30,59.65L187.34,59.54L187.31,59.35L187.43,59.37"/><path d="M187.26,59.59L187.26,59.61"/><path d="M187.28,59.72L187.27,59.67"/><path d="M187.90,59.12L187.91,59.17"/><path d="M187.88,59.01L187.87,58.98L187.91,59.15"/><path d="M188.19,58.97L188.23,59.17L188.20,59.33L188.20,59.33"/><path d="M188.20,59.33L188.13,59.35"/><path d="M188.08,59.27L187.97,59.21L187.99,59.09L187.95,58.89L187.83,58.63L187.72,58.46"/><path d="M188.06,58.91L187.95,58.89L187.91,58.92"/><path d="M187.59,59.15L187.63,59.12L187.67,59.31L187.64,59.43L187.75,59.49"/><path d="M187.97,59.21L187.92,59.24"/><path d="M187.74,59.14L187.63,59.12L187.52,58.87L187.35,58.59L187.44,58.55"/><path d="M187.60,59.45L187.64,59.43"/><path d="M188.26,59.06L188.26,59.09"/><path d="M187.90,59.12L187.91,59.14"/><path d="M187.62,58.39L187.64,58.37"/><path d="M187.19,57.92L187.20,57.91"/></g><g style="stroke:#000000;stroke-width:0.529"><path d="M185.17,60.86L185.01,60.76L184.84,60.60L184.66,60.39L184.50,60.14L184.38,59.89L184.31,59.67L184.29,59.49L184.31,59.40L184.34,59.33L184.34,59.16L184.34,59.13L184.39,59.01L184.41,58.99L184.48,58.93L184.64,58.91L184.67,58.92"/><path d="M184.99,58.71L184.88,58.70L184.84,58.71L184.79,58.73L184.68,58.86L184.67,58.92"/><path d="M185.64,60.78L185.63,60.87L185.62,60.89L185.55,60.94L185.52,60.95L185.17,60.86"/><path d="M185.64,60.78L185.70,60.82L185.86,60.85L185.95,60.78L185.97,60.77L185.99,60.60L185.99,60.58"/><path d="M186.30,60.36L186.32,60.46L186.28,60.58L186.19,60.64L186.04,60.62L185.99,60.58"/><path d="M185.32,58.49L185.29,58.48L185.13,58.51L185.11,58.53L185.00,58.66L184.99,58.71"/><path d="M185.64,58.28L185.52,58.27L185.42,58.32L185.32,58.46L185.32,58.49"/><path d="M185.96,58.06L185.81,58.07L185.73,58.11L185.64,58.26L185.64,58.28"/><path d="M186.29,57.86L186.18,57.84L186.05,57.91L185.96,58.06"/><path d="M186.63,60.15L186.72,60.20L186.86,60.20L186.90,60.18L186.96,60.07L186.96,59.94"/><path d="M186.63,60.15L186.64,60.28L186.58,60.39L186.53,60.42L186.38,60.41L186.30,60.36"/><path d="M187.28,59.72L187.29,59.78L187.26,59.93L187.20,59.99L187.06,60.00L186.96,59.94"/><path d="M186.62,57.65L186.68,57.50L186.71,57.48L186.78,57.45"/><path d="M186.62,57.65L186.52,57.63L186.36,57.71L186.29,57.86"/><path d="M187.93,59.30L187.95,59.38L187.90,59.52L187.86,59.55L187.74,59.58L187.61,59.51"/><path d="M187.61,59.51L187.62,59.62L187.56,59.75L187.53,59.77L187.40,59.79L187.28,59.72"/><path d="M188.26,59.09L188.27,59.23L188.19,59.33L188.13,59.35L188.08,59.37L187.93,59.30"/><path d="M188.31,59.11L188.26,59.09"/></g></g><g id="Actor_1.0"><g style="stroke:#000000;stroke-width:0.176"><path d="M222.63,149.16L219.82,150.99L219.86,146.15L220.17,145.95L220.37,146.07L220.60,146.28L222.18,147.96L221.88,147.32L221.24,146.28L220.52,145.32L219.77,144.52L219.04,143.94L218.40,143.63L217.90,143.61L217.58,143.89L217.47,144.45L217.38,155.23L217.48,156.01L217.78,156.95L218.27,157.99L218.91,159.03L219.63,159.99L220.38,160.79L221.11,161.37L221.75,161.68L222.25,161.70L222.57,161.42L222.68,160.87L222.69,159.39L222.62,159.33L221.86,158.53L221.14,157.57L220.51,156.53L220.02,155.50L219.71,154.55L219.61,153.77L217.38,155.23"/><path d="M216.54,140.71L216.70,140.74L216.91,140.86L217.13,141.07L221.89,146.13L222.11,146.33L222.32,146.46L222.48,146.49L222.59,146.41L222.63,146.25L222.63,145.64L221.89,146.13"/><path d="M222.70,137.43L217.13,141.07"/><path d="M221.38,79.41L217.66,81.84L217.44,81.63L217.23,81.51L217.07,81.48"/><path d="M217.47,144.45L218.59,143.72"/><path d="M217.90,96.00L218.01,96.78L218.31,97.70L218.80,98.76L219.44,99.80L220.16,100.76L220.91,101.57L221.64,102.15L222.28,102.46L222.78,102.47L223.10,102.19L223.21,101.64L223.22,100.17L223.15,100.11L222.39,99.31L221.67,98.34L221.04,97.31L220.55,96.27L220.24,95.32L220.14,94.54L217.90,96.00L218.00,85.22L218.11,84.67L218.43,84.39L218.93,84.40L219.57,84.71L220.30,85.29L221.05,86.10L221.77,87.06L222.41,88.10L222.90,89.13L223.20,90.08L223.30,90.86L223.26,95.52L221.07,93.19L220.85,92.92L220.64,92.61L220.48,92.30L220.38,92.00L220.35,91.76L220.39,86.93L220.70,86.72L220.53,86.69L220.43,86.76L220.39,86.93"/><path d="M218.00,85.22L219.12,84.49"/><path d="M235.93,80.90L224.06,88.65L217.66,81.84"/><path d="M219.61,153.77L219.69,144.46"/><path d="M222.72,156.24L222.71,157.25L222.66,157.23L222.44,157.09L222.20,156.85L221.96,156.55L221.76,156.22L221.62,155.89L221.54,155.60L221.54,155.39L221.62,155.27L221.77,155.25L221.98,155.35L222.21,155.55L222.45,155.82L222.67,156.14L222.72,156.24L222.73,154.75L220.54,152.42L220.32,152.15L220.12,151.84L219.95,151.52L219.85,151.23L219.82,150.99"/><path d="M220.54,152.42L222.77,150.97"/><path d="M219.86,146.15L219.90,145.99L220.00,145.92L220.17,145.95"/><path d="M220.14,94.54L220.22,85.23"/><path d="M220.35,91.76L223.16,89.93"/><path d="M220.70,86.72L220.90,86.84L221.13,87.05L222.70,88.73"/><path d="M221.07,93.19L223.30,91.74"/><path d="M233.11,80.73L226.61,84.97L221.42,79.45"/><path d="M222.69,159.39L222.71,157.25"/><path d="M222.73,154.75L222.78,150.08L222.67,149.31L222.37,148.36L222.18,147.96"/><path d="M222.63,145.64L222.71,136.68"/><path d="M223.25,97.01L223.20,96.91L222.98,96.59L222.74,96.32L222.50,96.12L222.30,96.03L222.15,96.04L222.07,96.16L222.07,96.38L222.15,96.66L222.29,96.99L222.49,97.32L222.73,97.62L222.97,97.86L223.19,98.01L223.24,98.02L223.26,95.52"/><path d="M224.06,88.65L223.38,164.64"/><path d="M223.22,100.17L223.24,98.02"/><path d="M233.41,80.98L226.87,85.25L226.61,84.97"/></g><g style="stroke:#000000;stroke-width:0.529"><path d="M233.12,80.73L233.34,80.94L233.41,80.98L235.02,79.93L235.93,80.90L235.25,156.89L223.38,164.64L216.98,157.83L216.76,157.55L216.55,157.24L216.39,156.93L216.29,156.64L216.26,156.40L216.40,140.94L216.43,140.78L222.71,136.68"/><path d="M222.71,136.68L222.99,105.09L222.96,104.85L222.86,104.56L222.70,104.24L222.49,103.93L222.27,103.66L217.51,98.60L217.29,98.33L217.08,98.02L216.92,97.70L216.82,97.41L216.79,97.17L216.92,81.72L216.96,81.55L220.79,79.05L220.95,79.08L221.16,79.20L221.42,79.45"/></g></g><g id="Actor_.0"><g style="stroke:#000000;stroke-width:0.176"><path d="M225.69,79.73L225.74,74.23L225.75,73.90L225.79,73.53L225.84,73.12L225.91,72.67L226.00,72.20L226.10,71.71L226.34,70.75L226.51,70.13L226.67,69.60L227.02,68.55L227.20,68.05L227.39,67.57L227.58,67.12L226.30,66.73L226.11,67.18L225.92,67.66L225.73,68.16L225.39,69.21L225.22,69.74L225.08,70.27L224.82,71.31L224.71,71.81L224.62,72.28L224.55,72.73L224.50,73.14L224.47,73.51L224.46,73.84L224.41,79.34"/><path d="M225.21,79.17L225.21,78.01L225.20,77.82L225.17,77.67L225.13,77.57"/><path d="M224.60,79.40L224.61,78.47L224.68,78.36L224.79,78.28L224.93,78.23L225.07,78.21L225.22,78.24L225.35,78.30L225.45,78.39L225.47,78.43L225.44,78.25L225.35,77.99L225.22,77.73L225.07,77.46L224.91,77.63L224.77,77.83L224.69,78.02L224.63,78.24L224.61,78.47"/><path d="M224.37,78.78L224.38,77.99L224.36,77.46L224.21,77.46L224.22,77.24L224.25,76.90L224.27,76.78L224.30,76.70L224.36,77.46"/><path d="M224.20,78.39L224.21,77.46"/><path d="M226.79,73.50L225.74,74.23L224.46,73.84L224.22,72.72"/><path d="M225.85,79.49L225.86,78.69L225.88,78.44L225.92,78.21L225.91,79.09"/><path d="M225.47,78.43L225.49,78.50L225.50,78.74L225.49,79.67"/><path d="M226.04,78.07L226.19,78.04L226.34,78.06L226.47,78.10L226.58,78.19L226.57,77.96L226.53,77.75L226.46,77.57L226.36,77.42L226.23,77.29L226.10,77.60L226.00,77.90L225.94,78.13L226.04,78.07"/><path d="M225.92,78.21L225.94,78.13"/><path d="M225.65,67.18L226.30,66.73L243.42,27.35"/><path d="M226.58,79.12L226.58,78.19"/><path d="M228.22,67.97L227.58,67.12L244.70,27.74"/><path d="M241.72,30.50L241.65,30.77L241.59,31.02L242.01,30.30L242.33,29.68L242.20,29.63L242.07,29.57L241.94,29.89L241.82,30.21L241.72,30.50"/><path d="M242.07,29.57L242.87,27.72"/><path d="M242.54,30.64L242.56,30.99L242.83,30.53L242.97,30.26L243.26,29.64L243.12,29.58L243.00,29.51L242.90,29.42L242.84,29.33L242.82,29.24L242.69,29.58L242.60,29.93L242.55,30.28L242.54,30.64"/><path d="M242.56,30.99L242.85,30.73L243.12,30.45L243.35,30.15L243.55,29.84L243.66,29.60L243.62,29.64L243.52,29.67L243.40,29.66L243.26,29.64L244.07,27.78"/><path d="M242.82,29.24L243.62,27.40"/><path d="M242.33,29.68L242.52,29.25L243.14,27.82"/><path d="M243.52,31.61L243.58,31.20L243.65,30.80L243.75,30.41L243.87,30.05L243.93,30.10L244.04,30.18L244.18,30.24L244.32,30.28L244.45,30.29L244.29,30.61L244.12,30.91L243.93,31.17L243.73,31.41L243.52,31.61"/><path d="M243.66,29.60L244.48,27.73"/><path d="M243.87,30.05L244.00,29.70L244.67,28.18"/><path d="M244.45,30.29L245.25,28.45"/></g><g style="stroke:#000000;stroke-width:0.529"><path d="M224.37,78.78L224.37,79.17"/><path d="M226.74,79.00L226.79,73.50L226.80,73.22L226.83,72.91L226.87,72.56L226.94,72.19L227.11,71.37L227.26,70.75L227.46,70.04L227.75,69.17L228.00,68.50L228.22,67.97L245.34,28.59L245.25,28.45L245.02,28.40L244.87,28.34L244.74,28.25L244.67,28.18L244.81,27.86L244.70,27.74L244.51,27.67L244.48,27.73L244.45,27.77L244.35,27.81L244.22,27.81L244.07,27.78L243.92,27.72L243.79,27.64L243.69,27.54L243.63,27.44L243.62,27.40L243.42,27.35L243.32,27.41L243.14,27.82L242.87,27.72L242.77,27.81L225.49,67.56L225.33,67.96L225.03,68.82L224.76,69.71L224.54,70.58L224.44,71.00L224.30,71.78L224.26,72.13L224.23,72.44L224.22,72.72L224.17,78.22"/><path d="M225.85,79.49L225.85,79.62"/></g></g><g/><g><g/><g><path style="fill:#ffffff" d="M31.40,15.34L80.47,15.34L80.47,26.63L31.40,26.63z"/><text xml:space="preserve" fill="#000000" stroke-width="0" x="32.81" y="23.10" font-size="6.88" opacity="1.00" font-family="MS Shell Dlg">0010-ASM-001</text></g></g><g><g/><g><path style="fill:#ffffff" d="M6.53,180.00L136.05,180.00L136.05,199.05L6.53,199.05z"/><text xml:space="preserve" fill="#000000" stroke-width="0" x="7.59" y="185.82" font-size="5.18" opacity="1.00" font-family="MS Shell Dlg">a) Insert Door latch head in the slot so that the head will</text><text xml:space="preserve" fill="#000000" stroke-width="0" x="7.59" y="191.11" font-size="5.17" opacity="1.00" font-family="MS Shell Dlg">protrude from the Door internal catcher.</text><text xml:space="preserve" fill="#000000" stroke-width="0" x="7.59" y="196.40" font-size="5.17" opacity="1.00" font-family="MS Shell Dlg">b) Tighten the head to the catcher</text></g></g><g><g/><g><path style="fill:#ffffff" d="M168.00,180.00L286.84,180.00L286.84,193.76L168.00,193.76z"/><text xml:space="preserve" fill="#000000" stroke-width="0" x="169.06" y="185.82" font-size="5.18" opacity="1.00" font-family="MS Shell Dlg">a) 将门锁头插入槽中，使 头从门内部固定器中伸 出。</text><text xml:space="preserve" fill="#000000" stroke-width="0" x="169.06" y="191.11" font-size="5.16" opacity="1.00" font-family="MS Shell Dlg">b) 将头部拧紧到捕手上</text></g></g><g><g/><g><image x="82.357201" y="12.409999" height="15.000001" width="15.000001" xlink:href="27_files/9fc41eee6b7960b9_image_0.jpg"/></g></g><g><g/><g><image x="14.945761" y="13.167144" height="15.000001" width="15.000001" xlink:href="27_files/9fc41eee6b7960b9_image_1.jpg"/></g></g><g id="paperID" visibility="hidden" opacity="0.00" transform="scale(0.000100)"><path style="stroke:#000000;stroke-width:0.500;fill:#e6e6e6;fill-rule:evenodd" d="M-2000.00,-2000.00L2297.00,-2000.00L2297.00,2210.00L-2000.00,2210.00zM0.00,0.00L297.00,0.00L297.00,210.00L0.00,210.00z"/><path style="fill:#000000;fill-opacity:0.118" d="M3.00,210.00L297.00,210.00L297.00,3.00L300.00,3.00L300.00,213.00L3.00,213.00z"/></g><g id="hotspot.0" ident="" onmouseover="ShowHotSpot(evt,&apos;0&apos;)" onmouseout="HideHotSpot(evt,&apos;0&apos;)" onmousemove="ShowToolTip(evt,&apos;0&apos;,&quot;Copy 1 of Copy 1 of  6&quot;)" opacity="0"><a xlink:href="28.svg"><path style="fill:#00ff00;fill-rule:evenodd" d="M97.22,27.07L82.40,27.07L82.40,12.25L97.22,12.25z"/></a></g><g id="hotspot.1" ident="" onmouseover="ShowHotSpot(evt,&apos;1&apos;)" onmouseout="HideHotSpot(evt,&apos;1&apos;)" onmousemove="ShowToolTip(evt,&apos;1&apos;,&quot;Copy 1 of Copy 1 of Copy 1 of  6&quot;)" opacity="0"><a xlink:href="26.svg"><path style="fill:#00ff00;fill-rule:evenodd" d="M29.90,27.92L15.08,27.92L15.08,13.10L29.90,13.10z"/></a></g><g id="hotspot.2" ident="" onmouseover="ShowHotSpot(evt,&apos;2&apos;)" onmouseout="HideHotSpot(evt,&apos;2&apos;)" onmousemove="ShowToolTip(evt,&apos;2&apos;,&quot;0038_Door internal-hinges&quot;)" opacity="0"><path style="fill:#00ff00;fill-rule:evenodd" d="M222.26,80.12L225.35,83.53L228.63,83.52L232.88,80.70L234.15,80.28L234.99,79.86L235.83,80.69L235.27,156.64L223.84,164.19L223.10,164.16L216.55,157.10L216.57,140.48L222.54,136.55L222.79,132.00L222.81,104.18L220.84,101.90L217.15,97.95L216.84,97.13L217.06,81.28L220.45,78.98L221.10,78.98z"/></g><g id="hotspot.3" ident="" onmouseover="ShowHotSpot(evt,&apos;3&apos;)" onmouseout="HideHotSpot(evt,&apos;3&apos;)" onmousemove="ShowToolTip(evt,&apos;3&apos;,&quot;0578_Door internal catcher_V2&quot;)" opacity="0"><path style="fill:#00ff00;fill-rule:evenodd" d="M165.96,21.29L169.08,24.40L177.56,33.45L177.00,95.82L170.66,99.98L169.92,99.95L167.64,97.40L164.53,94.28L164.53,83.06L164.73,60.60L165.08,60.57L165.69,61.21L166.22,61.32L166.24,55.24L165.69,54.39L165.10,54.77L164.81,56.78L165.10,20.15zM168.51,41.95L168.39,43.12L167.63,43.12L166.81,42.51L165.63,40.26L165.63,39.51L166.81,39.38zM172.61,60.62L175.49,58.59L175.84,58.62L175.86,59.89L175.45,60.61L174.07,61.49L172.93,61.57zM167.10,76.16L168.22,77.87L168.11,79.04L167.38,79.02L165.94,77.32L165.65,76.77L165.57,75.31L166.22,75.29z"/></g><g id="hotspot.4" ident="" onmouseover="ShowHotSpot(evt,&apos;4&apos;)" onmouseout="HideHotSpot(evt,&apos;4&apos;)" onmousemove="ShowToolTip(evt,&apos;4&apos;,&quot;0579_Door edge_V2&quot;)" opacity="0"><path style="fill:#00ff00;fill-rule:evenodd" d="M171.62,14.50L174.74,17.61L176.15,19.31L179.26,22.42L180.67,24.12L188.03,31.75L189.44,33.45L192.56,36.56L193.97,38.26L201.32,45.89L202.74,47.59L205.85,50.70L207.26,52.40L210.38,55.51L211.79,57.21L219.14,64.84L220.56,66.54L224.49,70.48L224.22,77.14L223.95,77.43L223.93,79.29L225.04,80.16L226.97,80.16L228.19,79.12L228.19,77.58L226.95,76.55L227.04,73.32L228.20,74.46L229.61,76.16L233.00,79.57L233.01,80.54L228.63,83.52L225.35,83.53L222.26,80.12L221.11,79.00L219.97,78.72L217.45,75.88L209.24,67.11L206.13,64.00L204.72,62.30L201.60,59.19L200.19,57.49L197.08,54.38L195.67,52.68L188.31,45.05L186.90,43.35L183.78,40.24L182.37,38.54L175.02,30.90L173.60,29.20L170.49,26.10L169.08,24.40L165.96,21.29L165.10,20.17L165.09,18.01L165.38,16.31L170.49,13.10zM169.92,99.95L170.66,99.98L176.88,95.95L177.26,95.95L178.41,97.38L181.52,100.48L182.94,102.18L186.05,105.29L187.46,106.99L194.82,114.63L196.23,116.33L199.34,119.44L200.76,121.14L208.11,128.77L209.52,130.47L212.64,133.58L214.05,135.28L218.04,139.27L218.01,139.62L216.57,140.48L216.31,150.11L212.92,146.88L211.51,145.18L208.39,142.07L206.98,140.37L203.87,137.26L202.46,135.56L195.10,127.92L193.69,126.22L190.57,123.12L189.16,121.42L181.80,113.78L180.39,112.08L177.28,108.97L175.87,107.27L172.75,104.16L171.34,102.46L164.53,95.42L164.53,94.25zM171.88,17.63L172.75,18.46L172.66,20.20L171.81,21.05L169.31,21.05L168.47,20.20L168.47,18.55L169.24,17.63L170.10,17.34L171.03,17.34z"/></g><g id="hotspot.5" ident="" onmouseover="ShowHotSpot(evt,&apos;5&apos;)" onmouseout="HideHotSpot(evt,&apos;5&apos;)" onmousemove="ShowToolTip(evt,&apos;5&apos;,&quot;0078_Door front&quot;)" opacity="0"><path style="fill:#00ff00;fill-rule:evenodd" d="M175.87,16.76L177.28,18.46L180.39,21.57L181.80,23.27L184.92,26.38L186.33,28.08L193.69,35.71L195.10,37.41L198.21,40.52L199.62,42.22L206.98,49.85L208.39,51.55L211.51,54.66L212.92,56.36L216.03,59.47L224.81,68.83L224.49,70.32L220.56,66.54L219.14,64.84L211.79,57.21L210.38,55.51L207.26,52.40L205.85,50.70L202.74,47.59L201.32,45.89L193.97,38.26L192.56,36.56L189.44,33.45L188.03,31.75L180.67,24.12L179.26,22.42L176.15,19.31L174.74,17.61L171.62,14.50L170.73,13.36L170.65,12.85L171.63,12.25zM178.12,33.97L179.54,35.71L182.37,38.54L183.78,40.24L186.90,43.35L188.31,45.05L195.67,52.68L197.08,54.38L200.19,57.49L201.60,59.19L204.72,62.30L206.13,64.00L213.49,71.63L214.90,73.33L218.01,76.44L220.27,79.14L218.43,80.43L217.72,80.45L216.03,78.42L212.92,75.31L211.51,73.61L204.15,65.98L202.74,64.28L199.62,61.17L198.21,59.47L194.79,56.67L193.10,55.81L191.31,55.50L189.86,56.39L189.45,56.40L186.88,53.84L186.31,53.52L185.65,53.53L184.33,54.49L184.31,56.40L185.20,58.10L185.61,58.09L186.50,57.48L186.88,57.48L188.30,58.91L187.06,59.80L187.11,60.34L188.01,62.04L188.00,72.88L187.74,80.81L185.76,79.57L183.96,80.72L184.03,82.14L184.91,84.12L185.63,84.12L186.22,83.50L186.59,83.50L188.03,85.08L186.77,86.06L188.01,87.77L189.98,93.16L192.53,97.68L196.51,103.03L199.06,105.58L200.47,107.28L203.59,110.38L205.00,112.08L212.36,119.72L213.77,121.42L216.88,124.53L218.29,126.23L221.41,129.34L222.82,131.05L222.54,136.55L218.46,139.30L218.01,139.27L214.05,135.28L212.64,133.58L209.52,130.47L208.11,128.77L200.76,121.14L199.34,119.44L196.23,116.33L194.82,114.63L187.46,106.99L186.05,105.29L182.94,102.18L181.52,100.48L177.26,95.98L177.25,79.10L177.71,33.75zM229.33,73.61L230.74,75.31L234.72,79.30L234.68,79.93L234.00,80.42L233.18,80.54L232.74,79.25L229.61,76.16L228.20,74.46L227.05,73.35L226.96,71.63L227.30,71.60z"/></g><g id="hotspot.6" ident="" onmouseover="ShowHotSpot(evt,&apos;6&apos;)" onmouseout="HideHotSpot(evt,&apos;6&apos;)" onmousemove="ShowToolTip(evt,&apos;6&apos;,&quot;0109_printer door window&quot;)" opacity="0"><path style="fill:#00ff00;fill-rule:evenodd" d="M186.88,53.84L189.45,56.40L189.86,56.39L191.31,55.50L193.10,55.81L194.79,56.67L198.21,59.47L199.62,61.17L202.74,64.28L204.15,65.98L207.26,69.09L215.47,77.86L217.47,80.11L217.76,80.81L217.05,81.28L216.84,97.13L217.15,97.95L220.84,101.90L222.81,104.18L222.81,130.88L216.88,124.53L213.77,121.42L212.36,119.72L205.00,112.08L203.59,110.38L200.47,107.28L199.06,105.58L196.51,103.03L192.53,97.68L189.98,93.16L188.01,87.77L186.77,86.06L188.03,85.08L186.59,83.50L186.22,83.50L185.63,84.12L184.91,84.12L184.03,82.14L183.96,80.72L185.76,79.57L187.74,80.81L188.00,72.88L188.01,62.04L187.11,60.34L187.06,59.80L188.30,58.91L186.88,57.48L186.50,57.48L185.61,58.09L185.20,58.10L184.31,56.40L184.33,54.49L185.65,53.53L186.31,53.52z"/></g><g id="hotspot.7" ident="" onmouseover="ShowHotSpot(evt,&apos;7&apos;)" onmouseout="HideHotSpot(evt,&apos;7&apos;)" onmousemove="ShowToolTip(evt,&apos;7&apos;,&quot;0202_Door latch head&quot;)" opacity="0"><path style="fill:#00ff00;fill-rule:evenodd" d="M166.24,55.24L166.22,61.32L165.69,61.21L165.09,60.58L164.42,60.88L163.12,60.90L162.56,60.34L162.53,58.44L163.29,57.50L164.59,57.10L164.83,56.78L165.10,54.77L165.69,54.39z"/></g><g id="hotspot.8" ident="" onmouseover="ShowHotSpot(evt,&apos;8&apos;)" onmouseout="HideHotSpot(evt,&apos;8&apos;)" onmousemove="ShowToolTip(evt,&apos;8&apos;,&quot;0250_M4X8 socket countersunk head screw&quot;)" opacity="0"><path style="fill:#00ff00;fill-rule:evenodd" d="M171.88,17.63L172.75,18.46L172.66,20.20L171.81,21.05L169.31,21.05L168.47,20.20L168.47,18.55L169.24,17.63L170.10,17.34L171.03,17.34zM168.51,41.95L168.39,43.12L167.63,43.12L166.81,42.51L165.63,40.26L165.63,39.51L166.81,39.38zM167.10,76.16L168.22,77.87L168.11,79.04L167.38,79.02L165.94,77.32L165.65,76.77L165.57,75.31L166.22,75.29zM228.19,77.58L228.19,79.12L226.97,80.16L225.04,80.16L223.93,79.29L223.95,77.36L224.22,77.30L224.49,79.11L225.33,79.04L225.61,79.35L225.82,79.07L226.76,78.82L226.96,76.72L227.30,76.70z"/></g><g id="hotspot.9" ident="" onmouseover="ShowHotSpot(evt,&apos;9&apos;)" onmouseout="HideHotSpot(evt,&apos;9&apos;)" onmousemove="ShowToolTip(evt,&apos;9&apos;,&quot;0253_M4X10 socket head cap screw&quot;)" opacity="0"><path style="fill:#00ff00;fill-rule:evenodd" d="M172.61,60.62L175.49,58.59L175.84,58.62L175.86,59.89L175.45,60.61L174.07,61.49L172.93,61.57z"/></g><g id="ToolTip" visibility="hidden" opacity="0" transform="translate(0,0)"><rect id="ToolTipShadow" opacity="0.20" fill="black" stroke="none" x="0" y="0" width="30" height="8"/><rect id="ToolTipBG" fill="#ffffe1" stroke="black" x="0" y="0" width="30" height="8"/><text xml:space="preserve" id="ToolTipText" fill="black" x="0" y="0" width="30" height="8">tooltip</text></g></g></svg>