<?xml version="1.0" encoding="UTF-8" standalone="yes"?><svg xmlns="http://www.w3.org/2000/svg" xmlns:xlink="http://www.w3.org/1999/xlink" width="297.000mm" height="210.000mm" viewBox="0.000000 0.000000 297.000000 210.000000" stroke-linejoin="round" stroke-linecap="round" fill="none" fill-rule="evenodd"><desc>Composer Export</desc><script type="text/ecmascript"><![CDATA[
if(typeof(top) != "undefined")
{
	top.ShowPaper = ShowPaper;
}
function ShowHotSpot(evt,hotspotid)
{
	var svgDocument = evt.target.ownerDocument;
	var strId = "hotspot."+hotspotid;
	var hotspot = svgDocument.getElementById(strId);
	if(hotspot)
		hotspot.setAttribute("opacity",".5");
}
function HideHotSpot(evt,hotspotid)
{
	var svgDocument = evt.target.ownerDocument;
	var strId = "hotspot."+hotspotid;
	var hotspot = svgDocument.getElementById(strId);
	if(hotspot)
		hotspot.setAttribute("opacity","0");

	var toolTip = svgDocument.getElementById('ToolTip');
	if(toolTip)
		toolTip.setAttribute("visibility","hidden");
}
function ShowToolTip(evt,hotspotid,strTooltip)
{
	if(strTooltip=="")
	return;

	// change text
	var svgDocument = evt.target.ownerDocument;
	var tiptext = svgDocument.getElementById('ToolTipText');
	if( !tiptext )
	return;
	tiptext.firstChild.nodeValue = " " + strTooltip + "  " ;

	// show tooltip before, else some refresh issue

	var toolTip = svgDocument.getElementById('ToolTip');
	if(!toolTip)
	return;

	toolTip.setAttribute("visibility","visible");
	toolTip.setAttribute("opacity",".95");

	// move tooltip
	// get viewbox

	var root = svgDocument.documentElement;
	var vbox = (root.getAttribute("viewBox")).split(' ');
	var x0 = parseFloat(vbox[0]);
	var y0 = parseFloat(vbox[1]);
	var vboxW = parseFloat(vbox[2]);
	var vboxH = parseFloat(vbox[3]);

	// get default width of svg

	var strW = root.getAttribute("width");
	var svgW = parseFloat(strW);
	if(strW.indexOf('mm') != -1)
	svgW *= 3.779;

	var strH = root.getAttribute("height");
	var svgH = parseFloat(strH);
	if(strH.indexOf('mm') != -1)
	svgH *= 3.779;  	// 96 dpi  -> 96/25.4 = 3.779

	// update the viewbox / width / height if svg is embedded in html with zoom fit all
	var realx0 = x0;
	var realy0 = y0;
	var realvboxW = vboxW;
	var realvboxH = vboxH;
	var realsvgW = svgW;
	var realsvgH = svgH;

	if ((typeof(top) == "undefined") || (typeof(top.svgctl1) != "undefined")) // embedded in html
	{
		// get window size in pxl

		svgW = window.innerWidth;
		svgH = window.innerHeight;

		// calculate real viewbox

		realsvgW = svgW;
		realsvgH = svgH;
		if((svgW / svgH) > (vboxW / vboxH))
		{
			realvboxW = (vboxH * svgW) / svgH;
			realvboxH = vboxH;
			realx0 = x0 - (realvboxW - vboxW)/2 ;
		}
		else
		{
			realvboxH = (vboxW * svgH) / svgW;
			realvboxW = vboxW;
			realy0 = y0 - (realvboxH - vboxH)/2 ;
		}
	}

	// get user zoom/pan

	var newScale = root.currentScale;
	var translation = root.currentTranslate;

	// transform pxl to user unit

	var xPos = (((evt.clientX+10- translation.x)/newScale) * realvboxW)/realsvgW  + realx0 ;
	var yPos = (((evt.clientY+5- translation.y)/newScale) * realvboxH)/ realsvgH  + realy0 ;
	var scaleForWidth = ( (1 / newScale) * realvboxH) / realsvgH;

	// move tooltip

	toolTip.setAttribute("transform", "translate(" + xPos + "," + yPos + ")" );

	// resize tooltip

	var fontsize = 12;
	tiptext.setAttribute("font-size",fontsize*scaleForWidth);
	tiptext.setAttribute("y", fontsize*scaleForWidth);
	var tipBG = svgDocument.getElementById('ToolTipBG');
	var outline = tiptext.getBBox();
	if(tipBG)
	{
		tipBG.setAttribute("stroke-width", 1*scaleForWidth);
		tipBG.setAttribute("width", Number(outline.width) );
		tipBG.setAttribute("height", Number(outline.height) + fontsize*.5*scaleForWidth );
	}
	var ToolTipShadow = svgDocument.getElementById('ToolTipShadow');
	if(ToolTipShadow)
	{
		ToolTipShadow.setAttribute("width", Number(outline.width) );
		ToolTipShadow.setAttribute("height", Number(outline.height) + fontsize*.5*scaleForWidth );
		ToolTipShadow.setAttribute("x", 3*scaleForWidth);
		ToolTipShadow.setAttribute("y", 3*scaleForWidth);
	}
}
function ShowPaper()
{
  var svgDocument = getDocument();
  var paper = svgDocument.getElementById("paperID");
  if(paper)
  {
    paper.setAttribute("transform","scale(1)");
    paper.setAttribute("opacity","1");
    paper.setAttribute("visibility","visible");
  }
  var svg = svgDocument.getRootElement();
  if(svg)
  {
    svg.setAttribute("width","307.000mm");
    svg.setAttribute("height","220.000mm");
    svg.setAttribute("viewBox","-5.000000 -5.000000 307.000000 220.000000");
  }
}
]]></script><defs/><g><path style="fill:#ffffff" d="M297.00,210.08L0.07,210.08L0.07,0.07L297.00,0.07z"/><path style="fill:#fff2e8" d="M206.37,33.40L206.35,33.71L205.91,33.88L203.79,33.92L203.29,33.63L203.28,33.24L204.22,32.89L205.57,32.89z"/><path style="fill:#fff2e8" d="M203.32,54.91L203.21,56.62L203.06,56.80L202.23,56.78L201.79,55.95L201.65,54.32L202.64,54.04z"/><path style="fill:#fff2e8" d="M215.58,63.20L215.91,64.29L215.49,64.47L215.58,66.05L215.15,67.37L213.83,67.21L212.30,65.74L212.31,63.77L212.97,62.18L213.48,61.94L214.67,61.90z"/><path style="fill:#fff2e8" d="M215.33,91.51L215.68,92.62L215.32,92.86L215.34,94.35L214.89,95.62L214.49,95.80L213.57,95.53L213.04,95.04L212.94,94.68L214.10,94.37L214.35,94.12L214.32,92.74L213.57,92.83L212.94,94.68L212.05,94.04L212.06,92.08L212.72,90.49L213.23,90.25L214.44,90.24z"/><path style="fill:#fff2e8" d="M203.07,93.75L203.05,95.60L202.74,95.82L202.32,95.77L201.81,95.25L201.54,94.53L201.49,92.99L201.63,92.88L202.39,92.87L202.60,92.99z"/><path style="fill:#e5e5e5" d="M209.34,38.63L208.81,115.13L204.48,116.16L204.56,69.80L204.81,36.13z"/><path style="fill:#cdd1d5" d="M201.57,73.87L201.83,73.59L202.08,71.38L202.05,77.84L201.70,77.95L201.54,75.93L201.11,76.14L200.23,76.34L200.09,76.15L200.31,73.81L200.64,73.59L201.09,73.66z"/><path style="fill:#ffffff" d="M205.43,75.67L205.31,75.80L205.32,75.13z"/><path style="fill:#c0c0c0" d="M177.99,68.98L179.85,69.18L179.85,70.08L177.99,69.99L177.51,69.72L177.37,68.63z"/><path style="fill:#e5d9d0" d="M202.56,55.52L202.22,55.52L202.22,55.19L202.56,55.19z"/><path style="fill:#e5d9d0" d="M215.49,64.47L215.91,64.29L216.07,64.45L216.09,66.31L215.83,66.80L215.15,67.37L215.58,66.05z"/><path style="fill:#e5d9d0" d="M214.51,65.97L213.48,66.05L213.83,64.78L214.57,64.68z"/><path style="fill:#e5d9d0" d="M208.18,74.41L208.08,75.83L207.23,76.51L206.58,76.52L206.14,76.33L206.09,76.12L206.57,74.57L207.64,74.08z"/><path style="fill:#e5d9d0" d="M215.32,92.86L215.68,92.62L215.82,92.75L215.84,94.61L215.10,95.69L214.89,95.62L215.34,94.35z"/><path style="fill:#e5d9d0" d="M212.72,92.92L212.60,93.46L212.22,93.36L212.31,92.81L212.60,92.74z"/><path style="fill:#e5d9d0" d="M202.31,94.35L201.97,94.35L201.97,94.01L202.31,94.01z"/><path style="fill:#e5d9d0" d="M214.35,94.12L214.10,94.37L212.94,94.68L213.57,92.83L214.32,92.74z"/><path style="fill:#e2e9ed" d="M236.87,52.46L237.54,52.46L238.45,52.04L239.36,52.00L239.46,51.85L241.45,51.52L242.41,51.18L242.96,51.54L235.29,53.44L235.12,62.03L234.72,135.71L230.87,133.58L230.59,133.11L230.85,115.63L234.05,114.82L234.14,112.22L234.36,103.61L234.38,71.45L233.37,70.72L231.11,69.47L230.89,63.63L231.10,51.51L233.29,50.93L234.12,50.91z"/><path style="fill:#e2e9ed" d="M202.08,71.38L201.83,73.59L201.57,73.87L201.09,73.66L201.27,71.26L201.49,70.96L201.82,70.91z"/><path style="fill:#e2e9ed" d="M199.55,73.81L199.97,73.44L200.64,73.59L200.31,73.81L200.09,76.15L199.55,75.73z"/><path style="fill:#e2e9ed" d="M201.11,76.14L201.54,75.93L201.70,77.95L201.57,78.07L201.28,77.79z"/><path style="fill:#fff2e8" d="M238.40,50.71L238.40,50.99L238.08,51.21L235.85,51.20L235.29,50.68L235.76,50.42L237.89,50.41z"/><path style="fill:#fff2e8" d="M205.43,75.67L205.32,75.13L205.82,74.32L206.73,73.97L207.64,74.08L206.57,74.57L206.09,76.12z"/><path style="fill:#fff2e8" d="M207.50,75.74L206.72,75.82L206.80,75.05L207.57,74.97z"/><path style="fill:#0000ff" d="M212.74,64.68L213.06,64.69L213.11,65.29L212.82,65.24z"/><path style="fill:#0000ff" d="M181.80,68.18L181.82,68.63L181.20,68.98L179.85,69.18L177.99,68.98L177.37,68.63L177.50,68.04L178.16,67.70L181.02,67.70z"/><path style="fill:#0000ff" d="M212.86,93.60L212.60,93.46L212.72,92.92L212.85,93.01z"/><path style="fill:#e5e5e5" d="M241.45,51.52L239.46,51.85L240.55,51.43z"/><path style="fill:#e5e5e5" d="M239.36,52.00L238.45,52.04L239.46,51.85z"/><path style="fill:#e5e5e5" d="M202.64,54.04L201.65,54.32L201.71,53.93z"/><path style="fill:#e5e5e5" d="M202.39,92.87L201.63,92.88L202.30,92.74z"/><path style="fill:#e87008" d="M224.62,60.42L230.89,63.63L231.11,69.47L233.37,70.72L234.38,71.45L234.36,103.61L234.14,112.22L228.88,109.52L219.36,104.26L217.60,102.26L216.07,99.03L215.10,95.69L215.84,94.61L215.82,92.75L215.68,92.62L215.33,91.51L214.44,90.24L214.83,90.09L215.08,88.08L215.15,67.37L215.83,66.80L216.09,66.31L216.07,64.45L215.91,64.29L215.58,63.20L214.67,61.90L215.57,62.05L216.08,60.53L216.99,59.19L218.50,58.44L220.85,58.43z"/><path style="fill:#cdd1d5" d="M233.34,53.17L233.36,57.27L233.63,57.22L234.63,57.93L234.61,62.78L234.32,62.99L233.10,62.94L233.05,67.22L231.78,67.29L231.58,67.00L231.76,53.67L232.52,52.91z"/><path style="fill:#cdd1d5" d="M234.62,66.57L234.28,66.57L234.28,65.93L234.62,65.93z"/><path style="fill:#cdd1d5" d="M234.39,122.04L234.05,127.09L233.03,127.17L233.04,121.54L233.61,121.54z"/><path style="fill:#cdd1d5" d="M232.62,131.43L231.27,131.43L231.35,118.38L231.78,117.31L232.88,117.31z"/><path style="fill:#cdd1d5" d="M242.88,108.62L242.56,133.85L234.72,135.71L235.12,62.03L235.29,53.44L242.96,51.54L243.14,51.67z"/><path style="fill:#acacac" d="M181.79,69.57L181.20,69.98L179.85,70.08L179.85,69.18L181.20,68.98L181.82,68.63z"/><path style="fill:#ffffff" d="M207.23,76.51L208.08,75.83L208.18,74.41L208.56,74.46L208.58,75.58L207.97,76.47L207.00,77.00L205.53,76.97L205.53,76.58L206.14,76.33L206.58,76.52z"/><g id="Actor_7.0"><g style="stroke:#000000;stroke-width:0.176"><path d="M206.26,33.26L206.15,33.43L205.89,33.57L205.51,33.68L205.05,33.74L204.56,33.74L204.10,33.68L203.71,33.57L203.44,33.43L203.31,33.26"/><path d="M205.03,33.04L204.48,33.05L204.24,33.22L204.55,33.39L205.09,33.38L205.33,33.20L205.03,33.04L205.02,33.38"/><path d="M204.48,33.05L204.48,33.35"/></g><g style="stroke:#000000;stroke-width:0.529"><path d="M206.15,33.63L206.26,33.46L206.26,33.26L206.21,33.08L206.01,32.92L205.68,32.79L205.25,32.71L204.77,32.68L204.29,32.71L203.86,32.79L203.54,32.92L203.35,33.08L203.31,33.26L203.31,33.46L203.42,33.61"/></g></g><g id="Actor_7.1"><g style="stroke:#000000;stroke-width:0.176"><path d="M236.61,51.14L236.18,51.09L235.79,50.98L235.52,50.83L235.40,50.66"/><path d="M236.32,50.63L236.56,50.45L237.11,50.44L237.41,50.61L237.17,50.78L236.93,50.79L236.63,50.79L236.32,50.63"/><path d="M238.34,50.66L238.23,50.83L237.97,50.98L237.59,51.09L237.17,51.14"/><path d="M237.11,50.78L237.11,50.44"/><path d="M236.56,50.45L236.56,50.76"/></g><g style="stroke:#000000;stroke-width:0.529"><path d="M235.39,50.83L235.40,50.66L235.43,50.49L235.62,50.33L235.94,50.20L236.37,50.11L236.85,50.08L237.33,50.11L237.60,50.17L237.76,50.20L238.09,50.33L238.30,50.49L238.34,50.66L238.34,50.83"/></g></g><g id="Actor_7.2"><g style="stroke:#000000;stroke-width:0.176"><path d="M201.89,92.75L202.16,92.78L202.43,92.96L202.68,93.28L202.88,93.69L203.00,94.16L203.05,94.63L203.00,95.06L202.87,95.39L202.67,95.59"/><path d="M201.95,94.31L201.96,93.80L202.22,93.68L202.49,94.08L202.48,94.59L202.22,94.70L201.95,94.31L202.43,94.19L202.43,93.99"/><path d="M202.43,94.19L202.49,94.28"/><path d="M202.25,93.73L201.96,93.80"/><path d="M202.49,94.24L202.46,94.17L202.43,94.01L202.43,93.99"/><path d="M202.46,94.17L202.49,94.16"/><path d="M202.61,92.92L202.79,93.15"/></g><g style="stroke:#000000;stroke-width:0.529"><path d="M202.68,92.98L202.61,92.92L202.34,92.74L202.07,92.71L201.89,92.75L201.66,92.88L201.50,93.15L201.41,93.53L201.40,93.98L201.49,94.46L201.66,94.91L201.88,95.28L202.15,95.53L202.42,95.64L202.67,95.59L202.85,95.55L203.05,95.34L203.18,95.03"/></g></g><g id="Actor_11.0"><g style="stroke:#000000;stroke-width:0.176"><path d="M230.52,130.30L200.73,114.25"/></g><g style="stroke:#000000;stroke-width:0.529"><path d="M230.51,131.19L200.72,115.13L200.73,114.25L200.84,114.05"/><path d="M230.54,126.65L208.83,114.95"/></g></g><g id="Actor_9.0"><g style="stroke:#000000;stroke-width:0.176"><path d="M214.53,95.58L214.89,95.27L215.16,94.75L215.29,94.06L215.29,93.27L215.15,92.44L214.88,91.64L214.50,90.96L214.06,90.45L214.06,90.44L213.59,90.14L213.13,90.09"/></g><g style="stroke:#000000;stroke-width:0.529"><path d="M212.15,91.89L212.20,91.31L212.40,90.69L212.72,90.27L213.13,90.09L213.68,89.96L214.14,90.01L214.61,90.31L215.05,90.83L215.43,91.51L215.70,92.31L215.84,93.14L215.84,93.93L215.71,94.62L215.44,95.14L215.08,95.45L214.53,95.58L214.09,95.65L213.62,95.47L213.15,95.05L212.78,94.50"/></g></g><g id="Actor_3.0"><g style="stroke:#000000;stroke-width:0.176"><path d="M214.86,90.06L214.39,90.17"/><path d="M214.71,90.43L214.81,90.40L214.75,90.47"/><path d="M214.81,90.40L214.85,90.36L214.94,90.11"/><path d="M215.01,61.76L214.64,61.85"/><path d="M215.20,62.40L215.32,62.27L215.43,61.99"/><path d="M218.08,58.39L218.84,58.28L219.64,58.39L220.45,58.73L221.40,58.50"/><path d="M220.45,58.73L230.86,64.34"/></g><g style="stroke:#000000;stroke-width:0.529"><path d="M234.22,112.20L220.21,104.65L219.39,104.10L218.60,103.35L217.84,102.43L217.15,101.34L216.52,100.12L215.99,98.80L215.56,97.41L215.25,95.98L215.15,95.60L215.08,95.45"/><path d="M214.16,90.03L214.46,89.96L214.86,90.06L214.94,90.11L214.98,89.80L215.09,67.86L215.06,67.52L214.99,67.22"/><path d="M230.87,63.61L221.40,58.50L220.58,58.17L219.78,58.05L219.02,58.16L218.08,58.39L217.37,58.72L216.74,59.26L216.20,60.00L215.76,60.93L215.43,61.99L215.01,61.76L214.61,61.65L214.39,61.71"/></g></g><g id="Actor_6.0"><g style="stroke:#000000;stroke-width:0.176"><path d="M212.73,91.61L212.74,91.92L212.79,92.08L212.90,92.23L213.07,92.38L213.27,92.51L213.51,92.63L213.36,92.96L213.30,93.19L213.29,93.42L213.32,93.64L213.40,93.84L213.58,94.09L213.35,94.19L213.16,94.28L213.01,94.36L212.91,94.43L212.87,94.48L212.88,94.55"/><path d="M212.47,94.35L212.69,94.40L212.87,94.33L212.90,94.32L213.05,94.11L213.15,93.81L213.16,93.43L213.11,93.02L212.98,92.63L212.94,92.57L212.79,92.30L212.57,92.06L212.34,91.94L212.12,91.95L211.94,92.10"/><path d="M212.88,93.41L212.86,93.55L212.80,93.68L212.71,93.75L212.60,93.75L212.48,93.69L212.37,93.58L212.28,93.41L212.22,93.22L212.22,93.21L212.19,93.02L212.20,92.83L212.25,92.67L212.32,92.57L212.42,92.53L212.54,92.56L212.65,92.65L212.73,92.77L212.72,92.74L212.60,92.56L212.46,92.45L212.32,92.42L212.20,92.47L212.11,92.59L212.05,92.78L212.04,93.01L212.07,93.25L212.15,93.49L212.26,93.69L212.39,93.83L212.53,93.90L212.67,93.89L212.78,93.81L212.85,93.65L212.88,93.44L212.87,93.20L212.82,92.96L212.73,92.77"/><path d="M213.58,94.09L214.40,93.90"/><path d="M213.51,92.63L214.32,92.43"/></g><g style="stroke:#000000;stroke-width:0.529"><path d="M211.80,93.21L211.87,93.51L212.03,93.87L212.24,94.16L212.47,94.35L212.73,94.48L212.88,94.55L213.70,94.36L213.96,94.21L214.15,94.11L214.28,94.01L214.40,93.90L214.45,93.49L214.46,93.14L214.42,92.81L214.32,92.43L214.19,92.14L214.03,91.90L213.83,91.68L213.55,91.42L212.73,91.61L212.38,91.77L212.20,91.86L212.09,91.93L212.03,91.98L211.94,92.10L211.82,92.36L211.76,92.70L211.76,92.90L211.78,93.10L211.80,93.21"/></g></g><g id="Actor_7.3"><g style="stroke:#000000;stroke-width:0.176"><path d="M202.82,56.69L203.02,56.49L203.15,56.16L203.20,55.73L203.16,55.26L203.03,54.79L202.83,54.38L202.58,54.06L202.31,53.88L202.04,53.85"/><path d="M202.11,55.40L202.37,55.80L202.64,55.69L202.64,55.18L202.37,54.78L202.11,54.89L202.11,55.40L202.58,55.29L202.58,55.09"/><path d="M202.58,55.29L202.64,55.38"/><path d="M202.64,55.34L202.61,55.26L202.58,55.11L202.58,55.09"/><path d="M202.61,55.26L202.64,55.26"/><path d="M202.76,54.02L203.01,54.33L203.21,54.75L203.34,55.22L203.38,55.69L203.33,56.11"/><path d="M202.11,54.89L202.40,54.82"/></g><g style="stroke:#000000;stroke-width:0.529"><path d="M203.00,54.23L202.76,54.02L202.49,53.83L202.23,53.81L202.04,53.85L201.82,53.98L201.65,54.25L201.56,54.63L201.56,55.08L201.64,55.56L201.81,56.01L202.04,56.38L202.30,56.63L202.57,56.74L202.82,56.69L203.00,56.65L203.20,56.44L203.33,56.11L203.40,55.94"/></g></g><g id="Actor_5.0"><g style="stroke:#000000;stroke-width:0.176"><path d="M200.35,76.18L200.32,76.16L200.02,75.89L199.99,75.86L199.98,75.82L199.97,75.78L199.44,75.49"/><path d="M199.49,75.60L200.02,75.89"/><path d="M199.45,73.87L199.98,74.15L199.97,75.78"/><path d="M200.32,76.16L199.79,75.87"/><path d="M199.98,74.15L199.99,74.11L200.00,74.06L200.03,74.02L200.33,73.61L200.36,73.57L200.40,73.54L200.44,73.53L199.91,73.24"/><path d="M200.44,73.53L200.81,73.44L200.85,73.44L200.89,73.45L200.79,73.39"/><path d="M200.33,73.61L199.80,73.32"/><path d="M200.03,74.02L199.50,73.73"/><path d="M200.28,73.15L200.81,73.44"/><path d="M201.82,77.73L201.75,77.66L201.71,77.58L201.69,77.47L201.70,75.70L201.69,75.65L201.67,75.61L201.64,75.57L201.59,75.56L201.55,75.56L201.47,75.58L201.70,75.70"/><path d="M201.69,77.47L201.16,77.19"/><path d="M201.47,75.58L201.17,75.65"/><path d="M201.18,73.12L201.71,73.40L201.71,73.46L201.68,73.51L201.65,73.56L201.60,73.60L201.56,73.62L201.03,73.33"/><path d="M201.71,73.40L201.72,71.63L201.74,71.52L201.78,71.41L201.85,71.32L201.94,71.25L202.01,71.22"/><path d="M201.56,73.62L201.18,73.71L201.13,73.71L201.10,73.70L201.06,73.68L201.04,73.65L201.02,73.63L201.18,73.71"/><path d="M200.89,73.45L200.92,73.47L200.95,73.50L201.02,73.63"/><path d="M201.19,71.35L201.72,71.63"/><path d="M202.01,71.19L201.51,70.92"/></g><g style="stroke:#000000;stroke-width:0.529"><path d="M201.17,75.65L201.16,75.65L201.12,75.67L201.09,75.70L201.05,75.73L201.03,75.77L200.94,75.97L200.91,76.02L200.88,76.05L200.84,76.08L200.80,76.09L200.43,76.18L200.39,76.19L200.35,76.18L199.82,75.89L199.79,75.87L199.49,75.60L199.47,75.57L199.45,75.53L199.44,75.49L199.45,73.87L199.46,73.82L199.47,73.77L199.50,73.73L199.80,73.32L199.84,73.29L199.87,73.26L199.91,73.24L200.28,73.15L200.32,73.15L200.36,73.16L200.79,73.39"/><path d="M201.98,77.75L201.91,77.76L201.82,77.73L201.29,77.44L201.22,77.38L201.18,77.29L201.16,77.19L201.17,75.65"/><path d="M201.90,70.83L201.51,70.92L201.41,70.96L201.32,71.03L201.25,71.13L201.21,71.24L201.19,71.35L201.18,73.12L201.18,73.17L201.15,73.23L201.12,73.28L201.07,73.31L201.03,73.33L200.79,73.39"/></g></g><g id="Actor_11.1"><g style="stroke:#000000;stroke-width:0.176"><path d="M233.70,50.63L201.16,33.09"/><path d="M205.19,33.83L205.66,33.78L206.11,33.65L206.43,33.47L206.56,33.26L206.51,33.05L206.26,32.86L205.86,32.71L205.34,32.60L204.76,32.57L204.18,32.61L203.67,32.71L203.28,32.86L203.05,33.06L203.01,33.27L203.16,33.47L203.49,33.65L203.96,33.78L204.38,33.83"/><path d="M237.27,51.13L237.74,51.07L238.20,50.94L238.51,50.76L238.65,50.56L238.59,50.35L238.35,50.15L237.94,50.00L237.42,49.90L236.84,49.86L236.27,49.90L235.75,50.00L235.36,50.15L235.13,50.35L235.09,50.56L235.25,50.76L235.57,50.94L236.04,51.07L236.46,51.12"/><path d="M237.88,52.17L237.89,51.91L235.92,51.76"/><path d="M237.89,51.91L241.35,51.09"/></g><g style="stroke:#000000;stroke-width:0.529"><path d="M232.56,50.90L201.15,33.97L201.16,33.09L201.57,32.33L205.03,31.51L241.35,51.09L241.34,51.35"/><path d="M205.19,33.83L205.10,33.85L204.52,33.85L204.38,33.83"/><path d="M236.46,51.12L236.60,51.14L237.19,51.14L237.27,51.13"/></g></g><g id="Actor_9.1"><g style="stroke:#000000;stroke-width:0.176"><path d="M214.69,67.29L215.08,67.03L215.36,66.55L215.53,65.89L215.55,65.11L215.44,64.28L215.19,63.47L214.83,62.76L214.40,62.21L213.93,61.86L213.47,61.75"/></g><g style="stroke:#000000;stroke-width:0.529"><path d="M213.02,66.15L213.31,66.62L213.77,67.07L214.24,67.30L214.69,67.29L215.24,67.16L215.63,66.90L215.91,66.42L216.08,65.76L216.10,64.98L215.99,64.15L215.74,63.34L215.38,62.63L215.18,62.37L214.95,62.08L214.48,61.73L214.02,61.62L213.47,61.75L213.04,61.89L212.70,62.27L212.48,62.84L212.38,63.56"/></g></g><g id="Actor_10.0"><g style="stroke:#000000;stroke-width:0.176"><path d="M201.30,94.33L201.34,94.51L201.53,95.05L201.81,95.50L202.12,95.81L202.45,95.94L202.75,95.88L203.00,95.64L203.15,95.24L203.21,94.73L203.16,94.16L203.01,93.60L202.77,93.10L202.47,92.71L202.14,92.49L201.82,92.46L201.55,92.61L201.34,92.93L201.23,93.39L201.23,93.94L201.30,94.33"/><path d="M201.35,77.47L201.35,77.67L201.36,77.84L201.41,78.02L201.47,78.17L201.56,78.30L201.66,78.37L201.90,78.32"/><path d="M201.35,77.67L201.61,77.61"/><path d="M201.66,78.37L201.76,78.40L201.85,78.37L201.92,78.29L201.97,78.17L201.98,78.01L202.02,71.29L202.00,71.12L201.96,70.95L201.89,70.79L201.80,70.67L201.70,70.59L201.60,70.56L201.52,70.59L201.44,70.67L201.40,70.79L201.38,70.99"/><path d="M201.38,70.95L201.90,70.83"/><path d="M201.44,55.03L201.54,55.60L201.74,56.14L202.01,56.59L202.33,56.89L202.66,57.02L202.96,56.96L203.20,56.72L203.36,56.33L203.42,55.82L203.37,55.25L203.21,54.68L202.97,54.18L202.67,53.80L202.35,53.58L202.03,53.54L201.75,53.69L201.55,54.02L201.44,54.48L201.44,55.03"/><path d="M204.65,35.86L204.22,116.05"/><path d="M205.40,75.57L205.26,75.60L205.01,75.47"/><path d="M205.26,75.60L205.06,75.61L204.99,75.59"/><path d="M205.10,76.33L205.03,76.21L204.97,75.75L205.04,75.27L205.23,74.80L205.54,74.39L205.91,74.08L206.33,73.91L207.28,73.68L207.70,73.66L208.07,73.79L208.37,74.05L208.56,74.43L208.62,74.88L208.55,75.37L208.36,75.84L208.06,76.25L207.68,76.55L207.26,76.73L206.32,76.95L205.90,76.98L205.52,76.85L205.22,76.58L205.10,76.33"/><path d="M206.23,76.14L205.26,76.38L205.13,76.39"/><path d="M205.26,76.38L206.32,76.95"/><path d="M206.20,76.15L207.26,76.73"/><path d="M207.41,73.68L207.47,73.81"/></g><g style="stroke:#000000;stroke-width:0.529"><path d="M208.83,114.95L204.22,116.05L200.83,114.22L201.04,75.76"/><path d="M201.26,34.03L201.05,73.32"/></g></g><g id="Actor_2.0"><g style="stroke:#000000;stroke-width:0.176"><path d="M205.03,31.44L241.62,51.17L241.62,51.28"/><path d="M241.62,51.17L242.41,50.98"/></g><g style="stroke:#000000;stroke-width:0.529"><path d="M242.41,51.10L242.41,50.98L205.81,31.26L205.03,31.44L205.03,31.51"/></g></g><g id="Actor_8.0"><g style="stroke:#000000;stroke-width:0.176"><path d="M206.22,75.60L206.21,75.56L206.19,75.38L206.21,75.20L206.31,74.83L206.51,74.50L206.78,74.24L207.09,74.08L207.41,74.03L207.71,74.11L207.94,74.30L208.09,74.58L208.14,74.92L208.10,75.24L208.09,75.29L207.93,75.64L207.70,75.94L207.40,76.16L207.08,76.26L206.77,76.25L206.50,76.12L206.31,75.88L206.22,75.60"/><path d="M207.69,73.93L207.36,73.84L207.00,73.89L206.65,74.08L206.61,74.12L206.34,74.37L206.12,74.75L206.00,75.16L205.98,75.37L206.00,75.57L206.11,75.93L206.33,76.19"/><path d="M205.24,74.79L205.24,74.97"/><path d="M207.23,75.12L206.74,75.55L207.17,75.78L207.65,75.35L207.23,75.12L207.23,74.55"/><path d="M207.17,75.78L206.68,75.58L206.69,74.95L207.17,74.52L207.65,74.72L207.65,75.35"/><path d="M206.74,75.55L206.68,75.53"/><path d="M207.15,74.54L207.20,74.64L207.23,74.81L207.20,74.99L207.12,75.17L207.01,75.32L206.98,75.34L206.86,75.42L206.70,75.47L206.68,75.47"/><path d="M207.20,74.64L206.97,74.71"/><path d="M207.20,74.99L206.77,74.88"/></g><g style="stroke:#000000;stroke-width:0.529"><path d="M205.24,74.97L205.23,75.16L205.35,75.51L205.57,75.78L206.33,76.19L206.64,76.35L206.99,76.36L207.35,76.24L207.68,76.00L207.95,75.66L208.12,75.26L208.18,74.84L208.13,74.46L207.96,74.14L207.69,73.93L207.25,73.69"/><path d="M205.18,74.94L205.24,74.97"/></g></g><g id="Actor_4.0"><g style="stroke:#000000;stroke-width:0.176"><path d="M177.30,68.13L177.38,68.40L177.69,68.64L178.20,68.84L178.20,68.84L178.87,68.97L179.61,69.01L180.34,68.97L181.00,68.84L181.50,68.64L181.79,68.39L181.84,68.12"/></g><g style="stroke:#000000;stroke-width:0.529"><path d="M178.20,69.83L177.68,69.63L177.37,69.39L177.30,69.12L177.30,68.13L177.48,67.87L177.88,67.64L178.46,67.47L179.17,67.39L179.92,67.39L180.63,67.47L181.23,67.64L181.46,67.74L181.65,67.86L181.84,68.12L181.83,69.12L181.78,69.38L181.49,69.63L180.99,69.83L180.34,69.96L179.60,70.00L178.86,69.96L178.20,69.83"/></g></g><g id="Actor_2.1"><g style="stroke:#000000;stroke-width:0.176"><path d="M212.84,93.59L212.75,93.52"/><path d="M212.66,93.38L212.66,93.38"/><path d="M212.59,92.64L212.60,92.61"/><path d="M212.57,92.70L212.61,92.62"/></g><g style="stroke:#000000;stroke-width:0.529"><path d="M212.66,93.38L212.75,93.52L212.81,93.57"/><path d="M212.66,93.38L212.59,93.22L212.55,93.03L212.54,92.86L212.57,92.70L212.59,92.64"/><path d="M212.60,92.61L212.59,92.64"/></g></g><g id="Actor_2.2"><g style="stroke:#000000;stroke-width:0.176"><path d="M213.07,65.32L213.01,65.30L212.90,65.22"/><path d="M212.75,64.31L212.74,64.33"/><path d="M212.72,64.40L212.78,64.28L212.81,64.26"/><path d="M212.78,64.26L212.77,64.29"/></g><g style="stroke:#000000;stroke-width:0.529"><path d="M212.95,65.26L212.90,65.22L212.81,65.08L212.74,64.92L212.70,64.73L212.69,64.55L212.72,64.40L212.74,64.33L212.77,64.29"/></g></g><g id="Actor_6.1"><g style="stroke:#000000;stroke-width:0.176"><path d="M212.76,66.04L212.99,66.07L213.18,65.97L213.33,65.74L213.40,65.41L213.41,65.25L213.41,65.03L213.34,64.62L213.20,64.24L213.11,64.07L213.00,63.92L212.78,63.70L212.55,63.61L212.34,63.65L212.16,63.81"/><path d="M212.94,65.42L212.87,65.43L212.75,65.39L212.64,65.28L212.55,65.12L212.48,64.93L212.44,64.73L212.44,64.54L212.48,64.38L212.56,64.26L212.65,64.21L212.77,64.22L212.88,64.30L212.97,64.42L212.95,64.38L212.82,64.21L212.68,64.12L212.55,64.10L212.43,64.16L212.34,64.30L212.29,64.49L212.29,64.73L212.34,64.97L212.42,65.20L212.54,65.39L212.67,65.52L212.81,65.58L212.94,65.56L213.04,65.46L213.11,65.29L213.14,65.07L213.13,65.05L213.12,65.19L213.06,65.33L212.98,65.41L212.94,65.42"/><path d="M212.98,66.15L213.01,66.14L213.09,66.12L213.21,66.08L213.38,66.04L213.77,65.93L213.59,65.64L213.54,65.43L213.54,65.22L213.59,65.01L213.69,64.77L213.83,64.53L213.78,64.50L213.54,64.35L213.34,64.17L213.21,64.01L213.13,63.83L213.10,63.61L213.12,63.36"/><path d="M213.77,65.93L214.58,65.74"/><path d="M213.83,64.53L214.64,64.34"/><path d="M213.13,65.05L213.11,64.83L213.05,64.59L212.97,64.42"/></g><g style="stroke:#000000;stroke-width:0.529"><path d="M212.32,65.61L212.53,65.88L212.76,66.04L212.98,66.15L213.00,66.16L213.81,65.96L214.10,65.88L214.29,65.83L214.45,65.78L214.58,65.74L214.67,65.34L214.71,65.02L214.70,64.70L214.64,64.34L214.53,64.00L214.38,63.73L214.20,63.46L213.93,63.16L213.12,63.36L212.88,63.42L212.66,63.48L212.51,63.52L212.41,63.55L212.35,63.57L212.34,63.58L212.16,63.81L212.05,64.09L212.01,64.45L212.04,64.85L212.15,65.26L212.32,65.61"/></g></g><g id="Actor_1.0"><g style="stroke:#000000;stroke-width:0.176"><path d="M231.21,118.74L232.72,118.39L232.79,117.70L232.97,117.14L232.55,116.92L232.12,116.90L231.75,117.09L231.47,117.49L231.28,118.06L231.21,118.74L231.15,130.42L231.21,131.17L231.39,131.94L231.67,132.64L232.04,133.24L232.46,133.67L232.89,133.90L233.31,133.92L233.68,133.73L233.97,133.33L234.16,132.76L234.22,132.07L234.23,131.25L234.16,131.22L234.03,131.09L233.91,130.90L233.83,130.67L233.78,130.43L233.78,130.19L233.83,130.00L233.92,129.86L234.03,129.79L234.17,129.81L234.24,129.86L234.24,128.39L233.20,127.83L233.07,127.73L232.96,127.56L232.86,127.36L232.80,127.13L232.79,126.90L234.25,126.55"/><path d="M231.15,130.42L232.66,130.06L232.72,118.39"/><path d="M233.77,116.88L233.91,116.91L234.02,116.88L234.09,116.80L233.77,116.88L231.02,115.39L230.89,115.36"/><path d="M231.02,115.39L234.21,114.63L234.20,116.40L234.18,116.61L234.12,116.77L234.09,116.80"/><path d="M231.73,67.80L232.01,68.51L232.38,69.10L232.80,69.53L233.12,69.70L233.23,69.77L233.65,69.79L234.02,69.59L234.31,69.19L234.32,69.18L233.89,68.74L233.52,68.15L233.24,67.44L233.22,67.38L233.06,66.68L233.00,65.92L231.49,66.28L231.55,67.04L231.73,67.80"/><path d="M231.49,66.28L231.55,54.61L231.62,53.92L231.80,53.35L232.09,52.95L232.46,52.76L232.89,52.78L233.31,53.01L233.13,53.56L233.06,54.25L233.00,65.92"/><path d="M231.55,54.61L233.06,54.25"/><path d="M234.63,135.54L235.07,53.25L231.36,51.26L233.87,50.66"/><path d="M231.36,51.26L231.23,51.22"/><path d="M233.98,133.32L233.55,132.88L233.18,132.28L232.90,131.58L232.72,130.82L232.66,130.06"/><path d="M232.79,126.90L232.81,121.66L233.73,121.44"/><path d="M232.81,121.66L232.83,121.45L232.90,121.28L232.99,121.18L233.12,121.15L233.24,121.18L234.28,121.74L234.29,120.40L234.28,120.28L234.22,120.25L234.08,120.12L233.97,119.93L233.88,119.70L233.84,119.46L233.84,119.23L233.89,119.04L233.97,118.89L234.04,118.86L233.77,118.18L233.40,117.58L232.97,117.14"/><path d="M234.23,131.25L234.24,129.86"/><path d="M233.20,127.83L234.25,127.59L234.24,128.39"/><path d="M234.04,118.86L234.23,119.64L234.28,120.28"/><path d="M234.21,114.63L234.21,114.57"/><path d="M234.58,65.72L234.51,65.67L234.37,65.66L234.25,65.72L234.17,65.86L234.12,66.05L234.12,66.29L234.16,66.53L234.25,66.76L234.37,66.95L234.50,67.08L234.57,67.11"/><path d="M234.07,57.31L233.15,57.52L233.12,62.76L233.14,62.99L233.20,63.22L233.30,63.43L233.41,63.59L233.54,63.70L234.58,64.26"/><path d="M233.54,63.70L234.59,63.45"/><path d="M233.12,62.76L234.59,62.41"/><path d="M233.15,57.52L233.17,57.32L233.23,57.15L233.33,57.05L233.45,57.01L233.58,57.04L234.62,57.60L234.56,67.94L234.50,68.63L234.32,69.18"/><path d="M233.31,53.01L233.74,53.45L234.11,54.04L234.38,54.72L234.31,54.75L234.23,54.89L234.18,55.09L234.18,55.32L234.22,55.57L234.31,55.80L234.42,55.99L234.56,56.12L234.62,56.14L234.63,56.26L234.62,57.60"/><path d="M234.28,121.74L234.25,127.59"/><path d="M234.62,56.14L234.57,55.51L234.38,54.72"/><path d="M235.07,53.25L243.09,51.35"/><path d="M240.63,51.52L237.05,52.37L234.92,51.22"/></g><g style="stroke:#000000;stroke-width:0.529"><path d="M240.63,51.52L242.56,51.06L243.09,51.35L242.65,133.63L234.63,135.54L230.92,133.54L230.79,133.44L230.68,133.27L230.58,133.07L230.52,132.84L230.50,132.61L230.59,115.87L230.61,115.67L230.68,115.50L230.77,115.39L230.89,115.36L234.21,114.57L234.23,110.05L234.44,71.82L234.42,71.59L234.36,71.37L234.27,71.16L234.15,70.99L234.02,70.89L231.26,69.40L231.13,69.30L231.01,69.13L230.92,68.93L230.86,68.70L230.84,68.47L230.93,51.73L230.95,51.53L231.01,51.36L231.11,51.26L233.74,50.62L233.87,50.66L234.92,51.22"/></g></g><g/><g><g/><g><path style="fill:#ffffff" d="M31.40,15.34L80.47,15.34L80.47,26.63L31.40,26.63z"/><text xml:space="preserve" fill="#000000" stroke-width="0" x="32.81" y="23.10" font-size="6.88" opacity="1.00" font-family="MS Shell Dlg">0010-ASM-001</text></g></g><g><g/><g><path style="fill:#ffffff" d="M6.53,180.00L136.05,180.00L136.05,199.05L6.53,199.05z"/><text xml:space="preserve" fill="#000000" stroke-width="0" x="7.59" y="185.82" font-size="5.18" opacity="1.00" font-family="MS Shell Dlg">a) Insert Door latch head in the slot so that the head will</text><text xml:space="preserve" fill="#000000" stroke-width="0" x="7.59" y="191.11" font-size="5.17" opacity="1.00" font-family="MS Shell Dlg">protrude from the Door internal catcher.</text><text xml:space="preserve" fill="#000000" stroke-width="0" x="7.59" y="196.40" font-size="5.17" opacity="1.00" font-family="MS Shell Dlg">b) Tighten the head to the catcher</text></g></g><g><g/><g><path style="fill:#ffffff" d="M168.00,180.00L286.84,180.00L286.84,193.76L168.00,193.76z"/><text xml:space="preserve" fill="#000000" stroke-width="0" x="169.06" y="185.82" font-size="5.18" opacity="1.00" font-family="MS Shell Dlg">a) 将门锁头插入槽中，使 头从门内部固定器中伸 出。</text><text xml:space="preserve" fill="#000000" stroke-width="0" x="169.06" y="191.11" font-size="5.16" opacity="1.00" font-family="MS Shell Dlg">b) 将头部拧紧到捕手上</text></g></g><g><g/><g><image x="81.791481" y="12.409999" height="15.000001" width="15.000001" xlink:href="32_files/867b47225d033d36_image_0.jpg"/></g></g><g><g/><g><image x="14.662904" y="13.167144" height="15.000001" width="15.000001" xlink:href="32_files/867b47225d033d36_image_1.jpg"/></g></g><g id="paperID" visibility="hidden" opacity="0.00" transform="scale(0.000100)"><path style="stroke:#000000;stroke-width:0.500;fill:#e6e6e6;fill-rule:evenodd" d="M-2000.00,-2000.00L2297.00,-2000.00L2297.00,2210.00L-2000.00,2210.00zM0.00,0.00L297.00,0.00L297.00,210.00L0.00,210.00z"/><path style="fill:#000000;fill-opacity:0.118" d="M3.00,210.00L297.00,210.00L297.00,3.00L300.00,3.00L300.00,213.00L3.00,213.00z"/></g><g id="hotspot.0" ident="" onmouseover="ShowHotSpot(evt,&apos;0&apos;)" onmouseout="HideHotSpot(evt,&apos;0&apos;)" onmousemove="ShowToolTip(evt,&apos;0&apos;,&quot;Copy 1 of Copy 1 of  6&quot;)" opacity="0"><a xlink:href="33.svg"><path style="fill:#00ff00;fill-rule:evenodd" d="M96.65,27.07L81.83,27.07L81.83,12.25L96.65,12.25z"/></a></g><g id="hotspot.1" ident="" onmouseover="ShowHotSpot(evt,&apos;1&apos;)" onmouseout="HideHotSpot(evt,&apos;1&apos;)" onmousemove="ShowToolTip(evt,&apos;1&apos;,&quot;Copy 1 of Copy 1 of Copy 1 of  6&quot;)" opacity="0"><a xlink:href="31.svg"><path style="fill:#00ff00;fill-rule:evenodd" d="M29.62,27.92L14.79,27.92L14.79,13.10L29.62,13.10z"/></a></g><g id="hotspot.2" ident="" onmouseover="ShowHotSpot(evt,&apos;2&apos;)" onmouseout="HideHotSpot(evt,&apos;2&apos;)" onmousemove="ShowToolTip(evt,&apos;2&apos;,&quot;0038_Door internal-hinges&quot;)" opacity="0"><path style="fill:#00ff00;fill-rule:evenodd" d="M236.35,51.88L238.27,51.87L241.95,51.01L242.88,50.99L242.88,98.90L242.59,133.41L236.01,135.03L234.09,135.03L231.01,133.31L230.72,133.03L230.71,115.30L234.03,114.38L234.41,71.36L233.84,70.51L231.55,69.41L230.97,68.86L230.98,51.09L233.83,50.42z"/></g><g id="hotspot.3" ident="" onmouseover="ShowHotSpot(evt,&apos;3&apos;)" onmouseout="HideHotSpot(evt,&apos;3&apos;)" onmousemove="ShowToolTip(evt,&apos;3&apos;,&quot;0578_Door internal catcher_V2&quot;)" opacity="0"><path style="fill:#00ff00;fill-rule:evenodd" d="M209.25,38.25L208.93,104.28L208.65,114.74L205.45,115.50L203.55,115.51L201.02,114.08L201.01,88.15L201.31,77.33L201.86,77.43L201.86,70.79L201.31,70.89L201.28,34.67L201.59,34.02zM203.29,54.67L203.19,56.40L202.16,56.39L201.84,55.84L201.77,53.82L202.74,53.81zM208.11,74.19L208.11,75.15L207.71,75.90L206.09,75.92L205.55,75.62L205.45,74.20L206.57,73.62L207.53,73.61zM203.01,93.42L203.00,95.25L201.87,95.13L201.56,94.59L201.57,92.66L202.44,92.55z"/></g><g id="hotspot.4" ident="" onmouseover="ShowHotSpot(evt,&apos;4&apos;)" onmouseout="HideHotSpot(evt,&apos;4&apos;)" onmousemove="ShowToolTip(evt,&apos;4&apos;,&quot;0579_Door edge_V2&quot;)" opacity="0"><path style="fill:#00ff00;fill-rule:evenodd" d="M241.22,50.76L241.21,51.07L238.27,51.87L236.35,51.88L233.83,50.42L232.12,50.46L201.20,33.84L201.28,32.69L201.75,32.04L204.04,31.49L205.27,31.48zM203.55,115.51L205.45,115.50L208.00,114.94L209.23,114.92L230.46,126.50L230.46,130.86L200.92,115.02L201.02,114.06zM206.16,32.89L206.04,33.47L203.53,33.47L203.53,32.72L205.86,32.59zM238.39,50.41L238.29,50.72L235.49,50.72L235.51,50.28L236.28,49.85L237.22,49.87z"/></g><g id="hotspot.5" ident="" onmouseover="ShowHotSpot(evt,&apos;5&apos;)" onmouseout="HideHotSpot(evt,&apos;5&apos;)" onmousemove="ShowToolTip(evt,&apos;5&apos;,&quot;0078_Door front&quot;)" opacity="0"><path style="fill:#00ff00;fill-rule:evenodd" d="M242.31,50.72L241.97,51.05L241.40,51.10L240.63,50.43L205.22,31.46L205.16,31.19L206.12,31.19zM232.17,50.48L232.17,50.80L230.98,51.09L230.74,63.26L220.83,58.07L218.46,58.08L217.61,58.36L216.45,59.46L215.43,61.58L213.64,61.46L213.07,61.74L212.31,63.25L212.34,65.43L213.75,66.85L214.88,67.13L214.91,89.84L213.65,89.75L212.62,90.15L212.04,91.82L212.05,93.72L213.47,95.13L215.16,95.41L216.00,98.54L217.45,101.61L219.42,103.88L230.72,110.12L234.14,112.08L234.03,114.38L230.71,115.30L230.46,126.34L208.85,114.74L209.22,50.82L209.50,38.25z"/></g><g id="hotspot.6" ident="" onmouseover="ShowHotSpot(evt,&apos;6&apos;)" onmouseout="HideHotSpot(evt,&apos;6&apos;)" onmousemove="ShowToolTip(evt,&apos;6&apos;,&quot;0109_printer door window&quot;)" opacity="0"><path style="fill:#00ff00;fill-rule:evenodd" d="M230.74,63.43L230.97,68.86L231.55,69.41L233.84,70.51L234.41,71.36L234.14,111.91L219.71,104.17L217.70,101.93L216.00,98.54L215.43,96.56L215.43,94.93L215.74,94.40L215.74,92.01L214.80,90.03L215.17,66.95L216.02,65.83L216.01,64.01L215.10,61.76L215.73,61.01L216.45,59.46L217.61,58.36L218.46,58.08L220.83,58.07z"/></g><g id="hotspot.7" ident="" onmouseover="ShowHotSpot(evt,&apos;7&apos;)" onmouseout="HideHotSpot(evt,&apos;7&apos;)" onmousemove="ShowToolTip(evt,&apos;7&apos;,&quot;0121_Neodynium magnet D12 T3&quot;)" opacity="0"><path style="fill:#00ff00;fill-rule:evenodd" d="M181.80,67.96L181.70,69.41L180.57,69.68L178.66,69.68L177.53,69.41L177.45,67.70L177.99,67.39L181.23,67.40z"/></g><g id="hotspot.8" ident="" onmouseover="ShowHotSpot(evt,&apos;8&apos;)" onmouseout="HideHotSpot(evt,&apos;8&apos;)" onmousemove="ShowToolTip(evt,&apos;8&apos;,&quot;0202_Door latch head&quot;)" opacity="0"><path style="fill:#00ff00;fill-rule:evenodd" d="M201.02,73.19L201.31,70.87L201.86,70.78L201.86,77.44L201.30,77.35L201.01,75.88L200.16,75.94L199.61,75.61L199.56,73.41L199.81,73.05z"/></g><g id="hotspot.9" ident="" onmouseover="ShowHotSpot(evt,&apos;9&apos;)" onmouseout="HideHotSpot(evt,&apos;9&apos;)" onmousemove="ShowToolTip(evt,&apos;9&apos;,&quot;0244_M4 Torque prevailing nut&quot;)" opacity="0"><path style="fill:#00ff00;fill-rule:evenodd" d="M214.60,64.00L214.59,65.52L213.96,65.74L212.61,65.72L212.33,65.43L212.24,63.46L213.09,63.16L214.05,63.14zM214.32,92.29L214.31,93.81L213.97,94.04L212.33,94.00L212.05,93.72L212.05,91.83L212.50,91.44L213.77,91.43z"/></g><g id="hotspot.10" ident="" onmouseover="ShowHotSpot(evt,&apos;10&apos;)" onmouseout="HideHotSpot(evt,&apos;10&apos;)" onmousemove="ShowToolTip(evt,&apos;10&apos;,&quot;0250_M4X8 socket countersunk head screw&quot;)" opacity="0"><path style="fill:#00ff00;fill-rule:evenodd" d="M206.16,32.89L206.04,33.47L203.53,33.47L203.53,32.72L205.86,32.59zM238.39,50.41L238.29,50.72L235.49,50.72L235.51,50.28L236.28,49.85L237.22,49.87zM203.29,54.67L203.19,56.40L202.16,56.39L201.84,55.84L201.77,53.82L202.74,53.81zM203.01,93.42L203.00,95.25L201.87,95.13L201.56,94.59L201.57,92.66L202.44,92.55z"/></g><g id="hotspot.11" ident="" onmouseover="ShowHotSpot(evt,&apos;11&apos;)" onmouseout="HideHotSpot(evt,&apos;11&apos;)" onmousemove="ShowToolTip(evt,&apos;11&apos;,&quot;0253_M4X10 socket head cap screw&quot;)" opacity="0"><path style="fill:#00ff00;fill-rule:evenodd" d="M208.11,74.19L208.11,75.15L207.71,75.90L206.09,75.92L205.55,75.62L205.45,74.20L206.57,73.62L207.53,73.61z"/></g><g id="hotspot.12" ident="" onmouseover="ShowHotSpot(evt,&apos;12&apos;)" onmouseout="HideHotSpot(evt,&apos;12&apos;)" onmousemove="ShowToolTip(evt,&apos;12&apos;,&quot;0367_M4 nylon washer&quot;)" opacity="0"><path style="fill:#00ff00;fill-rule:evenodd" d="M214.89,61.75L216.01,64.01L216.02,65.83L215.35,66.85L213.75,66.84L213.10,66.00L214.59,65.52L214.60,64.00L214.05,63.14L212.51,63.27L212.58,62.40L213.45,61.54L214.31,61.45zM214.61,90.03L215.74,92.01L215.74,94.39L215.35,95.13L213.47,95.13L212.81,94.28L214.31,93.81L214.32,92.29L213.77,91.43L212.31,91.56L212.30,90.69L212.79,90.04L214.03,89.73z"/></g><g id="ToolTip" visibility="hidden" opacity="0" transform="translate(0,0)"><rect id="ToolTipShadow" opacity="0.20" fill="black" stroke="none" x="0" y="0" width="30" height="8"/><rect id="ToolTipBG" fill="#ffffe1" stroke="black" x="0" y="0" width="30" height="8"/><text xml:space="preserve" id="ToolTipText" fill="black" x="0" y="0" width="30" height="8">tooltip</text></g></g></svg>