<?xml version="1.0" encoding="UTF-8" standalone="yes"?><svg xmlns="http://www.w3.org/2000/svg" xmlns:xlink="http://www.w3.org/1999/xlink" width="297.000mm" height="210.000mm" viewBox="0.000000 0.000000 297.000000 210.000000" stroke-linejoin="round" stroke-linecap="round" fill="none" fill-rule="evenodd"><desc>Composer Export</desc><script type="text/ecmascript"><![CDATA[
if(typeof(top) != "undefined")
{
	top.ShowPaper = ShowPaper;
}
function ShowHotSpot(evt,hotspotid)
{
	var svgDocument = evt.target.ownerDocument;
	var strId = "hotspot."+hotspotid;
	var hotspot = svgDocument.getElementById(strId);
	if(hotspot)
		hotspot.setAttribute("opacity",".5");
}
function HideHotSpot(evt,hotspotid)
{
	var svgDocument = evt.target.ownerDocument;
	var strId = "hotspot."+hotspotid;
	var hotspot = svgDocument.getElementById(strId);
	if(hotspot)
		hotspot.setAttribute("opacity","0");

	var toolTip = svgDocument.getElementById('ToolTip');
	if(toolTip)
		toolTip.setAttribute("visibility","hidden");
}
function ShowToolTip(evt,hotspotid,strTooltip)
{
	if(strTooltip=="")
	return;

	// change text
	var svgDocument = evt.target.ownerDocument;
	var tiptext = svgDocument.getElementById('ToolTipText');
	if( !tiptext )
	return;
	tiptext.firstChild.nodeValue = " " + strTooltip + "  " ;

	// show tooltip before, else some refresh issue

	var toolTip = svgDocument.getElementById('ToolTip');
	if(!toolTip)
	return;

	toolTip.setAttribute("visibility","visible");
	toolTip.setAttribute("opacity",".95");

	// move tooltip
	// get viewbox

	var root = svgDocument.documentElement;
	var vbox = (root.getAttribute("viewBox")).split(' ');
	var x0 = parseFloat(vbox[0]);
	var y0 = parseFloat(vbox[1]);
	var vboxW = parseFloat(vbox[2]);
	var vboxH = parseFloat(vbox[3]);

	// get default width of svg

	var strW = root.getAttribute("width");
	var svgW = parseFloat(strW);
	if(strW.indexOf('mm') != -1)
	svgW *= 3.779;

	var strH = root.getAttribute("height");
	var svgH = parseFloat(strH);
	if(strH.indexOf('mm') != -1)
	svgH *= 3.779;  	// 96 dpi  -> 96/25.4 = 3.779

	// update the viewbox / width / height if svg is embedded in html with zoom fit all
	var realx0 = x0;
	var realy0 = y0;
	var realvboxW = vboxW;
	var realvboxH = vboxH;
	var realsvgW = svgW;
	var realsvgH = svgH;

	if ((typeof(top) == "undefined") || (typeof(top.svgctl1) != "undefined")) // embedded in html
	{
		// get window size in pxl

		svgW = window.innerWidth;
		svgH = window.innerHeight;

		// calculate real viewbox

		realsvgW = svgW;
		realsvgH = svgH;
		if((svgW / svgH) > (vboxW / vboxH))
		{
			realvboxW = (vboxH * svgW) / svgH;
			realvboxH = vboxH;
			realx0 = x0 - (realvboxW - vboxW)/2 ;
		}
		else
		{
			realvboxH = (vboxW * svgH) / svgW;
			realvboxW = vboxW;
			realy0 = y0 - (realvboxH - vboxH)/2 ;
		}
	}

	// get user zoom/pan

	var newScale = root.currentScale;
	var translation = root.currentTranslate;

	// transform pxl to user unit

	var xPos = (((evt.clientX+10- translation.x)/newScale) * realvboxW)/realsvgW  + realx0 ;
	var yPos = (((evt.clientY+5- translation.y)/newScale) * realvboxH)/ realsvgH  + realy0 ;
	var scaleForWidth = ( (1 / newScale) * realvboxH) / realsvgH;

	// move tooltip

	toolTip.setAttribute("transform", "translate(" + xPos + "," + yPos + ")" );

	// resize tooltip

	var fontsize = 12;
	tiptext.setAttribute("font-size",fontsize*scaleForWidth);
	tiptext.setAttribute("y", fontsize*scaleForWidth);
	var tipBG = svgDocument.getElementById('ToolTipBG');
	var outline = tiptext.getBBox();
	if(tipBG)
	{
		tipBG.setAttribute("stroke-width", 1*scaleForWidth);
		tipBG.setAttribute("width", Number(outline.width) );
		tipBG.setAttribute("height", Number(outline.height) + fontsize*.5*scaleForWidth );
	}
	var ToolTipShadow = svgDocument.getElementById('ToolTipShadow');
	if(ToolTipShadow)
	{
		ToolTipShadow.setAttribute("width", Number(outline.width) );
		ToolTipShadow.setAttribute("height", Number(outline.height) + fontsize*.5*scaleForWidth );
		ToolTipShadow.setAttribute("x", 3*scaleForWidth);
		ToolTipShadow.setAttribute("y", 3*scaleForWidth);
	}
}
function ShowPaper()
{
  var svgDocument = getDocument();
  var paper = svgDocument.getElementById("paperID");
  if(paper)
  {
    paper.setAttribute("transform","scale(1)");
    paper.setAttribute("opacity","1");
    paper.setAttribute("visibility","visible");
  }
  var svg = svgDocument.getRootElement();
  if(svg)
  {
    svg.setAttribute("width","307.000mm");
    svg.setAttribute("height","220.000mm");
    svg.setAttribute("viewBox","-5.000000 -5.000000 307.000000 220.000000");
  }
}
]]></script><defs/><g><path style="fill:#ffffff" d="M297.00,210.08L0.07,210.08L0.07,0.07L297.00,0.07z"/><path style="fill:#e5e5e5" d="M215.40,117.51L195.28,145.44L194.31,145.34L194.05,145.10L189.28,144.11L188.19,142.84L207.14,116.52z"/><path style="fill:#e5d9d0" d="M194.32,142.11L194.22,142.60L193.22,143.12L191.51,143.13L190.77,142.59L190.77,141.97L191.17,141.53L193.63,141.32L193.81,141.36z"/><path style="fill:#e2e9ed" d="M225.37,10.86L224.85,98.10L224.62,104.71L213.49,102.50L210.39,106.52L210.23,106.40L210.11,102.70L210.10,100.69L210.48,85.99L213.09,82.34L213.36,44.09L213.37,34.05L213.34,30.39L213.11,30.45L210.91,33.53L210.73,33.48L210.61,30.56L210.61,20.04L210.81,13.43L211.47,12.08L213.98,8.56z"/><path style="fill:#e2e9ed" d="M188.05,93.78L188.52,93.87L188.79,91.85L189.10,91.46L189.31,91.41L189.29,98.92L188.96,99.07L188.84,99.38L188.69,99.36L188.54,97.01L188.37,96.71L188.77,96.26L188.31,96.01L187.93,96.25L186.97,96.26L186.60,96.74L186.27,96.53L186.28,93.85L186.94,93.23L187.53,93.23z"/><path style="fill:#e5e5e5" d="M192.45,93.26L193.05,93.15L192.85,94.13L192.49,93.79z"/><path style="fill:#e5e5e5" d="M221.59,105.04L223.18,105.14L223.71,105.26L224.10,105.63L219.22,112.22L219.21,107.70L219.67,107.41L220.11,107.16L219.72,106.72L219.34,106.27L218.59,106.04L217.25,106.04L216.33,106.36L216.33,107.56L216.85,107.71L216.85,114.65L216.50,115.06L213.32,115.06L208.65,114.43L213.91,107.25L215.26,105.54L215.93,104.66L219.08,104.54z"/><path style="fill:#0000ff" d="M201.63,69.34L202.35,69.59L202.06,70.56L201.69,70.93L201.04,69.71L201.08,70.71L201.33,71.18L200.67,70.91L199.79,69.96L199.68,69.98L200.07,70.91L199.22,70.55L199.29,69.28L200.84,69.15z"/><path style="fill:#0000ff" d="M201.39,101.66L202.11,101.94L202.08,102.39L201.47,103.28L200.12,103.27L199.03,103.05L199.02,101.83L199.22,101.53L200.59,101.47z"/><path style="fill:#fff2e8" d="M189.03,72.80L189.26,71.53L189.96,70.67L190.27,70.69L190.29,72.81L189.68,74.24L189.22,74.33L189.00,74.01z"/><path style="fill:#fff2e8" d="M195.89,92.22L196.56,93.25L196.58,94.10L196.14,94.50L195.21,94.50L194.62,94.75L193.02,94.28L192.85,94.13L193.05,93.15L193.61,92.47L194.20,92.00L195.29,92.01z"/><path style="fill:#fff2e8" d="M190.05,115.26L190.04,117.15L189.43,118.58L188.95,118.67L189.02,116.13L189.67,115.03z"/><path style="fill:#fff2e8" d="M193.63,141.32L191.17,141.53L191.41,141.08L193.31,141.08z"/><path style="fill:#fff2e8" d="M193.00,142.35L192.17,142.43L192.16,142.12L193.05,142.09z"/><path style="fill:#cdd1d5" d="M213.59,11.85L213.59,13.70L212.30,13.63L211.74,13.43L212.24,11.85L213.10,11.09z"/><path style="fill:#cdd1d5" d="M210.91,33.53L213.11,30.45L213.34,30.39L213.37,34.05z"/><path style="fill:#cdd1d5" d="M213.09,84.73L213.09,86.84L211.80,86.77L211.23,86.56L211.29,86.09L212.34,84.31L212.81,84.23z"/><path style="fill:#cdd1d5" d="M188.77,96.26L188.37,96.71L187.25,96.87L186.60,96.74L186.97,96.26L187.93,96.25L188.31,96.01z"/><path style="fill:#cdd1d5" d="M189.30,99.13L188.84,99.38L188.96,99.07L189.29,98.92z"/><path style="fill:#cdd1d5" d="M224.62,104.71L224.54,105.04L223.71,105.26L223.18,105.14L216.52,103.78L215.93,104.66L215.26,105.54L213.91,107.25L210.39,106.52L213.49,102.50z"/><path style="fill:#e5d9d0" d="M189.53,72.02L189.80,71.99L189.80,72.53L189.53,72.51z"/><path style="fill:#e5d9d0" d="M194.53,93.35L194.48,92.76L194.75,92.70z"/><path style="fill:#e5d9d0" d="M196.06,94.84L194.62,94.75L195.21,94.50L196.14,94.50z"/><path style="fill:#e5d9d0" d="M219.34,106.27L219.72,106.72L219.67,107.41L219.21,107.70L219.07,106.80L218.91,106.76L218.33,106.33L217.67,106.49L217.43,106.52L217.26,106.53L216.85,107.71L216.33,107.56L216.33,106.36L217.25,106.04L218.59,106.04z"/><path style="fill:#e5d9d0" d="M189.51,116.89L189.19,116.82L189.57,116.32z"/><path style="fill:#e87008" d="M202.15,68.87L201.63,69.34L200.84,69.15L202.06,67.05L203.29,60.76L204.98,56.19L206.83,53.04L213.36,44.09L213.09,82.34L210.48,85.99L210.10,100.69L206.70,105.26L204.85,107.41L203.88,107.78L203.06,107.54L202.20,105.95L202.06,104.99L201.84,104.76L200.61,105.94L200.22,105.87L200.02,105.57L200.06,103.58L200.12,103.27L201.47,103.28L202.08,102.39L202.11,101.94L202.07,101.02L201.39,101.66L200.59,101.47L201.56,99.86L201.80,98.85L201.83,73.90L201.82,72.72L200.82,73.66L200.29,73.49L200.21,71.15L200.67,70.91L201.33,71.18L201.58,71.31L201.69,70.93L202.06,70.56L202.35,69.59L202.31,68.95z"/><path style="fill:#01ff02" d="M218.91,106.76L218.85,109.12L218.57,108.82L218.34,113.64L218.08,114.38L217.32,115.41L217.34,116.62L216.77,116.83L214.33,116.81L179.76,112.05L178.67,112.06L178.59,112.38L175.66,112.14L175.72,110.35L175.92,110.05L177.01,110.05L208.65,114.43L213.32,115.06L216.50,115.06L216.85,114.65L216.85,107.71L217.26,106.53L217.43,106.52L217.58,108.65L217.67,106.49L218.33,106.33z"/><path style="fill:#d06407" d="M201.63,69.34L202.15,68.87L202.31,68.95L202.35,69.59z"/><path style="fill:#d06407" d="M201.83,73.90L200.82,73.66L201.82,72.72z"/><path style="fill:#d06407" d="M201.39,101.66L202.07,101.02L202.11,101.94z"/><path style="fill:#d06407" d="M202.06,104.99L202.20,105.95L202.07,106.10L200.77,106.05L200.61,105.94L201.84,104.76z"/><path style="fill:#d06407" d="M210.11,102.70L207.06,106.87L206.00,107.81L203.88,107.78L204.85,107.41L206.70,105.26L210.10,100.69z"/><path style="fill:#e5e5e5" d="M191.45,46.41L210.61,20.04L210.61,30.56L198.22,47.68L196.79,47.68L191.73,46.69z"/><path style="fill:#e5e5e5" d="M196.07,91.78L195.89,92.22L195.29,92.01L194.20,92.00L193.61,92.47L192.28,92.34L192.28,91.60L192.69,91.24L194.54,91.26z"/><path style="fill:#e5e5e5" d="M189.31,91.41L189.10,91.46L189.03,91.07L189.30,91.00z"/><path style="fill:#0000e5" d="M200.67,70.91L200.21,71.15L200.07,70.91L199.68,69.98L199.79,69.96z"/><path style="fill:#0000e5" d="M201.69,70.93L201.58,71.31L201.33,71.18L201.08,70.71L201.04,69.71z"/><path style="fill:#0000e5" d="M199.80,102.76L199.48,102.85L199.57,102.53z"/><path style="fill:#0000e5" d="M201.08,103.02L200.53,103.02L200.47,102.75L200.81,102.75z"/><path style="fill:#01e502" d="M217.58,108.65L217.43,106.52L217.67,106.49z"/><path style="fill:#01e502" d="M218.85,109.12L218.91,106.76L219.07,106.80L219.21,107.70L219.22,112.22L219.09,114.39L218.23,116.29L216.76,117.32L215.40,117.51L207.14,116.52L179.01,112.58L178.59,112.38L178.67,112.06L179.76,112.05L214.33,116.81L216.77,116.83L217.34,116.62L217.32,115.41L218.08,114.38L218.34,113.64L218.57,108.82z"/><path style="fill:#01e502" d="M178.52,111.05L177.25,111.05L175.90,110.80L177.50,110.80z"/><path style="fill:#ffffff" d="M223.18,105.14L221.59,105.04L219.08,104.54L215.93,104.66L216.52,103.78z"/><path style="fill:#ffffff" d="M220.11,107.16L219.67,107.41L219.72,106.72z"/><g id="Actor_7.0"><g style="stroke:#000000;stroke-width:0.176"><path d="M189.37,118.51L189.36,118.52"/><path d="M189.74,114.85L189.89,114.98L190.00,115.29L190.02,115.67L190.03,115.75L189.99,116.31L189.89,116.91L189.73,117.48L189.55,117.91L189.53,117.96L189.31,118.30L189.10,118.47L188.92,118.44"/><path d="M189.37,117.24L189.58,116.66L189.58,116.08L189.38,116.08L189.16,116.66L189.16,117.25L189.37,117.24"/><path d="M189.55,116.74L189.16,116.66"/><path d="M189.38,116.08L189.58,116.12"/></g><g style="stroke:#000000;stroke-width:0.529"><path d="M190.11,115.00L189.99,114.90L189.74,114.85L189.54,114.92L189.33,115.17L189.12,115.59L189.09,115.67L188.93,116.13L188.80,116.72L188.73,117.30L188.73,117.82L188.79,118.21L188.92,118.44L189.18,118.49L189.36,118.52L189.37,118.51"/></g></g><g id="Actor_11.0"><g style="stroke:#000000;stroke-width:0.176"><path d="M188.06,142.64L207.17,116.26"/><path d="M191.35,140.91L190.94,141.04L190.47,141.33L190.21,141.69L190.19,142.07L190.40,142.44L190.84,142.76L191.44,142.98L192.14,143.09L192.87,143.07L193.55,142.93L194.11,142.68L194.48,142.35L194.62,141.97L194.53,141.59L194.20,141.25L193.67,140.97L193.46,140.92"/><path d="M193.47,140.97L193.47,140.95"/><path d="M208.62,114.25L213.79,107.11"/><path d="M216.80,105.75L216.39,105.88L215.92,106.18L215.66,106.54L215.64,106.92L215.86,107.29L216.29,107.60L216.89,107.83L216.98,107.84"/><path d="M217.98,103.81L217.98,104.14L215.71,104.66"/><path d="M217.98,104.14L222.85,105.13"/><path d="M218.91,105.76L219.12,105.82L219.65,106.09L219.98,106.44L220.07,106.82L219.93,107.20L219.56,107.53L219.08,107.74"/></g><g style="stroke:#000000;stroke-width:0.529"><path d="M214.10,117.21L194.04,144.93L189.16,143.93L188.06,142.64L188.07,141.64L206.51,116.17"/><path d="M191.35,140.96L191.35,140.91L191.57,140.84L192.28,140.76L193.01,140.81L193.46,140.92L193.46,140.95L193.46,140.96"/><path d="M213.16,106.98L207.96,114.16"/><path d="M216.94,113.29L215.63,115.11"/><path d="M216.80,105.75L217.02,105.68L217.73,105.60L218.46,105.65L218.91,105.76"/><path d="M222.85,104.80L222.85,105.13L219.07,110.36"/></g></g><g id="Actor_3.0"><g style="stroke:#000000;stroke-width:0.176"><path d="M200.30,105.78L200.58,105.74L200.89,105.43L202.19,105.69L202.19,105.73"/><path d="M200.56,103.17L200.54,103.52L200.55,103.77L200.61,103.94L200.69,104.03L200.79,104.01L200.90,103.89L201.74,102.73L201.86,102.54L201.96,102.26L202.04,101.95L202.10,101.63L202.12,101.34L202.10,101.09L202.08,101.03L201.75,100.96L201.32,101.55"/><path d="M200.49,73.52L200.77,73.48L201.08,73.16L201.91,73.33L201.91,73.21L201.89,72.87L201.87,72.79L201.42,72.70L201.08,73.16"/><path d="M200.89,105.43L201.61,104.44L201.74,104.46L201.89,104.49L201.97,104.74L202.19,105.69"/><path d="M201.61,104.44L201.77,104.39L201.89,104.49"/><path d="M201.42,72.70L201.57,72.54L201.71,72.52L201.82,72.64L201.87,72.79"/><path d="M200.75,70.91L200.72,71.25L200.74,71.50L200.79,71.68L200.87,71.76L200.98,71.75L201.09,71.63L201.93,70.47L202.04,70.27L202.15,70.00L202.23,69.69L202.29,69.37L202.30,69.07L202.29,68.82L202.27,68.76L201.94,68.70L202.05,68.58L202.16,68.56L202.24,68.65L202.27,68.76"/><path d="M201.94,68.70L201.51,69.29"/><path d="M201.75,100.96L201.87,100.84L201.97,100.83L202.05,100.91L202.08,101.03"/><path d="M201.91,73.33L201.91,73.78"/><path d="M203.46,107.57L204.02,107.61L204.61,107.37L205.24,106.86L205.89,106.08L207.22,106.35"/><path d="M205.89,106.08L210.17,100.17"/></g><g style="stroke:#000000;stroke-width:0.529"><path d="M210.16,102.29L207.22,106.35L206.57,107.13L205.94,107.64L205.35,107.88L204.79,107.84L203.46,107.57L202.97,107.25L202.55,106.67L202.22,105.82L202.19,105.73L201.91,106.01L201.63,106.05L200.30,105.78L200.09,105.56L199.94,105.08L199.90,104.40L199.95,103.58L200.03,103.12"/><path d="M200.22,70.86L200.14,71.32L200.09,72.14L200.13,72.82L200.27,73.29L200.49,73.52L201.82,73.79L201.91,73.78L201.77,98.22L201.74,98.62L201.67,99.06L201.56,99.48L201.41,99.85L201.26,100.12L200.92,100.59L200.61,101.14L200.54,101.31"/><path d="M213.33,43.88L206.20,53.74L205.55,54.75L204.91,55.99L204.31,57.41L203.75,58.98L203.24,60.67L202.81,62.44L202.46,64.24L202.19,66.03L202.11,66.50L201.98,66.95L201.83,67.33L201.11,68.32L200.80,68.87L200.73,69.05"/></g></g><g id="Actor_7.1"><g style="stroke:#000000;stroke-width:0.176"><path d="M194.24,142.08L194.16,141.77L193.88,141.48L193.44,141.26L192.89,141.12L192.28,141.09L191.69,141.16L191.17,141.32L190.79,141.57L190.58,141.87L190.57,142.19"/><path d="M190.79,141.34L191.17,141.09L191.69,140.92L192.28,140.85L192.89,140.89L193.44,141.03L193.88,141.25"/><path d="M191.46,140.88L191.50,140.86"/><path d="M192.16,142.39L192.83,142.34L193.07,142.00L192.63,141.72L191.96,141.78L191.72,142.12L192.16,142.39L192.16,141.79L192.13,141.77"/><path d="M192.16,141.79L192.50,141.76L192.34,141.76L192.27,141.75"/><path d="M192.65,141.73L192.53,141.76L192.50,141.76L192.67,141.74"/><path d="M192.83,142.34L192.84,141.85"/></g><g style="stroke:#000000;stroke-width:0.529"><path d="M193.35,140.89L193.88,141.25L194.16,141.53L194.25,141.85L194.24,142.08L194.13,142.40L193.83,142.68L193.38,142.89L192.81,143.01L192.21,143.02L191.62,142.94L191.12,142.75L190.75,142.50L190.57,142.19L190.57,141.96L190.58,141.64L190.79,141.34L191.46,140.88"/></g></g><g id="Actor_7.2"><g style="stroke:#000000;stroke-width:0.176"><path d="M189.92,70.47L190.08,70.60L190.18,70.92L190.21,71.38L190.17,71.94L190.07,72.53L189.91,73.10L189.71,73.58L189.49,73.93L189.41,73.99L189.28,74.09L189.11,74.06"/><path d="M189.35,72.29L189.34,72.87L189.55,72.87L189.76,72.28L189.77,71.70L189.56,71.70L189.35,72.29L189.73,72.37"/><path d="M189.54,74.14L189.72,74.00"/><path d="M190.33,70.66L190.39,70.82"/><path d="M189.56,71.70L189.77,71.75"/></g><g style="stroke:#000000;stroke-width:0.529"><path d="M189.71,74.02L189.54,74.14L189.36,74.11L189.11,74.06L188.97,73.83L188.91,73.44L188.91,72.92L188.98,72.34L189.12,71.75L189.30,71.21L189.51,70.80L189.72,70.54L189.92,70.47L190.18,70.53L190.33,70.66L190.38,70.73"/></g></g><g id="Actor_5.0"><g style="stroke:#000000;stroke-width:0.176"><path d="M186.49,93.38L186.47,93.42L186.46,93.47L186.45,95.32L186.03,95.90"/><path d="M186.46,93.47L186.04,94.05"/><path d="M186.68,96.62L187.10,96.04L187.04,96.02L186.98,95.99L186.94,95.95L186.52,95.48L186.10,96.06"/><path d="M187.10,96.04L187.62,96.15L187.20,96.73"/><path d="M186.94,95.95L186.52,96.53"/><path d="M186.52,95.48L186.48,95.43L186.46,95.37L186.45,95.32"/><path d="M187.71,96.43L188.13,95.85L188.07,95.84L188.02,95.85L187.97,95.87L187.94,95.91L187.81,96.08L187.39,96.66"/><path d="M187.94,95.91L187.52,96.49"/><path d="M187.81,96.08L187.77,96.12L187.73,96.14L187.67,96.15L187.62,96.15"/><path d="M188.13,95.85L188.67,95.96L188.74,95.98L188.80,96.02L188.85,96.08L188.88,96.14L188.89,96.20L188.47,96.78"/><path d="M188.25,96.54L188.67,95.96"/><path d="M189.21,98.86L188.90,99.29"/><path d="M188.46,98.80L188.88,98.22L188.90,98.35L188.96,98.47L189.06,98.58L189.18,98.66L189.22,98.68"/><path d="M188.88,98.22L188.89,96.20"/><path d="M189.00,91.34L188.94,91.44L188.92,91.56L188.90,93.58L188.80,93.73L188.75,93.74L188.68,93.74L188.49,93.70"/><path d="M188.90,93.58L188.89,93.64L188.86,93.69L188.81,93.73L188.80,93.73"/><path d="M188.50,92.14L188.92,91.56"/></g><g style="stroke:#000000;stroke-width:0.529"><path d="M188.49,93.70L188.14,93.63L188.09,93.61L188.03,93.58L187.99,93.54L187.95,93.49L187.83,93.26L187.79,93.21L187.75,93.17L187.69,93.14L187.63,93.12L187.11,93.01L187.06,93.01L187.00,93.02L186.96,93.04L186.53,93.34L186.49,93.38L186.07,93.96L186.05,94.00L186.04,94.05L186.03,95.90L186.04,95.95L186.06,96.01L186.10,96.06L186.52,96.53L186.56,96.57L186.62,96.60L186.68,96.62L187.20,96.73L187.25,96.73L187.31,96.72L187.35,96.70L187.39,96.66L187.52,96.49L187.55,96.45L187.60,96.43L187.65,96.42L187.71,96.43L188.25,96.54L188.32,96.56L188.38,96.60L188.43,96.66L188.46,96.72L188.47,96.78L188.46,98.80L188.48,98.93L188.54,99.05L188.64,99.16L188.76,99.25L188.90,99.29L189.13,99.34"/><path d="M188.49,93.70L188.50,92.14L188.52,92.02L188.58,91.93L189.00,91.34L189.10,91.28L189.22,91.24L189.26,91.25"/></g></g><g id="Actor_11.1"><g style="stroke:#000000;stroke-width:0.176"><path d="M210.64,19.68L188.60,50.12"/></g><g style="stroke:#000000;stroke-width:0.529"><path d="M188.75,50.30L188.60,50.12L188.61,49.12L210.65,18.67"/><path d="M197.94,47.76L210.58,30.30"/></g></g><g id="Actor_10.0"><g style="stroke:#000000;stroke-width:0.176"><path d="M188.59,117.91L188.58,118.05L188.67,118.52L188.82,118.80L189.04,118.84L189.29,118.64L189.55,118.23L189.79,117.65L189.98,116.96L190.11,116.24L190.16,115.57L190.12,115.01L190.00,114.64L189.81,114.48L189.57,114.56L189.31,114.86L189.06,115.36L188.84,116.01L188.68,116.72L188.59,117.43L188.59,117.91"/><path d="M188.72,99.22L188.73,99.63L188.76,99.75L188.82,99.80L188.89,99.79L188.96,99.71L189.04,99.58L189.11,99.39L189.17,99.18L189.21,98.97L189.22,98.76L189.26,91.10L189.25,90.93L189.22,90.81L189.16,90.75L189.09,90.76L189.02,90.84L188.94,90.98L188.87,91.16L188.81,91.37L188.77,91.67"/><path d="M188.72,99.46L189.06,99.53"/><path d="M189.02,90.84L189.24,90.89"/><path d="M189.08,74.43L188.92,74.16L188.84,73.69L188.85,73.06L188.93,72.36L189.10,71.64L189.32,71.00L189.57,70.50L189.83,70.19L190.06,70.12L190.25,70.27L190.37,70.65L190.41,71.21L190.37,71.88L190.24,72.60L190.05,73.29L189.81,73.87L189.55,74.28L189.30,74.47L189.08,74.43"/><path d="M191.05,114.04L190.91,137.71"/><path d="M191.06,111.83L191.44,46.44"/><path d="M193.07,93.03L193.00,93.01L192.52,93.67"/><path d="M196.21,94.62L196.28,94.60L196.70,94.30L196.97,93.88L197.07,93.36L196.98,92.80L196.71,92.26L196.29,91.80L195.76,91.44L195.17,91.24L193.84,90.97L193.25,90.93L192.72,91.07L192.30,91.37L192.02,91.80L191.93,92.31L192.02,92.87L192.28,93.39L192.71,93.87L193.24,94.23L193.82,94.43L195.15,94.70L195.74,94.74L196.21,94.62L196.23,94.52L196.20,94.34"/><path d="M192.21,93.26L192.25,93.21L192.45,93.06L192.71,93.00L193.00,93.01"/><path d="M193.63,92.26L193.00,92.13L192.41,92.09L191.95,92.21"/><path d="M193.00,92.13L193.84,90.97"/><path d="M195.17,91.24L194.81,91.74"/></g><g style="stroke:#000000;stroke-width:0.529"><path d="M188.38,113.67L188.22,141.43"/><path d="M188.40,111.46L188.47,98.87"/><path d="M188.75,50.16L188.51,92.08"/></g></g><g id="Actor_2.0"><g style="stroke:#000000;stroke-width:0.176"><path d="M214.23,117.23L194.04,145.13"/><path d="M215.79,115.08L216.94,113.49"/><path d="M223.07,104.84L223.07,105.03L219.07,110.56"/><path d="M223.07,105.03L224.18,105.25"/></g><g style="stroke:#000000;stroke-width:0.529"><path d="M215.44,117.32L195.15,145.35L194.04,145.13L194.04,144.93"/><path d="M224.18,105.07L224.18,105.25L219.06,112.33"/></g></g><g id="Actor_8.0"><g style="stroke:#000000;stroke-width:0.176"><path d="M193.89,93.45L193.87,93.43L193.73,93.01L193.71,92.80L193.73,92.60L193.88,92.24L194.16,91.97L194.54,91.82L194.98,91.81L195.43,91.93L195.84,92.18L196.17,92.53L196.39,92.94L196.46,93.36L196.38,93.75L196.17,94.07L195.83,94.28L195.42,94.36L194.97,94.30L194.53,94.11L194.15,93.81L193.89,93.45"/><path d="M193.66,92.22L193.49,92.63L193.47,92.86L193.49,93.09L193.65,93.57L193.96,94.00L194.38,94.33L194.39,94.34L194.88,94.55L195.39,94.62L195.86,94.53L196.24,94.29"/><path d="M194.55,93.40L194.48,92.92L194.41,92.94L194.75,92.83L195.09,92.36L194.41,92.58L194.40,93.30L195.08,93.79L195.76,93.57L195.77,92.86L195.43,93.32L195.43,93.68"/><path d="M194.75,92.83L195.09,93.08L195.13,93.10L195.29,93.27L195.39,93.47L194.89,93.65"/><path d="M194.41,92.94L194.41,92.94L194.41,92.94"/><path d="M194.48,92.92L194.70,92.91L194.92,92.98L195.09,93.08L195.43,93.32"/><path d="M195.39,93.47L195.43,93.68"/><path d="M195.09,92.36L195.77,92.86"/></g><g style="stroke:#000000;stroke-width:0.529"><path d="M195.95,94.69L196.24,94.29L196.48,93.93L196.57,93.49L196.49,93.01L196.25,92.55L195.87,92.16L195.41,91.88L194.90,91.74L194.40,91.75L193.97,91.92L193.66,92.22L193.05,93.06L192.89,93.46L192.88,93.93L192.91,94.01"/></g></g><g id="Actor_2.1"><g style="stroke:#000000;stroke-width:0.176"><path d="M199.27,102.83L199.35,102.69L199.35,102.67L199.36,102.65L199.44,102.45L199.45,102.40L199.50,102.19L199.51,102.17L199.52,102.11L199.55,101.87L199.55,101.82L199.55,101.60L199.55,101.55L199.53,101.38L199.56,101.56L199.57,101.79L199.55,102.06L199.51,102.32L199.44,102.54L199.36,102.70L199.28,102.81"/><path d="M198.97,102.70L199.00,102.73L199.04,102.74L199.00,102.76L198.98,102.72"/><path d="M199.06,102.87L199.00,102.76L199.09,102.91"/><path d="M198.97,102.72L198.97,102.71"/><path d="M199.30,102.86L199.30,102.86"/><path d="M199.37,102.98L199.44,102.99L199.53,102.89L199.63,102.69L199.72,102.42L199.78,102.10L199.81,101.77L199.80,101.49L199.75,101.27L199.66,101.13L199.58,101.12"/><path d="M199.16,101.32L199.24,101.28L199.30,101.31L199.34,101.41L199.36,101.58L199.36,101.79L199.32,102.02L199.26,102.24L199.19,102.44L199.11,102.58L199.03,102.66L198.96,102.67L198.95,102.67L198.90,102.60"/><path d="M199.53,101.38L199.52,101.35L199.48,101.28L199.52,101.29L199.60,101.39L199.64,101.58L199.65,101.81L199.63,102.07L199.58,102.33L199.52,102.55L199.44,102.72L199.36,102.80L199.31,102.79L199.30,102.79"/><path d="M199.36,102.70L199.33,102.75"/><path d="M199.29,102.80L199.36,102.70"/><path d="M199.42,101.21L199.45,101.22L199.46,101.24L199.48,101.28"/><path d="M199.85,102.19L199.82,102.36L199.75,102.58L199.68,102.75L199.57,102.89L199.64,102.77L199.73,102.53L199.74,102.47L199.81,102.18L199.84,101.86L199.85,101.57L199.81,101.34L199.87,101.61L199.88,101.83L199.87,102.10L199.85,102.19"/><path d="M199.68,102.75L199.68,102.75"/><path d="M199.89,102.95L199.98,102.76L200.04,102.58L200.11,102.30L200.15,101.98L200.16,101.74L200.14,101.49L200.18,101.65L200.19,101.88L200.18,102.14L200.13,102.40L200.07,102.63L199.99,102.80L199.91,102.92"/><path d="M200.18,103.04L200.28,102.85L200.32,102.73L200.40,102.46L200.45,102.15L200.47,101.85L200.46,101.59L200.42,101.44L200.49,101.70L200.50,101.92L200.49,102.18L200.45,102.45L200.39,102.68L200.31,102.86L200.28,102.90L200.22,102.99"/><path d="M200.74,102.73L200.78,102.74L200.84,102.51L200.88,102.24L200.89,101.98L200.87,101.76L200.82,101.60L200.74,101.52L200.79,101.75L200.81,101.96L200.80,102.22L200.76,102.49L200.70,102.72L200.63,102.91L200.55,103.02L200.53,103.05"/><path d="M200.45,103.16L200.54,103.02L200.63,102.80L200.71,102.54L200.76,102.23L200.78,101.92L200.77,101.66L200.72,101.46L200.70,101.43"/><path d="M199.54,102.94L199.57,102.89L199.58,102.88"/><path d="M200.30,103.18L200.39,103.17L200.49,103.04L200.58,102.82L200.67,102.54L200.72,102.21L200.74,101.89L200.72,101.62L200.66,101.41L200.57,101.31"/><path d="M199.93,103.01L199.93,103.01"/><path d="M199.99,103.12L200.07,103.11L200.17,103.00L200.17,102.99L200.27,102.78L200.35,102.50L200.41,102.18L200.43,101.85L200.42,101.58L200.36,101.36L200.27,101.25L200.15,101.25"/><path d="M199.62,102.94L199.62,102.94"/><path d="M199.67,103.05L199.75,103.05L199.85,102.94L199.95,102.74L199.95,102.73L200.03,102.46L200.09,102.14L200.12,101.81L200.11,101.53L200.06,101.31L199.97,101.19"/><path d="M200.67,103.13L200.63,103.03L200.59,103.03"/><path d="M200.53,103.05L200.56,103.05L200.63,103.03L200.71,102.92L200.78,102.74L200.84,102.80"/><path d="M200.42,101.46L200.43,101.46L200.51,101.55L200.56,101.72L200.58,101.94L200.57,102.20L200.53,102.46L200.46,102.69L200.39,102.87L200.31,102.98L200.25,102.99L200.22,102.98"/><path d="M200.14,101.49L200.11,101.40L200.13,101.40L200.21,101.50L200.26,101.67L200.27,101.89L200.26,102.16L200.21,102.42L200.15,102.65L200.07,102.82L200.00,102.92L199.93,102.92L199.91,102.92"/><path d="M199.81,101.34L199.81,101.34L199.83,101.34L199.90,101.44L199.95,101.62L199.96,101.85L199.94,102.12L199.90,102.38L199.83,102.60L199.76,102.77L199.68,102.86L199.62,102.86L199.60,102.85L199.67,102.76"/><path d="M199.54,102.94L199.55,102.93"/><path d="M199.70,103.06L199.68,103.05"/><path d="M199.60,102.86L199.60,102.85"/><path d="M200.00,103.12L199.99,103.12"/><path d="M199.56,101.56L199.56,101.56"/><path d="M200.39,101.37L200.41,101.39L200.42,101.44"/><path d="M199.77,101.24L199.81,101.34"/><path d="M200.11,101.40L200.08,101.30"/><path d="M200.20,101.25L200.20,101.25"/><path d="M201.25,103.38L201.29,103.36"/><path d="M200.76,103.22L200.85,103.08L200.89,103.00L200.98,102.76L201.04,102.47L201.08,102.16L201.09,101.87L201.06,101.63L201.10,101.80L201.12,102.01L201.12,102.26L201.08,102.53L201.02,102.77L200.94,102.96L200.87,103.08"/><path d="M200.87,103.08L200.84,103.11"/><path d="M201.47,102.31L201.51,102.32L201.51,102.07L201.49,101.86L201.43,101.71L201.36,101.66L201.41,101.84L201.43,102.05L201.43,102.31L201.39,102.58L201.33,102.81L201.26,103.01L201.18,103.13L201.15,103.17"/><path d="M201.36,101.66L201.35,101.63L201.38,101.76L201.40,102.01L201.38,102.33L201.33,102.63L201.26,102.90L201.17,103.13L201.15,103.17L201.26,103.01L201.25,103.02"/><path d="M201.56,102.98L201.59,102.92L201.65,102.64L201.70,102.34L201.71,102.03L201.69,101.79L201.69,101.78L201.71,101.89L201.74,102.10L201.74,102.35L201.71,102.62L201.65,102.86L201.65,102.87"/><path d="M201.15,103.17L201.06,103.29"/><path d="M201.47,101.49L201.57,101.57L201.64,101.75L201.67,102.01L201.66,102.32L201.61,102.65L201.54,102.95L201.47,103.11"/><path d="M200.94,103.31L201.02,103.28L201.12,103.14L201.22,102.90L201.30,102.61L201.35,102.28L201.36,101.97L201.34,101.71L201.27,101.52L201.17,101.43"/><path d="M200.87,101.37L200.97,101.46L201.03,101.66L201.05,101.93L201.04,102.25L200.98,102.58L200.90,102.86L200.81,103.09L200.71,103.23L200.62,103.25"/><path d="M201.22,103.14L201.26,103.15L201.19,103.18L201.15,103.18"/><path d="M201.30,103.24L201.26,103.15L201.34,103.02L201.41,102.83L201.37,102.82"/><path d="M201.58,102.32L201.51,102.32L201.47,102.59L201.41,102.83L201.47,102.89"/><path d="M200.91,103.08L200.94,103.09L201.02,102.97L201.10,102.78L201.06,102.78"/><path d="M200.96,102.24L200.88,102.24L200.84,102.23"/><path d="M201.16,102.84L201.10,102.78L201.16,102.55L201.19,102.28L201.20,102.02L201.18,101.81L201.14,101.80"/><path d="M200.84,103.11L200.88,103.12L200.94,103.09L200.98,103.19"/><path d="M201.15,103.17L201.22,103.07"/><path d="M201.06,101.63L201.01,101.49"/><path d="M201.45,101.85L201.49,101.86L201.56,101.81"/><path d="M201.41,101.57L201.35,101.63"/><path d="M201.05,101.59L201.12,101.66L201.18,101.81L201.26,101.76"/><path d="M201.75,101.90L201.79,101.91L201.73,101.76L201.67,101.72"/><path d="M201.71,101.63L201.66,101.69"/><path d="M201.11,101.51L201.04,101.58"/><path d="M200.74,101.52L200.73,101.52L200.73,101.51"/><path d="M201.69,101.78L201.63,101.61"/><path d="M201.69,101.78L201.70,101.85L201.69,101.78"/><path d="M201.70,101.85L201.72,101.93"/><path d="M201.35,101.63L201.33,101.57L201.32,101.55"/><path d="M201.41,101.84L201.41,101.84"/><path d="M201.98,102.20L201.98,102.05L201.95,101.80L201.88,101.62L201.78,101.55"/><path d="M201.77,102.68L201.78,102.63L201.82,102.36L201.78,102.36"/><path d="M201.87,101.85L201.79,101.91L201.82,102.11L201.82,102.36L201.90,102.36"/><path d="M202.06,101.87L202.03,101.82L201.98,101.79L202.02,101.94L202.03,102.00"/><path d="M202.03,102.01L202.01,101.91L202.01,101.93L202.02,102.06"/><path d="M201.94,101.68L201.96,101.70L202.01,101.91"/><path d="M201.97,101.75L201.98,101.79"/><path d="M202.10,101.63L202.08,101.61"/><path d="M202.01,101.69L201.97,101.75"/></g><g style="stroke:#000000;stroke-width:0.529"><path d="M199.42,101.21L199.38,101.19L199.36,101.19L199.27,101.23L199.16,101.32L199.12,101.37L199.07,101.44L199.00,101.61L198.93,101.82L198.88,102.05L198.86,102.27L198.87,102.46L198.90,102.60L198.94,102.66L198.97,102.70L198.97,102.72L199.08,102.90L199.09,102.91L199.15,102.93L199.17,102.92L199.25,102.86L199.27,102.83L199.29,102.80"/><path d="M199.55,102.93L199.54,102.94L199.46,103.01L199.37,102.98L199.36,102.98L199.30,102.86L199.29,102.80"/><path d="M199.77,101.24L199.74,101.18L199.64,101.12L199.58,101.12L199.55,101.11L199.42,101.20L199.42,101.21"/><path d="M201.27,103.38L201.25,103.38L201.19,103.31L201.15,103.18L201.15,103.17L201.06,103.29L200.98,103.32L200.94,103.31L200.87,103.24L200.84,103.11L200.84,103.11L200.76,103.22L200.68,103.26L200.62,103.25L200.56,103.16L200.53,103.05L200.53,103.05L200.45,103.16L200.36,103.20L200.30,103.18L200.24,103.09L200.22,102.99"/><path d="M200.22,102.99L200.18,103.04L200.09,103.13L200.00,103.12L199.99,103.12L199.93,103.01L199.91,102.92"/><path d="M199.91,102.92L199.89,102.95L199.80,103.06L199.72,103.07L199.70,103.06L199.67,103.05L199.62,102.94L199.60,102.86"/><path d="M199.55,102.93L199.60,102.86"/><path d="M200.70,101.43L200.70,101.42L200.61,101.32L200.57,101.31L200.45,101.31L200.39,101.37"/><path d="M200.08,101.30L200.15,101.25L200.20,101.25L200.26,101.24L200.36,101.30L200.39,101.37"/><path d="M199.77,101.24L199.85,101.18L200.00,101.19L200.08,101.30L200.08,101.30"/><path d="M201.32,101.55L201.35,101.52L201.47,101.49L201.53,101.50L201.63,101.60L201.63,101.61"/><path d="M201.01,101.49L201.00,101.46L200.90,101.37L200.87,101.37L200.75,101.38L200.70,101.43"/><path d="M201.01,101.49L201.05,101.45L201.17,101.43L201.24,101.45L201.32,101.55"/><path d="M201.63,101.61L201.65,101.59L201.78,101.55L201.87,101.58L201.94,101.68"/><path d="M202.10,101.62L202.08,101.61L201.95,101.66L201.94,101.68"/></g></g><g id="Actor_2.2"><g style="stroke:#000000;stroke-width:0.176"><path d="M199.48,70.52L199.53,70.43L199.55,70.39L199.62,70.19L199.64,70.14L199.69,69.91L199.70,69.85L199.73,69.61L199.74,69.56L199.74,69.34L199.74,69.29L199.71,69.12L199.75,69.30L199.76,69.53L199.74,69.79L199.69,70.05L199.63,70.27L199.55,70.44L199.47,70.54L199.48,70.52"/><path d="M199.49,70.60L199.49,70.60"/><path d="M199.34,69.06L199.42,69.02L199.49,69.05L199.53,69.15L199.55,69.32L199.54,69.52L199.51,69.75L199.45,69.98L199.38,70.17L199.30,70.32L199.21,70.40L199.17,70.40L199.14,70.40L199.09,70.34"/><path d="M199.16,70.44L199.18,70.47L199.23,70.48L199.19,70.50L199.27,70.64"/><path d="M199.17,70.46L199.19,70.50L199.25,70.60"/><path d="M199.16,70.45L199.16,70.45"/><path d="M199.48,70.53L199.49,70.53L199.55,70.53L199.63,70.45L199.70,70.29L199.77,70.07L199.82,69.81L199.84,69.54L199.83,69.31L199.78,69.13L199.71,69.02L199.67,69.01L199.70,69.08L199.71,69.12"/><path d="M199.45,70.57L199.47,70.54"/><path d="M199.48,70.54L199.55,70.44"/><path d="M200.58,69.10L200.59,69.13L200.64,69.33L200.66,69.59L200.64,69.89L200.59,70.20L200.51,70.47L200.47,70.59L200.37,70.77"/><path d="M200.15,68.93L200.24,69.05L200.30,69.27L200.31,69.55L200.28,69.88L200.22,70.20L200.14,70.47L200.14,70.47L200.04,70.68L199.94,70.79L199.86,70.79"/><path d="M200.34,68.98L200.45,68.99L200.55,69.10L200.60,69.31L200.62,69.59L200.60,69.91L200.54,70.24L200.45,70.51L200.36,70.73L200.26,70.85L200.18,70.85"/><path d="M200.76,69.05L200.85,69.15L200.91,69.36L200.93,69.63L200.91,69.95L200.85,70.28L200.77,70.56L200.67,70.78L200.58,70.90L200.49,70.92"/><path d="M199.89,70.79L199.87,70.79"/><path d="M200.19,70.85L200.18,70.85"/><path d="M200.03,69.63L200.00,69.92L199.93,70.21L199.91,70.27L199.83,70.51L199.76,70.62L199.87,70.49L199.94,70.32L200.01,70.10L200.05,69.84L200.07,69.57L200.06,69.34L200.00,69.08L200.03,69.31L200.03,69.60L200.03,69.63"/><path d="M200.10,70.66L200.18,70.54L200.26,70.37L200.32,70.14L200.37,69.88L200.38,69.61L200.37,69.39L200.33,69.23L200.35,69.48L200.34,69.72L200.30,70.04L200.23,70.32L200.17,70.49L200.07,70.69"/><path d="M200.61,69.18L200.67,69.44L200.69,69.66L200.68,69.92L200.64,70.18L200.57,70.41L200.50,70.59L200.47,70.63L200.41,70.72"/><path d="M199.56,70.72L199.62,70.73L199.72,70.63L199.82,70.43L199.90,70.16L199.97,69.84L200.00,69.51L199.99,69.23L199.94,69.00L199.85,68.87L199.77,68.86"/><path d="M199.80,70.68L199.80,70.67"/><path d="M200.61,69.20L200.62,69.20L200.70,69.29L200.75,69.45L200.77,69.67L200.76,69.93L200.71,70.20L200.65,70.43L200.58,70.61L200.50,70.71L200.43,70.73L200.41,70.72"/><path d="M200.33,69.23L200.30,69.14L200.32,69.14L200.39,69.23L200.44,69.41L200.46,69.63L200.44,69.89L200.40,70.16L200.34,70.38L200.26,70.56L200.18,70.65L200.12,70.66L200.10,70.66"/><path d="M200.00,69.08L200.00,69.08L200.01,69.08L200.09,69.18L200.14,69.36L200.15,69.59L200.13,69.85L200.08,70.11L200.02,70.33L199.94,70.51L199.87,70.59L199.80,70.59L199.79,70.59L199.86,70.50"/><path d="M199.55,70.44L199.51,70.48"/><path d="M199.73,70.68L199.76,70.62"/><path d="M199.73,70.68L199.73,70.67"/><path d="M199.79,70.59L199.79,70.60"/><path d="M199.75,69.30L199.75,69.29"/><path d="M200.30,69.14L200.27,69.04"/><path d="M199.67,69.01L199.65,68.97L199.64,68.96L199.60,68.95"/><path d="M199.95,68.98L200.00,69.08"/><path d="M200.39,68.98L200.39,68.98L200.39,68.98"/><path d="M200.63,70.90L200.73,70.76L200.82,70.54L200.89,70.27L200.95,69.96L200.97,69.66L200.95,69.40L200.92,69.25L200.92,69.26L200.92,69.26L201.00,69.34L201.06,69.50L201.08,69.72L201.07,69.98L201.03,70.24L200.97,70.47L200.93,70.47"/><path d="M200.95,70.95L201.04,70.82L201.08,70.74L201.16,70.49L201.23,70.21L201.27,69.90L201.28,69.60L201.25,69.37L201.20,69.23"/><path d="M201.63,69.59L201.67,69.60L201.61,69.45L201.54,69.39L201.54,69.36L201.57,69.50L201.59,69.75L201.57,70.06L201.52,70.37L201.45,70.64L201.36,70.87L201.34,70.91L201.45,70.75L201.37,70.87L201.34,70.91"/><path d="M201.34,70.91L201.24,71.03"/><path d="M201.41,70.81L201.34,70.90"/><path d="M201.05,70.81L201.13,70.70L201.21,70.51L201.27,70.27L201.30,70.00L201.31,69.75L201.29,69.53L201.25,69.37"/><path d="M200.92,69.26L200.98,69.49L201.00,69.70L200.99,69.96L200.95,70.23L200.89,70.46L200.81,70.64L200.74,70.76L200.72,70.78"/><path d="M200.81,70.99L200.89,70.96L200.99,70.83L201.09,70.60L201.17,70.31L201.22,69.98L201.24,69.67L201.22,69.40L201.15,69.20L201.06,69.10"/><path d="M201.12,71.05L201.21,71.02L201.31,70.87L201.41,70.64L201.48,70.35L201.54,70.02L201.55,69.71L201.52,69.44L201.46,69.25L201.36,69.17"/><path d="M201.66,69.23L201.76,69.30L201.83,69.49L201.86,69.75L201.85,70.06L201.80,70.39L201.72,70.68L201.66,70.84"/><path d="M201.44,71.12L201.47,71.10"/><path d="M201.41,70.88L201.45,70.89L201.38,70.92L201.34,70.91"/><path d="M201.56,70.56L201.60,70.57L201.53,70.76L201.45,70.89L201.49,70.98"/><path d="M201.09,70.82L201.13,70.83L201.06,70.86L201.03,70.85"/><path d="M201.17,70.92L201.13,70.83L201.21,70.71L201.28,70.52L201.24,70.51"/><path d="M200.72,70.78L200.75,70.79L200.82,70.77L200.78,70.76"/><path d="M200.85,70.87L200.82,70.77L200.89,70.66L200.97,70.47L201.03,70.54"/><path d="M201.44,70.75L201.45,70.75L201.52,70.55L201.58,70.31L201.62,70.04L201.62,69.79L201.60,69.58L201.54,69.39"/><path d="M201.31,70.95L201.31,70.95"/><path d="M201.05,70.81L201.03,70.85"/><path d="M201.66,70.62L201.60,70.57L201.66,70.33L201.69,70.06L201.65,70.05"/><path d="M201.75,69.54L201.67,69.60L201.70,69.81L201.69,70.06L201.77,70.06"/><path d="M201.03,69.97L201.07,69.98L201.15,69.98"/><path d="M201.33,69.54L201.37,69.55L201.39,69.76L201.38,70.02L201.34,70.29L201.28,70.52L201.34,70.58"/><path d="M201.23,69.33L201.31,69.39L201.37,69.55L201.45,69.50"/><path d="M201.59,69.30L201.54,69.37"/><path d="M201.29,69.24L201.23,69.32"/><path d="M201.51,69.29L201.52,69.31L201.54,69.36"/><path d="M200.92,69.25L200.91,69.20L200.89,69.16"/><path d="M201.59,69.58L201.59,69.58"/><path d="M201.83,70.60L201.84,70.60L201.89,70.35L201.93,70.08L201.93,69.84L201.90,69.63L201.87,69.52L201.88,69.53L201.90,69.77L201.89,70.07L201.84,70.38L201.77,70.66L201.75,70.72"/><path d="M202.25,69.61L202.22,69.56L202.17,69.52L202.16,69.49L202.19,69.64L202.20,69.67L202.20,69.80"/><path d="M202.17,69.52L202.21,69.68L202.22,69.74"/><path d="M201.91,69.67L201.87,69.52"/><path d="M201.96,69.29L202.06,69.36L202.14,69.53L202.17,69.79L202.16,69.94"/><path d="M201.94,69.64L201.98,69.65L202.01,69.85L202.00,70.10L201.97,70.37L201.96,70.42"/><path d="M201.85,69.46L201.92,69.50L201.98,69.65L202.06,69.59"/><path d="M202.08,70.10L202.00,70.10L201.97,70.09"/><path d="M202.19,69.64L202.22,69.74"/><path d="M202.16,69.49L202.14,69.44L202.13,69.42"/><path d="M202.29,69.36L202.26,69.35"/><path d="M201.90,69.37L201.84,69.43"/><path d="M202.20,69.43L202.15,69.48"/><path d="M201.87,69.52L201.82,69.35"/></g><g style="stroke:#000000;stroke-width:0.529"><path d="M199.60,68.95L199.56,68.93L199.55,68.93L199.46,68.97L199.34,69.06L199.30,69.11L199.26,69.17L199.18,69.35L199.12,69.56L199.07,69.79L199.05,70.01L199.05,70.20L199.09,70.34L199.12,70.40L199.16,70.44L199.16,70.45L199.26,70.63L199.27,70.64L199.34,70.66L199.36,70.66L199.43,70.60L199.45,70.57L199.48,70.54"/><path d="M199.48,70.54L199.49,70.60L199.54,70.72L199.56,70.72L199.64,70.74L199.73,70.68L199.79,70.60"/><path d="M201.46,71.12L201.44,71.12L201.37,71.05L201.34,70.91L201.34,70.91L201.24,71.03L201.16,71.06L201.12,71.05L201.06,70.98L201.03,70.85L201.03,70.85L200.95,70.95L200.87,71.00L200.81,70.99L200.75,70.90L200.72,70.78L200.72,70.78L200.63,70.90L200.55,70.93L200.49,70.92L200.43,70.83L200.41,70.72"/><path d="M200.41,70.72L200.37,70.77L200.28,70.86L200.27,70.86L200.19,70.85L200.18,70.85L200.12,70.75L200.10,70.66"/><path d="M199.79,70.60L199.80,70.68L199.86,70.79L199.89,70.79L199.91,70.80L199.98,70.79L200.07,70.69L200.10,70.66"/><path d="M199.73,70.68L199.73,70.68"/><path d="M200.58,69.10L200.55,69.04L200.53,69.03"/><path d="M199.95,68.98L200.04,68.92L200.18,68.93L200.27,69.04L200.27,69.04"/><path d="M199.60,68.95L199.61,68.94L199.74,68.85L199.77,68.86L199.83,68.85L199.93,68.92L199.95,68.98"/><path d="M200.27,69.04L200.34,68.98L200.39,68.98L200.45,68.98L200.53,69.03"/><path d="M200.58,69.10L200.64,69.05L200.76,69.05L200.79,69.05L200.89,69.15L200.89,69.16"/><path d="M200.89,69.16L200.94,69.12L201.06,69.10L201.09,69.11L201.18,69.19L201.20,69.23"/><path d="M201.51,69.29L201.54,69.26L201.66,69.23L201.72,69.24L201.81,69.33L201.82,69.35"/><path d="M201.51,69.29L201.43,69.19L201.36,69.17L201.24,69.19L201.20,69.23"/><path d="M201.82,69.35L201.84,69.33L201.96,69.29L202.06,69.32L202.13,69.41"/><path d="M202.13,69.41L202.14,69.40L202.26,69.35L202.29,69.36"/></g></g><g id="Actor_7.3"><g style="stroke:#000000;stroke-width:0.176"><path d="M216.02,106.92L216.03,106.60L216.23,106.30L216.60,106.05L217.11,105.88L217.70,105.80L218.31,105.83L218.87,105.96L219.31,106.18L219.60,106.47L219.70,106.78"/><path d="M216.23,106.06L216.60,105.82"/><path d="M219.31,105.95L218.97,105.78"/></g><g style="stroke:#000000;stroke-width:0.529"><path d="M216.59,105.82L216.23,106.06L216.03,106.36L216.02,106.68L216.02,106.92L216.22,107.22L216.59,107.48L216.98,107.61"/><path d="M219.12,105.82L219.31,105.95L219.60,106.23L219.70,106.55L219.70,106.78L219.59,107.10L219.30,107.38L219.08,107.48"/></g></g><g id="Actor_1.0"><g style="stroke:#000000;stroke-width:0.176"><path d="M213.96,8.41L213.41,102.21L210.47,106.27L210.37,106.38L210.28,106.39"/><path d="M210.47,106.27L214.02,107.00"/><path d="M210.74,89.04L212.87,89.48L212.92,88.58L213.07,87.63L213.17,87.23L213.18,85.68L213.13,84.92L212.99,84.36L212.77,84.05L212.48,84.00L212.15,84.22L211.80,84.71L211.47,85.40L211.17,86.25L210.94,87.20L210.79,88.15L210.74,89.04L210.66,102.35L212.34,102.69"/><path d="M210.66,102.35L210.71,103.11L210.85,103.67L211.07,103.98L211.36,104.03L211.69,103.80L212.04,103.32L212.37,102.63L212.67,101.78L212.90,100.83L213.04,99.88L213.07,99.45L213.03,99.46L212.96,99.38L212.91,99.23L212.89,99.00L212.93,93.03L213.13,93.07"/><path d="M210.70,33.28L210.79,33.26L210.90,33.16L213.08,30.14L213.18,30.04L213.28,30.02L213.35,30.10L213.38,30.20L213.08,30.14"/><path d="M210.90,33.16L213.39,33.67L213.41,30.48L213.38,30.20"/><path d="M213.22,28.12L213.29,16.36L211.16,15.93L211.09,29.24L211.13,29.99L211.27,30.55L211.49,30.86L211.78,30.91L212.11,30.69L212.46,30.21L212.79,29.51L213.09,28.66L213.32,27.72L213.47,26.76L213.49,26.34L213.45,26.34L213.38,26.27L213.33,26.11L213.32,25.88L213.35,19.91L213.56,19.96"/><path d="M211.09,29.24L212.76,29.58"/><path d="M211.16,15.93L211.22,15.04L211.37,14.08L211.60,13.14L211.89,12.28L212.22,11.59L212.57,11.11L212.90,10.88L213.19,10.93L213.42,11.25L213.56,11.81L213.60,12.56L213.59,14.11L213.49,14.51L213.34,15.47L213.29,16.36"/><path d="M212.80,101.23L212.87,89.48"/><path d="M212.89,99.00L213.10,99.04"/><path d="M212.93,93.03L212.95,92.76L213.00,92.47L213.07,92.19L213.14,92.01"/><path d="M213.41,102.21L224.71,104.51"/><path d="M213.17,87.23L213.10,98.99L213.07,99.45"/><path d="M213.39,33.67L213.39,33.82"/><path d="M213.32,25.88L213.52,25.92"/><path d="M213.49,26.34L213.53,25.87L213.59,14.11"/><path d="M213.35,19.91L213.37,19.64L213.42,19.35L213.49,19.07L213.56,18.89"/><path d="M222.43,104.71L216.54,103.51L214.68,106.07"/></g><g style="stroke:#000000;stroke-width:0.529"><path d="M222.43,104.71L224.29,105.09L224.71,104.51L225.26,10.71L213.96,8.41L211.02,12.47L210.91,12.65L210.82,12.90L210.74,13.18L210.69,13.48L210.67,13.74L210.56,32.82L210.58,33.04L210.63,33.20L210.70,33.28L213.39,33.82L213.39,34.81L213.12,81.30L213.10,81.57L213.05,81.86L212.98,82.14L212.88,82.38L212.78,82.57L210.59,85.59L210.49,85.77L210.39,86.01L210.32,86.29L210.27,86.58L210.25,86.86L210.14,105.93L210.16,106.16L210.20,106.32L210.28,106.39L213.82,107.11L213.91,107.10L214.02,107.00L214.68,106.08"/></g></g><g id="Actor_.0"><g style="stroke:#000000;stroke-width:0.176"><path d="M175.87,111.35L175.82,111.44L175.80,111.37L175.85,111.18L175.88,111.18L175.87,111.35L214.89,116.73L214.62,117.28"/><path d="M175.79,111.32L175.71,111.30L175.74,111.26L175.77,111.26L175.79,111.29L175.80,111.37"/><path d="M175.71,111.30L175.68,111.39L175.65,111.50L175.63,111.62L175.62,111.75L175.59,111.76L175.57,111.75"/><path d="M175.62,111.75L175.63,111.82L175.60,111.91"/><path d="M175.60,111.48L175.60,111.39L175.59,111.31L175.57,111.27L175.54,111.27L175.51,111.31L175.48,111.40L175.48,111.20"/><path d="M175.48,111.40L175.48,111.46"/><path d="M175.63,111.82L177.45,112.07L177.79,112.11L178.13,112.13L178.47,112.14L178.81,112.13L179.15,112.10L178.88,111.99L178.59,111.89L178.29,111.81L177.97,111.74L177.51,111.67L177.47,111.85L177.45,112.07"/><path d="M175.88,111.18L177.70,111.44L178.04,111.47L178.37,111.47L178.70,111.43L179.03,111.37L179.35,111.28L179.07,111.10L178.77,110.96L178.45,110.84L178.13,110.74L177.80,110.68L175.98,110.43L175.95,110.44L175.91,110.49L175.88,110.59L175.83,110.81L175.82,110.94L175.82,111.05L175.83,111.13L175.85,111.18"/><path d="M175.82,111.44L177.51,111.67"/><path d="M175.80,110.51L175.81,110.57L175.81,110.69L175.79,110.81L175.77,110.94L175.74,111.06L175.71,111.14L175.68,111.19L175.65,111.19L175.63,111.15L175.62,111.07L175.62,110.95L175.63,110.83L175.66,110.70L175.68,110.58L175.71,110.52L175.75,110.45L175.78,110.45L175.80,110.51L175.72,110.50"/><path d="M175.83,110.81L177.67,111.07L177.72,110.84L177.74,110.76L177.77,110.70L177.80,110.68"/><path d="M175.95,110.44L175.95,110.24L175.91,110.33L175.84,110.33L175.83,110.25L175.83,110.14L175.84,110.01L175.86,109.89L175.84,109.88L175.81,109.89"/><path d="M175.95,110.24L175.98,110.18L176.01,110.27L175.98,110.43"/><path d="M175.84,110.33L175.86,110.37L175.88,110.37L175.91,110.33"/><path d="M175.76,110.22L175.72,110.34L175.69,110.38L175.66,110.39L175.64,110.35L175.63,110.27L175.64,110.21"/><path d="M175.63,110.27L175.58,110.46L175.58,110.46"/><path d="M175.86,109.89L175.89,109.82L177.71,110.07L178.04,110.12L178.38,110.19L178.71,110.27L179.04,110.37L179.36,110.47L179.07,110.50L178.77,110.50L178.45,110.50L178.13,110.47L177.66,110.42L177.67,110.30L177.71,110.07"/><path d="M175.89,109.82L175.88,109.74"/><path d="M176.01,110.27L215.03,115.65L215.39,115.68L215.75,115.67L216.09,115.63L216.43,115.56L216.75,115.45L217.04,115.30L217.31,115.13L217.55,114.93L217.76,114.70L217.94,114.44L218.08,114.17L218.18,113.88L218.24,113.58L218.26,113.26L218.31,106.06"/><path d="M175.98,110.18L177.66,110.42"/><path d="M177.70,111.44L177.68,111.42L177.67,111.37L177.66,111.24L177.67,111.07L179.35,111.28"/><path d="M218.68,115.10L218.48,115.41L218.25,115.69L217.97,115.95L217.66,116.18L217.33,116.37L216.96,116.53L216.58,116.65L216.17,116.73L215.75,116.77L215.32,116.77L214.89,116.73L215.03,115.65L214.90,115.12"/><path d="M216.94,113.97L217.21,113.42L217.19,113.68L217.13,113.93L217.03,114.16L216.88,114.40"/><path d="M217.21,113.42L217.21,113.42L218.26,113.26L219.05,113.67"/><path d="M217.21,113.42L217.25,106.21"/><path d="M217.04,108.93L217.07,109.27L217.10,109.47L217.16,108.79L217.19,108.24L217.13,108.25L217.02,108.24L217.02,108.53L217.04,108.93"/><path d="M217.41,106.19L217.41,107.75L217.42,108.04L217.46,108.32L217.53,108.60L217.63,108.86L217.76,109.11L217.80,108.91L217.83,108.69L217.85,108.44L217.87,108.17L217.87,107.89L217.98,107.86L218.07,107.82L218.13,107.76L218.12,107.94L218.07,108.23L218.00,108.53L217.89,108.82L217.76,109.11"/><path d="M217.21,106.63L217.20,107.85L217.19,108.24"/><path d="M217.02,108.24L217.02,106.68"/><path d="M217.41,107.75L217.46,107.80L217.54,107.85L217.64,107.88L217.76,107.89L217.87,107.89L217.88,106.33"/><path d="M218.52,108.00L218.43,107.96L218.46,108.29L218.51,108.60L218.59,108.92L218.68,109.24L218.78,109.02L218.86,108.78L218.91,108.52L218.95,108.25L218.96,107.96L218.87,108.00L218.75,108.02L218.63,108.02L218.52,108.00"/><path d="M218.43,107.96L218.43,106.40"/><path d="M218.43,107.81L218.42,107.68L218.43,106.34"/><path d="M218.13,107.76L218.14,107.64L218.14,106.14"/><path d="M218.96,107.96L218.97,106.40"/></g><g style="stroke:#000000;stroke-width:0.529"><path d="M219.09,106.46L219.05,113.67L219.02,114.04L218.95,114.41L218.84,114.76L218.41,115.65L218.21,115.96L217.98,116.25L217.70,116.51L217.39,116.73L217.06,116.93L216.69,117.08L216.31,117.20L215.90,117.28L215.48,117.32L215.06,117.32L214.62,117.28L175.60,111.91L175.57,111.83L175.60,111.48L175.48,111.46L175.47,111.38L175.48,111.21L175.51,111.15L175.55,111.07L175.57,110.96L175.59,110.83L175.61,110.70L175.61,110.59L175.60,110.51L175.58,110.46L175.61,110.30L175.64,110.21L175.76,110.22L175.78,110.14L175.80,110.02L175.81,109.89L175.83,109.82L175.88,109.74L214.90,115.12L215.20,115.14L215.50,115.13L215.78,115.08L216.05,115.00L216.31,114.89L216.53,114.75L216.73,114.58L216.88,114.40L216.92,114.23L216.94,113.97L216.98,106.77"/><path d="M217.21,106.63L217.21,106.29"/><path d="M218.14,106.14L218.14,106.08"/><path d="M218.43,106.34L218.43,106.12"/></g></g><g/><g><g/><g><path style="fill:#ffffff" d="M31.40,15.34L80.47,15.34L80.47,26.63L31.40,26.63z"/><text xml:space="preserve" fill="#000000" stroke-width="0" x="32.81" y="23.10" font-size="6.88" opacity="1.00" font-family="MS Shell Dlg">0010-ASM-001</text></g></g><g><g/><g><path style="fill:#ffffff" d="M6.53,180.00L136.05,180.00L136.05,199.05L6.53,199.05z"/><text xml:space="preserve" fill="#000000" stroke-width="0" x="7.59" y="185.82" font-size="5.18" opacity="1.00" font-family="MS Shell Dlg">a) Insert Door latch head in the slot so that the head will</text><text xml:space="preserve" fill="#000000" stroke-width="0" x="7.59" y="191.11" font-size="5.17" opacity="1.00" font-family="MS Shell Dlg">protrude from the Door internal catcher.</text><text xml:space="preserve" fill="#000000" stroke-width="0" x="7.59" y="196.40" font-size="5.17" opacity="1.00" font-family="MS Shell Dlg">b) Tighten the head to the catcher</text></g></g><g><g/><g><path style="fill:#ffffff" d="M168.00,180.00L286.84,180.00L286.84,193.76L168.00,193.76z"/><text xml:space="preserve" fill="#000000" stroke-width="0" x="169.06" y="185.82" font-size="5.18" opacity="1.00" font-family="MS Shell Dlg">a)   </text><text xml:space="preserve" fill="#000000" stroke-width="0" x="169.06" y="191.11" font-size="5.16" opacity="1.00" font-family="MS Shell Dlg">b) </text></g></g><g><g/><g><image x="82.357201" y="12.409999" height="15.000001" width="15.000001" xlink:href="33_files/ab33bb4c499df4c6_image_0.jpg"/></g></g><g><g/><g><image x="14.945761" y="13.167144" height="15.000001" width="15.000001" xlink:href="33_files/ab33bb4c499df4c6_image_1.jpg"/></g></g><g id="paperID" visibility="hidden" opacity="0.00" transform="scale(0.000100)"><path style="stroke:#000000;stroke-width:0.500;fill:#e6e6e6;fill-rule:evenodd" d="M-2000.00,-2000.00L2297.00,-2000.00L2297.00,2210.00L-2000.00,2210.00zM0.00,0.00L297.00,0.00L297.00,210.00L0.00,210.00z"/><path style="fill:#000000;fill-opacity:0.118" d="M3.00,210.00L297.00,210.00L297.00,3.00L300.00,3.00L300.00,213.00L3.00,213.00z"/></g><g id="hotspot.0" ident="" onmouseover="ShowHotSpot(evt,&apos;0&apos;)" onmouseout="HideHotSpot(evt,&apos;0&apos;)" onmousemove="ShowToolTip(evt,&apos;0&apos;,&quot;Copy 1 of Copy 1 of  6&quot;)" opacity="0"><a xlink:href="0.svg"><path style="fill:#00ff00;fill-rule:evenodd" d="M97.22,27.07L82.40,27.07L82.40,12.25L97.22,12.25z"/></a></g><g id="hotspot.1" ident="" onmouseover="ShowHotSpot(evt,&apos;1&apos;)" onmouseout="HideHotSpot(evt,&apos;1&apos;)" onmousemove="ShowToolTip(evt,&apos;1&apos;,&quot;Copy 1 of Copy 1 of Copy 1 of  6&quot;)" opacity="0"><a xlink:href="32.svg"><path style="fill:#00ff00;fill-rule:evenodd" d="M29.90,27.92L15.08,27.92L15.08,13.10L29.90,13.10z"/></a></g><g id="hotspot.2" ident="" onmouseover="ShowHotSpot(evt,&apos;2&apos;)" onmouseout="HideHotSpot(evt,&apos;2&apos;)" onmousemove="ShowToolTip(evt,&apos;2&apos;,&quot;0038_Door internal-hinges&quot;)" opacity="0"><path style="fill:#00ff00;fill-rule:evenodd" d="M225.05,10.57L224.77,101.45L224.40,104.78L223.66,104.77L216.50,103.33L214.00,106.83L210.33,106.18L210.33,86.16L211.79,83.65L212.91,82.23L213.18,78.25L213.21,33.72L212.93,33.44L210.63,32.91L210.81,12.53L213.92,8.25z"/></g><g id="hotspot.3" ident="" onmouseover="ShowHotSpot(evt,&apos;3&apos;)" onmouseout="HideHotSpot(evt,&apos;3&apos;)" onmousemove="ShowToolTip(evt,&apos;3&apos;,&quot;0578_Door internal catcher_V2&quot;)" opacity="0"><path style="fill:#00ff00;fill-rule:evenodd" d="M197.90,47.62L197.62,109.93L197.34,112.51L188.56,111.27L188.58,98.82L189.13,98.92L189.15,91.16L188.55,91.84L188.86,49.69L191.28,46.46L192.81,46.49zM197.35,114.64L197.35,128.62L188.30,141.09L188.48,113.49zM190.29,70.48L190.27,72.32L189.68,73.75L189.05,73.76L189.12,71.45L189.86,70.22zM195.94,92.01L196.51,92.86L196.52,93.82L196.12,94.29L194.22,94.29L193.08,94.02L193.10,92.69L194.12,91.72L195.37,91.73zM188.85,116.43L189.45,114.73L189.98,114.62L189.99,116.73L189.40,118.16L188.86,118.09z"/></g><g id="hotspot.4" ident="" onmouseover="ShowHotSpot(evt,&apos;4&apos;)" onmouseout="HideHotSpot(evt,&apos;4&apos;)" onmousemove="ShowToolTip(evt,&apos;4&apos;,&quot;0579_Door edge_V2&quot;)" opacity="0"><path style="fill:#00ff00;fill-rule:evenodd" d="M192.81,46.49L191.28,46.46L188.86,49.72L188.87,48.57L210.53,18.73L210.63,28.47L210.36,30.47L198.09,47.34L197.06,47.34zM222.25,104.46L222.81,104.87L219.12,109.96L219.11,109.09L219.39,107.09L219.72,106.16L219.13,105.58L216.74,105.58L216.19,105.89L216.30,107.01L216.88,107.56L216.87,113.06L215.91,114.65L213.18,114.65L207.96,113.80L213.07,107.00L214.01,106.81L216.50,103.33zM213.77,116.92L213.79,117.57L194.12,144.65L189.68,143.80L188.86,143.49L188.31,142.64L188.31,141.06L206.57,116.04zM193.99,141.21L194.27,141.90L193.31,142.67L191.38,142.67L190.84,142.37L190.83,141.05L191.29,140.66L193.40,140.66z"/></g><g id="hotspot.5" ident="" onmouseover="ShowHotSpot(evt,&apos;5&apos;)" onmouseout="HideHotSpot(evt,&apos;5&apos;)" onmousemove="ShowToolTip(evt,&apos;5&apos;,&quot;0078_Door front&quot;)" opacity="0"><path style="fill:#00ff00;fill-rule:evenodd" d="M210.63,32.91L212.93,33.44L213.21,33.72L213.20,43.76L207.55,51.70L204.88,55.82L203.26,60.42L202.16,66.10L201.21,67.98L200.91,68.92L201.90,69.09L202.20,69.37L201.77,70.53L200.44,70.52L200.15,71.15L200.14,72.53L200.69,73.40L201.87,73.63L201.86,89.29L201.60,99.20L200.73,100.64L200.61,101.16L201.89,101.35L201.88,102.30L201.28,103.15L200.08,103.02L200.08,105.41L200.41,105.64L202.17,105.62L202.42,106.16L203.28,107.29L204.71,107.60L205.45,107.61L206.85,106.72L209.97,102.46L210.33,106.18L213.18,106.71L207.98,113.81L206.96,113.81L197.52,112.49L197.90,61.00L198.20,47.16L210.24,30.60L210.36,30.63zM223.98,105.02L223.96,105.40L219.13,111.95L219.13,109.94L222.97,104.71L223.67,104.71zM216.88,114.19L216.45,114.67L215.90,114.67L216.88,113.24zM203.28,115.50L206.38,116.06L197.60,128.33L197.52,114.92L199.32,114.94zM194.22,144.48L213.94,117.21L215.19,117.21L215.22,117.56L195.26,144.92L194.20,144.92z"/></g><g id="hotspot.6" ident="" onmouseover="ShowHotSpot(evt,&apos;6&apos;)" onmouseout="HideHotSpot(evt,&apos;6&apos;)" onmousemove="ShowToolTip(evt,&apos;6&apos;,&quot;0109_printer door window&quot;)" opacity="0"><path style="fill:#00ff00;fill-rule:evenodd" d="M200.91,68.92L201.21,67.98L202.16,66.10L203.26,60.42L204.88,55.82L207.55,51.70L213.20,43.93L213.18,78.25L212.91,82.23L211.79,83.65L210.33,86.16L210.09,102.32L206.85,106.72L205.45,107.61L204.71,107.60L203.28,107.29L202.42,106.16L202.17,105.62L200.41,105.64L200.08,105.41L200.08,103.02L201.28,103.15L201.88,102.30L201.89,101.35L200.61,101.16L200.73,100.64L201.60,99.20L201.86,89.29L201.87,73.63L200.69,73.40L200.14,72.53L200.15,71.15L200.44,70.52L201.77,70.53L202.20,69.37L201.90,69.09z"/></g><g id="hotspot.7" ident="" onmouseover="ShowHotSpot(evt,&apos;7&apos;)" onmouseout="HideHotSpot(evt,&apos;7&apos;)" onmousemove="ShowToolTip(evt,&apos;7&apos;,&quot;0202_Door latch head&quot;)" opacity="0"><path style="fill:#00ff00;fill-rule:evenodd" d="M188.28,93.28L188.55,91.81L189.15,91.16L189.13,98.94L188.58,98.85L188.31,96.51L188.03,96.22L186.29,96.28L186.28,93.50L187.06,92.83z"/></g><g id="hotspot.8" ident="" onmouseover="ShowHotSpot(evt,&apos;8&apos;)" onmouseout="HideHotSpot(evt,&apos;8&apos;)" onmousemove="ShowToolTip(evt,&apos;8&apos;,&quot;0250_M4X8 socket countersunk head screw&quot;)" opacity="0"><path style="fill:#00ff00;fill-rule:evenodd" d="M190.29,70.48L190.27,72.32L189.68,73.75L189.05,73.76L189.12,71.45L189.86,70.22zM219.72,106.16L219.39,107.11L219.09,106.49L218.27,105.94L217.13,106.25L216.87,107.39L216.30,107.02L216.19,105.89L216.74,105.58L219.13,105.58zM188.85,116.43L189.45,114.73L189.98,114.62L189.99,116.73L189.40,118.16L188.86,118.09zM193.99,141.21L194.27,141.90L193.31,142.67L191.38,142.67L190.84,142.37L190.84,141.05L191.58,140.66L193.40,140.66z"/></g><g id="hotspot.9" ident="" onmouseover="ShowHotSpot(evt,&apos;9&apos;)" onmouseout="HideHotSpot(evt,&apos;9&apos;)" onmousemove="ShowToolTip(evt,&apos;9&apos;,&quot;0253_M4X10 socket head cap screw&quot;)" opacity="0"><path style="fill:#00ff00;fill-rule:evenodd" d="M195.94,92.01L196.51,92.86L196.52,93.82L196.12,94.29L194.22,94.29L193.08,94.02L193.10,92.69L194.12,91.72L195.37,91.73z"/></g><g id="ToolTip" visibility="hidden" opacity="0" transform="translate(0,0)"><rect id="ToolTipShadow" opacity="0.20" fill="black" stroke="none" x="0" y="0" width="30" height="8"/><rect id="ToolTipBG" fill="#ffffe1" stroke="black" x="0" y="0" width="30" height="8"/><text xml:space="preserve" id="ToolTipText" fill="black" x="0" y="0" width="30" height="8">tooltip</text></g></g></svg>