<?xml version="1.0" encoding="UTF-8" standalone="yes"?><svg xmlns="http://www.w3.org/2000/svg" xmlns:xlink="http://www.w3.org/1999/xlink" width="297.000mm" height="210.000mm" viewBox="0.000000 0.000000 297.000000 210.000000" stroke-linejoin="round" stroke-linecap="round" fill="none" fill-rule="evenodd"><desc>Composer Export</desc><script type="text/ecmascript"><![CDATA[
if(typeof(top) != "undefined")
{
	top.ShowPaper = ShowPaper;
}
function ShowHotSpot(evt,hotspotid)
{
	var svgDocument = evt.target.ownerDocument;
	var strId = "hotspot."+hotspotid;
	var hotspot = svgDocument.getElementById(strId);
	if(hotspot)
		hotspot.setAttribute("opacity",".5");
}
function HideHotSpot(evt,hotspotid)
{
	var svgDocument = evt.target.ownerDocument;
	var strId = "hotspot."+hotspotid;
	var hotspot = svgDocument.getElementById(strId);
	if(hotspot)
		hotspot.setAttribute("opacity","0");

	var toolTip = svgDocument.getElementById('ToolTip');
	if(toolTip)
		toolTip.setAttribute("visibility","hidden");
}
function ShowToolTip(evt,hotspotid,strTooltip)
{
	if(strTooltip=="")
	return;

	// change text
	var svgDocument = evt.target.ownerDocument;
	var tiptext = svgDocument.getElementById('ToolTipText');
	if( !tiptext )
	return;
	tiptext.firstChild.nodeValue = " " + strTooltip + "  " ;

	// show tooltip before, else some refresh issue

	var toolTip = svgDocument.getElementById('ToolTip');
	if(!toolTip)
	return;

	toolTip.setAttribute("visibility","visible");
	toolTip.setAttribute("opacity",".95");

	// move tooltip
	// get viewbox

	var root = svgDocument.documentElement;
	var vbox = (root.getAttribute("viewBox")).split(' ');
	var x0 = parseFloat(vbox[0]);
	var y0 = parseFloat(vbox[1]);
	var vboxW = parseFloat(vbox[2]);
	var vboxH = parseFloat(vbox[3]);

	// get default width of svg

	var strW = root.getAttribute("width");
	var svgW = parseFloat(strW);
	if(strW.indexOf('mm') != -1)
	svgW *= 3.779;

	var strH = root.getAttribute("height");
	var svgH = parseFloat(strH);
	if(strH.indexOf('mm') != -1)
	svgH *= 3.779;  	// 96 dpi  -> 96/25.4 = 3.779

	// update the viewbox / width / height if svg is embedded in html with zoom fit all
	var realx0 = x0;
	var realy0 = y0;
	var realvboxW = vboxW;
	var realvboxH = vboxH;
	var realsvgW = svgW;
	var realsvgH = svgH;

	if ((typeof(top) == "undefined") || (typeof(top.svgctl1) != "undefined")) // embedded in html
	{
		// get window size in pxl

		svgW = window.innerWidth;
		svgH = window.innerHeight;

		// calculate real viewbox

		realsvgW = svgW;
		realsvgH = svgH;
		if((svgW / svgH) > (vboxW / vboxH))
		{
			realvboxW = (vboxH * svgW) / svgH;
			realvboxH = vboxH;
			realx0 = x0 - (realvboxW - vboxW)/2 ;
		}
		else
		{
			realvboxH = (vboxW * svgH) / svgW;
			realvboxW = vboxW;
			realy0 = y0 - (realvboxH - vboxH)/2 ;
		}
	}

	// get user zoom/pan

	var newScale = root.currentScale;
	var translation = root.currentTranslate;

	// transform pxl to user unit

	var xPos = (((evt.clientX+10- translation.x)/newScale) * realvboxW)/realsvgW  + realx0 ;
	var yPos = (((evt.clientY+5- translation.y)/newScale) * realvboxH)/ realsvgH  + realy0 ;
	var scaleForWidth = ( (1 / newScale) * realvboxH) / realsvgH;

	// move tooltip

	toolTip.setAttribute("transform", "translate(" + xPos + "," + yPos + ")" );

	// resize tooltip

	var fontsize = 12;
	tiptext.setAttribute("font-size",fontsize*scaleForWidth);
	tiptext.setAttribute("y", fontsize*scaleForWidth);
	var tipBG = svgDocument.getElementById('ToolTipBG');
	var outline = tiptext.getBBox();
	if(tipBG)
	{
		tipBG.setAttribute("stroke-width", 1*scaleForWidth);
		tipBG.setAttribute("width", Number(outline.width) );
		tipBG.setAttribute("height", Number(outline.height) + fontsize*.5*scaleForWidth );
	}
	var ToolTipShadow = svgDocument.getElementById('ToolTipShadow');
	if(ToolTipShadow)
	{
		ToolTipShadow.setAttribute("width", Number(outline.width) );
		ToolTipShadow.setAttribute("height", Number(outline.height) + fontsize*.5*scaleForWidth );
		ToolTipShadow.setAttribute("x", 3*scaleForWidth);
		ToolTipShadow.setAttribute("y", 3*scaleForWidth);
	}
}
function ShowPaper()
{
  var svgDocument = getDocument();
  var paper = svgDocument.getElementById("paperID");
  if(paper)
  {
    paper.setAttribute("transform","scale(1)");
    paper.setAttribute("opacity","1");
    paper.setAttribute("visibility","visible");
  }
  var svg = svgDocument.getRootElement();
  if(svg)
  {
    svg.setAttribute("width","307.000mm");
    svg.setAttribute("height","220.000mm");
    svg.setAttribute("viewBox","-5.000000 -5.000000 307.000000 220.000000");
  }
}
]]></script><defs/><g><path style="fill:#ffffff" d="M297.00,210.08L0.07,210.08L0.07,0.07L297.00,0.07z"/><path style="fill:#fff2e8" d="M164.86,64.14L165.13,67.15L164.91,67.73L163.48,67.71L162.72,66.47L162.73,63.79L163.14,63.43L163.99,63.44z"/><path style="fill:#fff2e8" d="M164.61,125.01L164.74,125.58L164.61,128.24L164.39,128.61L163.47,128.61L162.99,128.31L162.21,126.59L162.21,125.14L162.61,124.29L163.74,124.32z"/><path style="fill:#e50000" d="M187.06,27.83L186.91,27.39L187.60,27.34L187.63,27.99z"/><path style="fill:#cdd1d5" d="M181.70,89.60L182.46,89.54L182.77,89.33L183.04,85.80L183.16,85.63L183.28,85.76L183.02,95.88L182.86,96.01L182.64,95.73L182.77,92.75L181.93,92.74L181.80,92.93L181.50,93.32L180.23,93.28L179.86,92.98L180.26,89.84L181.16,89.16L181.59,89.25z"/><path style="fill:#e5e5e5" d="M194.62,28.78L194.04,153.96L193.74,154.16L186.70,155.74L187.44,30.39L190.96,29.40L194.54,28.62z"/><path style="fill:#ffffff" d="M188.59,92.64L187.93,92.60L187.99,92.08L188.30,91.68z"/><path style="fill:#ff0000" d="M188.62,27.54L188.23,27.93L187.63,27.99L187.60,27.34L188.56,27.40z"/><path style="fill:#e2e9ed" d="M183.16,85.63L183.04,85.80L182.77,89.33L182.46,89.54L181.70,89.60L181.59,89.25L181.75,89.09L181.99,85.82L182.33,85.34L183.04,85.15z"/><path style="fill:#e2e9ed" d="M179.51,89.34L179.91,88.99L181.16,89.16L180.26,89.84L179.86,92.98L179.50,92.78z"/><path style="fill:#e2e9ed" d="M182.06,95.51L181.80,92.93L181.93,92.74L182.77,92.75L182.64,95.73z"/><path style="fill:#e5d9d0" d="M165.49,64.96L166.66,64.96L169.05,64.38L168.98,65.54L165.42,66.48L165.13,67.15L164.86,64.14L165.08,64.17z"/><path style="fill:#e5d9d0" d="M164.03,65.20L163.99,65.53L163.49,65.83L163.40,64.93L163.74,64.90z"/><path style="fill:#e5d9d0" d="M192.80,90.74L192.80,92.11L192.30,93.11L191.20,93.79L189.67,93.44L189.19,92.93L189.78,92.86L190.01,91.32L190.69,90.50L191.88,89.96L192.15,89.97z"/><path style="fill:#e5d9d0" d="M165.24,125.83L166.15,125.83L168.78,125.22L168.66,126.33L165.17,127.34L164.61,128.24L164.74,125.58L164.61,125.01L164.81,125.01z"/><path style="fill:#e5d9d0" d="M163.79,126.07L163.74,126.43L163.14,126.42L163.13,125.81L163.49,125.76z"/><path style="fill:#fff2e8" d="M168.80,63.66L169.05,64.38L166.66,64.96L165.49,64.96L165.08,64.17L167.66,63.45L168.50,63.43z"/><path style="fill:#fff2e8" d="M191.88,89.96L190.69,90.50L190.01,91.32L189.78,92.86L189.19,92.93L188.59,92.64L188.30,91.68L188.93,90.50L190.97,89.74L191.53,89.72z"/><path style="fill:#fff2e8" d="M192.03,91.26L192.06,92.10L191.56,92.64L191.02,92.81L190.71,92.60L190.71,91.52L191.56,91.00z"/><path style="fill:#fff2e8" d="M168.55,124.52L168.78,125.22L166.15,125.83L165.24,125.83L164.81,125.01L167.16,124.32L168.25,124.31z"/><path style="fill:#0000ff" d="M257.46,53.64L258.18,55.43L258.16,56.94L257.82,58.22L257.15,58.23L256.57,57.99L256.50,57.71L257.58,57.20L257.66,55.67L253.07,56.70L252.91,58.04L252.49,58.58L251.65,58.45L251.13,57.71L251.14,55.27L255.40,54.02L256.12,53.40L256.12,53.16L256.64,53.16z"/><path style="fill:#0000ff" d="M205.83,54.42L206.05,55.42L205.91,55.86L204.73,55.94L200.97,56.95L200.70,58.64L200.52,58.78L199.81,58.70L199.31,58.18L199.03,57.46L199.02,55.75L199.71,55.18L203.54,54.25L203.95,53.39L204.31,53.41z"/><path style="fill:#0000ff" d="M206.16,56.08L206.34,57.02L205.73,57.94L204.73,58.01L204.56,57.83L204.82,57.45L205.46,57.46L205.82,56.79L205.91,55.86z"/><path style="fill:#0000ff" d="M218.64,69.67L219.12,70.97L219.32,71.20L219.37,72.55L218.83,73.56L217.84,73.47L217.34,72.94L215.76,73.23L214.08,73.22L213.83,72.98L213.79,71.52L214.00,71.22L216.28,70.75L217.31,69.52L218.34,69.45z"/><path style="fill:#0000ff" d="M257.40,70.98L257.67,71.46L258.16,72.97L258.17,74.32L257.68,75.29L256.53,74.92L256.79,74.48L257.45,74.38L257.68,74.08L257.69,72.73L256.33,72.98L252.82,73.98L252.51,75.64L251.89,75.76L251.42,75.46L250.88,74.24L250.88,72.79L251.30,72.21L255.31,71.21L255.78,70.47z"/><path style="fill:#0000ff" d="M218.34,113.77L219.09,116.32L218.58,117.90L217.59,117.80L217.33,117.32L215.16,117.54L214.60,117.32L213.92,117.53L213.54,117.08L213.54,115.85L214.31,115.37L216.58,114.81L216.83,113.85L217.10,113.56L218.11,113.56z"/><path style="fill:#0000ff" d="M205.10,114.77L205.83,116.56L205.49,119.08L204.28,119.08L203.89,118.77L205.34,118.17L205.34,116.57L200.79,117.63L200.40,119.45L200.20,119.59L199.57,119.57L198.78,118.58L198.80,116.39L199.21,116.05L203.30,115.13L204.05,114.35L204.56,114.28z"/><path style="fill:#0000ff" d="M256.92,154.12L257.67,155.63L257.66,157.47L257.32,158.41L256.91,158.42L256.00,157.99L256.42,157.66L256.95,157.54L257.17,157.24L257.14,155.84L256.66,156.17L255.84,156.12L252.57,156.88L252.42,157.98L251.99,158.78L251.15,158.64L250.63,157.91L250.63,155.45L254.82,154.38L255.58,153.34z"/><path style="fill:#0000ff" d="M256.64,170.93L257.42,172.66L257.65,174.48L256.58,175.46L255.92,175.43L255.73,175.12L256.43,174.70L256.89,174.76L257.18,174.27L257.19,172.93L252.80,173.90L252.32,174.17L252.06,175.87L251.87,176.01L251.16,175.93L250.38,174.44L250.37,172.97L251.05,172.40L255.07,171.41L255.64,170.70L256.17,170.63z"/><path style="fill:#0000e5" d="M251.34,55.90L252.15,55.94L252.42,56.42L252.33,56.70L251.59,56.79z"/><path style="fill:#0000e5" d="M200.34,56.44L200.22,56.96L199.74,57.04L199.46,55.92L199.77,55.90z"/><path style="fill:#0000e5" d="M205.82,56.79L205.46,57.46L204.82,57.45L204.56,57.83L200.70,58.64L200.97,56.95L204.73,55.94L205.91,55.86z"/><path style="fill:#0000e5" d="M257.58,57.20L256.50,57.71L252.49,58.58L252.91,58.04L253.07,56.70L257.66,55.67z"/><path style="fill:#0000e5" d="M218.00,71.94L218.28,71.45L218.58,71.44L218.60,72.35L218.37,72.58z"/><path style="fill:#0000e5" d="M215.57,72.82L215.25,72.84L215.32,72.27L215.62,72.23z"/><path style="fill:#0000e5" d="M252.42,73.72L251.65,74.07L251.31,72.96L251.90,72.93z"/><path style="fill:#0000e5" d="M257.68,74.08L257.45,74.38L256.79,74.48L256.53,74.92L252.51,75.64L252.82,73.98L256.33,72.98L257.69,72.73z"/><path style="fill:#0000e5" d="M218.05,115.75L218.30,115.78L218.35,116.69L218.08,116.92z"/><path style="fill:#0000e5" d="M215.32,117.08L215.01,117.15L215.01,116.55L215.27,116.50z"/><path style="fill:#0000e5" d="M200.10,117.33L200.06,117.62L199.30,117.90L198.96,117.00L199.19,116.78L199.55,116.77z"/><path style="fill:#0000e5" d="M215.16,117.54L215.07,117.64L213.92,117.53L214.60,117.32z"/><path style="fill:#0000e5" d="M205.34,118.17L203.89,118.77L200.40,119.45L200.79,117.63L205.34,116.57z"/><path style="fill:#0000e5" d="M256.66,156.17L257.14,155.84L257.17,157.24L256.95,157.54L256.42,157.66L256.00,157.99L251.99,158.78L252.42,157.98L252.57,156.88L255.84,156.12z"/><path style="fill:#0000e5" d="M251.95,156.65L251.92,156.97L251.08,156.97L250.84,156.09L251.38,156.10z"/><path style="fill:#0000e5" d="M251.52,173.30L251.65,173.99L251.16,174.27L250.86,173.68L250.82,173.15z"/><path style="fill:#0000e5" d="M257.18,174.27L256.89,174.76L256.43,174.70L255.73,175.12L252.06,175.87L252.32,174.17L252.80,173.90L257.19,172.93z"/><path style="fill:#e5e5e5" d="M185.04,59.69L185.02,60.56L184.45,60.56L184.26,59.70L182.67,59.01L182.88,58.40L183.19,58.16L183.77,58.16z"/><path style="fill:#e5e5e5" d="M259.85,84.76L258.83,84.84L258.83,51.18L259.95,50.94z"/><path style="fill:#e5e5e5" d="M183.04,85.15L182.33,85.34L182.66,84.72L182.81,84.72z"/><path style="fill:#e5e5e5" d="M182.64,95.73L182.86,96.01L182.75,96.15L182.20,96.11L182.06,95.51z"/><path style="fill:#e5e5e5" d="M184.31,119.78L184.79,120.83L184.70,121.34L184.20,121.42L184.01,120.57L182.17,119.81L182.67,119.03L183.53,119.04z"/><path style="fill:#e5e5e5" d="M225.04,68.24L224.09,69.79L223.59,71.80L223.34,97.60L223.36,121.16L222.25,121.16L222.09,119.56L222.09,102.36L222.34,72.05L222.84,70.04L223.74,68.69L224.51,67.97L225.60,67.69z"/><path style="fill:#e5e5e5" d="M259.42,179.51L258.40,179.77L258.32,145.86L259.45,145.63z"/><path style="fill:#ffffff" d="M193.56,91.00L193.55,91.84L193.22,92.77L192.18,93.99L190.71,94.52L188.52,94.51L188.17,93.98L188.40,93.75L189.67,93.44L191.20,93.79L192.30,93.11L192.80,92.11L192.80,90.74L192.15,89.97L192.53,89.98z"/><g id="Actor_7.0"><g style="stroke:#000000;stroke-width:0.176"><path d="M162.87,124.01L163.28,124.06L163.71,124.34L164.09,124.83L164.40,125.48L164.60,126.22L164.67,126.95L164.60,127.62L164.40,128.13L164.08,128.45"/><path d="M162.97,126.44L163.38,127.06L163.79,126.88L163.80,126.09L163.71,125.95L163.43,125.54L162.97,125.64L162.97,126.44L163.70,126.27L163.70,125.95"/><path d="M163.70,126.27L163.80,126.41"/><path d="M162.97,125.64L163.38,125.47L163.43,125.54"/><path d="M163.80,126.34L163.75,126.22L163.71,125.99L163.71,125.95"/><path d="M163.75,126.22L163.80,126.21"/><path d="M164.89,127.55L164.96,126.89L164.89,126.15L164.69,125.41L164.38,124.77L163.99,124.27"/><path d="M165.12,126.96L165.11,126.98L165.21,126.70L165.25,126.35L165.22,125.96L165.11,125.57L164.95,125.23L164.74,124.97L164.62,124.85L164.81,124.98L165.01,125.23L165.17,125.56L165.27,125.94L165.30,126.32L165.27,126.66L165.16,126.92L165.12,126.96"/><path d="M165.11,126.98L165.07,127.07"/><path d="M165.11,126.96L165.12,126.95"/><path d="M164.62,124.85L164.53,124.77"/><path d="M168.27,124.15L168.47,124.41L168.63,124.74L168.73,125.12L168.77,125.49L168.73,125.83"/></g><g style="stroke:#000000;stroke-width:0.529"><path d="M165.07,127.07L164.89,127.55L164.68,128.07L164.37,128.38L164.08,128.45L163.69,128.53L163.27,128.36L162.86,127.96L162.50,127.39L162.24,126.69L162.11,125.94L162.11,125.23L162.25,124.63L162.51,124.21L162.87,124.01L163.15,123.94L163.57,123.99L163.99,124.27L164.53,124.77L167.84,123.99L168.05,124.01L168.27,124.15L168.43,124.30L168.59,124.51L168.72,124.77L168.80,125.07L168.83,125.38L168.80,125.65L168.73,125.83L168.62,126.10L168.46,126.26L165.07,127.07"/></g></g><g id="Actor_7.1"><g style="stroke:#000000;stroke-width:0.176"><path d="M163.29,65.64L163.29,64.84L163.75,64.73L164.12,65.28L164.12,66.08L163.70,66.26L163.29,65.64L164.02,65.46L164.12,65.60"/><path d="M163.29,64.84L163.71,64.66L163.75,64.73"/><path d="M164.40,67.65L164.72,67.33L164.92,66.81L164.99,66.15L164.93,65.41L164.75,64.77L164.73,64.68L164.42,64.03L164.03,63.54L163.60,63.25L163.19,63.21"/><path d="M164.31,63.47L164.70,63.96L165.01,64.61L165.12,65.02L165.21,65.35L165.28,66.08L165.21,66.75"/><path d="M164.02,65.46L164.03,65.14"/><path d="M164.12,65.54L164.07,65.42L164.03,65.18L164.03,65.15"/><path d="M164.07,65.42L164.12,65.41"/><path d="M165.08,64.14L164.94,64.05L165.06,64.16L165.27,64.42L165.43,64.77L165.54,65.15L165.57,65.54L165.54,65.87L165.54,65.89L165.43,66.18L165.48,66.12L165.59,65.86L165.62,65.52L165.59,65.14L165.49,64.76L165.33,64.43L165.13,64.18L165.08,64.14"/><path d="M164.94,64.05L164.85,63.97"/><path d="M165.43,66.18L165.39,66.26"/><path d="M165.44,66.15L165.44,66.15"/><path d="M169.05,65.03L169.09,64.69L169.05,64.31L168.95,63.94L168.79,63.61L168.59,63.35"/></g><g style="stroke:#000000;stroke-width:0.529"><path d="M165.39,66.26L165.21,66.75L165.00,67.26L164.69,67.58L164.40,67.65L164.01,67.72L163.59,67.56L163.18,67.16L162.82,66.58L162.56,65.88L162.43,65.14L162.43,64.43L162.57,63.83L162.83,63.41L163.19,63.21L163.48,63.14L163.89,63.19L164.31,63.47L164.85,63.97L168.16,63.18L168.37,63.21L168.59,63.35L168.75,63.50L168.91,63.70L169.04,63.97L169.12,64.27L169.15,64.58L169.12,64.85L169.05,65.03L168.95,65.30L168.78,65.46L165.39,66.26"/></g></g><g id="Actor_5.0"><g style="stroke:#000000;stroke-width:0.176"><path d="M179.27,89.50L180.09,89.95L180.05,90.02L180.03,90.09L180.02,90.16L180.01,92.70L179.18,92.25"/><path d="M179.25,92.43L180.08,92.87L180.55,93.29L180.60,93.32"/><path d="M180.02,90.16L179.19,89.72"/><path d="M180.01,92.70L180.02,92.77L180.04,92.83L180.08,92.87"/><path d="M180.55,93.29L179.72,92.85"/><path d="M181.65,89.34L181.67,89.38L181.71,89.43L181.76,89.46L181.82,89.47L181.88,89.47L181.65,89.34L181.53,89.14L181.49,89.09L181.44,89.06L181.38,89.04L181.32,89.05L181.17,89.08L180.74,89.19L180.68,89.21L180.62,89.25L180.57,89.31L180.09,89.95"/><path d="M180.74,89.19L179.91,88.74"/><path d="M179.74,88.86L180.57,89.31"/><path d="M180.49,88.60L181.32,89.05"/><path d="M181.44,89.06L181.28,88.97"/><path d="M183.19,85.57L183.08,85.62L182.95,85.73L182.84,85.88L182.77,86.05L182.74,86.23L182.73,88.99L182.71,89.08L182.68,89.16L182.62,89.24L182.56,89.29L182.48,89.32L181.65,88.88"/><path d="M182.71,92.58L182.35,92.39L182.46,92.36L182.54,92.36L182.61,92.38L182.66,92.43L182.70,92.50L182.71,92.58L182.69,95.35L182.72,95.51L182.79,95.65L182.89,95.75"/><path d="M182.69,95.35L181.87,94.90"/><path d="M182.35,92.39L181.88,92.50"/><path d="M181.90,88.54L182.73,88.99"/><path d="M182.48,89.32L181.88,89.47"/><path d="M182.74,86.23L181.91,85.78"/><path d="M182.41,85.11L183.19,85.53"/></g><g style="stroke:#000000;stroke-width:0.529"><path d="M183.02,84.96L182.41,85.11L182.26,85.17L182.12,85.28L182.01,85.43L181.94,85.60L181.91,85.78L181.90,88.54L181.89,88.63L181.85,88.72L181.80,88.79L181.73,88.85L181.65,88.88L181.28,88.97L180.61,88.61L180.56,88.60L180.49,88.60L179.91,88.74L179.85,88.76L179.79,88.81L179.74,88.86L179.27,89.50L179.23,89.57L179.20,89.64L179.19,89.72L179.18,92.25L179.19,92.32L179.21,92.38L179.25,92.43L179.72,92.85L179.77,92.88L180.60,93.32L180.66,93.34L180.72,93.33L181.30,93.19L181.36,93.17L181.42,93.13L181.47,93.07L181.51,93.00L181.65,92.69L181.69,92.63L181.75,92.57L181.80,92.53L181.87,92.51L181.88,92.50"/><path d="M183.15,95.78L183.03,95.79L182.89,95.75L182.07,95.30L181.96,95.20L181.89,95.06L181.87,94.90L181.88,92.50"/></g></g><g id="Actor_10.0"><g style="stroke:#000000;stroke-width:0.176"><path d="M182.76,123.33L182.45,122.82L182.13,121.97L181.97,121.07L181.98,120.22L182.15,119.50L182.47,119.00L182.90,118.76L183.39,118.82L183.50,118.89L183.90,119.16L184.37,119.76L184.75,120.54L184.99,121.43L185.07,122.31L184.98,123.11L184.73,123.73L184.35,124.11L183.88,124.20L183.37,124.00L182.87,123.52L182.76,123.33"/><path d="M182.64,96.76L182.80,96.80L182.94,96.76L183.01,96.67L182.64,96.76L182.49,96.63L182.35,96.44L182.24,96.20L182.17,95.93L182.15,95.35"/><path d="M182.15,95.66L182.56,95.56"/><path d="M183.01,96.67L183.05,96.63L183.12,96.44L183.14,96.19L183.20,85.69L183.18,85.42L183.11,85.15L183.00,84.91L182.86,84.72L182.71,84.60L182.55,84.55L182.42,84.60L182.30,84.72L182.23,84.91L182.21,85.21"/><path d="M182.21,85.16L183.02,84.96"/><path d="M182.46,61.17L182.77,62.02L183.19,62.71L183.69,63.19L184.20,63.40L184.67,63.30L185.05,62.93L185.30,62.31L185.39,61.51L185.31,60.62L185.07,59.75L184.69,58.96L184.23,58.36L183.72,58.01L183.22,57.96L182.79,58.19L182.47,58.70L182.30,59.42L182.29,60.27L182.46,61.17"/><path d="M182.02,27.24L187.31,30.09L186.65,155.62"/><path d="M184.43,119.89L184.22,120.00L184.06,120.24L183.98,120.59L183.98,121.00L184.05,121.43L184.20,121.83L184.41,122.17L184.65,122.39L184.89,122.49L185.05,122.46"/><path d="M185.37,61.66L185.21,61.69L184.97,61.59L184.73,61.36L184.53,61.03L184.38,60.62L184.30,60.19L184.30,59.78L184.38,59.44L184.53,59.20L184.76,59.09"/><path d="M186.98,27.67L186.80,27.57L186.71,27.46L186.74,27.35L186.86,27.24L187.08,27.15L187.36,27.10L187.67,27.08L187.99,27.10L188.28,27.15L188.50,27.24L188.63,27.34L188.66,27.46L188.59,27.57L188.42,27.67L188.16,27.74L187.99,27.76L187.54,27.78L187.23,27.74L186.98,27.67"/><path d="M189.79,93.27L188.26,93.64L188.06,93.65"/><path d="M188.26,93.64L189.92,94.53L189.26,94.57L188.68,94.37L188.21,93.96L187.92,93.37L187.82,92.66L187.89,92.22L188.27,92.43L187.95,92.44L187.85,92.41"/><path d="M188.27,92.43L188.48,92.38"/><path d="M187.89,92.22L187.92,91.90L188.23,91.17L188.70,90.53L189.29,90.05L189.94,89.78L191.42,89.43L192.07,89.39L192.65,89.59L193.12,90.00L193.42,90.59L193.52,91.30L193.41,92.06L193.10,92.80L192.63,93.43L192.04,93.91L191.39,94.18L189.92,94.53"/><path d="M187.31,30.09L194.68,28.34"/><path d="M189.73,93.29L191.39,94.18"/><path d="M191.62,89.42L191.72,89.62"/></g><g style="stroke:#000000;stroke-width:0.529"><path d="M181.69,88.86L182.02,27.24L182.66,26.06L188.06,24.77L194.68,28.34L194.02,153.87L186.65,155.62L181.35,152.77L181.67,92.67"/></g></g><g id="Actor_2.0"><g style="stroke:#000000;stroke-width:0.176"><path d="M201.61,20.17L258.79,50.99L258.61,84.87"/><path d="M204.11,118.46L204.30,118.64L204.73,118.82L205.13,118.74L205.46,118.42L205.67,117.89L205.74,117.21L205.68,116.46L205.47,115.70L205.15,115.04L204.76,114.53L204.32,114.24L203.91,114.19L203.53,114.39L203.26,114.82L203.24,114.90"/><path d="M204.43,57.65L204.62,57.84L205.06,58.01L205.46,57.94L205.78,57.62L205.99,57.09L206.07,56.41L206.00,55.65L205.79,54.90L205.48,54.23L205.08,53.73L204.64,53.43L204.22,53.38L203.85,53.59L203.58,54.01L203.56,54.10"/><path d="M216.57,114.60L216.71,113.97L216.96,113.57L217.30,113.38L217.69,113.43L218.09,113.70L218.46,114.17L218.75,114.79L218.94,115.48L219.00,116.18L218.93,116.81L218.74,117.30L218.44,117.60L218.07,117.67L217.67,117.51L217.28,117.13L217.12,116.87"/><path d="M217.35,72.65L217.51,72.91L217.90,73.28L218.32,73.44L218.67,73.37L218.97,73.08L219.17,72.59L219.24,71.96L219.17,71.26L218.99,70.57L218.69,69.95L218.32,69.48L217.92,69.21L217.53,69.16L217.19,69.35L216.94,69.75L216.80,70.38"/><path d="M258.11,179.56L258.29,145.67L226.84,128.72L225.87,128.04L224.94,127.07L224.09,125.84L223.34,124.40L222.73,122.81L222.28,121.13L222.00,119.42L221.92,117.75L223.14,117.46"/><path d="M221.92,117.75L222.15,73.53L222.25,71.97L222.54,70.56L222.86,69.77L223.01,69.38L223.64,68.45L224.39,67.83L225.26,67.52L225.62,67.54"/><path d="M222.15,73.53L223.38,73.24"/><path d="M226.84,128.72L228.07,128.43"/><path d="M254.96,171.27L254.98,171.19L255.25,170.76L255.61,170.56L256.04,170.60L256.47,170.90L256.87,171.41L257.19,172.07L257.39,172.82L257.46,173.58L257.38,174.26L257.17,174.79L256.85,175.11L256.45,175.19L256.01,175.01L255.82,174.82"/><path d="M255.05,154.13L255.07,154.05L255.34,153.62L255.71,153.42L256.13,153.47L256.56,153.76L256.96,154.27L257.28,154.94L257.48,155.69L257.55,156.45L257.48,157.12L257.26,157.65L256.94,157.97L256.54,158.05L256.11,157.88L255.91,157.69"/><path d="M256.35,74.61L256.54,74.80L256.98,74.97L257.38,74.89L257.70,74.57L257.91,74.05L257.99,73.37L257.92,72.61L257.72,71.86L257.40,71.19L257.00,70.68L256.57,70.39L256.14,70.34L255.78,70.54L255.51,70.97L255.49,71.05"/><path d="M256.44,57.47L256.64,57.66L257.07,57.83L257.47,57.76L257.79,57.44L258.00,56.91L258.08,56.23L258.01,55.47L257.81,54.72L257.49,54.06L257.09,53.55L256.66,53.26L256.24,53.21L255.87,53.41L255.60,53.84L255.58,53.92"/><path d="M259.52,145.38L258.29,145.67"/><path d="M258.79,50.99L260.02,50.69"/></g><g style="stroke:#000000;stroke-width:0.529"><path d="M201.43,54.60L201.61,20.17L202.84,19.87L260.02,50.69L259.84,84.58L258.61,84.87L227.16,67.92L226.19,67.55L225.62,67.54L224.86,68.16L224.24,69.09L223.77,70.27L223.48,71.67L223.38,73.24L223.14,117.46L223.23,119.13L223.51,120.84L223.96,122.52L224.57,124.11L225.32,125.56L226.17,126.77L227.10,127.75L228.07,128.43L259.52,145.38L259.34,179.26L258.11,179.56L200.93,148.74L201.09,119.18"/><path d="M201.11,115.40L201.41,58.37"/></g></g><g id="Actor_2.1"><g style="stroke:#000000;stroke-width:0.176"><path d="M251.09,73.46L251.12,73.82L251.21,74.18L251.36,74.51L251.54,74.76L251.75,74.93L251.95,74.98L252.14,74.93L252.28,74.76L252.38,74.50L252.41,74.18L252.41,74.14L252.38,73.82L252.29,73.46L252.15,73.14L251.96,72.88L251.76,72.72L251.56,72.66L251.55,72.66L251.37,72.72L251.22,72.88L251.12,73.14L251.09,73.46L251.40,73.49L251.43,73.78L251.50,74.07L251.62,74.33L251.77,74.54L251.93,74.67L252.10,74.72L252.25,74.67L252.36,74.54"/><path d="M250.74,73.28L250.79,73.82L250.93,74.37L251.15,74.86L251.43,75.25L251.74,75.51L252.06,75.59L252.34,75.50L252.56,75.25L252.71,74.86L252.76,74.37L252.71,73.82L252.57,73.27L252.35,72.78L252.07,72.39L251.76,72.14L251.56,72.08L251.45,72.05L251.17,72.14L250.94,72.39L250.80,72.78L250.74,73.28L250.74,73.27L250.74,73.27"/><path d="M251.99,72.92L251.94,72.88L251.78,72.84L251.63,72.88L251.51,73.02L251.43,73.23L251.40,73.49L252.22,73.29"/><path d="M252.76,74.37L252.77,74.37L252.79,74.37L252.82,74.37L252.77,73.81L252.63,73.25L252.40,72.75L252.11,72.35L251.80,72.09L251.48,72.00"/><path d="M256.76,73.43L256.70,73.94L256.55,74.34L256.39,74.52L256.41,74.51L256.63,74.26L256.77,73.88L256.82,73.39L256.75,73.41L256.76,73.43L252.82,74.37L252.76,74.87L252.61,75.28L252.38,75.53L252.10,75.62"/><path d="M256.82,73.39L256.78,72.85L256.64,72.31L256.42,71.82L256.14,71.44L255.84,71.19L255.74,71.16L255.73,71.15L255.43,71.07L255.52,71.04L255.84,71.13L256.15,71.39L256.44,71.79L256.67,72.29L256.81,72.85L256.86,73.41L256.96,73.38L256.96,73.36L257.03,73.34L256.98,73.83L256.83,74.22L256.61,74.47L256.60,74.47L256.53,74.55L256.24,74.64L256.14,74.66L256.43,74.57L256.66,74.31L256.80,73.91L256.86,73.41"/><path d="M257.03,73.34L256.98,72.80L256.84,72.26L256.62,71.77L256.35,71.39L256.04,71.14L255.95,71.11L256.26,71.36L256.54,71.76L256.77,72.27L256.91,72.82L256.96,73.36"/><path d="M255.95,71.11L255.94,71.11L255.63,71.02L255.72,70.99L256.04,71.08L256.36,71.34L256.64,71.74L256.87,72.24L257.01,72.80L257.06,73.36L257.01,73.86L256.86,74.27L256.63,74.52L256.34,74.61L256.33,74.61"/><path d="M255.74,71.16L256.05,71.41L256.34,71.81L256.56,72.31L256.71,72.87L256.75,73.41"/><path d="M255.92,70.05L256.22,69.99L257.14,70.49L257.44,70.87L257.70,71.33L258.15,72.91L258.18,73.47L258.15,73.99L257.73,74.97L257.68,75.08L257.41,75.26"/><path d="M255.63,71.02L255.62,71.02L255.52,71.04"/><path d="M256.34,74.61L256.98,74.46L257.26,74.37L257.49,74.11L257.64,73.71L257.70,73.21L257.65,72.65L257.51,72.09L257.28,71.59L256.99,71.19L256.67,70.93L256.36,70.84L255.72,70.99"/><path d="M255.28,71.10L255.41,71.07L255.43,71.07"/><path d="M256.39,74.52L256.32,74.60L256.12,74.66L256.14,74.66"/><path d="M256.96,73.38L256.91,73.89L256.76,74.29L256.60,74.47"/><path d="M256.12,74.66L256.08,74.67"/><path d="M257.06,73.36L257.70,73.21"/></g><g style="stroke:#000000;stroke-width:0.529"><path d="M255.28,71.10L251.48,72.00L251.19,72.09L251.18,72.10L250.94,72.36L250.79,72.77L250.74,73.27L250.78,73.82L250.93,74.38L251.15,74.88L251.43,75.27L251.76,75.53L252.09,75.62L252.10,75.62L256.03,74.69L256.08,74.67"/><path d="M255.92,70.05L255.65,70.22L255.28,71.10"/><path d="M257.41,75.26L257.12,75.32L256.19,74.82L256.08,74.67"/></g></g><g id="Actor_8.0"><g style="stroke:#000000;stroke-width:0.176"><path d="M188.23,91.44L188.23,91.16"/><path d="M192.07,89.81L191.55,89.68L190.99,89.76L190.44,90.04L189.96,90.51L189.61,91.09L189.42,91.74L189.40,92.06L189.42,92.37L189.60,92.93L189.94,93.35"/><path d="M190.61,92.44L190.49,92.39L190.50,91.41L191.25,90.74L192.01,91.05L192.00,92.03L191.24,92.70L190.61,92.44"/><path d="M190.49,92.31L190.58,92.35L191.34,91.68L191.34,90.78"/><path d="M190.58,92.35L191.24,92.70"/><path d="M190.42,93.33L190.21,93.23L189.91,92.86L189.75,92.36L189.73,92.09L189.75,91.80L189.91,91.23L190.22,90.71L190.65,90.30L191.13,90.05L191.63,89.97L192.09,90.09L192.46,90.38L192.69,90.82L192.77,91.36L192.69,91.94L192.45,92.49L192.08,92.96L191.61,93.29L191.11,93.46L190.63,93.44L190.42,93.33"/><path d="M191.22,90.77L191.30,90.92L191.34,91.19L191.30,91.47L191.18,91.75L191.00,91.98L190.96,92.01L190.77,92.14L190.52,92.23L190.49,92.23"/><path d="M191.34,91.68L192.00,92.03"/><path d="M190.63,91.30L191.30,91.47"/><path d="M190.94,91.03L191.30,90.92"/></g><g style="stroke:#000000;stroke-width:0.529"><path d="M191.38,89.44L192.07,89.81L192.48,90.14L192.75,90.64L192.84,91.24L192.74,91.89L192.47,92.52L192.05,93.05L191.53,93.43L190.96,93.61L190.42,93.59L189.94,93.35L188.75,92.71L188.41,92.29L188.23,91.73L188.23,91.44"/><path d="M188.14,91.39L188.23,91.44"/></g></g><g id="Actor_2.2"><g style="stroke:#000000;stroke-width:0.176"><path d="M251.56,58.15L251.52,58.12L251.24,57.73L251.02,57.24L250.88,56.69L250.83,56.14L250.89,55.65L251.03,55.26L251.26,55.00L251.54,54.92L251.85,55.00L252.16,55.25L252.44,55.64L252.66,56.14L252.80,56.67L252.80,56.68L252.85,57.23L252.80,57.72L252.65,58.12L252.43,58.37L252.15,58.46L251.83,58.37L251.56,58.15"/><path d="M251.18,56.33L251.21,56.69L251.30,57.05L251.45,57.37L251.63,57.63L251.82,57.78L251.84,57.79L252.04,57.85L252.23,57.79L252.37,57.62L252.46,57.41L252.34,57.54L252.19,57.58L252.02,57.54L251.86,57.40L251.71,57.20L251.59,56.93L251.52,56.64L251.49,56.35L251.18,56.33L251.21,56.01L251.31,55.75L251.46,55.58L251.64,55.52L251.85,55.58L252.05,55.75L252.08,55.78L252.03,55.75L251.87,55.70L251.72,55.75L251.60,55.88L251.56,55.97L251.52,56.09L251.49,56.35L252.31,56.16"/><path d="M250.83,56.14L250.83,56.14L250.83,56.13"/><path d="M252.85,57.23L252.86,57.23L252.88,57.24L252.91,57.23L252.85,57.74L252.71,58.14L252.48,58.40L252.19,58.49"/><path d="M252.46,57.41L252.47,57.37L252.50,57.04L252.47,56.68L252.38,56.33L252.24,56.00L252.08,55.78"/><path d="M251.57,54.87L251.89,54.96L252.20,55.21L252.49,55.61L252.72,56.12L252.86,56.67L252.91,57.23L256.85,56.30L256.84,56.27L256.91,56.25L256.86,56.74L256.72,57.13L256.50,57.38L256.48,57.38L256.64,57.20L256.79,56.80L256.85,56.30"/><path d="M256.91,56.25L256.87,55.71L256.73,55.17L256.51,54.69L256.23,54.30L255.93,54.05L255.83,54.03L255.82,54.02L255.50,53.93L255.37,53.96"/><path d="M255.72,53.89L255.81,53.86L256.13,53.95L256.45,54.20L256.73,54.60L256.96,55.11L257.10,55.66L257.15,56.22L257.10,56.68L257.10,56.73L256.95,57.13L256.72,57.39L256.43,57.48L256.42,57.47L256.62,57.41L256.69,57.33L256.70,57.33L256.92,57.08L257.07,56.69L257.12,56.21L257.07,55.66L256.93,55.12L256.71,54.64L256.44,54.25L256.13,54.00L256.04,53.98L256.03,53.97L255.71,53.88L255.61,53.91L255.93,53.99L256.24,54.25L256.53,54.65L256.76,55.15L256.90,55.71L256.95,56.27L256.89,56.78L256.75,57.18L256.52,57.44L256.23,57.53L256.21,57.52L256.41,57.46L256.48,57.38"/><path d="M256.84,56.27L256.80,55.74L256.65,55.18L256.43,54.67L256.14,54.28L255.83,54.03"/><path d="M257.15,56.22L257.79,56.07L257.74,55.51L257.60,54.95L257.37,54.45L257.08,54.05L256.77,53.79L256.45,53.71L255.81,53.86"/><path d="M255.61,53.91L255.52,53.94"/><path d="M256.43,57.48L257.07,57.33L257.36,57.24L257.59,56.98L257.70,56.67L257.73,56.58L257.79,56.07"/><path d="M256.95,56.27L257.05,56.25L257.00,56.75L256.85,57.15L256.69,57.33"/><path d="M256.23,57.53L256.33,57.50L256.42,57.47"/><path d="M256.21,57.52L256.17,57.54"/><path d="M257.05,56.25L257.00,55.69L256.86,55.13L256.63,54.63L256.35,54.23L256.04,53.98"/><path d="M257.05,56.22L257.12,56.21"/><path d="M256.01,52.91L256.31,52.85L257.23,53.35L257.53,53.73L257.79,54.19L258.24,55.78L258.28,56.34L258.25,56.67L258.24,56.86L257.77,57.94L257.50,58.12"/></g><g style="stroke:#000000;stroke-width:0.529"><path d="M255.37,53.96L251.57,54.87L251.28,54.96L251.27,54.96L251.03,55.23L250.88,55.63L250.83,56.13L250.87,56.69L251.02,57.24L251.24,57.74L251.52,58.14L251.85,58.40L252.18,58.49L252.19,58.49L256.12,57.55L256.17,57.54"/><path d="M255.37,53.96L255.74,53.09L256.01,52.91"/><path d="M257.50,58.12L257.21,58.18L256.28,57.68L256.17,57.54"/></g></g><g id="Actor_2.3"><g style="stroke:#000000;stroke-width:0.176"><path d="M213.39,115.88L213.48,115.70L213.61,115.60L213.77,115.60L213.85,115.63L213.93,115.68L214.09,115.86L214.22,116.09L214.30,116.37L214.34,116.66L214.33,116.92L214.26,117.14L214.15,117.28L214.00,117.33L213.84,117.29L213.68,117.16"/><path d="M213.45,115.74L213.43,115.78L213.43,115.78"/><path d="M213.47,115.70L213.47,115.69"/><path d="M213.47,115.70L213.50,115.63L213.53,115.61L213.66,115.49L213.68,115.48L213.84,115.47L213.87,115.47L213.88,115.47L213.88,115.47L214.09,115.53L214.29,115.70L214.46,115.94L214.59,116.25L214.67,116.57L214.67,116.86L214.62,117.11L214.53,117.24L214.58,117.08L214.59,117.03L214.60,116.77L214.60,116.70L214.59,116.67L214.60,116.70"/><path d="M213.88,115.47L214.04,115.55L214.08,115.57L214.24,115.74L214.27,115.78L214.41,116.02L214.44,116.07L214.53,116.35L214.55,116.42L214.59,116.67L214.58,116.62L214.58,116.63L214.58,116.59L214.55,116.42"/><path d="M213.83,115.26L213.95,115.23"/><path d="M214.28,115.14L214.53,115.21L214.78,115.40L214.98,115.70L215.15,116.07L215.24,116.47L215.25,116.84L215.18,117.15L215.05,117.35L214.87,117.43"/><path d="M214.52,117.50L214.69,117.45L214.83,117.25L214.90,116.95L214.90,116.59L214.81,116.19L214.66,115.81L214.45,115.51L214.21,115.30L213.96,115.23"/><path d="M214.92,116.49L214.90,116.32L214.77,115.94L214.59,115.61L214.46,115.47L214.62,115.60L214.79,115.84L214.93,116.14L215.01,116.46L215.02,116.76L214.97,117.01L214.91,117.10L214.85,117.30L214.76,117.39"/><path d="M214.90,116.32L214.95,116.68L214.94,117.02L214.91,117.10"/><path d="M214.38,117.46L214.49,117.34L214.51,117.29L214.53,117.24"/><path d="M214.46,116.13L214.51,116.27L214.53,116.32"/><path d="M214.92,116.48L214.93,116.56"/><path d="M214.58,116.60L214.58,116.62"/><path d="M214.87,116.24L214.84,116.16L214.79,116.01"/><path d="M214.94,115.56L215.01,115.66L215.17,116.01L215.27,116.39L215.30,116.74L215.27,117.00L215.32,116.91L215.36,116.65L215.35,116.36L215.26,116.03L215.12,115.73L214.95,115.50L214.84,115.42L214.94,115.56"/><path d="M214.05,115.23L214.13,115.24L214.37,115.38L214.46,115.47"/><path d="M214.93,114.98L215.18,115.02L215.43,115.20L215.64,115.48L215.81,115.85L215.92,116.25L215.94,116.62L215.89,116.94L215.76,117.17L215.59,117.26"/><path d="M214.86,115.02L214.74,115.07"/><path d="M215.23,117.34L215.41,117.26L215.54,117.05L215.59,116.73L215.58,116.36L215.48,115.96L215.31,115.59L215.10,115.30L214.86,115.11L214.61,115.06L214.40,115.15L214.59,115.20L214.82,115.39L214.84,115.42"/><path d="M214.74,115.07L214.82,115.07L215.06,115.21L215.16,115.32L215.28,115.40L215.46,115.63L215.60,115.92L215.69,116.25L215.71,116.55L215.67,116.81L215.60,116.94L215.59,117.01L215.47,117.23L215.46,117.23"/><path d="M214.07,115.22L214.20,115.17"/><path d="M214.52,115.10L214.52,115.10"/><path d="M215.90,117.17L215.81,117.15L215.81,117.15L215.86,117.07L215.87,117.08"/><path d="M215.26,114.90L215.50,114.93L215.75,115.10L215.97,115.37L216.15,115.73L216.26,116.13L216.29,116.51L216.24,116.84L216.12,117.07L215.95,117.18"/><path d="M215.05,117.35L215.08,117.34"/><path d="M215.86,117.07L215.93,116.94L215.94,116.87L216.02,116.71L215.98,116.72"/><path d="M215.94,116.87L215.98,116.64L215.97,116.29L215.91,116.01L215.94,116.16L215.97,116.29"/><path d="M216.13,116.78L216.02,116.71L216.05,116.45L216.03,116.14L215.93,115.82L215.79,115.53L215.61,115.31L215.52,115.25L215.68,115.46L215.85,115.82L215.89,115.93L215.91,116.01"/><path d="M215.60,116.94L215.64,116.71L215.62,116.36L215.54,115.99L215.45,115.77L215.27,115.44L215.16,115.32"/><path d="M215.27,117.00L215.17,117.25L215.11,117.31"/><path d="M215.94,116.15L215.94,116.16L215.94,116.17"/><path d="M216.67,117.00L216.83,116.88L216.94,116.63L216.97,116.29L216.93,115.91L216.81,115.51L216.63,115.16L216.40,114.90L216.15,114.76L215.91,114.75"/><path d="M216.31,117.09L216.47,116.98L216.59,116.73L216.63,116.40L216.59,116.02L216.48,115.62L216.30,115.27L216.08,115.00L215.83,114.84L215.58,114.83"/><path d="M215.44,114.91L215.44,114.91L215.55,114.85"/><path d="M215.44,114.91L215.56,114.93L215.74,115.05L215.78,114.96"/><path d="M216.07,115.43L216.12,115.42L215.94,115.21L215.85,115.16L216.00,115.34L216.17,115.68L216.29,116.05L216.33,116.41L216.30,116.75L216.28,116.80L216.37,116.61L216.40,116.34L216.37,116.03L216.32,116.04"/><path d="M215.85,115.16L215.79,115.09L215.74,115.05"/><path d="M215.52,115.25L215.48,115.20L215.25,115.03L215.09,114.99"/><path d="M216.40,115.33L216.45,115.32L216.26,115.11L216.21,115.09L216.21,115.08L215.98,114.89L215.86,114.85L215.83,114.84"/><path d="M215.86,114.85L215.79,114.82"/><path d="M216.36,117.08L216.36,117.08"/><path d="M217.32,116.84L217.27,116.84L217.32,116.84L217.35,116.83L217.19,116.84L217.17,116.83L217.26,116.69L217.30,116.74"/><path d="M216.93,116.92L217.02,116.92L217.18,116.78L217.29,116.52L217.32,116.18L217.27,115.79L217.14,115.39L216.95,115.05L216.73,114.80L216.47,114.67L216.50,114.67L216.67,114.72L216.73,114.77L216.75,114.70"/><path d="M217.14,117.23L217.26,117.15L217.26,117.20"/><path d="M216.94,116.82L216.91,116.79L216.98,116.63L216.98,116.62L216.98,116.62L217.06,116.41L217.02,116.42"/><path d="M216.91,116.79L216.88,116.86L216.82,116.91"/><path d="M216.58,116.91L216.56,116.88L216.62,116.75L216.63,116.72L216.63,116.71L216.72,116.51L216.67,116.52"/><path d="M216.63,116.72L216.67,116.43L216.65,116.08L216.62,115.95L216.63,115.99L216.59,115.83L216.62,115.95"/><path d="M216.23,116.99L216.22,116.98L216.28,116.80"/><path d="M216.22,116.98L216.21,116.99L216.13,117.07"/><path d="M217.17,116.83L217.17,116.84L217.03,116.92"/><path d="M216.48,117.00L216.51,116.97L216.56,116.88"/><path d="M217.19,116.84L217.32,116.84"/><path d="M216.97,115.88L216.93,115.75L216.98,115.93L216.97,115.88"/><path d="M216.83,116.57L216.72,116.51L216.74,116.24L216.70,115.93L216.66,115.94"/><path d="M216.82,115.92L216.70,115.93L216.60,115.60L216.45,115.32L216.54,115.24"/><path d="M216.48,116.03L216.37,116.03L216.27,115.71L216.12,115.42L216.21,115.34"/><path d="M216.98,116.62L217.02,116.30L216.98,115.94L216.98,115.93"/><path d="M217.18,116.46L217.06,116.41L217.08,116.13L217.04,115.82L217.00,115.83"/><path d="M216.74,115.23L216.78,115.22L216.93,115.50L217.04,115.82L217.16,115.81"/><path d="M216.21,115.09L216.40,115.36L216.56,115.73L216.59,115.83"/><path d="M216.62,115.98L216.65,116.08"/><path d="M216.93,115.75L216.87,115.55L216.70,115.20L216.54,114.99L216.59,115.02L216.78,115.22L216.87,115.14"/><path d="M216.96,115.84L216.95,115.83"/><path d="M217.01,114.49L216.92,114.52L217.12,114.50L217.38,114.61L217.61,114.84L217.80,115.17L217.94,115.56L218.00,115.96L217.99,116.31L217.89,116.59L217.74,116.74L217.99,116.68L218.18,116.61L218.33,116.43L218.42,116.14L218.44,115.79L218.39,115.41L218.32,115.19L218.27,115.04L218.10,114.72L217.89,114.49L217.67,114.37L217.47,114.38L217.22,114.45L217.45,114.41L217.14,114.48L217.01,114.49"/><path d="M217.65,116.65L217.61,116.60L217.53,116.74L217.49,116.78L217.38,116.83L217.54,116.68L217.64,116.41L217.66,116.07L217.61,115.68L217.47,115.28L217.28,114.95L217.05,114.71L216.80,114.58L216.58,114.60L216.72,114.56L216.77,114.56L217.00,114.64L217.06,114.68L217.08,114.62"/><path d="M216.47,114.67L216.24,114.67"/><path d="M216.46,114.65L216.50,114.64"/><path d="M216.43,114.79L216.40,114.87L216.50,114.95L216.54,114.99"/><path d="M216.40,114.87L216.27,114.78L216.13,114.75"/><path d="M217.06,114.68L217.23,114.82L217.25,114.83L217.44,115.02L217.60,115.28L217.72,115.60L217.77,115.92L217.76,116.20L217.72,116.21"/><path d="M217.19,115.03L217.11,115.12L217.27,115.39L217.38,115.71L217.43,116.02L217.41,116.31L217.34,116.52L217.31,116.55L217.36,116.34L217.35,115.99L217.34,115.95L217.25,115.57L217.10,115.20L216.90,114.92L216.89,114.91L216.92,114.92L217.11,115.12L217.07,115.13"/><path d="M216.73,114.77L216.89,114.91"/><path d="M216.92,114.52L216.89,114.52L216.92,114.52"/><path d="M216.50,114.67L216.45,114.65"/><path d="M216.53,114.62L216.56,114.60L216.58,114.60"/><path d="M216.82,114.58L216.89,114.52"/><path d="M217.19,114.47L217.22,114.45"/><path d="M216.48,114.66L216.51,114.64"/><path d="M216.71,113.50L216.86,113.63L216.83,113.47"/><path d="M217.04,113.24L217.05,113.44L216.92,113.27"/><path d="M216.55,113.82L216.70,113.90L216.67,113.79"/><path d="M216.57,114.18L216.60,114.24L216.45,114.21"/><path d="M218.40,117.91L218.52,117.86L218.50,117.60L218.64,117.78L218.74,117.68L218.70,117.41L218.84,117.55L218.93,117.40L218.85,117.14L219.00,117.23L219.06,117.05L218.96,116.80L219.11,116.83L219.14,116.62L219.02,116.41L219.15,116.38L219.16,116.15L219.02,115.97L219.14,115.89L219.11,115.65L218.97,115.52L219.07,115.39L219.01,115.14L218.86,115.06L218.94,114.89L218.86,114.66L218.71,114.63L218.76,114.42L218.66,114.21L218.52,114.23L218.54,113.99L218.42,113.81L218.30,113.89L218.28,113.64L218.15,113.49L218.05,113.63L218.00,113.36L217.87,113.26L217.79,113.44L217.71,113.18L217.58,113.13L217.53,113.35L217.43,113.11L217.30,113.11L217.28,113.35L217.16,113.13"/><path d="M217.69,117.78L217.77,117.60L217.81,117.75"/><path d="M218.26,117.94L218.27,117.70L218.39,117.91"/><path d="M217.98,117.91L218.03,117.70L218.10,117.88"/><path d="M217.41,117.55L217.51,117.42L217.53,117.52"/><path d="M217.26,116.69L217.29,116.65L217.31,116.55"/><path d="M217.74,116.74L217.55,116.76L217.52,116.75"/><path d="M217.35,116.83L217.38,116.83"/><path d="M217.64,115.68L217.68,115.84L217.63,115.62L217.62,115.59L217.64,115.68"/><path d="M217.68,115.84L217.68,115.86L217.70,116.22L217.66,116.46L217.69,116.43L217.76,116.20L217.87,116.25"/><path d="M217.83,115.58L217.72,115.60L217.67,115.61"/><path d="M217.52,116.36L217.41,116.31L217.37,116.32"/><path d="M217.62,115.59L217.59,115.48L217.43,115.11L217.23,114.82"/><path d="M217.28,115.67L217.29,115.73L217.33,115.90"/><path d="M217.66,116.46L217.65,116.53L217.61,116.60"/><path d="M217.52,114.93L217.44,115.02L217.40,115.03"/></g><g style="stroke:#000000;stroke-width:0.529"><path d="M217.03,116.92L217.02,116.92L217.01,116.92L216.93,116.92L216.83,116.92L216.82,116.91L216.73,116.99L216.67,117.00L216.48,117.00L216.36,117.08L216.31,117.09L216.13,117.07L216.07,117.14L215.95,117.18L215.81,117.15L215.65,117.25L215.59,117.26L215.46,117.23L215.31,117.33L215.23,117.34L215.11,117.31L215.03,117.39L214.87,117.43L214.76,117.39L214.71,117.46L214.67,117.47L214.64,117.48L214.52,117.50L214.51,117.51L214.38,117.46L214.37,117.46L214.34,117.48L214.19,117.51L214.15,117.51L213.99,117.44L213.95,117.40L213.68,117.16L213.54,116.95L213.43,116.69L213.36,116.40L213.35,116.12L213.39,115.88L213.43,115.78"/><path d="M216.45,114.65L216.42,114.64L216.24,114.67L216.13,114.75L216.03,114.73L215.91,114.75L215.79,114.82L215.74,114.81L215.58,114.83L215.55,114.85L215.52,114.86L215.44,114.91L215.32,114.89L215.26,114.90L215.09,114.99L215.01,114.97L214.93,114.98L214.86,115.02L214.80,115.04L214.74,115.07L214.61,115.06L214.59,115.06L214.52,115.10L214.40,115.15L214.35,115.13L214.28,115.14L214.20,115.17L214.14,115.19L214.07,115.22L214.05,115.23L213.96,115.23L213.95,115.23L213.91,115.23L213.83,115.26L213.74,115.29L213.56,115.49L213.47,115.69L213.47,115.70L213.43,115.78"/><path d="M217.14,117.23L217.02,117.05L217.03,116.92"/><path d="M216.53,114.62L216.42,114.42L216.45,114.21"/><path d="M216.53,114.62L216.51,114.64"/><path d="M216.55,113.82L216.50,114.00L216.57,114.18"/><path d="M216.83,113.47L216.81,113.37L216.92,113.27"/><path d="M216.67,113.79L216.63,113.64L216.71,113.50"/><path d="M217.16,113.13L217.04,113.19L217.04,113.24"/><path d="M218.26,117.94L218.13,117.94L218.10,117.88"/><path d="M217.81,117.75L217.84,117.86L217.98,117.91"/><path d="M217.53,117.52L217.55,117.68L217.69,117.78"/><path d="M217.41,117.55L217.28,117.41L217.26,117.20"/><path d="M218.40,117.91L218.39,117.91"/></g></g><g id="Actor_2.4"><g style="stroke:#000000;stroke-width:0.176"><path d="M213.68,71.52L213.66,71.56"/><path d="M213.63,71.66L213.72,71.48L213.85,71.38L214.00,71.38L214.09,71.41L214.17,71.46L214.32,71.64L214.45,71.87L214.54,72.15L214.58,72.44L214.56,72.70L214.49,72.92L214.38,73.06L214.24,73.11L214.08,73.07L213.92,72.93"/><path d="M214.11,71.25L214.12,71.25L214.33,71.31L214.53,71.48L214.70,71.72L214.83,72.03L214.90,72.35L214.91,72.64L214.85,72.89L214.76,73.02L214.81,72.86L214.82,72.81L214.83,72.54L214.83,72.48L214.79,72.19L214.77,72.13L214.67,71.85L214.65,71.80L214.51,71.56L214.48,71.52L214.31,71.35L214.28,71.33L214.10,71.25L214.08,71.25L213.91,71.26L213.89,71.27L213.76,71.38L213.74,71.41L213.70,71.48L213.70,71.47"/><path d="M213.70,71.48L213.70,71.48"/><path d="M214.83,72.48L214.82,72.39L214.82,72.41L214.81,72.38L214.82,72.39"/><path d="M214.19,71.01L214.44,71.08L214.69,71.29L214.89,71.59L215.05,71.97L215.13,72.37L215.14,72.73L215.06,73.03L214.93,73.23L214.76,73.28"/><path d="M214.76,73.02L214.75,73.07L214.72,73.12L214.61,73.24"/><path d="M214.79,72.19L214.81,72.38"/><path d="M214.52,70.92L214.77,70.99L215.01,71.18L215.22,71.48L215.38,71.85L215.47,72.25L215.48,72.62L215.42,72.93L215.28,73.13L215.31,73.12"/><path d="M215.16,72.34L215.18,72.46L215.17,72.80L215.14,72.88L215.20,72.79L215.25,72.54L215.24,72.24L215.16,71.92L215.03,71.61L214.86,71.38L214.69,71.25L214.82,71.39L215.00,71.72L215.13,72.10L215.16,72.34L215.15,72.26"/><path d="M214.69,71.25L214.61,71.16L214.37,71.02L214.29,71.01"/><path d="M214.76,72.10L214.74,72.05L214.69,71.91"/><path d="M215.34,73.09L215.41,73.03L215.50,72.78L215.55,72.69L215.60,72.43L215.58,72.14L215.50,71.81L215.36,71.51L215.18,71.28L215.07,71.19L215.05,71.17L214.82,70.98L214.63,70.93L214.84,70.84L215.09,70.89L215.34,71.08L215.55,71.37L215.71,71.74L215.81,72.14L215.83,72.51L215.77,72.83L215.64,73.04L215.46,73.12"/><path d="M215.09,70.80L214.97,70.85"/><path d="M214.98,70.85L215.01,70.85L215.01,70.85"/><path d="M214.18,71.01L214.06,71.04"/><path d="M214.30,71.00L214.43,70.95"/><path d="M214.75,70.88L214.76,70.88"/><path d="M215.28,73.13L215.10,73.21"/><path d="M215.82,73.04L216.00,72.95L216.12,72.72L216.17,72.40L216.15,72.03L216.05,71.63L215.88,71.26L215.66,70.98L215.41,70.80L215.17,70.76"/><path d="M216.13,72.95L216.04,72.93L216.04,72.93L216.09,72.84L216.10,72.86"/><path d="M215.83,72.72L215.87,72.49L215.86,72.14L215.77,71.77L215.69,71.54L215.50,71.22L215.39,71.10L215.51,71.18L215.69,71.41L215.83,71.70L215.92,72.03L215.94,72.33L215.90,72.59L215.83,72.72L215.82,72.79L215.70,73.01L215.70,73.01"/><path d="M215.14,72.88L215.08,73.08L215.00,73.17"/><path d="M216.09,72.84L216.16,72.72L216.17,72.65L216.25,72.49L216.21,72.50"/><path d="M215.15,72.27L215.13,72.10"/><path d="M215.07,71.19L215.25,71.44L215.41,71.79L215.50,72.17L215.53,72.52L215.50,72.78"/><path d="M216.36,72.56L216.25,72.49L216.29,72.22L216.26,71.92L216.17,71.60L216.02,71.31L215.84,71.09L215.75,71.03L215.92,71.24L216.08,71.60L216.12,71.71L216.20,72.07L216.22,72.42L216.17,72.65"/><path d="M215.10,72.02L215.08,71.94L215.02,71.79"/><path d="M215.49,70.68L215.74,70.71L215.99,70.88L216.20,71.15L216.38,71.51L216.49,71.91L216.52,72.29L216.47,72.62L216.35,72.85L216.18,72.96"/><path d="M216.02,70.60L216.10,70.63L216.06,70.62L215.82,70.61"/><path d="M216.06,70.62L216.31,70.78L216.53,71.04L216.71,71.40L216.83,71.80L216.86,72.18L216.82,72.51L216.71,72.76L216.54,72.87"/><path d="M216.31,71.21L216.35,71.20L216.17,70.99L216.09,70.94L216.03,70.87L215.97,70.83L216.01,70.74"/><path d="M216.09,70.94L216.23,71.12L216.41,71.46L216.52,71.83L216.56,72.19L216.54,72.52L216.52,72.58L216.60,72.39L216.63,72.12L216.60,71.81L216.56,71.82"/><path d="M215.97,70.83L215.79,70.71L215.67,70.69L215.78,70.63"/><path d="M215.01,70.85L215.06,70.85L215.29,70.99L215.39,71.10"/><path d="M215.33,70.77L215.49,70.81L215.72,70.98L215.75,71.03"/><path d="M215.67,70.69L215.67,70.69"/><path d="M216.10,70.63L216.21,70.67L216.44,70.86L216.45,70.87L216.50,70.89L216.68,71.10L216.64,71.11"/><path d="M216.59,72.86L216.59,72.86"/><path d="M216.14,70.53L216.38,70.53L216.64,70.68L216.86,70.94L217.04,71.29L217.17,71.69L217.21,72.07L217.17,72.41L217.06,72.66L216.90,72.78"/><path d="M216.47,70.45L216.71,70.45L216.96,70.58L217.19,70.83L217.37,71.17L217.50,71.57L217.55,71.96L217.52,72.30L217.42,72.56L217.26,72.70L217.16,72.70"/><path d="M216.85,71.73L216.86,71.77L216.85,71.73L216.82,71.61L216.88,71.86L216.91,72.21L216.86,72.49L216.87,72.49L216.95,72.29L216.91,72.30"/><path d="M216.89,71.72L216.94,71.71L216.97,72.01L216.95,72.29L217.06,72.35"/><path d="M217.17,72.60L217.14,72.57L217.21,72.41L217.21,72.40L217.22,72.40L217.30,72.19L217.32,71.91L217.28,71.60L217.17,71.28L217.01,71.00L216.97,71.01"/><path d="M217.14,72.57L217.11,72.64L217.05,72.69"/><path d="M216.82,72.69L216.79,72.66L216.86,72.53L216.86,72.49"/><path d="M216.46,72.77L216.45,72.76L216.52,72.58"/><path d="M216.45,72.76L216.44,72.77L216.37,72.85"/><path d="M216.79,72.66L216.75,72.75L216.71,72.77"/><path d="M216.14,71.79L216.17,71.94L216.20,72.07"/><path d="M216.82,71.61L216.80,71.51L216.64,71.14L216.45,70.87"/><path d="M217.20,71.66L217.21,71.69L217.16,71.53L217.20,71.66"/><path d="M217.21,71.69L217.22,71.72L217.25,72.08L217.21,72.40"/><path d="M216.71,71.81L216.60,71.81L216.50,71.49L216.35,71.20L216.44,71.12"/><path d="M217.05,71.70L216.94,71.71L216.83,71.38L216.68,71.10L216.77,71.02"/><path d="M216.17,71.95L216.17,71.94L216.17,71.93"/><path d="M216.86,71.76L216.88,71.86"/><path d="M217.16,71.53L217.11,71.33L216.93,70.98L216.77,70.77L216.83,70.80L217.01,71.00L217.10,70.92"/><path d="M217.19,71.62L217.19,71.61"/><path d="M217.31,70.40L217.29,70.46L217.24,70.41L217.00,70.34L216.96,70.34L216.81,70.38L217.03,70.36L217.28,70.49L217.51,70.73L217.70,71.06L217.84,71.46L217.89,71.85L217.87,72.19L217.77,72.46L217.62,72.61L217.72,72.56L217.76,72.52L217.84,72.38L217.89,72.43"/><path d="M217.76,72.53L217.78,72.54L217.97,72.52L218.13,72.36L218.22,72.09L218.24,71.74L218.18,71.34L218.04,70.95L217.84,70.62L217.61,70.39L217.36,70.28L217.13,70.30L217.16,70.30L217.15,70.30"/><path d="M216.68,69.99L216.83,70.02L216.81,69.96"/><path d="M216.69,70.43L216.74,70.42"/><path d="M216.77,70.77L216.74,70.73L216.63,70.65L216.66,70.57"/><path d="M217.56,71.68L217.58,71.73L217.58,71.77L217.59,72.12L217.55,72.33L217.57,72.30L217.65,72.09L217.66,71.80L217.61,71.49L217.50,71.17L217.34,70.90L217.15,70.70L217.13,70.69L217.13,70.69L217.33,70.98L217.49,71.35L217.56,71.68L217.53,71.51L217.51,71.45"/><path d="M216.99,70.48L216.96,70.55L217.13,70.69"/><path d="M216.96,70.55L216.90,70.50L216.73,70.45L216.71,70.45"/><path d="M216.36,70.53L216.50,70.55L216.63,70.65"/><path d="M216.73,70.45L216.73,70.45L216.69,70.43"/><path d="M216.71,70.44L216.74,70.42"/><path d="M217.13,70.30L217.06,70.36"/><path d="M217.16,70.30L217.25,70.27L217.38,70.26L217.68,70.19L217.45,70.23L217.43,70.25"/><path d="M216.81,70.38L216.80,70.38L216.76,70.40"/><path d="M216.95,69.28L217.09,69.41L217.07,69.25"/><path d="M217.28,69.02L217.29,69.22L217.15,69.05"/><path d="M216.79,69.60L216.94,69.68L216.91,69.57"/><path d="M217.92,73.56L218.00,73.38L218.04,73.53"/><path d="M218.21,73.69L218.26,73.48L218.34,73.66"/><path d="M217.64,73.33L217.74,73.20L217.76,73.30"/><path d="M217.37,73.01L217.49,72.93L217.50,72.98"/><path d="M217.84,72.38L217.88,72.31L217.94,72.00L217.92,71.64L217.83,71.26L217.67,70.89L217.47,70.60L217.48,70.61L217.67,70.80L217.83,71.06L217.95,71.38L217.91,71.39"/><path d="M217.53,72.51L217.50,72.47L217.53,72.43L217.55,72.33"/><path d="M217.26,72.20L217.30,72.19L217.41,72.24"/><path d="M217.89,72.24L217.92,72.21L217.99,71.98L217.95,71.99"/><path d="M217.26,72.69L217.40,72.62L217.50,72.47"/><path d="M217.97,72.52L218.22,72.46L218.41,72.39L218.56,72.21L218.65,71.92L218.67,71.57L218.62,71.18L218.50,70.82L218.33,70.50L218.13,70.27L217.91,70.15L217.70,70.16L217.45,70.23"/><path d="M217.56,72.61L217.42,72.62L217.55,72.62L217.58,72.61L217.56,72.61"/><path d="M217.42,72.62L217.41,72.61"/><path d="M217.51,72.62L217.55,72.62"/><path d="M217.62,72.61L217.58,72.61"/><path d="M217.85,71.37L217.86,71.40L217.91,71.62"/><path d="M217.39,71.59L217.28,71.60L217.23,71.61"/><path d="M218.06,71.36L217.95,71.38L218.00,71.70L217.99,71.98L218.11,72.03"/><path d="M217.60,72.10L217.65,72.09L217.76,72.14"/><path d="M217.76,70.71L217.67,70.80L217.63,70.81"/><path d="M217.47,70.60L217.29,70.46"/><path d="M217.30,70.91L217.34,70.90L217.43,70.81"/><path d="M217.39,68.91L217.51,69.13L217.53,68.89L217.66,68.89L217.76,69.13L217.81,68.91L217.95,68.96L218.02,69.22L218.10,69.04L218.24,69.14L218.28,69.41L218.38,69.27L218.51,69.42L218.53,69.67L218.65,69.59L218.77,69.77L218.75,70.01L218.89,69.99L218.99,70.19L218.95,70.41L219.09,70.44L219.17,70.67L219.10,70.84L219.25,70.92L219.30,71.17L219.20,71.30L219.35,71.43L219.38,71.67L219.25,71.75L219.39,71.93L219.39,72.16L219.25,72.19L219.37,72.40L219.34,72.61L219.19,72.58L219.29,72.83L219.24,73.01L219.09,72.92L219.16,73.18L219.08,73.33L218.93,73.19L218.98,73.46L218.87,73.56L218.74,73.38L218.75,73.64L218.63,73.69"/><path d="M218.49,73.72L218.51,73.48L218.63,73.69"/></g><g style="stroke:#000000;stroke-width:0.529"><path d="M217.26,72.69L217.26,72.70L217.24,72.70L217.16,72.70L217.06,72.70L217.05,72.69L216.96,72.77L216.90,72.78L216.71,72.77L216.59,72.86L216.54,72.87L216.37,72.85L216.30,72.92L216.18,72.96L216.04,72.93L215.88,73.03L215.82,73.04L215.70,73.01L215.55,73.11L215.46,73.12L215.34,73.09L215.26,73.17L215.10,73.21L215.00,73.17L214.94,73.23L214.91,73.25L214.88,73.26L214.76,73.28L214.74,73.29L214.61,73.24L214.61,73.24L214.57,73.26L214.43,73.29L214.39,73.29L214.23,73.22L214.18,73.18L213.92,72.93L213.77,72.73L213.66,72.47L213.60,72.18L213.59,71.90L213.63,71.66L213.66,71.56"/><path d="M213.66,71.56L213.70,71.48L213.70,71.47L213.79,71.27L213.97,71.07L214.06,71.04L214.14,71.01L214.18,71.01L214.19,71.01L214.29,71.01L214.30,71.00L214.38,70.97L214.43,70.95L214.52,70.92L214.59,70.91L214.63,70.93L214.76,70.88L214.82,70.84L214.84,70.84L214.97,70.85L215.04,70.82L215.09,70.80L215.17,70.76L215.24,70.75L215.33,70.77L215.49,70.68L215.55,70.67L215.67,70.69L215.75,70.64L215.78,70.63L215.82,70.61L215.97,70.59L216.02,70.60L216.14,70.53L216.26,70.51L216.36,70.53L216.47,70.45L216.66,70.42L216.69,70.43"/><path d="M216.76,70.40L216.74,70.42"/><path d="M216.68,69.99L216.65,70.20L216.76,70.40"/><path d="M216.79,69.60L216.73,69.78L216.81,69.96"/><path d="M216.95,69.28L216.86,69.42L216.91,69.57"/><path d="M217.15,69.05L217.05,69.15L217.07,69.25"/><path d="M217.76,73.30L217.79,73.46L217.92,73.56"/><path d="M218.04,73.53L218.07,73.64L218.21,73.69"/><path d="M217.64,73.33L217.51,73.19L217.50,72.98"/><path d="M217.26,72.69L217.25,72.83L217.37,73.01"/><path d="M217.39,68.91L217.27,68.97L217.28,69.02"/><path d="M218.63,73.69L218.63,73.69"/><path d="M218.49,73.72L218.36,73.72L218.34,73.66"/></g></g><g id="Actor_2.5"><g style="stroke:#000000;stroke-width:0.176"><path d="M250.30,156.36L250.35,156.90L250.49,157.45L250.71,157.94L250.99,158.33L251.30,158.58L251.62,158.67L251.90,158.58L252.12,158.33L252.27,157.94L252.32,157.44L252.27,156.90L252.13,156.35L251.91,155.86L251.63,155.47L251.32,155.22L251.01,155.13L250.73,155.22L250.50,155.47L250.36,155.86L250.30,156.36L250.30,156.35L250.30,156.35"/><path d="M251.51,158.06L251.31,158.01L251.10,157.84L250.92,157.59L250.77,157.26L250.68,156.90L250.65,156.54L250.68,156.22L250.78,155.96L250.93,155.80L251.11,155.74L251.32,155.80L251.52,155.96L251.55,156.00L251.50,155.96L251.34,155.91L251.19,155.96L251.07,156.10L250.99,156.30L250.96,156.57L250.99,156.86L251.06,157.15L251.18,157.41L251.33,157.62L251.49,157.75L251.66,157.80L251.81,157.75L251.93,157.62L251.84,157.84L251.70,158.00L251.51,158.06"/><path d="M250.65,156.54L250.96,156.57L251.78,156.37"/><path d="M251.55,156.00L251.71,156.22L251.85,156.54L251.94,156.90L251.97,157.26L251.94,157.58L251.93,157.62"/><path d="M252.32,157.44L252.33,157.45L252.35,157.45L252.38,157.45L252.33,156.89L252.19,156.33L251.96,155.83L251.67,155.43L251.36,155.17L251.04,155.08"/><path d="M251.66,158.70L251.95,158.61L252.18,158.35L252.32,157.95L252.38,157.45L256.32,156.51L256.31,156.49L256.38,156.47L256.34,155.93L256.20,155.39L255.98,154.90L255.70,154.51L255.40,154.27L255.30,154.24L255.61,154.49L255.90,154.89L256.12,155.39L256.27,155.95L256.31,156.49"/><path d="M254.84,154.18L254.98,154.15L255.29,154.23L255.30,154.24"/><path d="M255.19,154.10L255.18,154.10L255.08,154.12L255.40,154.21L255.71,154.47L256.00,154.86L256.23,155.37L256.37,155.93L256.42,156.49L256.37,156.99L256.33,157.09L256.22,157.39L255.99,157.65L255.70,157.74L255.80,157.72L256.09,157.63L256.16,157.55L256.17,157.54L256.39,157.30L256.54,156.91L256.59,156.42L256.54,155.88L256.40,155.34L256.34,155.19L256.18,154.85L255.91,154.47L255.60,154.22L255.51,154.19L255.50,154.19L255.19,154.10L255.28,154.07L255.60,154.16L255.92,154.42L256.21,154.82L256.38,155.20L256.43,155.32L256.58,155.88L256.62,156.44L256.57,156.94L256.42,157.34L256.19,157.60L255.90,157.69L255.89,157.69"/><path d="M256.38,156.47L256.33,156.96L256.19,157.34L255.97,157.59L255.95,157.60L256.11,157.42L256.26,157.02L256.32,156.51"/><path d="M255.95,157.60L255.88,157.68L255.64,157.75"/><path d="M255.28,154.07L255.92,153.92L256.24,154.01L256.55,154.27L256.84,154.67L257.07,155.17L257.21,155.73L257.26,156.29L257.20,156.79L257.06,157.19L256.83,157.45L256.54,157.54L255.90,157.69"/><path d="M255.68,157.74L255.70,157.74"/><path d="M255.51,154.19L255.82,154.44L256.10,154.84L256.33,155.34L256.47,155.90L256.52,156.44L256.59,156.42"/><path d="M255.08,154.12L254.99,154.15"/><path d="M256.97,158.34L257.24,158.16L257.71,157.07L257.75,156.55L257.71,155.99L257.26,154.40L257.00,153.94L256.70,153.57L255.78,153.07L255.48,153.13"/><path d="M256.42,156.49L256.52,156.46L256.47,156.97L256.32,157.37L256.16,157.55"/><path d="M256.62,156.44L257.26,156.29"/><path d="M256.52,156.44L256.52,156.46"/></g><g style="stroke:#000000;stroke-width:0.529"><path d="M254.84,154.18L251.04,155.08L250.75,155.17L250.74,155.18L250.50,155.44L250.35,155.85L250.30,156.35L250.34,156.90L250.49,157.46L250.71,157.96L250.99,158.35L251.32,158.61L251.65,158.70L251.66,158.70L255.60,157.76L255.64,157.75"/><path d="M255.48,153.13L255.22,153.30L254.84,154.18"/><path d="M255.64,157.75L255.75,157.90L256.68,158.40L256.97,158.34"/></g></g><g id="Actor_2.6"><g style="stroke:#000000;stroke-width:0.176"><path d="M198.82,56.32L198.87,55.83L199.02,55.44L199.24,55.18L199.52,55.10L199.84,55.18L200.15,55.43L200.43,55.82L200.65,56.32L200.79,56.86L200.84,57.41L200.78,57.90L200.64,58.29L200.41,58.55L200.13,58.63L199.82,58.55L199.51,58.30L199.23,57.91L199.01,57.41L198.87,56.87L198.82,56.32L198.81,56.32L198.81,56.31"/><path d="M199.20,56.87L199.29,57.23L199.43,57.55L199.62,57.81L199.82,57.97L200.03,58.03L200.21,57.97L200.36,57.80L200.44,57.59L200.33,57.72L200.18,57.76L200.01,57.72L199.84,57.58L199.69,57.38L199.58,57.11L199.50,56.82L199.48,56.53L199.17,56.51L199.20,56.87"/><path d="M199.17,56.51L199.20,56.18L199.30,55.93L199.44,55.76L199.63,55.70L199.83,55.76L200.04,55.92L200.07,55.96L200.02,55.92L199.85,55.88L199.70,55.93L199.58,56.06L199.50,56.27L199.48,56.53L200.29,56.34"/><path d="M200.84,57.41L200.84,57.41L200.87,57.42L200.89,57.41L200.84,57.92L200.69,58.32L200.46,58.58L200.17,58.67"/><path d="M200.07,55.96L200.22,56.18L200.37,56.50L200.46,56.86L200.49,57.22L200.46,57.55L200.44,57.59"/><path d="M204.90,56.43L204.83,56.45L204.78,55.92L204.64,55.36L204.41,54.85L204.13,54.45L203.82,54.21L203.91,54.23L204.22,54.48L204.50,54.86L204.71,55.35L204.85,55.89L204.90,56.43L204.85,56.92L204.70,57.31L204.48,57.56L204.47,57.56L204.63,57.38L204.78,56.98L204.83,56.48L200.89,57.41L200.85,56.85L200.70,56.29L200.48,55.79L200.19,55.39L199.87,55.13L199.55,55.05"/><path d="M203.59,54.09L203.69,54.06L204.01,54.15L204.02,54.16L204.12,54.18L204.42,54.43L204.70,54.82L204.92,55.30L205.06,55.84L205.10,56.38L205.05,56.87L204.91,57.26L204.69,57.51L204.67,57.51L204.83,57.33L204.98,56.93L205.04,56.43L204.93,56.45L204.89,55.89L204.74,55.33L204.52,54.83L204.23,54.43L203.91,54.17L203.59,54.09L203.50,54.11L203.81,54.20L203.82,54.21"/><path d="M203.35,54.14L203.49,54.11L203.50,54.11"/><path d="M203.71,54.07L203.80,54.04L204.43,53.89L204.75,53.97L205.07,54.23L205.35,54.63L205.58,55.13L205.72,55.69L205.77,56.25L205.14,56.40L205.09,55.84L204.95,55.28L204.72,54.78L204.43,54.38L204.12,54.12L203.80,54.04"/><path d="M205.14,56.40L205.08,56.91L204.94,57.31L204.71,57.57L204.42,57.66L205.05,57.50L205.34,57.42L205.57,57.16L205.72,56.76L205.77,56.25"/><path d="M204.67,57.51L204.60,57.59L204.40,57.65L204.42,57.66"/><path d="M204.47,57.56L204.40,57.64L204.15,57.72"/><path d="M204.40,57.65L204.31,57.68L204.21,57.70L204.50,57.62L204.73,57.36L204.88,56.96L204.93,56.45"/><path d="M204.21,57.70L204.20,57.70"/><path d="M205.10,56.38L205.03,56.40L204.99,55.87L204.84,55.31L204.62,54.80L204.33,54.41L204.02,54.16"/><path d="M204.83,56.48L204.83,56.45"/><path d="M205.49,58.30L205.75,58.12L206.22,57.03L206.26,56.51L206.23,55.96L205.77,54.37L205.51,53.91L205.22,53.53L204.29,53.03L203.99,53.09"/><path d="M205.03,56.40L205.04,56.43"/></g><g style="stroke:#000000;stroke-width:0.529"><path d="M204.15,57.72L204.11,57.73L200.17,58.67L200.16,58.67L199.83,58.58L199.51,58.32L199.23,57.92L199.00,57.42L198.86,56.87L198.81,56.31L198.87,55.81L199.02,55.41L199.25,55.14L199.26,55.14L199.55,55.05L203.35,54.14"/><path d="M203.35,54.14L203.73,53.27L203.99,53.09"/><path d="M204.15,57.72L204.27,57.86L205.19,58.36L205.49,58.30"/></g></g><g id="Actor_2.7"><g style="stroke:#000000;stroke-width:0.176"><path d="M251.57,175.84L251.86,175.75L252.09,175.49L252.23,175.09L252.29,174.58L252.26,174.59L252.24,174.58L252.23,174.58L252.18,175.07L252.03,175.47L251.81,175.72L251.53,175.81L251.21,175.72L250.90,175.47L250.62,175.08L250.40,174.59L250.26,174.04L250.21,173.49L250.21,173.49L250.21,173.48"/><path d="M250.21,173.49L250.27,173.00L250.41,172.61L250.64,172.35L250.92,172.27L251.23,172.35L251.54,172.60L251.82,172.99L252.04,173.49L252.18,174.03L252.23,174.58"/><path d="M250.56,173.68L250.59,173.36L250.69,173.10L250.84,172.93L251.02,172.87L251.23,172.93L251.43,173.10L251.46,173.13L251.41,173.10L251.25,173.05L251.10,173.10L250.98,173.23L250.94,173.33L250.90,173.44L250.87,173.70L250.56,173.68L250.59,174.04L250.68,174.40L250.83,174.72L251.01,174.98L251.22,175.14L251.42,175.20L251.61,175.14L251.75,174.97L251.83,174.76L251.72,174.89L251.57,174.93L251.40,174.89L251.24,174.75L251.09,174.55L250.97,174.28L250.90,173.99L250.87,173.70L251.69,173.51"/><path d="M256.29,173.60L256.22,173.62L256.18,173.09L256.03,172.53L255.81,172.02L255.52,171.63L255.21,171.38L255.31,171.40L255.61,171.65L255.89,172.04L256.11,172.52L256.25,173.06L256.29,173.60L256.24,174.09L256.10,174.48L255.88,174.73L255.86,174.73L256.02,174.55L256.17,174.15L256.23,173.65L252.29,174.58L252.24,174.02L252.10,173.47L251.87,172.96L251.58,172.56L251.27,172.31L250.95,172.22"/><path d="M251.46,173.13L251.62,173.35L251.76,173.68L251.85,174.03L251.88,174.39L251.85,174.72L251.83,174.76"/><path d="M254.75,171.31L254.88,171.28L255.20,171.37L255.21,171.38"/><path d="M254.90,171.29L254.99,171.26L255.31,171.34L255.62,171.60L255.91,172.00L256.14,172.50L256.28,173.06L256.33,173.62L256.27,174.13L256.18,174.39L256.13,174.53L255.90,174.79L255.61,174.88L255.71,174.85L256.00,174.76L256.07,174.68L256.08,174.68L256.30,174.43L256.45,174.04L256.50,173.56L256.43,173.57L256.38,173.04L256.24,172.48L256.01,171.98L255.73,171.58L255.42,171.33L255.51,171.35L255.82,171.60L256.09,171.99L256.31,172.47L256.45,173.01L256.50,173.56"/><path d="M256.00,174.77L255.81,174.83L256.45,174.68L256.73,174.59L256.96,174.33L257.11,173.93L257.17,173.42L257.12,172.86L256.98,172.30L256.75,171.80L256.46,171.40L256.14,171.15L255.83,171.06L255.19,171.21L255.51,171.30L255.83,171.55L256.11,171.95L256.34,172.46L256.48,173.01L256.53,173.57L256.48,174.08L256.33,174.48L256.10,174.74L256.00,174.77"/><path d="M255.86,174.73L255.79,174.81L255.55,174.89"/><path d="M255.80,174.82L255.81,174.83"/><path d="M255.59,174.87L255.61,174.88"/><path d="M255.42,171.33L255.41,171.32L255.09,171.23L254.99,171.26"/><path d="M255.19,171.21L255.10,171.24"/><path d="M255.39,170.26L255.69,170.20L256.61,170.70L256.91,171.08L257.17,171.54L257.62,173.13L257.65,173.69L257.62,174.21L257.15,175.29L256.88,175.47"/><path d="M256.33,173.62L256.43,173.60L256.38,174.10L256.23,174.50L256.07,174.68"/><path d="M256.53,173.57L257.17,173.42"/><path d="M256.43,173.57L256.43,173.60"/><path d="M256.22,173.62L256.23,173.65"/></g><g style="stroke:#000000;stroke-width:0.529"><path d="M255.55,174.89L255.50,174.90L251.57,175.84L251.56,175.84L251.23,175.75L250.90,175.49L250.62,175.09L250.40,174.59L250.25,174.04L250.21,173.48L250.26,172.98L250.41,172.58L250.65,172.31L250.66,172.31L250.95,172.22L254.75,171.31"/><path d="M254.75,171.31L255.12,170.44L255.39,170.26"/><path d="M256.88,175.47L256.59,175.53L255.66,175.03L255.55,174.89"/></g></g><g id="Actor_2.8"><g style="stroke:#000000;stroke-width:0.176"><path d="M198.50,117.12L198.54,117.67L198.69,118.22L198.91,118.71L199.19,119.10L199.50,119.35L199.81,119.44L200.09,119.35L200.32,119.10L200.46,118.71L200.51,118.21L200.48,117.82L200.47,117.66L200.33,117.12L200.11,116.63L199.83,116.23L199.52,115.98L199.20,115.90L198.92,115.99L198.70,116.24L198.55,116.63L198.50,117.12L198.49,117.12L198.49,117.12"/><path d="M198.84,117.31L198.88,116.99L198.97,116.73L199.12,116.56L199.31,116.51L199.51,116.56L199.72,116.73L199.74,116.77L199.70,116.73L199.53,116.68L199.38,116.73L199.26,116.86L199.18,117.07L199.16,117.33L198.84,117.31L198.87,117.67L198.97,118.03L199.11,118.35L199.30,118.61L199.48,118.76L199.50,118.77L199.71,118.83L199.89,118.77L200.04,118.61L200.12,118.39L200.00,118.52L199.85,118.57L199.69,118.52L199.52,118.39L199.37,118.18L199.26,117.92L199.18,117.63L199.16,117.33L199.97,117.14"/><path d="M200.51,118.21L200.52,118.21L200.55,118.22L200.57,118.22L200.52,117.66L200.38,117.10L200.15,116.59L199.87,116.19L199.55,115.94L199.23,115.85"/><path d="M204.51,117.28L204.46,117.78L204.31,118.18L204.15,118.36L204.16,118.36L204.38,118.11L204.53,117.72L204.58,117.24L204.51,117.25L204.51,117.28L200.57,118.22L200.52,118.72L200.37,119.12L200.14,119.38L199.85,119.47"/><path d="M200.12,118.39L200.13,118.35L200.17,118.02L200.14,117.67L200.05,117.31L199.90,116.98L199.74,116.77"/><path d="M204.15,118.36L204.08,118.44L203.88,118.50L203.89,118.51L203.99,118.48L204.28,118.39L204.35,118.32L204.36,118.31L204.59,118.06L204.73,117.68L204.78,117.19L204.71,117.20L204.67,116.67L204.53,116.12L204.52,116.11L204.30,115.61L204.01,115.21L203.70,114.96L203.79,114.99L204.10,115.23L204.38,115.62L204.60,116.11L204.74,116.65L204.78,117.19"/><path d="M203.89,118.51L204.18,118.42L204.41,118.16L204.56,117.76L204.61,117.25L204.56,116.70L204.42,116.14L204.19,115.63L203.91,115.23L203.59,114.98L203.27,114.89L203.37,114.86L203.69,114.95L203.70,114.96"/><path d="M203.83,118.52L203.88,118.50"/><path d="M203.79,114.93L203.48,114.84L204.11,114.69L204.43,114.78L204.75,115.03L205.03,115.43L205.26,115.94L205.40,116.50L205.45,117.05L204.82,117.21L204.77,116.65L204.62,116.09L204.40,115.58L204.11,115.18L203.79,114.93"/><path d="M203.27,114.89L203.18,114.92L203.49,115.00L203.50,115.01L203.59,115.03L203.90,115.28L204.17,115.67L204.39,116.15L204.53,116.70L204.58,117.24"/><path d="M203.50,115.01L203.81,115.26L204.09,115.66L204.32,116.16L204.46,116.72L204.51,117.25"/><path d="M203.18,114.92L203.17,114.91L203.03,114.95"/><path d="M203.48,114.84L203.39,114.87"/><path d="M205.17,119.10L205.43,118.93L205.90,117.84L205.94,117.32L205.91,116.76L205.45,115.17L205.19,114.71L204.90,114.33L203.97,113.83L203.67,113.89"/><path d="M204.82,117.21L204.76,117.71L204.61,118.11L204.38,118.37L204.10,118.46L204.08,118.46"/><path d="M204.35,118.32L204.51,118.14L204.66,117.73L204.71,117.23L204.61,117.25"/><path d="M205.45,117.05L205.40,117.56L205.25,117.96L205.02,118.22L204.73,118.31L204.10,118.46"/><path d="M204.71,117.20L204.71,117.23"/></g><g style="stroke:#000000;stroke-width:0.529"><path d="M203.03,114.95L199.23,115.85L198.94,115.94L198.93,115.94L198.69,116.21L198.54,116.62L198.49,117.12L198.54,117.67L198.68,118.22L198.90,118.72L199.19,119.12L199.51,119.38L199.84,119.47L199.85,119.47L203.79,118.53L203.83,118.52"/><path d="M203.83,118.52L203.94,118.66L204.87,119.16L205.17,119.10"/><path d="M203.03,114.95L203.41,114.07L203.67,113.89"/></g></g><g/><g><g/><g><path style="fill:#ffffff" d="M31.40,15.34L80.47,15.34L80.47,26.63L31.40,26.63z"/><text xml:space="preserve" fill="#000000" stroke-width="0" x="32.81" y="23.10" font-size="6.88" opacity="1.00" font-family="MS Shell Dlg">0010-ASM-001</text></g></g><g><g/><g><path style="fill:#ffffff" d="M6.53,180.00L136.05,180.00L136.05,199.05L6.53,199.05z"/><text xml:space="preserve" fill="#000000" stroke-width="0" x="7.59" y="185.82" font-size="5.18" opacity="1.00" font-family="MS Shell Dlg">a) Insert Door latch head in the slot so that the head will</text><text xml:space="preserve" fill="#000000" stroke-width="0" x="7.59" y="191.11" font-size="5.17" opacity="1.00" font-family="MS Shell Dlg">protrude from the Door internal catcher.</text><text xml:space="preserve" fill="#000000" stroke-width="0" x="7.59" y="196.40" font-size="5.17" opacity="1.00" font-family="MS Shell Dlg">b) Tighten the head to the catcher</text></g></g><g><g/><g><path style="fill:#ffffff" d="M168.00,180.00L286.84,180.00L286.84,193.76L168.00,193.76z"/><text xml:space="preserve" fill="#000000" stroke-width="0" x="169.06" y="185.82" font-size="5.18" opacity="1.00" font-family="MS Shell Dlg">a)   </text><text xml:space="preserve" fill="#000000" stroke-width="0" x="169.06" y="191.11" font-size="5.16" opacity="1.00" font-family="MS Shell Dlg">b) </text></g></g><g><g/><g><image x="82.357201" y="12.409999" height="15.000001" width="15.000001" xlink:href="5_files/9efb2fd9b4fd900d_image_0.jpg"/></g></g><g><g/><g><image x="14.945761" y="13.167144" height="15.000001" width="15.000001" xlink:href="5_files/9efb2fd9b4fd900d_image_1.jpg"/></g></g><g id="paperID" visibility="hidden" opacity="0.00" transform="scale(0.000100)"><path style="stroke:#000000;stroke-width:0.500;fill:#e6e6e6;fill-rule:evenodd" d="M-2000.00,-2000.00L2297.00,-2000.00L2297.00,2210.00L-2000.00,2210.00zM0.00,0.00L297.00,0.00L297.00,210.00L0.00,210.00z"/><path style="fill:#000000;fill-opacity:0.118" d="M3.00,210.00L297.00,210.00L297.00,3.00L300.00,3.00L300.00,213.00L3.00,213.00z"/></g><g id="hotspot.0" ident="" onmouseover="ShowHotSpot(evt,&apos;0&apos;)" onmouseout="HideHotSpot(evt,&apos;0&apos;)" onmousemove="ShowToolTip(evt,&apos;0&apos;,&quot;Copy 1 of Copy 1 of  6&quot;)" opacity="0"><a xlink:href="6.svg"><path style="fill:#00ff00;fill-rule:evenodd" d="M97.22,27.07L82.40,27.07L82.40,12.25L97.22,12.25z"/></a></g><g id="hotspot.1" ident="" onmouseover="ShowHotSpot(evt,&apos;1&apos;)" onmouseout="HideHotSpot(evt,&apos;1&apos;)" onmousemove="ShowToolTip(evt,&apos;1&apos;,&quot;Copy 1 of Copy 1 of Copy 1 of  6&quot;)" opacity="0"><a xlink:href="4.svg"><path style="fill:#00ff00;fill-rule:evenodd" d="M29.90,27.92L15.08,27.92L15.08,13.10L29.90,13.10z"/></a></g><g id="hotspot.2" ident="" onmouseover="ShowHotSpot(evt,&apos;2&apos;)" onmouseout="HideHotSpot(evt,&apos;2&apos;)" onmousemove="ShowToolTip(evt,&apos;2&apos;,&quot;0578_Door internal catcher_V2&quot;)" opacity="0"><path style="fill:#00ff00;fill-rule:evenodd" d="M194.50,28.11L194.23,122.95L193.87,153.70L187.92,155.11L186.01,155.11L181.41,152.65L181.78,92.57L182.07,95.13L182.93,95.49L183.21,94.97L183.23,85.20L182.93,84.90L182.06,85.03L181.78,88.46L182.05,27.04L182.80,25.82L187.36,24.70L188.29,24.68zM192.26,89.75L192.83,90.60L192.84,91.56L192.26,92.70L191.61,93.18L189.97,93.17L188.59,92.29L188.17,91.17L189.04,90.04L190.16,89.47L191.70,89.47z"/></g><g id="hotspot.3" ident="" onmouseover="ShowHotSpot(evt,&apos;3&apos;)" onmouseout="HideHotSpot(evt,&apos;3&apos;)" onmousemove="ShowToolTip(evt,&apos;3&apos;,&quot;0078_Door front&quot;)" opacity="0"><path style="fill:#00ff00;fill-rule:evenodd" d="M259.84,50.45L259.77,84.40L258.14,84.40L226.48,67.39L225.52,67.39L224.52,68.38L223.64,70.89L223.36,84.76L223.36,119.46L223.63,121.18L224.49,123.71L225.93,126.23L227.64,127.91L247.97,138.98L259.31,145.17L259.28,178.95L258.95,179.18L257.60,179.13L201.02,148.59L201.02,119.16L199.58,119.22L198.74,118.06L198.75,115.87L200.94,115.23L201.30,87.31L201.30,58.34L199.87,58.41L199.02,57.25L199.03,55.06L201.22,54.42L201.76,19.89L203.30,19.88z"/></g><g id="hotspot.4" ident="" onmouseover="ShowHotSpot(evt,&apos;4&apos;)" onmouseout="HideHotSpot(evt,&apos;4&apos;)" onmousemove="ShowToolTip(evt,&apos;4&apos;,&quot;0202_Door latch head&quot;)" opacity="0"><path style="fill:#00ff00;fill-rule:evenodd" d="M183.23,85.20L183.21,94.97L182.93,95.49L182.07,95.13L181.80,92.58L181.23,92.98L180.06,92.89L179.24,92.31L179.23,90.13L179.71,88.63L181.69,88.66L182.06,85.03L182.93,84.90z"/></g><g id="hotspot.5" ident="" onmouseover="ShowHotSpot(evt,&apos;5&apos;)" onmouseout="HideHotSpot(evt,&apos;5&apos;)" onmousemove="ShowToolTip(evt,&apos;5&apos;,&quot;0250_M4X8 socket countersunk head screw&quot;)" opacity="0"><path style="fill:#00ff00;fill-rule:evenodd" d="M169.07,63.72L168.97,65.17L165.54,65.97L165.11,66.95L164.44,67.45L163.70,67.42L162.82,66.30L162.53,65.45L162.53,63.81L162.99,63.15L164.26,63.16L164.55,63.43L166.14,63.46L168.51,63.16zM168.80,124.54L168.80,125.51L168.48,126.05L165.26,126.80L164.17,128.28L163.42,128.24L162.56,127.37L162.25,126.55L162.23,124.32L162.46,123.99L163.98,123.98L164.27,124.25L165.57,124.27L168.22,123.97z"/></g><g id="hotspot.6" ident="" onmouseover="ShowHotSpot(evt,&apos;6&apos;)" onmouseout="HideHotSpot(evt,&apos;6&apos;)" onmousemove="ShowToolTip(evt,&apos;6&apos;,&quot;0253_M4X10 socket head cap screw&quot;)" opacity="0"><path style="fill:#00ff00;fill-rule:evenodd" d="M192.26,89.75L192.83,90.60L192.84,91.56L192.26,92.70L191.61,93.18L189.97,93.17L188.59,92.29L188.17,91.17L189.04,90.04L190.16,89.47L191.70,89.47z"/></g><g id="ToolTip" visibility="hidden" opacity="0" transform="translate(0,0)"><rect id="ToolTipShadow" opacity="0.20" fill="black" stroke="none" x="0" y="0" width="30" height="8"/><rect id="ToolTipBG" fill="#ffffe1" stroke="black" x="0" y="0" width="30" height="8"/><text xml:space="preserve" id="ToolTipText" fill="black" x="0" y="0" width="30" height="8">tooltip</text></g></g></svg>