<?xml version="1.0" encoding="UTF-8" standalone="yes"?><svg xmlns="http://www.w3.org/2000/svg" xmlns:xlink="http://www.w3.org/1999/xlink" width="297.000mm" height="210.000mm" viewBox="0.000000 0.000000 297.000000 210.000000" stroke-linejoin="round" stroke-linecap="round" fill="none" fill-rule="evenodd"><desc>Composer Export</desc><script type="text/ecmascript"><![CDATA[
if(typeof(top) != "undefined")
{
	top.ShowPaper = ShowPaper;
}
function ShowHotSpot(evt,hotspotid)
{
	var svgDocument = evt.target.ownerDocument;
	var strId = "hotspot."+hotspotid;
	var hotspot = svgDocument.getElementById(strId);
	if(hotspot)
		hotspot.setAttribute("opacity",".5");
}
function HideHotSpot(evt,hotspotid)
{
	var svgDocument = evt.target.ownerDocument;
	var strId = "hotspot."+hotspotid;
	var hotspot = svgDocument.getElementById(strId);
	if(hotspot)
		hotspot.setAttribute("opacity","0");

	var toolTip = svgDocument.getElementById('ToolTip');
	if(toolTip)
		toolTip.setAttribute("visibility","hidden");
}
function ShowToolTip(evt,hotspotid,strTooltip)
{
	if(strTooltip=="")
	return;

	// change text
	var svgDocument = evt.target.ownerDocument;
	var tiptext = svgDocument.getElementById('ToolTipText');
	if( !tiptext )
	return;
	tiptext.firstChild.nodeValue = " " + strTooltip + "  " ;

	// show tooltip before, else some refresh issue

	var toolTip = svgDocument.getElementById('ToolTip');
	if(!toolTip)
	return;

	toolTip.setAttribute("visibility","visible");
	toolTip.setAttribute("opacity",".95");

	// move tooltip
	// get viewbox

	var root = svgDocument.documentElement;
	var vbox = (root.getAttribute("viewBox")).split(' ');
	var x0 = parseFloat(vbox[0]);
	var y0 = parseFloat(vbox[1]);
	var vboxW = parseFloat(vbox[2]);
	var vboxH = parseFloat(vbox[3]);

	// get default width of svg

	var strW = root.getAttribute("width");
	var svgW = parseFloat(strW);
	if(strW.indexOf('mm') != -1)
	svgW *= 3.779;

	var strH = root.getAttribute("height");
	var svgH = parseFloat(strH);
	if(strH.indexOf('mm') != -1)
	svgH *= 3.779;  	// 96 dpi  -> 96/25.4 = 3.779

	// update the viewbox / width / height if svg is embedded in html with zoom fit all
	var realx0 = x0;
	var realy0 = y0;
	var realvboxW = vboxW;
	var realvboxH = vboxH;
	var realsvgW = svgW;
	var realsvgH = svgH;

	if ((typeof(top) == "undefined") || (typeof(top.svgctl1) != "undefined")) // embedded in html
	{
		// get window size in pxl

		svgW = window.innerWidth;
		svgH = window.innerHeight;

		// calculate real viewbox

		realsvgW = svgW;
		realsvgH = svgH;
		if((svgW / svgH) > (vboxW / vboxH))
		{
			realvboxW = (vboxH * svgW) / svgH;
			realvboxH = vboxH;
			realx0 = x0 - (realvboxW - vboxW)/2 ;
		}
		else
		{
			realvboxH = (vboxW * svgH) / svgW;
			realvboxW = vboxW;
			realy0 = y0 - (realvboxH - vboxH)/2 ;
		}
	}

	// get user zoom/pan

	var newScale = root.currentScale;
	var translation = root.currentTranslate;

	// transform pxl to user unit

	var xPos = (((evt.clientX+10- translation.x)/newScale) * realvboxW)/realsvgW  + realx0 ;
	var yPos = (((evt.clientY+5- translation.y)/newScale) * realvboxH)/ realsvgH  + realy0 ;
	var scaleForWidth = ( (1 / newScale) * realvboxH) / realsvgH;

	// move tooltip

	toolTip.setAttribute("transform", "translate(" + xPos + "," + yPos + ")" );

	// resize tooltip

	var fontsize = 12;
	tiptext.setAttribute("font-size",fontsize*scaleForWidth);
	tiptext.setAttribute("y", fontsize*scaleForWidth);
	var tipBG = svgDocument.getElementById('ToolTipBG');
	var outline = tiptext.getBBox();
	if(tipBG)
	{
		tipBG.setAttribute("stroke-width", 1*scaleForWidth);
		tipBG.setAttribute("width", Number(outline.width) );
		tipBG.setAttribute("height", Number(outline.height) + fontsize*.5*scaleForWidth );
	}
	var ToolTipShadow = svgDocument.getElementById('ToolTipShadow');
	if(ToolTipShadow)
	{
		ToolTipShadow.setAttribute("width", Number(outline.width) );
		ToolTipShadow.setAttribute("height", Number(outline.height) + fontsize*.5*scaleForWidth );
		ToolTipShadow.setAttribute("x", 3*scaleForWidth);
		ToolTipShadow.setAttribute("y", 3*scaleForWidth);
	}
}
function ShowPaper()
{
  var svgDocument = getDocument();
  var paper = svgDocument.getElementById("paperID");
  if(paper)
  {
    paper.setAttribute("transform","scale(1)");
    paper.setAttribute("opacity","1");
    paper.setAttribute("visibility","visible");
  }
  var svg = svgDocument.getRootElement();
  if(svg)
  {
    svg.setAttribute("width","307.000mm");
    svg.setAttribute("height","220.000mm");
    svg.setAttribute("viewBox","-5.000000 -5.000000 307.000000 220.000000");
  }
}
]]></script><defs/><g><path style="fill:#ffffff" d="M297.00,210.08L0.07,210.08L0.07,0.07L297.00,0.07z"/><path style="fill:#e5e5e5" d="M208.06,72.05L207.50,150.89L200.47,152.48L201.05,37.49L201.29,26.95L208.06,25.36z"/><path style="fill:#01ff02" d="M197.83,56.85L195.96,57.19L194.46,57.97L195.22,57.97L197.87,57.34L198.06,57.85L189.26,60.01L187.66,60.92L186.51,62.77L186.52,67.72L189.78,112.15L190.05,109.45L190.17,110.45L190.31,111.72L190.28,113.13L189.97,113.35L189.14,113.27L189.05,113.07L188.78,109.52L188.64,113.42L187.70,113.12L187.67,111.97L187.78,109.52L187.54,110.20L184.27,65.71L184.26,63.03L184.77,61.54L185.97,59.72L187.45,58.70L193.87,57.17L194.74,57.22L195.10,56.88L196.36,56.53L197.03,56.43z"/><path style="fill:#fff2e8" d="M164.61,125.01L164.74,125.58L164.61,128.24L164.39,128.61L163.47,128.61L162.99,128.31L162.21,126.59L162.21,125.14L162.61,124.29L163.74,124.32z"/><path style="fill:#e5d9d0" d="M206.18,86.94L206.58,87.75L206.57,88.58L206.31,89.34L205.47,90.25L203.54,90.28L203.22,90.17L203.21,89.93L203.54,89.50L203.53,88.58L204.07,87.59L204.98,87.00L205.86,86.66z"/><path style="fill:#e5d9d0" d="M165.24,125.83L166.15,125.83L168.78,125.22L168.66,126.33L165.17,127.34L164.61,128.24L164.74,125.58L164.61,125.01L164.81,125.01z"/><path style="fill:#01e502" d="M197.89,58.40L194.95,59.20L195.35,59.43L188.45,61.20L187.67,61.92L187.01,63.27L187.02,65.96L189.28,96.77L190.05,109.45L189.78,112.15L186.52,67.72L186.51,62.77L187.66,60.92L189.26,60.01L198.06,57.85z"/><path style="fill:#01ff02" d="M197.64,58.91L196.96,58.95L196.88,59.10L195.35,59.43L194.95,59.20L197.89,58.40z"/><path style="fill:#cdd1d5" d="M195.47,86.34L196.22,86.27L196.52,83.05L196.84,82.65L196.80,92.63L196.65,92.76L196.35,92.41L196.30,89.48L195.64,89.46L195.20,89.99L193.75,90.02L193.40,89.74L193.77,89.60L194.04,86.58L194.92,85.91L195.32,85.95z"/><path style="fill:#fff2e8" d="M198.55,56.19L198.88,57.30L198.73,57.43L198.67,59.35L198.47,59.72L197.29,59.70L196.88,59.10L197.64,58.91L197.89,58.40L198.06,57.85L197.87,57.34L197.83,56.85L197.03,56.43L196.36,56.53L196.36,55.92L196.95,55.43L197.88,55.30L198.08,55.42z"/><path style="fill:#fff2e8" d="M205.57,87.96L205.57,89.10L205.22,89.52L204.23,89.33L204.31,88.34L205.35,87.73z"/><path style="fill:#fff2e8" d="M201.87,88.60L202.57,87.34L203.47,86.74L204.47,86.50L205.79,86.51L205.86,86.66L204.98,87.00L204.07,87.59L203.53,88.58L203.54,89.50L203.21,89.93L202.19,89.19z"/><path style="fill:#fff2e8" d="M168.55,124.52L168.78,125.22L166.15,125.83L165.24,125.83L164.81,125.01L167.16,124.32L168.25,124.31z"/><path style="fill:#e5d9d0" d="M198.73,57.43L198.88,57.30L199.02,57.43L199.06,58.80L198.67,59.35z"/><path style="fill:#e5d9d0" d="M163.79,126.07L163.74,126.43L163.14,126.42L163.13,125.81L163.49,125.76z"/><path style="fill:#01e502" d="M194.74,57.22L193.87,57.17L195.10,56.88z"/><path style="fill:#01e502" d="M197.87,57.34L195.22,57.97L194.46,57.97L195.96,57.19L197.83,56.85z"/><path style="fill:#01e502" d="M196.88,59.10L196.96,58.95L197.64,58.91z"/><path style="fill:#01e502" d="M190.31,111.72L190.17,110.45L190.27,110.54z"/><path style="fill:#01e502" d="M187.67,111.97L187.54,110.20L187.78,109.52z"/><path style="fill:#01e502" d="M189.05,113.07L189.14,113.27L188.64,113.42L188.78,109.52z"/><path style="fill:#e5e5e5" d="M197.88,55.30L196.95,55.43L196.36,55.92L196.24,55.52L196.96,54.91L197.56,54.91z"/><path style="fill:#e5e5e5" d="M196.62,81.85L196.13,81.83L196.31,81.47z"/><path style="fill:#e5e5e5" d="M259.85,84.76L258.83,84.84L258.83,51.18L259.95,50.94z"/><path style="fill:#e5e5e5" d="M196.35,92.41L196.65,92.76L196.53,92.90L195.97,92.85L195.85,92.26z"/><path style="fill:#e5e5e5" d="M197.58,116.02L198.58,117.56L198.48,118.07L197.78,118.07L197.77,117.29L195.95,116.62L196.02,116.16L196.45,115.78L197.30,115.79z"/><path style="fill:#e5e5e5" d="M225.04,68.24L224.09,69.79L223.59,71.80L223.34,97.60L223.36,121.16L222.25,121.16L222.09,119.56L222.09,102.36L222.34,72.05L222.84,70.04L223.74,68.69L224.51,67.97L225.60,67.69z"/><path style="fill:#e5e5e5" d="M259.42,179.51L258.40,179.77L258.32,145.86L259.45,145.63z"/><path style="fill:#0000ff" d="M257.18,53.42L258.17,55.43L258.18,57.27L257.34,57.97L256.57,58.02L256.50,57.71L257.58,57.20L257.66,55.67L253.07,56.70L252.91,58.04L252.49,58.58L251.65,58.45L251.13,57.71L251.14,55.27L255.64,54.00L256.09,53.17L256.65,53.15z"/><path style="fill:#0000ff" d="M219.32,71.20L219.32,72.96L218.73,73.47L217.84,73.48L217.34,72.94L215.76,73.23L214.08,73.22L213.83,72.98L213.79,71.52L214.00,71.22L216.28,70.75L217.22,69.44L218.33,69.48z"/><path style="fill:#0000ff" d="M257.40,70.98L257.67,71.46L258.16,72.97L258.17,74.32L257.68,75.29L256.53,74.92L256.79,74.48L257.45,74.38L257.68,74.08L257.69,72.73L256.33,72.98L252.82,73.98L252.51,75.64L251.89,75.76L251.42,75.46L250.88,74.24L250.88,72.79L251.30,72.21L255.31,71.21L255.58,70.73L256.93,70.70z"/><path style="fill:#0000ff" d="M218.36,113.78L219.09,116.32L218.76,117.83L217.60,117.81L217.33,117.32L215.16,117.54L214.60,117.32L213.92,117.53L213.54,117.08L213.54,115.85L214.31,115.37L216.58,114.81L216.83,113.85L217.09,113.57L218.09,113.51z"/><path style="fill:#0000ff" d="M256.40,153.92L256.91,153.91L257.42,154.87L257.66,157.47L257.32,158.41L256.91,158.42L256.00,157.99L256.42,157.66L256.95,157.54L257.17,157.24L257.14,155.84L256.66,156.17L255.84,156.12L252.57,156.88L252.42,157.98L251.99,158.78L251.15,158.64L250.63,157.91L250.63,155.45L254.82,154.38L255.58,153.34L255.87,153.37z"/><path style="fill:#0000ff" d="M256.64,170.93L257.42,172.66L257.65,174.48L256.92,175.26L255.91,175.42L255.73,175.13L256.43,174.70L256.89,174.76L257.18,174.27L257.19,172.93L252.80,173.90L252.32,174.17L252.06,175.87L251.87,176.01L251.16,175.93L250.38,174.44L250.37,172.97L251.05,172.40L255.07,171.41L255.64,170.70L256.17,170.63z"/><path style="fill:#0000e5" d="M251.34,55.90L252.15,55.94L252.42,56.42L252.33,56.70L251.59,56.79z"/><path style="fill:#0000e5" d="M257.58,57.20L256.50,57.71L252.49,58.58L252.91,58.04L253.07,56.70L257.66,55.67z"/><path style="fill:#0000e5" d="M218.00,71.94L218.28,71.45L218.58,71.44L218.60,72.35L218.37,72.58z"/><path style="fill:#0000e5" d="M215.57,72.82L215.25,72.84L215.32,72.27L215.62,72.23z"/><path style="fill:#0000e5" d="M252.42,73.72L251.65,74.07L251.31,72.96L251.90,72.93z"/><path style="fill:#0000e5" d="M257.68,74.08L257.45,74.38L256.79,74.48L256.53,74.92L252.51,75.64L252.82,73.98L256.33,72.98L257.69,72.73z"/><path style="fill:#0000e5" d="M218.05,115.75L218.30,115.78L218.35,116.69L218.08,116.92z"/><path style="fill:#0000e5" d="M215.32,117.08L215.01,117.15L215.01,116.55L215.27,116.50z"/><path style="fill:#0000e5" d="M215.16,117.54L215.07,117.64L213.92,117.53L214.60,117.32z"/><path style="fill:#0000e5" d="M256.66,156.17L257.14,155.84L257.17,157.24L256.95,157.54L256.42,157.66L256.00,157.99L251.99,158.78L252.42,157.98L252.57,156.88L255.84,156.12z"/><path style="fill:#0000e5" d="M251.95,156.65L251.92,156.97L251.08,156.97L250.84,156.09L251.38,156.10z"/><path style="fill:#0000e5" d="M251.52,173.30L251.65,173.99L251.16,174.27L250.86,173.68L250.82,173.15z"/><path style="fill:#0000e5" d="M257.18,174.27L256.89,174.76L256.43,174.70L255.73,175.13L252.06,175.87L252.32,174.17L252.80,173.90L257.19,172.93z"/><path style="fill:#ff0000" d="M200.43,24.35L200.67,24.12L202.34,24.15L202.34,24.43L202.00,24.67L201.03,24.65z"/><path style="fill:#e2e9ed" d="M194.92,85.91L194.04,86.58L193.77,89.60L193.40,89.74L193.02,89.51L193.04,86.34L194.18,85.50z"/><path style="fill:#e2e9ed" d="M196.84,82.65L196.52,83.05L196.22,86.27L195.47,86.34L195.32,85.95L195.56,85.59L195.76,82.31L196.13,81.83L196.62,81.85L196.81,81.99z"/><path style="fill:#e2e9ed" d="M195.85,92.26L195.64,89.46L196.30,89.48L196.35,92.41z"/><path style="fill:#ffffff" d="M207.06,87.25L207.08,89.35L205.96,90.74L204.48,91.27L202.30,91.26L201.95,90.72L203.22,90.17L203.54,90.28L205.47,90.25L206.31,89.34L206.57,88.58L206.58,87.75L206.18,86.94z"/><path style="fill:#ffffff" d="M202.19,89.19L201.71,89.36L201.71,88.75L201.87,88.60z"/><g id="Actor_7.0"><g style="stroke:#000000;stroke-width:0.176"><path d="M163.11,126.67L163.38,127.06L163.79,126.88L163.80,126.09L163.43,125.54L162.97,125.64L162.97,126.44L163.11,126.67"/><path d="M162.97,125.64L163.38,125.47L163.43,125.54"/><path d="M162.97,126.44L163.70,126.27L163.70,125.95"/><path d="M164.08,128.45L164.40,128.13L164.60,127.62L164.67,126.95L164.60,126.22L164.40,125.48L164.09,124.83L163.79,124.44L163.71,124.34L163.28,124.06L162.87,124.01"/><path d="M163.70,126.27L163.80,126.41"/><path d="M163.71,125.95L163.71,125.99L163.75,126.22L163.80,126.34"/><path d="M163.75,126.22L163.80,126.21"/><path d="M163.99,124.27L164.38,124.77L164.69,125.41L164.89,126.15L164.96,126.89L164.89,127.55"/><path d="M164.62,124.85L164.81,124.98L165.01,125.23L165.17,125.56L165.27,125.94L165.30,126.32L165.27,126.66L165.16,126.92L165.10,126.98L165.21,126.70L165.22,126.67L165.25,126.35L165.22,125.96L165.11,125.57L164.95,125.23L164.74,124.97L164.53,124.77"/><path d="M165.11,126.96L165.12,126.95"/><path d="M165.10,126.98L165.07,127.07"/><path d="M168.73,125.83L168.77,125.49L168.73,125.12L168.63,124.74L168.47,124.41L168.27,124.16"/></g><g style="stroke:#000000;stroke-width:0.529"><path d="M165.07,127.07L168.46,126.26L168.62,126.10L168.73,125.83L168.80,125.65L168.83,125.38L168.80,125.08L168.72,124.77L168.59,124.51L168.43,124.30L168.27,124.16L168.05,124.01L167.84,123.99L164.53,124.77L163.99,124.27L163.57,123.99L163.15,123.94L162.87,124.01L162.51,124.21L162.25,124.63L162.11,125.23L162.11,125.94L162.24,126.69L162.50,127.39L162.86,127.96L163.27,128.36L163.69,128.53L164.08,128.45L164.37,128.38L164.68,128.07L164.89,127.55L165.07,127.07"/></g></g><g id="Actor_7.1"><g style="stroke:#000000;stroke-width:0.176"><path d="M197.87,57.89L197.87,58.05L197.81,58.07"/><path d="M197.78,57.20L197.78,57.11"/><path d="M197.79,57.12L197.79,57.15L197.81,57.26"/><path d="M197.74,57.04L197.88,57.25L197.88,57.37"/><path d="M198.16,59.61L198.48,59.30L198.68,58.78L198.75,58.12L198.69,57.38L198.49,56.65L198.17,56.00L197.79,55.51L197.36,55.22L196.95,55.17"/><path d="M198.97,58.71L199.04,58.05L198.97,57.31L198.77,56.58L198.46,55.93L198.07,55.44"/></g><g style="stroke:#000000;stroke-width:0.529"><path d="M199.07,58.44L198.97,58.71L198.76,59.23L198.45,59.54L198.16,59.61L197.77,59.69L197.35,59.52L196.94,59.13L196.83,58.95"/><path d="M198.44,55.78L198.07,55.44L197.65,55.15L197.24,55.11L196.95,55.17L196.59,55.37L196.33,55.79L196.20,56.36"/></g></g><g id="Actor_5.0"><g style="stroke:#000000;stroke-width:0.176"><path d="M194.30,90.06L194.25,90.03L193.79,89.61L193.75,89.56L193.72,89.50L193.71,89.43L192.89,88.99"/><path d="M193.79,89.61L192.96,89.17"/><path d="M193.43,89.58L194.25,90.03"/><path d="M192.97,86.24L193.80,86.69L193.76,86.75L193.74,86.83L193.73,86.90L192.90,86.45"/><path d="M193.45,85.60L194.27,86.05L194.33,85.99L194.38,85.95L194.45,85.92L193.62,85.48"/><path d="M193.71,89.43L193.73,86.90"/><path d="M193.80,86.69L194.27,86.05"/><path d="M194.45,85.92L195.03,85.79L195.09,85.78L195.15,85.79L195.20,85.83L195.24,85.87L195.36,86.08L195.59,86.20L195.53,86.21L195.47,86.20L195.42,86.16L195.38,86.12L195.36,86.08"/><path d="M194.20,85.34L195.03,85.79"/><path d="M195.57,91.64L196.40,92.08L196.41,89.32L196.40,89.24L196.37,89.17L196.31,89.12L196.25,89.10L196.17,89.10L196.06,89.13L196.41,89.32"/><path d="M195.78,92.04L195.77,92.04"/><path d="M196.06,89.13L195.58,89.24"/><path d="M195.15,85.79L194.98,85.71"/><path d="M195.36,85.62L196.19,86.06L196.26,86.03L196.33,85.98L196.39,85.90L196.42,85.82L196.43,85.73L195.61,85.28"/><path d="M195.59,86.20L196.19,86.06"/><path d="M196.90,82.31L196.79,82.36L196.65,82.47L196.54,82.62L196.47,82.79L196.45,82.96L195.62,82.52"/><path d="M196.40,92.08L196.42,92.25L196.49,92.39L196.60,92.48"/><path d="M196.43,85.73L196.45,82.96"/><path d="M196.89,82.27L196.11,81.85"/></g><g style="stroke:#000000;stroke-width:0.529"><path d="M195.58,89.24L195.58,89.24L195.51,89.27L195.45,89.31L195.40,89.37L195.36,89.43L195.22,89.74L195.18,89.81L195.13,89.87L195.07,89.91L195.00,89.93L194.43,90.07L194.36,90.08L194.30,90.06L193.48,89.62L193.43,89.58L192.96,89.17L192.92,89.12L192.90,89.06L192.89,88.99L192.90,86.45L192.91,86.38L192.93,86.31L192.97,86.24L193.45,85.60L193.50,85.54L193.56,85.50L193.62,85.48L194.20,85.34L194.26,85.33L194.32,85.35L194.98,85.71L195.36,85.62L195.43,85.58L195.50,85.53L195.56,85.45L195.59,85.37L195.61,85.28L195.62,82.52L195.65,82.34L195.72,82.17L195.83,82.02L195.96,81.91L196.11,81.85L196.73,81.70"/><path d="M196.85,92.52L196.74,92.53L196.60,92.48L195.77,92.04L195.66,91.94L195.60,91.80L195.57,91.64L195.58,89.24"/></g></g><g id="Actor_10.0"><g style="stroke:#000000;stroke-width:0.176"><path d="M195.68,117.81L195.84,118.71L196.15,119.56L196.58,120.26L197.07,120.73L197.58,120.94L198.06,120.85L198.44,120.47L198.68,119.85L198.77,119.05L198.69,118.16L198.45,117.28L198.08,116.50L197.61,115.90L197.10,115.56L196.89,115.53L196.60,115.50L196.17,115.73L195.85,116.24L195.68,116.96L195.68,117.81"/><path d="M195.72,23.98L201.02,26.83L200.36,152.36"/><path d="M195.86,92.08L195.88,92.67L195.95,92.94L196.06,93.18L196.20,93.37L196.35,93.49L196.72,93.41"/><path d="M196.35,93.49L196.50,93.54L196.64,93.49L196.75,93.37L196.83,93.18L196.85,92.93L196.91,82.43L196.88,82.16L196.82,81.89L196.71,81.65L196.57,81.46L196.42,81.33L196.26,81.29L196.12,81.34L196.01,81.46L195.94,81.65L195.91,81.95"/><path d="M195.86,92.40L196.26,92.30"/><path d="M195.91,81.90L196.73,81.70"/><path d="M196.62,59.00L196.90,59.45L197.40,59.93L197.91,60.13L198.38,60.04L198.76,59.67L199.00,59.05L199.09,58.25L199.01,57.36L198.77,56.48L198.40,55.69L197.93,55.10L197.42,54.75L196.93,54.69L196.49,54.93L196.18,55.44L196.01,56.16L196.00,56.40"/><path d="M198.14,116.63L197.92,116.74L197.77,116.98L197.69,117.33L197.68,117.74L197.76,118.17L197.91,118.57L198.11,118.91L198.35,119.13L198.60,119.23L198.76,119.20"/><path d="M201.02,26.83L208.22,25.12"/><path d="M200.82,24.44L200.94,24.48L201.25,24.52L201.57,24.52L201.87,24.48L202.12,24.41L202.29,24.31L202.37,24.20L202.34,24.08L202.20,23.98L201.98,23.89L201.66,23.83L201.38,23.82L201.06,23.84L200.78,23.89L200.57,23.98L200.44,24.08L200.42,24.20L200.50,24.31L200.68,24.41L200.82,24.44"/><path d="M202.45,91.13L202.38,91.11L201.92,90.70L201.62,90.11L201.52,89.40L201.63,88.64L201.93,87.90L202.40,87.27L202.99,86.79L203.65,86.52L205.12,86.17L205.79,86.13L206.36,86.33L206.83,86.74L207.12,87.33L207.22,88.04L207.12,88.80L206.81,89.53L206.34,90.17L205.75,90.65L205.10,90.92L203.62,91.27L202.97,91.31L202.45,91.13"/><path d="M203.49,90.01L201.97,90.38L201.76,90.39"/><path d="M201.97,90.38L203.62,91.27"/><path d="M201.59,88.95L201.97,89.16L202.19,89.11"/><path d="M201.97,89.16L201.66,89.18L201.56,89.15"/><path d="M203.44,90.03L205.10,90.92"/><path d="M205.33,86.15L205.43,86.36"/></g><g style="stroke:#000000;stroke-width:0.529"><path d="M207.56,150.65L200.36,152.36L195.06,149.51L195.38,89.41"/><path d="M195.54,59.26L195.40,85.60"/><path d="M201.60,21.55L196.36,22.79L195.72,23.98L195.55,56.51"/></g></g><g id="Actor_2.0"><g style="stroke:#000000;stroke-width:0.176"><path d="M201.61,20.17L258.79,50.99L258.61,84.87"/><path d="M217.12,116.87L217.28,117.13L217.67,117.51L218.07,117.67L218.44,117.60L218.74,117.30L218.93,116.81L219.00,116.18L218.94,115.48L218.75,114.79L218.46,114.17L218.09,113.70L217.69,113.43L217.30,113.38L216.96,113.57L216.71,113.97L216.57,114.60"/><path d="M217.35,72.65L217.51,72.91L217.90,73.29L218.30,73.45L218.67,73.38L218.97,73.08L219.17,72.59L219.24,71.96L219.17,71.26L218.99,70.57L218.69,69.95L218.32,69.48L217.92,69.21L217.53,69.16L217.19,69.35L216.94,69.75L216.80,70.38"/><path d="M223.14,117.46L221.92,117.75L222.00,119.42L222.28,121.13L222.73,122.81L223.34,124.40L224.09,125.84L224.94,127.07L225.87,128.04L226.84,128.72L258.29,145.67L258.11,179.56"/><path d="M221.92,117.75L222.15,73.53L223.38,73.24"/><path d="M222.15,73.53L222.25,71.97L222.54,70.56L223.01,69.38L223.64,68.45L224.39,67.83L225.26,67.52L225.62,67.54"/><path d="M228.07,128.43L226.84,128.72"/><path d="M255.82,174.82L256.01,175.01L256.45,175.19L256.85,175.11L257.17,174.79L257.38,174.26L257.46,173.58L257.39,172.82L257.19,172.07L256.87,171.41L256.47,170.90L256.04,170.60L255.61,170.56L255.25,170.76L254.98,171.19L254.96,171.27"/><path d="M255.91,157.69L256.11,157.88L256.54,158.05L256.94,157.97L257.26,157.65L257.48,157.12L257.55,156.45L257.48,155.69L257.28,154.94L256.96,154.27L256.56,153.76L256.13,153.47L255.71,153.42L255.34,153.62L255.07,154.05L255.05,154.13"/><path d="M256.35,74.61L256.54,74.80L256.98,74.97L257.38,74.89L257.70,74.57L257.91,74.05L257.99,73.37L257.92,72.61L257.72,71.86L257.40,71.19L257.00,70.68L256.57,70.39L256.14,70.34L255.78,70.54L255.51,70.97L255.49,71.05"/><path d="M256.44,57.47L256.64,57.66L257.07,57.83L257.47,57.76L257.79,57.44L258.00,56.91L258.08,56.23L258.01,55.47L257.81,54.72L257.49,54.06L257.09,53.55L256.66,53.26L256.24,53.21L255.87,53.41L255.60,53.84L255.58,53.92"/><path d="M258.29,145.67L259.52,145.38"/><path d="M258.79,50.99L260.02,50.69"/></g><g style="stroke:#000000;stroke-width:0.529"><path d="M205.42,151.16L258.11,179.56L259.34,179.26L259.52,145.38L228.07,128.43L227.10,127.75L226.17,126.77L225.32,125.56L224.57,124.11L223.96,122.52L223.51,120.84L223.23,119.13L223.14,117.46L223.21,105.56L223.38,73.24L223.48,71.67L223.77,70.27L224.24,69.09L224.86,68.16L225.62,67.54L226.19,67.55L227.16,67.92L258.61,84.87L259.84,84.58L260.02,50.69L202.84,19.87L201.61,20.17L201.60,21.55"/></g></g><g id="Actor_2.1"><g style="stroke:#000000;stroke-width:0.176"><path d="M251.33,74.44L251.36,74.51L251.54,74.76L251.75,74.93L251.95,74.98L252.14,74.93L252.28,74.76L252.38,74.50L252.41,74.18L252.38,73.82L252.29,73.46L252.25,73.37L252.15,73.14L251.96,72.88L251.76,72.72L251.55,72.66L251.37,72.72L251.22,72.88L251.12,73.14L251.09,73.46L251.12,73.82L251.21,74.18L251.33,74.44"/><path d="M250.74,73.28L250.79,73.83L250.93,74.37L251.15,74.86L251.43,75.25L251.74,75.51L252.06,75.59L252.34,75.50L252.56,75.25L252.71,74.86L252.76,74.37L252.71,73.82L252.57,73.27L252.35,72.78L252.07,72.39L251.76,72.14L251.45,72.05L251.17,72.14L250.94,72.39L250.80,72.78L250.74,73.28L250.74,73.27L250.74,73.27"/><path d="M251.09,73.46L251.40,73.49L251.43,73.78L251.50,74.07L251.62,74.33L251.77,74.54L251.93,74.67L252.10,74.72L252.25,74.67L252.36,74.54"/><path d="M252.76,74.37L252.77,74.37L252.79,74.37L252.82,74.37L252.76,74.87L252.61,75.28L252.38,75.53L252.10,75.62"/><path d="M251.99,72.92L251.94,72.88L251.78,72.84L251.63,72.88L251.51,73.02L251.43,73.23L251.40,73.49L252.22,73.29"/><path d="M251.48,72.00L251.80,72.09L252.11,72.35L252.40,72.75L252.63,73.25L252.77,73.81L252.82,74.37L256.76,73.43L256.75,73.41L256.82,73.39L256.77,73.88L256.63,74.27L256.41,74.51L256.39,74.52L256.32,74.60L256.12,74.66L256.14,74.66L256.43,74.57L256.66,74.31L256.80,73.91L256.86,73.41L256.81,72.85L256.67,72.29L256.44,71.79L256.15,71.39L255.84,71.13L255.52,71.04L255.43,71.07L255.73,71.15L255.74,71.16L255.84,71.19L256.14,71.44L256.42,71.82L256.64,72.31L256.78,72.85L256.82,73.39"/><path d="M255.74,71.16L256.05,71.41L256.34,71.81L256.56,72.31L256.71,72.87L256.75,73.41"/><path d="M255.43,71.07L255.41,71.07L255.28,71.10"/><path d="M256.34,74.61L256.33,74.61L256.53,74.55L256.60,74.47L256.61,74.47L256.83,74.22L256.98,73.83L257.03,73.34L256.98,72.80L256.84,72.26L256.83,72.22L256.62,71.77L256.35,71.39L256.04,71.14L255.95,71.11L255.94,71.11L255.63,71.02L255.72,70.99L256.36,70.84L256.67,70.93L256.99,71.19L257.28,71.59L257.51,72.09L257.65,72.65L257.70,73.21L257.68,73.33L257.64,73.71L257.49,74.11L257.26,74.37L256.98,74.46L256.34,74.61L256.63,74.52L256.86,74.27L257.01,73.86L257.06,73.36L257.01,72.80L256.87,72.24L256.64,71.74L256.36,71.34L256.04,71.08L255.72,70.99"/><path d="M255.63,71.02L255.62,71.02L255.52,71.04"/><path d="M256.76,73.43L256.70,73.94L256.55,74.34L256.39,74.52"/><path d="M256.86,73.41L256.96,73.38L256.91,73.89L256.76,74.29L256.60,74.47"/><path d="M256.12,74.66L256.08,74.67"/><path d="M256.14,74.66L256.24,74.64L256.33,74.61"/><path d="M255.95,71.11L256.26,71.36L256.54,71.76L256.77,72.27L256.91,72.82L256.96,73.36L257.03,73.34"/><path d="M255.92,70.05L256.22,69.99L257.14,70.49L257.44,70.87L257.70,71.33L258.15,72.91L258.18,73.47L258.15,73.99L257.68,75.08L257.41,75.26"/><path d="M257.06,73.36L257.70,73.21"/><path d="M256.96,73.38L256.96,73.36"/></g><g style="stroke:#000000;stroke-width:0.529"><path d="M256.08,74.67L256.03,74.69L252.10,75.62L252.09,75.62L251.76,75.53L251.43,75.27L251.15,74.88L250.93,74.38L250.78,73.82L250.74,73.27L250.79,72.77L250.94,72.36L251.18,72.10L251.19,72.09L251.48,72.00L255.28,71.10"/><path d="M255.92,70.05L255.65,70.22L255.28,71.10"/><path d="M257.41,75.26L257.12,75.32L256.19,74.82L256.08,74.67"/></g></g><g id="Actor_8.0"><g style="stroke:#000000;stroke-width:0.176"><path d="M201.94,87.90L201.94,88.17"/><path d="M203.56,89.44L203.45,89.10L203.43,88.82L203.46,88.54L203.62,87.96L203.93,87.45L204.35,87.04L204.84,86.78L205.34,86.71L205.80,86.83L206.16,87.12L206.40,87.56L206.48,88.10L206.39,88.67L206.15,89.23L205.78,89.70L205.32,90.03L204.82,90.20L204.34,90.18L203.92,89.97L203.61,89.60L203.56,89.44"/><path d="M205.77,86.55L205.26,86.41L204.69,86.50L204.14,86.78L203.67,87.24L203.35,87.78L203.32,87.83L203.13,88.47L203.10,88.80L203.13,89.11L203.31,89.67L203.65,90.09"/><path d="M204.67,89.33L204.20,89.13L204.20,88.15L204.96,87.48L205.71,87.79L205.71,88.77L204.95,89.44L204.67,89.33"/><path d="M204.20,88.96L204.23,88.96L204.48,88.88L204.67,88.75L204.29,89.08L204.20,89.05"/><path d="M204.29,89.08L204.95,89.44"/><path d="M204.67,88.75L205.05,88.41L205.05,87.92L205.01,87.66L204.93,87.51"/><path d="M205.05,87.52L205.05,87.92L205.01,88.21L204.34,88.03"/><path d="M205.01,87.66L204.64,87.76"/><path d="M205.05,88.41L205.71,88.77"/><path d="M204.67,88.74L204.70,88.72L204.89,88.48L205.01,88.21"/></g><g style="stroke:#000000;stroke-width:0.529"><path d="M201.94,88.17L201.93,88.47L202.12,89.03L202.46,89.45L203.65,90.09L204.12,90.33L204.67,90.35L205.24,90.16L205.76,89.79L206.18,89.25L206.45,88.63L206.54,87.98L206.45,87.37L206.19,86.88L205.77,86.55L205.09,86.18"/><path d="M201.84,88.12L201.94,88.17"/></g></g><g id="Actor_2.2"><g style="stroke:#000000;stroke-width:0.176"><path d="M251.39,57.94L251.24,57.73L251.02,57.24L250.88,56.69L250.83,56.14L250.89,55.65L251.03,55.26L251.26,55.00L251.54,54.92L251.85,55.00L252.16,55.25L252.44,55.64L252.66,56.14L252.80,56.67L252.80,56.68L252.85,57.23L252.80,57.72L252.78,57.78L252.65,58.12L252.43,58.37L252.15,58.46L251.83,58.37L251.52,58.12L251.39,57.94"/><path d="M251.18,56.33L251.21,56.69L251.30,57.05L251.45,57.37L251.63,57.63L251.84,57.79L252.04,57.85L252.23,57.79L252.37,57.62L252.46,57.41L252.34,57.54L252.19,57.58L252.02,57.54L251.86,57.40L251.71,57.20L251.59,56.93L251.52,56.64L251.49,56.35L251.18,56.33L251.21,56.01L251.31,55.75L251.46,55.58L251.64,55.52L251.85,55.58L252.05,55.75L252.24,56.00L252.38,56.33L252.47,56.68L252.50,57.04L252.47,57.37L252.46,57.41"/><path d="M250.83,56.14L250.83,56.14L250.83,56.13"/><path d="M252.19,58.49L252.48,58.40L252.71,58.14L252.85,57.74L252.91,57.23L252.88,57.24L252.87,57.24L252.85,57.23"/><path d="M251.57,54.87L251.89,54.96L252.20,55.21L252.49,55.61L252.72,56.12L252.86,56.67L252.91,57.23L256.85,56.30L256.84,56.27L256.91,56.25L256.86,56.74L256.72,57.13L256.50,57.38L256.48,57.38L256.64,57.20L256.79,56.80L256.85,56.30"/><path d="M252.08,55.78L252.03,55.75L251.87,55.70L251.72,55.75L251.60,55.88L251.52,56.09L251.49,56.35L252.31,56.16"/><path d="M255.84,53.87L255.81,53.86L256.45,53.71L256.77,53.80L257.08,54.05L257.37,54.45L257.60,54.95L257.74,55.51L257.79,56.07L257.15,56.22L257.10,55.66L256.96,55.11L256.73,54.60L256.45,54.20L256.13,53.95L255.84,53.87"/><path d="M256.91,56.25L256.87,55.71L256.73,55.17L256.51,54.69L256.23,54.30L255.93,54.05L255.83,54.03L255.82,54.02L255.50,53.93L255.37,53.96"/><path d="M256.48,57.38L256.41,57.46L256.21,57.52L256.23,57.53L256.52,57.44L256.75,57.18L256.89,56.78L256.95,56.27L256.90,55.71L256.76,55.15L256.53,54.65L256.24,54.25L255.93,53.99L255.61,53.91L255.52,53.94"/><path d="M255.61,53.91L255.71,53.88L256.03,53.97L256.04,53.98L256.13,54.00L256.44,54.25L256.71,54.64L256.93,55.12L257.07,55.66L257.12,56.21L257.07,56.69L256.92,57.08L256.70,57.33L256.69,57.33L256.85,57.15L257.00,56.75L257.05,56.25L256.95,56.27"/><path d="M255.83,54.03L256.14,54.28L256.43,54.67L256.65,55.18L256.80,55.74L256.84,56.27"/><path d="M255.81,53.86L255.72,53.89"/><path d="M257.15,56.22L257.10,56.73L256.95,57.13L256.72,57.39L256.43,57.48L257.07,57.33L257.35,57.24L257.59,56.98L257.73,56.58L257.79,56.07"/><path d="M256.69,57.33L256.62,57.41L256.42,57.47L256.43,57.48"/><path d="M256.23,57.53L256.33,57.50L256.42,57.47"/><path d="M256.21,57.52L256.17,57.54"/><path d="M256.04,53.98L256.35,54.23L256.63,54.63L256.86,55.13L257.00,55.69L257.05,56.22L257.12,56.21"/><path d="M256.01,52.91L256.31,52.85L257.23,53.35L257.53,53.73L257.79,54.19L258.24,55.78L258.28,56.34L258.24,56.86L257.77,57.94L257.50,58.12"/><path d="M257.05,56.22L257.05,56.25"/></g><g style="stroke:#000000;stroke-width:0.529"><path d="M256.17,57.54L256.12,57.55L252.19,58.49L252.18,58.49L251.85,58.40L251.52,58.14L251.24,57.74L251.02,57.24L250.87,56.69L250.83,56.13L250.88,55.63L251.03,55.23L251.27,54.96L251.28,54.96L251.57,54.87L255.37,53.96"/><path d="M256.01,52.91L255.74,53.09L255.37,53.96"/><path d="M257.50,58.12L257.21,58.18L256.28,57.68L256.17,57.54"/></g></g><g id="Actor_2.3"><g style="stroke:#000000;stroke-width:0.176"><path d="M213.45,115.74L213.43,115.78"/><path d="M213.47,115.70L213.47,115.69"/><path d="M213.47,115.70L213.50,115.63L213.53,115.61L213.66,115.49L213.68,115.48L213.84,115.47L213.87,115.47L214.04,115.55L214.08,115.57L214.24,115.74L214.27,115.78L214.41,116.02L214.44,116.07L214.51,116.27L214.53,116.32L214.46,116.13"/><path d="M213.39,115.88L213.48,115.70L213.61,115.60L213.77,115.60L213.85,115.63L213.93,115.68L214.09,115.86L214.22,116.09L214.30,116.37L214.34,116.66L214.33,116.92L214.26,117.14L214.15,117.28L214.00,117.33L213.84,117.29L213.68,117.16"/><path d="M214.59,116.69L214.60,116.70L214.59,116.67L214.59,116.69"/><path d="M214.38,117.46L214.49,117.34L214.51,117.29L214.53,117.24L214.62,117.11L214.67,116.86L214.67,116.57L214.59,116.25L214.46,115.94L214.29,115.70L214.09,115.53L213.88,115.47L213.88,115.47"/><path d="M214.53,117.24L214.58,117.08L214.59,117.03L214.60,116.77L214.60,116.70"/><path d="M214.58,116.62L214.59,116.67L214.55,116.42L214.58,116.59L214.58,116.63L214.58,116.60"/><path d="M214.52,117.50L214.69,117.45L214.83,117.25L214.90,116.95L214.90,116.59L214.81,116.19L214.66,115.81L214.45,115.51L214.21,115.30L213.96,115.23"/><path d="M214.55,116.42L214.53,116.35L214.53,116.32"/><path d="M214.79,116.01L214.84,116.16L214.87,116.24L214.77,115.94L214.59,115.61L214.46,115.47L214.62,115.60L214.79,115.84L214.93,116.14L215.01,116.46L215.02,116.76L214.97,117.01L214.91,117.10L214.85,117.30L214.76,117.39"/><path d="M215.23,117.34L215.41,117.26L215.54,117.05L215.59,116.73L215.58,116.36L215.48,115.96L215.31,115.59L215.10,115.30L214.86,115.12L214.61,115.06L214.40,115.15L214.59,115.20L214.82,115.39L214.84,115.42L214.95,115.50L215.12,115.73L215.26,116.03L215.35,116.36L215.36,116.65L215.32,116.91L215.27,117.00L215.17,117.25L215.11,117.31"/><path d="M215.08,117.34L215.05,117.36L215.18,117.15L215.25,116.84L215.24,116.47L215.15,116.07L214.98,115.70L214.78,115.40L214.53,115.21L214.28,115.14"/><path d="M214.20,115.17L214.07,115.22"/><path d="M214.05,115.23L214.13,115.24L214.37,115.38L214.46,115.47"/><path d="M213.95,115.23L213.83,115.26"/><path d="M214.52,115.10L214.52,115.10"/><path d="M214.93,114.98L215.18,115.02L215.43,115.20L215.64,115.48L215.81,115.85L215.92,116.25L215.94,116.62L215.89,116.94L215.76,117.17L215.59,117.26"/><path d="M215.05,117.36L214.87,117.43"/><path d="M215.67,116.81L215.60,116.94L215.64,116.71L215.62,116.36L215.54,115.99L215.45,115.77L215.27,115.44L215.16,115.32L215.28,115.40L215.46,115.63L215.60,115.92L215.69,116.25L215.71,116.55L215.67,116.81"/><path d="M215.60,116.94L215.59,117.01L215.47,117.23L215.46,117.23"/><path d="M214.91,117.10L214.94,117.02L214.95,116.68L214.90,116.32L214.92,116.49"/><path d="M214.84,115.42L215.01,115.66L215.17,116.01L215.27,116.39L215.30,116.74L215.27,117.00"/><path d="M214.90,116.32L214.87,116.24"/><path d="M214.92,116.48L214.93,116.56"/><path d="M215.91,116.01L215.94,116.16L215.97,116.29L215.89,115.93L215.85,115.82L215.68,115.46L215.52,115.25L215.61,115.31L215.79,115.53L215.93,115.82L216.03,116.14L216.05,116.45L216.02,116.71L215.98,116.72"/><path d="M214.77,115.07L214.77,115.07L214.74,115.07L214.86,115.02"/><path d="M215.44,114.91L215.44,114.91L215.55,114.85"/><path d="M215.44,114.91L215.56,114.93L215.74,115.05L215.78,114.96"/><path d="M215.26,114.90L215.50,114.93L215.75,115.10L215.97,115.37L216.15,115.73L216.26,116.13L216.29,116.51L216.24,116.84L216.12,117.07L215.95,117.18"/><path d="M215.74,115.05L215.79,115.09L215.85,115.16L215.94,115.21L216.12,115.42L216.07,115.43"/><path d="M214.77,115.07L214.82,115.07L215.06,115.21L215.16,115.32"/><path d="M215.52,115.25L215.48,115.20L215.25,115.03L215.09,114.99"/><path d="M214.74,115.07L214.74,115.07"/><path d="M216.31,117.09L216.47,116.98L216.59,116.73L216.63,116.40L216.59,116.02L216.48,115.62L216.30,115.27L216.08,115.00L215.83,114.84L215.58,114.83"/><path d="M215.79,114.83L215.86,114.85L215.83,114.84"/><path d="M216.36,117.08L216.36,117.08"/><path d="M216.67,117.00L216.83,116.88L216.94,116.63L216.97,116.29L216.93,115.91L216.81,115.51L216.63,115.16L216.40,114.90L216.15,114.76L215.91,114.75"/><path d="M215.90,117.17L215.81,117.15L215.81,117.15L215.86,117.07L215.87,117.08"/><path d="M215.86,117.07L215.93,116.94L215.94,116.87L216.02,116.71L216.13,116.78"/><path d="M216.58,116.91L216.56,116.88L216.62,116.75L216.63,116.72L216.63,116.71L216.72,116.51L216.67,116.52"/><path d="M216.63,116.72L216.67,116.43L216.65,116.08L216.62,115.95L216.63,115.99L216.59,115.83L216.62,115.95"/><path d="M216.23,116.99L216.22,116.98L216.30,116.75L216.33,116.41L216.29,116.05L216.17,115.68L216.00,115.34L215.85,115.16"/><path d="M216.28,116.80L216.37,116.61L216.40,116.34L216.37,116.03L216.32,116.04"/><path d="M215.97,116.29L215.98,116.64L215.94,116.87"/><path d="M216.13,117.07L216.21,116.99L216.22,116.98"/><path d="M216.56,116.88L216.51,116.97L216.48,117.00"/><path d="M216.82,116.91L216.88,116.86L216.91,116.79L216.94,116.82"/><path d="M216.83,116.57L216.72,116.51L216.74,116.24L216.70,115.93L216.66,115.94"/><path d="M216.82,115.92L216.70,115.93L216.60,115.60L216.45,115.32L216.40,115.33"/><path d="M216.21,115.34L216.12,115.42L216.27,115.71L216.37,116.03L216.48,116.03"/><path d="M216.54,115.24L216.45,115.32L216.26,115.11L216.21,115.09L216.40,115.36L216.56,115.73L216.59,115.83"/><path d="M216.62,115.98L216.65,116.08"/><path d="M216.93,115.75L216.98,115.93L216.87,115.55L216.70,115.20L216.54,114.99L216.59,115.02L216.78,115.22L216.74,115.23"/><path d="M215.94,116.17L215.94,116.16L215.94,116.15"/><path d="M217.22,114.45L217.45,114.41L217.19,114.47L217.22,114.45L217.47,114.38L217.67,114.37L217.89,114.49L218.10,114.72L218.27,115.04L218.39,115.41L218.44,115.79L218.42,116.14L218.33,116.43L218.18,116.61L217.99,116.68L217.74,116.74L217.89,116.59L217.99,116.31L218.00,115.96L217.94,115.56L217.80,115.17L217.61,114.84L217.38,114.61L217.12,114.50L216.89,114.52L216.82,114.58L217.00,114.64L217.06,114.68L217.08,114.62"/><path d="M216.91,114.52L216.92,114.52L216.92,114.52"/><path d="M217.32,116.84L217.27,116.84L217.32,116.84L217.19,116.84L217.38,116.83L217.54,116.68L217.64,116.41L217.66,116.07L217.61,115.68L217.47,115.28L217.28,114.95L217.05,114.71L216.80,114.58L216.58,114.60L216.72,114.56L216.77,114.56L216.82,114.58"/><path d="M216.58,114.60L216.56,114.60L216.53,114.62"/><path d="M216.93,116.92L217.02,116.92L217.18,116.78L217.29,116.52L217.32,116.18L217.27,115.79L217.14,115.39L216.95,115.05L216.73,114.80L216.47,114.67L216.24,114.67"/><path d="M216.46,114.65L216.50,114.64"/><path d="M216.43,114.79L216.40,114.87L216.50,114.95L216.54,114.99"/><path d="M216.75,114.70L216.73,114.77L216.90,114.92L217.10,115.20L217.25,115.57L217.33,115.90L217.29,115.73L217.28,115.67"/><path d="M217.00,115.83L217.04,115.82L216.93,115.50L216.78,115.22L216.87,115.14"/><path d="M216.21,115.09L216.21,115.08L215.98,114.89L215.86,114.85"/><path d="M216.13,114.75L216.27,114.78L216.40,114.87"/><path d="M216.47,114.67L216.50,114.67L216.67,114.72L216.73,114.77"/><path d="M216.89,114.91L216.92,114.92L217.11,115.12L217.27,115.39L217.38,115.71L217.43,116.03L217.41,116.31L217.34,116.52L217.31,116.55L217.36,116.34L217.35,116.00L217.34,115.95L217.33,115.90"/><path d="M216.46,114.67L216.46,114.67"/><path d="M216.50,114.67L216.45,114.65"/><path d="M216.48,114.66L216.51,114.64"/><path d="M216.55,113.82L216.70,113.90L216.67,113.79"/><path d="M216.83,113.47L216.86,113.63L216.71,113.50"/><path d="M216.57,114.18L216.60,114.24L216.45,114.21"/><path d="M217.69,117.78L217.77,117.60L217.81,117.75"/><path d="M217.98,117.91L218.03,117.70L218.10,117.88"/><path d="M217.03,116.92L217.17,116.84L217.26,116.69L217.30,116.74"/><path d="M217.19,116.84L217.17,116.83"/><path d="M217.53,117.52L217.51,117.42L217.41,117.55"/><path d="M217.14,117.23L217.26,117.15L217.26,117.20"/><path d="M216.91,116.79L216.98,116.63L216.98,116.62L216.98,116.62L217.06,116.41L217.02,116.42"/><path d="M217.31,116.55L217.29,116.65L217.26,116.69"/><path d="M217.38,116.83L217.49,116.78L217.53,116.74L217.61,116.60L217.65,116.65"/><path d="M217.74,116.74L217.55,116.76L217.52,116.75"/><path d="M217.32,116.84L217.35,116.83"/><path d="M217.87,116.25L217.76,116.20L217.69,116.43L217.66,116.46L217.70,116.22L217.68,115.86L217.59,115.48L217.43,115.11L217.23,114.82L217.25,114.83L217.44,115.02L217.60,115.28L217.72,115.60L217.77,115.92L217.76,116.20L217.72,116.21"/><path d="M217.67,115.61L217.72,115.60L217.83,115.58"/><path d="M217.61,116.60L217.65,116.53L217.66,116.46"/><path d="M217.37,116.32L217.41,116.31L217.52,116.36"/><path d="M217.18,116.46L217.06,116.41L217.08,116.13L217.04,115.82L217.04,115.82L217.16,115.81"/><path d="M216.98,115.93L216.98,115.94L217.02,116.30L216.98,116.62"/><path d="M217.62,115.59L217.63,115.62L217.68,115.84"/><path d="M216.95,115.83L216.96,115.84"/><path d="M217.19,114.47L217.14,114.48L217.01,114.49"/><path d="M217.40,115.03L217.44,115.02L217.52,114.93"/><path d="M217.07,115.13L217.11,115.12L217.19,115.03"/><path d="M217.06,114.68L217.23,114.82"/><path d="M216.92,114.52L217.01,114.49"/><path d="M217.04,113.24L217.05,113.44L216.92,113.27"/><path d="M217.16,113.13L217.28,113.35L217.30,113.11L217.43,113.11L217.53,113.35L217.58,113.13L217.71,113.18L217.79,113.44L217.87,113.26L218.00,113.36L218.05,113.63L218.15,113.49L218.28,113.64L218.29,113.89L218.42,113.81L218.54,113.99L218.52,114.23L218.66,114.21L218.76,114.42L218.71,114.63L218.86,114.66L218.94,114.89L218.86,115.06L219.01,115.15L219.07,115.39L218.97,115.52L219.11,115.65L219.14,115.89L219.02,115.97L219.16,116.15L219.15,116.38L219.02,116.41L219.14,116.62L219.11,116.83L218.96,116.80L219.06,117.05L219.00,117.23L218.85,117.15L218.93,117.40L218.84,117.55L218.70,117.41L218.74,117.68L218.64,117.78L218.50,117.60L218.52,117.86L218.40,117.91"/><path d="M218.39,117.91L218.27,117.70L218.26,117.94"/></g><g style="stroke:#000000;stroke-width:0.529"><path d="M217.03,116.92L217.02,116.92L217.01,116.92L216.93,116.92L216.83,116.92L216.82,116.91L216.73,116.99L216.67,117.00L216.48,117.00L216.36,117.08L216.31,117.09L216.13,117.07L216.07,117.14L215.95,117.18L215.81,117.15L215.65,117.25L215.59,117.26L215.46,117.23L215.31,117.33L215.23,117.34L215.11,117.31L215.03,117.39L214.87,117.43L214.76,117.39L214.71,117.46L214.67,117.47L214.64,117.48L214.52,117.50L214.51,117.51L214.38,117.46L214.37,117.46L214.34,117.48L214.19,117.51L214.15,117.51L213.99,117.44L213.95,117.40L213.68,117.16L213.54,116.95L213.43,116.69L213.36,116.40L213.35,116.12L213.39,115.88L213.43,115.78L213.47,115.70L213.47,115.69L213.56,115.49L213.74,115.29L213.83,115.26L213.91,115.23L213.95,115.23L213.96,115.23L214.05,115.23L214.07,115.22L214.14,115.19L214.20,115.17L214.28,115.14L214.35,115.13L214.40,115.15L214.52,115.10L214.59,115.06L214.61,115.06L214.74,115.07L214.80,115.04L214.86,115.02L214.93,114.98L215.01,114.97L215.09,114.99L215.26,114.90L215.32,114.89L215.44,114.91L215.52,114.86L215.55,114.85L215.58,114.83L215.74,114.81L215.79,114.83L215.91,114.75L216.03,114.73L216.13,114.75L216.24,114.67L216.42,114.64L216.45,114.65"/><path d="M216.53,114.62L216.51,114.64"/><path d="M216.53,114.62L216.42,114.42L216.45,114.21"/><path d="M216.55,113.82L216.50,114.00L216.57,114.18"/><path d="M216.71,113.50L216.63,113.64L216.67,113.79"/><path d="M216.92,113.27L216.81,113.37L216.83,113.47"/><path d="M217.81,117.75L217.84,117.86L217.98,117.91"/><path d="M217.69,117.78L217.55,117.68L217.53,117.52"/><path d="M217.41,117.55L217.28,117.41L217.26,117.20"/><path d="M217.14,117.23L217.02,117.05L217.03,116.92"/><path d="M217.16,113.13L217.04,113.19L217.04,113.24"/><path d="M218.10,117.88L218.13,117.94L218.26,117.94"/><path d="M218.40,117.91L218.39,117.91"/></g></g><g id="Actor_2.4"><g style="stroke:#000000;stroke-width:0.176"><path d="M213.63,71.66L213.72,71.48L213.85,71.38L214.00,71.38L214.09,71.41L214.17,71.46L214.32,71.64L214.45,71.87L214.54,72.15L214.58,72.44L214.56,72.70L214.49,72.92L214.38,73.06L214.24,73.11L214.08,73.07L213.92,72.93"/><path d="M214.61,73.24L214.72,73.12L214.74,73.07L214.76,73.02L214.85,72.89L214.91,72.64L214.90,72.35L214.83,72.03L214.70,71.72L214.53,71.48L214.33,71.31L214.12,71.25L214.11,71.25L214.28,71.33L214.31,71.35L214.48,71.52L214.51,71.56L214.65,71.80L214.67,71.85L214.77,72.13L214.79,72.19L214.83,72.48L214.83,72.54L214.82,72.81L214.81,72.86L214.76,73.02"/><path d="M213.68,71.52L213.66,71.56"/><path d="M213.70,71.47L213.70,71.48"/><path d="M214.19,71.01L214.44,71.08L214.69,71.29L214.89,71.59L215.05,71.97L215.13,72.37L215.14,72.73L215.06,73.03L214.93,73.23L214.76,73.28"/><path d="M213.70,71.48L213.74,71.41L213.76,71.38L213.89,71.27L213.91,71.26L214.08,71.25L214.10,71.25L214.11,71.25"/><path d="M215.00,73.17L215.08,73.08L215.14,72.88L215.20,72.79L215.25,72.54L215.24,72.24L215.16,71.92L215.03,71.61L214.86,71.38L214.69,71.25L214.61,71.16L214.37,71.02L214.29,71.01"/><path d="M214.52,70.92L214.77,70.99L215.01,71.18L215.22,71.48L215.38,71.85L215.47,72.25L215.48,72.62L215.42,72.93L215.28,73.14L215.31,73.12"/><path d="M214.18,71.01L214.06,71.04"/><path d="M215.46,73.12L215.64,73.04L215.77,72.83L215.83,72.51L215.81,72.14L215.71,71.74L215.55,71.37L215.34,71.08L215.09,70.89L214.84,70.84L214.63,70.93L214.82,70.98L215.05,71.17L215.07,71.20L215.18,71.28L215.36,71.51L215.50,71.81L215.58,72.14L215.60,72.43L215.55,72.69L215.50,72.78L215.53,72.52L215.50,72.17L215.41,71.79L215.25,71.44L215.07,71.20"/><path d="M214.30,71.00L214.43,70.95"/><path d="M215.15,72.27L215.15,72.26L215.16,72.34L215.15,72.22L215.15,72.26L215.15,72.26"/><path d="M215.16,72.34L215.18,72.46L215.17,72.80L215.14,72.88"/><path d="M214.82,72.41L214.81,72.38L214.82,72.41"/><path d="M215.28,73.14L215.10,73.21"/><path d="M215.50,72.78L215.41,73.03L215.34,73.09"/><path d="M214.83,72.48L214.82,72.39"/><path d="M214.81,72.38L214.79,72.19"/><path d="M215.15,72.22L215.13,72.10L215.15,72.22"/><path d="M215.83,72.72L215.87,72.49L215.86,72.14L215.77,71.77L215.69,71.55L215.50,71.22L215.39,71.10L215.51,71.18L215.69,71.41L215.83,71.70L215.92,72.03L215.94,72.33L215.90,72.59L215.83,72.72L215.82,72.79L215.70,73.01L215.70,73.01"/><path d="M215.10,72.02L215.08,71.94L215.02,71.79L215.13,72.10"/><path d="M215.02,71.79L215.00,71.72L214.82,71.39L214.69,71.25"/><path d="M215.82,73.04L216.00,72.95L216.12,72.72L216.17,72.40L216.15,72.03L216.05,71.63L215.88,71.26L215.66,70.98L215.41,70.80L215.17,70.76"/><path d="M214.69,71.91L214.74,72.05L214.76,72.10"/><path d="M215.39,71.10L215.29,70.99L215.06,70.85L214.98,70.85L215.09,70.80"/><path d="M214.98,70.85L214.97,70.85"/><path d="M215.49,70.68L215.74,70.71L215.99,70.88L216.20,71.15L216.38,71.51L216.49,71.91L216.52,72.29L216.47,72.62L216.35,72.85L216.18,72.96"/><path d="M215.78,70.63L215.67,70.69L215.67,70.69"/><path d="M215.33,70.77L215.49,70.81L215.72,70.98L215.91,71.24L216.08,71.60L216.12,71.71L216.20,72.07L216.22,72.42L216.17,72.65L216.25,72.49L216.21,72.50"/><path d="M215.75,71.03L215.84,71.09L216.02,71.31L216.17,71.60L216.26,71.92L216.29,72.23L216.25,72.49L216.36,72.56"/><path d="M214.75,70.88L214.76,70.88"/><path d="M215.67,70.69L215.79,70.71L215.97,70.83L216.01,70.74"/><path d="M216.59,72.86L216.59,72.86"/><path d="M216.13,72.95L216.04,72.93L216.04,72.93L216.09,72.84L216.10,72.86"/><path d="M216.54,72.87L216.71,72.76L216.82,72.51L216.86,72.18L216.83,71.80L216.71,71.40L216.53,71.04L216.31,70.78L216.06,70.62L215.82,70.61"/><path d="M216.14,70.53L216.38,70.54L216.64,70.68L216.86,70.94L217.04,71.29L217.17,71.69L217.21,72.07L217.17,72.41L217.06,72.66L216.90,72.78"/><path d="M216.91,72.30L216.95,72.29L216.87,72.49L216.86,72.49L216.91,72.21L216.88,71.86L216.82,71.61L216.85,71.73L216.86,71.77L216.85,71.73"/><path d="M216.86,72.49L216.86,72.53L216.79,72.66L216.82,72.69"/><path d="M216.79,72.66L216.75,72.75L216.71,72.77"/><path d="M216.46,72.77L216.45,72.76L216.51,72.59L216.52,72.58L216.60,72.39L216.63,72.12L216.60,71.81L216.56,71.82"/><path d="M216.45,72.76L216.44,72.77L216.37,72.85"/><path d="M216.52,72.58L216.54,72.53L216.56,72.19L216.52,71.83L216.41,71.46L216.23,71.12L216.09,70.94L216.17,70.99L216.35,71.20L216.31,71.21"/><path d="M216.09,72.84L216.16,72.72L216.17,72.65"/><path d="M216.14,71.79L216.17,71.94L216.20,72.07"/><path d="M216.89,71.72L216.94,71.71L216.97,72.02L216.95,72.29L217.06,72.35"/><path d="M216.64,71.11L216.68,71.10L216.50,70.89L216.45,70.87L216.64,71.14L216.80,71.51L216.82,71.61"/><path d="M216.71,71.81L216.60,71.81L216.50,71.49L216.35,71.21L216.35,71.20L216.44,71.12"/><path d="M217.05,71.70L216.94,71.71L216.83,71.38L216.68,71.10L216.77,71.02"/><path d="M216.17,71.93L216.17,71.94L216.17,71.95"/><path d="M216.86,71.76L216.88,71.86"/><path d="M217.16,72.70L217.26,72.70L217.42,72.56L217.52,72.30L217.55,71.96L217.50,71.57L217.37,71.17L217.19,70.83L216.96,70.58L216.71,70.45L216.47,70.45"/><path d="M217.55,72.62L217.51,72.62L217.55,72.62L217.42,72.62L217.62,72.61L217.77,72.46L217.87,72.19L217.89,71.85L217.84,71.46L217.70,71.06L217.51,70.73L217.28,70.49L217.03,70.36L216.80,70.38L216.76,70.40"/><path d="M216.81,70.38L216.96,70.34L217.00,70.34L217.24,70.41L217.29,70.46L217.31,70.40"/><path d="M216.68,69.99L216.83,70.02L216.81,69.96"/><path d="M216.69,70.43L216.74,70.42"/><path d="M216.97,71.01L217.01,71.00L216.83,70.80L216.77,70.77L216.93,70.98L217.11,71.33L217.22,71.71L217.17,71.53"/><path d="M216.45,70.87L216.44,70.86L216.21,70.67L216.10,70.63L216.06,70.62"/><path d="M216.66,70.57L216.63,70.65L216.74,70.73L216.77,70.77"/><path d="M215.97,70.83L216.03,70.87L216.09,70.94"/><path d="M216.63,70.65L216.50,70.55L216.36,70.53"/><path d="M216.71,70.45L216.73,70.45L216.90,70.50L216.96,70.55L216.99,70.48"/><path d="M216.10,70.63L216.02,70.60"/><path d="M216.73,70.45L216.71,70.44L216.74,70.42"/><path d="M216.71,70.44L216.69,70.43"/><path d="M216.91,69.57L216.94,69.68L216.79,69.60"/><path d="M217.92,73.56L218.00,73.38L218.04,73.53"/><path d="M217.62,72.61L217.72,72.56L217.76,72.52L217.84,72.38L217.89,72.43"/><path d="M217.42,72.62L217.41,72.61L217.50,72.47L217.53,72.51"/><path d="M217.06,70.36L217.13,70.30L217.36,70.28L217.61,70.39L217.84,70.62L218.04,70.95L218.18,71.34L218.24,71.74L218.22,72.09L218.13,72.37L217.97,72.52L217.78,72.54L217.76,72.53"/><path d="M217.50,72.98L217.49,72.93L217.37,73.01"/><path d="M217.10,70.92L217.01,71.00L217.17,71.28L217.28,71.60L217.32,71.91L217.30,72.19L217.22,72.40L217.21,72.40L217.25,72.08L217.22,71.72L217.22,71.71"/><path d="M217.95,71.99L217.99,71.98L217.92,72.21L217.89,72.24L217.94,72.00L217.92,71.64L217.83,71.26L217.67,70.89L217.47,70.60L217.48,70.61L217.67,70.80L217.83,71.06L217.95,71.38L217.91,71.39"/><path d="M217.56,71.68L217.58,71.73L217.58,71.77L217.59,72.12L217.55,72.33L217.57,72.30L217.65,72.09L217.66,71.80L217.61,71.49L217.50,71.17L217.34,70.90L217.15,70.70L217.13,70.69L217.13,70.69L217.33,70.98L217.49,71.35L217.56,71.68L217.53,71.51L217.51,71.45"/><path d="M217.50,72.47L217.53,72.43L217.55,72.33"/><path d="M217.17,72.60L217.14,72.57L217.21,72.41L217.21,72.40"/><path d="M217.26,72.20L217.30,72.19L217.41,72.24"/><path d="M217.14,72.57L217.11,72.64L217.05,72.69"/><path d="M217.84,72.38L217.88,72.31L217.89,72.24"/><path d="M217.41,72.61L217.40,72.62L217.26,72.69"/><path d="M217.97,72.52L218.22,72.46L218.41,72.39L218.56,72.21L218.65,71.92L218.67,71.57L218.62,71.18L218.50,70.82L218.33,70.50L218.13,70.27L217.91,70.15L217.70,70.16L217.45,70.23L217.68,70.19L217.38,70.26L217.25,70.27L217.15,70.30"/><path d="M217.58,72.61L217.55,72.62"/><path d="M217.64,73.33L217.74,73.20L217.76,73.30"/><path d="M217.39,71.59L217.28,71.60L217.23,71.61"/><path d="M218.11,72.03L217.99,71.98L218.00,71.70L217.95,71.38L218.06,71.36"/><path d="M217.60,72.10L217.65,72.09L217.76,72.14"/><path d="M217.85,71.37L217.86,71.40L217.91,71.62"/><path d="M217.19,71.61L217.19,71.62"/><path d="M217.45,70.23L217.43,70.25"/><path d="M217.76,70.71L217.67,70.80L217.63,70.81"/><path d="M217.47,70.60L217.29,70.46"/><path d="M217.13,70.69L216.96,70.55"/><path d="M217.43,70.81L217.34,70.90L217.30,70.91"/><path d="M217.13,70.30L217.16,70.30"/><path d="M216.95,69.28L217.09,69.41L217.07,69.25"/><path d="M218.63,73.69L218.75,73.64L218.74,73.38L218.87,73.56L218.98,73.46L218.93,73.19L219.08,73.33L219.16,73.18L219.09,72.92L219.24,73.01L219.29,72.83L219.19,72.58L219.34,72.61L219.37,72.40L219.25,72.19L219.39,72.16L219.39,71.93L219.25,71.75L219.38,71.67L219.35,71.43L219.20,71.30L219.30,71.17L219.25,70.92L219.10,70.84L219.17,70.67L219.09,70.44L218.95,70.41L218.99,70.19L218.89,69.99L218.75,70.01L218.77,69.77L218.65,69.59L218.53,69.67L218.51,69.42L218.38,69.27L218.28,69.41L218.24,69.14L218.10,69.04L218.02,69.22L217.95,68.96L217.81,68.91L217.76,69.13L217.66,68.89L217.53,68.89L217.51,69.13L217.39,68.91"/><path d="M217.28,69.02L217.29,69.22L217.15,69.05"/><path d="M218.49,73.72L218.51,73.48L218.63,73.69"/><path d="M218.21,73.69L218.26,73.48L218.34,73.66"/></g><g style="stroke:#000000;stroke-width:0.529"><path d="M217.26,72.69L217.26,72.70L217.24,72.70L217.16,72.70L217.06,72.70L217.05,72.69L216.96,72.77L216.90,72.78L216.71,72.77L216.59,72.86L216.54,72.87L216.37,72.85L216.30,72.92L216.18,72.96L216.04,72.93L215.88,73.03L215.82,73.04L215.70,73.01L215.55,73.11L215.46,73.12L215.34,73.09L215.26,73.17L215.10,73.21L215.00,73.17L214.94,73.24L214.91,73.25L214.88,73.26L214.76,73.28L214.74,73.29L214.61,73.24L214.61,73.24L214.57,73.26L214.43,73.29L214.39,73.29L214.23,73.22L214.18,73.18L213.92,72.93L213.77,72.73L213.66,72.47L213.60,72.18L213.59,71.90L213.63,71.66L213.66,71.56L213.70,71.48L213.70,71.47L213.79,71.27L213.97,71.07L214.06,71.04"/><path d="M214.06,71.04L214.14,71.01L214.18,71.01L214.19,71.01L214.29,71.01L214.30,71.00L214.38,70.97L214.43,70.95L214.52,70.92L214.59,70.91L214.63,70.93L214.76,70.88L214.82,70.84L214.84,70.84L214.97,70.85L215.04,70.82L215.09,70.80L215.17,70.76L215.24,70.75L215.33,70.77L215.49,70.68L215.55,70.67L215.67,70.69L215.75,70.64L215.78,70.63L215.82,70.61L215.97,70.59L216.02,70.60L216.14,70.53L216.26,70.51L216.36,70.53L216.47,70.45L216.66,70.42L216.69,70.43"/><path d="M216.76,70.40L216.74,70.42"/><path d="M216.68,69.99L216.65,70.20L216.76,70.40"/><path d="M216.79,69.60L216.73,69.78L216.81,69.96"/><path d="M216.95,69.28L216.86,69.42L216.91,69.57"/><path d="M217.76,73.30L217.79,73.46L217.92,73.56"/><path d="M217.50,72.98L217.51,73.19L217.64,73.33"/><path d="M217.26,72.69L217.25,72.83L217.37,73.01"/><path d="M217.15,69.05L217.05,69.15L217.07,69.25"/><path d="M217.39,68.91L217.27,68.97L217.28,69.02"/><path d="M218.63,73.69L218.63,73.69"/><path d="M218.49,73.72L218.36,73.72L218.34,73.66"/><path d="M218.04,73.53L218.07,73.64L218.21,73.69"/></g></g><g id="Actor_2.5"><g style="stroke:#000000;stroke-width:0.176"><path d="M250.30,156.36L250.36,155.86L250.50,155.47L250.73,155.22L251.01,155.13L251.32,155.22L251.63,155.47L251.91,155.86L252.13,156.35L252.27,156.90L252.32,157.44L252.27,157.94L252.12,158.33L251.90,158.58L251.62,158.67L251.30,158.58L250.99,158.33L250.71,157.94L250.49,157.45L250.35,156.90L250.30,156.36L250.30,156.35L250.30,156.35"/><path d="M251.31,158.01L251.10,157.84L250.92,157.59L250.77,157.26L250.68,156.90L250.65,156.54L250.68,156.22L250.78,155.96L250.93,155.80L251.11,155.74L251.32,155.80L251.52,155.96L251.55,156.00L251.50,155.96L251.34,155.92L251.19,155.96L251.07,156.10L250.99,156.30L250.96,156.57L250.99,156.86L251.06,157.15L251.18,157.41L251.33,157.62L251.49,157.75L251.66,157.80L251.81,157.75L251.93,157.62L251.84,157.84L251.70,158.01L251.51,158.06L251.31,158.01"/><path d="M250.65,156.54L250.96,156.57L251.78,156.37"/><path d="M252.32,157.44L252.34,157.45L252.35,157.45L252.38,157.45L252.33,156.89L252.19,156.33L251.96,155.83L251.67,155.43L251.39,155.20L251.36,155.17L251.04,155.08"/><path d="M251.66,158.70L251.95,158.61L252.18,158.35L252.32,157.95L252.38,157.45L256.32,156.51L256.31,156.49L256.38,156.47L256.34,155.93L256.24,155.56L256.20,155.39L255.98,154.90L255.70,154.51L255.40,154.27L255.30,154.24L255.29,154.23L254.98,154.15L254.84,154.18"/><path d="M251.93,157.62L251.94,157.58L251.97,157.26L251.94,156.90L251.85,156.54L251.71,156.22L251.55,156.00"/><path d="M256.62,156.44L257.26,156.29L257.21,155.73L257.17,155.56L257.07,155.17L256.84,154.67L256.55,154.27L256.24,154.01L255.92,153.92L255.28,154.07L255.60,154.16L255.92,154.42L256.21,154.82L256.43,155.32L256.58,155.88L256.62,156.44L256.57,156.94L256.42,157.34L256.19,157.60L255.90,157.69L255.89,157.69L256.09,157.63L256.16,157.55L256.17,157.54L256.39,157.30L256.54,156.91L256.59,156.42L256.54,155.88L256.40,155.34L256.34,155.19L256.18,154.85L255.91,154.47L255.60,154.22L255.51,154.19L255.50,154.19L255.18,154.10L255.08,154.12L255.40,154.21L255.71,154.47L255.81,154.60L256.00,154.87L256.23,155.37L256.37,155.93L256.42,156.49L256.38,156.82L256.37,156.99L256.22,157.39L255.99,157.65L255.70,157.74L255.68,157.74L255.88,157.68L255.95,157.60L255.97,157.59L256.19,157.34L256.33,156.96L256.38,156.47"/><path d="M255.70,157.74L255.80,157.72L255.89,157.69"/><path d="M255.64,157.75L255.68,157.74"/><path d="M255.30,154.24L255.61,154.49L255.90,154.89L256.12,155.39L256.27,155.95L256.31,156.49"/><path d="M256.59,156.42L256.52,156.44L256.47,155.90L256.33,155.34L256.10,154.84L255.82,154.44L255.51,154.19"/><path d="M255.08,154.12L254.99,154.15"/><path d="M255.28,154.07L255.19,154.10"/><path d="M255.48,153.13L255.78,153.07L256.70,153.57L257.00,153.94L257.26,154.40L257.71,155.99L257.75,156.55L257.71,157.07L257.24,158.16L256.97,158.34"/><path d="M257.26,156.29L257.20,156.79L257.06,157.19L256.83,157.45L256.54,157.54L255.90,157.69"/><path d="M255.95,157.60L256.11,157.42L256.26,157.02L256.32,156.51"/><path d="M256.42,156.49L256.52,156.46L256.47,156.97L256.32,157.37L256.16,157.55"/><path d="M256.52,156.44L256.52,156.46"/></g><g style="stroke:#000000;stroke-width:0.529"><path d="M254.84,154.18L251.04,155.08L250.75,155.17L250.74,155.18L250.50,155.44L250.35,155.85L250.30,156.35L250.34,156.90L250.49,157.46L250.71,157.96L250.99,158.35L251.32,158.61L251.65,158.70L251.66,158.70L255.60,157.77L255.64,157.75"/><path d="M255.64,157.75L255.75,157.90L256.68,158.40L256.97,158.34"/><path d="M254.84,154.18L255.22,153.30L255.48,153.13"/></g></g><g id="Actor_2.6"><g style="stroke:#000000;stroke-width:0.176"><path d="M250.21,173.48L250.21,173.49L250.21,173.49L250.26,174.04L250.40,174.59L250.62,175.08L250.90,175.47L251.21,175.72L251.39,175.77L251.53,175.81L251.81,175.72L252.03,175.47L252.18,175.07L252.23,174.58L252.18,174.03L252.04,173.49L251.82,172.99L251.54,172.60L251.23,172.35L250.92,172.27L250.64,172.35L250.41,172.61L250.27,173.00L250.21,173.49"/><path d="M250.83,174.72L251.01,174.98L251.22,175.14L251.42,175.20L251.61,175.14L251.75,174.97L251.85,174.72L251.88,174.39L251.85,174.03L251.76,173.68L251.72,173.59L251.62,173.35L251.43,173.10L251.23,172.93L251.02,172.87L250.84,172.93L250.69,173.10L250.59,173.36L250.56,173.68L250.59,174.04L250.68,174.40L250.83,174.72"/><path d="M251.83,174.76L251.72,174.89L251.57,174.93L251.40,174.89L251.24,174.75L251.09,174.55L250.97,174.28L250.90,173.99L250.87,173.70L250.56,173.68"/><path d="M251.69,173.51L250.87,173.70L250.90,173.44L250.98,173.23L251.10,173.10L251.25,173.05L251.41,173.10L251.46,173.13"/><path d="M252.23,174.58L252.24,174.58L252.26,174.59L252.29,174.58L252.24,174.02L252.10,173.47L251.87,172.96L251.58,172.56L251.27,172.31L250.95,172.22"/><path d="M255.55,174.89L255.79,174.81L255.86,174.73L255.88,174.73L256.10,174.48L256.24,174.09L256.29,173.60L256.22,173.62L256.23,173.65L252.29,174.58L252.23,175.09L252.09,175.49L251.86,175.75L251.57,175.84"/><path d="M256.43,173.57L256.43,173.60L256.33,173.62L256.27,174.13L256.13,174.53L255.90,174.79L255.61,174.88L255.71,174.85L256.00,174.76L256.07,174.68L256.08,174.68L256.30,174.43L256.45,174.04L256.50,173.56L256.45,173.01L256.31,172.47L256.09,171.99L255.82,171.60L255.51,171.35L255.42,171.33L255.73,171.58L256.01,171.98L256.24,172.48L256.38,173.04L256.43,173.57L256.50,173.56"/><path d="M255.84,174.82L255.81,174.83L256.45,174.68L256.73,174.59L256.96,174.33L257.11,173.93L257.17,173.42L256.53,173.57L256.48,174.08L256.33,174.48L256.10,174.74L255.84,174.82"/><path d="M255.80,174.82L255.81,174.83"/><path d="M255.61,174.88L255.59,174.87"/><path d="M256.33,173.62L256.28,173.06L256.14,172.50L255.91,172.00L255.62,171.60L255.41,171.43L255.31,171.34L254.99,171.26L255.09,171.23L255.10,171.24L255.19,171.21L255.51,171.30L255.83,171.55L256.11,171.95L256.34,172.46L256.48,173.01L256.53,173.57"/><path d="M256.29,173.60L256.25,173.06L256.11,172.52L255.89,172.04L255.61,171.65L255.31,171.40L255.21,171.38L255.52,171.63L255.81,172.02L256.03,172.53L256.18,173.09L256.22,173.62"/><path d="M255.21,171.38L255.20,171.37L254.90,171.29L254.99,171.26"/><path d="M255.10,171.24L255.41,171.32L255.42,171.33"/><path d="M257.17,173.42L257.12,172.86L256.98,172.30L256.75,171.80L256.46,171.40L256.14,171.15L255.83,171.06L255.19,171.21"/><path d="M254.90,171.29L254.88,171.28L254.75,171.31"/><path d="M255.39,170.26L255.69,170.20L256.61,170.70L256.91,171.08L257.17,171.54L257.62,173.13L257.65,173.69L257.62,174.21L257.15,175.29L256.88,175.47"/><path d="M256.07,174.68L256.23,174.50L256.38,174.10L256.43,173.60"/><path d="M256.23,173.65L256.17,174.15L256.02,174.55L255.86,174.73"/></g><g style="stroke:#000000;stroke-width:0.529"><path d="M254.75,171.31L250.95,172.22L250.66,172.31L250.65,172.31L250.41,172.58L250.26,172.98L250.21,173.48L250.25,174.04L250.40,174.59L250.62,175.09L250.90,175.49L251.23,175.75L251.56,175.84L251.57,175.84L255.50,174.90L255.55,174.89"/><path d="M256.88,175.47L256.59,175.53L255.66,175.03L255.55,174.89"/><path d="M255.39,170.26L255.12,170.44L254.75,171.31"/></g></g><g id="Actor_.0"><g style="stroke:#000000;stroke-width:0.176"><path d="M197.73,56.41L188.91,58.51L188.45,58.65L188.00,58.84L187.56,59.08L187.15,59.38L186.75,59.72L186.39,60.11L186.05,60.53L185.76,60.97L185.49,61.48L185.27,61.99L185.10,62.52L184.97,63.06L184.89,63.61L184.85,64.16L184.87,64.71L184.11,64.47"/><path d="M188.42,113.28L184.87,64.71L186.23,64.59L186.22,64.14L186.25,63.68L186.33,63.22L186.44,62.77L186.60,62.33L186.80,61.92L187.03,61.52L187.30,61.15L187.59,60.82L187.91,60.52L188.26,60.26L188.62,60.05L188.99,59.89L189.38,59.77L188.91,58.51L188.15,58.27"/><path d="M189.79,113.16L186.23,64.59L186.83,64.24"/><path d="M188.29,113.07L188.14,110.99L188.10,110.57L188.04,110.15L187.96,109.74L187.85,109.32L187.73,108.91L187.67,109.26L187.62,109.63L187.60,110.01L187.60,110.41L187.62,110.82L187.78,113.09"/><path d="M187.62,110.82L187.75,110.80L187.90,110.78L188.12,110.79"/><path d="M189.08,113.13L188.91,110.85L188.76,110.86L188.64,110.89L188.54,110.93L188.48,110.97L188.47,111.00L188.46,110.59L188.48,110.18L188.51,110.00L188.55,109.77L188.65,109.36L188.79,108.97L188.91,110.85L189.06,110.84L189.19,110.85L189.30,110.86L189.38,110.89L189.41,110.92L189.58,113.20"/><path d="M188.63,113.28L188.47,111.00"/><path d="M188.79,108.97L188.99,109.33L189.15,109.72L189.27,110.11L189.36,110.51L189.41,110.92"/><path d="M189.08,60.79L189.38,59.77L198.19,57.67"/><path d="M189.87,112.93L189.70,110.64L189.84,110.62L189.99,110.61L190.13,110.61L190.09,110.20L190.04,109.81L189.97,109.43L189.88,109.07L189.78,108.74L189.73,109.16L189.70,109.58L189.69,110.01L189.70,110.64"/><path d="M190.30,112.88L190.13,110.61"/><path d="M196.01,59.00L195.65,59.07L195.31,59.11L194.98,59.12L194.67,59.11L194.38,59.06L194.74,58.85L195.11,58.67L195.48,58.51L195.86,58.39L195.84,58.47L195.85,58.61L195.88,58.76L195.93,58.89L196.01,59.00L197.96,58.54"/><path d="M194.55,57.89L194.30,57.91L194.68,57.99L195.07,58.03L195.45,58.04L195.82,58.01L196.08,57.96L196.03,57.95L195.95,57.89L195.87,57.79L195.81,57.66L195.13,57.80L194.55,57.89"/><path d="M194.30,57.91L194.57,57.68L194.86,57.47L195.18,57.30L195.51,57.17L195.86,57.06L195.81,57.13L195.77,57.24L195.76,57.37L195.77,57.52L195.81,57.66L197.78,57.19"/><path d="M194.48,56.85L194.18,56.95L193.92,57.06L193.68,57.16L194.52,57.06L195.21,56.93L195.17,56.82L195.15,56.67L194.80,56.76L194.48,56.85"/><path d="M195.15,56.67L197.10,56.21"/><path d="M195.21,56.93L195.68,56.83L197.18,56.48"/><path d="M195.86,58.39L196.21,58.29L197.82,57.91"/><path d="M196.08,57.96L198.06,57.49"/><path d="M195.86,57.06L197.82,56.60"/></g><g style="stroke:#000000;stroke-width:0.529"><path d="M184.65,71.88L184.11,64.47L184.09,63.93L184.13,63.38L184.21,62.83L184.34,62.29L184.51,61.76L184.73,61.24L184.99,60.76L185.29,60.30L185.63,59.87L185.99,59.49L186.39,59.14L186.81,58.85L187.24,58.60L187.69,58.41L188.15,58.27L196.97,56.17L197.10,56.21L197.18,56.48L197.63,56.37L197.73,56.41L197.82,56.60L197.74,56.74L197.72,56.88L197.74,57.04L197.78,57.19L197.84,57.33L197.93,57.43L198.02,57.49L198.06,57.49L198.14,57.47L198.19,57.67L198.16,57.82L197.82,57.91L197.81,58.01L197.82,58.17L197.86,58.33L197.96,58.54L197.90,58.70L189.08,60.79L188.76,60.90L188.45,61.04L188.16,61.24L187.88,61.47L187.63,61.74L187.40,62.05L187.21,62.38L187.06,62.73L186.94,63.10L186.86,63.48L186.83,63.86L186.83,64.24L190.39,112.81L190.30,112.88L190.05,112.90L189.87,112.93L189.88,113.12L189.79,113.16L189.58,113.20L189.49,113.16L189.38,113.14L189.24,113.13L189.08,113.13L188.92,113.15L188.78,113.19L188.69,113.23L188.63,113.28L188.42,113.28L188.31,113.26L188.29,113.07L188.19,113.07L188.03,113.07L187.87,113.09L187.78,113.09L187.67,113.04L184.65,71.88"/></g></g><g/><g><g/><g><path style="fill:#ffffff" d="M31.40,15.34L80.47,15.34L80.47,26.63L31.40,26.63z"/><text xml:space="preserve" fill="#000000" stroke-width="0" x="32.81" y="23.10" font-size="6.88" opacity="1.00" font-family="MS Shell Dlg">0010-ASM-001</text></g></g><g><g/><g><path style="fill:#ffffff" d="M6.53,180.00L136.05,180.00L136.05,199.05L6.53,199.05z"/><text xml:space="preserve" fill="#000000" stroke-width="0" x="7.59" y="185.82" font-size="5.18" opacity="1.00" font-family="MS Shell Dlg">a) Insert Door latch head in the slot so that the head will</text><text xml:space="preserve" fill="#000000" stroke-width="0" x="7.59" y="191.11" font-size="5.17" opacity="1.00" font-family="MS Shell Dlg">protrude from the Door internal catcher.</text><text xml:space="preserve" fill="#000000" stroke-width="0" x="7.59" y="196.40" font-size="5.17" opacity="1.00" font-family="MS Shell Dlg">b) Tighten the head to the catcher</text></g></g><g><g/><g><path style="fill:#ffffff" d="M168.00,180.00L286.84,180.00L286.84,193.76L168.00,193.76z"/><text xml:space="preserve" fill="#000000" stroke-width="0" x="169.06" y="185.82" font-size="5.18" opacity="1.00" font-family="MS Shell Dlg">a)   </text><text xml:space="preserve" fill="#000000" stroke-width="0" x="169.06" y="191.11" font-size="5.16" opacity="1.00" font-family="MS Shell Dlg">b) </text></g></g><g><g/><g><image x="82.357201" y="12.409999" height="15.000001" width="15.000001" xlink:href="8_files/b53c90875beec45a_image_0.jpg"/></g></g><g><g/><g><image x="14.945761" y="13.167144" height="15.000001" width="15.000001" xlink:href="8_files/b53c90875beec45a_image_1.jpg"/></g></g><g id="paperID" visibility="hidden" opacity="0.00" transform="scale(0.000100)"><path style="stroke:#000000;stroke-width:0.500;fill:#e6e6e6;fill-rule:evenodd" d="M-2000.00,-2000.00L2297.00,-2000.00L2297.00,2210.00L-2000.00,2210.00zM0.00,0.00L297.00,0.00L297.00,210.00L0.00,210.00z"/><path style="fill:#000000;fill-opacity:0.118" d="M3.00,210.00L297.00,210.00L297.00,3.00L300.00,3.00L300.00,213.00L3.00,213.00z"/></g><g id="hotspot.0" ident="" onmouseover="ShowHotSpot(evt,&apos;0&apos;)" onmouseout="HideHotSpot(evt,&apos;0&apos;)" onmousemove="ShowToolTip(evt,&apos;0&apos;,&quot;Copy 1 of Copy 1 of  6&quot;)" opacity="0"><a xlink:href="9.svg"><path style="fill:#00ff00;fill-rule:evenodd" d="M97.22,27.07L82.40,27.07L82.40,12.25L97.22,12.25z"/></a></g><g id="hotspot.1" ident="" onmouseover="ShowHotSpot(evt,&apos;1&apos;)" onmouseout="HideHotSpot(evt,&apos;1&apos;)" onmousemove="ShowToolTip(evt,&apos;1&apos;,&quot;Copy 1 of Copy 1 of Copy 1 of  6&quot;)" opacity="0"><a xlink:href="7.svg"><path style="fill:#00ff00;fill-rule:evenodd" d="M29.90,27.92L15.08,27.92L15.08,13.10L29.90,13.10z"/></a></g><g id="hotspot.2" ident="" onmouseover="ShowHotSpot(evt,&apos;2&apos;)" onmouseout="HideHotSpot(evt,&apos;2&apos;)" onmousemove="ShowToolTip(evt,&apos;2&apos;,&quot;0578_Door internal catcher_V2&quot;)" opacity="0"><path style="fill:#00ff00;fill-rule:evenodd" d="M208.12,24.96L207.52,150.38L200.92,152.01L200.17,152.02L195.36,149.44L195.36,101.17L195.64,91.71L196.21,92.06L196.77,92.14L196.77,81.54L196.41,81.50L195.83,81.85L195.64,85.07L195.63,59.01L196.78,58.91L197.08,59.19L198.66,59.21L199.05,58.47L198.77,56.09L197.95,55.21L197.62,54.94L196.78,55.05L196.18,56.21L195.56,56.23L195.90,23.36L196.75,22.51L200.36,21.59L202.16,21.58zM206.41,86.91L206.40,88.45L205.81,89.56L204.89,90.06L203.83,90.07L202.15,88.92L202.16,87.31L203.46,86.36L205.26,86.05z"/></g><g id="hotspot.3" ident="" onmouseover="ShowHotSpot(evt,&apos;3&apos;)" onmouseout="HideHotSpot(evt,&apos;3&apos;)" onmousemove="ShowToolTip(evt,&apos;3&apos;,&quot;0078_Door front&quot;)" opacity="0"><path style="fill:#00ff00;fill-rule:evenodd" d="M259.84,50.45L259.77,84.40L258.14,84.40L226.48,67.39L225.52,67.39L224.52,68.38L223.64,70.89L223.36,84.76L223.36,119.46L223.63,121.18L224.49,123.71L225.93,126.23L227.64,127.91L247.97,138.98L259.31,145.17L259.28,178.95L258.95,179.18L257.60,179.13L205.79,151.10L205.73,150.85L207.52,150.38L208.12,24.96L201.78,21.40L201.76,19.88L203.30,19.88z"/></g><g id="hotspot.4" ident="" onmouseover="ShowHotSpot(evt,&apos;4&apos;)" onmouseout="HideHotSpot(evt,&apos;4&apos;)" onmousemove="ShowToolTip(evt,&apos;4&apos;,&quot;0202_Door latch head&quot;)" opacity="0"><path style="fill:#00ff00;fill-rule:evenodd" d="M195.56,85.26L195.83,81.85L196.41,81.50L196.77,81.54L196.77,92.14L196.21,92.07L195.64,91.74L195.39,89.48L194.71,89.78L194.23,89.79L193.10,89.19L193.08,85.87L193.55,85.20z"/></g><g id="hotspot.5" ident="" onmouseover="ShowHotSpot(evt,&apos;5&apos;)" onmouseout="HideHotSpot(evt,&apos;5&apos;)" onmousemove="ShowToolTip(evt,&apos;5&apos;,&quot;0250_M4X8 socket countersunk head screw&quot;)" opacity="0"><path style="fill:#00ff00;fill-rule:evenodd" d="M197.95,55.21L198.77,56.09L199.05,58.47L198.66,59.21L197.02,59.21L197.03,58.75L197.91,58.43L197.88,57.79L198.18,57.50L197.60,56.40L196.38,55.89L196.46,55.37L196.97,54.93L197.62,54.94zM168.80,124.54L168.80,125.51L168.48,126.05L165.26,126.80L164.17,128.28L163.42,128.24L162.56,127.37L162.25,126.55L162.23,124.32L162.46,123.99L163.98,123.98L164.27,124.25L165.57,124.27L168.22,123.97z"/></g><g id="hotspot.6" ident="" onmouseover="ShowHotSpot(evt,&apos;6&apos;)" onmouseout="HideHotSpot(evt,&apos;6&apos;)" onmousemove="ShowToolTip(evt,&apos;6&apos;,&quot;0253_M4X10 socket head cap screw&quot;)" opacity="0"><path style="fill:#00ff00;fill-rule:evenodd" d="M206.41,86.91L206.40,88.45L205.81,89.56L204.89,90.06L203.83,90.07L202.15,88.92L202.16,87.31L203.46,86.36L205.26,86.05z"/></g><g id="ToolTip" visibility="hidden" opacity="0" transform="translate(0,0)"><rect id="ToolTipShadow" opacity="0.20" fill="black" stroke="none" x="0" y="0" width="30" height="8"/><rect id="ToolTipBG" fill="#ffffe1" stroke="black" x="0" y="0" width="30" height="8"/><text xml:space="preserve" id="ToolTipText" fill="black" x="0" y="0" width="30" height="8">tooltip</text></g></g></svg>